<?xml version="1.0" encoding="utf-8" standalone="no"?>
<!DOCTYPE svg PUBLIC "-//W3C//DTD SVG 1.1//EN"
  "http://www.w3.org/Graphics/SVG/1.1/DTD/svg11.dtd">
<svg xmlns:xlink="http://www.w3.org/1999/xlink" width="501.525pt" height="175.4945pt" viewBox="0 0 501.525 175.4945" xmlns="http://www.w3.org/2000/svg" version="1.1">
 <metadata>
  <rdf:RDF xmlns:dc="http://purl.org/dc/elements/1.1/" xmlns:cc="http://creativecommons.org/ns#" xmlns:rdf="http://www.w3.org/1999/02/22-rdf-syntax-ns#">
   <cc:Work>
    <dc:type rdf:resource="http://purl.org/dc/dcmitype/StillImage"/>
    <dc:date>2025-06-30T21:37:41.326753</dc:date>
    <dc:format>image/svg+xml</dc:format>
    <dc:creator>
     <cc:Agent>
      <dc:title>Matplotlib v3.10.3, https://matplotlib.org/</dc:title>
     </cc:Agent>
    </dc:creator>
   </cc:Work>
  </rdf:RDF>
 </metadata>
 <defs>
  <style type="text/css">*{stroke-linejoin: round; stroke-linecap: butt}</style>
 </defs>
 <g id="figure_1">
  <g id="patch_1">
   <path d="M 0 175.4945 
L 501.525 175.4945 
L 501.525 0 
L 0 0 
z
" style="fill: #ffffff"/>
  </g>
  <g id="axes_1">
   <g id="patch_2">
    <path d="M 48.845 141.8095 
L 184.395055 141.8095 
L 184.395055 21.2795 
L 48.845 21.2795 
z
" style="fill: #ffffff"/>
   </g>
   <g id="matplotlib.axis_1">
    <g id="xtick_1">
     <g id="line2d_1">
      <path d="M 55.006366 141.8095 
L 55.006366 21.2795 
" clip-path="url(#p6b632b177b)" style="fill: none; stroke-dasharray: 2.96,1.28; stroke-dashoffset: 0; stroke: #b0b0b0; stroke-opacity: 0.5; stroke-width: 0.8"/>
     </g>
     <g id="line2d_2">
      <defs>
       <path id="m3cebc65957" d="M 0 0 
L 0 3.5 
" style="stroke: #000000; stroke-width: 0.8"/>
      </defs>
      <g>
       <use xlink:href="#m3cebc65957" x="55.006366" y="141.8095" style="stroke: #000000; stroke-width: 0.8"/>
      </g>
     </g>
     <g id="text_1">
      <!-- 0.973 -->
      <g transform="translate(43.555116 154.88825) scale(0.08 -0.08)">
       <defs>
        <path id="DejaVuSerif-30" d="M 2034 219 
Q 2513 219 2750 744 
Q 2988 1269 2988 2328 
Q 2988 3391 2750 3916 
Q 2513 4441 2034 4441 
Q 1556 4441 1318 3916 
Q 1081 3391 1081 2328 
Q 1081 1269 1318 744 
Q 1556 219 2034 219 
z
M 2034 -91 
Q 1275 -91 848 546 
Q 422 1184 422 2328 
Q 422 3475 848 4112 
Q 1275 4750 2034 4750 
Q 2797 4750 3222 4112 
Q 3647 3475 3647 2328 
Q 3647 1184 3222 546 
Q 2797 -91 2034 -91 
z
" transform="scale(0.015625)"/>
        <path id="DejaVuSerif-2e" d="M 603 325 
Q 603 500 722 622 
Q 841 744 1019 744 
Q 1191 744 1312 622 
Q 1434 500 1434 325 
Q 1434 153 1312 31 
Q 1191 -91 1019 -91 
Q 841 -91 722 29 
Q 603 150 603 325 
z
" transform="scale(0.015625)"/>
        <path id="DejaVuSerif-39" d="M 2994 2091 
Q 2784 1856 2512 1740 
Q 2241 1625 1900 1625 
Q 1206 1625 804 2044 
Q 403 2463 403 3188 
Q 403 3897 839 4323 
Q 1275 4750 2003 4750 
Q 2794 4750 3217 4161 
Q 3641 3572 3641 2478 
Q 3641 1253 3137 581 
Q 2634 -91 1722 -91 
Q 1475 -91 1203 -44 
Q 931 3 647 97 
L 647 872 
L 997 872 
Q 1038 556 1241 387 
Q 1444 219 1784 219 
Q 2391 219 2687 676 
Q 2984 1134 2994 2091 
z
M 1978 4441 
Q 1534 4441 1298 4117 
Q 1063 3794 1063 3188 
Q 1063 2581 1298 2256 
Q 1534 1931 1978 1931 
Q 2422 1931 2658 2245 
Q 2894 2559 2894 3150 
Q 2894 3772 2656 4106 
Q 2419 4441 1978 4441 
z
" transform="scale(0.015625)"/>
        <path id="DejaVuSerif-37" d="M 3609 4347 
L 1784 0 
L 1319 0 
L 3059 4153 
L 903 4153 
L 903 3578 
L 538 3578 
L 538 4666 
L 3609 4666 
L 3609 4347 
z
" transform="scale(0.015625)"/>
        <path id="DejaVuSerif-33" d="M 622 4469 
Q 988 4606 1323 4678 
Q 1659 4750 1953 4750 
Q 2638 4750 3022 4454 
Q 3406 4159 3406 3634 
Q 3406 3213 3140 2930 
Q 2875 2647 2388 2547 
Q 2963 2466 3280 2130 
Q 3597 1794 3597 1259 
Q 3597 606 3158 257 
Q 2719 -91 1894 -91 
Q 1528 -91 1179 -12 
Q 831 66 488 225 
L 488 1131 
L 838 1131 
Q 869 681 1141 450 
Q 1413 219 1906 219 
Q 2384 219 2661 495 
Q 2938 772 2938 1253 
Q 2938 1803 2653 2086 
Q 2369 2369 1819 2369 
L 1522 2369 
L 1522 2688 
L 1678 2688 
Q 2225 2688 2498 2914 
Q 2772 3141 2772 3597 
Q 2772 4006 2547 4223 
Q 2322 4441 1900 4441 
Q 1478 4441 1245 4241 
Q 1013 4041 972 3647 
L 622 3647 
L 622 4469 
z
" transform="scale(0.015625)"/>
       </defs>
       <use xlink:href="#DejaVuSerif-30"/>
       <use xlink:href="#DejaVuSerif-2e" transform="translate(63.623047 0)"/>
       <use xlink:href="#DejaVuSerif-39" transform="translate(95.410156 0)"/>
       <use xlink:href="#DejaVuSerif-37" transform="translate(159.033203 0)"/>
       <use xlink:href="#DejaVuSerif-33" transform="translate(222.65625 0)"/>
      </g>
     </g>
    </g>
    <g id="xtick_2">
     <g id="line2d_3">
      <path d="M 85.813197 141.8095 
L 85.813197 21.2795 
" clip-path="url(#p6b632b177b)" style="fill: none; stroke-dasharray: 2.96,1.28; stroke-dashoffset: 0; stroke: #b0b0b0; stroke-opacity: 0.5; stroke-width: 0.8"/>
     </g>
     <g id="line2d_4">
      <g>
       <use xlink:href="#m3cebc65957" x="85.813197" y="141.8095" style="stroke: #000000; stroke-width: 0.8"/>
      </g>
     </g>
     <g id="text_2">
      <!-- 2.735 -->
      <g transform="translate(74.361947 154.88825) scale(0.08 -0.08)">
       <defs>
        <path id="DejaVuSerif-32" d="M 819 3553 
L 469 3553 
L 469 4384 
Q 803 4563 1142 4656 
Q 1481 4750 1806 4750 
Q 2534 4750 2956 4397 
Q 3378 4044 3378 3438 
Q 3378 2753 2422 1800 
Q 2347 1728 2309 1691 
L 1131 513 
L 3078 513 
L 3078 1088 
L 3444 1088 
L 3444 0 
L 434 0 
L 434 341 
L 1850 1753 
Q 2319 2222 2519 2614 
Q 2719 3006 2719 3438 
Q 2719 3909 2473 4175 
Q 2228 4441 1797 4441 
Q 1350 4441 1106 4219 
Q 863 3997 819 3553 
z
" transform="scale(0.015625)"/>
        <path id="DejaVuSerif-35" d="M 3219 4666 
L 3219 4153 
L 1081 4153 
L 1081 2816 
Q 1244 2928 1461 2984 
Q 1678 3041 1947 3041 
Q 2703 3041 3140 2622 
Q 3578 2203 3578 1478 
Q 3578 738 3136 323 
Q 2694 -91 1894 -91 
Q 1572 -91 1234 -12 
Q 897 66 544 225 
L 544 1131 
L 897 1131 
Q 925 688 1179 453 
Q 1434 219 1894 219 
Q 2388 219 2653 544 
Q 2919 869 2919 1478 
Q 2919 2084 2655 2407 
Q 2391 2731 1894 2731 
Q 1613 2731 1398 2631 
Q 1184 2531 1019 2322 
L 750 2322 
L 750 4666 
L 3219 4666 
z
" transform="scale(0.015625)"/>
       </defs>
       <use xlink:href="#DejaVuSerif-32"/>
       <use xlink:href="#DejaVuSerif-2e" transform="translate(63.623047 0)"/>
       <use xlink:href="#DejaVuSerif-37" transform="translate(95.410156 0)"/>
       <use xlink:href="#DejaVuSerif-33" transform="translate(159.033203 0)"/>
       <use xlink:href="#DejaVuSerif-35" transform="translate(222.65625 0)"/>
      </g>
     </g>
    </g>
    <g id="xtick_3">
     <g id="line2d_5">
      <path d="M 116.620028 141.8095 
L 116.620028 21.2795 
" clip-path="url(#p6b632b177b)" style="fill: none; stroke-dasharray: 2.96,1.28; stroke-dashoffset: 0; stroke: #b0b0b0; stroke-opacity: 0.5; stroke-width: 0.8"/>
     </g>
     <g id="line2d_6">
      <g>
       <use xlink:href="#m3cebc65957" x="116.620028" y="141.8095" style="stroke: #000000; stroke-width: 0.8"/>
      </g>
     </g>
     <g id="text_3">
      <!-- 4.496 -->
      <g transform="translate(105.168778 154.88825) scale(0.08 -0.08)">
       <defs>
        <path id="DejaVuSerif-34" d="M 2234 1581 
L 2234 4063 
L 641 1581 
L 2234 1581 
z
M 3609 0 
L 1484 0 
L 1484 331 
L 2234 331 
L 2234 1247 
L 197 1247 
L 197 1588 
L 2241 4750 
L 2859 4750 
L 2859 1581 
L 3750 1581 
L 3750 1247 
L 2859 1247 
L 2859 331 
L 3609 331 
L 3609 0 
z
" transform="scale(0.015625)"/>
        <path id="DejaVuSerif-36" d="M 2094 219 
Q 2534 219 2771 542 
Q 3009 866 3009 1472 
Q 3009 2078 2771 2401 
Q 2534 2725 2094 2725 
Q 1647 2725 1412 2412 
Q 1178 2100 1178 1509 
Q 1178 888 1415 553 
Q 1653 219 2094 219 
z
M 1075 2569 
Q 1288 2803 1556 2918 
Q 1825 3034 2163 3034 
Q 2859 3034 3264 2615 
Q 3669 2197 3669 1472 
Q 3669 763 3233 336 
Q 2797 -91 2069 -91 
Q 1278 -91 853 498 
Q 428 1088 428 2181 
Q 428 3406 931 4078 
Q 1434 4750 2350 4750 
Q 2597 4750 2869 4703 
Q 3141 4656 3425 4563 
L 3425 3794 
L 3072 3794 
Q 3034 4109 2831 4275 
Q 2628 4441 2284 4441 
Q 1678 4441 1381 3981 
Q 1084 3522 1075 2569 
z
" transform="scale(0.015625)"/>
       </defs>
       <use xlink:href="#DejaVuSerif-34"/>
       <use xlink:href="#DejaVuSerif-2e" transform="translate(63.623047 0)"/>
       <use xlink:href="#DejaVuSerif-34" transform="translate(95.410156 0)"/>
       <use xlink:href="#DejaVuSerif-39" transform="translate(159.033203 0)"/>
       <use xlink:href="#DejaVuSerif-36" transform="translate(222.65625 0)"/>
      </g>
     </g>
    </g>
    <g id="xtick_4">
     <g id="line2d_7">
      <path d="M 147.426858 141.8095 
L 147.426858 21.2795 
" clip-path="url(#p6b632b177b)" style="fill: none; stroke-dasharray: 2.96,1.28; stroke-dashoffset: 0; stroke: #b0b0b0; stroke-opacity: 0.5; stroke-width: 0.8"/>
     </g>
     <g id="line2d_8">
      <g>
       <use xlink:href="#m3cebc65957" x="147.426858" y="141.8095" style="stroke: #000000; stroke-width: 0.8"/>
      </g>
     </g>
     <g id="text_4">
      <!-- 6.258 -->
      <g transform="translate(135.975608 154.88825) scale(0.08 -0.08)">
       <defs>
        <path id="DejaVuSerif-38" d="M 2981 1275 
Q 2981 1775 2732 2051 
Q 2484 2328 2034 2328 
Q 1584 2328 1336 2051 
Q 1088 1775 1088 1275 
Q 1088 772 1336 495 
Q 1584 219 2034 219 
Q 2484 219 2732 495 
Q 2981 772 2981 1275 
z
M 2853 3541 
Q 2853 3966 2637 4203 
Q 2422 4441 2034 4441 
Q 1650 4441 1433 4203 
Q 1216 3966 1216 3541 
Q 1216 3113 1433 2875 
Q 1650 2638 2034 2638 
Q 2422 2638 2637 2875 
Q 2853 3113 2853 3541 
z
M 2516 2484 
Q 3047 2413 3344 2092 
Q 3641 1772 3641 1275 
Q 3641 619 3225 264 
Q 2809 -91 2034 -91 
Q 1263 -91 845 264 
Q 428 619 428 1275 
Q 428 1772 725 2092 
Q 1022 2413 1556 2484 
Q 1084 2569 832 2842 
Q 581 3116 581 3541 
Q 581 4103 968 4426 
Q 1356 4750 2034 4750 
Q 2713 4750 3100 4426 
Q 3488 4103 3488 3541 
Q 3488 3116 3236 2842 
Q 2984 2569 2516 2484 
z
" transform="scale(0.015625)"/>
       </defs>
       <use xlink:href="#DejaVuSerif-36"/>
       <use xlink:href="#DejaVuSerif-2e" transform="translate(63.623047 0)"/>
       <use xlink:href="#DejaVuSerif-32" transform="translate(95.410156 0)"/>
       <use xlink:href="#DejaVuSerif-35" transform="translate(159.033203 0)"/>
       <use xlink:href="#DejaVuSerif-38" transform="translate(222.65625 0)"/>
      </g>
     </g>
    </g>
    <g id="xtick_5">
     <g id="line2d_9">
      <path d="M 178.233689 141.8095 
L 178.233689 21.2795 
" clip-path="url(#p6b632b177b)" style="fill: none; stroke-dasharray: 2.96,1.28; stroke-dashoffset: 0; stroke: #b0b0b0; stroke-opacity: 0.5; stroke-width: 0.8"/>
     </g>
     <g id="line2d_10">
      <g>
       <use xlink:href="#m3cebc65957" x="178.233689" y="141.8095" style="stroke: #000000; stroke-width: 0.8"/>
      </g>
     </g>
     <g id="text_5">
      <!-- 8.019 -->
      <g transform="translate(166.782439 154.88825) scale(0.08 -0.08)">
       <defs>
        <path id="DejaVuSerif-31" d="M 909 0 
L 909 331 
L 1722 331 
L 1722 4213 
L 781 3603 
L 781 4013 
L 1919 4750 
L 2350 4750 
L 2350 331 
L 3163 331 
L 3163 0 
L 909 0 
z
" transform="scale(0.015625)"/>
       </defs>
       <use xlink:href="#DejaVuSerif-38"/>
       <use xlink:href="#DejaVuSerif-2e" transform="translate(63.623047 0)"/>
       <use xlink:href="#DejaVuSerif-30" transform="translate(95.410156 0)"/>
       <use xlink:href="#DejaVuSerif-31" transform="translate(159.033203 0)"/>
       <use xlink:href="#DejaVuSerif-39" transform="translate(222.65625 0)"/>
      </g>
     </g>
    </g>
    <g id="text_6">
     <!-- Real -->
     <g transform="translate(107.576278 166.63075) scale(0.08 -0.08)">
      <defs>
       <path id="DejaVuSerif-52" d="M 3066 2316 
Q 3284 2256 3442 2114 
Q 3600 1972 3725 1716 
L 4403 331 
L 4972 331 
L 4972 0 
L 3872 0 
L 3144 1484 
Q 2934 1916 2759 2042 
Q 2584 2169 2278 2169 
L 1581 2169 
L 1581 331 
L 2241 331 
L 2241 0 
L 353 0 
L 353 331 
L 947 331 
L 947 4331 
L 353 4331 
L 353 4666 
L 2719 4666 
Q 3400 4666 3770 4341 
Q 4141 4016 4141 3419 
Q 4141 2938 3870 2661 
Q 3600 2384 3066 2316 
z
M 1581 2503 
L 2503 2503 
Q 2975 2503 3200 2726 
Q 3425 2950 3425 3419 
Q 3425 3888 3200 4109 
Q 2975 4331 2503 4331 
L 1581 4331 
L 1581 2503 
z
" transform="scale(0.015625)"/>
       <path id="DejaVuSerif-65" d="M 3469 1600 
L 991 1600 
L 991 1575 
Q 991 903 1244 561 
Q 1497 219 1991 219 
Q 2369 219 2611 417 
Q 2853 616 2950 1006 
L 3413 1006 
Q 3275 459 2904 184 
Q 2534 -91 1931 -91 
Q 1203 -91 761 389 
Q 319 869 319 1663 
Q 319 2450 753 2931 
Q 1188 3413 1894 3413 
Q 2647 3413 3050 2948 
Q 3453 2484 3469 1600 
z
M 2791 1931 
Q 2772 2513 2545 2808 
Q 2319 3103 1894 3103 
Q 1497 3103 1269 2806 
Q 1041 2509 991 1931 
L 2791 1931 
z
" transform="scale(0.015625)"/>
       <path id="DejaVuSerif-61" d="M 2547 1044 
L 2547 1747 
L 1806 1747 
Q 1378 1747 1168 1562 
Q 959 1378 959 997 
Q 959 650 1171 447 
Q 1384 244 1747 244 
Q 2106 244 2326 466 
Q 2547 688 2547 1044 
z
M 3122 2075 
L 3122 331 
L 3634 331 
L 3634 0 
L 2547 0 
L 2547 359 
Q 2356 128 2106 18 
Q 1856 -91 1522 -91 
Q 969 -91 644 203 
Q 319 497 319 997 
Q 319 1513 691 1797 
Q 1063 2081 1741 2081 
L 2547 2081 
L 2547 2309 
Q 2547 2688 2317 2895 
Q 2088 3103 1672 3103 
Q 1328 3103 1125 2947 
Q 922 2791 872 2484 
L 575 2484 
L 575 3156 
Q 875 3284 1158 3348 
Q 1441 3413 1709 3413 
Q 2400 3413 2761 3070 
Q 3122 2728 3122 2075 
z
" transform="scale(0.015625)"/>
       <path id="DejaVuSerif-6c" d="M 1313 331 
L 1856 331 
L 1856 0 
L 184 0 
L 184 331 
L 738 331 
L 738 4531 
L 184 4531 
L 184 4863 
L 1313 4863 
L 1313 331 
z
" transform="scale(0.015625)"/>
      </defs>
      <use xlink:href="#DejaVuSerif-52"/>
      <use xlink:href="#DejaVuSerif-65" transform="translate(75.292969 0)"/>
      <use xlink:href="#DejaVuSerif-61" transform="translate(134.472656 0)"/>
      <use xlink:href="#DejaVuSerif-6c" transform="translate(194.091797 0)"/>
     </g>
    </g>
    <g id="text_7">
     <!-- 1e3 -->
     <g transform="translate(169.480055 165.63075) scale(0.08 -0.08)">
      <use xlink:href="#DejaVuSerif-31"/>
      <use xlink:href="#DejaVuSerif-65" transform="translate(63.623047 0)"/>
      <use xlink:href="#DejaVuSerif-33" transform="translate(122.802734 0)"/>
     </g>
    </g>
   </g>
   <g id="matplotlib.axis_2">
    <g id="ytick_1">
     <g id="line2d_11">
      <path d="M 48.845 136.330864 
L 184.395055 136.330864 
" clip-path="url(#p6b632b177b)" style="fill: none; stroke-dasharray: 2.96,1.28; stroke-dashoffset: 0; stroke: #b0b0b0; stroke-opacity: 0.5; stroke-width: 0.8"/>
     </g>
     <g id="line2d_12">
      <defs>
       <path id="m5ad8b39449" d="M 0 0 
L -3.5 0 
" style="stroke: #000000; stroke-width: 0.8"/>
      </defs>
      <g>
       <use xlink:href="#m5ad8b39449" x="48.845" y="136.330864" style="stroke: #000000; stroke-width: 0.8"/>
      </g>
     </g>
     <g id="text_8">
      <!-- 0.973 -->
      <g transform="translate(18.9425 139.370239) scale(0.08 -0.08)">
       <use xlink:href="#DejaVuSerif-30"/>
       <use xlink:href="#DejaVuSerif-2e" transform="translate(63.623047 0)"/>
       <use xlink:href="#DejaVuSerif-39" transform="translate(95.410156 0)"/>
       <use xlink:href="#DejaVuSerif-37" transform="translate(159.033203 0)"/>
       <use xlink:href="#DejaVuSerif-33" transform="translate(222.65625 0)"/>
      </g>
     </g>
    </g>
    <g id="ytick_2">
     <g id="line2d_13">
      <path d="M 48.845 108.937682 
L 184.395055 108.937682 
" clip-path="url(#p6b632b177b)" style="fill: none; stroke-dasharray: 2.96,1.28; stroke-dashoffset: 0; stroke: #b0b0b0; stroke-opacity: 0.5; stroke-width: 0.8"/>
     </g>
     <g id="line2d_14">
      <g>
       <use xlink:href="#m5ad8b39449" x="48.845" y="108.937682" style="stroke: #000000; stroke-width: 0.8"/>
      </g>
     </g>
     <g id="text_9">
      <!-- 2.735 -->
      <g transform="translate(18.9425 111.977057) scale(0.08 -0.08)">
       <use xlink:href="#DejaVuSerif-32"/>
       <use xlink:href="#DejaVuSerif-2e" transform="translate(63.623047 0)"/>
       <use xlink:href="#DejaVuSerif-37" transform="translate(95.410156 0)"/>
       <use xlink:href="#DejaVuSerif-33" transform="translate(159.033203 0)"/>
       <use xlink:href="#DejaVuSerif-35" transform="translate(222.65625 0)"/>
      </g>
     </g>
    </g>
    <g id="ytick_3">
     <g id="line2d_15">
      <path d="M 48.845 81.5445 
L 184.395055 81.5445 
" clip-path="url(#p6b632b177b)" style="fill: none; stroke-dasharray: 2.96,1.28; stroke-dashoffset: 0; stroke: #b0b0b0; stroke-opacity: 0.5; stroke-width: 0.8"/>
     </g>
     <g id="line2d_16">
      <g>
       <use xlink:href="#m5ad8b39449" x="48.845" y="81.5445" style="stroke: #000000; stroke-width: 0.8"/>
      </g>
     </g>
     <g id="text_10">
      <!-- 4.496 -->
      <g transform="translate(18.9425 84.583875) scale(0.08 -0.08)">
       <use xlink:href="#DejaVuSerif-34"/>
       <use xlink:href="#DejaVuSerif-2e" transform="translate(63.623047 0)"/>
       <use xlink:href="#DejaVuSerif-34" transform="translate(95.410156 0)"/>
       <use xlink:href="#DejaVuSerif-39" transform="translate(159.033203 0)"/>
       <use xlink:href="#DejaVuSerif-36" transform="translate(222.65625 0)"/>
      </g>
     </g>
    </g>
    <g id="ytick_4">
     <g id="line2d_17">
      <path d="M 48.845 54.151318 
L 184.395055 54.151318 
" clip-path="url(#p6b632b177b)" style="fill: none; stroke-dasharray: 2.96,1.28; stroke-dashoffset: 0; stroke: #b0b0b0; stroke-opacity: 0.5; stroke-width: 0.8"/>
     </g>
     <g id="line2d_18">
      <g>
       <use xlink:href="#m5ad8b39449" x="48.845" y="54.151318" style="stroke: #000000; stroke-width: 0.8"/>
      </g>
     </g>
     <g id="text_11">
      <!-- 6.258 -->
      <g transform="translate(18.9425 57.190693) scale(0.08 -0.08)">
       <use xlink:href="#DejaVuSerif-36"/>
       <use xlink:href="#DejaVuSerif-2e" transform="translate(63.623047 0)"/>
       <use xlink:href="#DejaVuSerif-32" transform="translate(95.410156 0)"/>
       <use xlink:href="#DejaVuSerif-35" transform="translate(159.033203 0)"/>
       <use xlink:href="#DejaVuSerif-38" transform="translate(222.65625 0)"/>
      </g>
     </g>
    </g>
    <g id="ytick_5">
     <g id="line2d_19">
      <path d="M 48.845 26.758136 
L 184.395055 26.758136 
" clip-path="url(#p6b632b177b)" style="fill: none; stroke-dasharray: 2.96,1.28; stroke-dashoffset: 0; stroke: #b0b0b0; stroke-opacity: 0.5; stroke-width: 0.8"/>
     </g>
     <g id="line2d_20">
      <g>
       <use xlink:href="#m5ad8b39449" x="48.845" y="26.758136" style="stroke: #000000; stroke-width: 0.8"/>
      </g>
     </g>
     <g id="text_12">
      <!-- 8.019 -->
      <g transform="translate(18.9425 29.797511) scale(0.08 -0.08)">
       <use xlink:href="#DejaVuSerif-38"/>
       <use xlink:href="#DejaVuSerif-2e" transform="translate(63.623047 0)"/>
       <use xlink:href="#DejaVuSerif-30" transform="translate(95.410156 0)"/>
       <use xlink:href="#DejaVuSerif-31" transform="translate(159.033203 0)"/>
       <use xlink:href="#DejaVuSerif-39" transform="translate(222.65625 0)"/>
      </g>
     </g>
    </g>
    <g id="text_13">
     <!-- Previsto -->
     <g transform="translate(13.27875 98.122625) rotate(-90) scale(0.08 -0.08)">
      <defs>
       <path id="DejaVuSerif-50" d="M 1581 2375 
L 2406 2375 
Q 2872 2375 3115 2626 
Q 3359 2878 3359 3353 
Q 3359 3831 3115 4081 
Q 2872 4331 2406 4331 
L 1581 4331 
L 1581 2375 
z
M 353 0 
L 353 331 
L 947 331 
L 947 4331 
L 353 4331 
L 353 4666 
L 2559 4666 
Q 3259 4666 3668 4311 
Q 4078 3956 4078 3353 
Q 4078 2753 3668 2397 
Q 3259 2041 2559 2041 
L 1581 2041 
L 1581 331 
L 2303 331 
L 2303 0 
L 353 0 
z
" transform="scale(0.015625)"/>
       <path id="DejaVuSerif-72" d="M 3059 3328 
L 3059 2497 
L 2728 2497 
Q 2713 2744 2591 2866 
Q 2469 2988 2234 2988 
Q 1809 2988 1582 2694 
Q 1356 2400 1356 1850 
L 1356 331 
L 2022 331 
L 2022 0 
L 263 0 
L 263 331 
L 781 331 
L 781 2994 
L 231 2994 
L 231 3322 
L 1356 3322 
L 1356 2731 
Q 1525 3078 1790 3245 
Q 2056 3413 2438 3413 
Q 2578 3413 2733 3391 
Q 2888 3369 3059 3328 
z
" transform="scale(0.015625)"/>
       <path id="DejaVuSerif-76" d="M 1581 0 
L 359 2988 
L -19 2988 
L -19 3322 
L 1509 3322 
L 1509 2988 
L 978 2988 
L 1913 703 
L 2847 2988 
L 2350 2988 
L 2350 3322 
L 3597 3322 
L 3597 2988 
L 3225 2988 
L 2003 0 
L 1581 0 
z
" transform="scale(0.015625)"/>
       <path id="DejaVuSerif-69" d="M 622 4353 
Q 622 4497 726 4603 
Q 831 4709 978 4709 
Q 1122 4709 1226 4603 
Q 1331 4497 1331 4353 
Q 1331 4206 1228 4103 
Q 1125 4000 978 4000 
Q 831 4000 726 4103 
Q 622 4206 622 4353 
z
M 1356 331 
L 1900 331 
L 1900 0 
L 231 0 
L 231 331 
L 781 331 
L 781 2988 
L 231 2988 
L 231 3322 
L 1356 3322 
L 1356 331 
z
" transform="scale(0.015625)"/>
       <path id="DejaVuSerif-73" d="M 359 184 
L 359 959 
L 691 959 
Q 703 588 923 403 
Q 1144 219 1575 219 
Q 1963 219 2166 364 
Q 2369 509 2369 788 
Q 2369 1006 2220 1140 
Q 2072 1275 1594 1428 
L 1178 1569 
Q 750 1706 558 1912 
Q 366 2119 366 2438 
Q 366 2894 700 3153 
Q 1034 3413 1625 3413 
Q 1888 3413 2178 3344 
Q 2469 3275 2778 3144 
L 2778 2419 
L 2447 2419 
Q 2434 2741 2221 2922 
Q 2009 3103 1644 3103 
Q 1281 3103 1095 2975 
Q 909 2847 909 2591 
Q 909 2381 1050 2254 
Q 1191 2128 1613 1997 
L 2069 1856 
Q 2541 1709 2748 1489 
Q 2956 1269 2956 922 
Q 2956 450 2595 179 
Q 2234 -91 1600 -91 
Q 1278 -91 972 -22 
Q 666 47 359 184 
z
" transform="scale(0.015625)"/>
       <path id="DejaVuSerif-74" d="M 691 2988 
L 184 2988 
L 184 3322 
L 691 3322 
L 691 4353 
L 1269 4353 
L 1269 3322 
L 2350 3322 
L 2350 2988 
L 1269 2988 
L 1269 878 
Q 1269 456 1350 337 
Q 1431 219 1650 219 
Q 1875 219 1978 351 
Q 2081 484 2088 781 
L 2522 781 
Q 2497 328 2275 118 
Q 2053 -91 1600 -91 
Q 1103 -91 897 129 
Q 691 350 691 878 
L 691 2988 
z
" transform="scale(0.015625)"/>
       <path id="DejaVuSerif-6f" d="M 1925 219 
Q 2388 219 2623 584 
Q 2859 950 2859 1663 
Q 2859 2375 2623 2739 
Q 2388 3103 1925 3103 
Q 1463 3103 1227 2739 
Q 991 2375 991 1663 
Q 991 950 1228 584 
Q 1466 219 1925 219 
z
M 1925 -91 
Q 1200 -91 759 389 
Q 319 869 319 1663 
Q 319 2456 758 2934 
Q 1197 3413 1925 3413 
Q 2653 3413 3092 2934 
Q 3531 2456 3531 1663 
Q 3531 869 3092 389 
Q 2653 -91 1925 -91 
z
" transform="scale(0.015625)"/>
      </defs>
      <use xlink:href="#DejaVuSerif-50"/>
      <use xlink:href="#DejaVuSerif-72" transform="translate(67.285156 0)"/>
      <use xlink:href="#DejaVuSerif-65" transform="translate(115.087891 0)"/>
      <use xlink:href="#DejaVuSerif-76" transform="translate(174.267578 0)"/>
      <use xlink:href="#DejaVuSerif-69" transform="translate(230.761719 0)"/>
      <use xlink:href="#DejaVuSerif-73" transform="translate(262.744141 0)"/>
      <use xlink:href="#DejaVuSerif-74" transform="translate(314.0625 0)"/>
      <use xlink:href="#DejaVuSerif-6f" transform="translate(354.248047 0)"/>
     </g>
    </g>
    <g id="text_14">
     <!-- 1e3 -->
     <g transform="translate(48.845 18.2795) scale(0.08 -0.08)">
      <use xlink:href="#DejaVuSerif-31"/>
      <use xlink:href="#DejaVuSerif-65" transform="translate(63.623047 0)"/>
      <use xlink:href="#DejaVuSerif-33" transform="translate(122.802734 0)"/>
     </g>
    </g>
   </g>
   <g id="PathCollection_1">
    <defs>
     <path id="m386e70a31c" d="M 0 0.5 
C 0.132602 0.5 0.25979 0.447317 0.353553 0.353553 
C 0.447317 0.25979 0.5 0.132602 0.5 0 
C 0.5 -0.132602 0.447317 -0.25979 0.353553 -0.353553 
C 0.25979 -0.447317 0.132602 -0.5 0 -0.5 
C -0.132602 -0.5 -0.25979 -0.447317 -0.353553 -0.353553 
C -0.447317 -0.25979 -0.5 -0.132602 -0.5 0 
C -0.5 0.132602 -0.447317 0.25979 -0.353553 0.353553 
C -0.25979 0.447317 -0.132602 0.5 0 0.5 
z
" style="stroke: #ff9046"/>
    </defs>
    <g clip-path="url(#p6b632b177b)">
     <use xlink:href="#m386e70a31c" x="130.768415" y="64.700631" style="fill: #ff9046; stroke: #ff9046"/>
     <use xlink:href="#m386e70a31c" x="98.000588" y="75.206896" style="fill: #ff9046; stroke: #ff9046"/>
     <use xlink:href="#m386e70a31c" x="93.952462" y="88.782691" style="fill: #ff9046; stroke: #ff9046"/>
     <use xlink:href="#m386e70a31c" x="91.980898" y="99.618281" style="fill: #ff9046; stroke: #ff9046"/>
     <use xlink:href="#m386e70a31c" x="91.097548" y="103.29337" style="fill: #ff9046; stroke: #ff9046"/>
     <use xlink:href="#m386e70a31c" x="92.322176" y="95.496582" style="fill: #ff9046; stroke: #ff9046"/>
     <use xlink:href="#m386e70a31c" x="72.237442" y="85.725171" style="fill: #ff9046; stroke: #ff9046"/>
     <use xlink:href="#m386e70a31c" x="79.416168" y="81.645275" style="fill: #ff9046; stroke: #ff9046"/>
     <use xlink:href="#m386e70a31c" x="89.212775" y="88.794207" style="fill: #ff9046; stroke: #ff9046"/>
     <use xlink:href="#m386e70a31c" x="140.56655" y="96.308677" style="fill: #ff9046; stroke: #ff9046"/>
     <use xlink:href="#m386e70a31c" x="159.900644" y="89.49291" style="fill: #ff9046; stroke: #ff9046"/>
     <use xlink:href="#m386e70a31c" x="156.530533" y="76.192443" style="fill: #ff9046; stroke: #ff9046"/>
     <use xlink:href="#m386e70a31c" x="144.556332" y="70.855431" style="fill: #ff9046; stroke: #ff9046"/>
     <use xlink:href="#m386e70a31c" x="120.153092" y="81.09352" style="fill: #ff9046; stroke: #ff9046"/>
     <use xlink:href="#m386e70a31c" x="146.976223" y="88.400497" style="fill: #ff9046; stroke: #ff9046"/>
     <use xlink:href="#m386e70a31c" x="137.182566" y="87.803235" style="fill: #ff9046; stroke: #ff9046"/>
     <use xlink:href="#m386e70a31c" x="121.130144" y="84.281455" style="fill: #ff9046; stroke: #ff9046"/>
     <use xlink:href="#m386e70a31c" x="135.898764" y="82.757981" style="fill: #ff9046; stroke: #ff9046"/>
     <use xlink:href="#m386e70a31c" x="141.612445" y="85.424405" style="fill: #ff9046; stroke: #ff9046"/>
     <use xlink:href="#m386e70a31c" x="158.538885" y="75.093546" style="fill: #ff9046; stroke: #ff9046"/>
     <use xlink:href="#m386e70a31c" x="157.685193" y="62.043004" style="fill: #ff9046; stroke: #ff9046"/>
     <use xlink:href="#m386e70a31c" x="178.233689" y="50.356604" style="fill: #ff9046; stroke: #ff9046"/>
     <use xlink:href="#m386e70a31c" x="172.803422" y="42.772603" style="fill: #ff9046; stroke: #ff9046"/>
     <use xlink:href="#m386e70a31c" x="156.036896" y="41.883402" style="fill: #ff9046; stroke: #ff9046"/>
     <use xlink:href="#m386e70a31c" x="151.818605" y="49.615089" style="fill: #ff9046; stroke: #ff9046"/>
     <use xlink:href="#m386e70a31c" x="133.26248" y="55.905703" style="fill: #ff9046; stroke: #ff9046"/>
     <use xlink:href="#m386e70a31c" x="111.566304" y="59.624585" style="fill: #ff9046; stroke: #ff9046"/>
     <use xlink:href="#m386e70a31c" x="83.290595" y="71.75413" style="fill: #ff9046; stroke: #ff9046"/>
     <use xlink:href="#m386e70a31c" x="80.829094" y="87.59806" style="fill: #ff9046; stroke: #ff9046"/>
     <use xlink:href="#m386e70a31c" x="60.17926" y="98.367187" style="fill: #ff9046; stroke: #ff9046"/>
     <use xlink:href="#m386e70a31c" x="58.528455" y="111.115052" style="fill: #ff9046; stroke: #ff9046"/>
     <use xlink:href="#m386e70a31c" x="70.704662" y="115.6679" style="fill: #ff9046; stroke: #ff9046"/>
     <use xlink:href="#m386e70a31c" x="70.834385" y="120.252594" style="fill: #ff9046; stroke: #ff9046"/>
     <use xlink:href="#m386e70a31c" x="83.287557" y="117.812342" style="fill: #ff9046; stroke: #ff9046"/>
     <use xlink:href="#m386e70a31c" x="68.148553" y="117.299445" style="fill: #ff9046; stroke: #ff9046"/>
     <use xlink:href="#m386e70a31c" x="85.361497" y="117.119142" style="fill: #ff9046; stroke: #ff9046"/>
     <use xlink:href="#m386e70a31c" x="86.205879" y="113.953373" style="fill: #ff9046; stroke: #ff9046"/>
     <use xlink:href="#m386e70a31c" x="79.289357" y="112.692661" style="fill: #ff9046; stroke: #ff9046"/>
     <use xlink:href="#m386e70a31c" x="79.052677" y="112.010443" style="fill: #ff9046; stroke: #ff9046"/>
     <use xlink:href="#m386e70a31c" x="83.022869" y="115.272149" style="fill: #ff9046; stroke: #ff9046"/>
     <use xlink:href="#m386e70a31c" x="82.258881" y="116.337262" style="fill: #ff9046; stroke: #ff9046"/>
     <use xlink:href="#m386e70a31c" x="87.542136" y="116.65329" style="fill: #ff9046; stroke: #ff9046"/>
     <use xlink:href="#m386e70a31c" x="82.188797" y="114.718955" style="fill: #ff9046; stroke: #ff9046"/>
     <use xlink:href="#m386e70a31c" x="82.55095" y="113.767206" style="fill: #ff9046; stroke: #ff9046"/>
     <use xlink:href="#m386e70a31c" x="77.185101" y="113.082969" style="fill: #ff9046; stroke: #ff9046"/>
     <use xlink:href="#m386e70a31c" x="55.006366" y="116.66259" style="fill: #ff9046; stroke: #ff9046"/>
     <use xlink:href="#m386e70a31c" x="73.933608" y="122.432666" style="fill: #ff9046; stroke: #ff9046"/>
     <use xlink:href="#m386e70a31c" x="101.446783" y="121.383056" style="fill: #ff9046; stroke: #ff9046"/>
     <use xlink:href="#m386e70a31c" x="93.955089" y="116.680922" style="fill: #ff9046; stroke: #ff9046"/>
     <use xlink:href="#m386e70a31c" x="89.17898" y="111.718911" style="fill: #ff9046; stroke: #ff9046"/>
     <use xlink:href="#m386e70a31c" x="87.981578" y="109.936056" style="fill: #ff9046; stroke: #ff9046"/>
     <use xlink:href="#m386e70a31c" x="87.823829" y="108.805468" style="fill: #ff9046; stroke: #ff9046"/>
     <use xlink:href="#m386e70a31c" x="75.47767" y="108.419884" style="fill: #ff9046; stroke: #ff9046"/>
     <use xlink:href="#m386e70a31c" x="85.456491" y="108.948417" style="fill: #ff9046; stroke: #ff9046"/>
     <use xlink:href="#m386e70a31c" x="93.558787" y="110.949349" style="fill: #ff9046; stroke: #ff9046"/>
     <use xlink:href="#m386e70a31c" x="104.123118" y="111.387846" style="fill: #ff9046; stroke: #ff9046"/>
     <use xlink:href="#m386e70a31c" x="139.108285" y="108.526902" style="fill: #ff9046; stroke: #ff9046"/>
     <use xlink:href="#m386e70a31c" x="145.850901" y="101.048564" style="fill: #ff9046; stroke: #ff9046"/>
     <use xlink:href="#m386e70a31c" x="98.518772" y="91.314262" style="fill: #ff9046; stroke: #ff9046"/>
     <use xlink:href="#m386e70a31c" x="83.431958" y="91.097058" style="fill: #ff9046; stroke: #ff9046"/>
    </g>
   </g>
   <g id="line2d_21">
    <path d="M 55.006366 136.330864 
L 178.233689 26.758136 
" clip-path="url(#p6b632b177b)" style="fill: none; stroke-dasharray: 2.442,1.056; stroke-dashoffset: 0; stroke: #202020; stroke-width: 0.66"/>
   </g>
   <g id="patch_3">
    <path d="M 48.845 141.8095 
L 48.845 21.2795 
" style="fill: none; stroke: #000000; stroke-width: 0.8; stroke-linejoin: miter; stroke-linecap: square"/>
   </g>
   <g id="patch_4">
    <path d="M 48.845 141.8095 
L 184.395055 141.8095 
" style="fill: none; stroke: #000000; stroke-width: 0.8; stroke-linejoin: miter; stroke-linecap: square"/>
   </g>
   <g id="legend_1">
    <g id="PathCollection_2">
     <g>
      <use xlink:href="#m386e70a31c" x="67.469403" y="14.37875" style="fill: #ff9046; stroke: #ff9046"/>
     </g>
    </g>
    <g id="text_15">
     <!-- Previsto -->
     <g transform="translate(81.869403 16.47875) scale(0.08 -0.08)">
      <use xlink:href="#DejaVuSerif-50"/>
      <use xlink:href="#DejaVuSerif-72" transform="translate(67.285156 0)"/>
      <use xlink:href="#DejaVuSerif-65" transform="translate(115.087891 0)"/>
      <use xlink:href="#DejaVuSerif-76" transform="translate(174.267578 0)"/>
      <use xlink:href="#DejaVuSerif-69" transform="translate(230.761719 0)"/>
      <use xlink:href="#DejaVuSerif-73" transform="translate(262.744141 0)"/>
      <use xlink:href="#DejaVuSerif-74" transform="translate(314.0625 0)"/>
      <use xlink:href="#DejaVuSerif-6f" transform="translate(354.248047 0)"/>
     </g>
    </g>
    <g id="line2d_22">
     <path d="M 131.025653 13.67875 
L 139.025653 13.67875 
L 147.025653 13.67875 
" style="fill: none; stroke-dasharray: 2.442,1.056; stroke-dashoffset: 0; stroke: #202020; stroke-width: 0.66"/>
    </g>
    <g id="text_16">
     <!-- Ideal -->
     <g transform="translate(153.425653 16.47875) scale(0.08 -0.08)">
      <defs>
       <path id="DejaVuSerif-49" d="M 1581 331 
L 2175 331 
L 2175 0 
L 353 0 
L 353 331 
L 947 331 
L 947 4331 
L 353 4331 
L 353 4666 
L 2175 4666 
L 2175 4331 
L 1581 4331 
L 1581 331 
z
" transform="scale(0.015625)"/>
       <path id="DejaVuSerif-64" d="M 3359 331 
L 3909 331 
L 3909 0 
L 2784 0 
L 2784 519 
Q 2616 206 2355 57 
Q 2094 -91 1709 -91 
Q 1097 -91 708 395 
Q 319 881 319 1663 
Q 319 2444 706 2928 
Q 1094 3413 1709 3413 
Q 2094 3413 2355 3264 
Q 2616 3116 2784 2803 
L 2784 4531 
L 2241 4531 
L 2241 4863 
L 3359 4863 
L 3359 331 
z
M 2784 1497 
L 2784 1825 
Q 2784 2422 2554 2737 
Q 2325 3053 1888 3053 
Q 1444 3053 1217 2703 
Q 991 2353 991 1663 
Q 991 975 1217 622 
Q 1444 269 1888 269 
Q 2325 269 2554 583 
Q 2784 897 2784 1497 
z
" transform="scale(0.015625)"/>
      </defs>
      <use xlink:href="#DejaVuSerif-49"/>
      <use xlink:href="#DejaVuSerif-64" transform="translate(39.501953 0)"/>
      <use xlink:href="#DejaVuSerif-65" transform="translate(103.515625 0)"/>
      <use xlink:href="#DejaVuSerif-61" transform="translate(162.695312 0)"/>
      <use xlink:href="#DejaVuSerif-6c" transform="translate(222.314453 0)"/>
     </g>
    </g>
   </g>
  </g>
  <g id="axes_2">
   <g id="patch_5">
    <path d="M 223.22489 141.8095 
L 494.325 141.8095 
L 494.325 21.2795 
L 223.22489 21.2795 
z
" style="fill: #ffffff"/>
   </g>
   <g id="matplotlib.axis_3">
    <g id="xtick_6">
     <g id="line2d_23">
      <path d="M 234.745796 141.8095 
L 234.745796 21.2795 
" clip-path="url(#p12a1b3fc47)" style="fill: none; stroke-dasharray: 2.96,1.28; stroke-dashoffset: 0; stroke: #b0b0b0; stroke-opacity: 0.5; stroke-width: 0.8"/>
     </g>
     <g id="line2d_24">
      <g>
       <use xlink:href="#m3cebc65957" x="234.745796" y="141.8095" style="stroke: #000000; stroke-width: 0.8"/>
      </g>
     </g>
     <g id="text_17">
      <!-- 2000 -->
      <g transform="translate(224.565796 154.88825) scale(0.08 -0.08)">
       <use xlink:href="#DejaVuSerif-32"/>
       <use xlink:href="#DejaVuSerif-30" transform="translate(63.623047 0)"/>
       <use xlink:href="#DejaVuSerif-30" transform="translate(127.246094 0)"/>
       <use xlink:href="#DejaVuSerif-30" transform="translate(190.869141 0)"/>
      </g>
     </g>
    </g>
    <g id="xtick_7">
     <g id="line2d_25">
      <path d="M 283.577011 141.8095 
L 283.577011 21.2795 
" clip-path="url(#p12a1b3fc47)" style="fill: none; stroke-dasharray: 2.96,1.28; stroke-dashoffset: 0; stroke: #b0b0b0; stroke-opacity: 0.5; stroke-width: 0.8"/>
     </g>
     <g id="line2d_26">
      <g>
       <use xlink:href="#m3cebc65957" x="283.577011" y="141.8095" style="stroke: #000000; stroke-width: 0.8"/>
      </g>
     </g>
     <g id="text_18">
      <!-- 2005 -->
      <g transform="translate(273.397011 154.88825) scale(0.08 -0.08)">
       <use xlink:href="#DejaVuSerif-32"/>
       <use xlink:href="#DejaVuSerif-30" transform="translate(63.623047 0)"/>
       <use xlink:href="#DejaVuSerif-30" transform="translate(127.246094 0)"/>
       <use xlink:href="#DejaVuSerif-35" transform="translate(190.869141 0)"/>
      </g>
     </g>
    </g>
    <g id="xtick_8">
     <g id="line2d_27">
      <path d="M 332.381499 141.8095 
L 332.381499 21.2795 
" clip-path="url(#p12a1b3fc47)" style="fill: none; stroke-dasharray: 2.96,1.28; stroke-dashoffset: 0; stroke: #b0b0b0; stroke-opacity: 0.5; stroke-width: 0.8"/>
     </g>
     <g id="line2d_28">
      <g>
       <use xlink:href="#m3cebc65957" x="332.381499" y="141.8095" style="stroke: #000000; stroke-width: 0.8"/>
      </g>
     </g>
     <g id="text_19">
      <!-- 2010 -->
      <g transform="translate(322.201499 154.88825) scale(0.08 -0.08)">
       <use xlink:href="#DejaVuSerif-32"/>
       <use xlink:href="#DejaVuSerif-30" transform="translate(63.623047 0)"/>
       <use xlink:href="#DejaVuSerif-31" transform="translate(127.246094 0)"/>
       <use xlink:href="#DejaVuSerif-30" transform="translate(190.869141 0)"/>
      </g>
     </g>
    </g>
    <g id="xtick_9">
     <g id="line2d_29">
      <path d="M 381.185987 141.8095 
L 381.185987 21.2795 
" clip-path="url(#p12a1b3fc47)" style="fill: none; stroke-dasharray: 2.96,1.28; stroke-dashoffset: 0; stroke: #b0b0b0; stroke-opacity: 0.5; stroke-width: 0.8"/>
     </g>
     <g id="line2d_30">
      <g>
       <use xlink:href="#m3cebc65957" x="381.185987" y="141.8095" style="stroke: #000000; stroke-width: 0.8"/>
      </g>
     </g>
     <g id="text_20">
      <!-- 2015 -->
      <g transform="translate(371.005987 154.88825) scale(0.08 -0.08)">
       <use xlink:href="#DejaVuSerif-32"/>
       <use xlink:href="#DejaVuSerif-30" transform="translate(63.623047 0)"/>
       <use xlink:href="#DejaVuSerif-31" transform="translate(127.246094 0)"/>
       <use xlink:href="#DejaVuSerif-35" transform="translate(190.869141 0)"/>
      </g>
     </g>
    </g>
    <g id="xtick_10">
     <g id="line2d_31">
      <path d="M 429.990475 141.8095 
L 429.990475 21.2795 
" clip-path="url(#p12a1b3fc47)" style="fill: none; stroke-dasharray: 2.96,1.28; stroke-dashoffset: 0; stroke: #b0b0b0; stroke-opacity: 0.5; stroke-width: 0.8"/>
     </g>
     <g id="line2d_32">
      <g>
       <use xlink:href="#m3cebc65957" x="429.990475" y="141.8095" style="stroke: #000000; stroke-width: 0.8"/>
      </g>
     </g>
     <g id="text_21">
      <!-- 2020 -->
      <g transform="translate(419.810475 154.88825) scale(0.08 -0.08)">
       <use xlink:href="#DejaVuSerif-32"/>
       <use xlink:href="#DejaVuSerif-30" transform="translate(63.623047 0)"/>
       <use xlink:href="#DejaVuSerif-32" transform="translate(127.246094 0)"/>
       <use xlink:href="#DejaVuSerif-30" transform="translate(190.869141 0)"/>
      </g>
     </g>
    </g>
    <g id="xtick_11">
     <g id="line2d_33">
      <path d="M 478.82169 141.8095 
L 478.82169 21.2795 
" clip-path="url(#p12a1b3fc47)" style="fill: none; stroke-dasharray: 2.96,1.28; stroke-dashoffset: 0; stroke: #b0b0b0; stroke-opacity: 0.5; stroke-width: 0.8"/>
     </g>
     <g id="line2d_34">
      <g>
       <use xlink:href="#m3cebc65957" x="478.82169" y="141.8095" style="stroke: #000000; stroke-width: 0.8"/>
      </g>
     </g>
     <g id="text_22">
      <!-- 2025 -->
      <g transform="translate(468.64169 154.88825) scale(0.08 -0.08)">
       <use xlink:href="#DejaVuSerif-32"/>
       <use xlink:href="#DejaVuSerif-30" transform="translate(63.623047 0)"/>
       <use xlink:href="#DejaVuSerif-32" transform="translate(127.246094 0)"/>
       <use xlink:href="#DejaVuSerif-35" transform="translate(190.869141 0)"/>
      </g>
     </g>
    </g>
    <g id="text_23">
     <!-- Série histórica -->
     <g transform="translate(329.097445 166.63075) scale(0.08 -0.08)">
      <defs>
       <path id="DejaVuSerif-53" d="M 594 225 
L 594 1288 
L 953 1284 
Q 969 753 1261 498 
Q 1553 244 2150 244 
Q 2706 244 2998 464 
Q 3291 684 3291 1106 
Q 3291 1444 3114 1625 
Q 2938 1806 2369 1978 
L 1753 2163 
Q 1084 2366 811 2669 
Q 538 2972 538 3500 
Q 538 4094 959 4422 
Q 1381 4750 2144 4750 
Q 2469 4750 2856 4679 
Q 3244 4609 3681 4475 
L 3681 3481 
L 3328 3481 
Q 3275 3975 2998 4195 
Q 2722 4416 2156 4416 
Q 1663 4416 1405 4214 
Q 1147 4013 1147 3628 
Q 1147 3294 1340 3103 
Q 1534 2913 2163 2725 
L 2741 2553 
Q 3375 2363 3645 2067 
Q 3916 1772 3916 1275 
Q 3916 597 3481 253 
Q 3047 -91 2188 -91 
Q 1803 -91 1404 -12 
Q 1006 66 594 225 
z
" transform="scale(0.015625)"/>
       <path id="DejaVuSerif-e9" d="M 3469 1600 
L 991 1600 
L 991 1575 
Q 991 903 1244 561 
Q 1497 219 1991 219 
Q 2369 219 2611 417 
Q 2853 616 2950 1006 
L 3413 1006 
Q 3275 459 2904 184 
Q 2534 -91 1931 -91 
Q 1203 -91 761 389 
Q 319 869 319 1663 
Q 319 2450 753 2931 
Q 1188 3413 1894 3413 
Q 2647 3413 3050 2948 
Q 3453 2484 3469 1600 
z
M 2791 1931 
Q 2772 2513 2545 2808 
Q 2319 3103 1894 3103 
Q 1497 3103 1269 2806 
Q 1041 2509 991 1931 
L 2791 1931 
z
M 2330 5119 
L 2952 5119 
L 1890 3944 
L 1524 3944 
L 2330 5119 
z
" transform="scale(0.015625)"/>
       <path id="DejaVuSerif-20" transform="scale(0.015625)"/>
       <path id="DejaVuSerif-68" d="M 263 0 
L 263 331 
L 781 331 
L 781 4531 
L 231 4531 
L 231 4863 
L 1356 4863 
L 1356 2731 
Q 1516 3069 1770 3241 
Q 2025 3413 2363 3413 
Q 2913 3413 3172 3097 
Q 3431 2781 3431 2113 
L 3431 331 
L 3944 331 
L 3944 0 
L 2356 0 
L 2356 331 
L 2853 331 
L 2853 1931 
Q 2853 2541 2704 2764 
Q 2556 2988 2175 2988 
Q 1775 2988 1565 2697 
Q 1356 2406 1356 1850 
L 1356 331 
L 1856 331 
L 1856 0 
L 263 0 
z
" transform="scale(0.015625)"/>
       <path id="DejaVuSerif-f3" d="M 1925 219 
Q 2388 219 2623 584 
Q 2859 950 2859 1663 
Q 2859 2375 2623 2739 
Q 2388 3103 1925 3103 
Q 1463 3103 1227 2739 
Q 991 2375 991 1663 
Q 991 950 1228 584 
Q 1466 219 1925 219 
z
M 1925 -91 
Q 1200 -91 759 389 
Q 319 869 319 1663 
Q 319 2456 758 2934 
Q 1197 3413 1925 3413 
Q 2653 3413 3092 2934 
Q 3531 2456 3531 1663 
Q 3531 869 3092 389 
Q 2653 -91 1925 -91 
z
M 2362 5119 
L 2984 5119 
L 1922 3944 
L 1556 3944 
L 2362 5119 
z
" transform="scale(0.015625)"/>
       <path id="DejaVuSerif-63" d="M 3291 997 
Q 3169 466 2822 187 
Q 2475 -91 1925 -91 
Q 1200 -91 759 389 
Q 319 869 319 1663 
Q 319 2459 759 2936 
Q 1200 3413 1925 3413 
Q 2241 3413 2553 3339 
Q 2866 3266 3181 3116 
L 3181 2266 
L 2847 2266 
Q 2781 2703 2561 2903 
Q 2341 3103 1931 3103 
Q 1466 3103 1228 2742 
Q 991 2381 991 1663 
Q 991 944 1227 581 
Q 1463 219 1931 219 
Q 2303 219 2525 412 
Q 2747 606 2828 997 
L 3291 997 
z
" transform="scale(0.015625)"/>
      </defs>
      <use xlink:href="#DejaVuSerif-53"/>
      <use xlink:href="#DejaVuSerif-e9" transform="translate(68.505859 0)"/>
      <use xlink:href="#DejaVuSerif-72" transform="translate(127.685547 0)"/>
      <use xlink:href="#DejaVuSerif-69" transform="translate(175.488281 0)"/>
      <use xlink:href="#DejaVuSerif-65" transform="translate(207.470703 0)"/>
      <use xlink:href="#DejaVuSerif-20" transform="translate(266.650391 0)"/>
      <use xlink:href="#DejaVuSerif-68" transform="translate(298.4375 0)"/>
      <use xlink:href="#DejaVuSerif-69" transform="translate(362.841797 0)"/>
      <use xlink:href="#DejaVuSerif-73" transform="translate(394.824219 0)"/>
      <use xlink:href="#DejaVuSerif-74" transform="translate(446.142578 0)"/>
      <use xlink:href="#DejaVuSerif-f3" transform="translate(486.328125 0)"/>
      <use xlink:href="#DejaVuSerif-72" transform="translate(546.533203 0)"/>
      <use xlink:href="#DejaVuSerif-69" transform="translate(594.335938 0)"/>
      <use xlink:href="#DejaVuSerif-63" transform="translate(626.318359 0)"/>
      <use xlink:href="#DejaVuSerif-61" transform="translate(682.324219 0)"/>
     </g>
    </g>
   </g>
   <g id="matplotlib.axis_4">
    <g id="ytick_6">
     <g id="line2d_35">
      <path d="M 223.22489 118.704636 
L 494.325 118.704636 
" clip-path="url(#p12a1b3fc47)" style="fill: none; stroke-dasharray: 2.96,1.28; stroke-dashoffset: 0; stroke: #b0b0b0; stroke-opacity: 0.5; stroke-width: 0.8"/>
     </g>
     <g id="line2d_36">
      <g>
       <use xlink:href="#m5ad8b39449" x="223.22489" y="118.704636" style="stroke: #000000; stroke-width: 0.8"/>
      </g>
     </g>
     <g id="text_24">
      <!-- 2 -->
      <g transform="translate(211.13489 121.744011) scale(0.08 -0.08)">
       <use xlink:href="#DejaVuSerif-32"/>
      </g>
     </g>
    </g>
    <g id="ytick_7">
     <g id="line2d_37">
      <path d="M 223.22489 89.402948 
L 494.325 89.402948 
" clip-path="url(#p12a1b3fc47)" style="fill: none; stroke-dasharray: 2.96,1.28; stroke-dashoffset: 0; stroke: #b0b0b0; stroke-opacity: 0.5; stroke-width: 0.8"/>
     </g>
     <g id="line2d_38">
      <g>
       <use xlink:href="#m5ad8b39449" x="223.22489" y="89.402948" style="stroke: #000000; stroke-width: 0.8"/>
      </g>
     </g>
     <g id="text_25">
      <!-- 4 -->
      <g transform="translate(211.13489 92.442323) scale(0.08 -0.08)">
       <use xlink:href="#DejaVuSerif-34"/>
      </g>
     </g>
    </g>
    <g id="ytick_8">
     <g id="line2d_39">
      <path d="M 223.22489 60.101261 
L 494.325 60.101261 
" clip-path="url(#p12a1b3fc47)" style="fill: none; stroke-dasharray: 2.96,1.28; stroke-dashoffset: 0; stroke: #b0b0b0; stroke-opacity: 0.5; stroke-width: 0.8"/>
     </g>
     <g id="line2d_40">
      <g>
       <use xlink:href="#m5ad8b39449" x="223.22489" y="60.101261" style="stroke: #000000; stroke-width: 0.8"/>
      </g>
     </g>
     <g id="text_26">
      <!-- 6 -->
      <g transform="translate(211.13489 63.140636) scale(0.08 -0.08)">
       <use xlink:href="#DejaVuSerif-36"/>
      </g>
     </g>
    </g>
    <g id="ytick_9">
     <g id="line2d_41">
      <path d="M 223.22489 30.799573 
L 494.325 30.799573 
" clip-path="url(#p12a1b3fc47)" style="fill: none; stroke-dasharray: 2.96,1.28; stroke-dashoffset: 0; stroke: #b0b0b0; stroke-opacity: 0.5; stroke-width: 0.8"/>
     </g>
     <g id="line2d_42">
      <g>
       <use xlink:href="#m5ad8b39449" x="223.22489" y="30.799573" style="stroke: #000000; stroke-width: 0.8"/>
      </g>
     </g>
     <g id="text_27">
      <!-- 8 -->
      <g transform="translate(211.13489 33.838948) scale(0.08 -0.08)">
       <use xlink:href="#DejaVuSerif-38"/>
      </g>
     </g>
    </g>
    <g id="text_28">
     <!-- Geração Térmica SE (MWMed) -->
     <g transform="translate(205.47114 144.59825) rotate(-90) scale(0.08 -0.08)">
      <defs>
       <path id="DejaVuSerif-47" d="M 4097 3272 
Q 3988 3856 3641 4136 
Q 3294 4416 2675 4416 
Q 1869 4416 1472 3897 
Q 1075 3378 1075 2328 
Q 1075 1300 1484 772 
Q 1894 244 2688 244 
Q 3041 244 3362 331 
Q 3684 419 3975 594 
L 3975 1797 
L 3097 1797 
L 3097 2131 
L 4609 2131 
L 4609 391 
Q 4194 150 3714 29 
Q 3234 -91 2688 -91 
Q 1631 -91 995 570 
Q 359 1231 359 2328 
Q 359 3434 996 4092 
Q 1634 4750 2713 4750 
Q 3113 4750 3539 4658 
Q 3966 4566 4447 4378 
L 4447 3272 
L 4097 3272 
z
" transform="scale(0.015625)"/>
       <path id="DejaVuSerif-e7" d="M 3291 997 
Q 3169 466 2822 187 
Q 2475 -91 1925 -91 
Q 1200 -91 759 389 
Q 319 869 319 1663 
Q 319 2459 759 2936 
Q 1200 3413 1925 3413 
Q 2241 3413 2553 3339 
Q 2866 3266 3181 3116 
L 3181 2266 
L 2847 2266 
Q 2781 2703 2561 2903 
Q 2341 3103 1931 3103 
Q 1466 3103 1228 2742 
Q 991 2381 991 1663 
Q 991 944 1227 581 
Q 1463 219 1931 219 
Q 2303 219 2525 412 
Q 2747 606 2828 997 
L 3291 997 
z
M 2118 0 
Q 2318 -200 2416 -375 
Q 2515 -550 2515 -703 
Q 2515 -956 2318 -1095 
Q 2121 -1234 1771 -1234 
Q 1640 -1234 1502 -1215 
Q 1365 -1197 1221 -1159 
L 1221 -750 
Q 1350 -803 1473 -829 
Q 1596 -856 1706 -856 
Q 1884 -856 1987 -773 
Q 2090 -691 2090 -550 
Q 2090 -463 2021 -325 
Q 1953 -188 1815 0 
L 2118 0 
z
" transform="scale(0.015625)"/>
       <path id="DejaVuSerif-e3" d="M 2547 1044 
L 2547 1747 
L 1806 1747 
Q 1378 1747 1168 1562 
Q 959 1378 959 997 
Q 959 650 1171 447 
Q 1384 244 1747 244 
Q 2106 244 2326 466 
Q 2547 688 2547 1044 
z
M 3122 2075 
L 3122 331 
L 3634 331 
L 3634 0 
L 2547 0 
L 2547 359 
Q 2356 128 2106 18 
Q 1856 -91 1522 -91 
Q 969 -91 644 203 
Q 319 497 319 997 
Q 319 1513 691 1797 
Q 1063 2081 1741 2081 
L 2547 2081 
L 2547 2309 
Q 2547 2688 2317 2895 
Q 2088 3103 1672 3103 
Q 1328 3103 1125 2947 
Q 922 2791 872 2484 
L 575 2484 
L 575 3156 
Q 875 3284 1158 3348 
Q 1441 3413 1709 3413 
Q 2400 3413 2761 3070 
Q 3122 2728 3122 2075 
z
M 1764 4281 
L 1585 4453 
Q 1504 4528 1452 4551 
Q 1401 4575 1342 4575 
Q 1210 4575 1135 4451 
Q 1060 4328 1045 4091 
L 745 4091 
Q 751 4513 910 4742 
Q 1070 4972 1354 4972 
Q 1473 4972 1573 4928 
Q 1673 4884 1789 4781 
L 1967 4609 
Q 2039 4538 2092 4513 
Q 2145 4488 2210 4488 
Q 2345 4488 2420 4613 
Q 2495 4738 2507 4972 
L 2807 4972 
Q 2801 4550 2641 4320 
Q 2482 4091 2198 4091 
Q 2079 4091 1979 4134 
Q 1879 4178 1764 4281 
z
" transform="scale(0.015625)"/>
       <path id="DejaVuSerif-54" d="M 1222 0 
L 1222 331 
L 1819 331 
L 1819 4294 
L 447 4294 
L 447 3566 
L 63 3566 
L 63 4666 
L 4206 4666 
L 4206 3566 
L 3822 3566 
L 3822 4294 
L 2450 4294 
L 2450 331 
L 3047 331 
L 3047 0 
L 1222 0 
z
" transform="scale(0.015625)"/>
       <path id="DejaVuSerif-6d" d="M 3316 2675 
Q 3481 3041 3739 3227 
Q 3997 3413 4341 3413 
Q 4863 3413 5119 3089 
Q 5375 2766 5375 2113 
L 5375 331 
L 5894 331 
L 5894 0 
L 4300 0 
L 4300 331 
L 4800 331 
L 4800 2047 
Q 4800 2556 4650 2772 
Q 4500 2988 4153 2988 
Q 3769 2988 3567 2697 
Q 3366 2406 3366 1850 
L 3366 331 
L 3866 331 
L 3866 0 
L 2291 0 
L 2291 331 
L 2791 331 
L 2791 2069 
Q 2791 2566 2641 2777 
Q 2491 2988 2144 2988 
Q 1759 2988 1557 2697 
Q 1356 2406 1356 1850 
L 1356 331 
L 1856 331 
L 1856 0 
L 263 0 
L 263 331 
L 781 331 
L 781 2994 
L 231 2994 
L 231 3322 
L 1356 3322 
L 1356 2731 
Q 1516 3063 1762 3238 
Q 2009 3413 2322 3413 
Q 2709 3413 2968 3220 
Q 3228 3028 3316 2675 
z
" transform="scale(0.015625)"/>
       <path id="DejaVuSerif-45" d="M 353 0 
L 353 331 
L 947 331 
L 947 4331 
L 353 4331 
L 353 4666 
L 4109 4666 
L 4109 3628 
L 3725 3628 
L 3725 4281 
L 1581 4281 
L 1581 2719 
L 3109 2719 
L 3109 3303 
L 3494 3303 
L 3494 1753 
L 3109 1753 
L 3109 2338 
L 1581 2338 
L 1581 384 
L 3775 384 
L 3775 1038 
L 4159 1038 
L 4159 0 
L 353 0 
z
" transform="scale(0.015625)"/>
       <path id="DejaVuSerif-28" d="M 2041 -997 
Q 1281 -656 893 83 
Q 506 822 506 1931 
Q 506 3044 893 3783 
Q 1281 4522 2041 4863 
L 2041 4556 
Q 1559 4225 1350 3623 
Q 1141 3022 1141 1931 
Q 1141 844 1350 242 
Q 1559 -359 2041 -691 
L 2041 -997 
z
" transform="scale(0.015625)"/>
       <path id="DejaVuSerif-4d" d="M 353 0 
L 353 331 
L 947 331 
L 947 4331 
L 319 4331 
L 319 4666 
L 1678 4666 
L 3316 1344 
L 4953 4666 
L 6228 4666 
L 6228 4331 
L 5606 4331 
L 5606 331 
L 6203 331 
L 6203 0 
L 4378 0 
L 4378 331 
L 4972 331 
L 4972 3938 
L 3372 684 
L 2931 684 
L 1331 3938 
L 1331 331 
L 1925 331 
L 1925 0 
L 353 0 
z
" transform="scale(0.015625)"/>
       <path id="DejaVuSerif-57" d="M 4878 0 
L 4366 0 
L 3297 3794 
L 2228 0 
L 1716 0 
L 494 4331 
L 31 4331 
L 31 4666 
L 1734 4666 
L 1734 4331 
L 1153 4331 
L 2125 884 
L 3188 4666 
L 3694 4666 
L 4775 844 
L 5753 4331 
L 5216 4331 
L 5216 4666 
L 6559 4666 
L 6559 4331 
L 6100 4331 
L 4878 0 
z
" transform="scale(0.015625)"/>
       <path id="DejaVuSerif-29" d="M 453 -997 
L 453 -691 
Q 934 -359 1145 242 
Q 1356 844 1356 1931 
Q 1356 3022 1145 3623 
Q 934 4225 453 4556 
L 453 4863 
Q 1216 4522 1603 3783 
Q 1991 3044 1991 1931 
Q 1991 822 1603 83 
Q 1216 -656 453 -997 
z
" transform="scale(0.015625)"/>
      </defs>
      <use xlink:href="#DejaVuSerif-47"/>
      <use xlink:href="#DejaVuSerif-65" transform="translate(79.882812 0)"/>
      <use xlink:href="#DejaVuSerif-72" transform="translate(139.0625 0)"/>
      <use xlink:href="#DejaVuSerif-61" transform="translate(186.865234 0)"/>
      <use xlink:href="#DejaVuSerif-e7" transform="translate(246.484375 0)"/>
      <use xlink:href="#DejaVuSerif-e3" transform="translate(302.490234 0)"/>
      <use xlink:href="#DejaVuSerif-6f" transform="translate(362.109375 0)"/>
      <use xlink:href="#DejaVuSerif-20" transform="translate(422.314453 0)"/>
      <use xlink:href="#DejaVuSerif-54" transform="translate(454.101562 0)"/>
      <use xlink:href="#DejaVuSerif-e9" transform="translate(513.050781 0)"/>
      <use xlink:href="#DejaVuSerif-72" transform="translate(572.230469 0)"/>
      <use xlink:href="#DejaVuSerif-6d" transform="translate(620.033203 0)"/>
      <use xlink:href="#DejaVuSerif-69" transform="translate(714.857422 0)"/>
      <use xlink:href="#DejaVuSerif-63" transform="translate(746.839844 0)"/>
      <use xlink:href="#DejaVuSerif-61" transform="translate(802.845703 0)"/>
      <use xlink:href="#DejaVuSerif-20" transform="translate(862.464844 0)"/>
      <use xlink:href="#DejaVuSerif-53" transform="translate(894.251953 0)"/>
      <use xlink:href="#DejaVuSerif-45" transform="translate(962.757812 0)"/>
      <use xlink:href="#DejaVuSerif-20" transform="translate(1035.755859 0)"/>
      <use xlink:href="#DejaVuSerif-28" transform="translate(1067.542969 0)"/>
      <use xlink:href="#DejaVuSerif-4d" transform="translate(1106.556641 0)"/>
      <use xlink:href="#DejaVuSerif-57" transform="translate(1208.949219 0)"/>
      <use xlink:href="#DejaVuSerif-4d" transform="translate(1311.732422 0)"/>
      <use xlink:href="#DejaVuSerif-65" transform="translate(1414.125 0)"/>
      <use xlink:href="#DejaVuSerif-64" transform="translate(1473.304688 0)"/>
      <use xlink:href="#DejaVuSerif-29" transform="translate(1537.318359 0)"/>
     </g>
    </g>
    <g id="text_29">
     <!-- 1e3 -->
     <g transform="translate(223.22489 18.2795) scale(0.08 -0.08)">
      <use xlink:href="#DejaVuSerif-31"/>
      <use xlink:href="#DejaVuSerif-65" transform="translate(63.623047 0)"/>
      <use xlink:href="#DejaVuSerif-33" transform="translate(122.802734 0)"/>
     </g>
    </g>
   </g>
   <g id="line2d_43">
    <path d="M 235.547622 128.28959 
L 236.322721 127.946163 
L 237.151274 129.199047 
L 237.953101 133.9693 
L 238.781654 136.330864 
L 239.583481 135.014352 
L 240.412034 134.430838 
L 241.240588 122.430306 
L 242.042414 121.663314 
L 242.870968 126.648297 
L 243.672794 113.356168 
L 244.501348 112.657093 
L 245.329902 117.55723 
L 246.078273 110.965445 
L 246.906827 111.32187 
L 247.708653 117.183614 
L 248.537206 116.905736 
L 249.339033 108.06065 
L 250.167586 104.549263 
L 250.99614 104.164332 
L 252.62652 104.212613 
L 253.428346 105.418893 
L 254.2569 101.794869 
L 255.085454 102.847969 
L 255.833825 107.031163 
L 256.662379 117.870095 
L 257.464205 109.110335 
L 258.292759 105.018101 
L 259.094585 104.721679 
L 259.923138 107.106206 
L 260.751692 112.078757 
L 261.553518 109.47399 
L 262.382072 108.878514 
L 263.183898 112.626744 
L 264.012452 113.032171 
L 264.841006 112.089364 
L 266.417931 117.374766 
L 267.219757 124.50495 
L 268.048311 120.455668 
L 268.850137 108.495375 
L 269.678691 107.306523 
L 270.507244 114.208842 
L 271.309071 118.943258 
L 272.137624 118.101494 
L 272.93945 104.704782 
L 273.768004 103.997769 
L 275.371657 108.355775 
L 276.20021 117.910782 
L 277.002037 112.135254 
L 277.83059 122.127235 
L 278.632416 116.663266 
L 279.46097 116.733027 
L 280.289524 110.981588 
L 281.09135 100.299528 
L 281.919904 107.431852 
L 282.72173 112.873175 
L 283.550284 127.853589 
L 284.378838 129.957453 
L 285.955762 132.610874 
L 286.757589 116.744052 
L 287.586142 110.097075 
L 288.387969 109.036667 
L 289.216522 112.477127 
L 290.045076 107.803459 
L 290.846902 106.605957 
L 291.675456 107.907692 
L 292.477282 107.831765 
L 293.305836 124.391291 
L 294.13439 125.944713 
L 294.882761 110.01637 
L 295.711314 109.128213 
L 296.513141 116.926406 
L 297.341694 112.731842 
L 298.143521 115.124628 
L 298.972074 105.229162 
L 299.800628 103.420956 
L 300.602454 104.908569 
L 301.431008 105.88343 
L 302.232834 110.103955 
L 303.061388 104.738193 
L 303.889942 117.992122 
L 304.638313 123.869818 
L 305.466867 125.530719 
L 306.268693 125.164034 
L 307.097246 119.730523 
L 307.899073 121.684994 
L 308.727626 118.956966 
L 309.55618 110.354564 
L 310.358006 107.017196 
L 311.18656 107.149788 
L 311.988386 102.490731 
L 312.81694 104.602158 
L 314.420592 84.973643 
L 315.249146 88.553704 
L 316.050972 89.006808 
L 316.879526 103.498555 
L 317.681352 102.427647 
L 318.509906 86.994625 
L 319.33846 86.469973 
L 320.140286 83.348278 
L 320.96884 83.059685 
L 321.770666 88.135398 
L 322.59922 84.324406 
L 323.427773 109.05814 
L 324.176144 118.577256 
L 325.004698 112.178928 
L 325.806524 119.835476 
L 326.635078 103.023399 
L 327.436904 105.853577 
L 328.265458 116.331532 
L 329.094012 134.890242 
L 329.895838 122.861005 
L 330.724392 122.651925 
L 331.526218 118.036863 
L 332.354772 116.116175 
L 333.183325 112.234801 
L 333.931697 107.01552 
L 334.76025 106.325411 
L 335.562076 116.699698 
L 336.39063 103.690739 
L 337.192456 87.109216 
L 338.02101 93.960497 
L 338.849564 76.236232 
L 339.65139 61.838108 
L 340.479944 77.102865 
L 341.28177 85.061041 
L 342.110324 86.38512 
L 342.938877 104.656542 
L 343.687249 103.78299 
L 344.515802 108.241245 
L 345.317629 113.587704 
L 346.146182 112.186129 
L 346.948008 99.668385 
L 347.776562 100.26164 
L 349.406942 104.753945 
L 350.235496 105.249349 
L 351.037322 99.7689 
L 351.865876 99.516168 
L 352.69443 107.644731 
L 353.469528 106.751796 
L 354.298082 112.807946 
L 355.099908 70.412887 
L 355.928462 77.921153 
L 356.730288 106.23132 
L 357.558842 112.153069 
L 358.387396 93.860294 
L 359.189222 59.570764 
L 360.017776 43.97472 
L 360.819602 34.45108 
L 361.648155 47.206963 
L 362.476709 69.100148 
L 363.22508 71.059676 
L 364.053634 75.225298 
L 364.85546 75.0703 
L 365.684014 81.335778 
L 366.48584 74.830351 
L 367.314394 83.983769 
L 368.142948 81.040649 
L 368.944774 85.372471 
L 369.773328 83.856471 
L 370.575154 79.029963 
L 371.403708 85.30005 
L 372.232261 85.419161 
L 372.980632 59.148 
L 373.809186 54.686852 
L 374.611012 67.856864 
L 375.439566 30.597781 
L 376.241392 38.290363 
L 377.069946 43.206241 
L 377.8985 45.128487 
L 378.700326 35.214322 
L 380.330706 32.71119 
L 381.15926 26.758136 
L 381.987813 32.151182 
L 382.736184 31.930712 
L 383.564738 32.145462 
L 384.366564 34.281296 
L 385.195118 38.891854 
L 385.996944 42.006318 
L 386.825498 46.351729 
L 387.654052 48.589588 
L 388.455878 41.920311 
L 389.284432 56.181463 
L 390.086258 42.215735 
L 390.914812 45.527144 
L 392.518464 62.868583 
L 393.347018 84.923544 
L 394.148844 88.022643 
L 394.977398 88.291998 
L 395.779224 93.064628 
L 396.607778 102.750262 
L 397.436331 79.37435 
L 398.238158 69.006223 
L 399.066711 67.635988 
L 399.868538 73.246123 
L 400.697091 95.481225 
L 401.525645 88.502892 
L 402.274016 89.9495 
L 403.904396 56.529273 
L 404.73295 61.332774 
L 405.534776 92.702245 
L 406.36333 78.705283 
L 406.36333 78.705283 
" clip-path="url(#p12a1b3fc47)" style="fill: none; stroke: #43aaff; stroke-width: 0.66; stroke-linecap: square"/>
   </g>
   <g id="line2d_44">
    <path d="M 392.518464 64.095346 
L 393.347018 84.923544 
L 394.148844 88.022643 
L 394.977398 88.291998 
L 395.779224 93.064628 
L 396.607778 102.750262 
L 397.436331 79.37435 
L 398.238158 69.006223 
L 399.066711 67.635988 
L 399.868538 73.246123 
L 400.697091 95.481225 
L 401.525645 88.502892 
L 402.274016 89.9495 
L 403.10257 72.467494 
L 403.904396 56.529273 
L 404.73295 61.332774 
L 405.534776 92.702245 
L 406.36333 61.521819 
L 407.191883 46.343538 
L 407.99371 47.70927 
L 408.822263 45.088682 
L 409.62409 48.084182 
L 410.452643 67.010071 
L 411.281197 88.805666 
L 412.029568 93.617717 
L 412.858122 90.914843 
L 413.659948 90.541189 
L 414.488502 78.991408 
L 415.290328 66.3916 
L 416.118882 65.371895 
L 416.947436 72.620465 
L 417.749262 55.035581 
L 418.577815 77.321704 
L 419.379642 109.33362 
L 420.208195 101.345561 
L 421.036749 90.540448 
L 421.78512 60.700941 
L 422.613674 88.80863 
L 423.4155 101.784109 
L 424.244054 109.103851 
L 425.04588 97.316884 
L 425.874434 81.457741 
L 426.702988 61.350495 
L 427.504814 63.353625 
L 428.333368 56.306148 
L 429.135194 59.429137 
L 429.963747 77.111773 
" clip-path="url(#p12a1b3fc47)" style="fill: none; stroke: #43aaff; stroke-width: 0.66; stroke-linecap: square"/>
   </g>
   <g id="line2d_45">
    <path d="M 416.947436 71.961966 
L 417.749262 55.035581 
L 418.577815 77.321704 
L 419.379642 109.33362 
L 420.208195 101.345561 
L 421.036749 90.540448 
L 421.78512 60.700941 
L 422.613674 88.80863 
L 423.4155 101.784109 
L 424.244054 109.103851 
L 425.04588 97.316884 
L 425.874434 81.457741 
L 426.702988 61.350495 
L 427.504814 63.353625 
L 428.333368 56.306148 
L 429.135194 59.429137 
L 429.963747 77.111773 
L 430.792301 70.282684 
L 431.5674 97.732435 
L 432.395954 101.123568 
L 433.19778 102.775156 
L 434.026334 103.515142 
L 434.82816 102.489266 
L 435.656713 119.314335 
L 436.485267 113.300685 
L 437.287093 105.094024 
L 438.115647 62.074744 
L 438.917473 45.878489 
L 439.746027 48.701646 
L 440.574581 58.732486 
L 441.322952 79.175186 
L 442.151506 56.705333 
L 442.953332 64.909521 
L 443.781886 78.356705 
L 444.583712 65.984968 
L 445.412266 61.198593 
L 446.240819 47.019241 
L 447.042645 47.734382 
L 447.871199 30.520818 
L 448.673025 35.069776 
L 449.501579 49.115167 
L 450.330133 52.648848 
L 451.078504 68.193395 
L 451.907058 86.368376 
L 452.708884 110.05506 
L 453.537438 112.117071 
L 454.339264 129.415526 
L 455.167818 130.798413 
L 455.996371 120.598351 
L 456.798198 120.489682 
L 457.626751 110.057606 
L 458.428578 122.739615 
L 459.257131 108.320257 
L 460.085685 107.612915 
L 460.834056 113.406915 
L 461.66261 113.605183 
L 462.464436 110.279336 
L 463.29299 110.919332 
L 464.094816 106.493526 
L 464.92337 110.978042 
L 465.751923 110.674664 
L 466.55375 115.16966 
L 467.382303 133.748882 
L 468.18413 117.89345 
L 469.012683 94.845543 
L 469.841237 101.121368 
L 470.616336 105.122334 
L 471.444889 106.125404 
L 472.246716 106.257551 
L 473.075269 116.599982 
L 473.877096 108.24068 
L 474.705649 101.453351 
L 475.534203 92.603565 
L 476.336029 63.296339 
L 477.164583 57.64802 
L 477.966409 97.29835 
L 478.794963 109.93664 
" clip-path="url(#p12a1b3fc47)" style="fill: none; stroke: #969696; stroke-width: 0.66; stroke-linecap: square"/>
   </g>
   <g id="line2d_46">
    <path d="M 430.792301 66.266303 
L 431.5674 76.164217 
L 432.395954 88.953923 
L 433.19778 99.162093 
L 434.026334 102.624381 
L 434.82816 95.279055 
L 435.656713 86.073445 
L 436.485267 82.22979 
L 437.287093 88.964773 
L 438.115647 96.044127 
L 438.917473 89.623018 
L 439.746027 77.092697 
L 440.574581 72.064717 
L 441.322952 81.709983 
L 442.151506 88.593859 
L 442.953332 88.031181 
L 443.781886 84.713325 
L 444.583712 83.278066 
L 445.412266 85.790094 
L 446.240819 76.057429 
L 447.042645 63.762562 
L 447.871199 52.752848 
L 448.673025 45.607988 
L 449.501579 44.770274 
L 450.330133 52.054269 
L 451.078504 57.980633 
L 451.907058 61.484178 
L 452.708884 72.911378 
L 453.537438 87.837887 
L 454.339264 97.983441 
L 455.167818 109.993159 
L 455.996371 114.28238 
L 456.798198 118.601603 
L 457.626751 116.30265 
L 458.428578 115.819453 
L 459.257131 115.649589 
L 460.085685 112.66713 
L 460.834056 111.479418 
L 461.66261 110.836703 
L 462.464436 113.909544 
L 463.29299 114.912983 
L 464.094816 115.210712 
L 464.92337 113.388382 
L 465.751923 112.491743 
L 466.55375 111.847126 
L 467.382303 115.219473 
L 468.18413 120.655441 
L 469.012683 119.666607 
L 469.841237 115.236744 
L 470.616336 110.562052 
L 471.444889 108.882431 
L 472.246716 107.817308 
L 473.075269 107.45405 
L 473.877096 107.95198 
L 474.705649 109.837051 
L 475.534203 110.250156 
L 476.336029 107.554872 
L 477.164583 100.509557 
L 477.966409 91.338906 
L 478.794963 91.13428 
L 479.623517 97.592268 
L 480.371888 106.940803 
L 481.200442 111.937088 
L 482.002268 109.320164 
" clip-path="url(#p12a1b3fc47)" style="fill: none; stroke: #ff9046; stroke-width: 0.66; stroke-linecap: square"/>
   </g>
   <g id="patch_6">
    <path d="M 223.22489 141.8095 
L 223.22489 21.2795 
" style="fill: none; stroke: #000000; stroke-width: 0.8; stroke-linejoin: miter; stroke-linecap: square"/>
   </g>
   <g id="patch_7">
    <path d="M 223.22489 141.8095 
L 494.325 141.8095 
" style="fill: none; stroke: #000000; stroke-width: 0.8; stroke-linejoin: miter; stroke-linecap: square"/>
   </g>
   <g id="text_30">
    <g id="patch_8">
     <path d="M 226.546892 44.019156 
L 293.603611 44.019156 
L 293.603611 25.206 
L 226.546892 25.206 
z
" style="fill: #ffffff"/>
    </g>
    <!-- R² = 0.506 -->
    <g transform="translate(228.646892 32.624906) scale(0.07 -0.07)">
     <defs>
      <path id="DejaVuSerif-b2" d="M 531 4050 
L 313 4050 
L 313 4544 
Q 519 4644 737 4697 
Q 956 4750 1172 4750 
Q 1603 4750 1870 4544 
Q 2138 4338 2138 4013 
Q 2138 3631 1531 3088 
L 1472 3034 
L 728 2363 
L 1931 2363 
L 1931 2700 
L 2163 2700 
L 2163 2088 
L 281 2088 
L 281 2322 
L 1172 3116 
Q 1441 3356 1556 3547 
Q 1672 3738 1672 3944 
Q 1672 4209 1520 4364 
Q 1369 4519 1106 4519 
Q 863 4519 716 4400 
Q 569 4281 531 4050 
z
" transform="scale(0.015625)"/>
      <path id="DejaVuSerif-3d" d="M 678 2894 
L 4684 2894 
L 4684 2394 
L 678 2394 
L 678 2894 
z
M 678 1619 
L 4684 1619 
L 4684 1119 
L 678 1119 
L 678 1619 
z
" transform="scale(0.015625)"/>
     </defs>
     <use xlink:href="#DejaVuSerif-52"/>
     <use xlink:href="#DejaVuSerif-b2" transform="translate(75.292969 0)"/>
     <use xlink:href="#DejaVuSerif-20" transform="translate(115.380859 0)"/>
     <use xlink:href="#DejaVuSerif-3d" transform="translate(147.167969 0)"/>
     <use xlink:href="#DejaVuSerif-20" transform="translate(230.957031 0)"/>
     <use xlink:href="#DejaVuSerif-30" transform="translate(262.744141 0)"/>
     <use xlink:href="#DejaVuSerif-2e" transform="translate(326.367188 0)"/>
     <use xlink:href="#DejaVuSerif-35" transform="translate(358.154297 0)"/>
     <use xlink:href="#DejaVuSerif-30" transform="translate(421.777344 0)"/>
     <use xlink:href="#DejaVuSerif-36" transform="translate(485.400391 0)"/>
    </g>
    <!-- MSE = 1.30E+03 -->
    <g transform="translate(228.646892 40.463375) scale(0.07 -0.07)">
     <defs>
      <path id="DejaVuSerif-2b" d="M 2931 4013 
L 2931 2259 
L 4684 2259 
L 4684 1753 
L 2931 1753 
L 2931 0 
L 2431 0 
L 2431 1753 
L 678 1753 
L 678 2259 
L 2431 2259 
L 2431 4013 
L 2931 4013 
z
" transform="scale(0.015625)"/>
     </defs>
     <use xlink:href="#DejaVuSerif-4d"/>
     <use xlink:href="#DejaVuSerif-53" transform="translate(102.392578 0)"/>
     <use xlink:href="#DejaVuSerif-45" transform="translate(170.898438 0)"/>
     <use xlink:href="#DejaVuSerif-20" transform="translate(243.896484 0)"/>
     <use xlink:href="#DejaVuSerif-3d" transform="translate(275.683594 0)"/>
     <use xlink:href="#DejaVuSerif-20" transform="translate(359.472656 0)"/>
     <use xlink:href="#DejaVuSerif-31" transform="translate(391.259766 0)"/>
     <use xlink:href="#DejaVuSerif-2e" transform="translate(454.882812 0)"/>
     <use xlink:href="#DejaVuSerif-33" transform="translate(486.669922 0)"/>
     <use xlink:href="#DejaVuSerif-30" transform="translate(550.292969 0)"/>
     <use xlink:href="#DejaVuSerif-45" transform="translate(613.916016 0)"/>
     <use xlink:href="#DejaVuSerif-2b" transform="translate(686.914062 0)"/>
     <use xlink:href="#DejaVuSerif-30" transform="translate(770.703125 0)"/>
     <use xlink:href="#DejaVuSerif-33" transform="translate(834.326172 0)"/>
    </g>
   </g>
   <g id="legend_2">
    <g id="line2d_47">
     <path d="M 270.34182 13.67875 
L 278.34182 13.67875 
L 286.34182 13.67875 
" style="fill: none; stroke: #43aaff; stroke-width: 0.66; stroke-linecap: square"/>
    </g>
    <g id="text_31">
     <!-- Treino -->
     <g transform="translate(292.74182 16.47875) scale(0.08 -0.08)">
      <defs>
       <path id="DejaVuSerif-6e" d="M 263 0 
L 263 331 
L 781 331 
L 781 2988 
L 231 2988 
L 231 3322 
L 1356 3322 
L 1356 2731 
Q 1516 3069 1770 3241 
Q 2025 3413 2363 3413 
Q 2913 3413 3172 3097 
Q 3431 2781 3431 2113 
L 3431 331 
L 3944 331 
L 3944 0 
L 2356 0 
L 2356 331 
L 2853 331 
L 2853 1931 
Q 2853 2541 2703 2767 
Q 2553 2994 2175 2994 
Q 1775 2994 1565 2701 
Q 1356 2409 1356 1850 
L 1356 331 
L 1856 331 
L 1856 0 
L 263 0 
z
" transform="scale(0.015625)"/>
      </defs>
      <use xlink:href="#DejaVuSerif-54"/>
      <use xlink:href="#DejaVuSerif-72" transform="translate(66.699219 0)"/>
      <use xlink:href="#DejaVuSerif-65" transform="translate(114.501953 0)"/>
      <use xlink:href="#DejaVuSerif-69" transform="translate(173.681641 0)"/>
      <use xlink:href="#DejaVuSerif-6e" transform="translate(205.664062 0)"/>
      <use xlink:href="#DejaVuSerif-6f" transform="translate(270.068359 0)"/>
     </g>
    </g>
    <g id="line2d_48">
     <path d="M 335.16432 13.67875 
L 343.16432 13.67875 
L 351.16432 13.67875 
" style="fill: none; stroke: #969696; stroke-width: 0.66; stroke-linecap: square"/>
    </g>
    <g id="text_32">
     <!-- Real -->
     <g transform="translate(357.56432 16.47875) scale(0.08 -0.08)">
      <use xlink:href="#DejaVuSerif-52"/>
      <use xlink:href="#DejaVuSerif-65" transform="translate(75.292969 0)"/>
      <use xlink:href="#DejaVuSerif-61" transform="translate(134.472656 0)"/>
      <use xlink:href="#DejaVuSerif-6c" transform="translate(194.091797 0)"/>
     </g>
    </g>
    <g id="line2d_49">
     <path d="M 391.65182 13.67875 
L 399.65182 13.67875 
L 407.65182 13.67875 
" style="fill: none; stroke: #ff9046; stroke-width: 0.66; stroke-linecap: square"/>
    </g>
    <g id="text_33">
     <!-- Previsto -->
     <g transform="translate(414.05182 16.47875) scale(0.08 -0.08)">
      <use xlink:href="#DejaVuSerif-50"/>
      <use xlink:href="#DejaVuSerif-72" transform="translate(67.285156 0)"/>
      <use xlink:href="#DejaVuSerif-65" transform="translate(115.087891 0)"/>
      <use xlink:href="#DejaVuSerif-76" transform="translate(174.267578 0)"/>
      <use xlink:href="#DejaVuSerif-69" transform="translate(230.761719 0)"/>
      <use xlink:href="#DejaVuSerif-73" transform="translate(262.744141 0)"/>
      <use xlink:href="#DejaVuSerif-74" transform="translate(314.0625 0)"/>
      <use xlink:href="#DejaVuSerif-6f" transform="translate(354.248047 0)"/>
     </g>
    </g>
   </g>
  </g>
 </g>
 <defs>
  <clipPath id="p6b632b177b">
   <rect x="48.845" y="21.2795" width="135.550055" height="120.53"/>
  </clipPath>
  <clipPath id="p12a1b3fc47">
   <rect x="223.22489" y="21.2795" width="271.10011" height="120.53"/>
  </clipPath>
 </defs>
</svg>
