<?xml version="1.0" encoding="utf-8" standalone="no"?>
<!DOCTYPE svg PUBLIC "-//W3C//DTD SVG 1.1//EN"
  "http://www.w3.org/Graphics/SVG/1.1/DTD/svg11.dtd">
<svg xmlns:xlink="http://www.w3.org/1999/xlink" width="501.445pt" height="175.4945pt" viewBox="0 0 501.445 175.4945" xmlns="http://www.w3.org/2000/svg" version="1.1">
 <metadata>
  <rdf:RDF xmlns:dc="http://purl.org/dc/elements/1.1/" xmlns:cc="http://creativecommons.org/ns#" xmlns:rdf="http://www.w3.org/1999/02/22-rdf-syntax-ns#">
   <cc:Work>
    <dc:type rdf:resource="http://purl.org/dc/dcmitype/StillImage"/>
    <dc:date>2025-06-30T21:25:05.634346</dc:date>
    <dc:format>image/svg+xml</dc:format>
    <dc:creator>
     <cc:Agent>
      <dc:title>Matplotlib v3.10.3, https://matplotlib.org/</dc:title>
     </cc:Agent>
    </dc:creator>
   </cc:Work>
  </rdf:RDF>
 </metadata>
 <defs>
  <style type="text/css">*{stroke-linejoin: round; stroke-linecap: butt}</style>
 </defs>
 <g id="figure_1">
  <g id="patch_1">
   <path d="M 0 175.4945 
L 501.445 175.4945 
L 501.445 0 
L 0 0 
z
" style="fill: #ffffff"/>
  </g>
  <g id="axes_1">
   <g id="patch_2">
    <path d="M 59.025 141.8095 
L 183.475055 141.8095 
L 183.475055 21.2795 
L 59.025 21.2795 
z
" style="fill: #ffffff"/>
   </g>
   <g id="matplotlib.axis_1">
    <g id="xtick_1">
     <g id="line2d_1">
      <path d="M 64.681821 141.8095 
L 64.681821 21.2795 
" clip-path="url(#p8baf57b07d)" style="fill: none; stroke-dasharray: 2.96,1.28; stroke-dashoffset: 0; stroke: #b0b0b0; stroke-opacity: 0.5; stroke-width: 0.8"/>
     </g>
     <g id="line2d_2">
      <defs>
       <path id="md1fea4a6f7" d="M 0 0 
L 0 3.5 
" style="stroke: #000000; stroke-width: 0.8"/>
      </defs>
      <g>
       <use xlink:href="#md1fea4a6f7" x="64.681821" y="141.8095" style="stroke: #000000; stroke-width: 0.8"/>
      </g>
     </g>
     <g id="text_1">
      <!-- 0.00000 -->
      <g transform="translate(48.140571 154.88825) scale(0.08 -0.08)">
       <defs>
        <path id="DejaVuSerif-30" d="M 2034 219 
Q 2513 219 2750 744 
Q 2988 1269 2988 2328 
Q 2988 3391 2750 3916 
Q 2513 4441 2034 4441 
Q 1556 4441 1318 3916 
Q 1081 3391 1081 2328 
Q 1081 1269 1318 744 
Q 1556 219 2034 219 
z
M 2034 -91 
Q 1275 -91 848 546 
Q 422 1184 422 2328 
Q 422 3475 848 4112 
Q 1275 4750 2034 4750 
Q 2797 4750 3222 4112 
Q 3647 3475 3647 2328 
Q 3647 1184 3222 546 
Q 2797 -91 2034 -91 
z
" transform="scale(0.015625)"/>
        <path id="DejaVuSerif-2e" d="M 603 325 
Q 603 500 722 622 
Q 841 744 1019 744 
Q 1191 744 1312 622 
Q 1434 500 1434 325 
Q 1434 153 1312 31 
Q 1191 -91 1019 -91 
Q 841 -91 722 29 
Q 603 150 603 325 
z
" transform="scale(0.015625)"/>
       </defs>
       <use xlink:href="#DejaVuSerif-30"/>
       <use xlink:href="#DejaVuSerif-2e" transform="translate(63.623047 0)"/>
       <use xlink:href="#DejaVuSerif-30" transform="translate(95.410156 0)"/>
       <use xlink:href="#DejaVuSerif-30" transform="translate(159.033203 0)"/>
       <use xlink:href="#DejaVuSerif-30" transform="translate(222.65625 0)"/>
       <use xlink:href="#DejaVuSerif-30" transform="translate(286.279297 0)"/>
       <use xlink:href="#DejaVuSerif-30" transform="translate(349.902344 0)"/>
      </g>
     </g>
    </g>
    <g id="xtick_2">
     <g id="line2d_3">
      <path d="M 92.965924 141.8095 
L 92.965924 21.2795 
" clip-path="url(#p8baf57b07d)" style="fill: none; stroke-dasharray: 2.96,1.28; stroke-dashoffset: 0; stroke: #b0b0b0; stroke-opacity: 0.5; stroke-width: 0.8"/>
     </g>
     <g id="line2d_4">
      <g>
       <use xlink:href="#md1fea4a6f7" x="92.965924" y="141.8095" style="stroke: #000000; stroke-width: 0.8"/>
      </g>
     </g>
     <g id="text_2">
      <!-- 0.00272 -->
      <g transform="translate(76.424674 154.88825) scale(0.08 -0.08)">
       <defs>
        <path id="DejaVuSerif-32" d="M 819 3553 
L 469 3553 
L 469 4384 
Q 803 4563 1142 4656 
Q 1481 4750 1806 4750 
Q 2534 4750 2956 4397 
Q 3378 4044 3378 3438 
Q 3378 2753 2422 1800 
Q 2347 1728 2309 1691 
L 1131 513 
L 3078 513 
L 3078 1088 
L 3444 1088 
L 3444 0 
L 434 0 
L 434 341 
L 1850 1753 
Q 2319 2222 2519 2614 
Q 2719 3006 2719 3438 
Q 2719 3909 2473 4175 
Q 2228 4441 1797 4441 
Q 1350 4441 1106 4219 
Q 863 3997 819 3553 
z
" transform="scale(0.015625)"/>
        <path id="DejaVuSerif-37" d="M 3609 4347 
L 1784 0 
L 1319 0 
L 3059 4153 
L 903 4153 
L 903 3578 
L 538 3578 
L 538 4666 
L 3609 4666 
L 3609 4347 
z
" transform="scale(0.015625)"/>
       </defs>
       <use xlink:href="#DejaVuSerif-30"/>
       <use xlink:href="#DejaVuSerif-2e" transform="translate(63.623047 0)"/>
       <use xlink:href="#DejaVuSerif-30" transform="translate(95.410156 0)"/>
       <use xlink:href="#DejaVuSerif-30" transform="translate(159.033203 0)"/>
       <use xlink:href="#DejaVuSerif-32" transform="translate(222.65625 0)"/>
       <use xlink:href="#DejaVuSerif-37" transform="translate(286.279297 0)"/>
       <use xlink:href="#DejaVuSerif-32" transform="translate(349.902344 0)"/>
      </g>
     </g>
    </g>
    <g id="xtick_3">
     <g id="line2d_5">
      <path d="M 121.250028 141.8095 
L 121.250028 21.2795 
" clip-path="url(#p8baf57b07d)" style="fill: none; stroke-dasharray: 2.96,1.28; stroke-dashoffset: 0; stroke: #b0b0b0; stroke-opacity: 0.5; stroke-width: 0.8"/>
     </g>
     <g id="line2d_6">
      <g>
       <use xlink:href="#md1fea4a6f7" x="121.250028" y="141.8095" style="stroke: #000000; stroke-width: 0.8"/>
      </g>
     </g>
     <g id="text_3">
      <!-- 0.00545 -->
      <g transform="translate(104.708778 154.88825) scale(0.08 -0.08)">
       <defs>
        <path id="DejaVuSerif-35" d="M 3219 4666 
L 3219 4153 
L 1081 4153 
L 1081 2816 
Q 1244 2928 1461 2984 
Q 1678 3041 1947 3041 
Q 2703 3041 3140 2622 
Q 3578 2203 3578 1478 
Q 3578 738 3136 323 
Q 2694 -91 1894 -91 
Q 1572 -91 1234 -12 
Q 897 66 544 225 
L 544 1131 
L 897 1131 
Q 925 688 1179 453 
Q 1434 219 1894 219 
Q 2388 219 2653 544 
Q 2919 869 2919 1478 
Q 2919 2084 2655 2407 
Q 2391 2731 1894 2731 
Q 1613 2731 1398 2631 
Q 1184 2531 1019 2322 
L 750 2322 
L 750 4666 
L 3219 4666 
z
" transform="scale(0.015625)"/>
        <path id="DejaVuSerif-34" d="M 2234 1581 
L 2234 4063 
L 641 1581 
L 2234 1581 
z
M 3609 0 
L 1484 0 
L 1484 331 
L 2234 331 
L 2234 1247 
L 197 1247 
L 197 1588 
L 2241 4750 
L 2859 4750 
L 2859 1581 
L 3750 1581 
L 3750 1247 
L 2859 1247 
L 2859 331 
L 3609 331 
L 3609 0 
z
" transform="scale(0.015625)"/>
       </defs>
       <use xlink:href="#DejaVuSerif-30"/>
       <use xlink:href="#DejaVuSerif-2e" transform="translate(63.623047 0)"/>
       <use xlink:href="#DejaVuSerif-30" transform="translate(95.410156 0)"/>
       <use xlink:href="#DejaVuSerif-30" transform="translate(159.033203 0)"/>
       <use xlink:href="#DejaVuSerif-35" transform="translate(222.65625 0)"/>
       <use xlink:href="#DejaVuSerif-34" transform="translate(286.279297 0)"/>
       <use xlink:href="#DejaVuSerif-35" transform="translate(349.902344 0)"/>
      </g>
     </g>
    </g>
    <g id="xtick_4">
     <g id="line2d_7">
      <path d="M 149.534131 141.8095 
L 149.534131 21.2795 
" clip-path="url(#p8baf57b07d)" style="fill: none; stroke-dasharray: 2.96,1.28; stroke-dashoffset: 0; stroke: #b0b0b0; stroke-opacity: 0.5; stroke-width: 0.8"/>
     </g>
     <g id="line2d_8">
      <g>
       <use xlink:href="#md1fea4a6f7" x="149.534131" y="141.8095" style="stroke: #000000; stroke-width: 0.8"/>
      </g>
     </g>
     <g id="text_4">
      <!-- 0.00817 -->
      <g transform="translate(132.992881 154.88825) scale(0.08 -0.08)">
       <defs>
        <path id="DejaVuSerif-38" d="M 2981 1275 
Q 2981 1775 2732 2051 
Q 2484 2328 2034 2328 
Q 1584 2328 1336 2051 
Q 1088 1775 1088 1275 
Q 1088 772 1336 495 
Q 1584 219 2034 219 
Q 2484 219 2732 495 
Q 2981 772 2981 1275 
z
M 2853 3541 
Q 2853 3966 2637 4203 
Q 2422 4441 2034 4441 
Q 1650 4441 1433 4203 
Q 1216 3966 1216 3541 
Q 1216 3113 1433 2875 
Q 1650 2638 2034 2638 
Q 2422 2638 2637 2875 
Q 2853 3113 2853 3541 
z
M 2516 2484 
Q 3047 2413 3344 2092 
Q 3641 1772 3641 1275 
Q 3641 619 3225 264 
Q 2809 -91 2034 -91 
Q 1263 -91 845 264 
Q 428 619 428 1275 
Q 428 1772 725 2092 
Q 1022 2413 1556 2484 
Q 1084 2569 832 2842 
Q 581 3116 581 3541 
Q 581 4103 968 4426 
Q 1356 4750 2034 4750 
Q 2713 4750 3100 4426 
Q 3488 4103 3488 3541 
Q 3488 3116 3236 2842 
Q 2984 2569 2516 2484 
z
" transform="scale(0.015625)"/>
        <path id="DejaVuSerif-31" d="M 909 0 
L 909 331 
L 1722 331 
L 1722 4213 
L 781 3603 
L 781 4013 
L 1919 4750 
L 2350 4750 
L 2350 331 
L 3163 331 
L 3163 0 
L 909 0 
z
" transform="scale(0.015625)"/>
       </defs>
       <use xlink:href="#DejaVuSerif-30"/>
       <use xlink:href="#DejaVuSerif-2e" transform="translate(63.623047 0)"/>
       <use xlink:href="#DejaVuSerif-30" transform="translate(95.410156 0)"/>
       <use xlink:href="#DejaVuSerif-30" transform="translate(159.033203 0)"/>
       <use xlink:href="#DejaVuSerif-38" transform="translate(222.65625 0)"/>
       <use xlink:href="#DejaVuSerif-31" transform="translate(286.279297 0)"/>
       <use xlink:href="#DejaVuSerif-37" transform="translate(349.902344 0)"/>
      </g>
     </g>
    </g>
    <g id="xtick_5">
     <g id="line2d_9">
      <path d="M 177.818234 141.8095 
L 177.818234 21.2795 
" clip-path="url(#p8baf57b07d)" style="fill: none; stroke-dasharray: 2.96,1.28; stroke-dashoffset: 0; stroke: #b0b0b0; stroke-opacity: 0.5; stroke-width: 0.8"/>
     </g>
     <g id="line2d_10">
      <g>
       <use xlink:href="#md1fea4a6f7" x="177.818234" y="141.8095" style="stroke: #000000; stroke-width: 0.8"/>
      </g>
     </g>
     <g id="text_5">
      <!-- 0.01090 -->
      <g transform="translate(161.276984 154.88825) scale(0.08 -0.08)">
       <defs>
        <path id="DejaVuSerif-39" d="M 2994 2091 
Q 2784 1856 2512 1740 
Q 2241 1625 1900 1625 
Q 1206 1625 804 2044 
Q 403 2463 403 3188 
Q 403 3897 839 4323 
Q 1275 4750 2003 4750 
Q 2794 4750 3217 4161 
Q 3641 3572 3641 2478 
Q 3641 1253 3137 581 
Q 2634 -91 1722 -91 
Q 1475 -91 1203 -44 
Q 931 3 647 97 
L 647 872 
L 997 872 
Q 1038 556 1241 387 
Q 1444 219 1784 219 
Q 2391 219 2687 676 
Q 2984 1134 2994 2091 
z
M 1978 4441 
Q 1534 4441 1298 4117 
Q 1063 3794 1063 3188 
Q 1063 2581 1298 2256 
Q 1534 1931 1978 1931 
Q 2422 1931 2658 2245 
Q 2894 2559 2894 3150 
Q 2894 3772 2656 4106 
Q 2419 4441 1978 4441 
z
" transform="scale(0.015625)"/>
       </defs>
       <use xlink:href="#DejaVuSerif-30"/>
       <use xlink:href="#DejaVuSerif-2e" transform="translate(63.623047 0)"/>
       <use xlink:href="#DejaVuSerif-30" transform="translate(95.410156 0)"/>
       <use xlink:href="#DejaVuSerif-31" transform="translate(159.033203 0)"/>
       <use xlink:href="#DejaVuSerif-30" transform="translate(222.65625 0)"/>
       <use xlink:href="#DejaVuSerif-39" transform="translate(286.279297 0)"/>
       <use xlink:href="#DejaVuSerif-30" transform="translate(349.902344 0)"/>
      </g>
     </g>
    </g>
    <g id="text_6">
     <!-- Real -->
     <g transform="translate(112.206278 166.63075) scale(0.08 -0.08)">
      <defs>
       <path id="DejaVuSerif-52" d="M 3066 2316 
Q 3284 2256 3442 2114 
Q 3600 1972 3725 1716 
L 4403 331 
L 4972 331 
L 4972 0 
L 3872 0 
L 3144 1484 
Q 2934 1916 2759 2042 
Q 2584 2169 2278 2169 
L 1581 2169 
L 1581 331 
L 2241 331 
L 2241 0 
L 353 0 
L 353 331 
L 947 331 
L 947 4331 
L 353 4331 
L 353 4666 
L 2719 4666 
Q 3400 4666 3770 4341 
Q 4141 4016 4141 3419 
Q 4141 2938 3870 2661 
Q 3600 2384 3066 2316 
z
M 1581 2503 
L 2503 2503 
Q 2975 2503 3200 2726 
Q 3425 2950 3425 3419 
Q 3425 3888 3200 4109 
Q 2975 4331 2503 4331 
L 1581 4331 
L 1581 2503 
z
" transform="scale(0.015625)"/>
       <path id="DejaVuSerif-65" d="M 3469 1600 
L 991 1600 
L 991 1575 
Q 991 903 1244 561 
Q 1497 219 1991 219 
Q 2369 219 2611 417 
Q 2853 616 2950 1006 
L 3413 1006 
Q 3275 459 2904 184 
Q 2534 -91 1931 -91 
Q 1203 -91 761 389 
Q 319 869 319 1663 
Q 319 2450 753 2931 
Q 1188 3413 1894 3413 
Q 2647 3413 3050 2948 
Q 3453 2484 3469 1600 
z
M 2791 1931 
Q 2772 2513 2545 2808 
Q 2319 3103 1894 3103 
Q 1497 3103 1269 2806 
Q 1041 2509 991 1931 
L 2791 1931 
z
" transform="scale(0.015625)"/>
       <path id="DejaVuSerif-61" d="M 2547 1044 
L 2547 1747 
L 1806 1747 
Q 1378 1747 1168 1562 
Q 959 1378 959 997 
Q 959 650 1171 447 
Q 1384 244 1747 244 
Q 2106 244 2326 466 
Q 2547 688 2547 1044 
z
M 3122 2075 
L 3122 331 
L 3634 331 
L 3634 0 
L 2547 0 
L 2547 359 
Q 2356 128 2106 18 
Q 1856 -91 1522 -91 
Q 969 -91 644 203 
Q 319 497 319 997 
Q 319 1513 691 1797 
Q 1063 2081 1741 2081 
L 2547 2081 
L 2547 2309 
Q 2547 2688 2317 2895 
Q 2088 3103 1672 3103 
Q 1328 3103 1125 2947 
Q 922 2791 872 2484 
L 575 2484 
L 575 3156 
Q 875 3284 1158 3348 
Q 1441 3413 1709 3413 
Q 2400 3413 2761 3070 
Q 3122 2728 3122 2075 
z
" transform="scale(0.015625)"/>
       <path id="DejaVuSerif-6c" d="M 1313 331 
L 1856 331 
L 1856 0 
L 184 0 
L 184 331 
L 738 331 
L 738 4531 
L 184 4531 
L 184 4863 
L 1313 4863 
L 1313 331 
z
" transform="scale(0.015625)"/>
      </defs>
      <use xlink:href="#DejaVuSerif-52"/>
      <use xlink:href="#DejaVuSerif-65" transform="translate(75.292969 0)"/>
      <use xlink:href="#DejaVuSerif-61" transform="translate(134.472656 0)"/>
      <use xlink:href="#DejaVuSerif-6c" transform="translate(194.091797 0)"/>
     </g>
    </g>
    <g id="text_7">
     <!-- 1e3 -->
     <g transform="translate(168.560055 165.63075) scale(0.08 -0.08)">
      <defs>
       <path id="DejaVuSerif-33" d="M 622 4469 
Q 988 4606 1323 4678 
Q 1659 4750 1953 4750 
Q 2638 4750 3022 4454 
Q 3406 4159 3406 3634 
Q 3406 3213 3140 2930 
Q 2875 2647 2388 2547 
Q 2963 2466 3280 2130 
Q 3597 1794 3597 1259 
Q 3597 606 3158 257 
Q 2719 -91 1894 -91 
Q 1528 -91 1179 -12 
Q 831 66 488 225 
L 488 1131 
L 838 1131 
Q 869 681 1141 450 
Q 1413 219 1906 219 
Q 2384 219 2661 495 
Q 2938 772 2938 1253 
Q 2938 1803 2653 2086 
Q 2369 2369 1819 2369 
L 1522 2369 
L 1522 2688 
L 1678 2688 
Q 2225 2688 2498 2914 
Q 2772 3141 2772 3597 
Q 2772 4006 2547 4223 
Q 2322 4441 1900 4441 
Q 1478 4441 1245 4241 
Q 1013 4041 972 3647 
L 622 3647 
L 622 4469 
z
" transform="scale(0.015625)"/>
      </defs>
      <use xlink:href="#DejaVuSerif-31"/>
      <use xlink:href="#DejaVuSerif-65" transform="translate(63.623047 0)"/>
      <use xlink:href="#DejaVuSerif-33" transform="translate(122.802734 0)"/>
     </g>
    </g>
   </g>
   <g id="matplotlib.axis_2">
    <g id="ytick_1">
     <g id="line2d_11">
      <path d="M 59.025 136.330864 
L 183.475055 136.330864 
" clip-path="url(#p8baf57b07d)" style="fill: none; stroke-dasharray: 2.96,1.28; stroke-dashoffset: 0; stroke: #b0b0b0; stroke-opacity: 0.5; stroke-width: 0.8"/>
     </g>
     <g id="line2d_12">
      <defs>
       <path id="m951622f6c6" d="M 0 0 
L -3.5 0 
" style="stroke: #000000; stroke-width: 0.8"/>
      </defs>
      <g>
       <use xlink:href="#m951622f6c6" x="59.025" y="136.330864" style="stroke: #000000; stroke-width: 0.8"/>
      </g>
     </g>
     <g id="text_8">
      <!-- 0.00000 -->
      <g transform="translate(18.9425 139.370239) scale(0.08 -0.08)">
       <use xlink:href="#DejaVuSerif-30"/>
       <use xlink:href="#DejaVuSerif-2e" transform="translate(63.623047 0)"/>
       <use xlink:href="#DejaVuSerif-30" transform="translate(95.410156 0)"/>
       <use xlink:href="#DejaVuSerif-30" transform="translate(159.033203 0)"/>
       <use xlink:href="#DejaVuSerif-30" transform="translate(222.65625 0)"/>
       <use xlink:href="#DejaVuSerif-30" transform="translate(286.279297 0)"/>
       <use xlink:href="#DejaVuSerif-30" transform="translate(349.902344 0)"/>
      </g>
     </g>
    </g>
    <g id="ytick_2">
     <g id="line2d_13">
      <path d="M 59.025 108.937682 
L 183.475055 108.937682 
" clip-path="url(#p8baf57b07d)" style="fill: none; stroke-dasharray: 2.96,1.28; stroke-dashoffset: 0; stroke: #b0b0b0; stroke-opacity: 0.5; stroke-width: 0.8"/>
     </g>
     <g id="line2d_14">
      <g>
       <use xlink:href="#m951622f6c6" x="59.025" y="108.937682" style="stroke: #000000; stroke-width: 0.8"/>
      </g>
     </g>
     <g id="text_9">
      <!-- 0.00272 -->
      <g transform="translate(18.9425 111.977057) scale(0.08 -0.08)">
       <use xlink:href="#DejaVuSerif-30"/>
       <use xlink:href="#DejaVuSerif-2e" transform="translate(63.623047 0)"/>
       <use xlink:href="#DejaVuSerif-30" transform="translate(95.410156 0)"/>
       <use xlink:href="#DejaVuSerif-30" transform="translate(159.033203 0)"/>
       <use xlink:href="#DejaVuSerif-32" transform="translate(222.65625 0)"/>
       <use xlink:href="#DejaVuSerif-37" transform="translate(286.279297 0)"/>
       <use xlink:href="#DejaVuSerif-32" transform="translate(349.902344 0)"/>
      </g>
     </g>
    </g>
    <g id="ytick_3">
     <g id="line2d_15">
      <path d="M 59.025 81.5445 
L 183.475055 81.5445 
" clip-path="url(#p8baf57b07d)" style="fill: none; stroke-dasharray: 2.96,1.28; stroke-dashoffset: 0; stroke: #b0b0b0; stroke-opacity: 0.5; stroke-width: 0.8"/>
     </g>
     <g id="line2d_16">
      <g>
       <use xlink:href="#m951622f6c6" x="59.025" y="81.5445" style="stroke: #000000; stroke-width: 0.8"/>
      </g>
     </g>
     <g id="text_10">
      <!-- 0.00545 -->
      <g transform="translate(18.9425 84.583875) scale(0.08 -0.08)">
       <use xlink:href="#DejaVuSerif-30"/>
       <use xlink:href="#DejaVuSerif-2e" transform="translate(63.623047 0)"/>
       <use xlink:href="#DejaVuSerif-30" transform="translate(95.410156 0)"/>
       <use xlink:href="#DejaVuSerif-30" transform="translate(159.033203 0)"/>
       <use xlink:href="#DejaVuSerif-35" transform="translate(222.65625 0)"/>
       <use xlink:href="#DejaVuSerif-34" transform="translate(286.279297 0)"/>
       <use xlink:href="#DejaVuSerif-35" transform="translate(349.902344 0)"/>
      </g>
     </g>
    </g>
    <g id="ytick_4">
     <g id="line2d_17">
      <path d="M 59.025 54.151318 
L 183.475055 54.151318 
" clip-path="url(#p8baf57b07d)" style="fill: none; stroke-dasharray: 2.96,1.28; stroke-dashoffset: 0; stroke: #b0b0b0; stroke-opacity: 0.5; stroke-width: 0.8"/>
     </g>
     <g id="line2d_18">
      <g>
       <use xlink:href="#m951622f6c6" x="59.025" y="54.151318" style="stroke: #000000; stroke-width: 0.8"/>
      </g>
     </g>
     <g id="text_11">
      <!-- 0.00817 -->
      <g transform="translate(18.9425 57.190693) scale(0.08 -0.08)">
       <use xlink:href="#DejaVuSerif-30"/>
       <use xlink:href="#DejaVuSerif-2e" transform="translate(63.623047 0)"/>
       <use xlink:href="#DejaVuSerif-30" transform="translate(95.410156 0)"/>
       <use xlink:href="#DejaVuSerif-30" transform="translate(159.033203 0)"/>
       <use xlink:href="#DejaVuSerif-38" transform="translate(222.65625 0)"/>
       <use xlink:href="#DejaVuSerif-31" transform="translate(286.279297 0)"/>
       <use xlink:href="#DejaVuSerif-37" transform="translate(349.902344 0)"/>
      </g>
     </g>
    </g>
    <g id="ytick_5">
     <g id="line2d_19">
      <path d="M 59.025 26.758136 
L 183.475055 26.758136 
" clip-path="url(#p8baf57b07d)" style="fill: none; stroke-dasharray: 2.96,1.28; stroke-dashoffset: 0; stroke: #b0b0b0; stroke-opacity: 0.5; stroke-width: 0.8"/>
     </g>
     <g id="line2d_20">
      <g>
       <use xlink:href="#m951622f6c6" x="59.025" y="26.758136" style="stroke: #000000; stroke-width: 0.8"/>
      </g>
     </g>
     <g id="text_12">
      <!-- 0.01090 -->
      <g transform="translate(18.9425 29.797511) scale(0.08 -0.08)">
       <use xlink:href="#DejaVuSerif-30"/>
       <use xlink:href="#DejaVuSerif-2e" transform="translate(63.623047 0)"/>
       <use xlink:href="#DejaVuSerif-30" transform="translate(95.410156 0)"/>
       <use xlink:href="#DejaVuSerif-31" transform="translate(159.033203 0)"/>
       <use xlink:href="#DejaVuSerif-30" transform="translate(222.65625 0)"/>
       <use xlink:href="#DejaVuSerif-39" transform="translate(286.279297 0)"/>
       <use xlink:href="#DejaVuSerif-30" transform="translate(349.902344 0)"/>
      </g>
     </g>
    </g>
    <g id="text_13">
     <!-- Previsto -->
     <g transform="translate(13.27875 98.122625) rotate(-90) scale(0.08 -0.08)">
      <defs>
       <path id="DejaVuSerif-50" d="M 1581 2375 
L 2406 2375 
Q 2872 2375 3115 2626 
Q 3359 2878 3359 3353 
Q 3359 3831 3115 4081 
Q 2872 4331 2406 4331 
L 1581 4331 
L 1581 2375 
z
M 353 0 
L 353 331 
L 947 331 
L 947 4331 
L 353 4331 
L 353 4666 
L 2559 4666 
Q 3259 4666 3668 4311 
Q 4078 3956 4078 3353 
Q 4078 2753 3668 2397 
Q 3259 2041 2559 2041 
L 1581 2041 
L 1581 331 
L 2303 331 
L 2303 0 
L 353 0 
z
" transform="scale(0.015625)"/>
       <path id="DejaVuSerif-72" d="M 3059 3328 
L 3059 2497 
L 2728 2497 
Q 2713 2744 2591 2866 
Q 2469 2988 2234 2988 
Q 1809 2988 1582 2694 
Q 1356 2400 1356 1850 
L 1356 331 
L 2022 331 
L 2022 0 
L 263 0 
L 263 331 
L 781 331 
L 781 2994 
L 231 2994 
L 231 3322 
L 1356 3322 
L 1356 2731 
Q 1525 3078 1790 3245 
Q 2056 3413 2438 3413 
Q 2578 3413 2733 3391 
Q 2888 3369 3059 3328 
z
" transform="scale(0.015625)"/>
       <path id="DejaVuSerif-76" d="M 1581 0 
L 359 2988 
L -19 2988 
L -19 3322 
L 1509 3322 
L 1509 2988 
L 978 2988 
L 1913 703 
L 2847 2988 
L 2350 2988 
L 2350 3322 
L 3597 3322 
L 3597 2988 
L 3225 2988 
L 2003 0 
L 1581 0 
z
" transform="scale(0.015625)"/>
       <path id="DejaVuSerif-69" d="M 622 4353 
Q 622 4497 726 4603 
Q 831 4709 978 4709 
Q 1122 4709 1226 4603 
Q 1331 4497 1331 4353 
Q 1331 4206 1228 4103 
Q 1125 4000 978 4000 
Q 831 4000 726 4103 
Q 622 4206 622 4353 
z
M 1356 331 
L 1900 331 
L 1900 0 
L 231 0 
L 231 331 
L 781 331 
L 781 2988 
L 231 2988 
L 231 3322 
L 1356 3322 
L 1356 331 
z
" transform="scale(0.015625)"/>
       <path id="DejaVuSerif-73" d="M 359 184 
L 359 959 
L 691 959 
Q 703 588 923 403 
Q 1144 219 1575 219 
Q 1963 219 2166 364 
Q 2369 509 2369 788 
Q 2369 1006 2220 1140 
Q 2072 1275 1594 1428 
L 1178 1569 
Q 750 1706 558 1912 
Q 366 2119 366 2438 
Q 366 2894 700 3153 
Q 1034 3413 1625 3413 
Q 1888 3413 2178 3344 
Q 2469 3275 2778 3144 
L 2778 2419 
L 2447 2419 
Q 2434 2741 2221 2922 
Q 2009 3103 1644 3103 
Q 1281 3103 1095 2975 
Q 909 2847 909 2591 
Q 909 2381 1050 2254 
Q 1191 2128 1613 1997 
L 2069 1856 
Q 2541 1709 2748 1489 
Q 2956 1269 2956 922 
Q 2956 450 2595 179 
Q 2234 -91 1600 -91 
Q 1278 -91 972 -22 
Q 666 47 359 184 
z
" transform="scale(0.015625)"/>
       <path id="DejaVuSerif-74" d="M 691 2988 
L 184 2988 
L 184 3322 
L 691 3322 
L 691 4353 
L 1269 4353 
L 1269 3322 
L 2350 3322 
L 2350 2988 
L 1269 2988 
L 1269 878 
Q 1269 456 1350 337 
Q 1431 219 1650 219 
Q 1875 219 1978 351 
Q 2081 484 2088 781 
L 2522 781 
Q 2497 328 2275 118 
Q 2053 -91 1600 -91 
Q 1103 -91 897 129 
Q 691 350 691 878 
L 691 2988 
z
" transform="scale(0.015625)"/>
       <path id="DejaVuSerif-6f" d="M 1925 219 
Q 2388 219 2623 584 
Q 2859 950 2859 1663 
Q 2859 2375 2623 2739 
Q 2388 3103 1925 3103 
Q 1463 3103 1227 2739 
Q 991 2375 991 1663 
Q 991 950 1228 584 
Q 1466 219 1925 219 
z
M 1925 -91 
Q 1200 -91 759 389 
Q 319 869 319 1663 
Q 319 2456 758 2934 
Q 1197 3413 1925 3413 
Q 2653 3413 3092 2934 
Q 3531 2456 3531 1663 
Q 3531 869 3092 389 
Q 2653 -91 1925 -91 
z
" transform="scale(0.015625)"/>
      </defs>
      <use xlink:href="#DejaVuSerif-50"/>
      <use xlink:href="#DejaVuSerif-72" transform="translate(67.285156 0)"/>
      <use xlink:href="#DejaVuSerif-65" transform="translate(115.087891 0)"/>
      <use xlink:href="#DejaVuSerif-76" transform="translate(174.267578 0)"/>
      <use xlink:href="#DejaVuSerif-69" transform="translate(230.761719 0)"/>
      <use xlink:href="#DejaVuSerif-73" transform="translate(262.744141 0)"/>
      <use xlink:href="#DejaVuSerif-74" transform="translate(314.0625 0)"/>
      <use xlink:href="#DejaVuSerif-6f" transform="translate(354.248047 0)"/>
     </g>
    </g>
    <g id="text_14">
     <!-- 1e3 -->
     <g transform="translate(59.025 18.2795) scale(0.08 -0.08)">
      <use xlink:href="#DejaVuSerif-31"/>
      <use xlink:href="#DejaVuSerif-65" transform="translate(63.623047 0)"/>
      <use xlink:href="#DejaVuSerif-33" transform="translate(122.802734 0)"/>
     </g>
    </g>
   </g>
   <g id="PathCollection_1">
    <defs>
     <path id="m84068bbc3f" d="M 0 0.5 
C 0.132602 0.5 0.25979 0.447317 0.353553 0.353553 
C 0.447317 0.25979 0.5 0.132602 0.5 0 
C 0.5 -0.132602 0.447317 -0.25979 0.353553 -0.353553 
C 0.25979 -0.447317 0.132602 -0.5 0 -0.5 
C -0.132602 -0.5 -0.25979 -0.447317 -0.353553 -0.353553 
C -0.447317 -0.25979 -0.5 -0.132602 -0.5 0 
C -0.5 0.132602 -0.447317 0.25979 -0.353553 0.353553 
C -0.25979 0.447317 -0.132602 0.5 0 0.5 
z
" style="stroke: #ff5b5b; stroke-opacity: 0.5"/>
    </defs>
    <g clip-path="url(#p8baf57b07d)">
     <use xlink:href="#m84068bbc3f" x="64.681821" y="136.330864" style="fill: #ff5b5b; fill-opacity: 0.5; stroke: #ff5b5b; stroke-opacity: 0.5"/>
     <use xlink:href="#m84068bbc3f" x="64.681821" y="136.330864" style="fill: #ff5b5b; fill-opacity: 0.5; stroke: #ff5b5b; stroke-opacity: 0.5"/>
     <use xlink:href="#m84068bbc3f" x="64.681821" y="136.330864" style="fill: #ff5b5b; fill-opacity: 0.5; stroke: #ff5b5b; stroke-opacity: 0.5"/>
     <use xlink:href="#m84068bbc3f" x="64.681821" y="136.330864" style="fill: #ff5b5b; fill-opacity: 0.5; stroke: #ff5b5b; stroke-opacity: 0.5"/>
     <use xlink:href="#m84068bbc3f" x="64.681821" y="136.330864" style="fill: #ff5b5b; fill-opacity: 0.5; stroke: #ff5b5b; stroke-opacity: 0.5"/>
     <use xlink:href="#m84068bbc3f" x="64.681821" y="136.330864" style="fill: #ff5b5b; fill-opacity: 0.5; stroke: #ff5b5b; stroke-opacity: 0.5"/>
     <use xlink:href="#m84068bbc3f" x="64.681821" y="136.330864" style="fill: #ff5b5b; fill-opacity: 0.5; stroke: #ff5b5b; stroke-opacity: 0.5"/>
     <use xlink:href="#m84068bbc3f" x="64.681821" y="136.330864" style="fill: #ff5b5b; fill-opacity: 0.5; stroke: #ff5b5b; stroke-opacity: 0.5"/>
     <use xlink:href="#m84068bbc3f" x="110.233702" y="136.330864" style="fill: #ff5b5b; fill-opacity: 0.5; stroke: #ff5b5b; stroke-opacity: 0.5"/>
     <use xlink:href="#m84068bbc3f" x="91.422169" y="136.330864" style="fill: #ff5b5b; fill-opacity: 0.5; stroke: #ff5b5b; stroke-opacity: 0.5"/>
     <use xlink:href="#m84068bbc3f" x="94.048638" y="136.330864" style="fill: #ff5b5b; fill-opacity: 0.5; stroke: #ff5b5b; stroke-opacity: 0.5"/>
     <use xlink:href="#m84068bbc3f" x="98.81295" y="136.330864" style="fill: #ff5b5b; fill-opacity: 0.5; stroke: #ff5b5b; stroke-opacity: 0.5"/>
     <use xlink:href="#m84068bbc3f" x="109.398971" y="136.330864" style="fill: #ff5b5b; fill-opacity: 0.5; stroke: #ff5b5b; stroke-opacity: 0.5"/>
     <use xlink:href="#m84068bbc3f" x="127.945004" y="136.330864" style="fill: #ff5b5b; fill-opacity: 0.5; stroke: #ff5b5b; stroke-opacity: 0.5"/>
     <use xlink:href="#m84068bbc3f" x="79.122811" y="136.330864" style="fill: #ff5b5b; fill-opacity: 0.5; stroke: #ff5b5b; stroke-opacity: 0.5"/>
     <use xlink:href="#m84068bbc3f" x="150.653182" y="136.330864" style="fill: #ff5b5b; fill-opacity: 0.5; stroke: #ff5b5b; stroke-opacity: 0.5"/>
     <use xlink:href="#m84068bbc3f" x="124.746358" y="136.330864" style="fill: #ff5b5b; fill-opacity: 0.5; stroke: #ff5b5b; stroke-opacity: 0.5"/>
     <use xlink:href="#m84068bbc3f" x="139.866251" y="136.330864" style="fill: #ff5b5b; fill-opacity: 0.5; stroke: #ff5b5b; stroke-opacity: 0.5"/>
     <use xlink:href="#m84068bbc3f" x="149.393515" y="136.330864" style="fill: #ff5b5b; fill-opacity: 0.5; stroke: #ff5b5b; stroke-opacity: 0.5"/>
     <use xlink:href="#m84068bbc3f" x="145.127688" y="136.330864" style="fill: #ff5b5b; fill-opacity: 0.5; stroke: #ff5b5b; stroke-opacity: 0.5"/>
     <use xlink:href="#m84068bbc3f" x="145.758241" y="136.330864" style="fill: #ff5b5b; fill-opacity: 0.5; stroke: #ff5b5b; stroke-opacity: 0.5"/>
     <use xlink:href="#m84068bbc3f" x="110.327372" y="136.330864" style="fill: #ff5b5b; fill-opacity: 0.5; stroke: #ff5b5b; stroke-opacity: 0.5"/>
     <use xlink:href="#m84068bbc3f" x="114.379913" y="136.330864" style="fill: #ff5b5b; fill-opacity: 0.5; stroke: #ff5b5b; stroke-opacity: 0.5"/>
     <use xlink:href="#m84068bbc3f" x="98.645641" y="136.330864" style="fill: #ff5b5b; fill-opacity: 0.5; stroke: #ff5b5b; stroke-opacity: 0.5"/>
     <use xlink:href="#m84068bbc3f" x="146.308151" y="136.330864" style="fill: #ff5b5b; fill-opacity: 0.5; stroke: #ff5b5b; stroke-opacity: 0.5"/>
     <use xlink:href="#m84068bbc3f" x="153.264323" y="136.330864" style="fill: #ff5b5b; fill-opacity: 0.5; stroke: #ff5b5b; stroke-opacity: 0.5"/>
     <use xlink:href="#m84068bbc3f" x="151.208598" y="136.330864" style="fill: #ff5b5b; fill-opacity: 0.5; stroke: #ff5b5b; stroke-opacity: 0.5"/>
     <use xlink:href="#m84068bbc3f" x="151.114595" y="136.330864" style="fill: #ff5b5b; fill-opacity: 0.5; stroke: #ff5b5b; stroke-opacity: 0.5"/>
     <use xlink:href="#m84068bbc3f" x="163.944894" y="136.330864" style="fill: #ff5b5b; fill-opacity: 0.5; stroke: #ff5b5b; stroke-opacity: 0.5"/>
     <use xlink:href="#m84068bbc3f" x="171.456726" y="136.330864" style="fill: #ff5b5b; fill-opacity: 0.5; stroke: #ff5b5b; stroke-opacity: 0.5"/>
     <use xlink:href="#m84068bbc3f" x="158.21878" y="136.330864" style="fill: #ff5b5b; fill-opacity: 0.5; stroke: #ff5b5b; stroke-opacity: 0.5"/>
     <use xlink:href="#m84068bbc3f" x="153.193414" y="136.330864" style="fill: #ff5b5b; fill-opacity: 0.5; stroke: #ff5b5b; stroke-opacity: 0.5"/>
     <use xlink:href="#m84068bbc3f" x="165.056605" y="136.330864" style="fill: #ff5b5b; fill-opacity: 0.5; stroke: #ff5b5b; stroke-opacity: 0.5"/>
     <use xlink:href="#m84068bbc3f" x="103.678744" y="136.330864" style="fill: #ff5b5b; fill-opacity: 0.5; stroke: #ff5b5b; stroke-opacity: 0.5"/>
     <use xlink:href="#m84068bbc3f" x="85.738844" y="136.330864" style="fill: #ff5b5b; fill-opacity: 0.5; stroke: #ff5b5b; stroke-opacity: 0.5"/>
     <use xlink:href="#m84068bbc3f" x="98.323194" y="136.330864" style="fill: #ff5b5b; fill-opacity: 0.5; stroke: #ff5b5b; stroke-opacity: 0.5"/>
     <use xlink:href="#m84068bbc3f" x="115.8108" y="136.330864" style="fill: #ff5b5b; fill-opacity: 0.5; stroke: #ff5b5b; stroke-opacity: 0.5"/>
     <use xlink:href="#m84068bbc3f" x="131.36347" y="136.330864" style="fill: #ff5b5b; fill-opacity: 0.5; stroke: #ff5b5b; stroke-opacity: 0.5"/>
     <use xlink:href="#m84068bbc3f" x="177.818234" y="136.330864" style="fill: #ff5b5b; fill-opacity: 0.5; stroke: #ff5b5b; stroke-opacity: 0.5"/>
     <use xlink:href="#m84068bbc3f" x="143.154245" y="136.330864" style="fill: #ff5b5b; fill-opacity: 0.5; stroke: #ff5b5b; stroke-opacity: 0.5"/>
     <use xlink:href="#m84068bbc3f" x="150.06123" y="136.330864" style="fill: #ff5b5b; fill-opacity: 0.5; stroke: #ff5b5b; stroke-opacity: 0.5"/>
     <use xlink:href="#m84068bbc3f" x="159.346482" y="136.330864" style="fill: #ff5b5b; fill-opacity: 0.5; stroke: #ff5b5b; stroke-opacity: 0.5"/>
     <use xlink:href="#m84068bbc3f" x="133.308349" y="136.330864" style="fill: #ff5b5b; fill-opacity: 0.5; stroke: #ff5b5b; stroke-opacity: 0.5"/>
     <use xlink:href="#m84068bbc3f" x="107.470155" y="136.330864" style="fill: #ff5b5b; fill-opacity: 0.5; stroke: #ff5b5b; stroke-opacity: 0.5"/>
     <use xlink:href="#m84068bbc3f" x="115.977679" y="136.330864" style="fill: #ff5b5b; fill-opacity: 0.5; stroke: #ff5b5b; stroke-opacity: 0.5"/>
     <use xlink:href="#m84068bbc3f" x="97.425959" y="136.330864" style="fill: #ff5b5b; fill-opacity: 0.5; stroke: #ff5b5b; stroke-opacity: 0.5"/>
     <use xlink:href="#m84068bbc3f" x="100.279312" y="136.330864" style="fill: #ff5b5b; fill-opacity: 0.5; stroke: #ff5b5b; stroke-opacity: 0.5"/>
     <use xlink:href="#m84068bbc3f" x="109.293383" y="136.330864" style="fill: #ff5b5b; fill-opacity: 0.5; stroke: #ff5b5b; stroke-opacity: 0.5"/>
     <use xlink:href="#m84068bbc3f" x="108.376121" y="136.330864" style="fill: #ff5b5b; fill-opacity: 0.5; stroke: #ff5b5b; stroke-opacity: 0.5"/>
     <use xlink:href="#m84068bbc3f" x="145.42437" y="136.330864" style="fill: #ff5b5b; fill-opacity: 0.5; stroke: #ff5b5b; stroke-opacity: 0.5"/>
     <use xlink:href="#m84068bbc3f" x="176.091623" y="136.330864" style="fill: #ff5b5b; fill-opacity: 0.5; stroke: #ff5b5b; stroke-opacity: 0.5"/>
     <use xlink:href="#m84068bbc3f" x="162.726378" y="136.330864" style="fill: #ff5b5b; fill-opacity: 0.5; stroke: #ff5b5b; stroke-opacity: 0.5"/>
     <use xlink:href="#m84068bbc3f" x="156.100305" y="136.330864" style="fill: #ff5b5b; fill-opacity: 0.5; stroke: #ff5b5b; stroke-opacity: 0.5"/>
     <use xlink:href="#m84068bbc3f" x="131.013384" y="136.330864" style="fill: #ff5b5b; fill-opacity: 0.5; stroke: #ff5b5b; stroke-opacity: 0.5"/>
    </g>
   </g>
   <g id="line2d_21">
    <path d="M 64.681821 136.330864 
L 177.818234 26.758136 
" clip-path="url(#p8baf57b07d)" style="fill: none; stroke-dasharray: 2.442,1.056; stroke-dashoffset: 0; stroke: #202020; stroke-width: 0.66"/>
   </g>
   <g id="patch_3">
    <path d="M 59.025 141.8095 
L 59.025 21.2795 
" style="fill: none; stroke: #000000; stroke-width: 0.8; stroke-linejoin: miter; stroke-linecap: square"/>
   </g>
   <g id="patch_4">
    <path d="M 59.025 141.8095 
L 183.475055 141.8095 
" style="fill: none; stroke: #000000; stroke-width: 0.8; stroke-linejoin: miter; stroke-linecap: square"/>
   </g>
   <g id="legend_1">
    <g id="PathCollection_2">
     <g>
      <use xlink:href="#m84068bbc3f" x="72.099403" y="14.37875" style="fill: #ff5b5b; fill-opacity: 0.5; stroke: #ff5b5b; stroke-opacity: 0.5"/>
     </g>
    </g>
    <g id="text_15">
     <!-- Previsto -->
     <g transform="translate(86.499403 16.47875) scale(0.08 -0.08)">
      <use xlink:href="#DejaVuSerif-50"/>
      <use xlink:href="#DejaVuSerif-72" transform="translate(67.285156 0)"/>
      <use xlink:href="#DejaVuSerif-65" transform="translate(115.087891 0)"/>
      <use xlink:href="#DejaVuSerif-76" transform="translate(174.267578 0)"/>
      <use xlink:href="#DejaVuSerif-69" transform="translate(230.761719 0)"/>
      <use xlink:href="#DejaVuSerif-73" transform="translate(262.744141 0)"/>
      <use xlink:href="#DejaVuSerif-74" transform="translate(314.0625 0)"/>
      <use xlink:href="#DejaVuSerif-6f" transform="translate(354.248047 0)"/>
     </g>
    </g>
    <g id="line2d_22">
     <path d="M 135.655653 13.67875 
L 143.655653 13.67875 
L 151.655653 13.67875 
" style="fill: none; stroke-dasharray: 2.442,1.056; stroke-dashoffset: 0; stroke: #202020; stroke-width: 0.66"/>
    </g>
    <g id="text_16">
     <!-- Ideal -->
     <g transform="translate(158.055653 16.47875) scale(0.08 -0.08)">
      <defs>
       <path id="DejaVuSerif-49" d="M 1581 331 
L 2175 331 
L 2175 0 
L 353 0 
L 353 331 
L 947 331 
L 947 4331 
L 353 4331 
L 353 4666 
L 2175 4666 
L 2175 4331 
L 1581 4331 
L 1581 331 
z
" transform="scale(0.015625)"/>
       <path id="DejaVuSerif-64" d="M 3359 331 
L 3909 331 
L 3909 0 
L 2784 0 
L 2784 519 
Q 2616 206 2355 57 
Q 2094 -91 1709 -91 
Q 1097 -91 708 395 
Q 319 881 319 1663 
Q 319 2444 706 2928 
Q 1094 3413 1709 3413 
Q 2094 3413 2355 3264 
Q 2616 3116 2784 2803 
L 2784 4531 
L 2241 4531 
L 2241 4863 
L 3359 4863 
L 3359 331 
z
M 2784 1497 
L 2784 1825 
Q 2784 2422 2554 2737 
Q 2325 3053 1888 3053 
Q 1444 3053 1217 2703 
Q 991 2353 991 1663 
Q 991 975 1217 622 
Q 1444 269 1888 269 
Q 2325 269 2554 583 
Q 2784 897 2784 1497 
z
" transform="scale(0.015625)"/>
      </defs>
      <use xlink:href="#DejaVuSerif-49"/>
      <use xlink:href="#DejaVuSerif-64" transform="translate(39.501953 0)"/>
      <use xlink:href="#DejaVuSerif-65" transform="translate(103.515625 0)"/>
      <use xlink:href="#DejaVuSerif-61" transform="translate(162.695312 0)"/>
      <use xlink:href="#DejaVuSerif-6c" transform="translate(222.314453 0)"/>
     </g>
    </g>
   </g>
  </g>
  <g id="axes_2">
   <g id="patch_5">
    <path d="M 245.34489 141.8095 
L 494.245 141.8095 
L 494.245 21.2795 
L 245.34489 21.2795 
z
" style="fill: #ffffff"/>
   </g>
   <g id="matplotlib.axis_3">
    <g id="xtick_6">
     <g id="line2d_23">
      <path d="M 255.412535 141.8095 
L 255.412535 21.2795 
" clip-path="url(#pf076415969)" style="fill: none; stroke-dasharray: 2.96,1.28; stroke-dashoffset: 0; stroke: #b0b0b0; stroke-opacity: 0.5; stroke-width: 0.8"/>
     </g>
     <g id="line2d_24">
      <g>
       <use xlink:href="#md1fea4a6f7" x="255.412535" y="141.8095" style="stroke: #000000; stroke-width: 0.8"/>
      </g>
     </g>
     <g id="text_17">
      <!-- 2010 -->
      <g transform="translate(245.232535 154.88825) scale(0.08 -0.08)">
       <use xlink:href="#DejaVuSerif-32"/>
       <use xlink:href="#DejaVuSerif-30" transform="translate(63.623047 0)"/>
       <use xlink:href="#DejaVuSerif-31" transform="translate(127.246094 0)"/>
       <use xlink:href="#DejaVuSerif-30" transform="translate(190.869141 0)"/>
      </g>
     </g>
    </g>
    <g id="xtick_7">
     <g id="line2d_25">
      <path d="M 285.731765 141.8095 
L 285.731765 21.2795 
" clip-path="url(#pf076415969)" style="fill: none; stroke-dasharray: 2.96,1.28; stroke-dashoffset: 0; stroke: #b0b0b0; stroke-opacity: 0.5; stroke-width: 0.8"/>
     </g>
     <g id="line2d_26">
      <g>
       <use xlink:href="#md1fea4a6f7" x="285.731765" y="141.8095" style="stroke: #000000; stroke-width: 0.8"/>
      </g>
     </g>
     <g id="text_18">
      <!-- 2012 -->
      <g transform="translate(275.551765 154.88825) scale(0.08 -0.08)">
       <use xlink:href="#DejaVuSerif-32"/>
       <use xlink:href="#DejaVuSerif-30" transform="translate(63.623047 0)"/>
       <use xlink:href="#DejaVuSerif-31" transform="translate(127.246094 0)"/>
       <use xlink:href="#DejaVuSerif-32" transform="translate(190.869141 0)"/>
      </g>
     </g>
    </g>
    <g id="xtick_8">
     <g id="line2d_27">
      <path d="M 316.092528 141.8095 
L 316.092528 21.2795 
" clip-path="url(#pf076415969)" style="fill: none; stroke-dasharray: 2.96,1.28; stroke-dashoffset: 0; stroke: #b0b0b0; stroke-opacity: 0.5; stroke-width: 0.8"/>
     </g>
     <g id="line2d_28">
      <g>
       <use xlink:href="#md1fea4a6f7" x="316.092528" y="141.8095" style="stroke: #000000; stroke-width: 0.8"/>
      </g>
     </g>
     <g id="text_19">
      <!-- 2014 -->
      <g transform="translate(305.912528 154.88825) scale(0.08 -0.08)">
       <use xlink:href="#DejaVuSerif-32"/>
       <use xlink:href="#DejaVuSerif-30" transform="translate(63.623047 0)"/>
       <use xlink:href="#DejaVuSerif-31" transform="translate(127.246094 0)"/>
       <use xlink:href="#DejaVuSerif-34" transform="translate(190.869141 0)"/>
      </g>
     </g>
    </g>
    <g id="xtick_9">
     <g id="line2d_29">
      <path d="M 346.411758 141.8095 
L 346.411758 21.2795 
" clip-path="url(#pf076415969)" style="fill: none; stroke-dasharray: 2.96,1.28; stroke-dashoffset: 0; stroke: #b0b0b0; stroke-opacity: 0.5; stroke-width: 0.8"/>
     </g>
     <g id="line2d_30">
      <g>
       <use xlink:href="#md1fea4a6f7" x="346.411758" y="141.8095" style="stroke: #000000; stroke-width: 0.8"/>
      </g>
     </g>
     <g id="text_20">
      <!-- 2016 -->
      <g transform="translate(336.231758 154.88825) scale(0.08 -0.08)">
       <defs>
        <path id="DejaVuSerif-36" d="M 2094 219 
Q 2534 219 2771 542 
Q 3009 866 3009 1472 
Q 3009 2078 2771 2401 
Q 2534 2725 2094 2725 
Q 1647 2725 1412 2412 
Q 1178 2100 1178 1509 
Q 1178 888 1415 553 
Q 1653 219 2094 219 
z
M 1075 2569 
Q 1288 2803 1556 2918 
Q 1825 3034 2163 3034 
Q 2859 3034 3264 2615 
Q 3669 2197 3669 1472 
Q 3669 763 3233 336 
Q 2797 -91 2069 -91 
Q 1278 -91 853 498 
Q 428 1088 428 2181 
Q 428 3406 931 4078 
Q 1434 4750 2350 4750 
Q 2597 4750 2869 4703 
Q 3141 4656 3425 4563 
L 3425 3794 
L 3072 3794 
Q 3034 4109 2831 4275 
Q 2628 4441 2284 4441 
Q 1678 4441 1381 3981 
Q 1084 3522 1075 2569 
z
" transform="scale(0.015625)"/>
       </defs>
       <use xlink:href="#DejaVuSerif-32"/>
       <use xlink:href="#DejaVuSerif-30" transform="translate(63.623047 0)"/>
       <use xlink:href="#DejaVuSerif-31" transform="translate(127.246094 0)"/>
       <use xlink:href="#DejaVuSerif-36" transform="translate(190.869141 0)"/>
      </g>
     </g>
    </g>
    <g id="xtick_10">
     <g id="line2d_31">
      <path d="M 376.772521 141.8095 
L 376.772521 21.2795 
" clip-path="url(#pf076415969)" style="fill: none; stroke-dasharray: 2.96,1.28; stroke-dashoffset: 0; stroke: #b0b0b0; stroke-opacity: 0.5; stroke-width: 0.8"/>
     </g>
     <g id="line2d_32">
      <g>
       <use xlink:href="#md1fea4a6f7" x="376.772521" y="141.8095" style="stroke: #000000; stroke-width: 0.8"/>
      </g>
     </g>
     <g id="text_21">
      <!-- 2018 -->
      <g transform="translate(366.592521 154.88825) scale(0.08 -0.08)">
       <use xlink:href="#DejaVuSerif-32"/>
       <use xlink:href="#DejaVuSerif-30" transform="translate(63.623047 0)"/>
       <use xlink:href="#DejaVuSerif-31" transform="translate(127.246094 0)"/>
       <use xlink:href="#DejaVuSerif-38" transform="translate(190.869141 0)"/>
      </g>
     </g>
    </g>
    <g id="xtick_11">
     <g id="line2d_33">
      <path d="M 407.091751 141.8095 
L 407.091751 21.2795 
" clip-path="url(#pf076415969)" style="fill: none; stroke-dasharray: 2.96,1.28; stroke-dashoffset: 0; stroke: #b0b0b0; stroke-opacity: 0.5; stroke-width: 0.8"/>
     </g>
     <g id="line2d_34">
      <g>
       <use xlink:href="#md1fea4a6f7" x="407.091751" y="141.8095" style="stroke: #000000; stroke-width: 0.8"/>
      </g>
     </g>
     <g id="text_22">
      <!-- 2020 -->
      <g transform="translate(396.911751 154.88825) scale(0.08 -0.08)">
       <use xlink:href="#DejaVuSerif-32"/>
       <use xlink:href="#DejaVuSerif-30" transform="translate(63.623047 0)"/>
       <use xlink:href="#DejaVuSerif-32" transform="translate(127.246094 0)"/>
       <use xlink:href="#DejaVuSerif-30" transform="translate(190.869141 0)"/>
      </g>
     </g>
    </g>
    <g id="xtick_12">
     <g id="line2d_35">
      <path d="M 437.452514 141.8095 
L 437.452514 21.2795 
" clip-path="url(#pf076415969)" style="fill: none; stroke-dasharray: 2.96,1.28; stroke-dashoffset: 0; stroke: #b0b0b0; stroke-opacity: 0.5; stroke-width: 0.8"/>
     </g>
     <g id="line2d_36">
      <g>
       <use xlink:href="#md1fea4a6f7" x="437.452514" y="141.8095" style="stroke: #000000; stroke-width: 0.8"/>
      </g>
     </g>
     <g id="text_23">
      <!-- 2022 -->
      <g transform="translate(427.272514 154.88825) scale(0.08 -0.08)">
       <use xlink:href="#DejaVuSerif-32"/>
       <use xlink:href="#DejaVuSerif-30" transform="translate(63.623047 0)"/>
       <use xlink:href="#DejaVuSerif-32" transform="translate(127.246094 0)"/>
       <use xlink:href="#DejaVuSerif-32" transform="translate(190.869141 0)"/>
      </g>
     </g>
    </g>
    <g id="xtick_13">
     <g id="line2d_37">
      <path d="M 467.771744 141.8095 
L 467.771744 21.2795 
" clip-path="url(#pf076415969)" style="fill: none; stroke-dasharray: 2.96,1.28; stroke-dashoffset: 0; stroke: #b0b0b0; stroke-opacity: 0.5; stroke-width: 0.8"/>
     </g>
     <g id="line2d_38">
      <g>
       <use xlink:href="#md1fea4a6f7" x="467.771744" y="141.8095" style="stroke: #000000; stroke-width: 0.8"/>
      </g>
     </g>
     <g id="text_24">
      <!-- 2024 -->
      <g transform="translate(457.591744 154.88825) scale(0.08 -0.08)">
       <use xlink:href="#DejaVuSerif-32"/>
       <use xlink:href="#DejaVuSerif-30" transform="translate(63.623047 0)"/>
       <use xlink:href="#DejaVuSerif-32" transform="translate(127.246094 0)"/>
       <use xlink:href="#DejaVuSerif-34" transform="translate(190.869141 0)"/>
      </g>
     </g>
    </g>
    <g id="text_25">
     <!-- Série histórica -->
     <g transform="translate(340.117445 166.63075) scale(0.08 -0.08)">
      <defs>
       <path id="DejaVuSerif-53" d="M 594 225 
L 594 1288 
L 953 1284 
Q 969 753 1261 498 
Q 1553 244 2150 244 
Q 2706 244 2998 464 
Q 3291 684 3291 1106 
Q 3291 1444 3114 1625 
Q 2938 1806 2369 1978 
L 1753 2163 
Q 1084 2366 811 2669 
Q 538 2972 538 3500 
Q 538 4094 959 4422 
Q 1381 4750 2144 4750 
Q 2469 4750 2856 4679 
Q 3244 4609 3681 4475 
L 3681 3481 
L 3328 3481 
Q 3275 3975 2998 4195 
Q 2722 4416 2156 4416 
Q 1663 4416 1405 4214 
Q 1147 4013 1147 3628 
Q 1147 3294 1340 3103 
Q 1534 2913 2163 2725 
L 2741 2553 
Q 3375 2363 3645 2067 
Q 3916 1772 3916 1275 
Q 3916 597 3481 253 
Q 3047 -91 2188 -91 
Q 1803 -91 1404 -12 
Q 1006 66 594 225 
z
" transform="scale(0.015625)"/>
       <path id="DejaVuSerif-e9" d="M 3469 1600 
L 991 1600 
L 991 1575 
Q 991 903 1244 561 
Q 1497 219 1991 219 
Q 2369 219 2611 417 
Q 2853 616 2950 1006 
L 3413 1006 
Q 3275 459 2904 184 
Q 2534 -91 1931 -91 
Q 1203 -91 761 389 
Q 319 869 319 1663 
Q 319 2450 753 2931 
Q 1188 3413 1894 3413 
Q 2647 3413 3050 2948 
Q 3453 2484 3469 1600 
z
M 2791 1931 
Q 2772 2513 2545 2808 
Q 2319 3103 1894 3103 
Q 1497 3103 1269 2806 
Q 1041 2509 991 1931 
L 2791 1931 
z
M 2330 5119 
L 2952 5119 
L 1890 3944 
L 1524 3944 
L 2330 5119 
z
" transform="scale(0.015625)"/>
       <path id="DejaVuSerif-20" transform="scale(0.015625)"/>
       <path id="DejaVuSerif-68" d="M 263 0 
L 263 331 
L 781 331 
L 781 4531 
L 231 4531 
L 231 4863 
L 1356 4863 
L 1356 2731 
Q 1516 3069 1770 3241 
Q 2025 3413 2363 3413 
Q 2913 3413 3172 3097 
Q 3431 2781 3431 2113 
L 3431 331 
L 3944 331 
L 3944 0 
L 2356 0 
L 2356 331 
L 2853 331 
L 2853 1931 
Q 2853 2541 2704 2764 
Q 2556 2988 2175 2988 
Q 1775 2988 1565 2697 
Q 1356 2406 1356 1850 
L 1356 331 
L 1856 331 
L 1856 0 
L 263 0 
z
" transform="scale(0.015625)"/>
       <path id="DejaVuSerif-f3" d="M 1925 219 
Q 2388 219 2623 584 
Q 2859 950 2859 1663 
Q 2859 2375 2623 2739 
Q 2388 3103 1925 3103 
Q 1463 3103 1227 2739 
Q 991 2375 991 1663 
Q 991 950 1228 584 
Q 1466 219 1925 219 
z
M 1925 -91 
Q 1200 -91 759 389 
Q 319 869 319 1663 
Q 319 2456 758 2934 
Q 1197 3413 1925 3413 
Q 2653 3413 3092 2934 
Q 3531 2456 3531 1663 
Q 3531 869 3092 389 
Q 2653 -91 1925 -91 
z
M 2362 5119 
L 2984 5119 
L 1922 3944 
L 1556 3944 
L 2362 5119 
z
" transform="scale(0.015625)"/>
       <path id="DejaVuSerif-63" d="M 3291 997 
Q 3169 466 2822 187 
Q 2475 -91 1925 -91 
Q 1200 -91 759 389 
Q 319 869 319 1663 
Q 319 2459 759 2936 
Q 1200 3413 1925 3413 
Q 2241 3413 2553 3339 
Q 2866 3266 3181 3116 
L 3181 2266 
L 2847 2266 
Q 2781 2703 2561 2903 
Q 2341 3103 1931 3103 
Q 1466 3103 1228 2742 
Q 991 2381 991 1663 
Q 991 944 1227 581 
Q 1463 219 1931 219 
Q 2303 219 2525 412 
Q 2747 606 2828 997 
L 3291 997 
z
" transform="scale(0.015625)"/>
      </defs>
      <use xlink:href="#DejaVuSerif-53"/>
      <use xlink:href="#DejaVuSerif-e9" transform="translate(68.505859 0)"/>
      <use xlink:href="#DejaVuSerif-72" transform="translate(127.685547 0)"/>
      <use xlink:href="#DejaVuSerif-69" transform="translate(175.488281 0)"/>
      <use xlink:href="#DejaVuSerif-65" transform="translate(207.470703 0)"/>
      <use xlink:href="#DejaVuSerif-20" transform="translate(266.650391 0)"/>
      <use xlink:href="#DejaVuSerif-68" transform="translate(298.4375 0)"/>
      <use xlink:href="#DejaVuSerif-69" transform="translate(362.841797 0)"/>
      <use xlink:href="#DejaVuSerif-73" transform="translate(394.824219 0)"/>
      <use xlink:href="#DejaVuSerif-74" transform="translate(446.142578 0)"/>
      <use xlink:href="#DejaVuSerif-f3" transform="translate(486.328125 0)"/>
      <use xlink:href="#DejaVuSerif-72" transform="translate(546.533203 0)"/>
      <use xlink:href="#DejaVuSerif-69" transform="translate(594.335938 0)"/>
      <use xlink:href="#DejaVuSerif-63" transform="translate(626.318359 0)"/>
      <use xlink:href="#DejaVuSerif-61" transform="translate(682.324219 0)"/>
     </g>
    </g>
   </g>
   <g id="matplotlib.axis_4">
    <g id="ytick_6">
     <g id="line2d_39">
      <path d="M 245.34489 136.330864 
L 494.245 136.330864 
" clip-path="url(#pf076415969)" style="fill: none; stroke-dasharray: 2.96,1.28; stroke-dashoffset: 0; stroke: #b0b0b0; stroke-opacity: 0.5; stroke-width: 0.8"/>
     </g>
     <g id="line2d_40">
      <g>
       <use xlink:href="#m951622f6c6" x="245.34489" y="136.330864" style="stroke: #000000; stroke-width: 0.8"/>
      </g>
     </g>
     <g id="text_26">
      <!-- 0.000 -->
      <g transform="translate(215.44239 139.370239) scale(0.08 -0.08)">
       <use xlink:href="#DejaVuSerif-30"/>
       <use xlink:href="#DejaVuSerif-2e" transform="translate(63.623047 0)"/>
       <use xlink:href="#DejaVuSerif-30" transform="translate(95.410156 0)"/>
       <use xlink:href="#DejaVuSerif-30" transform="translate(159.033203 0)"/>
       <use xlink:href="#DejaVuSerif-30" transform="translate(222.65625 0)"/>
      </g>
     </g>
    </g>
    <g id="ytick_7">
     <g id="line2d_41">
      <path d="M 245.34489 116.220925 
L 494.245 116.220925 
" clip-path="url(#pf076415969)" style="fill: none; stroke-dasharray: 2.96,1.28; stroke-dashoffset: 0; stroke: #b0b0b0; stroke-opacity: 0.5; stroke-width: 0.8"/>
     </g>
     <g id="line2d_42">
      <g>
       <use xlink:href="#m951622f6c6" x="245.34489" y="116.220925" style="stroke: #000000; stroke-width: 0.8"/>
      </g>
     </g>
     <g id="text_27">
      <!-- 0.002 -->
      <g transform="translate(215.44239 119.2603) scale(0.08 -0.08)">
       <use xlink:href="#DejaVuSerif-30"/>
       <use xlink:href="#DejaVuSerif-2e" transform="translate(63.623047 0)"/>
       <use xlink:href="#DejaVuSerif-30" transform="translate(95.410156 0)"/>
       <use xlink:href="#DejaVuSerif-30" transform="translate(159.033203 0)"/>
       <use xlink:href="#DejaVuSerif-32" transform="translate(222.65625 0)"/>
      </g>
     </g>
    </g>
    <g id="ytick_8">
     <g id="line2d_43">
      <path d="M 245.34489 96.110987 
L 494.245 96.110987 
" clip-path="url(#pf076415969)" style="fill: none; stroke-dasharray: 2.96,1.28; stroke-dashoffset: 0; stroke: #b0b0b0; stroke-opacity: 0.5; stroke-width: 0.8"/>
     </g>
     <g id="line2d_44">
      <g>
       <use xlink:href="#m951622f6c6" x="245.34489" y="96.110987" style="stroke: #000000; stroke-width: 0.8"/>
      </g>
     </g>
     <g id="text_28">
      <!-- 0.004 -->
      <g transform="translate(215.44239 99.150362) scale(0.08 -0.08)">
       <use xlink:href="#DejaVuSerif-30"/>
       <use xlink:href="#DejaVuSerif-2e" transform="translate(63.623047 0)"/>
       <use xlink:href="#DejaVuSerif-30" transform="translate(95.410156 0)"/>
       <use xlink:href="#DejaVuSerif-30" transform="translate(159.033203 0)"/>
       <use xlink:href="#DejaVuSerif-34" transform="translate(222.65625 0)"/>
      </g>
     </g>
    </g>
    <g id="ytick_9">
     <g id="line2d_45">
      <path d="M 245.34489 76.001049 
L 494.245 76.001049 
" clip-path="url(#pf076415969)" style="fill: none; stroke-dasharray: 2.96,1.28; stroke-dashoffset: 0; stroke: #b0b0b0; stroke-opacity: 0.5; stroke-width: 0.8"/>
     </g>
     <g id="line2d_46">
      <g>
       <use xlink:href="#m951622f6c6" x="245.34489" y="76.001049" style="stroke: #000000; stroke-width: 0.8"/>
      </g>
     </g>
     <g id="text_29">
      <!-- 0.006 -->
      <g transform="translate(215.44239 79.040424) scale(0.08 -0.08)">
       <use xlink:href="#DejaVuSerif-30"/>
       <use xlink:href="#DejaVuSerif-2e" transform="translate(63.623047 0)"/>
       <use xlink:href="#DejaVuSerif-30" transform="translate(95.410156 0)"/>
       <use xlink:href="#DejaVuSerif-30" transform="translate(159.033203 0)"/>
       <use xlink:href="#DejaVuSerif-36" transform="translate(222.65625 0)"/>
      </g>
     </g>
    </g>
    <g id="ytick_10">
     <g id="line2d_47">
      <path d="M 245.34489 55.891111 
L 494.245 55.891111 
" clip-path="url(#pf076415969)" style="fill: none; stroke-dasharray: 2.96,1.28; stroke-dashoffset: 0; stroke: #b0b0b0; stroke-opacity: 0.5; stroke-width: 0.8"/>
     </g>
     <g id="line2d_48">
      <g>
       <use xlink:href="#m951622f6c6" x="245.34489" y="55.891111" style="stroke: #000000; stroke-width: 0.8"/>
      </g>
     </g>
     <g id="text_30">
      <!-- 0.008 -->
      <g transform="translate(215.44239 58.930486) scale(0.08 -0.08)">
       <use xlink:href="#DejaVuSerif-30"/>
       <use xlink:href="#DejaVuSerif-2e" transform="translate(63.623047 0)"/>
       <use xlink:href="#DejaVuSerif-30" transform="translate(95.410156 0)"/>
       <use xlink:href="#DejaVuSerif-30" transform="translate(159.033203 0)"/>
       <use xlink:href="#DejaVuSerif-38" transform="translate(222.65625 0)"/>
      </g>
     </g>
    </g>
    <g id="ytick_11">
     <g id="line2d_49">
      <path d="M 245.34489 35.781172 
L 494.245 35.781172 
" clip-path="url(#pf076415969)" style="fill: none; stroke-dasharray: 2.96,1.28; stroke-dashoffset: 0; stroke: #b0b0b0; stroke-opacity: 0.5; stroke-width: 0.8"/>
     </g>
     <g id="line2d_50">
      <g>
       <use xlink:href="#m951622f6c6" x="245.34489" y="35.781172" style="stroke: #000000; stroke-width: 0.8"/>
      </g>
     </g>
     <g id="text_31">
      <!-- 0.010 -->
      <g transform="translate(215.44239 38.820547) scale(0.08 -0.08)">
       <use xlink:href="#DejaVuSerif-30"/>
       <use xlink:href="#DejaVuSerif-2e" transform="translate(63.623047 0)"/>
       <use xlink:href="#DejaVuSerif-30" transform="translate(95.410156 0)"/>
       <use xlink:href="#DejaVuSerif-31" transform="translate(159.033203 0)"/>
       <use xlink:href="#DejaVuSerif-30" transform="translate(222.65625 0)"/>
      </g>
     </g>
    </g>
    <g id="text_32">
     <!-- Geração Eólica SE (MWMed) -->
     <g transform="translate(209.77864 140.775125) rotate(-90) scale(0.08 -0.08)">
      <defs>
       <path id="DejaVuSerif-47" d="M 4097 3272 
Q 3988 3856 3641 4136 
Q 3294 4416 2675 4416 
Q 1869 4416 1472 3897 
Q 1075 3378 1075 2328 
Q 1075 1300 1484 772 
Q 1894 244 2688 244 
Q 3041 244 3362 331 
Q 3684 419 3975 594 
L 3975 1797 
L 3097 1797 
L 3097 2131 
L 4609 2131 
L 4609 391 
Q 4194 150 3714 29 
Q 3234 -91 2688 -91 
Q 1631 -91 995 570 
Q 359 1231 359 2328 
Q 359 3434 996 4092 
Q 1634 4750 2713 4750 
Q 3113 4750 3539 4658 
Q 3966 4566 4447 4378 
L 4447 3272 
L 4097 3272 
z
" transform="scale(0.015625)"/>
       <path id="DejaVuSerif-e7" d="M 3291 997 
Q 3169 466 2822 187 
Q 2475 -91 1925 -91 
Q 1200 -91 759 389 
Q 319 869 319 1663 
Q 319 2459 759 2936 
Q 1200 3413 1925 3413 
Q 2241 3413 2553 3339 
Q 2866 3266 3181 3116 
L 3181 2266 
L 2847 2266 
Q 2781 2703 2561 2903 
Q 2341 3103 1931 3103 
Q 1466 3103 1228 2742 
Q 991 2381 991 1663 
Q 991 944 1227 581 
Q 1463 219 1931 219 
Q 2303 219 2525 412 
Q 2747 606 2828 997 
L 3291 997 
z
M 2118 0 
Q 2318 -200 2416 -375 
Q 2515 -550 2515 -703 
Q 2515 -956 2318 -1095 
Q 2121 -1234 1771 -1234 
Q 1640 -1234 1502 -1215 
Q 1365 -1197 1221 -1159 
L 1221 -750 
Q 1350 -803 1473 -829 
Q 1596 -856 1706 -856 
Q 1884 -856 1987 -773 
Q 2090 -691 2090 -550 
Q 2090 -463 2021 -325 
Q 1953 -188 1815 0 
L 2118 0 
z
" transform="scale(0.015625)"/>
       <path id="DejaVuSerif-e3" d="M 2547 1044 
L 2547 1747 
L 1806 1747 
Q 1378 1747 1168 1562 
Q 959 1378 959 997 
Q 959 650 1171 447 
Q 1384 244 1747 244 
Q 2106 244 2326 466 
Q 2547 688 2547 1044 
z
M 3122 2075 
L 3122 331 
L 3634 331 
L 3634 0 
L 2547 0 
L 2547 359 
Q 2356 128 2106 18 
Q 1856 -91 1522 -91 
Q 969 -91 644 203 
Q 319 497 319 997 
Q 319 1513 691 1797 
Q 1063 2081 1741 2081 
L 2547 2081 
L 2547 2309 
Q 2547 2688 2317 2895 
Q 2088 3103 1672 3103 
Q 1328 3103 1125 2947 
Q 922 2791 872 2484 
L 575 2484 
L 575 3156 
Q 875 3284 1158 3348 
Q 1441 3413 1709 3413 
Q 2400 3413 2761 3070 
Q 3122 2728 3122 2075 
z
M 1764 4281 
L 1585 4453 
Q 1504 4528 1452 4551 
Q 1401 4575 1342 4575 
Q 1210 4575 1135 4451 
Q 1060 4328 1045 4091 
L 745 4091 
Q 751 4513 910 4742 
Q 1070 4972 1354 4972 
Q 1473 4972 1573 4928 
Q 1673 4884 1789 4781 
L 1967 4609 
Q 2039 4538 2092 4513 
Q 2145 4488 2210 4488 
Q 2345 4488 2420 4613 
Q 2495 4738 2507 4972 
L 2807 4972 
Q 2801 4550 2641 4320 
Q 2482 4091 2198 4091 
Q 2079 4091 1979 4134 
Q 1879 4178 1764 4281 
z
" transform="scale(0.015625)"/>
       <path id="DejaVuSerif-45" d="M 353 0 
L 353 331 
L 947 331 
L 947 4331 
L 353 4331 
L 353 4666 
L 4109 4666 
L 4109 3628 
L 3725 3628 
L 3725 4281 
L 1581 4281 
L 1581 2719 
L 3109 2719 
L 3109 3303 
L 3494 3303 
L 3494 1753 
L 3109 1753 
L 3109 2338 
L 1581 2338 
L 1581 384 
L 3775 384 
L 3775 1038 
L 4159 1038 
L 4159 0 
L 353 0 
z
" transform="scale(0.015625)"/>
       <path id="DejaVuSerif-28" d="M 2041 -997 
Q 1281 -656 893 83 
Q 506 822 506 1931 
Q 506 3044 893 3783 
Q 1281 4522 2041 4863 
L 2041 4556 
Q 1559 4225 1350 3623 
Q 1141 3022 1141 1931 
Q 1141 844 1350 242 
Q 1559 -359 2041 -691 
L 2041 -997 
z
" transform="scale(0.015625)"/>
       <path id="DejaVuSerif-4d" d="M 353 0 
L 353 331 
L 947 331 
L 947 4331 
L 319 4331 
L 319 4666 
L 1678 4666 
L 3316 1344 
L 4953 4666 
L 6228 4666 
L 6228 4331 
L 5606 4331 
L 5606 331 
L 6203 331 
L 6203 0 
L 4378 0 
L 4378 331 
L 4972 331 
L 4972 3938 
L 3372 684 
L 2931 684 
L 1331 3938 
L 1331 331 
L 1925 331 
L 1925 0 
L 353 0 
z
" transform="scale(0.015625)"/>
       <path id="DejaVuSerif-57" d="M 4878 0 
L 4366 0 
L 3297 3794 
L 2228 0 
L 1716 0 
L 494 4331 
L 31 4331 
L 31 4666 
L 1734 4666 
L 1734 4331 
L 1153 4331 
L 2125 884 
L 3188 4666 
L 3694 4666 
L 4775 844 
L 5753 4331 
L 5216 4331 
L 5216 4666 
L 6559 4666 
L 6559 4331 
L 6100 4331 
L 4878 0 
z
" transform="scale(0.015625)"/>
       <path id="DejaVuSerif-29" d="M 453 -997 
L 453 -691 
Q 934 -359 1145 242 
Q 1356 844 1356 1931 
Q 1356 3022 1145 3623 
Q 934 4225 453 4556 
L 453 4863 
Q 1216 4522 1603 3783 
Q 1991 3044 1991 1931 
Q 1991 822 1603 83 
Q 1216 -656 453 -997 
z
" transform="scale(0.015625)"/>
      </defs>
      <use xlink:href="#DejaVuSerif-47"/>
      <use xlink:href="#DejaVuSerif-65" transform="translate(79.882812 0)"/>
      <use xlink:href="#DejaVuSerif-72" transform="translate(139.0625 0)"/>
      <use xlink:href="#DejaVuSerif-61" transform="translate(186.865234 0)"/>
      <use xlink:href="#DejaVuSerif-e7" transform="translate(246.484375 0)"/>
      <use xlink:href="#DejaVuSerif-e3" transform="translate(302.490234 0)"/>
      <use xlink:href="#DejaVuSerif-6f" transform="translate(362.109375 0)"/>
      <use xlink:href="#DejaVuSerif-20" transform="translate(422.314453 0)"/>
      <use xlink:href="#DejaVuSerif-45" transform="translate(454.101562 0)"/>
      <use xlink:href="#DejaVuSerif-f3" transform="translate(527.099609 0)"/>
      <use xlink:href="#DejaVuSerif-6c" transform="translate(587.304688 0)"/>
      <use xlink:href="#DejaVuSerif-69" transform="translate(619.287109 0)"/>
      <use xlink:href="#DejaVuSerif-63" transform="translate(651.269531 0)"/>
      <use xlink:href="#DejaVuSerif-61" transform="translate(707.275391 0)"/>
      <use xlink:href="#DejaVuSerif-20" transform="translate(766.894531 0)"/>
      <use xlink:href="#DejaVuSerif-53" transform="translate(798.681641 0)"/>
      <use xlink:href="#DejaVuSerif-45" transform="translate(867.1875 0)"/>
      <use xlink:href="#DejaVuSerif-20" transform="translate(940.185547 0)"/>
      <use xlink:href="#DejaVuSerif-28" transform="translate(971.972656 0)"/>
      <use xlink:href="#DejaVuSerif-4d" transform="translate(1010.986328 0)"/>
      <use xlink:href="#DejaVuSerif-57" transform="translate(1113.378906 0)"/>
      <use xlink:href="#DejaVuSerif-4d" transform="translate(1216.162109 0)"/>
      <use xlink:href="#DejaVuSerif-65" transform="translate(1318.554688 0)"/>
      <use xlink:href="#DejaVuSerif-64" transform="translate(1377.734375 0)"/>
      <use xlink:href="#DejaVuSerif-29" transform="translate(1441.748047 0)"/>
     </g>
    </g>
    <g id="text_33">
     <!-- 1e3 -->
     <g transform="translate(245.34489 18.2795) scale(0.08 -0.08)">
      <use xlink:href="#DejaVuSerif-31"/>
      <use xlink:href="#DejaVuSerif-65" transform="translate(63.623047 0)"/>
      <use xlink:href="#DejaVuSerif-33" transform="translate(122.802734 0)"/>
     </g>
    </g>
   </g>
   <g id="line2d_51">
    <path d="M 256.658531 136.330864 
L 257.821461 136.330864 
L 259.108989 136.330864 
L 260.354985 136.330864 
L 261.642514 136.330864 
L 262.88851 136.330864 
L 264.176039 136.330864 
L 265.463568 136.330864 
L 266.709564 136.330864 
L 267.997092 136.330864 
L 269.243088 136.330864 
L 270.530617 136.330864 
L 271.818146 136.330864 
L 272.981075 136.330864 
L 274.268604 136.330864 
L 275.5146 136.330864 
L 276.802129 136.330864 
L 278.048125 136.330864 
L 279.335654 136.330864 
L 280.623183 136.330864 
L 281.869178 136.330864 
L 283.156707 136.330864 
L 284.402703 136.330864 
L 285.690232 136.330864 
L 286.977761 136.330864 
L 288.182224 136.330864 
L 289.469752 136.330864 
L 290.715748 136.330864 
L 292.003277 136.330864 
L 293.249273 136.330864 
L 294.536802 136.330864 
L 295.824331 136.330864 
L 297.070327 136.330864 
L 298.357855 136.330864 
L 299.603851 136.330864 
L 300.89138 136.330864 
L 302.178909 136.330864 
L 303.341838 136.330864 
L 304.629367 136.330864 
L 305.875363 136.330864 
L 307.162892 136.330864 
L 308.408888 136.330864 
L 309.696417 136.330864 
L 310.983946 136.330864 
L 312.229941 136.330864 
L 313.51747 136.330864 
L 314.763466 136.330864 
L 316.050995 136.330864 
L 317.338524 136.330864 
L 318.501453 136.330864 
L 319.788982 136.330864 
L 321.034978 136.330864 
L 322.322507 136.330864 
L 323.568503 136.330864 
L 324.856032 136.330864 
L 326.143561 136.330864 
L 327.389556 136.330864 
L 328.677085 136.330864 
L 329.923081 136.330864 
L 331.21061 136.330864 
L 332.498139 136.330864 
L 333.661068 136.330864 
L 334.948597 136.330864 
L 336.194593 136.330864 
L 337.482122 136.330864 
L 338.728118 136.330864 
L 340.015647 136.330864 
L 341.303176 136.330864 
L 342.549171 136.330864 
L 343.8367 136.330864 
L 345.082696 136.330864 
L 346.370225 136.330864 
L 347.657754 136.330864 
L 348.862216 136.330864 
L 350.149745 136.330864 
L 351.395741 136.330864 
L 352.68327 136.330864 
L 353.929266 136.330864 
L 355.216795 136.330864 
L 356.504324 136.330864 
L 357.750319 136.330864 
L 359.037848 136.330864 
L 360.283844 136.330864 
L 361.571373 136.330864 
L 362.858902 136.330864 
L 364.021831 136.330864 
L 365.30936 136.330864 
L 366.555356 136.330864 
L 367.842885 136.330864 
L 369.088881 136.330864 
L 370.37641 136.330864 
L 371.663939 136.330864 
L 372.909934 136.330864 
L 374.197463 136.330864 
L 375.443459 136.330864 
L 376.730988 136.330864 
L 378.018517 136.330864 
L 379.181446 136.330864 
L 380.468975 136.330864 
L 381.714971 136.330864 
L 383.0025 136.330864 
L 384.248496 136.330864 
L 385.536024 136.330864 
L 386.823553 136.330864 
L 388.069549 136.330864 
L 389.357078 136.330864 
L 390.603074 136.330864 
L 391.890603 136.330864 
L 393.178132 136.330864 
L 394.341061 136.330864 
L 395.62859 136.330864 
L 396.874586 136.330864 
L 398.162115 136.330864 
L 399.40811 136.330864 
L 400.695639 136.330864 
L 401.983168 136.330864 
L 403.229164 136.330864 
L 404.516693 136.330864 
L 405.762689 136.330864 
L 407.050218 136.330864 
L 408.337747 136.330864 
L 409.542209 136.330864 
L 410.829738 136.330864 
L 412.075734 136.330864 
L 413.363263 136.330864 
L 414.609259 136.330864 
L 415.896788 136.330864 
" clip-path="url(#pf076415969)" style="fill: none; stroke: #43aaff; stroke-width: 0.66; stroke-linecap: square"/>
   </g>
   <g id="line2d_52">
    <path d="M 415.896788 136.330864 
L 417.184316 136.330864 
L 418.430312 136.330864 
L 419.717841 136.330864 
L 420.963837 136.330864 
L 422.251366 136.330864 
L 423.538895 136.330864 
L 424.701824 136.330864 
L 425.989353 92.213822 
L 427.235349 110.43281 
L 428.522878 107.889073 
L 429.768873 103.274831 
L 431.056402 93.02226 
L 432.343931 75.060409 
L 433.589927 122.344751 
L 434.877456 53.067516 
L 436.123452 78.158301 
L 437.410981 63.514669 
L 438.69851 54.287505 
L 439.861439 58.418963 
L 441.148968 57.808272 
L 442.394964 92.123103 
L 443.682493 88.198213 
L 444.928488 103.43687 
L 446.216017 57.275683 
L 447.503546 50.538624 
L 448.749542 52.529595 
L 450.037071 52.620637 
L 451.283067 40.19448 
L 452.570596 32.919263 
L 453.858125 45.740227 
L 455.021054 50.607299 
L 456.308583 39.117787 
L 457.554579 98.562305 
L 458.842108 115.937116 
L 460.088103 103.749161 
L 461.375632 86.812398 
L 462.663161 71.749621 
L 463.909157 26.758136 
L 465.196686 60.330244 
L 466.442682 53.640823 
L 467.730211 44.648047 
L 469.017739 69.866004 
L 470.222202 94.89032 
L 471.509731 86.650775 
L 472.755727 104.618133 
L 474.043256 101.854658 
L 475.289251 93.124522 
L 476.57678 94.012891 
L 477.864309 58.131625 
L 479.110305 28.430362 
L 480.397834 41.374614 
L 481.64383 47.791973 
L 482.931359 72.088679 
" clip-path="url(#pf076415969)" style="fill: none; stroke-dasharray: 2.442,1.056; stroke-dashoffset: 0; stroke: #969696; stroke-width: 0.66"/>
   </g>
   <g id="line2d_53">
    <path d="M 415.896788 136.330864 
L 417.184316 136.330864 
L 418.430312 136.330864 
L 419.717841 136.330864 
L 420.963837 136.330864 
L 422.251366 136.330864 
L 423.538895 136.330864 
L 424.701824 136.330864 
L 425.989353 136.330864 
L 427.235349 136.330864 
L 428.522878 136.330864 
L 429.768873 136.330864 
L 431.056402 136.330864 
L 432.343931 136.330864 
L 433.589927 136.330864 
L 434.877456 136.330864 
L 436.123452 136.330864 
L 437.410981 136.330864 
L 438.69851 136.330864 
L 439.861439 136.330864 
L 441.148968 136.330864 
L 442.394964 136.330864 
L 443.682493 136.330864 
L 444.928488 136.330864 
L 446.216017 136.330864 
L 447.503546 136.330864 
L 448.749542 136.330864 
L 450.037071 136.330864 
L 451.283067 136.330864 
L 452.570596 136.330864 
L 453.858125 136.330864 
L 455.021054 136.330864 
L 456.308583 136.330864 
L 457.554579 136.330864 
L 458.842108 136.330864 
L 460.088103 136.330864 
L 461.375632 136.330864 
L 462.663161 136.330864 
L 463.909157 136.330864 
L 465.196686 136.330864 
L 466.442682 136.330864 
L 467.730211 136.330864 
L 469.017739 136.330864 
L 470.222202 136.330864 
L 471.509731 136.330864 
L 472.755727 136.330864 
L 474.043256 136.330864 
L 475.289251 136.330864 
L 476.57678 136.330864 
L 477.864309 136.330864 
L 479.110305 136.330864 
L 480.397834 136.330864 
L 481.64383 136.330864 
L 482.931359 136.330864 
" clip-path="url(#pf076415969)" style="fill: none; stroke: #ff5b5b; stroke-width: 0.66; stroke-linecap: square"/>
   </g>
   <g id="patch_6">
    <path d="M 245.34489 141.8095 
L 245.34489 21.2795 
" style="fill: none; stroke: #000000; stroke-width: 0.8; stroke-linejoin: miter; stroke-linecap: square"/>
   </g>
   <g id="patch_7">
    <path d="M 245.34489 141.8095 
L 494.245 141.8095 
" style="fill: none; stroke: #000000; stroke-width: 0.8; stroke-linejoin: miter; stroke-linecap: square"/>
   </g>
   <g id="text_34">
    <g id="patch_8">
     <path d="M 248.222892 44.019156 
L 320.550392 44.019156 
L 320.550392 25.206 
L 248.222892 25.206 
z
" style="fill: #ffffff"/>
    </g>
    <!-- R² = -2.744 -->
    <g transform="translate(250.322892 32.624906) scale(0.07 -0.07)">
     <defs>
      <path id="DejaVuSerif-b2" d="M 531 4050 
L 313 4050 
L 313 4544 
Q 519 4644 737 4697 
Q 956 4750 1172 4750 
Q 1603 4750 1870 4544 
Q 2138 4338 2138 4013 
Q 2138 3631 1531 3088 
L 1472 3034 
L 728 2363 
L 1931 2363 
L 1931 2700 
L 2163 2700 
L 2163 2088 
L 281 2088 
L 281 2322 
L 1172 3116 
Q 1441 3356 1556 3547 
Q 1672 3738 1672 3944 
Q 1672 4209 1520 4364 
Q 1369 4519 1106 4519 
Q 863 4519 716 4400 
Q 569 4281 531 4050 
z
" transform="scale(0.015625)"/>
      <path id="DejaVuSerif-3d" d="M 678 2894 
L 4684 2894 
L 4684 2394 
L 678 2394 
L 678 2894 
z
M 678 1619 
L 4684 1619 
L 4684 1119 
L 678 1119 
L 678 1619 
z
" transform="scale(0.015625)"/>
      <path id="DejaVuSerif-2d" d="M 281 1959 
L 1881 1959 
L 1881 1472 
L 281 1472 
L 281 1959 
z
" transform="scale(0.015625)"/>
     </defs>
     <use xlink:href="#DejaVuSerif-52"/>
     <use xlink:href="#DejaVuSerif-b2" transform="translate(75.292969 0)"/>
     <use xlink:href="#DejaVuSerif-20" transform="translate(115.380859 0)"/>
     <use xlink:href="#DejaVuSerif-3d" transform="translate(147.167969 0)"/>
     <use xlink:href="#DejaVuSerif-20" transform="translate(230.957031 0)"/>
     <use xlink:href="#DejaVuSerif-2d" transform="translate(262.744141 0)"/>
     <use xlink:href="#DejaVuSerif-32" transform="translate(296.533203 0)"/>
     <use xlink:href="#DejaVuSerif-2e" transform="translate(360.15625 0)"/>
     <use xlink:href="#DejaVuSerif-37" transform="translate(391.943359 0)"/>
     <use xlink:href="#DejaVuSerif-34" transform="translate(455.566406 0)"/>
     <use xlink:href="#DejaVuSerif-34" transform="translate(519.189453 0)"/>
    </g>
    <!-- RMSE = 6.33E+00 -->
    <g transform="translate(250.322892 40.463375) scale(0.07 -0.07)">
     <defs>
      <path id="DejaVuSerif-2b" d="M 2931 4013 
L 2931 2259 
L 4684 2259 
L 4684 1753 
L 2931 1753 
L 2931 0 
L 2431 0 
L 2431 1753 
L 678 1753 
L 678 2259 
L 2431 2259 
L 2431 4013 
L 2931 4013 
z
" transform="scale(0.015625)"/>
     </defs>
     <use xlink:href="#DejaVuSerif-52"/>
     <use xlink:href="#DejaVuSerif-4d" transform="translate(75.292969 0)"/>
     <use xlink:href="#DejaVuSerif-53" transform="translate(177.685547 0)"/>
     <use xlink:href="#DejaVuSerif-45" transform="translate(246.191406 0)"/>
     <use xlink:href="#DejaVuSerif-20" transform="translate(319.189453 0)"/>
     <use xlink:href="#DejaVuSerif-3d" transform="translate(350.976562 0)"/>
     <use xlink:href="#DejaVuSerif-20" transform="translate(434.765625 0)"/>
     <use xlink:href="#DejaVuSerif-36" transform="translate(466.552734 0)"/>
     <use xlink:href="#DejaVuSerif-2e" transform="translate(530.175781 0)"/>
     <use xlink:href="#DejaVuSerif-33" transform="translate(561.962891 0)"/>
     <use xlink:href="#DejaVuSerif-33" transform="translate(625.585938 0)"/>
     <use xlink:href="#DejaVuSerif-45" transform="translate(689.208984 0)"/>
     <use xlink:href="#DejaVuSerif-2b" transform="translate(762.207031 0)"/>
     <use xlink:href="#DejaVuSerif-30" transform="translate(845.996094 0)"/>
     <use xlink:href="#DejaVuSerif-30" transform="translate(909.619141 0)"/>
    </g>
   </g>
   <g id="legend_2">
    <g id="line2d_54">
     <path d="M 281.36182 13.67875 
L 289.36182 13.67875 
L 297.36182 13.67875 
" style="fill: none; stroke: #43aaff; stroke-width: 0.66; stroke-linecap: square"/>
    </g>
    <g id="text_35">
     <!-- Treino -->
     <g transform="translate(303.76182 16.47875) scale(0.08 -0.08)">
      <defs>
       <path id="DejaVuSerif-54" d="M 1222 0 
L 1222 331 
L 1819 331 
L 1819 4294 
L 447 4294 
L 447 3566 
L 63 3566 
L 63 4666 
L 4206 4666 
L 4206 3566 
L 3822 3566 
L 3822 4294 
L 2450 4294 
L 2450 331 
L 3047 331 
L 3047 0 
L 1222 0 
z
" transform="scale(0.015625)"/>
       <path id="DejaVuSerif-6e" d="M 263 0 
L 263 331 
L 781 331 
L 781 2988 
L 231 2988 
L 231 3322 
L 1356 3322 
L 1356 2731 
Q 1516 3069 1770 3241 
Q 2025 3413 2363 3413 
Q 2913 3413 3172 3097 
Q 3431 2781 3431 2113 
L 3431 331 
L 3944 331 
L 3944 0 
L 2356 0 
L 2356 331 
L 2853 331 
L 2853 1931 
Q 2853 2541 2703 2767 
Q 2553 2994 2175 2994 
Q 1775 2994 1565 2701 
Q 1356 2409 1356 1850 
L 1356 331 
L 1856 331 
L 1856 0 
L 263 0 
z
" transform="scale(0.015625)"/>
      </defs>
      <use xlink:href="#DejaVuSerif-54"/>
      <use xlink:href="#DejaVuSerif-72" transform="translate(66.699219 0)"/>
      <use xlink:href="#DejaVuSerif-65" transform="translate(114.501953 0)"/>
      <use xlink:href="#DejaVuSerif-69" transform="translate(173.681641 0)"/>
      <use xlink:href="#DejaVuSerif-6e" transform="translate(205.664062 0)"/>
      <use xlink:href="#DejaVuSerif-6f" transform="translate(270.068359 0)"/>
     </g>
    </g>
    <g id="line2d_55">
     <path d="M 346.18432 13.67875 
L 354.18432 13.67875 
L 362.18432 13.67875 
" style="fill: none; stroke-dasharray: 2.442,1.056; stroke-dashoffset: 0; stroke: #969696; stroke-width: 0.66"/>
    </g>
    <g id="text_36">
     <!-- Real -->
     <g transform="translate(368.58432 16.47875) scale(0.08 -0.08)">
      <use xlink:href="#DejaVuSerif-52"/>
      <use xlink:href="#DejaVuSerif-65" transform="translate(75.292969 0)"/>
      <use xlink:href="#DejaVuSerif-61" transform="translate(134.472656 0)"/>
      <use xlink:href="#DejaVuSerif-6c" transform="translate(194.091797 0)"/>
     </g>
    </g>
    <g id="line2d_56">
     <path d="M 402.67182 13.67875 
L 410.67182 13.67875 
L 418.67182 13.67875 
" style="fill: none; stroke: #ff5b5b; stroke-width: 0.66; stroke-linecap: square"/>
    </g>
    <g id="text_37">
     <!-- Previsto -->
     <g transform="translate(425.07182 16.47875) scale(0.08 -0.08)">
      <use xlink:href="#DejaVuSerif-50"/>
      <use xlink:href="#DejaVuSerif-72" transform="translate(67.285156 0)"/>
      <use xlink:href="#DejaVuSerif-65" transform="translate(115.087891 0)"/>
      <use xlink:href="#DejaVuSerif-76" transform="translate(174.267578 0)"/>
      <use xlink:href="#DejaVuSerif-69" transform="translate(230.761719 0)"/>
      <use xlink:href="#DejaVuSerif-73" transform="translate(262.744141 0)"/>
      <use xlink:href="#DejaVuSerif-74" transform="translate(314.0625 0)"/>
      <use xlink:href="#DejaVuSerif-6f" transform="translate(354.248047 0)"/>
     </g>
    </g>
   </g>
  </g>
 </g>
 <defs>
  <clipPath id="p8baf57b07d">
   <rect x="59.025" y="21.2795" width="124.450055" height="120.53"/>
  </clipPath>
  <clipPath id="pf076415969">
   <rect x="245.34489" y="21.2795" width="248.90011" height="120.53"/>
  </clipPath>
 </defs>
</svg>
