<?xml version="1.0" encoding="utf-8" standalone="no"?>
<!DOCTYPE svg PUBLIC "-//W3C//DTD SVG 1.1//EN"
  "http://www.w3.org/Graphics/SVG/1.1/DTD/svg11.dtd">
<svg xmlns:xlink="http://www.w3.org/1999/xlink" width="429.55875pt" height="305.245pt" viewBox="0 0 429.55875 305.245" xmlns="http://www.w3.org/2000/svg" version="1.1">
 <metadata>
  <rdf:RDF xmlns:dc="http://purl.org/dc/elements/1.1/" xmlns:cc="http://creativecommons.org/ns#" xmlns:rdf="http://www.w3.org/1999/02/22-rdf-syntax-ns#">
   <cc:Work>
    <dc:type rdf:resource="http://purl.org/dc/dcmitype/StillImage"/>
    <dc:date>2025-06-30T00:11:22.088260</dc:date>
    <dc:format>image/svg+xml</dc:format>
    <dc:creator>
     <cc:Agent>
      <dc:title>Matplotlib v3.10.3, https://matplotlib.org/</dc:title>
     </cc:Agent>
    </dc:creator>
   </cc:Work>
  </rdf:RDF>
 </metadata>
 <defs>
  <style type="text/css">*{stroke-linejoin: round; stroke-linecap: butt}</style>
 </defs>
 <g id="figure_1">
  <g id="patch_1">
   <path d="M 0 305.245 
L 429.55875 305.245 
L 429.55875 0 
L 0 0 
z
" style="fill: #ffffff"/>
  </g>
  <g id="axes_1">
   <g id="patch_2">
    <path d="M 45.36875 76.74236 
L 422.35875 76.74236 
L 422.35875 26.588874 
L 45.36875 26.588874 
z
" style="fill: #ffffff"/>
   </g>
   <g id="matplotlib.axis_1">
    <g id="xtick_1">
     <g id="line2d_1">
      <path d="M 61.389645 76.74236 
L 61.389645 26.588874 
" clip-path="url(#p1f28cee1e4)" style="fill: none; stroke-dasharray: 2.96,1.28; stroke-dashoffset: 0; stroke: #b0b0b0; stroke-opacity: 0.5; stroke-width: 0.8"/>
     </g>
     <g id="line2d_2">
      <defs>
       <path id="ma2d1efb354" d="M 0 0 
L 0 3.5 
" style="stroke: #000000; stroke-width: 0.8"/>
      </defs>
      <g>
       <use xlink:href="#ma2d1efb354" x="61.389645" y="76.74236" style="stroke: #000000; stroke-width: 0.8"/>
      </g>
     </g>
    </g>
    <g id="xtick_2">
     <g id="line2d_3">
      <path d="M 115.690834 76.74236 
L 115.690834 26.588874 
" clip-path="url(#p1f28cee1e4)" style="fill: none; stroke-dasharray: 2.96,1.28; stroke-dashoffset: 0; stroke: #b0b0b0; stroke-opacity: 0.5; stroke-width: 0.8"/>
     </g>
     <g id="line2d_4">
      <g>
       <use xlink:href="#ma2d1efb354" x="115.690834" y="76.74236" style="stroke: #000000; stroke-width: 0.8"/>
      </g>
     </g>
    </g>
    <g id="xtick_3">
     <g id="line2d_5">
      <path d="M 169.992023 76.74236 
L 169.992023 26.588874 
" clip-path="url(#p1f28cee1e4)" style="fill: none; stroke-dasharray: 2.96,1.28; stroke-dashoffset: 0; stroke: #b0b0b0; stroke-opacity: 0.5; stroke-width: 0.8"/>
     </g>
     <g id="line2d_6">
      <g>
       <use xlink:href="#ma2d1efb354" x="169.992023" y="76.74236" style="stroke: #000000; stroke-width: 0.8"/>
      </g>
     </g>
    </g>
    <g id="xtick_4">
     <g id="line2d_7">
      <path d="M 224.293212 76.74236 
L 224.293212 26.588874 
" clip-path="url(#p1f28cee1e4)" style="fill: none; stroke-dasharray: 2.96,1.28; stroke-dashoffset: 0; stroke: #b0b0b0; stroke-opacity: 0.5; stroke-width: 0.8"/>
     </g>
     <g id="line2d_8">
      <g>
       <use xlink:href="#ma2d1efb354" x="224.293212" y="76.74236" style="stroke: #000000; stroke-width: 0.8"/>
      </g>
     </g>
    </g>
    <g id="xtick_5">
     <g id="line2d_9">
      <path d="M 278.594401 76.74236 
L 278.594401 26.588874 
" clip-path="url(#p1f28cee1e4)" style="fill: none; stroke-dasharray: 2.96,1.28; stroke-dashoffset: 0; stroke: #b0b0b0; stroke-opacity: 0.5; stroke-width: 0.8"/>
     </g>
     <g id="line2d_10">
      <g>
       <use xlink:href="#ma2d1efb354" x="278.594401" y="76.74236" style="stroke: #000000; stroke-width: 0.8"/>
      </g>
     </g>
    </g>
    <g id="xtick_6">
     <g id="line2d_11">
      <path d="M 332.89559 76.74236 
L 332.89559 26.588874 
" clip-path="url(#p1f28cee1e4)" style="fill: none; stroke-dasharray: 2.96,1.28; stroke-dashoffset: 0; stroke: #b0b0b0; stroke-opacity: 0.5; stroke-width: 0.8"/>
     </g>
     <g id="line2d_12">
      <g>
       <use xlink:href="#ma2d1efb354" x="332.89559" y="76.74236" style="stroke: #000000; stroke-width: 0.8"/>
      </g>
     </g>
    </g>
    <g id="xtick_7">
     <g id="line2d_13">
      <path d="M 387.196779 76.74236 
L 387.196779 26.588874 
" clip-path="url(#p1f28cee1e4)" style="fill: none; stroke-dasharray: 2.96,1.28; stroke-dashoffset: 0; stroke: #b0b0b0; stroke-opacity: 0.5; stroke-width: 0.8"/>
     </g>
     <g id="line2d_14">
      <g>
       <use xlink:href="#ma2d1efb354" x="387.196779" y="76.74236" style="stroke: #000000; stroke-width: 0.8"/>
      </g>
     </g>
    </g>
   </g>
   <g id="matplotlib.axis_2">
    <g id="ytick_1">
     <g id="line2d_15">
      <path d="M 45.36875 75.2748 
L 422.35875 75.2748 
" clip-path="url(#p1f28cee1e4)" style="fill: none; stroke-dasharray: 2.96,1.28; stroke-dashoffset: 0; stroke: #b0b0b0; stroke-opacity: 0.5; stroke-width: 0.8"/>
     </g>
     <g id="line2d_16">
      <defs>
       <path id="m24baddd90c" d="M 0 0 
L -3.5 0 
" style="stroke: #000000; stroke-width: 0.8"/>
      </defs>
      <g>
       <use xlink:href="#m24baddd90c" x="45.36875" y="75.2748" style="stroke: #000000; stroke-width: 0.8"/>
      </g>
     </g>
     <g id="text_1">
      <!-- −2 -->
      <g transform="translate(26.575 78.314175) scale(0.08 -0.08)">
       <defs>
        <path id="DejaVuSerif-2212" d="M 678 2259 
L 4684 2259 
L 4684 1753 
L 678 1753 
L 678 2259 
z
" transform="scale(0.015625)"/>
        <path id="DejaVuSerif-32" d="M 819 3553 
L 469 3553 
L 469 4384 
Q 803 4563 1142 4656 
Q 1481 4750 1806 4750 
Q 2534 4750 2956 4397 
Q 3378 4044 3378 3438 
Q 3378 2753 2422 1800 
Q 2347 1728 2309 1691 
L 1131 513 
L 3078 513 
L 3078 1088 
L 3444 1088 
L 3444 0 
L 434 0 
L 434 341 
L 1850 1753 
Q 2319 2222 2519 2614 
Q 2719 3006 2719 3438 
Q 2719 3909 2473 4175 
Q 2228 4441 1797 4441 
Q 1350 4441 1106 4219 
Q 863 3997 819 3553 
z
" transform="scale(0.015625)"/>
       </defs>
       <use xlink:href="#DejaVuSerif-2212"/>
       <use xlink:href="#DejaVuSerif-32" transform="translate(83.789062 0)"/>
      </g>
     </g>
    </g>
    <g id="ytick_2">
     <g id="line2d_17">
      <path d="M 45.36875 52.248454 
L 422.35875 52.248454 
" clip-path="url(#p1f28cee1e4)" style="fill: none; stroke-dasharray: 2.96,1.28; stroke-dashoffset: 0; stroke: #b0b0b0; stroke-opacity: 0.5; stroke-width: 0.8"/>
     </g>
     <g id="line2d_18">
      <g>
       <use xlink:href="#m24baddd90c" x="45.36875" y="52.248454" style="stroke: #000000; stroke-width: 0.8"/>
      </g>
     </g>
     <g id="text_2">
      <!-- 0 -->
      <g transform="translate(33.27875 55.287829) scale(0.08 -0.08)">
       <defs>
        <path id="DejaVuSerif-30" d="M 2034 219 
Q 2513 219 2750 744 
Q 2988 1269 2988 2328 
Q 2988 3391 2750 3916 
Q 2513 4441 2034 4441 
Q 1556 4441 1318 3916 
Q 1081 3391 1081 2328 
Q 1081 1269 1318 744 
Q 1556 219 2034 219 
z
M 2034 -91 
Q 1275 -91 848 546 
Q 422 1184 422 2328 
Q 422 3475 848 4112 
Q 1275 4750 2034 4750 
Q 2797 4750 3222 4112 
Q 3647 3475 3647 2328 
Q 3647 1184 3222 546 
Q 2797 -91 2034 -91 
z
" transform="scale(0.015625)"/>
       </defs>
       <use xlink:href="#DejaVuSerif-30"/>
      </g>
     </g>
    </g>
    <g id="ytick_3">
     <g id="line2d_19">
      <path d="M 45.36875 29.222108 
L 422.35875 29.222108 
" clip-path="url(#p1f28cee1e4)" style="fill: none; stroke-dasharray: 2.96,1.28; stroke-dashoffset: 0; stroke: #b0b0b0; stroke-opacity: 0.5; stroke-width: 0.8"/>
     </g>
     <g id="line2d_20">
      <g>
       <use xlink:href="#m24baddd90c" x="45.36875" y="29.222108" style="stroke: #000000; stroke-width: 0.8"/>
      </g>
     </g>
     <g id="text_3">
      <!-- 2 -->
      <g transform="translate(33.27875 32.261483) scale(0.08 -0.08)">
       <use xlink:href="#DejaVuSerif-32"/>
      </g>
     </g>
    </g>
    <g id="text_4">
     <!-- Observado -->
     <g transform="translate(20.91125 73.451242) rotate(-90) scale(0.08 -0.08)">
      <defs>
       <path id="DejaVuSerif-4f" d="M 2625 244 
Q 3391 244 3781 770 
Q 4172 1297 4172 2328 
Q 4172 3363 3781 3889 
Q 3391 4416 2625 4416 
Q 1856 4416 1465 3889 
Q 1075 3363 1075 2328 
Q 1075 1297 1465 770 
Q 1856 244 2625 244 
z
M 2625 -91 
Q 2150 -91 1751 65 
Q 1353 222 1050 525 
Q 700 875 529 1319 
Q 359 1763 359 2328 
Q 359 2894 529 3339 
Q 700 3784 1050 4134 
Q 1356 4441 1750 4595 
Q 2144 4750 2625 4750 
Q 3641 4750 4266 4084 
Q 4891 3419 4891 2328 
Q 4891 1769 4719 1320 
Q 4547 872 4197 525 
Q 3891 219 3497 64 
Q 3103 -91 2625 -91 
z
" transform="scale(0.015625)"/>
       <path id="DejaVuSerif-62" d="M 738 331 
L 738 4531 
L 184 4531 
L 184 4863 
L 1313 4863 
L 1313 2803 
Q 1481 3116 1742 3264 
Q 2003 3413 2388 3413 
Q 3000 3413 3387 2928 
Q 3775 2444 3775 1663 
Q 3775 881 3387 395 
Q 3000 -91 2388 -91 
Q 2003 -91 1742 57 
Q 1481 206 1313 519 
L 1313 0 
L 184 0 
L 184 331 
L 738 331 
z
M 1313 1497 
Q 1313 897 1542 583 
Q 1772 269 2209 269 
Q 2650 269 2876 622 
Q 3103 975 3103 1663 
Q 3103 2353 2876 2703 
Q 2650 3053 2209 3053 
Q 1772 3053 1542 2737 
Q 1313 2422 1313 1825 
L 1313 1497 
z
" transform="scale(0.015625)"/>
       <path id="DejaVuSerif-73" d="M 359 184 
L 359 959 
L 691 959 
Q 703 588 923 403 
Q 1144 219 1575 219 
Q 1963 219 2166 364 
Q 2369 509 2369 788 
Q 2369 1006 2220 1140 
Q 2072 1275 1594 1428 
L 1178 1569 
Q 750 1706 558 1912 
Q 366 2119 366 2438 
Q 366 2894 700 3153 
Q 1034 3413 1625 3413 
Q 1888 3413 2178 3344 
Q 2469 3275 2778 3144 
L 2778 2419 
L 2447 2419 
Q 2434 2741 2221 2922 
Q 2009 3103 1644 3103 
Q 1281 3103 1095 2975 
Q 909 2847 909 2591 
Q 909 2381 1050 2254 
Q 1191 2128 1613 1997 
L 2069 1856 
Q 2541 1709 2748 1489 
Q 2956 1269 2956 922 
Q 2956 450 2595 179 
Q 2234 -91 1600 -91 
Q 1278 -91 972 -22 
Q 666 47 359 184 
z
" transform="scale(0.015625)"/>
       <path id="DejaVuSerif-65" d="M 3469 1600 
L 991 1600 
L 991 1575 
Q 991 903 1244 561 
Q 1497 219 1991 219 
Q 2369 219 2611 417 
Q 2853 616 2950 1006 
L 3413 1006 
Q 3275 459 2904 184 
Q 2534 -91 1931 -91 
Q 1203 -91 761 389 
Q 319 869 319 1663 
Q 319 2450 753 2931 
Q 1188 3413 1894 3413 
Q 2647 3413 3050 2948 
Q 3453 2484 3469 1600 
z
M 2791 1931 
Q 2772 2513 2545 2808 
Q 2319 3103 1894 3103 
Q 1497 3103 1269 2806 
Q 1041 2509 991 1931 
L 2791 1931 
z
" transform="scale(0.015625)"/>
       <path id="DejaVuSerif-72" d="M 3059 3328 
L 3059 2497 
L 2728 2497 
Q 2713 2744 2591 2866 
Q 2469 2988 2234 2988 
Q 1809 2988 1582 2694 
Q 1356 2400 1356 1850 
L 1356 331 
L 2022 331 
L 2022 0 
L 263 0 
L 263 331 
L 781 331 
L 781 2994 
L 231 2994 
L 231 3322 
L 1356 3322 
L 1356 2731 
Q 1525 3078 1790 3245 
Q 2056 3413 2438 3413 
Q 2578 3413 2733 3391 
Q 2888 3369 3059 3328 
z
" transform="scale(0.015625)"/>
       <path id="DejaVuSerif-76" d="M 1581 0 
L 359 2988 
L -19 2988 
L -19 3322 
L 1509 3322 
L 1509 2988 
L 978 2988 
L 1913 703 
L 2847 2988 
L 2350 2988 
L 2350 3322 
L 3597 3322 
L 3597 2988 
L 3225 2988 
L 2003 0 
L 1581 0 
z
" transform="scale(0.015625)"/>
       <path id="DejaVuSerif-61" d="M 2547 1044 
L 2547 1747 
L 1806 1747 
Q 1378 1747 1168 1562 
Q 959 1378 959 997 
Q 959 650 1171 447 
Q 1384 244 1747 244 
Q 2106 244 2326 466 
Q 2547 688 2547 1044 
z
M 3122 2075 
L 3122 331 
L 3634 331 
L 3634 0 
L 2547 0 
L 2547 359 
Q 2356 128 2106 18 
Q 1856 -91 1522 -91 
Q 969 -91 644 203 
Q 319 497 319 997 
Q 319 1513 691 1797 
Q 1063 2081 1741 2081 
L 2547 2081 
L 2547 2309 
Q 2547 2688 2317 2895 
Q 2088 3103 1672 3103 
Q 1328 3103 1125 2947 
Q 922 2791 872 2484 
L 575 2484 
L 575 3156 
Q 875 3284 1158 3348 
Q 1441 3413 1709 3413 
Q 2400 3413 2761 3070 
Q 3122 2728 3122 2075 
z
" transform="scale(0.015625)"/>
       <path id="DejaVuSerif-64" d="M 3359 331 
L 3909 331 
L 3909 0 
L 2784 0 
L 2784 519 
Q 2616 206 2355 57 
Q 2094 -91 1709 -91 
Q 1097 -91 708 395 
Q 319 881 319 1663 
Q 319 2444 706 2928 
Q 1094 3413 1709 3413 
Q 2094 3413 2355 3264 
Q 2616 3116 2784 2803 
L 2784 4531 
L 2241 4531 
L 2241 4863 
L 3359 4863 
L 3359 331 
z
M 2784 1497 
L 2784 1825 
Q 2784 2422 2554 2737 
Q 2325 3053 1888 3053 
Q 1444 3053 1217 2703 
Q 991 2353 991 1663 
Q 991 975 1217 622 
Q 1444 269 1888 269 
Q 2325 269 2554 583 
Q 2784 897 2784 1497 
z
" transform="scale(0.015625)"/>
       <path id="DejaVuSerif-6f" d="M 1925 219 
Q 2388 219 2623 584 
Q 2859 950 2859 1663 
Q 2859 2375 2623 2739 
Q 2388 3103 1925 3103 
Q 1463 3103 1227 2739 
Q 991 2375 991 1663 
Q 991 950 1228 584 
Q 1466 219 1925 219 
z
M 1925 -91 
Q 1200 -91 759 389 
Q 319 869 319 1663 
Q 319 2456 758 2934 
Q 1197 3413 1925 3413 
Q 2653 3413 3092 2934 
Q 3531 2456 3531 1663 
Q 3531 869 3092 389 
Q 2653 -91 1925 -91 
z
" transform="scale(0.015625)"/>
      </defs>
      <use xlink:href="#DejaVuSerif-4f"/>
      <use xlink:href="#DejaVuSerif-62" transform="translate(81.982422 0)"/>
      <use xlink:href="#DejaVuSerif-73" transform="translate(145.996094 0)"/>
      <use xlink:href="#DejaVuSerif-65" transform="translate(197.314453 0)"/>
      <use xlink:href="#DejaVuSerif-72" transform="translate(256.494141 0)"/>
      <use xlink:href="#DejaVuSerif-76" transform="translate(304.296875 0)"/>
      <use xlink:href="#DejaVuSerif-61" transform="translate(360.791016 0)"/>
      <use xlink:href="#DejaVuSerif-64" transform="translate(420.410156 0)"/>
      <use xlink:href="#DejaVuSerif-6f" transform="translate(484.423828 0)"/>
     </g>
    </g>
   </g>
   <g id="line2d_21">
    <path d="M 62.504659 48.477341 
L 63.582506 39.324716 
L 64.734687 37.335735 
L 65.849702 38.057111 
L 67.001883 48.206424 
L 68.116897 55.06223 
L 69.269078 63.167463 
L 70.42126 66.360538 
L 71.536274 68.084638 
L 72.688455 66.07096 
L 73.803469 63.82428 
L 74.95565 57.32143 
L 77.148512 40.681191 
L 78.300693 33.806217 
L 79.415707 36.081675 
L 80.567888 48.434554 
L 81.682902 56.757487 
L 83.987265 67.051862 
L 85.102279 69.618789 
L 86.25446 69.411859 
L 87.369475 64.689701 
L 88.521656 57.382811 
L 89.673837 49.337008 
L 90.714517 39.739119 
L 91.866698 33.09384 
L 92.981712 36.60633 
L 94.133894 46.138466 
L 95.248908 53.834632 
L 96.401089 62.674138 
L 97.55327 67.915813 
L 98.668285 66.968946 
L 99.820466 63.272808 
L 100.93548 56.186324 
L 102.087661 50.814822 
L 103.239843 47.441259 
L 104.280522 40.532764 
L 105.432704 38.759321 
L 107.699899 55.188969 
L 108.814913 58.937003 
L 109.967095 62.032998 
L 111.119276 66.338119 
L 112.23429 68.729713 
L 113.386471 64.494013 
L 114.501486 59.353241 
L 117.883695 39.30279 
L 119.035876 38.825222 
L 120.150891 43.05439 
L 121.303072 53.88954 
L 122.418086 57.758576 
L 123.570267 62.546517 
L 124.722449 68.90994 
L 125.837463 67.553405 
L 126.989644 64.278298 
L 128.104658 59.045926 
L 129.256839 52.589888 
L 130.409021 44.80313 
L 131.449701 40.776426 
L 132.601882 41.42516 
L 133.716896 44.847991 
L 134.869077 46.451992 
L 137.136273 61.363601 
L 138.288454 64.965889 
L 139.403468 69.717871 
L 140.555649 69.922392 
L 141.670664 64.834316 
L 142.822845 56.905124 
L 145.015706 37.436937 
L 146.167887 35.771085 
L 147.282901 47.925696 
L 148.435083 49.806806 
L 149.550097 52.907261 
L 150.702278 56.988728 
L 151.854459 60.084167 
L 152.969474 60.119084 
L 154.121655 58.286108 
L 155.236669 54.945145 
L 156.38885 49.680817 
L 158.581711 37.89249 
L 159.733893 39.117829 
L 160.848907 45.871567 
L 162.001088 54.947213 
L 164.268284 65.548166 
L 165.420465 73.011451 
L 166.535479 74.462656 
L 167.68766 73.648377 
L 168.802674 69.338661 
L 169.954856 62.941685 
L 171.107037 49.292422 
L 172.184884 38.822558 
L 173.337065 33.71768 
L 174.45208 37.46477 
L 175.604261 44.993327 
L 176.719275 49.750283 
L 177.871456 53.5258 
L 179.023638 58.163566 
L 180.138652 60.51573 
L 181.290833 62.02009 
L 182.405847 60.685382 
L 183.558028 55.124906 
L 184.71021 45.74354 
L 185.75089 38.291558 
L 186.903071 35.513618 
L 188.018085 38.916406 
L 192.589643 59.855009 
L 193.704657 62.610319 
L 194.856838 62.769274 
L 195.971853 58.73041 
L 198.276215 44.710479 
L 199.316895 39.551971 
L 200.469076 37.726799 
L 201.58409 39.61397 
L 202.736272 47.262224 
L 203.851286 55.535438 
L 205.003467 67.827061 
L 206.155648 69.887566 
L 207.270663 72.215294 
L 208.422844 71.967978 
L 209.537858 66.94484 
L 210.690039 58.854166 
L 212.8829 37.259043 
L 214.035082 35.996753 
L 215.150096 36.568812 
L 216.302277 44.009463 
L 219.721654 62.37623 
L 220.836668 67.374791 
L 221.988849 65.542294 
L 223.103863 62.613665 
L 224.256045 55.896615 
L 226.486073 36.912396 
L 227.638254 33.71177 
L 228.753268 35.269731 
L 229.90545 40.568488 
L 231.020464 46.690563 
L 232.172645 55.833746 
L 233.324826 62.704921 
L 234.439841 64.016167 
L 235.592022 63.933447 
L 236.707036 60.440445 
L 237.859217 55.923834 
L 240.052079 38.008105 
L 241.20426 35.74333 
L 242.319274 44.869256 
L 244.586469 59.207704 
L 245.738651 64.446905 
L 246.890832 68.788279 
L 248.005846 69.34268 
L 249.158027 67.223995 
L 250.273042 62.84481 
L 252.577404 44.929664 
L 253.618084 40.952835 
L 254.770265 37.804726 
L 255.885279 41.503147 
L 257.037461 42.337675 
L 258.152475 47.27012 
L 259.304656 53.533468 
L 260.456837 59.076629 
L 261.571852 63.616173 
L 262.724033 60.645344 
L 263.839047 55.819505 
L 264.991228 52.930439 
L 266.14341 47.678885 
L 267.184089 40.19395 
L 268.336271 35.261417 
L 269.451285 34.272148 
L 270.603466 36.941575 
L 271.71848 41.91064 
L 272.870662 47.925034 
L 274.022843 54.803853 
L 275.137857 54.694902 
L 277.405052 50.786754 
L 278.557234 44.682113 
L 279.709415 41.235763 
L 280.787262 35.655527 
L 281.939443 31.975236 
L 284.206639 45.594014 
L 286.473834 57.83556 
L 287.626015 62.324281 
L 288.74103 64.816983 
L 291.008225 60.347319 
L 292.160406 53.63907 
L 293.312588 41.047005 
L 294.353268 32.150859 
L 295.505449 28.868578 
L 296.620463 35.182488 
L 297.772644 43.855469 
L 298.887658 53.462937 
L 301.192021 65.908626 
L 302.307035 69.691423 
L 303.459216 68.957306 
L 304.574231 65.297821 
L 305.726412 59.621406 
L 307.919273 40.20449 
L 309.071454 38.932035 
L 310.186468 44.830407 
L 311.33865 48.306362 
L 312.453664 55.899332 
L 313.605845 59.445524 
L 314.758026 64.314096 
L 315.873041 66.330528 
L 318.140236 57.111558 
L 319.292417 51.888864 
L 320.444599 44.58546 
L 321.485278 35.835467 
L 322.63746 33.347674 
L 323.752474 37.835162 
L 324.904655 45.160417 
L 327.171851 61.054617 
L 328.324032 68.063068 
L 329.439046 70.058905 
L 330.591227 67.721833 
L 331.706241 62.250817 
L 334.010604 45.304569 
L 335.088451 38.474741 
L 336.240632 33.62648 
L 337.355646 37.242157 
L 338.507828 46.475925 
L 339.622842 56.957374 
L 340.775023 65.098412 
L 341.927204 69.296711 
L 343.042219 71.024266 
L 344.1944 68.167902 
L 345.309414 63.827194 
L 346.461595 57.344249 
L 347.613777 47.361546 
L 348.654456 40.01495 
L 349.806638 35.432003 
L 350.921652 43.607573 
L 352.073833 49.201746 
L 353.188847 52.029592 
L 354.341029 56.389692 
L 355.49321 62.452645 
L 356.608224 65.268129 
L 357.760405 66.427904 
L 358.87542 64.666272 
L 360.027601 61.14576 
L 361.179782 51.236635 
L 363.372643 36.202621 
L 364.487657 46.536236 
L 365.639839 54.249157 
L 366.754853 58.14732 
L 367.907034 63.479117 
L 370.17423 70.893215 
L 371.326411 72.235134 
L 372.441425 67.351246 
L 374.745788 45.663867 
L 375.786467 34.119664 
L 376.938649 31.115709 
L 378.053663 29.465467 
L 379.205844 35.614313 
L 380.320858 39.838011 
L 381.47304 43.080396 
L 382.625221 47.255187 
L 383.740235 50.792296 
L 384.892416 50.193278 
L 386.00743 49.420591 
L 387.159612 47.599962 
L 388.311793 41.661154 
L 389.38964 33.930823 
L 390.541821 32.303369 
L 391.656835 38.52863 
L 392.809017 48.177439 
L 393.924031 55.373986 
L 395.076212 61.473261 
L 396.228393 66.252165 
L 397.343408 68.025745 
L 398.495589 65.455656 
L 399.610603 60.129198 
L 400.762784 53.624552 
L 401.914966 45.833664 
L 402.955645 35.732506 
L 404.107827 29.964023 
L 405.222841 31.59025 
L 405.222841 31.59025 
" clip-path="url(#p1f28cee1e4)" style="fill: none; stroke: #4596f3; stroke-width: 0.5; stroke-linecap: square"/>
   </g>
   <g id="patch_3">
    <path d="M 45.36875 76.74236 
L 45.36875 26.588874 
" style="fill: none; stroke: #000000; stroke-width: 0.8; stroke-linejoin: miter; stroke-linecap: square"/>
   </g>
   <g id="patch_4">
    <path d="M 45.36875 76.74236 
L 422.35875 76.74236 
" style="fill: none; stroke: #000000; stroke-width: 0.8; stroke-linejoin: miter; stroke-linecap: square"/>
   </g>
  </g>
  <g id="axes_2">
   <g id="patch_5">
    <path d="M 45.36875 141.681573 
L 422.35875 141.681573 
L 422.35875 91.528088 
L 45.36875 91.528088 
z
" style="fill: #ffffff"/>
   </g>
   <g id="matplotlib.axis_3">
    <g id="xtick_8">
     <g id="line2d_22">
      <path d="M 61.389645 141.681573 
L 61.389645 91.528088 
" clip-path="url(#p4bf0f9849d)" style="fill: none; stroke-dasharray: 2.96,1.28; stroke-dashoffset: 0; stroke: #b0b0b0; stroke-opacity: 0.5; stroke-width: 0.8"/>
     </g>
     <g id="line2d_23">
      <g>
       <use xlink:href="#ma2d1efb354" x="61.389645" y="141.681573" style="stroke: #000000; stroke-width: 0.8"/>
      </g>
     </g>
    </g>
    <g id="xtick_9">
     <g id="line2d_24">
      <path d="M 115.690834 141.681573 
L 115.690834 91.528088 
" clip-path="url(#p4bf0f9849d)" style="fill: none; stroke-dasharray: 2.96,1.28; stroke-dashoffset: 0; stroke: #b0b0b0; stroke-opacity: 0.5; stroke-width: 0.8"/>
     </g>
     <g id="line2d_25">
      <g>
       <use xlink:href="#ma2d1efb354" x="115.690834" y="141.681573" style="stroke: #000000; stroke-width: 0.8"/>
      </g>
     </g>
    </g>
    <g id="xtick_10">
     <g id="line2d_26">
      <path d="M 169.992023 141.681573 
L 169.992023 91.528088 
" clip-path="url(#p4bf0f9849d)" style="fill: none; stroke-dasharray: 2.96,1.28; stroke-dashoffset: 0; stroke: #b0b0b0; stroke-opacity: 0.5; stroke-width: 0.8"/>
     </g>
     <g id="line2d_27">
      <g>
       <use xlink:href="#ma2d1efb354" x="169.992023" y="141.681573" style="stroke: #000000; stroke-width: 0.8"/>
      </g>
     </g>
    </g>
    <g id="xtick_11">
     <g id="line2d_28">
      <path d="M 224.293212 141.681573 
L 224.293212 91.528088 
" clip-path="url(#p4bf0f9849d)" style="fill: none; stroke-dasharray: 2.96,1.28; stroke-dashoffset: 0; stroke: #b0b0b0; stroke-opacity: 0.5; stroke-width: 0.8"/>
     </g>
     <g id="line2d_29">
      <g>
       <use xlink:href="#ma2d1efb354" x="224.293212" y="141.681573" style="stroke: #000000; stroke-width: 0.8"/>
      </g>
     </g>
    </g>
    <g id="xtick_12">
     <g id="line2d_30">
      <path d="M 278.594401 141.681573 
L 278.594401 91.528088 
" clip-path="url(#p4bf0f9849d)" style="fill: none; stroke-dasharray: 2.96,1.28; stroke-dashoffset: 0; stroke: #b0b0b0; stroke-opacity: 0.5; stroke-width: 0.8"/>
     </g>
     <g id="line2d_31">
      <g>
       <use xlink:href="#ma2d1efb354" x="278.594401" y="141.681573" style="stroke: #000000; stroke-width: 0.8"/>
      </g>
     </g>
    </g>
    <g id="xtick_13">
     <g id="line2d_32">
      <path d="M 332.89559 141.681573 
L 332.89559 91.528088 
" clip-path="url(#p4bf0f9849d)" style="fill: none; stroke-dasharray: 2.96,1.28; stroke-dashoffset: 0; stroke: #b0b0b0; stroke-opacity: 0.5; stroke-width: 0.8"/>
     </g>
     <g id="line2d_33">
      <g>
       <use xlink:href="#ma2d1efb354" x="332.89559" y="141.681573" style="stroke: #000000; stroke-width: 0.8"/>
      </g>
     </g>
    </g>
    <g id="xtick_14">
     <g id="line2d_34">
      <path d="M 387.196779 141.681573 
L 387.196779 91.528088 
" clip-path="url(#p4bf0f9849d)" style="fill: none; stroke-dasharray: 2.96,1.28; stroke-dashoffset: 0; stroke: #b0b0b0; stroke-opacity: 0.5; stroke-width: 0.8"/>
     </g>
     <g id="line2d_35">
      <g>
       <use xlink:href="#ma2d1efb354" x="387.196779" y="141.681573" style="stroke: #000000; stroke-width: 0.8"/>
      </g>
     </g>
    </g>
   </g>
   <g id="matplotlib.axis_4">
    <g id="ytick_4">
     <g id="line2d_36">
      <path d="M 45.36875 138.538055 
L 422.35875 138.538055 
" clip-path="url(#p4bf0f9849d)" style="fill: none; stroke-dasharray: 2.96,1.28; stroke-dashoffset: 0; stroke: #b0b0b0; stroke-opacity: 0.5; stroke-width: 0.8"/>
     </g>
     <g id="line2d_37">
      <g>
       <use xlink:href="#m24baddd90c" x="45.36875" y="138.538055" style="stroke: #000000; stroke-width: 0.8"/>
      </g>
     </g>
     <g id="text_5">
      <!-- −0.5 -->
      <g transform="translate(18.9425 141.57743) scale(0.08 -0.08)">
       <defs>
        <path id="DejaVuSerif-2e" d="M 603 325 
Q 603 500 722 622 
Q 841 744 1019 744 
Q 1191 744 1312 622 
Q 1434 500 1434 325 
Q 1434 153 1312 31 
Q 1191 -91 1019 -91 
Q 841 -91 722 29 
Q 603 150 603 325 
z
" transform="scale(0.015625)"/>
        <path id="DejaVuSerif-35" d="M 3219 4666 
L 3219 4153 
L 1081 4153 
L 1081 2816 
Q 1244 2928 1461 2984 
Q 1678 3041 1947 3041 
Q 2703 3041 3140 2622 
Q 3578 2203 3578 1478 
Q 3578 738 3136 323 
Q 2694 -91 1894 -91 
Q 1572 -91 1234 -12 
Q 897 66 544 225 
L 544 1131 
L 897 1131 
Q 925 688 1179 453 
Q 1434 219 1894 219 
Q 2388 219 2653 544 
Q 2919 869 2919 1478 
Q 2919 2084 2655 2407 
Q 2391 2731 1894 2731 
Q 1613 2731 1398 2631 
Q 1184 2531 1019 2322 
L 750 2322 
L 750 4666 
L 3219 4666 
z
" transform="scale(0.015625)"/>
       </defs>
       <use xlink:href="#DejaVuSerif-2212"/>
       <use xlink:href="#DejaVuSerif-30" transform="translate(83.789062 0)"/>
       <use xlink:href="#DejaVuSerif-2e" transform="translate(147.412109 0)"/>
       <use xlink:href="#DejaVuSerif-35" transform="translate(179.199219 0)"/>
      </g>
     </g>
    </g>
    <g id="ytick_5">
     <g id="line2d_38">
      <path d="M 45.36875 122.490837 
L 422.35875 122.490837 
" clip-path="url(#p4bf0f9849d)" style="fill: none; stroke-dasharray: 2.96,1.28; stroke-dashoffset: 0; stroke: #b0b0b0; stroke-opacity: 0.5; stroke-width: 0.8"/>
     </g>
     <g id="line2d_39">
      <g>
       <use xlink:href="#m24baddd90c" x="45.36875" y="122.490837" style="stroke: #000000; stroke-width: 0.8"/>
      </g>
     </g>
     <g id="text_6">
      <!-- 0.0 -->
      <g transform="translate(25.64625 125.530212) scale(0.08 -0.08)">
       <use xlink:href="#DejaVuSerif-30"/>
       <use xlink:href="#DejaVuSerif-2e" transform="translate(63.623047 0)"/>
       <use xlink:href="#DejaVuSerif-30" transform="translate(95.410156 0)"/>
      </g>
     </g>
    </g>
    <g id="ytick_6">
     <g id="line2d_40">
      <path d="M 45.36875 106.443619 
L 422.35875 106.443619 
" clip-path="url(#p4bf0f9849d)" style="fill: none; stroke-dasharray: 2.96,1.28; stroke-dashoffset: 0; stroke: #b0b0b0; stroke-opacity: 0.5; stroke-width: 0.8"/>
     </g>
     <g id="line2d_41">
      <g>
       <use xlink:href="#m24baddd90c" x="45.36875" y="106.443619" style="stroke: #000000; stroke-width: 0.8"/>
      </g>
     </g>
     <g id="text_7">
      <!-- 0.5 -->
      <g transform="translate(25.64625 109.482994) scale(0.08 -0.08)">
       <use xlink:href="#DejaVuSerif-30"/>
       <use xlink:href="#DejaVuSerif-2e" transform="translate(63.623047 0)"/>
       <use xlink:href="#DejaVuSerif-35" transform="translate(95.410156 0)"/>
      </g>
     </g>
    </g>
    <g id="text_8">
     <!-- Tendência -->
     <g transform="translate(13.27875 137.315456) rotate(-90) scale(0.08 -0.08)">
      <defs>
       <path id="DejaVuSerif-54" d="M 1222 0 
L 1222 331 
L 1819 331 
L 1819 4294 
L 447 4294 
L 447 3566 
L 63 3566 
L 63 4666 
L 4206 4666 
L 4206 3566 
L 3822 3566 
L 3822 4294 
L 2450 4294 
L 2450 331 
L 3047 331 
L 3047 0 
L 1222 0 
z
" transform="scale(0.015625)"/>
       <path id="DejaVuSerif-6e" d="M 263 0 
L 263 331 
L 781 331 
L 781 2988 
L 231 2988 
L 231 3322 
L 1356 3322 
L 1356 2731 
Q 1516 3069 1770 3241 
Q 2025 3413 2363 3413 
Q 2913 3413 3172 3097 
Q 3431 2781 3431 2113 
L 3431 331 
L 3944 331 
L 3944 0 
L 2356 0 
L 2356 331 
L 2853 331 
L 2853 1931 
Q 2853 2541 2703 2767 
Q 2553 2994 2175 2994 
Q 1775 2994 1565 2701 
Q 1356 2409 1356 1850 
L 1356 331 
L 1856 331 
L 1856 0 
L 263 0 
z
" transform="scale(0.015625)"/>
       <path id="DejaVuSerif-ea" d="M 3469 1600 
L 991 1600 
L 991 1575 
Q 991 903 1244 561 
Q 1497 219 1991 219 
Q 2369 219 2611 417 
Q 2853 616 2950 1006 
L 3413 1006 
Q 3275 459 2904 184 
Q 2534 -91 1931 -91 
Q 1203 -91 761 389 
Q 319 869 319 1663 
Q 319 2450 753 2931 
Q 1188 3413 1894 3413 
Q 2647 3413 3050 2948 
Q 3453 2484 3469 1600 
z
M 2791 1931 
Q 2772 2513 2545 2808 
Q 2319 3103 1894 3103 
Q 1497 3103 1269 2806 
Q 1041 2509 991 1931 
L 2791 1931 
z
M 1634 5119 
L 2159 5119 
L 2893 3944 
L 2530 3944 
L 1896 4756 
L 1262 3944 
L 899 3944 
L 1634 5119 
z
" transform="scale(0.015625)"/>
       <path id="DejaVuSerif-63" d="M 3291 997 
Q 3169 466 2822 187 
Q 2475 -91 1925 -91 
Q 1200 -91 759 389 
Q 319 869 319 1663 
Q 319 2459 759 2936 
Q 1200 3413 1925 3413 
Q 2241 3413 2553 3339 
Q 2866 3266 3181 3116 
L 3181 2266 
L 2847 2266 
Q 2781 2703 2561 2903 
Q 2341 3103 1931 3103 
Q 1466 3103 1228 2742 
Q 991 2381 991 1663 
Q 991 944 1227 581 
Q 1463 219 1931 219 
Q 2303 219 2525 412 
Q 2747 606 2828 997 
L 3291 997 
z
" transform="scale(0.015625)"/>
       <path id="DejaVuSerif-69" d="M 622 4353 
Q 622 4497 726 4603 
Q 831 4709 978 4709 
Q 1122 4709 1226 4603 
Q 1331 4497 1331 4353 
Q 1331 4206 1228 4103 
Q 1125 4000 978 4000 
Q 831 4000 726 4103 
Q 622 4206 622 4353 
z
M 1356 331 
L 1900 331 
L 1900 0 
L 231 0 
L 231 331 
L 781 331 
L 781 2988 
L 231 2988 
L 231 3322 
L 1356 3322 
L 1356 331 
z
" transform="scale(0.015625)"/>
      </defs>
      <use xlink:href="#DejaVuSerif-54"/>
      <use xlink:href="#DejaVuSerif-65" transform="translate(58.949219 0)"/>
      <use xlink:href="#DejaVuSerif-6e" transform="translate(118.128906 0)"/>
      <use xlink:href="#DejaVuSerif-64" transform="translate(182.533203 0)"/>
      <use xlink:href="#DejaVuSerif-ea" transform="translate(246.546875 0)"/>
      <use xlink:href="#DejaVuSerif-6e" transform="translate(305.726562 0)"/>
      <use xlink:href="#DejaVuSerif-63" transform="translate(370.130859 0)"/>
      <use xlink:href="#DejaVuSerif-69" transform="translate(426.136719 0)"/>
      <use xlink:href="#DejaVuSerif-61" transform="translate(458.119141 0)"/>
     </g>
    </g>
   </g>
   <g id="line2d_42">
    <path d="M 62.504659 127.766508 
L 70.42126 127.853429 
L 72.688455 127.704515 
L 74.95565 127.423738 
L 76.107832 127.429589 
L 78.300693 127.858521 
L 81.682902 128.855638 
L 82.835084 129.020514 
L 83.987265 129.032255 
L 86.25446 128.676321 
L 89.673837 127.791468 
L 90.714517 127.356726 
L 91.866698 126.725189 
L 94.133894 124.867222 
L 95.248908 123.953971 
L 96.401089 123.373537 
L 97.55327 123.339384 
L 98.668285 123.903929 
L 99.820466 124.923182 
L 102.087661 127.228817 
L 103.239843 128.102513 
L 104.280522 128.725572 
L 106.547718 129.479858 
L 108.814913 129.97167 
L 109.967095 130.035697 
L 111.119276 129.884269 
L 115.653667 128.515455 
L 116.805848 128.4316 
L 125.837463 128.949516 
L 126.989644 128.67317 
L 130.409021 127.184407 
L 131.449701 126.969893 
L 132.601882 127.133616 
L 133.716896 127.632162 
L 135.984091 128.911886 
L 137.136273 129.304023 
L 138.288454 129.489061 
L 140.555649 129.455575 
L 141.670664 129.317146 
L 142.822845 129.054016 
L 143.975026 128.50303 
L 145.015706 127.475934 
L 146.167887 125.933499 
L 149.550097 120.378362 
L 150.702278 119.090294 
L 151.854459 118.382563 
L 152.969474 118.277972 
L 154.121655 118.723323 
L 155.236669 119.659954 
L 156.38885 121.104381 
L 157.541032 123.103577 
L 159.733893 128.532185 
L 162.001088 134.49172 
L 163.116102 136.947793 
L 164.268284 138.642253 
L 165.420465 139.40187 
L 166.535479 139.231171 
L 167.68766 138.232802 
L 168.802674 136.533758 
L 169.954856 134.267414 
L 171.107037 131.587555 
L 173.337065 125.729608 
L 174.45208 122.95401 
L 175.604261 120.535303 
L 176.719275 118.640792 
L 177.871456 117.3402 
L 179.023638 116.62092 
L 180.138652 116.396858 
L 181.290833 116.513431 
L 185.75089 117.463711 
L 186.903071 117.57485 
L 188.018085 117.539004 
L 192.589643 116.758135 
L 193.704657 116.935255 
L 194.856838 117.453306 
L 195.971853 118.426205 
L 197.124034 119.869459 
L 198.276215 121.705321 
L 201.58409 128.151294 
L 202.736272 130.010826 
L 203.851286 131.458721 
L 205.003467 132.420178 
L 206.155648 132.848908 
L 207.270663 132.744306 
L 208.422844 132.165632 
L 209.537858 131.198772 
L 210.690039 129.926418 
L 211.842221 128.431847 
L 212.8829 126.815903 
L 215.150096 123.872986 
L 216.302277 122.783899 
L 217.417291 121.933181 
L 219.721654 120.739964 
L 225.408226 118.392854 
L 227.638254 117.63044 
L 229.90545 117.094216 
L 231.020464 116.985574 
L 232.172645 117.065507 
L 233.324826 117.467352 
L 234.439841 118.337468 
L 235.592022 119.72369 
L 237.859217 123.580928 
L 240.052079 127.469507 
L 241.20426 128.969604 
L 242.319274 130.065945 
L 243.471455 130.776309 
L 244.586469 131.179008 
L 245.738651 131.341975 
L 246.890832 131.284235 
L 248.005846 130.911716 
L 249.158027 130.087694 
L 250.273042 128.721565 
L 251.425223 126.86921 
L 254.770265 120.812922 
L 255.885279 119.254689 
L 257.037461 118.083429 
L 258.152475 117.298663 
L 261.571852 115.839621 
L 262.724033 115.020266 
L 264.991228 112.730814 
L 266.14341 111.418284 
L 269.451285 106.789262 
L 271.71848 103.55921 
L 272.870662 102.253239 
L 274.022843 101.323656 
L 275.137857 100.936949 
L 276.290038 101.234628 
L 277.405052 102.240976 
L 278.557234 103.82388 
L 279.709415 105.768647 
L 283.054457 112.128763 
L 284.206639 114.003553 
L 285.321653 115.454935 
L 286.473834 116.324064 
L 287.626015 116.609319 
L 288.74103 116.465133 
L 291.008225 115.849904 
L 292.160406 115.760708 
L 293.312588 115.940392 
L 294.353268 116.439714 
L 295.505449 117.260001 
L 296.620463 118.366121 
L 297.772644 119.706515 
L 300.03984 122.958022 
L 303.459216 128.641654 
L 304.574231 130.062284 
L 305.726412 130.943977 
L 306.878593 131.249044 
L 307.919273 130.993608 
L 309.071454 130.238279 
L 310.186468 129.092546 
L 312.453664 126.199491 
L 314.758026 123.384714 
L 315.873041 122.165168 
L 317.025222 121.104063 
L 318.140236 120.262029 
L 319.292417 119.759004 
L 320.444599 119.699625 
L 321.485278 120.075042 
L 322.63746 120.757652 
L 326.019669 123.121767 
L 327.171851 123.712223 
L 328.324032 124.107699 
L 331.706241 124.896525 
L 334.010604 125.879423 
L 336.240632 126.898996 
L 340.775023 128.790464 
L 343.042219 129.899222 
L 344.1944 130.26657 
L 345.309414 130.322761 
L 346.461595 129.97703 
L 347.613777 129.219231 
L 349.806638 127.200912 
L 350.921652 126.515 
L 352.073833 126.265887 
L 353.188847 126.412349 
L 354.341029 126.81541 
L 355.49321 127.404791 
L 357.760405 129.052334 
L 360.027601 131.232985 
L 361.179782 132.505333 
L 362.220462 133.856441 
L 363.372643 135.12576 
L 364.487657 136.070162 
L 365.639839 136.493973 
L 366.754853 136.27995 
L 367.907034 135.405876 
L 369.059215 133.867839 
L 370.17423 131.662487 
L 371.326411 128.807542 
L 372.441425 125.333198 
L 374.745788 116.912733 
L 375.786467 112.314501 
L 378.053663 103.404278 
L 379.205844 99.61339 
L 380.320858 96.614354 
L 381.47304 94.637086 
L 382.625221 93.807792 
L 383.740235 94.095632 
L 384.892416 95.410294 
L 386.00743 97.664961 
L 387.159612 100.739559 
L 388.311793 104.417301 
L 390.541821 112.185514 
L 391.656835 115.632912 
L 392.809017 118.473693 
L 393.924031 120.578126 
L 395.076212 120.517274 
L 397.343408 119.887045 
L 398.495589 119.473972 
L 400.762784 118.315847 
L 401.914966 117.551364 
L 404.107827 115.655781 
L 405.222841 114.536941 
L 405.222841 114.536941 
" clip-path="url(#p4bf0f9849d)" style="fill: none; stroke: #ff5656; stroke-width: 0.5; stroke-linecap: square"/>
   </g>
   <g id="patch_6">
    <path d="M 45.36875 141.681573 
L 45.36875 91.528088 
" style="fill: none; stroke: #000000; stroke-width: 0.8; stroke-linejoin: miter; stroke-linecap: square"/>
   </g>
   <g id="patch_7">
    <path d="M 45.36875 141.681573 
L 422.35875 141.681573 
" style="fill: none; stroke: #000000; stroke-width: 0.8; stroke-linejoin: miter; stroke-linecap: square"/>
   </g>
  </g>
  <g id="axes_3">
   <g id="patch_8">
    <path d="M 45.36875 206.620787 
L 422.35875 206.620787 
L 422.35875 156.467301 
L 45.36875 156.467301 
z
" style="fill: #ffffff"/>
   </g>
   <g id="matplotlib.axis_5">
    <g id="xtick_15">
     <g id="line2d_43">
      <path d="M 61.389645 206.620787 
L 61.389645 156.467301 
" clip-path="url(#pdd74b0e3e2)" style="fill: none; stroke-dasharray: 2.96,1.28; stroke-dashoffset: 0; stroke: #b0b0b0; stroke-opacity: 0.5; stroke-width: 0.8"/>
     </g>
     <g id="line2d_44">
      <g>
       <use xlink:href="#ma2d1efb354" x="61.389645" y="206.620787" style="stroke: #000000; stroke-width: 0.8"/>
      </g>
     </g>
    </g>
    <g id="xtick_16">
     <g id="line2d_45">
      <path d="M 115.690834 206.620787 
L 115.690834 156.467301 
" clip-path="url(#pdd74b0e3e2)" style="fill: none; stroke-dasharray: 2.96,1.28; stroke-dashoffset: 0; stroke: #b0b0b0; stroke-opacity: 0.5; stroke-width: 0.8"/>
     </g>
     <g id="line2d_46">
      <g>
       <use xlink:href="#ma2d1efb354" x="115.690834" y="206.620787" style="stroke: #000000; stroke-width: 0.8"/>
      </g>
     </g>
    </g>
    <g id="xtick_17">
     <g id="line2d_47">
      <path d="M 169.992023 206.620787 
L 169.992023 156.467301 
" clip-path="url(#pdd74b0e3e2)" style="fill: none; stroke-dasharray: 2.96,1.28; stroke-dashoffset: 0; stroke: #b0b0b0; stroke-opacity: 0.5; stroke-width: 0.8"/>
     </g>
     <g id="line2d_48">
      <g>
       <use xlink:href="#ma2d1efb354" x="169.992023" y="206.620787" style="stroke: #000000; stroke-width: 0.8"/>
      </g>
     </g>
    </g>
    <g id="xtick_18">
     <g id="line2d_49">
      <path d="M 224.293212 206.620787 
L 224.293212 156.467301 
" clip-path="url(#pdd74b0e3e2)" style="fill: none; stroke-dasharray: 2.96,1.28; stroke-dashoffset: 0; stroke: #b0b0b0; stroke-opacity: 0.5; stroke-width: 0.8"/>
     </g>
     <g id="line2d_50">
      <g>
       <use xlink:href="#ma2d1efb354" x="224.293212" y="206.620787" style="stroke: #000000; stroke-width: 0.8"/>
      </g>
     </g>
    </g>
    <g id="xtick_19">
     <g id="line2d_51">
      <path d="M 278.594401 206.620787 
L 278.594401 156.467301 
" clip-path="url(#pdd74b0e3e2)" style="fill: none; stroke-dasharray: 2.96,1.28; stroke-dashoffset: 0; stroke: #b0b0b0; stroke-opacity: 0.5; stroke-width: 0.8"/>
     </g>
     <g id="line2d_52">
      <g>
       <use xlink:href="#ma2d1efb354" x="278.594401" y="206.620787" style="stroke: #000000; stroke-width: 0.8"/>
      </g>
     </g>
    </g>
    <g id="xtick_20">
     <g id="line2d_53">
      <path d="M 332.89559 206.620787 
L 332.89559 156.467301 
" clip-path="url(#pdd74b0e3e2)" style="fill: none; stroke-dasharray: 2.96,1.28; stroke-dashoffset: 0; stroke: #b0b0b0; stroke-opacity: 0.5; stroke-width: 0.8"/>
     </g>
     <g id="line2d_54">
      <g>
       <use xlink:href="#ma2d1efb354" x="332.89559" y="206.620787" style="stroke: #000000; stroke-width: 0.8"/>
      </g>
     </g>
    </g>
    <g id="xtick_21">
     <g id="line2d_55">
      <path d="M 387.196779 206.620787 
L 387.196779 156.467301 
" clip-path="url(#pdd74b0e3e2)" style="fill: none; stroke-dasharray: 2.96,1.28; stroke-dashoffset: 0; stroke: #b0b0b0; stroke-opacity: 0.5; stroke-width: 0.8"/>
     </g>
     <g id="line2d_56">
      <g>
       <use xlink:href="#ma2d1efb354" x="387.196779" y="206.620787" style="stroke: #000000; stroke-width: 0.8"/>
      </g>
     </g>
    </g>
   </g>
   <g id="matplotlib.axis_6">
    <g id="ytick_7">
     <g id="line2d_57">
      <path d="M 45.36875 199.970353 
L 422.35875 199.970353 
" clip-path="url(#pdd74b0e3e2)" style="fill: none; stroke-dasharray: 2.96,1.28; stroke-dashoffset: 0; stroke: #b0b0b0; stroke-opacity: 0.5; stroke-width: 0.8"/>
     </g>
     <g id="line2d_58">
      <g>
       <use xlink:href="#m24baddd90c" x="45.36875" y="199.970353" style="stroke: #000000; stroke-width: 0.8"/>
      </g>
     </g>
     <g id="text_9">
      <!-- −1 -->
      <g transform="translate(26.575 203.009728) scale(0.08 -0.08)">
       <defs>
        <path id="DejaVuSerif-31" d="M 909 0 
L 909 331 
L 1722 331 
L 1722 4213 
L 781 3603 
L 781 4013 
L 1919 4750 
L 2350 4750 
L 2350 331 
L 3163 331 
L 3163 0 
L 909 0 
z
" transform="scale(0.015625)"/>
       </defs>
       <use xlink:href="#DejaVuSerif-2212"/>
       <use xlink:href="#DejaVuSerif-31" transform="translate(83.789062 0)"/>
      </g>
     </g>
    </g>
    <g id="ytick_8">
     <g id="line2d_59">
      <path d="M 45.36875 184.32526 
L 422.35875 184.32526 
" clip-path="url(#pdd74b0e3e2)" style="fill: none; stroke-dasharray: 2.96,1.28; stroke-dashoffset: 0; stroke: #b0b0b0; stroke-opacity: 0.5; stroke-width: 0.8"/>
     </g>
     <g id="line2d_60">
      <g>
       <use xlink:href="#m24baddd90c" x="45.36875" y="184.32526" style="stroke: #000000; stroke-width: 0.8"/>
      </g>
     </g>
     <g id="text_10">
      <!-- 0 -->
      <g transform="translate(33.27875 187.364635) scale(0.08 -0.08)">
       <use xlink:href="#DejaVuSerif-30"/>
      </g>
     </g>
    </g>
    <g id="ytick_9">
     <g id="line2d_61">
      <path d="M 45.36875 168.680167 
L 422.35875 168.680167 
" clip-path="url(#pdd74b0e3e2)" style="fill: none; stroke-dasharray: 2.96,1.28; stroke-dashoffset: 0; stroke: #b0b0b0; stroke-opacity: 0.5; stroke-width: 0.8"/>
     </g>
     <g id="line2d_62">
      <g>
       <use xlink:href="#m24baddd90c" x="45.36875" y="168.680167" style="stroke: #000000; stroke-width: 0.8"/>
      </g>
     </g>
     <g id="text_11">
      <!-- 1 -->
      <g transform="translate(33.27875 171.719542) scale(0.08 -0.08)">
       <use xlink:href="#DejaVuSerif-31"/>
      </g>
     </g>
    </g>
    <g id="text_12">
     <!-- Sazonalidade -->
     <g transform="translate(20.91125 208.578419) rotate(-90) scale(0.08 -0.08)">
      <defs>
       <path id="DejaVuSerif-53" d="M 594 225 
L 594 1288 
L 953 1284 
Q 969 753 1261 498 
Q 1553 244 2150 244 
Q 2706 244 2998 464 
Q 3291 684 3291 1106 
Q 3291 1444 3114 1625 
Q 2938 1806 2369 1978 
L 1753 2163 
Q 1084 2366 811 2669 
Q 538 2972 538 3500 
Q 538 4094 959 4422 
Q 1381 4750 2144 4750 
Q 2469 4750 2856 4679 
Q 3244 4609 3681 4475 
L 3681 3481 
L 3328 3481 
Q 3275 3975 2998 4195 
Q 2722 4416 2156 4416 
Q 1663 4416 1405 4214 
Q 1147 4013 1147 3628 
Q 1147 3294 1340 3103 
Q 1534 2913 2163 2725 
L 2741 2553 
Q 3375 2363 3645 2067 
Q 3916 1772 3916 1275 
Q 3916 597 3481 253 
Q 3047 -91 2188 -91 
Q 1803 -91 1404 -12 
Q 1006 66 594 225 
z
" transform="scale(0.015625)"/>
       <path id="DejaVuSerif-7a" d="M 256 0 
L 256 269 
L 2338 2988 
L 691 2988 
L 691 2413 
L 359 2413 
L 359 3322 
L 3078 3322 
L 3078 3053 
L 997 331 
L 2803 331 
L 2803 934 
L 3138 934 
L 3138 0 
L 256 0 
z
" transform="scale(0.015625)"/>
       <path id="DejaVuSerif-6c" d="M 1313 331 
L 1856 331 
L 1856 0 
L 184 0 
L 184 331 
L 738 331 
L 738 4531 
L 184 4531 
L 184 4863 
L 1313 4863 
L 1313 331 
z
" transform="scale(0.015625)"/>
      </defs>
      <use xlink:href="#DejaVuSerif-53"/>
      <use xlink:href="#DejaVuSerif-61" transform="translate(68.505859 0)"/>
      <use xlink:href="#DejaVuSerif-7a" transform="translate(128.125 0)"/>
      <use xlink:href="#DejaVuSerif-6f" transform="translate(180.810547 0)"/>
      <use xlink:href="#DejaVuSerif-6e" transform="translate(241.015625 0)"/>
      <use xlink:href="#DejaVuSerif-61" transform="translate(305.419922 0)"/>
      <use xlink:href="#DejaVuSerif-6c" transform="translate(365.039062 0)"/>
      <use xlink:href="#DejaVuSerif-69" transform="translate(397.021484 0)"/>
      <use xlink:href="#DejaVuSerif-64" transform="translate(429.003906 0)"/>
      <use xlink:href="#DejaVuSerif-61" transform="translate(493.017578 0)"/>
      <use xlink:href="#DejaVuSerif-64" transform="translate(552.636719 0)"/>
      <use xlink:href="#DejaVuSerif-65" transform="translate(616.650391 0)"/>
     </g>
    </g>
   </g>
   <g id="line2d_63">
    <path d="M 62.504659 177.426071 
L 63.582506 165.417853 
L 64.734687 158.747005 
L 65.849702 161.04283 
L 67.001883 176.814146 
L 69.269078 196.723647 
L 70.42126 202.466869 
L 71.536274 204.258379 
L 72.688455 200.847505 
L 73.803469 194.646779 
L 76.107832 176.599338 
L 77.148512 165.208555 
L 78.300693 159.531927 
L 79.415707 163.16034 
L 80.567888 177.487812 
L 82.835084 196.144254 
L 83.987265 202.087696 
L 85.102279 203.867584 
L 86.25446 200.58469 
L 87.369475 194.266364 
L 89.673837 175.811486 
L 90.714517 164.980754 
L 91.866698 160.245116 
L 92.981712 165.148181 
L 94.133894 178.068425 
L 96.401089 195.540302 
L 97.55327 201.67623 
L 98.668285 203.472914 
L 99.820466 200.397616 
L 100.93548 194.031734 
L 102.087661 185.102524 
L 103.239843 175.090929 
L 104.280522 164.74394 
L 105.432704 160.849106 
L 106.547718 166.984933 
L 107.699899 178.572316 
L 109.967095 194.928204 
L 111.119276 201.266492 
L 112.23429 203.08112 
L 113.386471 200.25341 
L 114.501486 193.868715 
L 115.653667 185.016999 
L 117.883695 164.498367 
L 119.035876 161.39212 
L 120.150891 168.736182 
L 121.303072 179.082273 
L 123.570267 194.306237 
L 124.722449 200.860458 
L 125.837463 202.683469 
L 126.989644 200.088518 
L 128.104658 193.706894 
L 129.256839 184.949471 
L 131.449701 164.175273 
L 132.601882 162.148509 
L 134.869077 179.630037 
L 138.288454 200.371713 
L 139.403468 202.27002 
L 140.555649 199.975827 
L 141.670664 193.86354 
L 142.822845 185.218465 
L 145.015706 164.255863 
L 146.167887 162.509023 
L 148.435083 179.168742 
L 151.854459 199.707961 
L 152.969474 201.992242 
L 154.121655 200.565646 
L 155.236669 195.054095 
L 156.38885 186.352138 
L 157.541032 174.125921 
L 158.581711 164.415872 
L 159.733893 162.419946 
L 164.268284 192.810796 
L 165.420465 199.37683 
L 166.535479 202.062651 
L 167.68766 201.351913 
L 168.802674 196.184182 
L 169.954856 187.354079 
L 171.107037 174.671178 
L 172.184884 164.452353 
L 173.337065 162.069889 
L 174.45208 168.596012 
L 177.871456 192.756367 
L 179.023638 199.357771 
L 180.138652 202.473392 
L 181.290833 202.050773 
L 182.405847 197.122194 
L 183.558028 188.258011 
L 185.75089 164.485562 
L 186.903071 161.666245 
L 188.018085 167.074865 
L 189.170266 176.057989 
L 192.589643 199.609513 
L 193.704657 202.894721 
L 194.856838 202.471235 
L 195.971853 197.671114 
L 197.124034 188.833272 
L 199.316895 164.678818 
L 200.469076 161.494349 
L 201.58409 166.112074 
L 205.003467 192.790778 
L 206.155648 199.840187 
L 207.270663 203.234926 
L 208.422844 202.622144 
L 209.537858 197.735237 
L 210.690039 188.848573 
L 212.8829 165.157647 
L 214.035082 161.757967 
L 215.150096 166.148927 
L 217.417291 183.09734 
L 218.569473 192.82338 
L 219.721654 199.878256 
L 220.836668 203.365202 
L 221.988849 202.270426 
L 223.103863 197.180963 
L 224.256045 188.443232 
L 226.486073 165.93465 
L 227.638254 162.387235 
L 228.753268 166.699104 
L 229.90545 174.379708 
L 231.020464 182.820479 
L 232.172645 192.659579 
L 233.324826 199.939174 
L 234.439841 203.328125 
L 235.592022 201.61844 
L 236.707036 196.513071 
L 237.859217 188.059154 
L 240.052079 166.579193 
L 241.20426 162.701698 
L 242.319274 167.312936 
L 243.471455 174.522585 
L 244.586469 182.858906 
L 245.738651 192.390874 
L 246.890832 199.952212 
L 248.005846 203.143447 
L 249.158027 200.973245 
L 250.273042 196.112368 
L 251.425223 187.936475 
L 253.618084 166.775402 
L 254.770265 162.520056 
L 255.885279 167.919644 
L 257.037461 174.944277 
L 260.456837 199.936915 
L 261.571852 202.958557 
L 262.724033 200.460426 
L 263.839047 195.753857 
L 264.991228 187.752318 
L 267.184089 166.682839 
L 268.336271 162.283492 
L 270.603466 175.315929 
L 272.870662 192.437498 
L 274.022843 200.048247 
L 275.137857 203.033073 
L 276.290038 200.180686 
L 277.405052 195.391812 
L 278.557234 187.449718 
L 280.787262 166.371113 
L 281.939443 161.986159 
L 284.206639 175.39553 
L 285.321653 184.639977 
L 287.626015 200.434186 
L 288.74103 203.493895 
L 289.893211 200.306345 
L 291.008225 195.33045 
L 292.160406 187.178521 
L 294.353268 165.806403 
L 295.505449 161.308538 
L 296.620463 167.612919 
L 297.772644 175.349719 
L 298.887658 185.131963 
L 301.192021 201.003084 
L 302.307035 204.042352 
L 303.459216 200.7361 
L 304.574231 195.597195 
L 305.726412 187.162074 
L 307.919273 164.90976 
L 309.071454 160.134626 
L 310.186468 167.061322 
L 311.33865 175.650883 
L 312.453664 185.60907 
L 313.605845 193.88229 
L 314.758026 201.302072 
L 315.873041 204.341083 
L 317.025222 201.347344 
L 318.140236 196.123323 
L 319.292417 187.471845 
L 321.485278 164.221098 
L 322.63746 159.102934 
L 323.752474 166.882781 
L 327.171851 193.775382 
L 328.324032 200.998706 
L 329.439046 204.313204 
L 330.591227 201.93246 
L 331.706241 196.666722 
L 332.858423 187.976268 
L 335.088451 164.251264 
L 336.240632 158.953956 
L 337.355646 166.760782 
L 339.622842 185.338801 
L 340.775023 193.158923 
L 341.927204 200.19681 
L 343.042219 203.744014 
L 344.1944 201.878598 
L 345.309414 196.816913 
L 346.461595 188.350673 
L 348.654456 164.648573 
L 349.806638 159.278706 
L 350.921652 166.402675 
L 352.073833 176.730774 
L 353.188847 185.202925 
L 354.341029 192.871372 
L 355.49321 199.731154 
L 356.608224 203.372717 
L 357.760405 201.814487 
L 358.87542 196.83584 
L 360.027601 188.59192 
L 362.220462 164.96882 
L 363.372643 159.367521 
L 364.487657 165.871262 
L 365.639839 177.198228 
L 367.907034 192.56642 
L 369.059215 199.238277 
L 370.17423 202.983421 
L 371.326411 201.784775 
L 372.441425 196.922866 
L 373.593606 188.910922 
L 374.745788 177.313557 
L 375.786467 165.295944 
L 376.938649 159.453099 
L 378.053663 165.34513 
L 379.205844 177.701487 
L 381.47304 192.204648 
L 382.625221 198.674141 
L 383.740235 202.552867 
L 384.892416 201.746157 
L 386.00743 197.035803 
L 387.159612 189.27035 
L 388.311793 178.013316 
L 389.38964 165.61064 
L 390.541821 159.596764 
L 391.656835 164.796418 
L 392.809017 178.217748 
L 396.228393 198.087952 
L 397.343408 202.10961 
L 398.495589 201.660827 
L 399.610603 197.110662 
L 400.762784 189.620506 
L 401.914966 178.735696 
L 402.955645 165.896808 
L 404.107827 159.775507 
L 405.222841 164.195114 
L 405.222841 164.195114 
" clip-path="url(#pdd74b0e3e2)" style="fill: none; stroke: #ffa722; stroke-width: 0.5; stroke-linecap: square"/>
   </g>
   <g id="patch_9">
    <path d="M 45.36875 206.620787 
L 45.36875 156.467301 
" style="fill: none; stroke: #000000; stroke-width: 0.8; stroke-linejoin: miter; stroke-linecap: square"/>
   </g>
   <g id="patch_10">
    <path d="M 45.36875 206.620787 
L 422.35875 206.620787 
" style="fill: none; stroke: #000000; stroke-width: 0.8; stroke-linejoin: miter; stroke-linecap: square"/>
   </g>
  </g>
  <g id="axes_4">
   <g id="patch_11">
    <path d="M 45.36875 271.56 
L 422.35875 271.56 
L 422.35875 221.406514 
L 45.36875 221.406514 
z
" style="fill: #ffffff"/>
   </g>
   <g id="matplotlib.axis_7">
    <g id="xtick_22">
     <g id="line2d_64">
      <path d="M 61.389645 271.56 
L 61.389645 221.406514 
" clip-path="url(#pda30ce3a86)" style="fill: none; stroke-dasharray: 2.96,1.28; stroke-dashoffset: 0; stroke: #b0b0b0; stroke-opacity: 0.5; stroke-width: 0.8"/>
     </g>
     <g id="line2d_65">
      <g>
       <use xlink:href="#ma2d1efb354" x="61.389645" y="271.56" style="stroke: #000000; stroke-width: 0.8"/>
      </g>
     </g>
     <g id="text_13">
      <!-- 2000 -->
      <g transform="translate(51.209645 284.63875) scale(0.08 -0.08)">
       <use xlink:href="#DejaVuSerif-32"/>
       <use xlink:href="#DejaVuSerif-30" transform="translate(63.623047 0)"/>
       <use xlink:href="#DejaVuSerif-30" transform="translate(127.246094 0)"/>
       <use xlink:href="#DejaVuSerif-30" transform="translate(190.869141 0)"/>
      </g>
     </g>
    </g>
    <g id="xtick_23">
     <g id="line2d_66">
      <path d="M 115.690834 271.56 
L 115.690834 221.406514 
" clip-path="url(#pda30ce3a86)" style="fill: none; stroke-dasharray: 2.96,1.28; stroke-dashoffset: 0; stroke: #b0b0b0; stroke-opacity: 0.5; stroke-width: 0.8"/>
     </g>
     <g id="line2d_67">
      <g>
       <use xlink:href="#ma2d1efb354" x="115.690834" y="271.56" style="stroke: #000000; stroke-width: 0.8"/>
      </g>
     </g>
     <g id="text_14">
      <!-- 2004 -->
      <g transform="translate(105.510834 284.63875) scale(0.08 -0.08)">
       <defs>
        <path id="DejaVuSerif-34" d="M 2234 1581 
L 2234 4063 
L 641 1581 
L 2234 1581 
z
M 3609 0 
L 1484 0 
L 1484 331 
L 2234 331 
L 2234 1247 
L 197 1247 
L 197 1588 
L 2241 4750 
L 2859 4750 
L 2859 1581 
L 3750 1581 
L 3750 1247 
L 2859 1247 
L 2859 331 
L 3609 331 
L 3609 0 
z
" transform="scale(0.015625)"/>
       </defs>
       <use xlink:href="#DejaVuSerif-32"/>
       <use xlink:href="#DejaVuSerif-30" transform="translate(63.623047 0)"/>
       <use xlink:href="#DejaVuSerif-30" transform="translate(127.246094 0)"/>
       <use xlink:href="#DejaVuSerif-34" transform="translate(190.869141 0)"/>
      </g>
     </g>
    </g>
    <g id="xtick_24">
     <g id="line2d_68">
      <path d="M 169.992023 271.56 
L 169.992023 221.406514 
" clip-path="url(#pda30ce3a86)" style="fill: none; stroke-dasharray: 2.96,1.28; stroke-dashoffset: 0; stroke: #b0b0b0; stroke-opacity: 0.5; stroke-width: 0.8"/>
     </g>
     <g id="line2d_69">
      <g>
       <use xlink:href="#ma2d1efb354" x="169.992023" y="271.56" style="stroke: #000000; stroke-width: 0.8"/>
      </g>
     </g>
     <g id="text_15">
      <!-- 2008 -->
      <g transform="translate(159.812023 284.63875) scale(0.08 -0.08)">
       <defs>
        <path id="DejaVuSerif-38" d="M 2981 1275 
Q 2981 1775 2732 2051 
Q 2484 2328 2034 2328 
Q 1584 2328 1336 2051 
Q 1088 1775 1088 1275 
Q 1088 772 1336 495 
Q 1584 219 2034 219 
Q 2484 219 2732 495 
Q 2981 772 2981 1275 
z
M 2853 3541 
Q 2853 3966 2637 4203 
Q 2422 4441 2034 4441 
Q 1650 4441 1433 4203 
Q 1216 3966 1216 3541 
Q 1216 3113 1433 2875 
Q 1650 2638 2034 2638 
Q 2422 2638 2637 2875 
Q 2853 3113 2853 3541 
z
M 2516 2484 
Q 3047 2413 3344 2092 
Q 3641 1772 3641 1275 
Q 3641 619 3225 264 
Q 2809 -91 2034 -91 
Q 1263 -91 845 264 
Q 428 619 428 1275 
Q 428 1772 725 2092 
Q 1022 2413 1556 2484 
Q 1084 2569 832 2842 
Q 581 3116 581 3541 
Q 581 4103 968 4426 
Q 1356 4750 2034 4750 
Q 2713 4750 3100 4426 
Q 3488 4103 3488 3541 
Q 3488 3116 3236 2842 
Q 2984 2569 2516 2484 
z
" transform="scale(0.015625)"/>
       </defs>
       <use xlink:href="#DejaVuSerif-32"/>
       <use xlink:href="#DejaVuSerif-30" transform="translate(63.623047 0)"/>
       <use xlink:href="#DejaVuSerif-30" transform="translate(127.246094 0)"/>
       <use xlink:href="#DejaVuSerif-38" transform="translate(190.869141 0)"/>
      </g>
     </g>
    </g>
    <g id="xtick_25">
     <g id="line2d_70">
      <path d="M 224.293212 271.56 
L 224.293212 221.406514 
" clip-path="url(#pda30ce3a86)" style="fill: none; stroke-dasharray: 2.96,1.28; stroke-dashoffset: 0; stroke: #b0b0b0; stroke-opacity: 0.5; stroke-width: 0.8"/>
     </g>
     <g id="line2d_71">
      <g>
       <use xlink:href="#ma2d1efb354" x="224.293212" y="271.56" style="stroke: #000000; stroke-width: 0.8"/>
      </g>
     </g>
     <g id="text_16">
      <!-- 2012 -->
      <g transform="translate(214.113212 284.63875) scale(0.08 -0.08)">
       <use xlink:href="#DejaVuSerif-32"/>
       <use xlink:href="#DejaVuSerif-30" transform="translate(63.623047 0)"/>
       <use xlink:href="#DejaVuSerif-31" transform="translate(127.246094 0)"/>
       <use xlink:href="#DejaVuSerif-32" transform="translate(190.869141 0)"/>
      </g>
     </g>
    </g>
    <g id="xtick_26">
     <g id="line2d_72">
      <path d="M 278.594401 271.56 
L 278.594401 221.406514 
" clip-path="url(#pda30ce3a86)" style="fill: none; stroke-dasharray: 2.96,1.28; stroke-dashoffset: 0; stroke: #b0b0b0; stroke-opacity: 0.5; stroke-width: 0.8"/>
     </g>
     <g id="line2d_73">
      <g>
       <use xlink:href="#ma2d1efb354" x="278.594401" y="271.56" style="stroke: #000000; stroke-width: 0.8"/>
      </g>
     </g>
     <g id="text_17">
      <!-- 2016 -->
      <g transform="translate(268.414401 284.63875) scale(0.08 -0.08)">
       <defs>
        <path id="DejaVuSerif-36" d="M 2094 219 
Q 2534 219 2771 542 
Q 3009 866 3009 1472 
Q 3009 2078 2771 2401 
Q 2534 2725 2094 2725 
Q 1647 2725 1412 2412 
Q 1178 2100 1178 1509 
Q 1178 888 1415 553 
Q 1653 219 2094 219 
z
M 1075 2569 
Q 1288 2803 1556 2918 
Q 1825 3034 2163 3034 
Q 2859 3034 3264 2615 
Q 3669 2197 3669 1472 
Q 3669 763 3233 336 
Q 2797 -91 2069 -91 
Q 1278 -91 853 498 
Q 428 1088 428 2181 
Q 428 3406 931 4078 
Q 1434 4750 2350 4750 
Q 2597 4750 2869 4703 
Q 3141 4656 3425 4563 
L 3425 3794 
L 3072 3794 
Q 3034 4109 2831 4275 
Q 2628 4441 2284 4441 
Q 1678 4441 1381 3981 
Q 1084 3522 1075 2569 
z
" transform="scale(0.015625)"/>
       </defs>
       <use xlink:href="#DejaVuSerif-32"/>
       <use xlink:href="#DejaVuSerif-30" transform="translate(63.623047 0)"/>
       <use xlink:href="#DejaVuSerif-31" transform="translate(127.246094 0)"/>
       <use xlink:href="#DejaVuSerif-36" transform="translate(190.869141 0)"/>
      </g>
     </g>
    </g>
    <g id="xtick_27">
     <g id="line2d_74">
      <path d="M 332.89559 271.56 
L 332.89559 221.406514 
" clip-path="url(#pda30ce3a86)" style="fill: none; stroke-dasharray: 2.96,1.28; stroke-dashoffset: 0; stroke: #b0b0b0; stroke-opacity: 0.5; stroke-width: 0.8"/>
     </g>
     <g id="line2d_75">
      <g>
       <use xlink:href="#ma2d1efb354" x="332.89559" y="271.56" style="stroke: #000000; stroke-width: 0.8"/>
      </g>
     </g>
     <g id="text_18">
      <!-- 2020 -->
      <g transform="translate(322.71559 284.63875) scale(0.08 -0.08)">
       <use xlink:href="#DejaVuSerif-32"/>
       <use xlink:href="#DejaVuSerif-30" transform="translate(63.623047 0)"/>
       <use xlink:href="#DejaVuSerif-32" transform="translate(127.246094 0)"/>
       <use xlink:href="#DejaVuSerif-30" transform="translate(190.869141 0)"/>
      </g>
     </g>
    </g>
    <g id="xtick_28">
     <g id="line2d_76">
      <path d="M 387.196779 271.56 
L 387.196779 221.406514 
" clip-path="url(#pda30ce3a86)" style="fill: none; stroke-dasharray: 2.96,1.28; stroke-dashoffset: 0; stroke: #b0b0b0; stroke-opacity: 0.5; stroke-width: 0.8"/>
     </g>
     <g id="line2d_77">
      <g>
       <use xlink:href="#ma2d1efb354" x="387.196779" y="271.56" style="stroke: #000000; stroke-width: 0.8"/>
      </g>
     </g>
     <g id="text_19">
      <!-- 2024 -->
      <g transform="translate(377.016779 284.63875) scale(0.08 -0.08)">
       <use xlink:href="#DejaVuSerif-32"/>
       <use xlink:href="#DejaVuSerif-30" transform="translate(63.623047 0)"/>
       <use xlink:href="#DejaVuSerif-32" transform="translate(127.246094 0)"/>
       <use xlink:href="#DejaVuSerif-34" transform="translate(190.869141 0)"/>
      </g>
     </g>
    </g>
    <g id="text_20">
     <!-- Série histórica -->
     <g transform="translate(204.18625 296.38125) scale(0.08 -0.08)">
      <defs>
       <path id="DejaVuSerif-e9" d="M 3469 1600 
L 991 1600 
L 991 1575 
Q 991 903 1244 561 
Q 1497 219 1991 219 
Q 2369 219 2611 417 
Q 2853 616 2950 1006 
L 3413 1006 
Q 3275 459 2904 184 
Q 2534 -91 1931 -91 
Q 1203 -91 761 389 
Q 319 869 319 1663 
Q 319 2450 753 2931 
Q 1188 3413 1894 3413 
Q 2647 3413 3050 2948 
Q 3453 2484 3469 1600 
z
M 2791 1931 
Q 2772 2513 2545 2808 
Q 2319 3103 1894 3103 
Q 1497 3103 1269 2806 
Q 1041 2509 991 1931 
L 2791 1931 
z
M 2330 5119 
L 2952 5119 
L 1890 3944 
L 1524 3944 
L 2330 5119 
z
" transform="scale(0.015625)"/>
       <path id="DejaVuSerif-20" transform="scale(0.015625)"/>
       <path id="DejaVuSerif-68" d="M 263 0 
L 263 331 
L 781 331 
L 781 4531 
L 231 4531 
L 231 4863 
L 1356 4863 
L 1356 2731 
Q 1516 3069 1770 3241 
Q 2025 3413 2363 3413 
Q 2913 3413 3172 3097 
Q 3431 2781 3431 2113 
L 3431 331 
L 3944 331 
L 3944 0 
L 2356 0 
L 2356 331 
L 2853 331 
L 2853 1931 
Q 2853 2541 2704 2764 
Q 2556 2988 2175 2988 
Q 1775 2988 1565 2697 
Q 1356 2406 1356 1850 
L 1356 331 
L 1856 331 
L 1856 0 
L 263 0 
z
" transform="scale(0.015625)"/>
       <path id="DejaVuSerif-74" d="M 691 2988 
L 184 2988 
L 184 3322 
L 691 3322 
L 691 4353 
L 1269 4353 
L 1269 3322 
L 2350 3322 
L 2350 2988 
L 1269 2988 
L 1269 878 
Q 1269 456 1350 337 
Q 1431 219 1650 219 
Q 1875 219 1978 351 
Q 2081 484 2088 781 
L 2522 781 
Q 2497 328 2275 118 
Q 2053 -91 1600 -91 
Q 1103 -91 897 129 
Q 691 350 691 878 
L 691 2988 
z
" transform="scale(0.015625)"/>
       <path id="DejaVuSerif-f3" d="M 1925 219 
Q 2388 219 2623 584 
Q 2859 950 2859 1663 
Q 2859 2375 2623 2739 
Q 2388 3103 1925 3103 
Q 1463 3103 1227 2739 
Q 991 2375 991 1663 
Q 991 950 1228 584 
Q 1466 219 1925 219 
z
M 1925 -91 
Q 1200 -91 759 389 
Q 319 869 319 1663 
Q 319 2456 758 2934 
Q 1197 3413 1925 3413 
Q 2653 3413 3092 2934 
Q 3531 2456 3531 1663 
Q 3531 869 3092 389 
Q 2653 -91 1925 -91 
z
M 2362 5119 
L 2984 5119 
L 1922 3944 
L 1556 3944 
L 2362 5119 
z
" transform="scale(0.015625)"/>
      </defs>
      <use xlink:href="#DejaVuSerif-53"/>
      <use xlink:href="#DejaVuSerif-e9" transform="translate(68.505859 0)"/>
      <use xlink:href="#DejaVuSerif-72" transform="translate(127.685547 0)"/>
      <use xlink:href="#DejaVuSerif-69" transform="translate(175.488281 0)"/>
      <use xlink:href="#DejaVuSerif-65" transform="translate(207.470703 0)"/>
      <use xlink:href="#DejaVuSerif-20" transform="translate(266.650391 0)"/>
      <use xlink:href="#DejaVuSerif-68" transform="translate(298.4375 0)"/>
      <use xlink:href="#DejaVuSerif-69" transform="translate(362.841797 0)"/>
      <use xlink:href="#DejaVuSerif-73" transform="translate(394.824219 0)"/>
      <use xlink:href="#DejaVuSerif-74" transform="translate(446.142578 0)"/>
      <use xlink:href="#DejaVuSerif-f3" transform="translate(486.328125 0)"/>
      <use xlink:href="#DejaVuSerif-72" transform="translate(546.533203 0)"/>
      <use xlink:href="#DejaVuSerif-69" transform="translate(594.335938 0)"/>
      <use xlink:href="#DejaVuSerif-63" transform="translate(626.318359 0)"/>
      <use xlink:href="#DejaVuSerif-61" transform="translate(682.324219 0)"/>
     </g>
    </g>
   </g>
   <g id="matplotlib.axis_8">
    <g id="ytick_10">
     <g id="line2d_78">
      <path d="M 45.36875 269.155104 
L 422.35875 269.155104 
" clip-path="url(#pda30ce3a86)" style="fill: none; stroke-dasharray: 2.96,1.28; stroke-dashoffset: 0; stroke: #b0b0b0; stroke-opacity: 0.5; stroke-width: 0.8"/>
     </g>
     <g id="line2d_79">
      <g>
       <use xlink:href="#m24baddd90c" x="45.36875" y="269.155104" style="stroke: #000000; stroke-width: 0.8"/>
      </g>
     </g>
     <g id="text_21">
      <!-- −0.5 -->
      <g transform="translate(18.9425 272.194479) scale(0.08 -0.08)">
       <use xlink:href="#DejaVuSerif-2212"/>
       <use xlink:href="#DejaVuSerif-30" transform="translate(83.789062 0)"/>
       <use xlink:href="#DejaVuSerif-2e" transform="translate(147.412109 0)"/>
       <use xlink:href="#DejaVuSerif-35" transform="translate(179.199219 0)"/>
      </g>
     </g>
    </g>
    <g id="ytick_11">
     <g id="line2d_80">
      <path d="M 45.36875 245.402671 
L 422.35875 245.402671 
" clip-path="url(#pda30ce3a86)" style="fill: none; stroke-dasharray: 2.96,1.28; stroke-dashoffset: 0; stroke: #b0b0b0; stroke-opacity: 0.5; stroke-width: 0.8"/>
     </g>
     <g id="line2d_81">
      <g>
       <use xlink:href="#m24baddd90c" x="45.36875" y="245.402671" style="stroke: #000000; stroke-width: 0.8"/>
      </g>
     </g>
     <g id="text_22">
      <!-- 0.0 -->
      <g transform="translate(25.64625 248.442046) scale(0.08 -0.08)">
       <use xlink:href="#DejaVuSerif-30"/>
       <use xlink:href="#DejaVuSerif-2e" transform="translate(63.623047 0)"/>
       <use xlink:href="#DejaVuSerif-30" transform="translate(95.410156 0)"/>
      </g>
     </g>
    </g>
    <g id="ytick_12">
     <g id="line2d_82">
      <path d="M 45.36875 221.650238 
L 422.35875 221.650238 
" clip-path="url(#pda30ce3a86)" style="fill: none; stroke-dasharray: 2.96,1.28; stroke-dashoffset: 0; stroke: #b0b0b0; stroke-opacity: 0.5; stroke-width: 0.8"/>
     </g>
     <g id="line2d_83">
      <g>
       <use xlink:href="#m24baddd90c" x="45.36875" y="221.650238" style="stroke: #000000; stroke-width: 0.8"/>
      </g>
     </g>
     <g id="text_23">
      <!-- 0.5 -->
      <g transform="translate(25.64625 224.689613) scale(0.08 -0.08)">
       <use xlink:href="#DejaVuSerif-30"/>
       <use xlink:href="#DejaVuSerif-2e" transform="translate(63.623047 0)"/>
       <use xlink:href="#DejaVuSerif-35" transform="translate(95.410156 0)"/>
      </g>
     </g>
    </g>
    <g id="text_24">
     <!-- Resíduo -->
     <g transform="translate(13.27875 262.739507) rotate(-90) scale(0.08 -0.08)">
      <defs>
       <path id="DejaVuSerif-52" d="M 3066 2316 
Q 3284 2256 3442 2114 
Q 3600 1972 3725 1716 
L 4403 331 
L 4972 331 
L 4972 0 
L 3872 0 
L 3144 1484 
Q 2934 1916 2759 2042 
Q 2584 2169 2278 2169 
L 1581 2169 
L 1581 331 
L 2241 331 
L 2241 0 
L 353 0 
L 353 331 
L 947 331 
L 947 4331 
L 353 4331 
L 353 4666 
L 2719 4666 
Q 3400 4666 3770 4341 
Q 4141 4016 4141 3419 
Q 4141 2938 3870 2661 
Q 3600 2384 3066 2316 
z
M 1581 2503 
L 2503 2503 
Q 2975 2503 3200 2726 
Q 3425 2950 3425 3419 
Q 3425 3888 3200 4109 
Q 2975 4331 2503 4331 
L 1581 4331 
L 1581 2503 
z
" transform="scale(0.015625)"/>
       <path id="DejaVuSerif-ed" d="M 1356 331 
L 1900 331 
L 1900 0 
L 231 0 
L 231 331 
L 781 331 
L 781 2988 
L 231 2988 
L 231 3322 
L 1356 3322 
L 1356 331 
z
M 1458 5119 
L 2080 5119 
L 1018 3944 
L 652 3944 
L 1458 5119 
z
" transform="scale(0.015625)"/>
       <path id="DejaVuSerif-75" d="M 2266 3322 
L 3341 3322 
L 3341 331 
L 3884 331 
L 3884 0 
L 2766 0 
L 2766 588 
Q 2606 256 2353 82 
Q 2100 -91 1766 -91 
Q 1213 -91 952 223 
Q 691 538 691 1209 
L 691 2988 
L 172 2988 
L 172 3322 
L 1269 3322 
L 1269 1388 
Q 1269 781 1417 556 
Q 1566 331 1947 331 
Q 2347 331 2556 625 
Q 2766 919 2766 1478 
L 2766 2988 
L 2266 2988 
L 2266 3322 
z
" transform="scale(0.015625)"/>
      </defs>
      <use xlink:href="#DejaVuSerif-52"/>
      <use xlink:href="#DejaVuSerif-65" transform="translate(75.292969 0)"/>
      <use xlink:href="#DejaVuSerif-73" transform="translate(134.472656 0)"/>
      <use xlink:href="#DejaVuSerif-ed" transform="translate(185.791016 0)"/>
      <use xlink:href="#DejaVuSerif-64" transform="translate(217.773438 0)"/>
      <use xlink:href="#DejaVuSerif-75" transform="translate(281.787109 0)"/>
      <use xlink:href="#DejaVuSerif-6f" transform="translate(346.191406 0)"/>
     </g>
    </g>
   </g>
   <g id="line2d_84">
    <path d="M 62.504659 242.982473 
L 63.582506 241.645132 
L 64.734687 253.661246 
L 65.849702 249.63256 
L 67.001883 243.588826 
L 68.116897 241.041429 
L 69.269078 244.841224 
L 70.42126 240.608189 
L 71.536274 242.360536 
L 72.688455 244.550818 
L 73.803469 254.324724 
L 74.95565 255.145814 
L 76.107832 247.066649 
L 77.148512 248.182124 
L 78.300693 236.645192 
L 79.415707 234.504292 
L 80.567888 241.441184 
L 81.682902 246.657583 
L 82.835084 240.431732 
L 83.987265 242.867157 
L 85.102279 248.239944 
L 86.25446 257.695397 
L 87.369475 257.807819 
L 88.521656 255.372835 
L 89.673837 251.395165 
L 90.714517 245.323008 
L 91.866698 233.217807 
L 92.981712 234.100577 
L 94.133894 235.672923 
L 95.248908 242.068909 
L 96.401089 253.060446 
L 97.55327 256.107665 
L 98.668285 245.90969 
L 99.820466 238.488136 
L 100.93548 226.804852 
L 102.087661 230.114263 
L 103.239843 245.300563 
L 104.280522 247.290647 
L 105.432704 251.163298 
L 106.547718 264.952921 
L 107.699899 264.244979 
L 108.814913 254.521219 
L 109.967095 242.412542 
L 111.119276 241.154553 
L 112.23429 246.003354 
L 113.386471 237.71621 
L 114.501486 236.447458 
L 115.653667 235.862517 
L 116.805848 238.969998 
L 117.883695 243.28847 
L 119.035876 250.542865 
L 120.150891 245.536015 
L 121.303072 258.772209 
L 122.418086 251.664803 
L 123.570267 248.075968 
L 124.722449 254.3003 
L 125.837463 243.25005 
L 126.989644 238.024889 
L 128.104658 236.497965 
L 129.256839 237.267617 
L 130.409021 240.028072 
L 131.449701 252.621413 
L 132.601882 261.209919 
L 133.716896 249.136642 
L 134.869077 227.145258 
L 137.136273 244.60428 
L 138.288454 238.794439 
L 139.403468 252.589251 
L 140.555649 260.497257 
L 141.670664 258.267472 
L 142.822845 252.190022 
L 143.975026 244.019611 
L 145.015706 237.848519 
L 146.167887 238.562158 
L 147.282901 266.648329 
L 148.435083 251.542551 
L 149.550097 246.389296 
L 150.702278 243.713991 
L 152.969474 230.46949 
L 154.121655 226.578928 
L 155.236669 228.142621 
L 156.38885 230.706008 
L 157.541032 239.700757 
L 158.581711 241.964305 
L 159.733893 248.79527 
L 160.848907 249.435393 
L 162.001088 257.789883 
L 163.116102 254.688045 
L 164.268284 250.60683 
L 165.420465 260.339823 
L 166.535479 258.425104 
L 167.68766 258.701113 
L 168.802674 259.124846 
L 169.954856 262.896416 
L 171.107037 249.054824 
L 172.184884 241.198433 
L 173.337065 231.724721 
L 174.45208 231.478069 
L 175.604261 240.695897 
L 176.719275 240.37849 
L 177.871456 232.696655 
L 179.023638 232.852791 
L 180.138652 233.429486 
L 181.290833 240.747368 
L 182.405847 249.817414 
L 183.558028 253.383293 
L 184.71021 253.730809 
L 185.75089 255.497022 
L 186.903071 252.430965 
L 188.018085 250.101598 
L 189.170266 245.162379 
L 190.28528 242.647096 
L 191.437462 236.795313 
L 192.589643 238.864418 
L 194.856838 241.17074 
L 195.971853 237.640933 
L 197.124034 233.258709 
L 198.276215 241.609871 
L 199.316895 250.71526 
L 200.469076 249.58011 
L 201.58409 240.195392 
L 202.736272 241.201916 
L 203.851286 248.306096 
L 205.003467 269.280296 
L 206.155648 255.742746 
L 207.270663 255.194277 
L 208.422844 256.891002 
L 210.690039 247.918247 
L 211.842221 244.458632 
L 212.8829 235.353274 
L 214.035082 242.798802 
L 215.150096 233.851341 
L 216.302277 240.336494 
L 217.417291 241.006752 
L 218.569473 236.303492 
L 219.721654 242.557556 
L 220.836668 253.3091 
L 221.988849 249.787884 
L 223.103863 253.880802 
L 224.256045 253.386022 
L 226.486073 244.621306 
L 227.638254 242.724801 
L 228.753268 236.516082 
L 229.90545 235.396193 
L 231.020464 235.187874 
L 232.172645 242.920024 
L 233.324826 248.572791 
L 234.439841 242.405021 
L 235.592022 245.203176 
L 236.707036 243.611822 
L 237.859217 247.616641 
L 239.011399 241.407342 
L 240.052079 233.16017 
L 241.20426 233.368678 
L 242.319274 255.399099 
L 243.471455 263.356274 
L 244.586469 265.710028 
L 245.738651 258.143511 
L 246.890832 253.182756 
L 248.005846 246.331786 
L 249.158027 245.399115 
L 250.273042 244.111706 
L 251.425223 235.943899 
L 252.577404 234.863069 
L 253.618084 251.79252 
L 254.770265 254.498996 
L 255.885279 255.670256 
L 257.037461 239.517636 
L 258.152475 235.496354 
L 259.304656 235.071275 
L 260.456837 235.205324 
L 261.571852 245.573962 
L 262.724033 242.114046 
L 263.839047 238.080817 
L 266.14341 266.471041 
L 267.184089 267.721027 
L 268.336271 263.019628 
L 269.451285 242.737327 
L 270.603466 235.322597 
L 271.71848 231.583899 
L 272.870662 232.886476 
L 274.022843 239.535991 
L 275.137857 230.595683 
L 276.290038 230.774113 
L 277.405052 235.741963 
L 278.557234 232.325887 
L 279.709415 248.86536 
L 280.787262 253.086769 
L 281.939443 248.026524 
L 283.054457 253.949971 
L 284.206639 257.622397 
L 285.321653 251.327506 
L 286.473834 251.751973 
L 287.626015 246.769187 
L 288.74103 247.977299 
L 289.893211 248.959061 
L 291.008225 255.233053 
L 292.160406 252.438531 
L 293.312588 233.882762 
L 294.353268 227.664755 
L 295.505449 226.564827 
L 296.620463 231.836948 
L 297.772644 242.14674 
L 298.887658 249.822808 
L 300.03984 248.531088 
L 301.192021 247.616434 
L 302.307035 251.08697 
L 303.459216 255.41142 
L 304.574231 253.812954 
L 305.726412 254.698726 
L 306.878593 246.479299 
L 307.919273 242.075593 
L 309.071454 252.442534 
L 310.186468 257.443592 
L 311.33865 247.769089 
L 312.453664 251.079104 
L 313.605845 242.753943 
L 314.758026 242.315508 
L 315.873041 243.21302 
L 317.025222 234.846986 
L 318.140236 232.943745 
L 319.292417 238.40819 
L 320.444599 245.889438 
L 321.485278 242.300699 
L 322.63746 246.566194 
L 323.752474 240.244472 
L 324.904655 241.505341 
L 326.019669 244.362107 
L 328.324032 257.63527 
L 329.439046 255.448411 
L 330.591227 252.705857 
L 331.706241 245.639236 
L 332.858423 234.849472 
L 334.010604 239.109685 
L 335.088451 243.723489 
L 336.240632 239.078778 
L 337.355646 229.621267 
L 338.507828 237.97692 
L 339.622842 253.19802 
L 340.775023 262.276245 
L 343.042219 252.945317 
L 344.1944 246.280011 
L 345.309414 243.655841 
L 346.461595 243.125043 
L 347.613777 240.453929 
L 348.654456 246.226303 
L 349.806638 245.095649 
L 350.921652 258.213114 
L 352.073833 250.303829 
L 353.188847 236.03021 
L 354.341029 230.139435 
L 355.49321 233.454508 
L 356.608224 232.899795 
L 357.760405 241.092477 
L 358.87542 247.422051 
L 360.027601 256.219039 
L 361.179782 249.693478 
L 362.220462 253.051061 
L 363.372643 236.275606 
L 364.487657 257.767595 
L 365.639839 254.571535 
L 366.754853 247.07384 
L 367.907034 247.602039 
L 369.059215 245.642534 
L 370.17423 252.10414 
L 371.326411 265.506424 
L 372.441425 265.260173 
L 373.593606 251.615309 
L 374.745788 247.780659 
L 375.786467 243.444235 
L 376.938649 255.577693 
L 378.053663 237.279603 
L 379.205844 230.742742 
L 380.320858 230.700437 
L 381.47304 224.877007 
L 382.625221 223.686218 
L 383.740235 226.077359 
L 384.892416 224.109322 
L 386.00743 231.886397 
L 387.159612 243.402424 
L 388.311793 247.635411 
L 389.38964 247.578469 
L 390.541821 253.445913 
L 391.656835 258.241197 
L 392.809017 253.096028 
L 393.924031 259.746131 
L 395.076212 263.598914 
L 396.228393 264.749832 
L 397.343408 260.355352 
L 398.495589 251.724929 
L 399.610603 244.331391 
L 400.762784 241.181758 
L 401.914966 243.2178 
L 402.955645 241.837957 
L 404.107827 238.11418 
L 405.222841 233.060542 
L 405.222841 233.060542 
" clip-path="url(#pda30ce3a86)" style="fill: none; stroke: #47a730; stroke-width: 0.5; stroke-linecap: square"/>
   </g>
   <g id="patch_12">
    <path d="M 45.36875 271.56 
L 45.36875 221.406514 
" style="fill: none; stroke: #000000; stroke-width: 0.8; stroke-linejoin: miter; stroke-linecap: square"/>
   </g>
   <g id="patch_13">
    <path d="M 45.36875 271.56 
L 422.35875 271.56 
" style="fill: none; stroke: #000000; stroke-width: 0.8; stroke-linejoin: miter; stroke-linecap: square"/>
   </g>
  </g>
  <g id="legend_1">
   <g id="line2d_85">
    <path d="M 60.411875 13.67875 
L 68.411875 13.67875 
L 76.411875 13.67875 
" style="fill: none; stroke: #4596f3; stroke-width: 0.5; stroke-linecap: square"/>
   </g>
   <g id="text_25">
    <!-- Observado -->
    <g transform="translate(82.811875 16.47875) scale(0.08 -0.08)">
     <use xlink:href="#DejaVuSerif-4f"/>
     <use xlink:href="#DejaVuSerif-62" transform="translate(81.982422 0)"/>
     <use xlink:href="#DejaVuSerif-73" transform="translate(145.996094 0)"/>
     <use xlink:href="#DejaVuSerif-65" transform="translate(197.314453 0)"/>
     <use xlink:href="#DejaVuSerif-72" transform="translate(256.494141 0)"/>
     <use xlink:href="#DejaVuSerif-76" transform="translate(304.296875 0)"/>
     <use xlink:href="#DejaVuSerif-61" transform="translate(360.791016 0)"/>
     <use xlink:href="#DejaVuSerif-64" transform="translate(420.410156 0)"/>
     <use xlink:href="#DejaVuSerif-6f" transform="translate(484.423828 0)"/>
    </g>
   </g>
   <g id="line2d_86">
    <path d="M 142.383125 13.67875 
L 150.383125 13.67875 
L 158.383125 13.67875 
" style="fill: none; stroke: #ff5656; stroke-width: 0.5; stroke-linecap: square"/>
   </g>
   <g id="text_26">
    <!-- Tendência -->
    <g transform="translate(164.783125 16.47875) scale(0.08 -0.08)">
     <use xlink:href="#DejaVuSerif-54"/>
     <use xlink:href="#DejaVuSerif-65" transform="translate(58.949219 0)"/>
     <use xlink:href="#DejaVuSerif-6e" transform="translate(118.128906 0)"/>
     <use xlink:href="#DejaVuSerif-64" transform="translate(182.533203 0)"/>
     <use xlink:href="#DejaVuSerif-ea" transform="translate(246.546875 0)"/>
     <use xlink:href="#DejaVuSerif-6e" transform="translate(305.726562 0)"/>
     <use xlink:href="#DejaVuSerif-63" transform="translate(370.130859 0)"/>
     <use xlink:href="#DejaVuSerif-69" transform="translate(426.136719 0)"/>
     <use xlink:href="#DejaVuSerif-61" transform="translate(458.119141 0)"/>
    </g>
   </g>
   <g id="line2d_87">
    <path d="M 222.204375 13.67875 
L 230.204375 13.67875 
L 238.204375 13.67875 
" style="fill: none; stroke: #ffa722; stroke-width: 0.5; stroke-linecap: square"/>
   </g>
   <g id="text_27">
    <!-- Sazonalidade -->
    <g transform="translate(244.604375 16.47875) scale(0.08 -0.08)">
     <use xlink:href="#DejaVuSerif-53"/>
     <use xlink:href="#DejaVuSerif-61" transform="translate(68.505859 0)"/>
     <use xlink:href="#DejaVuSerif-7a" transform="translate(128.125 0)"/>
     <use xlink:href="#DejaVuSerif-6f" transform="translate(180.810547 0)"/>
     <use xlink:href="#DejaVuSerif-6e" transform="translate(241.015625 0)"/>
     <use xlink:href="#DejaVuSerif-61" transform="translate(305.419922 0)"/>
     <use xlink:href="#DejaVuSerif-6c" transform="translate(365.039062 0)"/>
     <use xlink:href="#DejaVuSerif-69" transform="translate(397.021484 0)"/>
     <use xlink:href="#DejaVuSerif-64" transform="translate(429.003906 0)"/>
     <use xlink:href="#DejaVuSerif-61" transform="translate(493.017578 0)"/>
     <use xlink:href="#DejaVuSerif-64" transform="translate(552.636719 0)"/>
     <use xlink:href="#DejaVuSerif-65" transform="translate(616.650391 0)"/>
    </g>
   </g>
   <g id="line2d_88">
    <path d="M 314.673125 13.67875 
L 322.673125 13.67875 
L 330.673125 13.67875 
" style="fill: none; stroke: #47a730; stroke-width: 0.5; stroke-linecap: square"/>
   </g>
   <g id="text_28">
    <!-- Resíduo -->
    <g transform="translate(337.073125 16.47875) scale(0.08 -0.08)">
     <use xlink:href="#DejaVuSerif-52"/>
     <use xlink:href="#DejaVuSerif-65" transform="translate(75.292969 0)"/>
     <use xlink:href="#DejaVuSerif-73" transform="translate(134.472656 0)"/>
     <use xlink:href="#DejaVuSerif-ed" transform="translate(185.791016 0)"/>
     <use xlink:href="#DejaVuSerif-64" transform="translate(217.773438 0)"/>
     <use xlink:href="#DejaVuSerif-75" transform="translate(281.787109 0)"/>
     <use xlink:href="#DejaVuSerif-6f" transform="translate(346.191406 0)"/>
    </g>
   </g>
  </g>
 </g>
 <defs>
  <clipPath id="p1f28cee1e4">
   <rect x="45.36875" y="26.588874" width="376.99" height="50.153486"/>
  </clipPath>
  <clipPath id="p4bf0f9849d">
   <rect x="45.36875" y="91.528088" width="376.99" height="50.153486"/>
  </clipPath>
  <clipPath id="pdd74b0e3e2">
   <rect x="45.36875" y="156.467301" width="376.99" height="50.153486"/>
  </clipPath>
  <clipPath id="pda30ce3a86">
   <rect x="45.36875" y="221.406514" width="376.99" height="50.153486"/>
  </clipPath>
 </defs>
</svg>
