<?xml version="1.0" encoding="utf-8" standalone="no"?>
<!DOCTYPE svg PUBLIC "-//W3C//DTD SVG 1.1//EN"
  "http://www.w3.org/Graphics/SVG/1.1/DTD/svg11.dtd">
<svg xmlns:xlink="http://www.w3.org/1999/xlink" width="429.51875pt" height="305.245pt" viewBox="0 0 429.51875 305.245" xmlns="http://www.w3.org/2000/svg" version="1.1">
 <metadata>
  <rdf:RDF xmlns:dc="http://purl.org/dc/elements/1.1/" xmlns:cc="http://creativecommons.org/ns#" xmlns:rdf="http://www.w3.org/1999/02/22-rdf-syntax-ns#">
   <cc:Work>
    <dc:type rdf:resource="http://purl.org/dc/dcmitype/StillImage"/>
    <dc:date>2025-06-30T00:35:11.442830</dc:date>
    <dc:format>image/svg+xml</dc:format>
    <dc:creator>
     <cc:Agent>
      <dc:title>Matplotlib v3.10.3, https://matplotlib.org/</dc:title>
     </cc:Agent>
    </dc:creator>
   </cc:Work>
  </rdf:RDF>
 </metadata>
 <defs>
  <style type="text/css">*{stroke-linejoin: round; stroke-linecap: butt}</style>
 </defs>
 <g id="figure_1">
  <g id="patch_1">
   <path d="M 0 305.245 
L 429.51875 305.245 
L 429.51875 0 
L 0 0 
z
" style="fill: #ffffff"/>
  </g>
  <g id="axes_1">
   <g id="patch_2">
    <path d="M 50.45875 78.465 
L 422.31875 78.465 
L 422.31875 26.24 
L 50.45875 26.24 
z
" style="fill: #ffffff"/>
   </g>
   <g id="matplotlib.axis_1">
    <g id="xtick_1">
     <g id="line2d_1">
      <path d="M 66.268864 78.465 
L 66.268864 26.24 
" clip-path="url(#p747e863cc1)" style="fill: none; stroke-dasharray: 2.96,1.28; stroke-dashoffset: 0; stroke: #b0b0b0; stroke-opacity: 0.5; stroke-width: 0.8"/>
     </g>
     <g id="line2d_2">
      <defs>
       <path id="m1d9bfa8da1" d="M 0 0 
L 0 3.5 
" style="stroke: #000000; stroke-width: 0.8"/>
      </defs>
      <g>
       <use xlink:href="#m1d9bfa8da1" x="66.268864" y="78.465" style="stroke: #000000; stroke-width: 0.8"/>
      </g>
     </g>
    </g>
    <g id="xtick_2">
     <g id="line2d_3">
      <path d="M 119.47913 78.465 
L 119.47913 26.24 
" clip-path="url(#p747e863cc1)" style="fill: none; stroke-dasharray: 2.96,1.28; stroke-dashoffset: 0; stroke: #b0b0b0; stroke-opacity: 0.5; stroke-width: 0.8"/>
     </g>
     <g id="line2d_4">
      <g>
       <use xlink:href="#m1d9bfa8da1" x="119.47913" y="78.465" style="stroke: #000000; stroke-width: 0.8"/>
      </g>
     </g>
    </g>
    <g id="xtick_3">
     <g id="line2d_5">
      <path d="M 172.689396 78.465 
L 172.689396 26.24 
" clip-path="url(#p747e863cc1)" style="fill: none; stroke-dasharray: 2.96,1.28; stroke-dashoffset: 0; stroke: #b0b0b0; stroke-opacity: 0.5; stroke-width: 0.8"/>
     </g>
     <g id="line2d_6">
      <g>
       <use xlink:href="#m1d9bfa8da1" x="172.689396" y="78.465" style="stroke: #000000; stroke-width: 0.8"/>
      </g>
     </g>
    </g>
    <g id="xtick_4">
     <g id="line2d_7">
      <path d="M 225.899663 78.465 
L 225.899663 26.24 
" clip-path="url(#p747e863cc1)" style="fill: none; stroke-dasharray: 2.96,1.28; stroke-dashoffset: 0; stroke: #b0b0b0; stroke-opacity: 0.5; stroke-width: 0.8"/>
     </g>
     <g id="line2d_8">
      <g>
       <use xlink:href="#m1d9bfa8da1" x="225.899663" y="78.465" style="stroke: #000000; stroke-width: 0.8"/>
      </g>
     </g>
    </g>
    <g id="xtick_5">
     <g id="line2d_9">
      <path d="M 279.109929 78.465 
L 279.109929 26.24 
" clip-path="url(#p747e863cc1)" style="fill: none; stroke-dasharray: 2.96,1.28; stroke-dashoffset: 0; stroke: #b0b0b0; stroke-opacity: 0.5; stroke-width: 0.8"/>
     </g>
     <g id="line2d_10">
      <g>
       <use xlink:href="#m1d9bfa8da1" x="279.109929" y="78.465" style="stroke: #000000; stroke-width: 0.8"/>
      </g>
     </g>
    </g>
    <g id="xtick_6">
     <g id="line2d_11">
      <path d="M 332.320195 78.465 
L 332.320195 26.24 
" clip-path="url(#p747e863cc1)" style="fill: none; stroke-dasharray: 2.96,1.28; stroke-dashoffset: 0; stroke: #b0b0b0; stroke-opacity: 0.5; stroke-width: 0.8"/>
     </g>
     <g id="line2d_12">
      <g>
       <use xlink:href="#m1d9bfa8da1" x="332.320195" y="78.465" style="stroke: #000000; stroke-width: 0.8"/>
      </g>
     </g>
    </g>
    <g id="xtick_7">
     <g id="line2d_13">
      <path d="M 385.530461 78.465 
L 385.530461 26.24 
" clip-path="url(#p747e863cc1)" style="fill: none; stroke-dasharray: 2.96,1.28; stroke-dashoffset: 0; stroke: #b0b0b0; stroke-opacity: 0.5; stroke-width: 0.8"/>
     </g>
     <g id="line2d_14">
      <g>
       <use xlink:href="#m1d9bfa8da1" x="385.530461" y="78.465" style="stroke: #000000; stroke-width: 0.8"/>
      </g>
     </g>
    </g>
   </g>
   <g id="matplotlib.axis_2">
    <g id="ytick_1">
     <g id="line2d_15">
      <path d="M 50.45875 67.492637 
L 422.31875 67.492637 
" clip-path="url(#p747e863cc1)" style="fill: none; stroke-dasharray: 2.96,1.28; stroke-dashoffset: 0; stroke: #b0b0b0; stroke-opacity: 0.5; stroke-width: 0.8"/>
     </g>
     <g id="line2d_16">
      <defs>
       <path id="m45c30d3745" d="M 0 0 
L -3.5 0 
" style="stroke: #000000; stroke-width: 0.8"/>
      </defs>
      <g>
       <use xlink:href="#m45c30d3745" x="50.45875" y="67.492637" style="stroke: #000000; stroke-width: 0.8"/>
      </g>
     </g>
     <g id="text_1">
      <!-- 0 -->
      <g transform="translate(38.36875 70.532012) scale(0.08 -0.08)">
       <defs>
        <path id="DejaVuSerif-30" d="M 2034 219 
Q 2513 219 2750 744 
Q 2988 1269 2988 2328 
Q 2988 3391 2750 3916 
Q 2513 4441 2034 4441 
Q 1556 4441 1318 3916 
Q 1081 3391 1081 2328 
Q 1081 1269 1318 744 
Q 1556 219 2034 219 
z
M 2034 -91 
Q 1275 -91 848 546 
Q 422 1184 422 2328 
Q 422 3475 848 4112 
Q 1275 4750 2034 4750 
Q 2797 4750 3222 4112 
Q 3647 3475 3647 2328 
Q 3647 1184 3222 546 
Q 2797 -91 2034 -91 
z
" transform="scale(0.015625)"/>
       </defs>
       <use xlink:href="#DejaVuSerif-30"/>
      </g>
     </g>
    </g>
    <g id="ytick_2">
     <g id="line2d_17">
      <path d="M 50.45875 43.858926 
L 422.31875 43.858926 
" clip-path="url(#p747e863cc1)" style="fill: none; stroke-dasharray: 2.96,1.28; stroke-dashoffset: 0; stroke: #b0b0b0; stroke-opacity: 0.5; stroke-width: 0.8"/>
     </g>
     <g id="line2d_18">
      <g>
       <use xlink:href="#m45c30d3745" x="50.45875" y="43.858926" style="stroke: #000000; stroke-width: 0.8"/>
      </g>
     </g>
     <g id="text_2">
      <!-- 2 -->
      <g transform="translate(38.36875 46.898301) scale(0.08 -0.08)">
       <defs>
        <path id="DejaVuSerif-32" d="M 819 3553 
L 469 3553 
L 469 4384 
Q 803 4563 1142 4656 
Q 1481 4750 1806 4750 
Q 2534 4750 2956 4397 
Q 3378 4044 3378 3438 
Q 3378 2753 2422 1800 
Q 2347 1728 2309 1691 
L 1131 513 
L 3078 513 
L 3078 1088 
L 3444 1088 
L 3444 0 
L 434 0 
L 434 341 
L 1850 1753 
Q 2319 2222 2519 2614 
Q 2719 3006 2719 3438 
Q 2719 3909 2473 4175 
Q 2228 4441 1797 4441 
Q 1350 4441 1106 4219 
Q 863 3997 819 3553 
z
" transform="scale(0.015625)"/>
       </defs>
       <use xlink:href="#DejaVuSerif-32"/>
      </g>
     </g>
    </g>
    <g id="text_3">
     <!-- Observado -->
     <g transform="translate(32.705 74.138125) rotate(-90) scale(0.08 -0.08)">
      <defs>
       <path id="DejaVuSerif-4f" d="M 2625 244 
Q 3391 244 3781 770 
Q 4172 1297 4172 2328 
Q 4172 3363 3781 3889 
Q 3391 4416 2625 4416 
Q 1856 4416 1465 3889 
Q 1075 3363 1075 2328 
Q 1075 1297 1465 770 
Q 1856 244 2625 244 
z
M 2625 -91 
Q 2150 -91 1751 65 
Q 1353 222 1050 525 
Q 700 875 529 1319 
Q 359 1763 359 2328 
Q 359 2894 529 3339 
Q 700 3784 1050 4134 
Q 1356 4441 1750 4595 
Q 2144 4750 2625 4750 
Q 3641 4750 4266 4084 
Q 4891 3419 4891 2328 
Q 4891 1769 4719 1320 
Q 4547 872 4197 525 
Q 3891 219 3497 64 
Q 3103 -91 2625 -91 
z
" transform="scale(0.015625)"/>
       <path id="DejaVuSerif-62" d="M 738 331 
L 738 4531 
L 184 4531 
L 184 4863 
L 1313 4863 
L 1313 2803 
Q 1481 3116 1742 3264 
Q 2003 3413 2388 3413 
Q 3000 3413 3387 2928 
Q 3775 2444 3775 1663 
Q 3775 881 3387 395 
Q 3000 -91 2388 -91 
Q 2003 -91 1742 57 
Q 1481 206 1313 519 
L 1313 0 
L 184 0 
L 184 331 
L 738 331 
z
M 1313 1497 
Q 1313 897 1542 583 
Q 1772 269 2209 269 
Q 2650 269 2876 622 
Q 3103 975 3103 1663 
Q 3103 2353 2876 2703 
Q 2650 3053 2209 3053 
Q 1772 3053 1542 2737 
Q 1313 2422 1313 1825 
L 1313 1497 
z
" transform="scale(0.015625)"/>
       <path id="DejaVuSerif-73" d="M 359 184 
L 359 959 
L 691 959 
Q 703 588 923 403 
Q 1144 219 1575 219 
Q 1963 219 2166 364 
Q 2369 509 2369 788 
Q 2369 1006 2220 1140 
Q 2072 1275 1594 1428 
L 1178 1569 
Q 750 1706 558 1912 
Q 366 2119 366 2438 
Q 366 2894 700 3153 
Q 1034 3413 1625 3413 
Q 1888 3413 2178 3344 
Q 2469 3275 2778 3144 
L 2778 2419 
L 2447 2419 
Q 2434 2741 2221 2922 
Q 2009 3103 1644 3103 
Q 1281 3103 1095 2975 
Q 909 2847 909 2591 
Q 909 2381 1050 2254 
Q 1191 2128 1613 1997 
L 2069 1856 
Q 2541 1709 2748 1489 
Q 2956 1269 2956 922 
Q 2956 450 2595 179 
Q 2234 -91 1600 -91 
Q 1278 -91 972 -22 
Q 666 47 359 184 
z
" transform="scale(0.015625)"/>
       <path id="DejaVuSerif-65" d="M 3469 1600 
L 991 1600 
L 991 1575 
Q 991 903 1244 561 
Q 1497 219 1991 219 
Q 2369 219 2611 417 
Q 2853 616 2950 1006 
L 3413 1006 
Q 3275 459 2904 184 
Q 2534 -91 1931 -91 
Q 1203 -91 761 389 
Q 319 869 319 1663 
Q 319 2450 753 2931 
Q 1188 3413 1894 3413 
Q 2647 3413 3050 2948 
Q 3453 2484 3469 1600 
z
M 2791 1931 
Q 2772 2513 2545 2808 
Q 2319 3103 1894 3103 
Q 1497 3103 1269 2806 
Q 1041 2509 991 1931 
L 2791 1931 
z
" transform="scale(0.015625)"/>
       <path id="DejaVuSerif-72" d="M 3059 3328 
L 3059 2497 
L 2728 2497 
Q 2713 2744 2591 2866 
Q 2469 2988 2234 2988 
Q 1809 2988 1582 2694 
Q 1356 2400 1356 1850 
L 1356 331 
L 2022 331 
L 2022 0 
L 263 0 
L 263 331 
L 781 331 
L 781 2994 
L 231 2994 
L 231 3322 
L 1356 3322 
L 1356 2731 
Q 1525 3078 1790 3245 
Q 2056 3413 2438 3413 
Q 2578 3413 2733 3391 
Q 2888 3369 3059 3328 
z
" transform="scale(0.015625)"/>
       <path id="DejaVuSerif-76" d="M 1581 0 
L 359 2988 
L -19 2988 
L -19 3322 
L 1509 3322 
L 1509 2988 
L 978 2988 
L 1913 703 
L 2847 2988 
L 2350 2988 
L 2350 3322 
L 3597 3322 
L 3597 2988 
L 3225 2988 
L 2003 0 
L 1581 0 
z
" transform="scale(0.015625)"/>
       <path id="DejaVuSerif-61" d="M 2547 1044 
L 2547 1747 
L 1806 1747 
Q 1378 1747 1168 1562 
Q 959 1378 959 997 
Q 959 650 1171 447 
Q 1384 244 1747 244 
Q 2106 244 2326 466 
Q 2547 688 2547 1044 
z
M 3122 2075 
L 3122 331 
L 3634 331 
L 3634 0 
L 2547 0 
L 2547 359 
Q 2356 128 2106 18 
Q 1856 -91 1522 -91 
Q 969 -91 644 203 
Q 319 497 319 997 
Q 319 1513 691 1797 
Q 1063 2081 1741 2081 
L 2547 2081 
L 2547 2309 
Q 2547 2688 2317 2895 
Q 2088 3103 1672 3103 
Q 1328 3103 1125 2947 
Q 922 2791 872 2484 
L 575 2484 
L 575 3156 
Q 875 3284 1158 3348 
Q 1441 3413 1709 3413 
Q 2400 3413 2761 3070 
Q 3122 2728 3122 2075 
z
" transform="scale(0.015625)"/>
       <path id="DejaVuSerif-64" d="M 3359 331 
L 3909 331 
L 3909 0 
L 2784 0 
L 2784 519 
Q 2616 206 2355 57 
Q 2094 -91 1709 -91 
Q 1097 -91 708 395 
Q 319 881 319 1663 
Q 319 2444 706 2928 
Q 1094 3413 1709 3413 
Q 2094 3413 2355 3264 
Q 2616 3116 2784 2803 
L 2784 4531 
L 2241 4531 
L 2241 4863 
L 3359 4863 
L 3359 331 
z
M 2784 1497 
L 2784 1825 
Q 2784 2422 2554 2737 
Q 2325 3053 1888 3053 
Q 1444 3053 1217 2703 
Q 991 2353 991 1663 
Q 991 975 1217 622 
Q 1444 269 1888 269 
Q 2325 269 2554 583 
Q 2784 897 2784 1497 
z
" transform="scale(0.015625)"/>
       <path id="DejaVuSerif-6f" d="M 1925 219 
Q 2388 219 2623 584 
Q 2859 950 2859 1663 
Q 2859 2375 2623 2739 
Q 2388 3103 1925 3103 
Q 1463 3103 1227 2739 
Q 991 2375 991 1663 
Q 991 950 1228 584 
Q 1466 219 1925 219 
z
M 1925 -91 
Q 1200 -91 759 389 
Q 319 869 319 1663 
Q 319 2456 758 2934 
Q 1197 3413 1925 3413 
Q 2653 3413 3092 2934 
Q 3531 2456 3531 1663 
Q 3531 869 3092 389 
Q 2653 -91 1925 -91 
z
" transform="scale(0.015625)"/>
      </defs>
      <use xlink:href="#DejaVuSerif-4f"/>
      <use xlink:href="#DejaVuSerif-62" transform="translate(81.982422 0)"/>
      <use xlink:href="#DejaVuSerif-73" transform="translate(145.996094 0)"/>
      <use xlink:href="#DejaVuSerif-65" transform="translate(197.314453 0)"/>
      <use xlink:href="#DejaVuSerif-72" transform="translate(256.494141 0)"/>
      <use xlink:href="#DejaVuSerif-76" transform="translate(304.296875 0)"/>
      <use xlink:href="#DejaVuSerif-61" transform="translate(360.791016 0)"/>
      <use xlink:href="#DejaVuSerif-64" transform="translate(420.410156 0)"/>
      <use xlink:href="#DejaVuSerif-6f" transform="translate(484.423828 0)"/>
     </g>
    </g>
   </g>
   <g id="line2d_19">
    <path d="M 67.361477 76.091136 
L 154.916221 75.983011 
L 159.359515 75.913648 
L 167.080648 75.916178 
L 168.209682 75.837671 
L 172.652976 75.89162 
L 174.838203 75.914832 
L 177.059849 76.000512 
L 179.281496 75.923358 
L 181.539564 75.889056 
L 184.853824 75.834084 
L 188.131664 75.951503 
L 195.925639 75.741625 
L 198.147286 75.654983 
L 200.405353 75.770639 
L 201.425125 75.619005 
L 204.775806 75.749276 
L 205.868419 75.654717 
L 206.997453 75.669825 
L 209.2191 75.315945 
L 210.348134 75.538288 
L 211.440747 75.457337 
L 214.718587 75.817907 
L 215.847621 75.797516 
L 216.940234 75.919823 
L 218.069268 75.834435 
L 222.512561 75.101768 
L 223.641595 75.067747 
L 224.734208 74.909619 
L 230.270116 75.341537 
L 231.399149 75.258175 
L 232.491763 75.291925 
L 234.74983 74.764223 
L 235.842443 74.66902 
L 238.06409 74.894569 
L 239.193124 74.788557 
L 240.322158 74.941494 
L 241.34193 74.807995 
L 242.470964 74.917173 
L 243.563577 75.16786 
L 245.785224 75.08878 
L 246.914258 74.937275 
L 248.043292 74.499234 
L 250.264939 74.176625 
L 251.357552 74.092706 
L 252.486585 74.461692 
L 254.635392 74.185226 
L 256.857039 74.434211 
L 257.986072 74.44429 
L 259.078686 73.174405 
L 260.207719 72.227581 
L 261.336753 71.522848 
L 262.429366 71.522405 
L 263.5584 70.830963 
L 264.651013 71.598098 
L 265.780047 71.455046 
L 266.909081 70.91905 
L 269.057887 72.197254 
L 270.1505 72.539801 
L 271.279534 70.630254 
L 272.372147 70.155207 
L 273.501181 69.280201 
L 274.630214 67.010109 
L 275.722828 68.073338 
L 276.851861 67.259167 
L 277.944475 68.377488 
L 279.073508 68.124493 
L 280.202542 71.153067 
L 281.258735 68.777127 
L 282.387769 68.650155 
L 283.480382 67.495959 
L 284.609416 67.37106 
L 285.702029 65.935317 
L 286.831063 64.059535 
L 287.960096 63.802064 
L 289.05271 62.741413 
L 290.181743 62.879553 
L 291.274357 63.770191 
L 292.40339 65.185241 
L 293.532424 65.785304 
L 294.552196 67.29143 
L 295.68123 68.533748 
L 296.773843 66.287733 
L 297.902877 65.924241 
L 298.99549 63.224975 
L 300.124524 60.821194 
L 301.253558 59.890225 
L 302.346171 56.739454 
L 303.475205 57.94604 
L 304.567818 60.982331 
L 305.696852 62.376651 
L 306.825885 63.399222 
L 307.845658 67.313049 
L 308.974692 67.67051 
L 310.067305 65.69373 
L 311.196338 62.216204 
L 312.288952 59.399397 
L 313.417985 57.292615 
L 314.547019 56.802541 
L 315.639632 55.009753 
L 316.768666 58.53892 
L 317.861279 56.473584 
L 318.990313 62.247731 
L 320.119347 59.991386 
L 321.139119 66.736806 
L 323.360766 65.765929 
L 324.4898 61.286002 
L 325.582413 55.719978 
L 326.711447 56.487896 
L 327.840481 51.673892 
L 328.933094 52.780517 
L 330.062128 53.160754 
L 331.154741 55.835123 
L 332.283775 56.75016 
L 333.412808 65.661091 
L 334.469001 64.839313 
L 335.598035 67.487913 
L 336.690648 63.895031 
L 337.819682 61.471077 
L 338.912295 56.656365 
L 340.041329 53.914499 
L 341.170363 50.429278 
L 342.262976 50.325012 
L 343.392009 54.570696 
L 344.484623 56.187986 
L 345.613656 55.061465 
L 346.74269 55.288322 
L 347.762463 61.198209 
L 348.891496 60.429421 
L 351.113143 55.532991 
L 352.205757 52.681028 
L 353.33479 48.034634 
L 354.463824 44.231715 
L 355.556437 44.315064 
L 356.685471 47.772609 
L 357.778084 52.329549 
L 358.907118 52.629797 
L 360.036152 58.060145 
L 361.055924 56.632159 
L 362.184958 55.406914 
L 363.277571 56.165837 
L 364.406605 53.492434 
L 365.499218 52.916319 
L 366.628252 44.396478 
L 367.757285 40.542117 
L 368.849899 39.676813 
L 369.978932 39.003195 
L 371.071546 51.54213 
L 372.200579 50.992616 
L 373.329613 51.283588 
L 374.349385 47.875723 
L 376.571032 56.614427 
L 378.792679 41.67299 
L 379.921713 37.466335 
L 381.050747 40.65068 
L 382.14336 39.254426 
L 383.272394 38.421802 
L 384.365007 43.692388 
L 385.494041 43.957181 
L 386.623074 54.744014 
L 387.679267 50.152484 
L 388.808301 55.857223 
L 389.900914 52.435204 
L 391.029948 42.105 
L 392.122561 37.59695 
L 394.380629 29.935741 
L 395.473242 28.613864 
L 396.602276 34.338969 
L 397.694889 35.941602 
L 398.823923 39.548979 
L 399.952956 53.518216 
L 400.972729 44.599295 
L 402.101762 43.768462 
L 403.194376 46.148174 
L 404.323409 36.198157 
L 405.416023 34.164357 
L 405.416023 34.164357 
" clip-path="url(#p747e863cc1)" style="fill: none; stroke: #4596f3; stroke-width: 0.5; stroke-linecap: square"/>
   </g>
   <g id="patch_3">
    <path d="M 50.45875 78.465 
L 50.45875 26.24 
" style="fill: none; stroke: #000000; stroke-width: 0.8; stroke-linejoin: miter; stroke-linecap: square"/>
   </g>
   <g id="patch_4">
    <path d="M 50.45875 78.465 
L 422.31875 78.465 
" style="fill: none; stroke: #000000; stroke-width: 0.8; stroke-linejoin: miter; stroke-linecap: square"/>
   </g>
  </g>
  <g id="axes_2">
   <g id="patch_5">
    <path d="M 50.45875 142.83 
L 422.31875 142.83 
L 422.31875 90.605 
L 50.45875 90.605 
z
" style="fill: #ffffff"/>
   </g>
   <g id="matplotlib.axis_3">
    <g id="xtick_8">
     <g id="line2d_20">
      <path d="M 66.268864 142.83 
L 66.268864 90.605 
" clip-path="url(#peef506eb28)" style="fill: none; stroke-dasharray: 2.96,1.28; stroke-dashoffset: 0; stroke: #b0b0b0; stroke-opacity: 0.5; stroke-width: 0.8"/>
     </g>
     <g id="line2d_21">
      <g>
       <use xlink:href="#m1d9bfa8da1" x="66.268864" y="142.83" style="stroke: #000000; stroke-width: 0.8"/>
      </g>
     </g>
    </g>
    <g id="xtick_9">
     <g id="line2d_22">
      <path d="M 119.47913 142.83 
L 119.47913 90.605 
" clip-path="url(#peef506eb28)" style="fill: none; stroke-dasharray: 2.96,1.28; stroke-dashoffset: 0; stroke: #b0b0b0; stroke-opacity: 0.5; stroke-width: 0.8"/>
     </g>
     <g id="line2d_23">
      <g>
       <use xlink:href="#m1d9bfa8da1" x="119.47913" y="142.83" style="stroke: #000000; stroke-width: 0.8"/>
      </g>
     </g>
    </g>
    <g id="xtick_10">
     <g id="line2d_24">
      <path d="M 172.689396 142.83 
L 172.689396 90.605 
" clip-path="url(#peef506eb28)" style="fill: none; stroke-dasharray: 2.96,1.28; stroke-dashoffset: 0; stroke: #b0b0b0; stroke-opacity: 0.5; stroke-width: 0.8"/>
     </g>
     <g id="line2d_25">
      <g>
       <use xlink:href="#m1d9bfa8da1" x="172.689396" y="142.83" style="stroke: #000000; stroke-width: 0.8"/>
      </g>
     </g>
    </g>
    <g id="xtick_11">
     <g id="line2d_26">
      <path d="M 225.899663 142.83 
L 225.899663 90.605 
" clip-path="url(#peef506eb28)" style="fill: none; stroke-dasharray: 2.96,1.28; stroke-dashoffset: 0; stroke: #b0b0b0; stroke-opacity: 0.5; stroke-width: 0.8"/>
     </g>
     <g id="line2d_27">
      <g>
       <use xlink:href="#m1d9bfa8da1" x="225.899663" y="142.83" style="stroke: #000000; stroke-width: 0.8"/>
      </g>
     </g>
    </g>
    <g id="xtick_12">
     <g id="line2d_28">
      <path d="M 279.109929 142.83 
L 279.109929 90.605 
" clip-path="url(#peef506eb28)" style="fill: none; stroke-dasharray: 2.96,1.28; stroke-dashoffset: 0; stroke: #b0b0b0; stroke-opacity: 0.5; stroke-width: 0.8"/>
     </g>
     <g id="line2d_29">
      <g>
       <use xlink:href="#m1d9bfa8da1" x="279.109929" y="142.83" style="stroke: #000000; stroke-width: 0.8"/>
      </g>
     </g>
    </g>
    <g id="xtick_13">
     <g id="line2d_30">
      <path d="M 332.320195 142.83 
L 332.320195 90.605 
" clip-path="url(#peef506eb28)" style="fill: none; stroke-dasharray: 2.96,1.28; stroke-dashoffset: 0; stroke: #b0b0b0; stroke-opacity: 0.5; stroke-width: 0.8"/>
     </g>
     <g id="line2d_31">
      <g>
       <use xlink:href="#m1d9bfa8da1" x="332.320195" y="142.83" style="stroke: #000000; stroke-width: 0.8"/>
      </g>
     </g>
    </g>
    <g id="xtick_14">
     <g id="line2d_32">
      <path d="M 385.530461 142.83 
L 385.530461 90.605 
" clip-path="url(#peef506eb28)" style="fill: none; stroke-dasharray: 2.96,1.28; stroke-dashoffset: 0; stroke: #b0b0b0; stroke-opacity: 0.5; stroke-width: 0.8"/>
     </g>
     <g id="line2d_33">
      <g>
       <use xlink:href="#m1d9bfa8da1" x="385.530461" y="142.83" style="stroke: #000000; stroke-width: 0.8"/>
      </g>
     </g>
    </g>
   </g>
   <g id="matplotlib.axis_4">
    <g id="ytick_3">
     <g id="line2d_34">
      <path d="M 50.45875 130.341107 
L 422.31875 130.341107 
" clip-path="url(#peef506eb28)" style="fill: none; stroke-dasharray: 2.96,1.28; stroke-dashoffset: 0; stroke: #b0b0b0; stroke-opacity: 0.5; stroke-width: 0.8"/>
     </g>
     <g id="line2d_35">
      <g>
       <use xlink:href="#m45c30d3745" x="50.45875" y="130.341107" style="stroke: #000000; stroke-width: 0.8"/>
      </g>
     </g>
     <g id="text_4">
      <!-- 0 -->
      <g transform="translate(38.36875 133.380482) scale(0.08 -0.08)">
       <use xlink:href="#DejaVuSerif-30"/>
      </g>
     </g>
    </g>
    <g id="ytick_4">
     <g id="line2d_36">
      <path d="M 50.45875 102.560911 
L 422.31875 102.560911 
" clip-path="url(#peef506eb28)" style="fill: none; stroke-dasharray: 2.96,1.28; stroke-dashoffset: 0; stroke: #b0b0b0; stroke-opacity: 0.5; stroke-width: 0.8"/>
     </g>
     <g id="line2d_37">
      <g>
       <use xlink:href="#m45c30d3745" x="50.45875" y="102.560911" style="stroke: #000000; stroke-width: 0.8"/>
      </g>
     </g>
     <g id="text_5">
      <!-- 2 -->
      <g transform="translate(38.36875 105.600286) scale(0.08 -0.08)">
       <use xlink:href="#DejaVuSerif-32"/>
      </g>
     </g>
    </g>
    <g id="text_6">
     <!-- Tendência -->
     <g transform="translate(32.705 137.428125) rotate(-90) scale(0.08 -0.08)">
      <defs>
       <path id="DejaVuSerif-54" d="M 1222 0 
L 1222 331 
L 1819 331 
L 1819 4294 
L 447 4294 
L 447 3566 
L 63 3566 
L 63 4666 
L 4206 4666 
L 4206 3566 
L 3822 3566 
L 3822 4294 
L 2450 4294 
L 2450 331 
L 3047 331 
L 3047 0 
L 1222 0 
z
" transform="scale(0.015625)"/>
       <path id="DejaVuSerif-6e" d="M 263 0 
L 263 331 
L 781 331 
L 781 2988 
L 231 2988 
L 231 3322 
L 1356 3322 
L 1356 2731 
Q 1516 3069 1770 3241 
Q 2025 3413 2363 3413 
Q 2913 3413 3172 3097 
Q 3431 2781 3431 2113 
L 3431 331 
L 3944 331 
L 3944 0 
L 2356 0 
L 2356 331 
L 2853 331 
L 2853 1931 
Q 2853 2541 2703 2767 
Q 2553 2994 2175 2994 
Q 1775 2994 1565 2701 
Q 1356 2409 1356 1850 
L 1356 331 
L 1856 331 
L 1856 0 
L 263 0 
z
" transform="scale(0.015625)"/>
       <path id="DejaVuSerif-ea" d="M 3469 1600 
L 991 1600 
L 991 1575 
Q 991 903 1244 561 
Q 1497 219 1991 219 
Q 2369 219 2611 417 
Q 2853 616 2950 1006 
L 3413 1006 
Q 3275 459 2904 184 
Q 2534 -91 1931 -91 
Q 1203 -91 761 389 
Q 319 869 319 1663 
Q 319 2450 753 2931 
Q 1188 3413 1894 3413 
Q 2647 3413 3050 2948 
Q 3453 2484 3469 1600 
z
M 2791 1931 
Q 2772 2513 2545 2808 
Q 2319 3103 1894 3103 
Q 1497 3103 1269 2806 
Q 1041 2509 991 1931 
L 2791 1931 
z
M 1634 5119 
L 2159 5119 
L 2893 3944 
L 2530 3944 
L 1896 4756 
L 1262 3944 
L 899 3944 
L 1634 5119 
z
" transform="scale(0.015625)"/>
       <path id="DejaVuSerif-63" d="M 3291 997 
Q 3169 466 2822 187 
Q 2475 -91 1925 -91 
Q 1200 -91 759 389 
Q 319 869 319 1663 
Q 319 2459 759 2936 
Q 1200 3413 1925 3413 
Q 2241 3413 2553 3339 
Q 2866 3266 3181 3116 
L 3181 2266 
L 2847 2266 
Q 2781 2703 2561 2903 
Q 2341 3103 1931 3103 
Q 1466 3103 1228 2742 
Q 991 2381 991 1663 
Q 991 944 1227 581 
Q 1463 219 1931 219 
Q 2303 219 2525 412 
Q 2747 606 2828 997 
L 3291 997 
z
" transform="scale(0.015625)"/>
       <path id="DejaVuSerif-69" d="M 622 4353 
Q 622 4497 726 4603 
Q 831 4709 978 4709 
Q 1122 4709 1226 4603 
Q 1331 4497 1331 4353 
Q 1331 4206 1228 4103 
Q 1125 4000 978 4000 
Q 831 4000 726 4103 
Q 622 4206 622 4353 
z
M 1356 331 
L 1900 331 
L 1900 0 
L 231 0 
L 231 331 
L 781 331 
L 781 2988 
L 231 2988 
L 231 3322 
L 1356 3322 
L 1356 331 
z
" transform="scale(0.015625)"/>
      </defs>
      <use xlink:href="#DejaVuSerif-54"/>
      <use xlink:href="#DejaVuSerif-65" transform="translate(58.949219 0)"/>
      <use xlink:href="#DejaVuSerif-6e" transform="translate(118.128906 0)"/>
      <use xlink:href="#DejaVuSerif-64" transform="translate(182.533203 0)"/>
      <use xlink:href="#DejaVuSerif-ea" transform="translate(246.546875 0)"/>
      <use xlink:href="#DejaVuSerif-6e" transform="translate(305.726562 0)"/>
      <use xlink:href="#DejaVuSerif-63" transform="translate(370.130859 0)"/>
      <use xlink:href="#DejaVuSerif-69" transform="translate(426.136719 0)"/>
      <use xlink:href="#DejaVuSerif-61" transform="translate(458.119141 0)"/>
     </g>
    </g>
   </g>
   <g id="line2d_38">
    <path d="M 67.361477 140.456136 
L 161.508321 140.25449 
L 179.281496 140.239869 
L 194.833025 140.145168 
L 209.2191 139.914969 
L 216.940234 139.841997 
L 224.734208 139.451677 
L 230.270116 139.293367 
L 236.971477 139.093639 
L 250.264939 138.549742 
L 253.615619 138.068401 
L 259.078686 136.835719 
L 275.722828 132.353826 
L 289.05271 127.932146 
L 294.552196 126.696941 
L 300.124524 125.13714 
L 311.196338 123.012198 
L 321.139119 121.334805 
L 325.582413 120.399874 
L 328.933094 120.157476 
L 336.690648 119.842034 
L 337.819682 119.675762 
L 340.041329 118.991315 
L 342.262976 117.856899 
L 345.613656 116.10995 
L 349.98411 114.129338 
L 352.205757 113.381634 
L 356.685471 112.239401 
L 361.055924 111.233541 
L 364.406605 110.160196 
L 374.349385 105.986762 
L 377.700066 105.201144 
L 379.921713 104.781602 
L 383.272394 104.377135 
L 384.365007 104.069387 
L 386.623074 103.079629 
L 397.694889 96.927267 
L 405.416023 92.978864 
L 405.416023 92.978864 
" clip-path="url(#peef506eb28)" style="fill: none; stroke: #ff5656; stroke-width: 0.5; stroke-linecap: square"/>
   </g>
   <g id="patch_6">
    <path d="M 50.45875 142.83 
L 50.45875 90.605 
" style="fill: none; stroke: #000000; stroke-width: 0.8; stroke-linejoin: miter; stroke-linecap: square"/>
   </g>
   <g id="patch_7">
    <path d="M 50.45875 142.83 
L 422.31875 142.83 
" style="fill: none; stroke: #000000; stroke-width: 0.8; stroke-linejoin: miter; stroke-linecap: square"/>
   </g>
  </g>
  <g id="axes_3">
   <g id="patch_8">
    <path d="M 50.45875 207.195 
L 422.31875 207.195 
L 422.31875 154.97 
L 50.45875 154.97 
z
" style="fill: #ffffff"/>
   </g>
   <g id="matplotlib.axis_5">
    <g id="xtick_15">
     <g id="line2d_39">
      <path d="M 66.268864 207.195 
L 66.268864 154.97 
" clip-path="url(#p2860e8d1ea)" style="fill: none; stroke-dasharray: 2.96,1.28; stroke-dashoffset: 0; stroke: #b0b0b0; stroke-opacity: 0.5; stroke-width: 0.8"/>
     </g>
     <g id="line2d_40">
      <g>
       <use xlink:href="#m1d9bfa8da1" x="66.268864" y="207.195" style="stroke: #000000; stroke-width: 0.8"/>
      </g>
     </g>
    </g>
    <g id="xtick_16">
     <g id="line2d_41">
      <path d="M 119.47913 207.195 
L 119.47913 154.97 
" clip-path="url(#p2860e8d1ea)" style="fill: none; stroke-dasharray: 2.96,1.28; stroke-dashoffset: 0; stroke: #b0b0b0; stroke-opacity: 0.5; stroke-width: 0.8"/>
     </g>
     <g id="line2d_42">
      <g>
       <use xlink:href="#m1d9bfa8da1" x="119.47913" y="207.195" style="stroke: #000000; stroke-width: 0.8"/>
      </g>
     </g>
    </g>
    <g id="xtick_17">
     <g id="line2d_43">
      <path d="M 172.689396 207.195 
L 172.689396 154.97 
" clip-path="url(#p2860e8d1ea)" style="fill: none; stroke-dasharray: 2.96,1.28; stroke-dashoffset: 0; stroke: #b0b0b0; stroke-opacity: 0.5; stroke-width: 0.8"/>
     </g>
     <g id="line2d_44">
      <g>
       <use xlink:href="#m1d9bfa8da1" x="172.689396" y="207.195" style="stroke: #000000; stroke-width: 0.8"/>
      </g>
     </g>
    </g>
    <g id="xtick_18">
     <g id="line2d_45">
      <path d="M 225.899663 207.195 
L 225.899663 154.97 
" clip-path="url(#p2860e8d1ea)" style="fill: none; stroke-dasharray: 2.96,1.28; stroke-dashoffset: 0; stroke: #b0b0b0; stroke-opacity: 0.5; stroke-width: 0.8"/>
     </g>
     <g id="line2d_46">
      <g>
       <use xlink:href="#m1d9bfa8da1" x="225.899663" y="207.195" style="stroke: #000000; stroke-width: 0.8"/>
      </g>
     </g>
    </g>
    <g id="xtick_19">
     <g id="line2d_47">
      <path d="M 279.109929 207.195 
L 279.109929 154.97 
" clip-path="url(#p2860e8d1ea)" style="fill: none; stroke-dasharray: 2.96,1.28; stroke-dashoffset: 0; stroke: #b0b0b0; stroke-opacity: 0.5; stroke-width: 0.8"/>
     </g>
     <g id="line2d_48">
      <g>
       <use xlink:href="#m1d9bfa8da1" x="279.109929" y="207.195" style="stroke: #000000; stroke-width: 0.8"/>
      </g>
     </g>
    </g>
    <g id="xtick_20">
     <g id="line2d_49">
      <path d="M 332.320195 207.195 
L 332.320195 154.97 
" clip-path="url(#p2860e8d1ea)" style="fill: none; stroke-dasharray: 2.96,1.28; stroke-dashoffset: 0; stroke: #b0b0b0; stroke-opacity: 0.5; stroke-width: 0.8"/>
     </g>
     <g id="line2d_50">
      <g>
       <use xlink:href="#m1d9bfa8da1" x="332.320195" y="207.195" style="stroke: #000000; stroke-width: 0.8"/>
      </g>
     </g>
    </g>
    <g id="xtick_21">
     <g id="line2d_51">
      <path d="M 385.530461 207.195 
L 385.530461 154.97 
" clip-path="url(#p2860e8d1ea)" style="fill: none; stroke-dasharray: 2.96,1.28; stroke-dashoffset: 0; stroke: #b0b0b0; stroke-opacity: 0.5; stroke-width: 0.8"/>
     </g>
     <g id="line2d_52">
      <g>
       <use xlink:href="#m1d9bfa8da1" x="385.530461" y="207.195" style="stroke: #000000; stroke-width: 0.8"/>
      </g>
     </g>
    </g>
   </g>
   <g id="matplotlib.axis_6">
    <g id="ytick_5">
     <g id="line2d_53">
      <path d="M 50.45875 204.444142 
L 422.31875 204.444142 
" clip-path="url(#p2860e8d1ea)" style="fill: none; stroke-dasharray: 2.96,1.28; stroke-dashoffset: 0; stroke: #b0b0b0; stroke-opacity: 0.5; stroke-width: 0.8"/>
     </g>
     <g id="line2d_54">
      <g>
       <use xlink:href="#m45c30d3745" x="50.45875" y="204.444142" style="stroke: #000000; stroke-width: 0.8"/>
      </g>
     </g>
     <g id="text_7">
      <!-- −1 -->
      <g transform="translate(31.665 207.483517) scale(0.08 -0.08)">
       <defs>
        <path id="DejaVuSerif-2212" d="M 678 2259 
L 4684 2259 
L 4684 1753 
L 678 1753 
L 678 2259 
z
" transform="scale(0.015625)"/>
        <path id="DejaVuSerif-31" d="M 909 0 
L 909 331 
L 1722 331 
L 1722 4213 
L 781 3603 
L 781 4013 
L 1919 4750 
L 2350 4750 
L 2350 331 
L 3163 331 
L 3163 0 
L 909 0 
z
" transform="scale(0.015625)"/>
       </defs>
       <use xlink:href="#DejaVuSerif-2212"/>
       <use xlink:href="#DejaVuSerif-31" transform="translate(83.789062 0)"/>
      </g>
     </g>
    </g>
    <g id="ytick_6">
     <g id="line2d_55">
      <path d="M 50.45875 178.67342 
L 422.31875 178.67342 
" clip-path="url(#p2860e8d1ea)" style="fill: none; stroke-dasharray: 2.96,1.28; stroke-dashoffset: 0; stroke: #b0b0b0; stroke-opacity: 0.5; stroke-width: 0.8"/>
     </g>
     <g id="line2d_56">
      <g>
       <use xlink:href="#m45c30d3745" x="50.45875" y="178.67342" style="stroke: #000000; stroke-width: 0.8"/>
      </g>
     </g>
     <g id="text_8">
      <!-- 0 -->
      <g transform="translate(38.36875 181.712795) scale(0.08 -0.08)">
       <use xlink:href="#DejaVuSerif-30"/>
      </g>
     </g>
    </g>
    <g id="text_9">
     <!-- Sazonalidade -->
     <g transform="translate(26.00125 208.116875) rotate(-90) scale(0.08 -0.08)">
      <defs>
       <path id="DejaVuSerif-53" d="M 594 225 
L 594 1288 
L 953 1284 
Q 969 753 1261 498 
Q 1553 244 2150 244 
Q 2706 244 2998 464 
Q 3291 684 3291 1106 
Q 3291 1444 3114 1625 
Q 2938 1806 2369 1978 
L 1753 2163 
Q 1084 2366 811 2669 
Q 538 2972 538 3500 
Q 538 4094 959 4422 
Q 1381 4750 2144 4750 
Q 2469 4750 2856 4679 
Q 3244 4609 3681 4475 
L 3681 3481 
L 3328 3481 
Q 3275 3975 2998 4195 
Q 2722 4416 2156 4416 
Q 1663 4416 1405 4214 
Q 1147 4013 1147 3628 
Q 1147 3294 1340 3103 
Q 1534 2913 2163 2725 
L 2741 2553 
Q 3375 2363 3645 2067 
Q 3916 1772 3916 1275 
Q 3916 597 3481 253 
Q 3047 -91 2188 -91 
Q 1803 -91 1404 -12 
Q 1006 66 594 225 
z
" transform="scale(0.015625)"/>
       <path id="DejaVuSerif-7a" d="M 256 0 
L 256 269 
L 2338 2988 
L 691 2988 
L 691 2413 
L 359 2413 
L 359 3322 
L 3078 3322 
L 3078 3053 
L 997 331 
L 2803 331 
L 2803 934 
L 3138 934 
L 3138 0 
L 256 0 
z
" transform="scale(0.015625)"/>
       <path id="DejaVuSerif-6c" d="M 1313 331 
L 1856 331 
L 1856 0 
L 184 0 
L 184 331 
L 738 331 
L 738 4531 
L 184 4531 
L 184 4863 
L 1313 4863 
L 1313 331 
z
" transform="scale(0.015625)"/>
      </defs>
      <use xlink:href="#DejaVuSerif-53"/>
      <use xlink:href="#DejaVuSerif-61" transform="translate(68.505859 0)"/>
      <use xlink:href="#DejaVuSerif-7a" transform="translate(128.125 0)"/>
      <use xlink:href="#DejaVuSerif-6f" transform="translate(180.810547 0)"/>
      <use xlink:href="#DejaVuSerif-6e" transform="translate(241.015625 0)"/>
      <use xlink:href="#DejaVuSerif-61" transform="translate(305.419922 0)"/>
      <use xlink:href="#DejaVuSerif-6c" transform="translate(365.039062 0)"/>
      <use xlink:href="#DejaVuSerif-69" transform="translate(397.021484 0)"/>
      <use xlink:href="#DejaVuSerif-64" transform="translate(429.003906 0)"/>
      <use xlink:href="#DejaVuSerif-61" transform="translate(493.017578 0)"/>
      <use xlink:href="#DejaVuSerif-64" transform="translate(552.636719 0)"/>
      <use xlink:href="#DejaVuSerif-65" transform="translate(616.650391 0)"/>
     </g>
    </g>
   </g>
   <g id="line2d_57">
    <path d="M 67.361477 178.670301 
L 83.932779 178.660596 
L 116.092029 178.658032 
L 123.849583 178.700674 
L 147.195087 178.668233 
L 153.787187 178.704132 
L 157.137868 178.576283 
L 162.637354 178.748496 
L 164.859001 178.765242 
L 171.523942 178.5353 
L 177.059849 178.88764 
L 181.539564 178.540543 
L 182.632177 178.434522 
L 188.131664 178.754942 
L 190.353311 178.978743 
L 193.703992 178.746502 
L 194.833025 178.461652 
L 195.925639 178.332311 
L 202.554159 178.90126 
L 203.646772 179.091347 
L 205.868419 178.868898 
L 206.997453 178.732293 
L 208.126487 178.346459 
L 209.2191 178.205644 
L 212.569781 178.54906 
L 216.940234 179.329119 
L 218.069268 179.214894 
L 220.290915 178.632163 
L 221.419948 178.058397 
L 223.641595 178.021291 
L 229.177502 179.374649 
L 230.270116 179.732984 
L 231.399149 179.440473 
L 233.620796 178.394613 
L 234.74983 177.496176 
L 235.842443 177.649482 
L 236.971477 177.547643 
L 238.06409 178.186235 
L 239.193124 178.581365 
L 240.322158 179.32787 
L 241.34193 179.343707 
L 242.470964 179.978416 
L 243.563577 180.190907 
L 244.692611 179.737895 
L 246.914258 177.925947 
L 248.043292 176.763949 
L 249.135905 176.89987 
L 250.264939 176.791255 
L 251.357552 177.986128 
L 252.486585 178.658786 
L 253.615619 179.936182 
L 254.635392 180.166513 
L 255.764425 181.103102 
L 256.857039 180.851924 
L 257.986072 180.189419 
L 261.336753 175.861426 
L 262.429366 175.526579 
L 263.5584 175.744364 
L 264.651013 177.550669 
L 265.780047 178.875292 
L 266.909081 180.472393 
L 269.057887 182.846311 
L 270.1505 181.997315 
L 271.279534 180.689926 
L 272.372147 178.321752 
L 273.501181 176.171991 
L 274.630214 174.591248 
L 275.722828 173.684626 
L 276.851861 174.598684 
L 280.202542 181.064011 
L 281.258735 183.752239 
L 282.387769 185.110602 
L 283.480382 183.658192 
L 284.609416 181.246221 
L 285.702029 177.504327 
L 287.960096 172.7566 
L 289.05271 171.629067 
L 290.181743 173.378457 
L 291.274357 175.839872 
L 292.40339 179.174574 
L 293.532424 182.100147 
L 294.552196 186.058661 
L 295.68123 187.651474 
L 296.773843 185.363858 
L 297.902877 181.872952 
L 298.99549 176.677906 
L 300.124524 173.870264 
L 301.253558 170.580379 
L 302.346171 169.460061 
L 304.567818 175.374826 
L 305.696852 179.022659 
L 306.825885 183.141477 
L 307.845658 188.258134 
L 308.974692 189.886491 
L 310.067305 186.818339 
L 311.196338 182.533559 
L 312.288952 176.316073 
L 313.417985 172.572529 
L 314.547019 168.31232 
L 315.639632 167.193034 
L 317.861279 175.570502 
L 318.990313 179.142702 
L 320.119347 184.209911 
L 321.139119 189.855271 
L 322.268153 191.40012 
L 323.360766 188.344155 
L 324.4898 183.219242 
L 325.582413 176.394848 
L 327.840481 166.213935 
L 328.933094 165.147101 
L 330.062128 169.943664 
L 331.154741 176.363208 
L 332.283775 179.601482 
L 334.469001 190.445099 
L 335.598035 192.496717 
L 336.690648 190.361144 
L 337.819682 183.683239 
L 338.912295 176.111591 
L 340.041329 169.258664 
L 341.170363 164.76311 
L 342.262976 163.716214 
L 343.392009 168.354886 
L 344.484623 176.873167 
L 345.613656 179.835427 
L 346.74269 188.774665 
L 347.762463 190.308527 
L 348.891496 193.617268 
L 349.98411 192.531978 
L 351.113143 183.254107 
L 353.33479 167.456499 
L 354.463824 163.139182 
L 355.556437 162.131925 
L 356.685471 167.205312 
L 357.778084 177.045753 
L 358.907118 180.009666 
L 360.036152 192.648553 
L 361.055924 190.478922 
L 362.184958 194.468657 
L 363.277571 194.480587 
L 364.406605 182.671193 
L 365.499218 174.968115 
L 366.628252 165.647716 
L 367.757285 161.513672 
L 368.849899 160.520081 
L 369.978932 166.035438 
L 371.071546 177.294418 
L 372.200579 180.251254 
L 373.329613 196.5807 
L 374.349385 190.548019 
L 375.478419 195.178317 
L 376.571032 196.420143 
L 377.700066 182.076708 
L 378.792679 174.608335 
L 379.921713 163.794499 
L 381.050747 159.981193 
L 382.14336 158.923437 
L 383.272394 164.780128 
L 384.365007 177.557087 
L 385.494041 180.549506 
L 386.623074 200.606185 
L 387.679267 190.52359 
L 388.808301 195.892404 
L 389.900914 198.437893 
L 391.029948 181.420659 
L 392.122561 174.152301 
L 393.251595 161.879298 
L 394.380629 158.555791 
L 395.473242 157.343864 
L 396.602276 163.494475 
L 397.694889 177.703506 
L 398.823923 180.846549 
L 399.952956 204.821136 
L 400.972729 190.507829 
L 402.101762 196.684675 
L 403.194376 200.524067 
L 404.323409 180.654686 
L 405.416023 173.578703 
L 405.416023 173.578703 
" clip-path="url(#p2860e8d1ea)" style="fill: none; stroke: #ffa722; stroke-width: 0.5; stroke-linecap: square"/>
   </g>
   <g id="patch_9">
    <path d="M 50.45875 207.195 
L 50.45875 154.97 
" style="fill: none; stroke: #000000; stroke-width: 0.8; stroke-linejoin: miter; stroke-linecap: square"/>
   </g>
   <g id="patch_10">
    <path d="M 50.45875 207.195 
L 422.31875 207.195 
" style="fill: none; stroke: #000000; stroke-width: 0.8; stroke-linejoin: miter; stroke-linecap: square"/>
   </g>
  </g>
  <g id="axes_4">
   <g id="patch_11">
    <path d="M 50.45875 271.56 
L 422.31875 271.56 
L 422.31875 219.335 
L 50.45875 219.335 
z
" style="fill: #ffffff"/>
   </g>
   <g id="matplotlib.axis_7">
    <g id="xtick_22">
     <g id="line2d_58">
      <path d="M 66.268864 271.56 
L 66.268864 219.335 
" clip-path="url(#p576956b460)" style="fill: none; stroke-dasharray: 2.96,1.28; stroke-dashoffset: 0; stroke: #b0b0b0; stroke-opacity: 0.5; stroke-width: 0.8"/>
     </g>
     <g id="line2d_59">
      <g>
       <use xlink:href="#m1d9bfa8da1" x="66.268864" y="271.56" style="stroke: #000000; stroke-width: 0.8"/>
      </g>
     </g>
     <g id="text_10">
      <!-- 2000 -->
      <g transform="translate(56.088864 284.63875) scale(0.08 -0.08)">
       <use xlink:href="#DejaVuSerif-32"/>
       <use xlink:href="#DejaVuSerif-30" transform="translate(63.623047 0)"/>
       <use xlink:href="#DejaVuSerif-30" transform="translate(127.246094 0)"/>
       <use xlink:href="#DejaVuSerif-30" transform="translate(190.869141 0)"/>
      </g>
     </g>
    </g>
    <g id="xtick_23">
     <g id="line2d_60">
      <path d="M 119.47913 271.56 
L 119.47913 219.335 
" clip-path="url(#p576956b460)" style="fill: none; stroke-dasharray: 2.96,1.28; stroke-dashoffset: 0; stroke: #b0b0b0; stroke-opacity: 0.5; stroke-width: 0.8"/>
     </g>
     <g id="line2d_61">
      <g>
       <use xlink:href="#m1d9bfa8da1" x="119.47913" y="271.56" style="stroke: #000000; stroke-width: 0.8"/>
      </g>
     </g>
     <g id="text_11">
      <!-- 2004 -->
      <g transform="translate(109.29913 284.63875) scale(0.08 -0.08)">
       <defs>
        <path id="DejaVuSerif-34" d="M 2234 1581 
L 2234 4063 
L 641 1581 
L 2234 1581 
z
M 3609 0 
L 1484 0 
L 1484 331 
L 2234 331 
L 2234 1247 
L 197 1247 
L 197 1588 
L 2241 4750 
L 2859 4750 
L 2859 1581 
L 3750 1581 
L 3750 1247 
L 2859 1247 
L 2859 331 
L 3609 331 
L 3609 0 
z
" transform="scale(0.015625)"/>
       </defs>
       <use xlink:href="#DejaVuSerif-32"/>
       <use xlink:href="#DejaVuSerif-30" transform="translate(63.623047 0)"/>
       <use xlink:href="#DejaVuSerif-30" transform="translate(127.246094 0)"/>
       <use xlink:href="#DejaVuSerif-34" transform="translate(190.869141 0)"/>
      </g>
     </g>
    </g>
    <g id="xtick_24">
     <g id="line2d_62">
      <path d="M 172.689396 271.56 
L 172.689396 219.335 
" clip-path="url(#p576956b460)" style="fill: none; stroke-dasharray: 2.96,1.28; stroke-dashoffset: 0; stroke: #b0b0b0; stroke-opacity: 0.5; stroke-width: 0.8"/>
     </g>
     <g id="line2d_63">
      <g>
       <use xlink:href="#m1d9bfa8da1" x="172.689396" y="271.56" style="stroke: #000000; stroke-width: 0.8"/>
      </g>
     </g>
     <g id="text_12">
      <!-- 2008 -->
      <g transform="translate(162.509396 284.63875) scale(0.08 -0.08)">
       <defs>
        <path id="DejaVuSerif-38" d="M 2981 1275 
Q 2981 1775 2732 2051 
Q 2484 2328 2034 2328 
Q 1584 2328 1336 2051 
Q 1088 1775 1088 1275 
Q 1088 772 1336 495 
Q 1584 219 2034 219 
Q 2484 219 2732 495 
Q 2981 772 2981 1275 
z
M 2853 3541 
Q 2853 3966 2637 4203 
Q 2422 4441 2034 4441 
Q 1650 4441 1433 4203 
Q 1216 3966 1216 3541 
Q 1216 3113 1433 2875 
Q 1650 2638 2034 2638 
Q 2422 2638 2637 2875 
Q 2853 3113 2853 3541 
z
M 2516 2484 
Q 3047 2413 3344 2092 
Q 3641 1772 3641 1275 
Q 3641 619 3225 264 
Q 2809 -91 2034 -91 
Q 1263 -91 845 264 
Q 428 619 428 1275 
Q 428 1772 725 2092 
Q 1022 2413 1556 2484 
Q 1084 2569 832 2842 
Q 581 3116 581 3541 
Q 581 4103 968 4426 
Q 1356 4750 2034 4750 
Q 2713 4750 3100 4426 
Q 3488 4103 3488 3541 
Q 3488 3116 3236 2842 
Q 2984 2569 2516 2484 
z
" transform="scale(0.015625)"/>
       </defs>
       <use xlink:href="#DejaVuSerif-32"/>
       <use xlink:href="#DejaVuSerif-30" transform="translate(63.623047 0)"/>
       <use xlink:href="#DejaVuSerif-30" transform="translate(127.246094 0)"/>
       <use xlink:href="#DejaVuSerif-38" transform="translate(190.869141 0)"/>
      </g>
     </g>
    </g>
    <g id="xtick_25">
     <g id="line2d_64">
      <path d="M 225.899663 271.56 
L 225.899663 219.335 
" clip-path="url(#p576956b460)" style="fill: none; stroke-dasharray: 2.96,1.28; stroke-dashoffset: 0; stroke: #b0b0b0; stroke-opacity: 0.5; stroke-width: 0.8"/>
     </g>
     <g id="line2d_65">
      <g>
       <use xlink:href="#m1d9bfa8da1" x="225.899663" y="271.56" style="stroke: #000000; stroke-width: 0.8"/>
      </g>
     </g>
     <g id="text_13">
      <!-- 2012 -->
      <g transform="translate(215.719663 284.63875) scale(0.08 -0.08)">
       <use xlink:href="#DejaVuSerif-32"/>
       <use xlink:href="#DejaVuSerif-30" transform="translate(63.623047 0)"/>
       <use xlink:href="#DejaVuSerif-31" transform="translate(127.246094 0)"/>
       <use xlink:href="#DejaVuSerif-32" transform="translate(190.869141 0)"/>
      </g>
     </g>
    </g>
    <g id="xtick_26">
     <g id="line2d_66">
      <path d="M 279.109929 271.56 
L 279.109929 219.335 
" clip-path="url(#p576956b460)" style="fill: none; stroke-dasharray: 2.96,1.28; stroke-dashoffset: 0; stroke: #b0b0b0; stroke-opacity: 0.5; stroke-width: 0.8"/>
     </g>
     <g id="line2d_67">
      <g>
       <use xlink:href="#m1d9bfa8da1" x="279.109929" y="271.56" style="stroke: #000000; stroke-width: 0.8"/>
      </g>
     </g>
     <g id="text_14">
      <!-- 2016 -->
      <g transform="translate(268.929929 284.63875) scale(0.08 -0.08)">
       <defs>
        <path id="DejaVuSerif-36" d="M 2094 219 
Q 2534 219 2771 542 
Q 3009 866 3009 1472 
Q 3009 2078 2771 2401 
Q 2534 2725 2094 2725 
Q 1647 2725 1412 2412 
Q 1178 2100 1178 1509 
Q 1178 888 1415 553 
Q 1653 219 2094 219 
z
M 1075 2569 
Q 1288 2803 1556 2918 
Q 1825 3034 2163 3034 
Q 2859 3034 3264 2615 
Q 3669 2197 3669 1472 
Q 3669 763 3233 336 
Q 2797 -91 2069 -91 
Q 1278 -91 853 498 
Q 428 1088 428 2181 
Q 428 3406 931 4078 
Q 1434 4750 2350 4750 
Q 2597 4750 2869 4703 
Q 3141 4656 3425 4563 
L 3425 3794 
L 3072 3794 
Q 3034 4109 2831 4275 
Q 2628 4441 2284 4441 
Q 1678 4441 1381 3981 
Q 1084 3522 1075 2569 
z
" transform="scale(0.015625)"/>
       </defs>
       <use xlink:href="#DejaVuSerif-32"/>
       <use xlink:href="#DejaVuSerif-30" transform="translate(63.623047 0)"/>
       <use xlink:href="#DejaVuSerif-31" transform="translate(127.246094 0)"/>
       <use xlink:href="#DejaVuSerif-36" transform="translate(190.869141 0)"/>
      </g>
     </g>
    </g>
    <g id="xtick_27">
     <g id="line2d_68">
      <path d="M 332.320195 271.56 
L 332.320195 219.335 
" clip-path="url(#p576956b460)" style="fill: none; stroke-dasharray: 2.96,1.28; stroke-dashoffset: 0; stroke: #b0b0b0; stroke-opacity: 0.5; stroke-width: 0.8"/>
     </g>
     <g id="line2d_69">
      <g>
       <use xlink:href="#m1d9bfa8da1" x="332.320195" y="271.56" style="stroke: #000000; stroke-width: 0.8"/>
      </g>
     </g>
     <g id="text_15">
      <!-- 2020 -->
      <g transform="translate(322.140195 284.63875) scale(0.08 -0.08)">
       <use xlink:href="#DejaVuSerif-32"/>
       <use xlink:href="#DejaVuSerif-30" transform="translate(63.623047 0)"/>
       <use xlink:href="#DejaVuSerif-32" transform="translate(127.246094 0)"/>
       <use xlink:href="#DejaVuSerif-30" transform="translate(190.869141 0)"/>
      </g>
     </g>
    </g>
    <g id="xtick_28">
     <g id="line2d_70">
      <path d="M 385.530461 271.56 
L 385.530461 219.335 
" clip-path="url(#p576956b460)" style="fill: none; stroke-dasharray: 2.96,1.28; stroke-dashoffset: 0; stroke: #b0b0b0; stroke-opacity: 0.5; stroke-width: 0.8"/>
     </g>
     <g id="line2d_71">
      <g>
       <use xlink:href="#m1d9bfa8da1" x="385.530461" y="271.56" style="stroke: #000000; stroke-width: 0.8"/>
      </g>
     </g>
     <g id="text_16">
      <!-- 2024 -->
      <g transform="translate(375.350461 284.63875) scale(0.08 -0.08)">
       <use xlink:href="#DejaVuSerif-32"/>
       <use xlink:href="#DejaVuSerif-30" transform="translate(63.623047 0)"/>
       <use xlink:href="#DejaVuSerif-32" transform="translate(127.246094 0)"/>
       <use xlink:href="#DejaVuSerif-34" transform="translate(190.869141 0)"/>
      </g>
     </g>
    </g>
    <g id="text_17">
     <!-- Série histórica -->
     <g transform="translate(206.71125 296.38125) scale(0.08 -0.08)">
      <defs>
       <path id="DejaVuSerif-e9" d="M 3469 1600 
L 991 1600 
L 991 1575 
Q 991 903 1244 561 
Q 1497 219 1991 219 
Q 2369 219 2611 417 
Q 2853 616 2950 1006 
L 3413 1006 
Q 3275 459 2904 184 
Q 2534 -91 1931 -91 
Q 1203 -91 761 389 
Q 319 869 319 1663 
Q 319 2450 753 2931 
Q 1188 3413 1894 3413 
Q 2647 3413 3050 2948 
Q 3453 2484 3469 1600 
z
M 2791 1931 
Q 2772 2513 2545 2808 
Q 2319 3103 1894 3103 
Q 1497 3103 1269 2806 
Q 1041 2509 991 1931 
L 2791 1931 
z
M 2330 5119 
L 2952 5119 
L 1890 3944 
L 1524 3944 
L 2330 5119 
z
" transform="scale(0.015625)"/>
       <path id="DejaVuSerif-20" transform="scale(0.015625)"/>
       <path id="DejaVuSerif-68" d="M 263 0 
L 263 331 
L 781 331 
L 781 4531 
L 231 4531 
L 231 4863 
L 1356 4863 
L 1356 2731 
Q 1516 3069 1770 3241 
Q 2025 3413 2363 3413 
Q 2913 3413 3172 3097 
Q 3431 2781 3431 2113 
L 3431 331 
L 3944 331 
L 3944 0 
L 2356 0 
L 2356 331 
L 2853 331 
L 2853 1931 
Q 2853 2541 2704 2764 
Q 2556 2988 2175 2988 
Q 1775 2988 1565 2697 
Q 1356 2406 1356 1850 
L 1356 331 
L 1856 331 
L 1856 0 
L 263 0 
z
" transform="scale(0.015625)"/>
       <path id="DejaVuSerif-74" d="M 691 2988 
L 184 2988 
L 184 3322 
L 691 3322 
L 691 4353 
L 1269 4353 
L 1269 3322 
L 2350 3322 
L 2350 2988 
L 1269 2988 
L 1269 878 
Q 1269 456 1350 337 
Q 1431 219 1650 219 
Q 1875 219 1978 351 
Q 2081 484 2088 781 
L 2522 781 
Q 2497 328 2275 118 
Q 2053 -91 1600 -91 
Q 1103 -91 897 129 
Q 691 350 691 878 
L 691 2988 
z
" transform="scale(0.015625)"/>
       <path id="DejaVuSerif-f3" d="M 1925 219 
Q 2388 219 2623 584 
Q 2859 950 2859 1663 
Q 2859 2375 2623 2739 
Q 2388 3103 1925 3103 
Q 1463 3103 1227 2739 
Q 991 2375 991 1663 
Q 991 950 1228 584 
Q 1466 219 1925 219 
z
M 1925 -91 
Q 1200 -91 759 389 
Q 319 869 319 1663 
Q 319 2456 758 2934 
Q 1197 3413 1925 3413 
Q 2653 3413 3092 2934 
Q 3531 2456 3531 1663 
Q 3531 869 3092 389 
Q 2653 -91 1925 -91 
z
M 2362 5119 
L 2984 5119 
L 1922 3944 
L 1556 3944 
L 2362 5119 
z
" transform="scale(0.015625)"/>
      </defs>
      <use xlink:href="#DejaVuSerif-53"/>
      <use xlink:href="#DejaVuSerif-e9" transform="translate(68.505859 0)"/>
      <use xlink:href="#DejaVuSerif-72" transform="translate(127.685547 0)"/>
      <use xlink:href="#DejaVuSerif-69" transform="translate(175.488281 0)"/>
      <use xlink:href="#DejaVuSerif-65" transform="translate(207.470703 0)"/>
      <use xlink:href="#DejaVuSerif-20" transform="translate(266.650391 0)"/>
      <use xlink:href="#DejaVuSerif-68" transform="translate(298.4375 0)"/>
      <use xlink:href="#DejaVuSerif-69" transform="translate(362.841797 0)"/>
      <use xlink:href="#DejaVuSerif-73" transform="translate(394.824219 0)"/>
      <use xlink:href="#DejaVuSerif-74" transform="translate(446.142578 0)"/>
      <use xlink:href="#DejaVuSerif-f3" transform="translate(486.328125 0)"/>
      <use xlink:href="#DejaVuSerif-72" transform="translate(546.533203 0)"/>
      <use xlink:href="#DejaVuSerif-69" transform="translate(594.335938 0)"/>
      <use xlink:href="#DejaVuSerif-63" transform="translate(626.318359 0)"/>
      <use xlink:href="#DejaVuSerif-61" transform="translate(682.324219 0)"/>
     </g>
    </g>
   </g>
   <g id="matplotlib.axis_8">
    <g id="ytick_7">
     <g id="line2d_72">
      <path d="M 50.45875 259.949871 
L 422.31875 259.949871 
" clip-path="url(#p576956b460)" style="fill: none; stroke-dasharray: 2.96,1.28; stroke-dashoffset: 0; stroke: #b0b0b0; stroke-opacity: 0.5; stroke-width: 0.8"/>
     </g>
     <g id="line2d_73">
      <g>
       <use xlink:href="#m45c30d3745" x="50.45875" y="259.949871" style="stroke: #000000; stroke-width: 0.8"/>
      </g>
     </g>
     <g id="text_18">
      <!-- −0.25 -->
      <g transform="translate(18.9425 262.989246) scale(0.08 -0.08)">
       <defs>
        <path id="DejaVuSerif-2e" d="M 603 325 
Q 603 500 722 622 
Q 841 744 1019 744 
Q 1191 744 1312 622 
Q 1434 500 1434 325 
Q 1434 153 1312 31 
Q 1191 -91 1019 -91 
Q 841 -91 722 29 
Q 603 150 603 325 
z
" transform="scale(0.015625)"/>
        <path id="DejaVuSerif-35" d="M 3219 4666 
L 3219 4153 
L 1081 4153 
L 1081 2816 
Q 1244 2928 1461 2984 
Q 1678 3041 1947 3041 
Q 2703 3041 3140 2622 
Q 3578 2203 3578 1478 
Q 3578 738 3136 323 
Q 2694 -91 1894 -91 
Q 1572 -91 1234 -12 
Q 897 66 544 225 
L 544 1131 
L 897 1131 
Q 925 688 1179 453 
Q 1434 219 1894 219 
Q 2388 219 2653 544 
Q 2919 869 2919 1478 
Q 2919 2084 2655 2407 
Q 2391 2731 1894 2731 
Q 1613 2731 1398 2631 
Q 1184 2531 1019 2322 
L 750 2322 
L 750 4666 
L 3219 4666 
z
" transform="scale(0.015625)"/>
       </defs>
       <use xlink:href="#DejaVuSerif-2212"/>
       <use xlink:href="#DejaVuSerif-30" transform="translate(83.789062 0)"/>
       <use xlink:href="#DejaVuSerif-2e" transform="translate(147.412109 0)"/>
       <use xlink:href="#DejaVuSerif-32" transform="translate(179.199219 0)"/>
       <use xlink:href="#DejaVuSerif-35" transform="translate(242.822266 0)"/>
      </g>
     </g>
    </g>
    <g id="ytick_8">
     <g id="line2d_74">
      <path d="M 50.45875 244.46762 
L 422.31875 244.46762 
" clip-path="url(#p576956b460)" style="fill: none; stroke-dasharray: 2.96,1.28; stroke-dashoffset: 0; stroke: #b0b0b0; stroke-opacity: 0.5; stroke-width: 0.8"/>
     </g>
     <g id="line2d_75">
      <g>
       <use xlink:href="#m45c30d3745" x="50.45875" y="244.46762" style="stroke: #000000; stroke-width: 0.8"/>
      </g>
     </g>
     <g id="text_19">
      <!-- 0.00 -->
      <g transform="translate(25.64625 247.506995) scale(0.08 -0.08)">
       <use xlink:href="#DejaVuSerif-30"/>
       <use xlink:href="#DejaVuSerif-2e" transform="translate(63.623047 0)"/>
       <use xlink:href="#DejaVuSerif-30" transform="translate(95.410156 0)"/>
       <use xlink:href="#DejaVuSerif-30" transform="translate(159.033203 0)"/>
      </g>
     </g>
    </g>
    <g id="ytick_9">
     <g id="line2d_76">
      <path d="M 50.45875 228.98537 
L 422.31875 228.98537 
" clip-path="url(#p576956b460)" style="fill: none; stroke-dasharray: 2.96,1.28; stroke-dashoffset: 0; stroke: #b0b0b0; stroke-opacity: 0.5; stroke-width: 0.8"/>
     </g>
     <g id="line2d_77">
      <g>
       <use xlink:href="#m45c30d3745" x="50.45875" y="228.98537" style="stroke: #000000; stroke-width: 0.8"/>
      </g>
     </g>
     <g id="text_20">
      <!-- 0.25 -->
      <g transform="translate(25.64625 232.024745) scale(0.08 -0.08)">
       <use xlink:href="#DejaVuSerif-30"/>
       <use xlink:href="#DejaVuSerif-2e" transform="translate(63.623047 0)"/>
       <use xlink:href="#DejaVuSerif-32" transform="translate(95.410156 0)"/>
       <use xlink:href="#DejaVuSerif-35" transform="translate(159.033203 0)"/>
      </g>
     </g>
    </g>
    <g id="text_21">
     <!-- Resíduo -->
     <g transform="translate(13.27875 261.70375) rotate(-90) scale(0.08 -0.08)">
      <defs>
       <path id="DejaVuSerif-52" d="M 3066 2316 
Q 3284 2256 3442 2114 
Q 3600 1972 3725 1716 
L 4403 331 
L 4972 331 
L 4972 0 
L 3872 0 
L 3144 1484 
Q 2934 1916 2759 2042 
Q 2584 2169 2278 2169 
L 1581 2169 
L 1581 331 
L 2241 331 
L 2241 0 
L 353 0 
L 353 331 
L 947 331 
L 947 4331 
L 353 4331 
L 353 4666 
L 2719 4666 
Q 3400 4666 3770 4341 
Q 4141 4016 4141 3419 
Q 4141 2938 3870 2661 
Q 3600 2384 3066 2316 
z
M 1581 2503 
L 2503 2503 
Q 2975 2503 3200 2726 
Q 3425 2950 3425 3419 
Q 3425 3888 3200 4109 
Q 2975 4331 2503 4331 
L 1581 4331 
L 1581 2503 
z
" transform="scale(0.015625)"/>
       <path id="DejaVuSerif-ed" d="M 1356 331 
L 1900 331 
L 1900 0 
L 231 0 
L 231 331 
L 781 331 
L 781 2988 
L 231 2988 
L 231 3322 
L 1356 3322 
L 1356 331 
z
M 1458 5119 
L 2080 5119 
L 1018 3944 
L 652 3944 
L 1458 5119 
z
" transform="scale(0.015625)"/>
       <path id="DejaVuSerif-75" d="M 2266 3322 
L 3341 3322 
L 3341 331 
L 3884 331 
L 3884 0 
L 2766 0 
L 2766 588 
Q 2606 256 2353 82 
Q 2100 -91 1766 -91 
Q 1213 -91 952 223 
Q 691 538 691 1209 
L 691 2988 
L 172 2988 
L 172 3322 
L 1269 3322 
L 1269 1388 
Q 1269 781 1417 556 
Q 1566 331 1947 331 
Q 2347 331 2556 625 
Q 2766 919 2766 1478 
L 2766 2988 
L 2266 2988 
L 2266 3322 
z
" transform="scale(0.015625)"/>
      </defs>
      <use xlink:href="#DejaVuSerif-52"/>
      <use xlink:href="#DejaVuSerif-65" transform="translate(75.292969 0)"/>
      <use xlink:href="#DejaVuSerif-73" transform="translate(134.472656 0)"/>
      <use xlink:href="#DejaVuSerif-ed" transform="translate(185.791016 0)"/>
      <use xlink:href="#DejaVuSerif-64" transform="translate(217.773438 0)"/>
      <use xlink:href="#DejaVuSerif-75" transform="translate(281.787109 0)"/>
      <use xlink:href="#DejaVuSerif-6f" transform="translate(346.191406 0)"/>
     </g>
    </g>
   </g>
   <g id="line2d_78">
    <path d="M 67.361477 244.439709 
L 73.989998 244.482142 
L 77.340678 244.398493 
L 85.061812 244.488061 
L 112.741348 244.448099 
L 121.627936 244.450093 
L 124.978617 244.416013 
L 134.921398 244.437804 
L 137.143045 244.364851 
L 142.715372 244.565373 
L 144.937019 244.582741 
L 150.436506 244.489837 
L 151.56554 244.590011 
L 156.008834 244.45738 
L 157.137868 244.292882 
L 159.359515 244.37308 
L 160.488548 244.358043 
L 162.637354 244.599892 
L 163.729968 244.283472 
L 165.951615 244.466937 
L 168.209682 244.277428 
L 169.302295 244.653272 
L 170.431329 244.403862 
L 171.523942 244.75372 
L 173.78201 244.253755 
L 175.967236 244.561042 
L 178.188883 244.195184 
L 182.632177 244.65992 
L 185.982858 244.59644 
L 187.111892 244.414472 
L 188.131664 244.520565 
L 189.260698 244.246924 
L 190.353311 244.270547 
L 191.482345 244.413252 
L 192.574958 244.42128 
L 194.833025 245.143783 
L 195.925639 244.916401 
L 197.054672 244.563172 
L 200.405353 244.573998 
L 201.425125 243.816408 
L 202.554159 243.898205 
L 203.646772 244.35274 
L 205.868419 244.103226 
L 206.997453 244.520436 
L 208.126487 244.466947 
L 209.2191 243.906536 
L 210.348134 244.844024 
L 211.440747 244.341446 
L 212.569781 244.593022 
L 213.698814 245.250147 
L 214.718587 245.14503 
L 215.847621 244.599257 
L 218.069268 244.706934 
L 219.161881 244.59953 
L 220.290915 244.868793 
L 221.419948 244.69403 
L 223.641595 244.861654 
L 224.734208 243.695896 
L 225.863242 243.733184 
L 226.992276 243.633314 
L 228.048469 244.607539 
L 229.177502 244.252793 
L 230.270116 243.141756 
L 231.399149 243.484286 
L 232.491763 244.949289 
L 233.620796 244.945509 
L 234.74983 245.979284 
L 235.842443 245.315251 
L 236.971477 246.206522 
L 238.06409 245.567576 
L 239.193124 244.167443 
L 240.322158 243.236131 
L 242.470964 241.641102 
L 243.563577 242.528347 
L 244.692611 243.657557 
L 246.914258 247.410982 
L 248.043292 248.2683 
L 249.135905 247.349565 
L 250.264939 247.421414 
L 251.357552 244.704046 
L 252.486585 245.737555 
L 253.615619 242.515787 
L 254.635392 242.445752 
L 255.764425 242.113119 
L 256.857039 244.225096 
L 257.986072 247.042609 
L 259.078686 245.040984 
L 260.207719 245.24321 
L 261.336753 246.069444 
L 262.429366 248.243094 
L 263.5584 245.468067 
L 264.651013 246.519007 
L 265.780047 243.968721 
L 266.909081 238.693641 
L 267.928853 240.143968 
L 269.057887 242.341681 
L 270.1505 247.451264 
L 271.279534 241.781002 
L 272.372147 246.142493 
L 273.501181 247.943628 
L 274.630214 241.220564 
L 275.722828 250.525664 
L 276.851861 245.771515 
L 277.944475 248.317354 
L 279.073508 242.971773 
L 280.202542 256.083313 
L 281.258735 238.893561 
L 282.387769 236.662129 
L 283.480382 235.788432 
L 284.609416 242.606578 
L 285.702029 245.715675 
L 286.831063 243.250733 
L 287.960096 248.871826 
L 289.05271 247.236182 
L 290.181743 244.791429 
L 291.274357 244.479962 
L 292.40339 244.871997 
L 293.532424 242.155191 
L 294.552196 241.913367 
L 295.68123 246.095006 
L 296.773843 241.343242 
L 297.902877 249.298437 
L 298.99549 248.958787 
L 300.124524 244.248594 
L 301.253558 248.275245 
L 302.346171 235.410319 
L 303.475205 235.702908 
L 304.567818 245.551107 
L 305.696852 245.22717 
L 306.825885 241.763751 
L 307.845658 250.922208 
L 308.974692 249.69285 
L 310.067305 247.413513 
L 311.196338 240.214968 
L 312.288952 241.186239 
L 313.417985 239.995342 
L 314.547019 248.492174 
L 315.639632 242.55639 
L 316.768666 251.786853 
L 317.861279 231.680511 
L 318.990313 254.179318 
L 320.119347 231.038019 
L 321.139119 253.790269 
L 322.268153 248.673146 
L 323.360766 254.639162 
L 324.4898 244.538497 
L 325.582413 232.568809 
L 326.711447 249.756523 
L 327.840481 236.672382 
L 328.933094 245.273791 
L 330.062128 235.943587 
L 331.154741 234.754487 
L 332.283775 231.980658 
L 333.412808 264.753301 
L 334.469001 248.620397 
L 335.598035 257.703262 
L 336.690648 244.337148 
L 337.819682 248.42269 
L 338.912295 242.639371 
L 340.041329 246.535628 
L 341.170363 241.418111 
L 342.262976 246.100797 
L 343.392009 259.971619 
L 345.613656 239.97637 
L 346.74269 222.044328 
L 347.762463 251.632836 
L 348.891496 241.823082 
L 349.98411 233.576198 
L 351.113143 244.846162 
L 352.205757 250.340276 
L 353.33479 246.432885 
L 354.463824 238.163688 
L 355.556437 242.282931 
L 356.685471 249.385382 
L 357.778084 250.672577 
L 358.907118 246.090854 
L 360.036152 245.270929 
L 361.055924 244.372302 
L 362.184958 229.862559 
L 363.277571 235.355885 
L 364.406605 251.465917 
L 365.499218 269.013356 
L 366.628252 249.029216 
L 367.757285 241.027875 
L 368.849899 241.034537 
L 369.978932 226.386042 
L 371.071546 267.223599 
L 372.200579 259.331383 
L 373.329613 223.487472 
L 374.349385 221.708864 
L 375.478419 235.166819 
L 376.571032 255.813056 
L 377.700066 253.445089 
L 378.792679 232.043887 
L 379.921713 236.819975 
L 381.050747 263.258328 
L 382.14336 258.94364 
L 383.272394 241.262099 
L 384.365007 239.55193 
L 385.494041 235.738812 
L 386.623074 246.494674 
L 387.679267 249.314301 
L 388.808301 269.186136 
L 389.900914 248.139716 
L 391.029948 237.756538 
L 392.122561 234.205644 
L 393.251595 245.806539 
L 394.380629 236.846766 
L 395.473242 235.528888 
L 396.602276 253.47887 
L 397.694889 230.423408 
L 398.823923 244.415868 
L 399.952956 262.59402 
L 400.972729 252.774554 
L 402.101762 236.063628 
L 403.194376 241.774168 
L 404.323409 239.831182 
L 405.416023 248.625506 
L 405.416023 248.625506 
" clip-path="url(#p576956b460)" style="fill: none; stroke: #47a730; stroke-width: 0.5; stroke-linecap: square"/>
   </g>
   <g id="patch_12">
    <path d="M 50.45875 271.56 
L 50.45875 219.335 
" style="fill: none; stroke: #000000; stroke-width: 0.8; stroke-linejoin: miter; stroke-linecap: square"/>
   </g>
   <g id="patch_13">
    <path d="M 50.45875 271.56 
L 422.31875 271.56 
" style="fill: none; stroke: #000000; stroke-width: 0.8; stroke-linejoin: miter; stroke-linecap: square"/>
   </g>
  </g>
  <g id="legend_1">
   <g id="line2d_79">
    <path d="M 60.371875 13.67875 
L 68.371875 13.67875 
L 76.371875 13.67875 
" style="fill: none; stroke: #4596f3; stroke-width: 0.5; stroke-linecap: square"/>
   </g>
   <g id="text_22">
    <!-- Observado -->
    <g transform="translate(82.771875 16.47875) scale(0.08 -0.08)">
     <use xlink:href="#DejaVuSerif-4f"/>
     <use xlink:href="#DejaVuSerif-62" transform="translate(81.982422 0)"/>
     <use xlink:href="#DejaVuSerif-73" transform="translate(145.996094 0)"/>
     <use xlink:href="#DejaVuSerif-65" transform="translate(197.314453 0)"/>
     <use xlink:href="#DejaVuSerif-72" transform="translate(256.494141 0)"/>
     <use xlink:href="#DejaVuSerif-76" transform="translate(304.296875 0)"/>
     <use xlink:href="#DejaVuSerif-61" transform="translate(360.791016 0)"/>
     <use xlink:href="#DejaVuSerif-64" transform="translate(420.410156 0)"/>
     <use xlink:href="#DejaVuSerif-6f" transform="translate(484.423828 0)"/>
    </g>
   </g>
   <g id="line2d_80">
    <path d="M 142.343125 13.67875 
L 150.343125 13.67875 
L 158.343125 13.67875 
" style="fill: none; stroke: #ff5656; stroke-width: 0.5; stroke-linecap: square"/>
   </g>
   <g id="text_23">
    <!-- Tendência -->
    <g transform="translate(164.743125 16.47875) scale(0.08 -0.08)">
     <use xlink:href="#DejaVuSerif-54"/>
     <use xlink:href="#DejaVuSerif-65" transform="translate(58.949219 0)"/>
     <use xlink:href="#DejaVuSerif-6e" transform="translate(118.128906 0)"/>
     <use xlink:href="#DejaVuSerif-64" transform="translate(182.533203 0)"/>
     <use xlink:href="#DejaVuSerif-ea" transform="translate(246.546875 0)"/>
     <use xlink:href="#DejaVuSerif-6e" transform="translate(305.726562 0)"/>
     <use xlink:href="#DejaVuSerif-63" transform="translate(370.130859 0)"/>
     <use xlink:href="#DejaVuSerif-69" transform="translate(426.136719 0)"/>
     <use xlink:href="#DejaVuSerif-61" transform="translate(458.119141 0)"/>
    </g>
   </g>
   <g id="line2d_81">
    <path d="M 222.164375 13.67875 
L 230.164375 13.67875 
L 238.164375 13.67875 
" style="fill: none; stroke: #ffa722; stroke-width: 0.5; stroke-linecap: square"/>
   </g>
   <g id="text_24">
    <!-- Sazonalidade -->
    <g transform="translate(244.564375 16.47875) scale(0.08 -0.08)">
     <use xlink:href="#DejaVuSerif-53"/>
     <use xlink:href="#DejaVuSerif-61" transform="translate(68.505859 0)"/>
     <use xlink:href="#DejaVuSerif-7a" transform="translate(128.125 0)"/>
     <use xlink:href="#DejaVuSerif-6f" transform="translate(180.810547 0)"/>
     <use xlink:href="#DejaVuSerif-6e" transform="translate(241.015625 0)"/>
     <use xlink:href="#DejaVuSerif-61" transform="translate(305.419922 0)"/>
     <use xlink:href="#DejaVuSerif-6c" transform="translate(365.039062 0)"/>
     <use xlink:href="#DejaVuSerif-69" transform="translate(397.021484 0)"/>
     <use xlink:href="#DejaVuSerif-64" transform="translate(429.003906 0)"/>
     <use xlink:href="#DejaVuSerif-61" transform="translate(493.017578 0)"/>
     <use xlink:href="#DejaVuSerif-64" transform="translate(552.636719 0)"/>
     <use xlink:href="#DejaVuSerif-65" transform="translate(616.650391 0)"/>
    </g>
   </g>
   <g id="line2d_82">
    <path d="M 314.633125 13.67875 
L 322.633125 13.67875 
L 330.633125 13.67875 
" style="fill: none; stroke: #47a730; stroke-width: 0.5; stroke-linecap: square"/>
   </g>
   <g id="text_25">
    <!-- Resíduo -->
    <g transform="translate(337.033125 16.47875) scale(0.08 -0.08)">
     <use xlink:href="#DejaVuSerif-52"/>
     <use xlink:href="#DejaVuSerif-65" transform="translate(75.292969 0)"/>
     <use xlink:href="#DejaVuSerif-73" transform="translate(134.472656 0)"/>
     <use xlink:href="#DejaVuSerif-ed" transform="translate(185.791016 0)"/>
     <use xlink:href="#DejaVuSerif-64" transform="translate(217.773438 0)"/>
     <use xlink:href="#DejaVuSerif-75" transform="translate(281.787109 0)"/>
     <use xlink:href="#DejaVuSerif-6f" transform="translate(346.191406 0)"/>
    </g>
   </g>
  </g>
 </g>
 <defs>
  <clipPath id="p747e863cc1">
   <rect x="50.45875" y="26.24" width="371.86" height="52.225"/>
  </clipPath>
  <clipPath id="peef506eb28">
   <rect x="50.45875" y="90.605" width="371.86" height="52.225"/>
  </clipPath>
  <clipPath id="p2860e8d1ea">
   <rect x="50.45875" y="154.97" width="371.86" height="52.225"/>
  </clipPath>
  <clipPath id="p576956b460">
   <rect x="50.45875" y="219.335" width="371.86" height="52.225"/>
  </clipPath>
 </defs>
</svg>
