<?xml version="1.0" encoding="utf-8" standalone="no"?>
<!DOCTYPE svg PUBLIC "-//W3C//DTD SVG 1.1//EN"
  "http://www.w3.org/Graphics/SVG/1.1/DTD/svg11.dtd">
<svg xmlns:xlink="http://www.w3.org/1999/xlink" width="429.55875pt" height="305.245pt" viewBox="0 0 429.55875 305.245" xmlns="http://www.w3.org/2000/svg" version="1.1">
 <metadata>
  <rdf:RDF xmlns:dc="http://purl.org/dc/elements/1.1/" xmlns:cc="http://creativecommons.org/ns#" xmlns:rdf="http://www.w3.org/1999/02/22-rdf-syntax-ns#">
   <cc:Work>
    <dc:type rdf:resource="http://purl.org/dc/dcmitype/StillImage"/>
    <dc:date>2025-06-30T00:35:11.878961</dc:date>
    <dc:format>image/svg+xml</dc:format>
    <dc:creator>
     <cc:Agent>
      <dc:title>Matplotlib v3.10.3, https://matplotlib.org/</dc:title>
     </cc:Agent>
    </dc:creator>
   </cc:Work>
  </rdf:RDF>
 </metadata>
 <defs>
  <style type="text/css">*{stroke-linejoin: round; stroke-linecap: butt}</style>
 </defs>
 <g id="figure_1">
  <g id="patch_1">
   <path d="M 0 305.245 
L 429.55875 305.245 
L 429.55875 0 
L 0 0 
z
" style="fill: #ffffff"/>
  </g>
  <g id="axes_1">
   <g id="patch_2">
    <path d="M 45.36875 78.465 
L 422.35875 78.465 
L 422.35875 26.24 
L 45.36875 26.24 
z
" style="fill: #ffffff"/>
   </g>
   <g id="matplotlib.axis_1">
    <g id="xtick_1">
     <g id="line2d_1">
      <path d="M 61.389645 78.465 
L 61.389645 26.24 
" clip-path="url(#p7d5ab2952d)" style="fill: none; stroke-dasharray: 2.96,1.28; stroke-dashoffset: 0; stroke: #b0b0b0; stroke-opacity: 0.5; stroke-width: 0.8"/>
     </g>
     <g id="line2d_2">
      <defs>
       <path id="m8a57c35150" d="M 0 0 
L 0 3.5 
" style="stroke: #000000; stroke-width: 0.8"/>
      </defs>
      <g>
       <use xlink:href="#m8a57c35150" x="61.389645" y="78.465" style="stroke: #000000; stroke-width: 0.8"/>
      </g>
     </g>
    </g>
    <g id="xtick_2">
     <g id="line2d_3">
      <path d="M 115.690834 78.465 
L 115.690834 26.24 
" clip-path="url(#p7d5ab2952d)" style="fill: none; stroke-dasharray: 2.96,1.28; stroke-dashoffset: 0; stroke: #b0b0b0; stroke-opacity: 0.5; stroke-width: 0.8"/>
     </g>
     <g id="line2d_4">
      <g>
       <use xlink:href="#m8a57c35150" x="115.690834" y="78.465" style="stroke: #000000; stroke-width: 0.8"/>
      </g>
     </g>
    </g>
    <g id="xtick_3">
     <g id="line2d_5">
      <path d="M 169.992023 78.465 
L 169.992023 26.24 
" clip-path="url(#p7d5ab2952d)" style="fill: none; stroke-dasharray: 2.96,1.28; stroke-dashoffset: 0; stroke: #b0b0b0; stroke-opacity: 0.5; stroke-width: 0.8"/>
     </g>
     <g id="line2d_6">
      <g>
       <use xlink:href="#m8a57c35150" x="169.992023" y="78.465" style="stroke: #000000; stroke-width: 0.8"/>
      </g>
     </g>
    </g>
    <g id="xtick_4">
     <g id="line2d_7">
      <path d="M 224.293212 78.465 
L 224.293212 26.24 
" clip-path="url(#p7d5ab2952d)" style="fill: none; stroke-dasharray: 2.96,1.28; stroke-dashoffset: 0; stroke: #b0b0b0; stroke-opacity: 0.5; stroke-width: 0.8"/>
     </g>
     <g id="line2d_8">
      <g>
       <use xlink:href="#m8a57c35150" x="224.293212" y="78.465" style="stroke: #000000; stroke-width: 0.8"/>
      </g>
     </g>
    </g>
    <g id="xtick_5">
     <g id="line2d_9">
      <path d="M 278.594401 78.465 
L 278.594401 26.24 
" clip-path="url(#p7d5ab2952d)" style="fill: none; stroke-dasharray: 2.96,1.28; stroke-dashoffset: 0; stroke: #b0b0b0; stroke-opacity: 0.5; stroke-width: 0.8"/>
     </g>
     <g id="line2d_10">
      <g>
       <use xlink:href="#m8a57c35150" x="278.594401" y="78.465" style="stroke: #000000; stroke-width: 0.8"/>
      </g>
     </g>
    </g>
    <g id="xtick_6">
     <g id="line2d_11">
      <path d="M 332.89559 78.465 
L 332.89559 26.24 
" clip-path="url(#p7d5ab2952d)" style="fill: none; stroke-dasharray: 2.96,1.28; stroke-dashoffset: 0; stroke: #b0b0b0; stroke-opacity: 0.5; stroke-width: 0.8"/>
     </g>
     <g id="line2d_12">
      <g>
       <use xlink:href="#m8a57c35150" x="332.89559" y="78.465" style="stroke: #000000; stroke-width: 0.8"/>
      </g>
     </g>
    </g>
    <g id="xtick_7">
     <g id="line2d_13">
      <path d="M 387.196779 78.465 
L 387.196779 26.24 
" clip-path="url(#p7d5ab2952d)" style="fill: none; stroke-dasharray: 2.96,1.28; stroke-dashoffset: 0; stroke: #b0b0b0; stroke-opacity: 0.5; stroke-width: 0.8"/>
     </g>
     <g id="line2d_14">
      <g>
       <use xlink:href="#m8a57c35150" x="387.196779" y="78.465" style="stroke: #000000; stroke-width: 0.8"/>
      </g>
     </g>
    </g>
   </g>
   <g id="matplotlib.axis_2">
    <g id="ytick_1">
     <g id="line2d_15">
      <path d="M 45.36875 70.923268 
L 422.35875 70.923268 
" clip-path="url(#p7d5ab2952d)" style="fill: none; stroke-dasharray: 2.96,1.28; stroke-dashoffset: 0; stroke: #b0b0b0; stroke-opacity: 0.5; stroke-width: 0.8"/>
     </g>
     <g id="line2d_16">
      <defs>
       <path id="mfcdda35cf3" d="M 0 0 
L -3.5 0 
" style="stroke: #000000; stroke-width: 0.8"/>
      </defs>
      <g>
       <use xlink:href="#mfcdda35cf3" x="45.36875" y="70.923268" style="stroke: #000000; stroke-width: 0.8"/>
      </g>
     </g>
     <g id="text_1">
      <!-- −2 -->
      <g transform="translate(26.575 73.962643) scale(0.08 -0.08)">
       <defs>
        <path id="DejaVuSerif-2212" d="M 678 2259 
L 4684 2259 
L 4684 1753 
L 678 1753 
L 678 2259 
z
" transform="scale(0.015625)"/>
        <path id="DejaVuSerif-32" d="M 819 3553 
L 469 3553 
L 469 4384 
Q 803 4563 1142 4656 
Q 1481 4750 1806 4750 
Q 2534 4750 2956 4397 
Q 3378 4044 3378 3438 
Q 3378 2753 2422 1800 
Q 2347 1728 2309 1691 
L 1131 513 
L 3078 513 
L 3078 1088 
L 3444 1088 
L 3444 0 
L 434 0 
L 434 341 
L 1850 1753 
Q 2319 2222 2519 2614 
Q 2719 3006 2719 3438 
Q 2719 3909 2473 4175 
Q 2228 4441 1797 4441 
Q 1350 4441 1106 4219 
Q 863 3997 819 3553 
z
" transform="scale(0.015625)"/>
       </defs>
       <use xlink:href="#DejaVuSerif-2212"/>
       <use xlink:href="#DejaVuSerif-32" transform="translate(83.789062 0)"/>
      </g>
     </g>
    </g>
    <g id="ytick_2">
     <g id="line2d_17">
      <path d="M 45.36875 50.63086 
L 422.35875 50.63086 
" clip-path="url(#p7d5ab2952d)" style="fill: none; stroke-dasharray: 2.96,1.28; stroke-dashoffset: 0; stroke: #b0b0b0; stroke-opacity: 0.5; stroke-width: 0.8"/>
     </g>
     <g id="line2d_18">
      <g>
       <use xlink:href="#mfcdda35cf3" x="45.36875" y="50.63086" style="stroke: #000000; stroke-width: 0.8"/>
      </g>
     </g>
     <g id="text_2">
      <!-- 0 -->
      <g transform="translate(33.27875 53.670235) scale(0.08 -0.08)">
       <defs>
        <path id="DejaVuSerif-30" d="M 2034 219 
Q 2513 219 2750 744 
Q 2988 1269 2988 2328 
Q 2988 3391 2750 3916 
Q 2513 4441 2034 4441 
Q 1556 4441 1318 3916 
Q 1081 3391 1081 2328 
Q 1081 1269 1318 744 
Q 1556 219 2034 219 
z
M 2034 -91 
Q 1275 -91 848 546 
Q 422 1184 422 2328 
Q 422 3475 848 4112 
Q 1275 4750 2034 4750 
Q 2797 4750 3222 4112 
Q 3647 3475 3647 2328 
Q 3647 1184 3222 546 
Q 2797 -91 2034 -91 
z
" transform="scale(0.015625)"/>
       </defs>
       <use xlink:href="#DejaVuSerif-30"/>
      </g>
     </g>
    </g>
    <g id="ytick_3">
     <g id="line2d_19">
      <path d="M 45.36875 30.338451 
L 422.35875 30.338451 
" clip-path="url(#p7d5ab2952d)" style="fill: none; stroke-dasharray: 2.96,1.28; stroke-dashoffset: 0; stroke: #b0b0b0; stroke-opacity: 0.5; stroke-width: 0.8"/>
     </g>
     <g id="line2d_20">
      <g>
       <use xlink:href="#mfcdda35cf3" x="45.36875" y="30.338451" style="stroke: #000000; stroke-width: 0.8"/>
      </g>
     </g>
     <g id="text_3">
      <!-- 2 -->
      <g transform="translate(33.27875 33.377826) scale(0.08 -0.08)">
       <use xlink:href="#DejaVuSerif-32"/>
      </g>
     </g>
    </g>
    <g id="text_4">
     <!-- Observado -->
     <g transform="translate(20.91125 74.138125) rotate(-90) scale(0.08 -0.08)">
      <defs>
       <path id="DejaVuSerif-4f" d="M 2625 244 
Q 3391 244 3781 770 
Q 4172 1297 4172 2328 
Q 4172 3363 3781 3889 
Q 3391 4416 2625 4416 
Q 1856 4416 1465 3889 
Q 1075 3363 1075 2328 
Q 1075 1297 1465 770 
Q 1856 244 2625 244 
z
M 2625 -91 
Q 2150 -91 1751 65 
Q 1353 222 1050 525 
Q 700 875 529 1319 
Q 359 1763 359 2328 
Q 359 2894 529 3339 
Q 700 3784 1050 4134 
Q 1356 4441 1750 4595 
Q 2144 4750 2625 4750 
Q 3641 4750 4266 4084 
Q 4891 3419 4891 2328 
Q 4891 1769 4719 1320 
Q 4547 872 4197 525 
Q 3891 219 3497 64 
Q 3103 -91 2625 -91 
z
" transform="scale(0.015625)"/>
       <path id="DejaVuSerif-62" d="M 738 331 
L 738 4531 
L 184 4531 
L 184 4863 
L 1313 4863 
L 1313 2803 
Q 1481 3116 1742 3264 
Q 2003 3413 2388 3413 
Q 3000 3413 3387 2928 
Q 3775 2444 3775 1663 
Q 3775 881 3387 395 
Q 3000 -91 2388 -91 
Q 2003 -91 1742 57 
Q 1481 206 1313 519 
L 1313 0 
L 184 0 
L 184 331 
L 738 331 
z
M 1313 1497 
Q 1313 897 1542 583 
Q 1772 269 2209 269 
Q 2650 269 2876 622 
Q 3103 975 3103 1663 
Q 3103 2353 2876 2703 
Q 2650 3053 2209 3053 
Q 1772 3053 1542 2737 
Q 1313 2422 1313 1825 
L 1313 1497 
z
" transform="scale(0.015625)"/>
       <path id="DejaVuSerif-73" d="M 359 184 
L 359 959 
L 691 959 
Q 703 588 923 403 
Q 1144 219 1575 219 
Q 1963 219 2166 364 
Q 2369 509 2369 788 
Q 2369 1006 2220 1140 
Q 2072 1275 1594 1428 
L 1178 1569 
Q 750 1706 558 1912 
Q 366 2119 366 2438 
Q 366 2894 700 3153 
Q 1034 3413 1625 3413 
Q 1888 3413 2178 3344 
Q 2469 3275 2778 3144 
L 2778 2419 
L 2447 2419 
Q 2434 2741 2221 2922 
Q 2009 3103 1644 3103 
Q 1281 3103 1095 2975 
Q 909 2847 909 2591 
Q 909 2381 1050 2254 
Q 1191 2128 1613 1997 
L 2069 1856 
Q 2541 1709 2748 1489 
Q 2956 1269 2956 922 
Q 2956 450 2595 179 
Q 2234 -91 1600 -91 
Q 1278 -91 972 -22 
Q 666 47 359 184 
z
" transform="scale(0.015625)"/>
       <path id="DejaVuSerif-65" d="M 3469 1600 
L 991 1600 
L 991 1575 
Q 991 903 1244 561 
Q 1497 219 1991 219 
Q 2369 219 2611 417 
Q 2853 616 2950 1006 
L 3413 1006 
Q 3275 459 2904 184 
Q 2534 -91 1931 -91 
Q 1203 -91 761 389 
Q 319 869 319 1663 
Q 319 2450 753 2931 
Q 1188 3413 1894 3413 
Q 2647 3413 3050 2948 
Q 3453 2484 3469 1600 
z
M 2791 1931 
Q 2772 2513 2545 2808 
Q 2319 3103 1894 3103 
Q 1497 3103 1269 2806 
Q 1041 2509 991 1931 
L 2791 1931 
z
" transform="scale(0.015625)"/>
       <path id="DejaVuSerif-72" d="M 3059 3328 
L 3059 2497 
L 2728 2497 
Q 2713 2744 2591 2866 
Q 2469 2988 2234 2988 
Q 1809 2988 1582 2694 
Q 1356 2400 1356 1850 
L 1356 331 
L 2022 331 
L 2022 0 
L 263 0 
L 263 331 
L 781 331 
L 781 2994 
L 231 2994 
L 231 3322 
L 1356 3322 
L 1356 2731 
Q 1525 3078 1790 3245 
Q 2056 3413 2438 3413 
Q 2578 3413 2733 3391 
Q 2888 3369 3059 3328 
z
" transform="scale(0.015625)"/>
       <path id="DejaVuSerif-76" d="M 1581 0 
L 359 2988 
L -19 2988 
L -19 3322 
L 1509 3322 
L 1509 2988 
L 978 2988 
L 1913 703 
L 2847 2988 
L 2350 2988 
L 2350 3322 
L 3597 3322 
L 3597 2988 
L 3225 2988 
L 2003 0 
L 1581 0 
z
" transform="scale(0.015625)"/>
       <path id="DejaVuSerif-61" d="M 2547 1044 
L 2547 1747 
L 1806 1747 
Q 1378 1747 1168 1562 
Q 959 1378 959 997 
Q 959 650 1171 447 
Q 1384 244 1747 244 
Q 2106 244 2326 466 
Q 2547 688 2547 1044 
z
M 3122 2075 
L 3122 331 
L 3634 331 
L 3634 0 
L 2547 0 
L 2547 359 
Q 2356 128 2106 18 
Q 1856 -91 1522 -91 
Q 969 -91 644 203 
Q 319 497 319 997 
Q 319 1513 691 1797 
Q 1063 2081 1741 2081 
L 2547 2081 
L 2547 2309 
Q 2547 2688 2317 2895 
Q 2088 3103 1672 3103 
Q 1328 3103 1125 2947 
Q 922 2791 872 2484 
L 575 2484 
L 575 3156 
Q 875 3284 1158 3348 
Q 1441 3413 1709 3413 
Q 2400 3413 2761 3070 
Q 3122 2728 3122 2075 
z
" transform="scale(0.015625)"/>
       <path id="DejaVuSerif-64" d="M 3359 331 
L 3909 331 
L 3909 0 
L 2784 0 
L 2784 519 
Q 2616 206 2355 57 
Q 2094 -91 1709 -91 
Q 1097 -91 708 395 
Q 319 881 319 1663 
Q 319 2444 706 2928 
Q 1094 3413 1709 3413 
Q 2094 3413 2355 3264 
Q 2616 3116 2784 2803 
L 2784 4531 
L 2241 4531 
L 2241 4863 
L 3359 4863 
L 3359 331 
z
M 2784 1497 
L 2784 1825 
Q 2784 2422 2554 2737 
Q 2325 3053 1888 3053 
Q 1444 3053 1217 2703 
Q 991 2353 991 1663 
Q 991 975 1217 622 
Q 1444 269 1888 269 
Q 2325 269 2554 583 
Q 2784 897 2784 1497 
z
" transform="scale(0.015625)"/>
       <path id="DejaVuSerif-6f" d="M 1925 219 
Q 2388 219 2623 584 
Q 2859 950 2859 1663 
Q 2859 2375 2623 2739 
Q 2388 3103 1925 3103 
Q 1463 3103 1227 2739 
Q 991 2375 991 1663 
Q 991 950 1228 584 
Q 1466 219 1925 219 
z
M 1925 -91 
Q 1200 -91 759 389 
Q 319 869 319 1663 
Q 319 2456 758 2934 
Q 1197 3413 1925 3413 
Q 2653 3413 3092 2934 
Q 3531 2456 3531 1663 
Q 3531 869 3092 389 
Q 2653 -91 1925 -91 
z
" transform="scale(0.015625)"/>
      </defs>
      <use xlink:href="#DejaVuSerif-4f"/>
      <use xlink:href="#DejaVuSerif-62" transform="translate(81.982422 0)"/>
      <use xlink:href="#DejaVuSerif-73" transform="translate(145.996094 0)"/>
      <use xlink:href="#DejaVuSerif-65" transform="translate(197.314453 0)"/>
      <use xlink:href="#DejaVuSerif-72" transform="translate(256.494141 0)"/>
      <use xlink:href="#DejaVuSerif-76" transform="translate(304.296875 0)"/>
      <use xlink:href="#DejaVuSerif-61" transform="translate(360.791016 0)"/>
      <use xlink:href="#DejaVuSerif-64" transform="translate(420.410156 0)"/>
      <use xlink:href="#DejaVuSerif-6f" transform="translate(484.423828 0)"/>
     </g>
    </g>
   </g>
   <g id="line2d_21">
    <path d="M 62.504659 65.927415 
L 63.582506 58.993465 
L 64.734687 52.52829 
L 65.849702 46.964487 
L 67.001883 50.843342 
L 68.116897 53.659218 
L 69.269078 60.020146 
L 70.42126 61.946215 
L 71.536274 62.277434 
L 72.688455 64.034685 
L 73.803469 64.197635 
L 74.95565 63.700308 
L 77.148512 54.268737 
L 78.300693 43.937351 
L 79.415707 40.566542 
L 80.567888 45.889292 
L 81.682902 48.503704 
L 82.835084 52.204982 
L 83.987265 58.557766 
L 85.102279 60.850643 
L 86.25446 61.452505 
L 87.369475 59.313174 
L 88.521656 58.162555 
L 89.673837 51.839241 
L 90.714517 44.594242 
L 91.866698 39.893681 
L 92.981712 36.624211 
L 95.248908 41.809756 
L 96.401089 48.927752 
L 97.55327 53.562975 
L 98.668285 52.587433 
L 99.820466 49.470247 
L 100.93548 44.226649 
L 102.087661 43.318927 
L 103.239843 44.47299 
L 104.280522 42.391842 
L 105.432704 38.901378 
L 106.547718 42.703234 
L 107.699899 49.256772 
L 108.814913 50.190671 
L 109.967095 52.597384 
L 111.119276 57.68466 
L 112.23429 58.481204 
L 113.386471 54.888204 
L 114.501486 52.118859 
L 116.805848 49.101128 
L 117.883695 45.317897 
L 119.035876 42.936493 
L 120.150891 41.728585 
L 122.418086 48.662384 
L 123.570267 50.810249 
L 124.722449 55.452235 
L 125.837463 54.014557 
L 128.104658 50.511026 
L 129.256839 47.419068 
L 130.409021 45.500772 
L 131.449701 44.970204 
L 132.601882 41.472356 
L 133.716896 41.127455 
L 134.869077 40.141657 
L 135.984091 43.801445 
L 137.136273 51.524708 
L 138.288454 57.089913 
L 139.403468 61.391957 
L 140.555649 60.423927 
L 141.670664 61.452282 
L 142.822845 60.128289 
L 143.975026 56.988609 
L 145.015706 50.708753 
L 146.167887 46.384724 
L 147.282901 46.754996 
L 148.435083 44.833449 
L 149.550097 45.48417 
L 150.702278 49.588123 
L 151.854459 51.854894 
L 152.969474 50.049095 
L 154.121655 49.462935 
L 155.236669 46.291932 
L 156.38885 43.616618 
L 157.541032 44.156066 
L 158.581711 43.230186 
L 159.733893 43.432855 
L 160.848907 44.488021 
L 162.001088 48.526112 
L 163.116102 51.008594 
L 165.420465 67.149168 
L 166.535479 71.813088 
L 167.68766 73.946524 
L 168.802674 74.761746 
L 169.954856 71.597838 
L 171.107037 67.342447 
L 172.184884 60.911106 
L 173.337065 51.689794 
L 174.45208 47.955695 
L 175.604261 48.907706 
L 177.871456 51.996686 
L 179.023638 56.33874 
L 180.138652 59.454695 
L 181.290833 60.518555 
L 182.405847 61.261169 
L 183.558028 62.600441 
L 184.71021 58.498082 
L 185.75089 52.242221 
L 186.903071 46.735573 
L 188.018085 41.969303 
L 189.170266 40.565417 
L 190.28528 41.541686 
L 191.437462 45.419389 
L 192.589643 50.242133 
L 193.704657 51.771954 
L 194.856838 49.98148 
L 195.971853 45.011421 
L 198.276215 40.826404 
L 199.316895 39.059117 
L 200.469076 35.704506 
L 201.58409 35.542463 
L 202.736272 43.785007 
L 203.851286 52.714513 
L 205.003467 64.827337 
L 206.155648 71.309686 
L 207.270663 75.136615 
L 208.422844 76.091136 
L 209.537858 74.548675 
L 210.690039 72.156564 
L 211.842221 65.925763 
L 212.8829 55.411541 
L 215.150096 44.467025 
L 216.302277 45.626055 
L 217.417291 48.224135 
L 218.569473 53.773995 
L 219.721654 61.101464 
L 220.836668 65.841625 
L 221.988849 66.838073 
L 223.103863 66.516916 
L 224.256045 64.950041 
L 225.408226 60.362506 
L 226.486073 51.917061 
L 228.753268 40.815139 
L 229.90545 41.956766 
L 231.020464 43.347349 
L 232.172645 48.61174 
L 233.324826 51.858054 
L 234.439841 54.555158 
L 235.592022 54.986662 
L 236.707036 53.729686 
L 237.859217 55.463511 
L 239.011399 53.551681 
L 240.052079 47.299624 
L 241.20426 42.434382 
L 242.319274 44.474711 
L 243.471455 48.1784 
L 244.586469 52.170347 
L 245.738651 57.067484 
L 246.890832 61.205652 
L 248.005846 60.777979 
L 249.158027 59.824225 
L 250.273042 56.207941 
L 251.425223 54.738241 
L 252.577404 52.78261 
L 253.618084 48.609217 
L 254.770265 41.367539 
L 255.885279 38.981335 
L 257.037461 36.050195 
L 258.152475 39.734735 
L 259.304656 47.58685 
L 260.456837 51.669177 
L 261.571852 53.591645 
L 262.724033 51.854511 
L 263.839047 47.465748 
L 264.991228 47.636204 
L 266.14341 46.646587 
L 267.184089 41.395851 
L 268.336271 36.430216 
L 269.451285 30.355013 
L 270.603466 30.39255 
L 271.71848 32.477073 
L 274.022843 40.867556 
L 275.137857 40.509575 
L 276.290038 38.189427 
L 277.405052 33.722017 
L 278.557234 32.77308 
L 279.709415 33.803976 
L 280.787262 32.021831 
L 281.939443 28.613864 
L 283.054457 32.84525 
L 285.321653 43.898088 
L 286.473834 51.653256 
L 287.626015 57.601359 
L 288.74103 60.445573 
L 289.893211 60.725551 
L 291.008225 60.105534 
L 292.160406 56.673953 
L 293.312588 49.875632 
L 294.353268 42.713728 
L 295.505449 38.300381 
L 296.620463 37.150388 
L 297.772644 39.179133 
L 298.887658 43.803585 
L 300.03984 49.812532 
L 301.192021 58.192571 
L 302.307035 62.884073 
L 303.459216 63.566874 
L 304.574231 63.629238 
L 305.726412 63.259686 
L 306.878593 57.492664 
L 307.919273 51.591576 
L 309.071454 47.106114 
L 310.186468 44.950909 
L 311.33865 43.63353 
L 312.453664 46.476392 
L 313.605845 50.320595 
L 314.758026 55.094468 
L 315.873041 55.999642 
L 317.025222 50.414202 
L 319.292417 46.415046 
L 320.444599 44.794201 
L 321.485278 39.190231 
L 322.63746 33.954247 
L 323.752474 34.403369 
L 324.904655 36.149088 
L 326.019669 41.811669 
L 327.171851 49.075247 
L 328.324032 57.596113 
L 329.439046 59.96269 
L 330.591227 55.09612 
L 331.706241 52.945698 
L 334.010604 45.582117 
L 335.088451 41.835694 
L 336.240632 36.447816 
L 337.355646 35.802889 
L 339.622842 50.636296 
L 340.775023 56.831154 
L 341.927204 64.569885 
L 343.042219 68.239706 
L 344.1944 70.15796 
L 345.309414 68.533271 
L 346.461595 65.525167 
L 347.613777 61.161167 
L 349.806638 45.900851 
L 350.921652 46.044336 
L 352.073833 45.90318 
L 353.188847 46.867882 
L 355.49321 58.477283 
L 356.608224 62.873884 
L 357.760405 66.441724 
L 360.027601 66.061934 
L 361.179782 59.555465 
L 362.220462 54.704788 
L 363.372643 50.077891 
L 364.487657 51.973912 
L 365.639839 54.817252 
L 366.754853 54.935431 
L 367.907034 61.239072 
L 369.059215 66.908411 
L 370.17423 70.43963 
L 371.326411 71.190613 
L 372.441425 68.452053 
L 373.593606 63.208554 
L 374.745788 57.12368 
L 376.938649 39.609477 
L 378.053663 33.280769 
L 380.320858 32.815808 
L 381.47304 35.872468 
L 382.625221 37.973299 
L 383.740235 38.906091 
L 384.892416 37.997809 
L 386.00743 36.90258 
L 387.159612 36.629461 
L 388.311793 34.558042 
L 389.38964 31.846191 
L 390.541821 31.077536 
L 391.656835 32.876363 
L 392.809017 39.736004 
L 393.924031 43.988949 
L 395.076212 50.934014 
L 397.343408 60.927354 
L 398.495589 60.933559 
L 399.610603 56.630764 
L 400.762784 59.344008 
L 401.914966 56.180322 
L 404.107827 39.689117 
L 405.222841 38.735428 
L 405.222841 38.735428 
" clip-path="url(#p7d5ab2952d)" style="fill: none; stroke: #4596f3; stroke-width: 0.5; stroke-linecap: square"/>
   </g>
   <g id="patch_3">
    <path d="M 45.36875 78.465 
L 45.36875 26.24 
" style="fill: none; stroke: #000000; stroke-width: 0.8; stroke-linejoin: miter; stroke-linecap: square"/>
   </g>
   <g id="patch_4">
    <path d="M 45.36875 78.465 
L 422.35875 78.465 
" style="fill: none; stroke: #000000; stroke-width: 0.8; stroke-linejoin: miter; stroke-linecap: square"/>
   </g>
  </g>
  <g id="axes_2">
   <g id="patch_5">
    <path d="M 45.36875 142.83 
L 422.35875 142.83 
L 422.35875 90.605 
L 45.36875 90.605 
z
" style="fill: #ffffff"/>
   </g>
   <g id="matplotlib.axis_3">
    <g id="xtick_8">
     <g id="line2d_22">
      <path d="M 61.389645 142.83 
L 61.389645 90.605 
" clip-path="url(#p54120de155)" style="fill: none; stroke-dasharray: 2.96,1.28; stroke-dashoffset: 0; stroke: #b0b0b0; stroke-opacity: 0.5; stroke-width: 0.8"/>
     </g>
     <g id="line2d_23">
      <g>
       <use xlink:href="#m8a57c35150" x="61.389645" y="142.83" style="stroke: #000000; stroke-width: 0.8"/>
      </g>
     </g>
    </g>
    <g id="xtick_9">
     <g id="line2d_24">
      <path d="M 115.690834 142.83 
L 115.690834 90.605 
" clip-path="url(#p54120de155)" style="fill: none; stroke-dasharray: 2.96,1.28; stroke-dashoffset: 0; stroke: #b0b0b0; stroke-opacity: 0.5; stroke-width: 0.8"/>
     </g>
     <g id="line2d_25">
      <g>
       <use xlink:href="#m8a57c35150" x="115.690834" y="142.83" style="stroke: #000000; stroke-width: 0.8"/>
      </g>
     </g>
    </g>
    <g id="xtick_10">
     <g id="line2d_26">
      <path d="M 169.992023 142.83 
L 169.992023 90.605 
" clip-path="url(#p54120de155)" style="fill: none; stroke-dasharray: 2.96,1.28; stroke-dashoffset: 0; stroke: #b0b0b0; stroke-opacity: 0.5; stroke-width: 0.8"/>
     </g>
     <g id="line2d_27">
      <g>
       <use xlink:href="#m8a57c35150" x="169.992023" y="142.83" style="stroke: #000000; stroke-width: 0.8"/>
      </g>
     </g>
    </g>
    <g id="xtick_11">
     <g id="line2d_28">
      <path d="M 224.293212 142.83 
L 224.293212 90.605 
" clip-path="url(#p54120de155)" style="fill: none; stroke-dasharray: 2.96,1.28; stroke-dashoffset: 0; stroke: #b0b0b0; stroke-opacity: 0.5; stroke-width: 0.8"/>
     </g>
     <g id="line2d_29">
      <g>
       <use xlink:href="#m8a57c35150" x="224.293212" y="142.83" style="stroke: #000000; stroke-width: 0.8"/>
      </g>
     </g>
    </g>
    <g id="xtick_12">
     <g id="line2d_30">
      <path d="M 278.594401 142.83 
L 278.594401 90.605 
" clip-path="url(#p54120de155)" style="fill: none; stroke-dasharray: 2.96,1.28; stroke-dashoffset: 0; stroke: #b0b0b0; stroke-opacity: 0.5; stroke-width: 0.8"/>
     </g>
     <g id="line2d_31">
      <g>
       <use xlink:href="#m8a57c35150" x="278.594401" y="142.83" style="stroke: #000000; stroke-width: 0.8"/>
      </g>
     </g>
    </g>
    <g id="xtick_13">
     <g id="line2d_32">
      <path d="M 332.89559 142.83 
L 332.89559 90.605 
" clip-path="url(#p54120de155)" style="fill: none; stroke-dasharray: 2.96,1.28; stroke-dashoffset: 0; stroke: #b0b0b0; stroke-opacity: 0.5; stroke-width: 0.8"/>
     </g>
     <g id="line2d_33">
      <g>
       <use xlink:href="#m8a57c35150" x="332.89559" y="142.83" style="stroke: #000000; stroke-width: 0.8"/>
      </g>
     </g>
    </g>
    <g id="xtick_14">
     <g id="line2d_34">
      <path d="M 387.196779 142.83 
L 387.196779 90.605 
" clip-path="url(#p54120de155)" style="fill: none; stroke-dasharray: 2.96,1.28; stroke-dashoffset: 0; stroke: #b0b0b0; stroke-opacity: 0.5; stroke-width: 0.8"/>
     </g>
     <g id="line2d_35">
      <g>
       <use xlink:href="#m8a57c35150" x="387.196779" y="142.83" style="stroke: #000000; stroke-width: 0.8"/>
      </g>
     </g>
    </g>
   </g>
   <g id="matplotlib.axis_4">
    <g id="ytick_4">
     <g id="line2d_36">
      <path d="M 45.36875 138.348822 
L 422.35875 138.348822 
" clip-path="url(#p54120de155)" style="fill: none; stroke-dasharray: 2.96,1.28; stroke-dashoffset: 0; stroke: #b0b0b0; stroke-opacity: 0.5; stroke-width: 0.8"/>
     </g>
     <g id="line2d_37">
      <g>
       <use xlink:href="#mfcdda35cf3" x="45.36875" y="138.348822" style="stroke: #000000; stroke-width: 0.8"/>
      </g>
     </g>
     <g id="text_5">
      <!-- −1 -->
      <g transform="translate(26.575 141.388197) scale(0.08 -0.08)">
       <defs>
        <path id="DejaVuSerif-31" d="M 909 0 
L 909 331 
L 1722 331 
L 1722 4213 
L 781 3603 
L 781 4013 
L 1919 4750 
L 2350 4750 
L 2350 331 
L 3163 331 
L 3163 0 
L 909 0 
z
" transform="scale(0.015625)"/>
       </defs>
       <use xlink:href="#DejaVuSerif-2212"/>
       <use xlink:href="#DejaVuSerif-31" transform="translate(83.789062 0)"/>
      </g>
     </g>
    </g>
    <g id="ytick_5">
     <g id="line2d_38">
      <path d="M 45.36875 120.523873 
L 422.35875 120.523873 
" clip-path="url(#p54120de155)" style="fill: none; stroke-dasharray: 2.96,1.28; stroke-dashoffset: 0; stroke: #b0b0b0; stroke-opacity: 0.5; stroke-width: 0.8"/>
     </g>
     <g id="line2d_39">
      <g>
       <use xlink:href="#mfcdda35cf3" x="45.36875" y="120.523873" style="stroke: #000000; stroke-width: 0.8"/>
      </g>
     </g>
     <g id="text_6">
      <!-- 0 -->
      <g transform="translate(33.27875 123.563248) scale(0.08 -0.08)">
       <use xlink:href="#DejaVuSerif-30"/>
      </g>
     </g>
    </g>
    <g id="ytick_6">
     <g id="line2d_40">
      <path d="M 45.36875 102.698923 
L 422.35875 102.698923 
" clip-path="url(#p54120de155)" style="fill: none; stroke-dasharray: 2.96,1.28; stroke-dashoffset: 0; stroke: #b0b0b0; stroke-opacity: 0.5; stroke-width: 0.8"/>
     </g>
     <g id="line2d_41">
      <g>
       <use xlink:href="#mfcdda35cf3" x="45.36875" y="102.698923" style="stroke: #000000; stroke-width: 0.8"/>
      </g>
     </g>
     <g id="text_7">
      <!-- 1 -->
      <g transform="translate(33.27875 105.738298) scale(0.08 -0.08)">
       <use xlink:href="#DejaVuSerif-31"/>
      </g>
     </g>
    </g>
    <g id="text_8">
     <!-- Tendência -->
     <g transform="translate(20.91125 137.428125) rotate(-90) scale(0.08 -0.08)">
      <defs>
       <path id="DejaVuSerif-54" d="M 1222 0 
L 1222 331 
L 1819 331 
L 1819 4294 
L 447 4294 
L 447 3566 
L 63 3566 
L 63 4666 
L 4206 4666 
L 4206 3566 
L 3822 3566 
L 3822 4294 
L 2450 4294 
L 2450 331 
L 3047 331 
L 3047 0 
L 1222 0 
z
" transform="scale(0.015625)"/>
       <path id="DejaVuSerif-6e" d="M 263 0 
L 263 331 
L 781 331 
L 781 2988 
L 231 2988 
L 231 3322 
L 1356 3322 
L 1356 2731 
Q 1516 3069 1770 3241 
Q 2025 3413 2363 3413 
Q 2913 3413 3172 3097 
Q 3431 2781 3431 2113 
L 3431 331 
L 3944 331 
L 3944 0 
L 2356 0 
L 2356 331 
L 2853 331 
L 2853 1931 
Q 2853 2541 2703 2767 
Q 2553 2994 2175 2994 
Q 1775 2994 1565 2701 
Q 1356 2409 1356 1850 
L 1356 331 
L 1856 331 
L 1856 0 
L 263 0 
z
" transform="scale(0.015625)"/>
       <path id="DejaVuSerif-ea" d="M 3469 1600 
L 991 1600 
L 991 1575 
Q 991 903 1244 561 
Q 1497 219 1991 219 
Q 2369 219 2611 417 
Q 2853 616 2950 1006 
L 3413 1006 
Q 3275 459 2904 184 
Q 2534 -91 1931 -91 
Q 1203 -91 761 389 
Q 319 869 319 1663 
Q 319 2450 753 2931 
Q 1188 3413 1894 3413 
Q 2647 3413 3050 2948 
Q 3453 2484 3469 1600 
z
M 2791 1931 
Q 2772 2513 2545 2808 
Q 2319 3103 1894 3103 
Q 1497 3103 1269 2806 
Q 1041 2509 991 1931 
L 2791 1931 
z
M 1634 5119 
L 2159 5119 
L 2893 3944 
L 2530 3944 
L 1896 4756 
L 1262 3944 
L 899 3944 
L 1634 5119 
z
" transform="scale(0.015625)"/>
       <path id="DejaVuSerif-63" d="M 3291 997 
Q 3169 466 2822 187 
Q 2475 -91 1925 -91 
Q 1200 -91 759 389 
Q 319 869 319 1663 
Q 319 2459 759 2936 
Q 1200 3413 1925 3413 
Q 2241 3413 2553 3339 
Q 2866 3266 3181 3116 
L 3181 2266 
L 2847 2266 
Q 2781 2703 2561 2903 
Q 2341 3103 1931 3103 
Q 1466 3103 1228 2742 
Q 991 2381 991 1663 
Q 991 944 1227 581 
Q 1463 219 1931 219 
Q 2303 219 2525 412 
Q 2747 606 2828 997 
L 3291 997 
z
" transform="scale(0.015625)"/>
       <path id="DejaVuSerif-69" d="M 622 4353 
Q 622 4497 726 4603 
Q 831 4709 978 4709 
Q 1122 4709 1226 4603 
Q 1331 4497 1331 4353 
Q 1331 4206 1228 4103 
Q 1125 4000 978 4000 
Q 831 4000 726 4103 
Q 622 4206 622 4353 
z
M 1356 331 
L 1900 331 
L 1900 0 
L 231 0 
L 231 331 
L 781 331 
L 781 2988 
L 231 2988 
L 231 3322 
L 1356 3322 
L 1356 331 
z
" transform="scale(0.015625)"/>
      </defs>
      <use xlink:href="#DejaVuSerif-54"/>
      <use xlink:href="#DejaVuSerif-65" transform="translate(58.949219 0)"/>
      <use xlink:href="#DejaVuSerif-6e" transform="translate(118.128906 0)"/>
      <use xlink:href="#DejaVuSerif-64" transform="translate(182.533203 0)"/>
      <use xlink:href="#DejaVuSerif-ea" transform="translate(246.546875 0)"/>
      <use xlink:href="#DejaVuSerif-6e" transform="translate(305.726562 0)"/>
      <use xlink:href="#DejaVuSerif-63" transform="translate(370.130859 0)"/>
      <use xlink:href="#DejaVuSerif-69" transform="translate(426.136719 0)"/>
      <use xlink:href="#DejaVuSerif-61" transform="translate(458.119141 0)"/>
     </g>
    </g>
   </g>
   <g id="line2d_42">
    <path d="M 62.504659 139.589168 
L 65.849702 136.90026 
L 70.42126 133.341809 
L 73.803469 130.600955 
L 76.107832 128.916141 
L 77.148512 128.211573 
L 81.682902 125.773331 
L 83.987265 124.136532 
L 90.714517 118.828154 
L 91.866698 117.634429 
L 96.401089 111.953263 
L 97.55327 111.1475 
L 98.668285 110.878534 
L 99.820466 111.110215 
L 100.93548 111.695261 
L 103.239843 113.39677 
L 105.432704 115.254707 
L 108.814913 117.990077 
L 109.967095 118.777794 
L 111.119276 119.356 
L 112.23429 119.674262 
L 113.386471 119.755375 
L 114.501486 119.643853 
L 116.805848 119.058205 
L 123.570267 116.967051 
L 125.837463 116.303 
L 129.256839 115.241682 
L 130.409021 115.179029 
L 131.449701 115.426902 
L 132.601882 116.05199 
L 133.716896 117.048263 
L 135.984091 119.703821 
L 138.288454 122.32661 
L 139.403468 123.403216 
L 140.555649 124.251764 
L 141.670664 124.852159 
L 142.822845 125.162703 
L 143.975026 125.087601 
L 145.015706 124.536687 
L 146.167887 123.467851 
L 147.282901 121.93991 
L 150.702278 116.373485 
L 151.854459 114.933506 
L 152.969474 113.999426 
L 154.121655 113.624966 
L 155.236669 113.818369 
L 156.38885 114.590195 
L 157.541032 115.971415 
L 158.581711 117.981144 
L 159.733893 120.585676 
L 162.001088 127.094978 
L 163.116102 130.551953 
L 164.268284 133.756912 
L 165.420465 136.461713 
L 166.535479 138.506662 
L 167.68766 139.835317 
L 168.802674 140.456136 
L 169.954856 140.414269 
L 171.107037 139.780345 
L 172.184884 138.640868 
L 173.337065 137.116432 
L 176.719275 131.85296 
L 177.871456 130.344507 
L 180.138652 127.991559 
L 184.71021 124.193849 
L 186.903071 121.723731 
L 188.018085 120.067977 
L 189.170266 118.0716 
L 191.437462 113.566196 
L 192.589643 111.489824 
L 193.704657 109.882145 
L 194.856838 108.992057 
L 195.971853 108.989752 
L 197.124034 109.932912 
L 198.276215 111.773032 
L 199.316895 114.384075 
L 200.469076 117.60309 
L 205.003467 132.457729 
L 206.155648 135.481852 
L 207.270663 137.795916 
L 208.422844 139.294839 
L 209.537858 139.962234 
L 210.690039 139.866673 
L 211.842221 139.141769 
L 217.417291 133.092976 
L 218.569473 132.229359 
L 220.836668 130.912704 
L 223.103863 129.730591 
L 224.256045 128.972619 
L 225.408226 128.021707 
L 227.638254 125.473609 
L 231.020464 121.084789 
L 232.172645 119.917984 
L 233.324826 119.086705 
L 234.439841 118.684121 
L 235.592022 118.740984 
L 236.707036 119.219893 
L 237.859217 120.034113 
L 239.011399 121.05811 
L 240.052079 122.144912 
L 241.20426 123.157152 
L 242.319274 123.984677 
L 243.471455 124.576626 
L 244.586469 124.930288 
L 245.738651 125.05055 
L 246.890832 124.922845 
L 248.005846 124.497728 
L 249.158027 123.742292 
L 250.273042 122.674835 
L 252.577404 119.950111 
L 253.618084 118.549784 
L 255.885279 115.999107 
L 258.152475 113.80643 
L 262.724033 109.880885 
L 264.991228 107.597522 
L 266.14341 106.253783 
L 268.336271 102.977752 
L 271.71848 97.199352 
L 272.870662 95.47721 
L 274.022843 94.092167 
L 275.137857 93.211857 
L 276.290038 92.978864 
L 277.405052 93.46162 
L 278.557234 94.632445 
L 279.709415 96.405381 
L 280.787262 98.68599 
L 281.939443 101.398842 
L 285.321653 110.604323 
L 286.473834 113.315259 
L 287.626015 115.53829 
L 288.74103 117.189644 
L 289.893211 118.281495 
L 291.008225 118.897163 
L 292.160406 119.158063 
L 295.505449 119.333405 
L 296.620463 119.626446 
L 297.772644 120.134723 
L 298.887658 120.859812 
L 300.03984 121.802719 
L 304.574231 126.153679 
L 305.726412 126.717126 
L 306.878593 126.87009 
L 307.919273 126.524488 
L 309.071454 125.633195 
L 310.186468 124.226238 
L 311.33865 122.421027 
L 314.758026 116.299812 
L 315.873041 114.508044 
L 317.025222 112.992492 
L 318.140236 111.811487 
L 319.292417 111.036706 
L 320.444599 110.696227 
L 321.485278 110.723279 
L 322.63746 111.003381 
L 328.324032 113.084217 
L 330.591227 113.926724 
L 331.706241 114.605128 
L 332.858423 115.488265 
L 334.010604 116.571159 
L 336.240632 119.397728 
L 338.507828 123.153697 
L 340.775023 127.373954 
L 341.927204 129.291837 
L 343.042219 130.88288 
L 344.1944 132.033283 
L 345.309414 132.687889 
L 346.461595 132.84661 
L 347.613777 132.573278 
L 350.921652 130.82014 
L 352.073833 130.366321 
L 353.188847 130.066688 
L 354.341029 129.969706 
L 355.49321 130.139362 
L 356.608224 130.596148 
L 357.760405 131.312993 
L 360.027601 133.333518 
L 363.372643 136.651417 
L 364.487657 137.418361 
L 365.639839 137.846331 
L 366.754853 137.874018 
L 367.907034 137.466517 
L 369.059215 136.581715 
L 370.17423 135.153186 
L 371.326411 133.135911 
L 372.441425 130.530952 
L 373.593606 127.39583 
L 374.745788 123.804327 
L 380.320858 102.843516 
L 381.47304 99.400851 
L 382.625221 96.757928 
L 383.740235 95.036611 
L 384.892416 94.278745 
L 386.00743 94.47401 
L 387.159612 95.550956 
L 388.311793 97.378278 
L 390.541821 102.560483 
L 393.924031 111.772457 
L 395.076212 113.817474 
L 399.610603 120.760656 
L 402.955645 125.318253 
L 405.222841 127.992836 
L 405.222841 127.992836 
" clip-path="url(#p54120de155)" style="fill: none; stroke: #ff5656; stroke-width: 0.5; stroke-linecap: square"/>
   </g>
   <g id="patch_6">
    <path d="M 45.36875 142.83 
L 45.36875 90.605 
" style="fill: none; stroke: #000000; stroke-width: 0.8; stroke-linejoin: miter; stroke-linecap: square"/>
   </g>
   <g id="patch_7">
    <path d="M 45.36875 142.83 
L 422.35875 142.83 
" style="fill: none; stroke: #000000; stroke-width: 0.8; stroke-linejoin: miter; stroke-linecap: square"/>
   </g>
  </g>
  <g id="axes_3">
   <g id="patch_8">
    <path d="M 45.36875 207.195 
L 422.35875 207.195 
L 422.35875 154.97 
L 45.36875 154.97 
z
" style="fill: #ffffff"/>
   </g>
   <g id="matplotlib.axis_5">
    <g id="xtick_15">
     <g id="line2d_43">
      <path d="M 61.389645 207.195 
L 61.389645 154.97 
" clip-path="url(#pd0608b6a68)" style="fill: none; stroke-dasharray: 2.96,1.28; stroke-dashoffset: 0; stroke: #b0b0b0; stroke-opacity: 0.5; stroke-width: 0.8"/>
     </g>
     <g id="line2d_44">
      <g>
       <use xlink:href="#m8a57c35150" x="61.389645" y="207.195" style="stroke: #000000; stroke-width: 0.8"/>
      </g>
     </g>
    </g>
    <g id="xtick_16">
     <g id="line2d_45">
      <path d="M 115.690834 207.195 
L 115.690834 154.97 
" clip-path="url(#pd0608b6a68)" style="fill: none; stroke-dasharray: 2.96,1.28; stroke-dashoffset: 0; stroke: #b0b0b0; stroke-opacity: 0.5; stroke-width: 0.8"/>
     </g>
     <g id="line2d_46">
      <g>
       <use xlink:href="#m8a57c35150" x="115.690834" y="207.195" style="stroke: #000000; stroke-width: 0.8"/>
      </g>
     </g>
    </g>
    <g id="xtick_17">
     <g id="line2d_47">
      <path d="M 169.992023 207.195 
L 169.992023 154.97 
" clip-path="url(#pd0608b6a68)" style="fill: none; stroke-dasharray: 2.96,1.28; stroke-dashoffset: 0; stroke: #b0b0b0; stroke-opacity: 0.5; stroke-width: 0.8"/>
     </g>
     <g id="line2d_48">
      <g>
       <use xlink:href="#m8a57c35150" x="169.992023" y="207.195" style="stroke: #000000; stroke-width: 0.8"/>
      </g>
     </g>
    </g>
    <g id="xtick_18">
     <g id="line2d_49">
      <path d="M 224.293212 207.195 
L 224.293212 154.97 
" clip-path="url(#pd0608b6a68)" style="fill: none; stroke-dasharray: 2.96,1.28; stroke-dashoffset: 0; stroke: #b0b0b0; stroke-opacity: 0.5; stroke-width: 0.8"/>
     </g>
     <g id="line2d_50">
      <g>
       <use xlink:href="#m8a57c35150" x="224.293212" y="207.195" style="stroke: #000000; stroke-width: 0.8"/>
      </g>
     </g>
    </g>
    <g id="xtick_19">
     <g id="line2d_51">
      <path d="M 278.594401 207.195 
L 278.594401 154.97 
" clip-path="url(#pd0608b6a68)" style="fill: none; stroke-dasharray: 2.96,1.28; stroke-dashoffset: 0; stroke: #b0b0b0; stroke-opacity: 0.5; stroke-width: 0.8"/>
     </g>
     <g id="line2d_52">
      <g>
       <use xlink:href="#m8a57c35150" x="278.594401" y="207.195" style="stroke: #000000; stroke-width: 0.8"/>
      </g>
     </g>
    </g>
    <g id="xtick_20">
     <g id="line2d_53">
      <path d="M 332.89559 207.195 
L 332.89559 154.97 
" clip-path="url(#pd0608b6a68)" style="fill: none; stroke-dasharray: 2.96,1.28; stroke-dashoffset: 0; stroke: #b0b0b0; stroke-opacity: 0.5; stroke-width: 0.8"/>
     </g>
     <g id="line2d_54">
      <g>
       <use xlink:href="#m8a57c35150" x="332.89559" y="207.195" style="stroke: #000000; stroke-width: 0.8"/>
      </g>
     </g>
    </g>
    <g id="xtick_21">
     <g id="line2d_55">
      <path d="M 387.196779 207.195 
L 387.196779 154.97 
" clip-path="url(#pd0608b6a68)" style="fill: none; stroke-dasharray: 2.96,1.28; stroke-dashoffset: 0; stroke: #b0b0b0; stroke-opacity: 0.5; stroke-width: 0.8"/>
     </g>
     <g id="line2d_56">
      <g>
       <use xlink:href="#m8a57c35150" x="387.196779" y="207.195" style="stroke: #000000; stroke-width: 0.8"/>
      </g>
     </g>
    </g>
   </g>
   <g id="matplotlib.axis_6">
    <g id="ytick_7">
     <g id="line2d_57">
      <path d="M 45.36875 204.724228 
L 422.35875 204.724228 
" clip-path="url(#pd0608b6a68)" style="fill: none; stroke-dasharray: 2.96,1.28; stroke-dashoffset: 0; stroke: #b0b0b0; stroke-opacity: 0.5; stroke-width: 0.8"/>
     </g>
     <g id="line2d_58">
      <g>
       <use xlink:href="#mfcdda35cf3" x="45.36875" y="204.724228" style="stroke: #000000; stroke-width: 0.8"/>
      </g>
     </g>
     <g id="text_9">
      <!-- −1 -->
      <g transform="translate(26.575 207.763603) scale(0.08 -0.08)">
       <use xlink:href="#DejaVuSerif-2212"/>
       <use xlink:href="#DejaVuSerif-31" transform="translate(83.789062 0)"/>
      </g>
     </g>
    </g>
    <g id="ytick_8">
     <g id="line2d_59">
      <path d="M 45.36875 183.659475 
L 422.35875 183.659475 
" clip-path="url(#pd0608b6a68)" style="fill: none; stroke-dasharray: 2.96,1.28; stroke-dashoffset: 0; stroke: #b0b0b0; stroke-opacity: 0.5; stroke-width: 0.8"/>
     </g>
     <g id="line2d_60">
      <g>
       <use xlink:href="#mfcdda35cf3" x="45.36875" y="183.659475" style="stroke: #000000; stroke-width: 0.8"/>
      </g>
     </g>
     <g id="text_10">
      <!-- 0 -->
      <g transform="translate(33.27875 186.69885) scale(0.08 -0.08)">
       <use xlink:href="#DejaVuSerif-30"/>
      </g>
     </g>
    </g>
    <g id="ytick_9">
     <g id="line2d_61">
      <path d="M 45.36875 162.594721 
L 422.35875 162.594721 
" clip-path="url(#pd0608b6a68)" style="fill: none; stroke-dasharray: 2.96,1.28; stroke-dashoffset: 0; stroke: #b0b0b0; stroke-opacity: 0.5; stroke-width: 0.8"/>
     </g>
     <g id="line2d_62">
      <g>
       <use xlink:href="#mfcdda35cf3" x="45.36875" y="162.594721" style="stroke: #000000; stroke-width: 0.8"/>
      </g>
     </g>
     <g id="text_11">
      <!-- 1 -->
      <g transform="translate(33.27875 165.634096) scale(0.08 -0.08)">
       <use xlink:href="#DejaVuSerif-31"/>
      </g>
     </g>
    </g>
    <g id="text_12">
     <!-- Sazonalidade -->
     <g transform="translate(20.91125 208.116875) rotate(-90) scale(0.08 -0.08)">
      <defs>
       <path id="DejaVuSerif-53" d="M 594 225 
L 594 1288 
L 953 1284 
Q 969 753 1261 498 
Q 1553 244 2150 244 
Q 2706 244 2998 464 
Q 3291 684 3291 1106 
Q 3291 1444 3114 1625 
Q 2938 1806 2369 1978 
L 1753 2163 
Q 1084 2366 811 2669 
Q 538 2972 538 3500 
Q 538 4094 959 4422 
Q 1381 4750 2144 4750 
Q 2469 4750 2856 4679 
Q 3244 4609 3681 4475 
L 3681 3481 
L 3328 3481 
Q 3275 3975 2998 4195 
Q 2722 4416 2156 4416 
Q 1663 4416 1405 4214 
Q 1147 4013 1147 3628 
Q 1147 3294 1340 3103 
Q 1534 2913 2163 2725 
L 2741 2553 
Q 3375 2363 3645 2067 
Q 3916 1772 3916 1275 
Q 3916 597 3481 253 
Q 3047 -91 2188 -91 
Q 1803 -91 1404 -12 
Q 1006 66 594 225 
z
" transform="scale(0.015625)"/>
       <path id="DejaVuSerif-7a" d="M 256 0 
L 256 269 
L 2338 2988 
L 691 2988 
L 691 2413 
L 359 2413 
L 359 3322 
L 3078 3322 
L 3078 3053 
L 997 331 
L 2803 331 
L 2803 934 
L 3138 934 
L 3138 0 
L 256 0 
z
" transform="scale(0.015625)"/>
       <path id="DejaVuSerif-6c" d="M 1313 331 
L 1856 331 
L 1856 0 
L 184 0 
L 184 331 
L 738 331 
L 738 4531 
L 184 4531 
L 184 4863 
L 1313 4863 
L 1313 331 
z
" transform="scale(0.015625)"/>
      </defs>
      <use xlink:href="#DejaVuSerif-53"/>
      <use xlink:href="#DejaVuSerif-61" transform="translate(68.505859 0)"/>
      <use xlink:href="#DejaVuSerif-7a" transform="translate(128.125 0)"/>
      <use xlink:href="#DejaVuSerif-6f" transform="translate(180.810547 0)"/>
      <use xlink:href="#DejaVuSerif-6e" transform="translate(241.015625 0)"/>
      <use xlink:href="#DejaVuSerif-61" transform="translate(305.419922 0)"/>
      <use xlink:href="#DejaVuSerif-6c" transform="translate(365.039062 0)"/>
      <use xlink:href="#DejaVuSerif-69" transform="translate(397.021484 0)"/>
      <use xlink:href="#DejaVuSerif-64" transform="translate(429.003906 0)"/>
      <use xlink:href="#DejaVuSerif-61" transform="translate(493.017578 0)"/>
      <use xlink:href="#DejaVuSerif-64" transform="translate(552.636719 0)"/>
      <use xlink:href="#DejaVuSerif-65" transform="translate(616.650391 0)"/>
     </g>
    </g>
   </g>
   <g id="line2d_63">
    <path d="M 62.504659 190.012202 
L 63.582506 178.609998 
L 64.734687 164.305065 
L 65.849702 157.343864 
L 67.001883 169.095857 
L 68.116897 175.662455 
L 69.269078 187.311643 
L 70.42126 196.685367 
L 71.536274 198.235075 
L 72.688455 198.139881 
L 73.803469 194.180854 
L 74.95565 193.221975 
L 76.107832 188.480681 
L 77.148512 178.03199 
L 78.300693 165.224059 
L 79.415707 159.787195 
L 80.567888 169.933067 
L 81.682902 176.065218 
L 82.835084 187.239152 
L 83.987265 196.778918 
L 85.102279 198.36465 
L 86.25446 197.565114 
L 87.369475 193.630416 
L 88.521656 191.928761 
L 89.673837 187.133129 
L 91.866698 166.097847 
L 92.981712 162.022587 
L 94.133894 170.550048 
L 95.248908 176.255343 
L 96.401089 187.033496 
L 97.55327 196.743393 
L 98.668285 198.461336 
L 99.820466 197.149983 
L 100.93548 193.323306 
L 102.087661 190.937442 
L 103.239843 185.940989 
L 105.432704 166.899854 
L 106.547718 164.064527 
L 107.699899 171.017262 
L 108.814913 176.290169 
L 111.119276 196.647569 
L 112.23429 198.560556 
L 113.386471 196.841028 
L 114.501486 193.114704 
L 115.653667 190.103792 
L 116.805848 184.81709 
L 119.035876 167.646471 
L 120.150891 166.010835 
L 122.418086 176.305619 
L 124.722449 196.512008 
L 125.837463 198.63249 
L 126.989644 196.521717 
L 129.256839 189.292078 
L 130.409021 183.856322 
L 132.601882 168.555594 
L 133.716896 167.869391 
L 134.869077 171.849408 
L 135.984091 176.229677 
L 138.288454 196.034111 
L 139.403468 198.417462 
L 140.555649 196.275691 
L 141.670664 193.169649 
L 143.975026 184.883012 
L 146.167887 169.068326 
L 147.282901 167.558499 
L 148.435083 170.48075 
L 149.550097 174.958918 
L 151.854459 195.080703 
L 152.969474 198.477254 
L 154.121655 197.354478 
L 155.236669 194.867186 
L 156.38885 190.945664 
L 157.541032 185.846897 
L 159.733893 168.587292 
L 160.848907 165.793519 
L 162.001088 168.379929 
L 163.116102 173.48727 
L 165.420465 194.988782 
L 166.535479 199.365737 
L 167.68766 199.140281 
L 168.802674 196.633571 
L 169.954856 192.811691 
L 171.107037 186.727099 
L 173.337065 167.461165 
L 174.45208 163.375835 
L 175.604261 166.502913 
L 176.719275 172.139242 
L 179.023638 195.102096 
L 180.138652 200.463274 
L 181.290833 200.916417 
L 182.405847 198.255456 
L 183.558028 194.745987 
L 184.71021 187.84913 
L 185.75089 176.477347 
L 186.903071 166.427747 
L 188.018085 161.1459 
L 189.170266 165.280073 
L 190.28528 171.362504 
L 192.589643 194.950096 
L 193.704657 200.959654 
L 194.856838 201.806148 
L 197.124034 196.195893 
L 198.276215 188.843338 
L 199.316895 176.339836 
L 200.469076 165.727784 
L 201.58409 159.881524 
L 202.736272 164.584455 
L 203.851286 171.275383 
L 205.003467 183.796708 
L 206.155648 195.031321 
L 207.270663 201.142051 
L 208.422844 201.860203 
L 209.537858 198.627481 
L 210.690039 196.601467 
L 211.842221 189.370729 
L 212.8829 176.456279 
L 214.035082 165.507745 
L 215.150096 159.734114 
L 216.302277 164.21343 
L 217.417291 171.590205 
L 218.569473 184.674969 
L 219.721654 195.571086 
L 220.836668 201.189292 
L 221.988849 201.353097 
L 223.103863 197.201803 
L 224.256045 195.684027 
L 225.408226 189.28244 
L 226.486073 176.596114 
L 227.638254 165.839529 
L 228.753268 160.375641 
L 229.90545 164.423115 
L 231.020464 172.095974 
L 232.172645 185.628538 
L 233.324826 196.213494 
L 234.439841 201.130784 
L 235.592022 200.698917 
L 236.707036 195.772047 
L 237.859217 194.321128 
L 239.011399 188.877623 
L 240.052079 176.695471 
L 241.20426 166.106468 
L 242.319274 161.4172 
L 243.471455 165.16904 
L 244.586469 172.74271 
L 245.738651 186.060052 
L 246.890832 196.432181 
L 248.005846 200.824672 
L 249.158027 200.022032 
L 250.273042 194.976859 
L 251.425223 193.485396 
L 252.577404 188.382396 
L 253.618084 176.726455 
L 254.770265 166.269659 
L 255.885279 162.644156 
L 257.037461 165.97882 
L 258.152475 173.424364 
L 259.304656 186.144663 
L 260.456837 196.610505 
L 261.571852 200.660219 
L 262.724033 199.353827 
L 263.839047 194.341498 
L 264.991228 192.665146 
L 266.14341 187.429911 
L 267.184089 176.491053 
L 268.336271 166.200847 
L 269.451285 163.548201 
L 270.603466 166.433614 
L 271.71848 174.16367 
L 272.870662 186.621423 
L 274.022843 197.517707 
L 275.137857 201.372241 
L 276.290038 199.018935 
L 277.405052 194.042625 
L 278.557234 191.829304 
L 279.709415 186.273985 
L 281.939443 165.635782 
L 283.054457 163.479577 
L 284.206639 166.30555 
L 285.321653 174.59291 
L 287.626015 198.859866 
L 288.74103 202.878965 
L 289.893211 199.375682 
L 291.008225 194.607994 
L 292.160406 191.422745 
L 293.312588 185.198275 
L 294.353268 174.682848 
L 295.505449 164.437173 
L 296.620463 162.467347 
L 297.772644 166.006217 
L 298.887658 174.686169 
L 301.192021 199.700446 
L 302.307035 204.227327 
L 303.459216 200.442841 
L 305.726412 192.025521 
L 306.878593 184.609839 
L 307.919273 173.552927 
L 309.071454 162.834783 
L 310.186468 161.404989 
L 311.33865 165.739208 
L 312.453664 174.24116 
L 313.605845 186.205496 
L 314.758026 199.589706 
L 315.873041 204.821136 
L 317.025222 201.798467 
L 318.140236 198.229211 
L 319.292417 193.529672 
L 320.444599 184.736112 
L 321.485278 173.107523 
L 322.63746 161.771293 
L 323.752474 160.845764 
L 324.904655 165.40412 
L 326.019669 173.194148 
L 327.171851 185.117447 
L 328.324032 198.719349 
L 329.439046 204.680083 
L 330.591227 202.712657 
L 331.706241 199.644755 
L 332.858423 194.825818 
L 334.010604 185.424235 
L 336.240632 161.811993 
L 337.355646 160.728666 
L 338.507828 165.950117 
L 339.622842 172.718377 
L 341.927204 197.496291 
L 343.042219 203.739935 
L 344.1944 202.570046 
L 345.309414 199.189252 
L 346.461595 194.962304 
L 347.613777 185.802655 
L 348.654456 173.810392 
L 349.806638 161.986937 
L 350.921652 160.575903 
L 353.188847 172.893643 
L 355.49321 196.750188 
L 356.608224 203.252833 
L 357.760405 202.727457 
L 358.87542 198.669453 
L 360.027601 195.323371 
L 361.179782 186.348223 
L 362.220462 173.929096 
L 363.372643 161.622657 
L 364.487657 159.951288 
L 365.639839 168.07761 
L 366.754853 173.033811 
L 369.059215 195.922084 
L 370.17423 202.724255 
L 371.326411 202.986397 
L 372.441425 198.245982 
L 373.593606 195.836326 
L 374.745788 186.974815 
L 375.786467 174.07649 
L 376.938649 161.290257 
L 378.053663 159.348883 
L 379.205844 169.229207 
L 380.320858 173.149332 
L 381.47304 184.989681 
L 382.625221 194.997368 
L 383.740235 202.105876 
L 384.892416 203.184226 
L 386.00743 197.768638 
L 387.159612 196.353416 
L 388.311793 187.620907 
L 390.541821 161.043929 
L 391.656835 158.778382 
L 392.809017 170.47176 
L 393.924031 173.340926 
L 395.076212 185.137612 
L 396.228393 194.056836 
L 397.343408 201.445604 
L 398.495589 203.252771 
L 399.610603 197.122659 
L 400.762784 196.796644 
L 401.914966 188.244545 
L 402.955645 174.343794 
L 404.107827 160.80731 
L 405.222841 158.175387 
L 405.222841 158.175387 
" clip-path="url(#pd0608b6a68)" style="fill: none; stroke: #ffa722; stroke-width: 0.5; stroke-linecap: square"/>
   </g>
   <g id="patch_9">
    <path d="M 45.36875 207.195 
L 45.36875 154.97 
" style="fill: none; stroke: #000000; stroke-width: 0.8; stroke-linejoin: miter; stroke-linecap: square"/>
   </g>
   <g id="patch_10">
    <path d="M 45.36875 207.195 
L 422.35875 207.195 
" style="fill: none; stroke: #000000; stroke-width: 0.8; stroke-linejoin: miter; stroke-linecap: square"/>
   </g>
  </g>
  <g id="axes_4">
   <g id="patch_11">
    <path d="M 45.36875 271.56 
L 422.35875 271.56 
L 422.35875 219.335 
L 45.36875 219.335 
z
" style="fill: #ffffff"/>
   </g>
   <g id="matplotlib.axis_7">
    <g id="xtick_22">
     <g id="line2d_64">
      <path d="M 61.389645 271.56 
L 61.389645 219.335 
" clip-path="url(#p8c5e5498c2)" style="fill: none; stroke-dasharray: 2.96,1.28; stroke-dashoffset: 0; stroke: #b0b0b0; stroke-opacity: 0.5; stroke-width: 0.8"/>
     </g>
     <g id="line2d_65">
      <g>
       <use xlink:href="#m8a57c35150" x="61.389645" y="271.56" style="stroke: #000000; stroke-width: 0.8"/>
      </g>
     </g>
     <g id="text_13">
      <!-- 2000 -->
      <g transform="translate(51.209645 284.63875) scale(0.08 -0.08)">
       <use xlink:href="#DejaVuSerif-32"/>
       <use xlink:href="#DejaVuSerif-30" transform="translate(63.623047 0)"/>
       <use xlink:href="#DejaVuSerif-30" transform="translate(127.246094 0)"/>
       <use xlink:href="#DejaVuSerif-30" transform="translate(190.869141 0)"/>
      </g>
     </g>
    </g>
    <g id="xtick_23">
     <g id="line2d_66">
      <path d="M 115.690834 271.56 
L 115.690834 219.335 
" clip-path="url(#p8c5e5498c2)" style="fill: none; stroke-dasharray: 2.96,1.28; stroke-dashoffset: 0; stroke: #b0b0b0; stroke-opacity: 0.5; stroke-width: 0.8"/>
     </g>
     <g id="line2d_67">
      <g>
       <use xlink:href="#m8a57c35150" x="115.690834" y="271.56" style="stroke: #000000; stroke-width: 0.8"/>
      </g>
     </g>
     <g id="text_14">
      <!-- 2004 -->
      <g transform="translate(105.510834 284.63875) scale(0.08 -0.08)">
       <defs>
        <path id="DejaVuSerif-34" d="M 2234 1581 
L 2234 4063 
L 641 1581 
L 2234 1581 
z
M 3609 0 
L 1484 0 
L 1484 331 
L 2234 331 
L 2234 1247 
L 197 1247 
L 197 1588 
L 2241 4750 
L 2859 4750 
L 2859 1581 
L 3750 1581 
L 3750 1247 
L 2859 1247 
L 2859 331 
L 3609 331 
L 3609 0 
z
" transform="scale(0.015625)"/>
       </defs>
       <use xlink:href="#DejaVuSerif-32"/>
       <use xlink:href="#DejaVuSerif-30" transform="translate(63.623047 0)"/>
       <use xlink:href="#DejaVuSerif-30" transform="translate(127.246094 0)"/>
       <use xlink:href="#DejaVuSerif-34" transform="translate(190.869141 0)"/>
      </g>
     </g>
    </g>
    <g id="xtick_24">
     <g id="line2d_68">
      <path d="M 169.992023 271.56 
L 169.992023 219.335 
" clip-path="url(#p8c5e5498c2)" style="fill: none; stroke-dasharray: 2.96,1.28; stroke-dashoffset: 0; stroke: #b0b0b0; stroke-opacity: 0.5; stroke-width: 0.8"/>
     </g>
     <g id="line2d_69">
      <g>
       <use xlink:href="#m8a57c35150" x="169.992023" y="271.56" style="stroke: #000000; stroke-width: 0.8"/>
      </g>
     </g>
     <g id="text_15">
      <!-- 2008 -->
      <g transform="translate(159.812023 284.63875) scale(0.08 -0.08)">
       <defs>
        <path id="DejaVuSerif-38" d="M 2981 1275 
Q 2981 1775 2732 2051 
Q 2484 2328 2034 2328 
Q 1584 2328 1336 2051 
Q 1088 1775 1088 1275 
Q 1088 772 1336 495 
Q 1584 219 2034 219 
Q 2484 219 2732 495 
Q 2981 772 2981 1275 
z
M 2853 3541 
Q 2853 3966 2637 4203 
Q 2422 4441 2034 4441 
Q 1650 4441 1433 4203 
Q 1216 3966 1216 3541 
Q 1216 3113 1433 2875 
Q 1650 2638 2034 2638 
Q 2422 2638 2637 2875 
Q 2853 3113 2853 3541 
z
M 2516 2484 
Q 3047 2413 3344 2092 
Q 3641 1772 3641 1275 
Q 3641 619 3225 264 
Q 2809 -91 2034 -91 
Q 1263 -91 845 264 
Q 428 619 428 1275 
Q 428 1772 725 2092 
Q 1022 2413 1556 2484 
Q 1084 2569 832 2842 
Q 581 3116 581 3541 
Q 581 4103 968 4426 
Q 1356 4750 2034 4750 
Q 2713 4750 3100 4426 
Q 3488 4103 3488 3541 
Q 3488 3116 3236 2842 
Q 2984 2569 2516 2484 
z
" transform="scale(0.015625)"/>
       </defs>
       <use xlink:href="#DejaVuSerif-32"/>
       <use xlink:href="#DejaVuSerif-30" transform="translate(63.623047 0)"/>
       <use xlink:href="#DejaVuSerif-30" transform="translate(127.246094 0)"/>
       <use xlink:href="#DejaVuSerif-38" transform="translate(190.869141 0)"/>
      </g>
     </g>
    </g>
    <g id="xtick_25">
     <g id="line2d_70">
      <path d="M 224.293212 271.56 
L 224.293212 219.335 
" clip-path="url(#p8c5e5498c2)" style="fill: none; stroke-dasharray: 2.96,1.28; stroke-dashoffset: 0; stroke: #b0b0b0; stroke-opacity: 0.5; stroke-width: 0.8"/>
     </g>
     <g id="line2d_71">
      <g>
       <use xlink:href="#m8a57c35150" x="224.293212" y="271.56" style="stroke: #000000; stroke-width: 0.8"/>
      </g>
     </g>
     <g id="text_16">
      <!-- 2012 -->
      <g transform="translate(214.113212 284.63875) scale(0.08 -0.08)">
       <use xlink:href="#DejaVuSerif-32"/>
       <use xlink:href="#DejaVuSerif-30" transform="translate(63.623047 0)"/>
       <use xlink:href="#DejaVuSerif-31" transform="translate(127.246094 0)"/>
       <use xlink:href="#DejaVuSerif-32" transform="translate(190.869141 0)"/>
      </g>
     </g>
    </g>
    <g id="xtick_26">
     <g id="line2d_72">
      <path d="M 278.594401 271.56 
L 278.594401 219.335 
" clip-path="url(#p8c5e5498c2)" style="fill: none; stroke-dasharray: 2.96,1.28; stroke-dashoffset: 0; stroke: #b0b0b0; stroke-opacity: 0.5; stroke-width: 0.8"/>
     </g>
     <g id="line2d_73">
      <g>
       <use xlink:href="#m8a57c35150" x="278.594401" y="271.56" style="stroke: #000000; stroke-width: 0.8"/>
      </g>
     </g>
     <g id="text_17">
      <!-- 2016 -->
      <g transform="translate(268.414401 284.63875) scale(0.08 -0.08)">
       <defs>
        <path id="DejaVuSerif-36" d="M 2094 219 
Q 2534 219 2771 542 
Q 3009 866 3009 1472 
Q 3009 2078 2771 2401 
Q 2534 2725 2094 2725 
Q 1647 2725 1412 2412 
Q 1178 2100 1178 1509 
Q 1178 888 1415 553 
Q 1653 219 2094 219 
z
M 1075 2569 
Q 1288 2803 1556 2918 
Q 1825 3034 2163 3034 
Q 2859 3034 3264 2615 
Q 3669 2197 3669 1472 
Q 3669 763 3233 336 
Q 2797 -91 2069 -91 
Q 1278 -91 853 498 
Q 428 1088 428 2181 
Q 428 3406 931 4078 
Q 1434 4750 2350 4750 
Q 2597 4750 2869 4703 
Q 3141 4656 3425 4563 
L 3425 3794 
L 3072 3794 
Q 3034 4109 2831 4275 
Q 2628 4441 2284 4441 
Q 1678 4441 1381 3981 
Q 1084 3522 1075 2569 
z
" transform="scale(0.015625)"/>
       </defs>
       <use xlink:href="#DejaVuSerif-32"/>
       <use xlink:href="#DejaVuSerif-30" transform="translate(63.623047 0)"/>
       <use xlink:href="#DejaVuSerif-31" transform="translate(127.246094 0)"/>
       <use xlink:href="#DejaVuSerif-36" transform="translate(190.869141 0)"/>
      </g>
     </g>
    </g>
    <g id="xtick_27">
     <g id="line2d_74">
      <path d="M 332.89559 271.56 
L 332.89559 219.335 
" clip-path="url(#p8c5e5498c2)" style="fill: none; stroke-dasharray: 2.96,1.28; stroke-dashoffset: 0; stroke: #b0b0b0; stroke-opacity: 0.5; stroke-width: 0.8"/>
     </g>
     <g id="line2d_75">
      <g>
       <use xlink:href="#m8a57c35150" x="332.89559" y="271.56" style="stroke: #000000; stroke-width: 0.8"/>
      </g>
     </g>
     <g id="text_18">
      <!-- 2020 -->
      <g transform="translate(322.71559 284.63875) scale(0.08 -0.08)">
       <use xlink:href="#DejaVuSerif-32"/>
       <use xlink:href="#DejaVuSerif-30" transform="translate(63.623047 0)"/>
       <use xlink:href="#DejaVuSerif-32" transform="translate(127.246094 0)"/>
       <use xlink:href="#DejaVuSerif-30" transform="translate(190.869141 0)"/>
      </g>
     </g>
    </g>
    <g id="xtick_28">
     <g id="line2d_76">
      <path d="M 387.196779 271.56 
L 387.196779 219.335 
" clip-path="url(#p8c5e5498c2)" style="fill: none; stroke-dasharray: 2.96,1.28; stroke-dashoffset: 0; stroke: #b0b0b0; stroke-opacity: 0.5; stroke-width: 0.8"/>
     </g>
     <g id="line2d_77">
      <g>
       <use xlink:href="#m8a57c35150" x="387.196779" y="271.56" style="stroke: #000000; stroke-width: 0.8"/>
      </g>
     </g>
     <g id="text_19">
      <!-- 2024 -->
      <g transform="translate(377.016779 284.63875) scale(0.08 -0.08)">
       <use xlink:href="#DejaVuSerif-32"/>
       <use xlink:href="#DejaVuSerif-30" transform="translate(63.623047 0)"/>
       <use xlink:href="#DejaVuSerif-32" transform="translate(127.246094 0)"/>
       <use xlink:href="#DejaVuSerif-34" transform="translate(190.869141 0)"/>
      </g>
     </g>
    </g>
    <g id="text_20">
     <!-- Série histórica -->
     <g transform="translate(204.18625 296.38125) scale(0.08 -0.08)">
      <defs>
       <path id="DejaVuSerif-e9" d="M 3469 1600 
L 991 1600 
L 991 1575 
Q 991 903 1244 561 
Q 1497 219 1991 219 
Q 2369 219 2611 417 
Q 2853 616 2950 1006 
L 3413 1006 
Q 3275 459 2904 184 
Q 2534 -91 1931 -91 
Q 1203 -91 761 389 
Q 319 869 319 1663 
Q 319 2450 753 2931 
Q 1188 3413 1894 3413 
Q 2647 3413 3050 2948 
Q 3453 2484 3469 1600 
z
M 2791 1931 
Q 2772 2513 2545 2808 
Q 2319 3103 1894 3103 
Q 1497 3103 1269 2806 
Q 1041 2509 991 1931 
L 2791 1931 
z
M 2330 5119 
L 2952 5119 
L 1890 3944 
L 1524 3944 
L 2330 5119 
z
" transform="scale(0.015625)"/>
       <path id="DejaVuSerif-20" transform="scale(0.015625)"/>
       <path id="DejaVuSerif-68" d="M 263 0 
L 263 331 
L 781 331 
L 781 4531 
L 231 4531 
L 231 4863 
L 1356 4863 
L 1356 2731 
Q 1516 3069 1770 3241 
Q 2025 3413 2363 3413 
Q 2913 3413 3172 3097 
Q 3431 2781 3431 2113 
L 3431 331 
L 3944 331 
L 3944 0 
L 2356 0 
L 2356 331 
L 2853 331 
L 2853 1931 
Q 2853 2541 2704 2764 
Q 2556 2988 2175 2988 
Q 1775 2988 1565 2697 
Q 1356 2406 1356 1850 
L 1356 331 
L 1856 331 
L 1856 0 
L 263 0 
z
" transform="scale(0.015625)"/>
       <path id="DejaVuSerif-74" d="M 691 2988 
L 184 2988 
L 184 3322 
L 691 3322 
L 691 4353 
L 1269 4353 
L 1269 3322 
L 2350 3322 
L 2350 2988 
L 1269 2988 
L 1269 878 
Q 1269 456 1350 337 
Q 1431 219 1650 219 
Q 1875 219 1978 351 
Q 2081 484 2088 781 
L 2522 781 
Q 2497 328 2275 118 
Q 2053 -91 1600 -91 
Q 1103 -91 897 129 
Q 691 350 691 878 
L 691 2988 
z
" transform="scale(0.015625)"/>
       <path id="DejaVuSerif-f3" d="M 1925 219 
Q 2388 219 2623 584 
Q 2859 950 2859 1663 
Q 2859 2375 2623 2739 
Q 2388 3103 1925 3103 
Q 1463 3103 1227 2739 
Q 991 2375 991 1663 
Q 991 950 1228 584 
Q 1466 219 1925 219 
z
M 1925 -91 
Q 1200 -91 759 389 
Q 319 869 319 1663 
Q 319 2456 758 2934 
Q 1197 3413 1925 3413 
Q 2653 3413 3092 2934 
Q 3531 2456 3531 1663 
Q 3531 869 3092 389 
Q 2653 -91 1925 -91 
z
M 2362 5119 
L 2984 5119 
L 1922 3944 
L 1556 3944 
L 2362 5119 
z
" transform="scale(0.015625)"/>
      </defs>
      <use xlink:href="#DejaVuSerif-53"/>
      <use xlink:href="#DejaVuSerif-e9" transform="translate(68.505859 0)"/>
      <use xlink:href="#DejaVuSerif-72" transform="translate(127.685547 0)"/>
      <use xlink:href="#DejaVuSerif-69" transform="translate(175.488281 0)"/>
      <use xlink:href="#DejaVuSerif-65" transform="translate(207.470703 0)"/>
      <use xlink:href="#DejaVuSerif-20" transform="translate(266.650391 0)"/>
      <use xlink:href="#DejaVuSerif-68" transform="translate(298.4375 0)"/>
      <use xlink:href="#DejaVuSerif-69" transform="translate(362.841797 0)"/>
      <use xlink:href="#DejaVuSerif-73" transform="translate(394.824219 0)"/>
      <use xlink:href="#DejaVuSerif-74" transform="translate(446.142578 0)"/>
      <use xlink:href="#DejaVuSerif-f3" transform="translate(486.328125 0)"/>
      <use xlink:href="#DejaVuSerif-72" transform="translate(546.533203 0)"/>
      <use xlink:href="#DejaVuSerif-69" transform="translate(594.335938 0)"/>
      <use xlink:href="#DejaVuSerif-63" transform="translate(626.318359 0)"/>
      <use xlink:href="#DejaVuSerif-61" transform="translate(682.324219 0)"/>
     </g>
    </g>
   </g>
   <g id="matplotlib.axis_8">
    <g id="ytick_10">
     <g id="line2d_78">
      <path d="M 45.36875 262.08971 
L 422.35875 262.08971 
" clip-path="url(#p8c5e5498c2)" style="fill: none; stroke-dasharray: 2.96,1.28; stroke-dashoffset: 0; stroke: #b0b0b0; stroke-opacity: 0.5; stroke-width: 0.8"/>
     </g>
     <g id="line2d_79">
      <g>
       <use xlink:href="#mfcdda35cf3" x="45.36875" y="262.08971" style="stroke: #000000; stroke-width: 0.8"/>
      </g>
     </g>
     <g id="text_21">
      <!-- −0.5 -->
      <g transform="translate(18.9425 265.129085) scale(0.08 -0.08)">
       <defs>
        <path id="DejaVuSerif-2e" d="M 603 325 
Q 603 500 722 622 
Q 841 744 1019 744 
Q 1191 744 1312 622 
Q 1434 500 1434 325 
Q 1434 153 1312 31 
Q 1191 -91 1019 -91 
Q 841 -91 722 29 
Q 603 150 603 325 
z
" transform="scale(0.015625)"/>
        <path id="DejaVuSerif-35" d="M 3219 4666 
L 3219 4153 
L 1081 4153 
L 1081 2816 
Q 1244 2928 1461 2984 
Q 1678 3041 1947 3041 
Q 2703 3041 3140 2622 
Q 3578 2203 3578 1478 
Q 3578 738 3136 323 
Q 2694 -91 1894 -91 
Q 1572 -91 1234 -12 
Q 897 66 544 225 
L 544 1131 
L 897 1131 
Q 925 688 1179 453 
Q 1434 219 1894 219 
Q 2388 219 2653 544 
Q 2919 869 2919 1478 
Q 2919 2084 2655 2407 
Q 2391 2731 1894 2731 
Q 1613 2731 1398 2631 
Q 1184 2531 1019 2322 
L 750 2322 
L 750 4666 
L 3219 4666 
z
" transform="scale(0.015625)"/>
       </defs>
       <use xlink:href="#DejaVuSerif-2212"/>
       <use xlink:href="#DejaVuSerif-30" transform="translate(83.789062 0)"/>
       <use xlink:href="#DejaVuSerif-2e" transform="translate(147.412109 0)"/>
       <use xlink:href="#DejaVuSerif-35" transform="translate(179.199219 0)"/>
      </g>
     </g>
    </g>
    <g id="ytick_11">
     <g id="line2d_80">
      <path d="M 45.36875 246.190788 
L 422.35875 246.190788 
" clip-path="url(#p8c5e5498c2)" style="fill: none; stroke-dasharray: 2.96,1.28; stroke-dashoffset: 0; stroke: #b0b0b0; stroke-opacity: 0.5; stroke-width: 0.8"/>
     </g>
     <g id="line2d_81">
      <g>
       <use xlink:href="#mfcdda35cf3" x="45.36875" y="246.190788" style="stroke: #000000; stroke-width: 0.8"/>
      </g>
     </g>
     <g id="text_22">
      <!-- 0.0 -->
      <g transform="translate(25.64625 249.230163) scale(0.08 -0.08)">
       <use xlink:href="#DejaVuSerif-30"/>
       <use xlink:href="#DejaVuSerif-2e" transform="translate(63.623047 0)"/>
       <use xlink:href="#DejaVuSerif-30" transform="translate(95.410156 0)"/>
      </g>
     </g>
    </g>
    <g id="ytick_12">
     <g id="line2d_82">
      <path d="M 45.36875 230.291866 
L 422.35875 230.291866 
" clip-path="url(#p8c5e5498c2)" style="fill: none; stroke-dasharray: 2.96,1.28; stroke-dashoffset: 0; stroke: #b0b0b0; stroke-opacity: 0.5; stroke-width: 0.8"/>
     </g>
     <g id="line2d_83">
      <g>
       <use xlink:href="#mfcdda35cf3" x="45.36875" y="230.291866" style="stroke: #000000; stroke-width: 0.8"/>
      </g>
     </g>
     <g id="text_23">
      <!-- 0.5 -->
      <g transform="translate(25.64625 233.331241) scale(0.08 -0.08)">
       <use xlink:href="#DejaVuSerif-30"/>
       <use xlink:href="#DejaVuSerif-2e" transform="translate(63.623047 0)"/>
       <use xlink:href="#DejaVuSerif-35" transform="translate(95.410156 0)"/>
      </g>
     </g>
    </g>
    <g id="text_24">
     <!-- Resíduo -->
     <g transform="translate(13.27875 261.70375) rotate(-90) scale(0.08 -0.08)">
      <defs>
       <path id="DejaVuSerif-52" d="M 3066 2316 
Q 3284 2256 3442 2114 
Q 3600 1972 3725 1716 
L 4403 331 
L 4972 331 
L 4972 0 
L 3872 0 
L 3144 1484 
Q 2934 1916 2759 2042 
Q 2584 2169 2278 2169 
L 1581 2169 
L 1581 331 
L 2241 331 
L 2241 0 
L 353 0 
L 353 331 
L 947 331 
L 947 4331 
L 353 4331 
L 353 4666 
L 2719 4666 
Q 3400 4666 3770 4341 
Q 4141 4016 4141 3419 
Q 4141 2938 3870 2661 
Q 3600 2384 3066 2316 
z
M 1581 2503 
L 2503 2503 
Q 2975 2503 3200 2726 
Q 3425 2950 3425 3419 
Q 3425 3888 3200 4109 
Q 2975 4331 2503 4331 
L 1581 4331 
L 1581 2503 
z
" transform="scale(0.015625)"/>
       <path id="DejaVuSerif-ed" d="M 1356 331 
L 1900 331 
L 1900 0 
L 231 0 
L 231 331 
L 781 331 
L 781 2988 
L 231 2988 
L 231 3322 
L 1356 3322 
L 1356 331 
z
M 1458 5119 
L 2080 5119 
L 1018 3944 
L 652 3944 
L 1458 5119 
z
" transform="scale(0.015625)"/>
       <path id="DejaVuSerif-75" d="M 2266 3322 
L 3341 3322 
L 3341 331 
L 3884 331 
L 3884 0 
L 2766 0 
L 2766 588 
Q 2606 256 2353 82 
Q 2100 -91 1766 -91 
Q 1213 -91 952 223 
Q 691 538 691 1209 
L 691 2988 
L 172 2988 
L 172 3322 
L 1269 3322 
L 1269 1388 
Q 1269 781 1417 556 
Q 1566 331 1947 331 
Q 2347 331 2556 625 
Q 2766 919 2766 1478 
L 2766 2988 
L 2266 2988 
L 2266 3322 
z
" transform="scale(0.015625)"/>
      </defs>
      <use xlink:href="#DejaVuSerif-52"/>
      <use xlink:href="#DejaVuSerif-65" transform="translate(75.292969 0)"/>
      <use xlink:href="#DejaVuSerif-73" transform="translate(134.472656 0)"/>
      <use xlink:href="#DejaVuSerif-ed" transform="translate(185.791016 0)"/>
      <use xlink:href="#DejaVuSerif-64" transform="translate(217.773438 0)"/>
      <use xlink:href="#DejaVuSerif-75" transform="translate(281.787109 0)"/>
      <use xlink:href="#DejaVuSerif-6f" transform="translate(346.191406 0)"/>
     </g>
    </g>
   </g>
   <g id="line2d_84">
    <path d="M 62.504659 250.529537 
L 63.582506 247.635234 
L 64.734687 250.56402 
L 65.849702 245.210911 
L 67.001883 241.193411 
L 68.116897 241.677268 
L 69.269078 245.617539 
L 70.42126 239.123899 
L 71.536274 239.479701 
L 72.688455 246.804741 
L 73.803469 254.849801 
L 74.95565 256.31586 
L 76.107832 248.863013 
L 77.148512 252.372563 
L 78.300693 240.424939 
L 79.415707 239.064405 
L 80.567888 241.467117 
L 81.682902 241.623622 
L 82.835084 237.763151 
L 85.102279 251.121845 
L 86.25446 255.761792 
L 87.369475 256.520342 
L 88.521656 256.984109 
L 89.673837 245.979056 
L 90.714517 239.511903 
L 91.866698 244.205092 
L 94.133894 241.075201 
L 95.248908 242.80136 
L 96.401089 251.049198 
L 97.55327 252.355855 
L 98.668285 247.185063 
L 99.820466 238.982144 
L 100.93548 227.281713 
L 102.087661 226.620044 
L 103.239843 236.162237 
L 104.280522 241.271347 
L 105.432704 244.129773 
L 106.547718 258.6939 
L 107.699899 267.089678 
L 108.814913 260.455455 
L 109.967095 250.820937 
L 111.119276 250.774616 
L 112.23429 249.815499 
L 113.386471 241.006145 
L 114.501486 238.151053 
L 115.653667 238.338915 
L 116.805848 242.263807 
L 117.883695 243.297317 
L 119.035876 250.093494 
L 120.150891 249.410557 
L 121.303072 253.006324 
L 122.418086 256.898743 
L 123.570267 248.9562 
L 124.722449 248.802404 
L 125.837463 241.72258 
L 126.989644 240.052253 
L 128.104658 240.825479 
L 129.256839 237.04545 
L 130.409021 239.350772 
L 131.449701 248.609193 
L 132.601882 248.265472 
L 133.716896 246.443162 
L 134.869077 235.084295 
L 135.984091 237.466024 
L 137.136273 244.520939 
L 138.288454 244.537472 
L 139.403468 252.501638 
L 140.555649 251.187208 
L 141.670664 258.027654 
L 142.822845 259.417987 
L 143.975026 256.127571 
L 145.015706 249.036468 
L 146.167887 249.657558 
L 147.282901 255.822788 
L 148.435083 248.663313 
L 149.550097 247.397042 
L 150.702278 248.477484 
L 151.854459 242.75883 
L 152.969474 233.63863 
L 154.121655 234.164485 
L 155.236669 227.636301 
L 156.38885 223.794758 
L 158.581711 236.92498 
L 159.733893 246.274136 
L 160.848907 248.269357 
L 162.001088 250.937328 
L 163.116102 244.840782 
L 165.420465 252.42523 
L 167.68766 261.44294 
L 168.802674 266.674288 
L 169.954856 262.602639 
L 171.107037 259.582112 
L 172.184884 256.212802 
L 173.337065 244.361872 
L 174.45208 241.951094 
L 175.604261 243.433109 
L 176.719275 242.711366 
L 177.871456 232.216361 
L 179.023638 231.562719 
L 180.138652 235.156993 
L 181.290833 239.51143 
L 182.405847 247.481881 
L 183.558028 258.635456 
L 184.71021 257.975126 
L 185.75089 257.546091 
L 186.903071 257.854459 
L 188.018085 253.843929 
L 189.170266 246.764877 
L 191.437462 242.236482 
L 192.589643 244.044818 
L 193.704657 242.635555 
L 194.856838 237.334292 
L 195.971853 225.990018 
L 197.124034 221.708864 
L 198.276215 223.249367 
L 199.316895 231.927318 
L 200.469076 231.690894 
L 201.58409 233.509771 
L 205.003467 269.186136 
L 206.155648 267.147903 
L 207.270663 265.78899 
L 208.422844 265.022435 
L 209.537858 263.87774 
L 210.690039 259.609744 
L 211.842221 252.290792 
L 212.8829 240.892949 
L 214.035082 242.815036 
L 215.150096 236.596224 
L 216.302277 235.598076 
L 217.417291 234.445141 
L 218.569473 233.626983 
L 220.836668 248.866441 
L 221.988849 252.748622 
L 223.103863 259.110774 
L 224.256045 257.843513 
L 225.408226 254.826044 
L 226.486073 249.601782 
L 227.638254 250.713574 
L 228.753268 244.415671 
L 229.90545 244.565813 
L 231.020464 239.819344 
L 232.172645 237.971424 
L 233.324826 233.649882 
L 235.592022 237.300683 
L 236.707036 239.94429 
L 237.859217 246.115757 
L 239.011399 246.514573 
L 240.052079 243.37141 
L 241.20426 242.302588 
L 242.319274 254.299271 
L 243.471455 259.187014 
L 244.586469 259.634072 
L 245.738651 254.664084 
L 246.890832 252.203744 
L 248.005846 244.991207 
L 249.158027 244.561401 
L 250.273042 242.748159 
L 251.425223 242.724331 
L 252.577404 246.828446 
L 253.618084 253.842188 
L 254.770265 249.288952 
L 255.885279 249.476524 
L 257.037461 237.287639 
L 258.152475 239.476127 
L 259.304656 246.637596 
L 260.456837 245.332951 
L 261.571852 246.974469 
L 262.724033 245.320574 
L 263.839047 241.078436 
L 264.991228 246.270583 
L 266.14341 253.468986 
L 268.336271 259.341215 
L 269.451285 247.703744 
L 270.603466 246.972821 
L 271.71848 245.240158 
L 272.870662 242.697949 
L 274.022843 241.824944 
L 275.137857 236.454897 
L 276.290038 233.151651 
L 277.405052 225.801642 
L 278.557234 224.08015 
L 279.709415 232.53412 
L 280.787262 238.714987 
L 281.939443 238.514637 
L 283.054457 249.635275 
L 284.206639 257.284045 
L 285.321653 256.472197 
L 286.473834 257.176553 
L 287.626015 253.984422 
L 288.74103 253.885301 
L 291.008225 262.258862 
L 292.160406 255.847213 
L 293.312588 243.841273 
L 294.353268 237.246945 
L 295.505449 238.687789 
L 296.620463 237.534506 
L 298.887658 237.740535 
L 300.03984 236.39795 
L 301.192021 241.382847 
L 303.459216 252.95162 
L 304.574231 257.98895 
L 305.726412 262.092182 
L 306.878593 254.93985 
L 307.919273 253.753293 
L 309.071454 257.465328 
L 310.186468 255.379171 
L 311.33865 247.928235 
L 312.453664 247.635156 
L 313.605845 245.352326 
L 314.758026 243.667726 
L 315.873041 241.803842 
L 317.025222 231.565665 
L 318.140236 232.72857 
L 319.292417 235.00335 
L 320.444599 243.805185 
L 321.485278 243.74797 
L 322.63746 243.951273 
L 323.752474 246.007093 
L 324.904655 243.764179 
L 326.019669 248.940885 
L 327.171851 252.99101 
L 328.324032 258.557905 
L 329.439046 256.339276 
L 330.591227 243.192058 
L 331.706241 239.873596 
L 332.858423 234.552437 
L 334.010604 234.75548 
L 335.088451 238.619453 
L 336.240632 236.729955 
L 337.355646 233.186614 
L 338.507828 246.396927 
L 339.622842 254.251473 
L 340.775023 251.88074 
L 341.927204 253.347002 
L 343.042219 252.584877 
L 344.1944 258.310397 
L 345.309414 257.154337 
L 346.461595 253.824602 
L 347.613777 254.462331 
L 348.654456 251.321367 
L 349.806638 244.695294 
L 350.921652 248.29463 
L 352.073833 238.983928 
L 353.188847 233.625696 
L 354.341029 233.464118 
L 355.49321 233.867372 
L 356.608224 237.015377 
L 357.760405 247.711155 
L 358.87542 251.520189 
L 360.027601 254.093177 
L 361.179782 245.182483 
L 362.220462 246.687285 
L 363.372643 248.953158 
L 364.487657 256.050049 
L 365.639839 251.930608 
L 366.754853 244.770061 
L 369.059215 250.047789 
L 370.17423 253.39478 
L 371.326411 258.951231 
L 372.441425 262.171445 
L 373.593606 254.968682 
L 374.745788 255.68247 
L 375.786467 255.143403 
L 376.938649 254.22656 
L 378.053663 245.156137 
L 379.205844 237.171614 
L 380.320858 237.764315 
L 381.47304 235.61179 
L 382.625221 231.803531 
L 383.740235 227.067019 
L 384.892416 223.944649 
L 386.00743 228.338896 
L 387.159612 227.698107 
L 388.311793 231.128575 
L 389.38964 238.56412 
L 390.541821 251.094985 
L 391.656835 254.744979 
L 392.809017 253.008042 
L 393.924031 256.563029 
L 395.076212 256.873087 
L 396.228393 256.424514 
L 397.343408 257.194995 
L 398.495589 251.430578 
L 399.610603 244.24882 
L 400.762784 250.410366 
L 401.914966 250.693363 
L 402.955645 244.12746 
L 404.107827 235.390756 
L 405.222841 234.056037 
L 405.222841 234.056037 
" clip-path="url(#p8c5e5498c2)" style="fill: none; stroke: #47a730; stroke-width: 0.5; stroke-linecap: square"/>
   </g>
   <g id="patch_12">
    <path d="M 45.36875 271.56 
L 45.36875 219.335 
" style="fill: none; stroke: #000000; stroke-width: 0.8; stroke-linejoin: miter; stroke-linecap: square"/>
   </g>
   <g id="patch_13">
    <path d="M 45.36875 271.56 
L 422.35875 271.56 
" style="fill: none; stroke: #000000; stroke-width: 0.8; stroke-linejoin: miter; stroke-linecap: square"/>
   </g>
  </g>
  <g id="legend_1">
   <g id="line2d_85">
    <path d="M 60.411875 13.67875 
L 68.411875 13.67875 
L 76.411875 13.67875 
" style="fill: none; stroke: #4596f3; stroke-width: 0.5; stroke-linecap: square"/>
   </g>
   <g id="text_25">
    <!-- Observado -->
    <g transform="translate(82.811875 16.47875) scale(0.08 -0.08)">
     <use xlink:href="#DejaVuSerif-4f"/>
     <use xlink:href="#DejaVuSerif-62" transform="translate(81.982422 0)"/>
     <use xlink:href="#DejaVuSerif-73" transform="translate(145.996094 0)"/>
     <use xlink:href="#DejaVuSerif-65" transform="translate(197.314453 0)"/>
     <use xlink:href="#DejaVuSerif-72" transform="translate(256.494141 0)"/>
     <use xlink:href="#DejaVuSerif-76" transform="translate(304.296875 0)"/>
     <use xlink:href="#DejaVuSerif-61" transform="translate(360.791016 0)"/>
     <use xlink:href="#DejaVuSerif-64" transform="translate(420.410156 0)"/>
     <use xlink:href="#DejaVuSerif-6f" transform="translate(484.423828 0)"/>
    </g>
   </g>
   <g id="line2d_86">
    <path d="M 142.383125 13.67875 
L 150.383125 13.67875 
L 158.383125 13.67875 
" style="fill: none; stroke: #ff5656; stroke-width: 0.5; stroke-linecap: square"/>
   </g>
   <g id="text_26">
    <!-- Tendência -->
    <g transform="translate(164.783125 16.47875) scale(0.08 -0.08)">
     <use xlink:href="#DejaVuSerif-54"/>
     <use xlink:href="#DejaVuSerif-65" transform="translate(58.949219 0)"/>
     <use xlink:href="#DejaVuSerif-6e" transform="translate(118.128906 0)"/>
     <use xlink:href="#DejaVuSerif-64" transform="translate(182.533203 0)"/>
     <use xlink:href="#DejaVuSerif-ea" transform="translate(246.546875 0)"/>
     <use xlink:href="#DejaVuSerif-6e" transform="translate(305.726562 0)"/>
     <use xlink:href="#DejaVuSerif-63" transform="translate(370.130859 0)"/>
     <use xlink:href="#DejaVuSerif-69" transform="translate(426.136719 0)"/>
     <use xlink:href="#DejaVuSerif-61" transform="translate(458.119141 0)"/>
    </g>
   </g>
   <g id="line2d_87">
    <path d="M 222.204375 13.67875 
L 230.204375 13.67875 
L 238.204375 13.67875 
" style="fill: none; stroke: #ffa722; stroke-width: 0.5; stroke-linecap: square"/>
   </g>
   <g id="text_27">
    <!-- Sazonalidade -->
    <g transform="translate(244.604375 16.47875) scale(0.08 -0.08)">
     <use xlink:href="#DejaVuSerif-53"/>
     <use xlink:href="#DejaVuSerif-61" transform="translate(68.505859 0)"/>
     <use xlink:href="#DejaVuSerif-7a" transform="translate(128.125 0)"/>
     <use xlink:href="#DejaVuSerif-6f" transform="translate(180.810547 0)"/>
     <use xlink:href="#DejaVuSerif-6e" transform="translate(241.015625 0)"/>
     <use xlink:href="#DejaVuSerif-61" transform="translate(305.419922 0)"/>
     <use xlink:href="#DejaVuSerif-6c" transform="translate(365.039062 0)"/>
     <use xlink:href="#DejaVuSerif-69" transform="translate(397.021484 0)"/>
     <use xlink:href="#DejaVuSerif-64" transform="translate(429.003906 0)"/>
     <use xlink:href="#DejaVuSerif-61" transform="translate(493.017578 0)"/>
     <use xlink:href="#DejaVuSerif-64" transform="translate(552.636719 0)"/>
     <use xlink:href="#DejaVuSerif-65" transform="translate(616.650391 0)"/>
    </g>
   </g>
   <g id="line2d_88">
    <path d="M 314.673125 13.67875 
L 322.673125 13.67875 
L 330.673125 13.67875 
" style="fill: none; stroke: #47a730; stroke-width: 0.5; stroke-linecap: square"/>
   </g>
   <g id="text_28">
    <!-- Resíduo -->
    <g transform="translate(337.073125 16.47875) scale(0.08 -0.08)">
     <use xlink:href="#DejaVuSerif-52"/>
     <use xlink:href="#DejaVuSerif-65" transform="translate(75.292969 0)"/>
     <use xlink:href="#DejaVuSerif-73" transform="translate(134.472656 0)"/>
     <use xlink:href="#DejaVuSerif-ed" transform="translate(185.791016 0)"/>
     <use xlink:href="#DejaVuSerif-64" transform="translate(217.773438 0)"/>
     <use xlink:href="#DejaVuSerif-75" transform="translate(281.787109 0)"/>
     <use xlink:href="#DejaVuSerif-6f" transform="translate(346.191406 0)"/>
    </g>
   </g>
  </g>
 </g>
 <defs>
  <clipPath id="p7d5ab2952d">
   <rect x="45.36875" y="26.24" width="376.99" height="52.225"/>
  </clipPath>
  <clipPath id="p54120de155">
   <rect x="45.36875" y="90.605" width="376.99" height="52.225"/>
  </clipPath>
  <clipPath id="pd0608b6a68">
   <rect x="45.36875" y="154.97" width="376.99" height="52.225"/>
  </clipPath>
  <clipPath id="p8c5e5498c2">
   <rect x="45.36875" y="219.335" width="376.99" height="52.225"/>
  </clipPath>
 </defs>
</svg>
