<?xml version="1.0" encoding="utf-8" standalone="no"?>
<!DOCTYPE svg PUBLIC "-//W3C//DTD SVG 1.1//EN"
  "http://www.w3.org/Graphics/SVG/1.1/DTD/svg11.dtd">
<svg xmlns:xlink="http://www.w3.org/1999/xlink" width="429.57625pt" height="305.245pt" viewBox="0 0 429.57625 305.245" xmlns="http://www.w3.org/2000/svg" version="1.1">
 <metadata>
  <rdf:RDF xmlns:dc="http://purl.org/dc/elements/1.1/" xmlns:cc="http://creativecommons.org/ns#" xmlns:rdf="http://www.w3.org/1999/02/22-rdf-syntax-ns#">
   <cc:Work>
    <dc:type rdf:resource="http://purl.org/dc/dcmitype/StillImage"/>
    <dc:date>2025-06-30T00:11:23.014108</dc:date>
    <dc:format>image/svg+xml</dc:format>
    <dc:creator>
     <cc:Agent>
      <dc:title>Matplotlib v3.10.3, https://matplotlib.org/</dc:title>
     </cc:Agent>
    </dc:creator>
   </cc:Work>
  </rdf:RDF>
 </metadata>
 <defs>
  <style type="text/css">*{stroke-linejoin: round; stroke-linecap: butt}</style>
 </defs>
 <g id="figure_1">
  <g id="patch_1">
   <path d="M 0 305.245 
L 429.57625 305.245 
L 429.57625 0 
L 0 0 
z
" style="fill: #ffffff"/>
  </g>
  <g id="axes_1">
   <g id="patch_2">
    <path d="M 37.73625 78.06709 
L 422.37625 78.06709 
L 422.37625 26.24 
L 37.73625 26.24 
z
" style="fill: #ffffff"/>
   </g>
   <g id="matplotlib.axis_1">
    <g id="xtick_1">
     <g id="line2d_1">
      <path d="M 54.082246 78.06709 
L 54.082246 26.24 
" clip-path="url(#p9ed9541ec6)" style="fill: none; stroke-dasharray: 2.96,1.28; stroke-dashoffset: 0; stroke: #b0b0b0; stroke-opacity: 0.5; stroke-width: 0.8"/>
     </g>
     <g id="line2d_2">
      <defs>
       <path id="maf3208f874" d="M 0 0 
L 0 3.5 
" style="stroke: #000000; stroke-width: 0.8"/>
      </defs>
      <g>
       <use xlink:href="#maf3208f874" x="54.082246" y="78.06709" style="stroke: #000000; stroke-width: 0.8"/>
      </g>
     </g>
    </g>
    <g id="xtick_2">
     <g id="line2d_3">
      <path d="M 109.485332 78.06709 
L 109.485332 26.24 
" clip-path="url(#p9ed9541ec6)" style="fill: none; stroke-dasharray: 2.96,1.28; stroke-dashoffset: 0; stroke: #b0b0b0; stroke-opacity: 0.5; stroke-width: 0.8"/>
     </g>
     <g id="line2d_4">
      <g>
       <use xlink:href="#maf3208f874" x="109.485332" y="78.06709" style="stroke: #000000; stroke-width: 0.8"/>
      </g>
     </g>
    </g>
    <g id="xtick_3">
     <g id="line2d_5">
      <path d="M 164.888418 78.06709 
L 164.888418 26.24 
" clip-path="url(#p9ed9541ec6)" style="fill: none; stroke-dasharray: 2.96,1.28; stroke-dashoffset: 0; stroke: #b0b0b0; stroke-opacity: 0.5; stroke-width: 0.8"/>
     </g>
     <g id="line2d_6">
      <g>
       <use xlink:href="#maf3208f874" x="164.888418" y="78.06709" style="stroke: #000000; stroke-width: 0.8"/>
      </g>
     </g>
    </g>
    <g id="xtick_4">
     <g id="line2d_7">
      <path d="M 220.291504 78.06709 
L 220.291504 26.24 
" clip-path="url(#p9ed9541ec6)" style="fill: none; stroke-dasharray: 2.96,1.28; stroke-dashoffset: 0; stroke: #b0b0b0; stroke-opacity: 0.5; stroke-width: 0.8"/>
     </g>
     <g id="line2d_8">
      <g>
       <use xlink:href="#maf3208f874" x="220.291504" y="78.06709" style="stroke: #000000; stroke-width: 0.8"/>
      </g>
     </g>
    </g>
    <g id="xtick_5">
     <g id="line2d_9">
      <path d="M 275.694589 78.06709 
L 275.694589 26.24 
" clip-path="url(#p9ed9541ec6)" style="fill: none; stroke-dasharray: 2.96,1.28; stroke-dashoffset: 0; stroke: #b0b0b0; stroke-opacity: 0.5; stroke-width: 0.8"/>
     </g>
     <g id="line2d_10">
      <g>
       <use xlink:href="#maf3208f874" x="275.694589" y="78.06709" style="stroke: #000000; stroke-width: 0.8"/>
      </g>
     </g>
    </g>
    <g id="xtick_6">
     <g id="line2d_11">
      <path d="M 331.097675 78.06709 
L 331.097675 26.24 
" clip-path="url(#p9ed9541ec6)" style="fill: none; stroke-dasharray: 2.96,1.28; stroke-dashoffset: 0; stroke: #b0b0b0; stroke-opacity: 0.5; stroke-width: 0.8"/>
     </g>
     <g id="line2d_12">
      <g>
       <use xlink:href="#maf3208f874" x="331.097675" y="78.06709" style="stroke: #000000; stroke-width: 0.8"/>
      </g>
     </g>
    </g>
    <g id="xtick_7">
     <g id="line2d_13">
      <path d="M 386.500761 78.06709 
L 386.500761 26.24 
" clip-path="url(#p9ed9541ec6)" style="fill: none; stroke-dasharray: 2.96,1.28; stroke-dashoffset: 0; stroke: #b0b0b0; stroke-opacity: 0.5; stroke-width: 0.8"/>
     </g>
     <g id="line2d_14">
      <g>
       <use xlink:href="#maf3208f874" x="386.500761" y="78.06709" style="stroke: #000000; stroke-width: 0.8"/>
      </g>
     </g>
    </g>
   </g>
   <g id="matplotlib.axis_2">
    <g id="ytick_1">
     <g id="line2d_15">
      <path d="M 37.73625 68.737847 
L 422.37625 68.737847 
" clip-path="url(#p9ed9541ec6)" style="fill: none; stroke-dasharray: 2.96,1.28; stroke-dashoffset: 0; stroke: #b0b0b0; stroke-opacity: 0.5; stroke-width: 0.8"/>
     </g>
     <g id="line2d_16">
      <defs>
       <path id="m28e4e423cb" d="M 0 0 
L -3.5 0 
" style="stroke: #000000; stroke-width: 0.8"/>
      </defs>
      <g>
       <use xlink:href="#m28e4e423cb" x="37.73625" y="68.737847" style="stroke: #000000; stroke-width: 0.8"/>
      </g>
     </g>
     <g id="text_1">
      <!-- −2 -->
      <g transform="translate(18.9425 71.777222) scale(0.08 -0.08)">
       <defs>
        <path id="DejaVuSerif-2212" d="M 678 2259 
L 4684 2259 
L 4684 1753 
L 678 1753 
L 678 2259 
z
" transform="scale(0.015625)"/>
        <path id="DejaVuSerif-32" d="M 819 3553 
L 469 3553 
L 469 4384 
Q 803 4563 1142 4656 
Q 1481 4750 1806 4750 
Q 2534 4750 2956 4397 
Q 3378 4044 3378 3438 
Q 3378 2753 2422 1800 
Q 2347 1728 2309 1691 
L 1131 513 
L 3078 513 
L 3078 1088 
L 3444 1088 
L 3444 0 
L 434 0 
L 434 341 
L 1850 1753 
Q 2319 2222 2519 2614 
Q 2719 3006 2719 3438 
Q 2719 3909 2473 4175 
Q 2228 4441 1797 4441 
Q 1350 4441 1106 4219 
Q 863 3997 819 3553 
z
" transform="scale(0.015625)"/>
       </defs>
       <use xlink:href="#DejaVuSerif-2212"/>
       <use xlink:href="#DejaVuSerif-32" transform="translate(83.789062 0)"/>
      </g>
     </g>
    </g>
    <g id="ytick_2">
     <g id="line2d_17">
      <path d="M 37.73625 50.718856 
L 422.37625 50.718856 
" clip-path="url(#p9ed9541ec6)" style="fill: none; stroke-dasharray: 2.96,1.28; stroke-dashoffset: 0; stroke: #b0b0b0; stroke-opacity: 0.5; stroke-width: 0.8"/>
     </g>
     <g id="line2d_18">
      <g>
       <use xlink:href="#m28e4e423cb" x="37.73625" y="50.718856" style="stroke: #000000; stroke-width: 0.8"/>
      </g>
     </g>
     <g id="text_2">
      <!-- 0 -->
      <g transform="translate(25.64625 53.758231) scale(0.08 -0.08)">
       <defs>
        <path id="DejaVuSerif-30" d="M 2034 219 
Q 2513 219 2750 744 
Q 2988 1269 2988 2328 
Q 2988 3391 2750 3916 
Q 2513 4441 2034 4441 
Q 1556 4441 1318 3916 
Q 1081 3391 1081 2328 
Q 1081 1269 1318 744 
Q 1556 219 2034 219 
z
M 2034 -91 
Q 1275 -91 848 546 
Q 422 1184 422 2328 
Q 422 3475 848 4112 
Q 1275 4750 2034 4750 
Q 2797 4750 3222 4112 
Q 3647 3475 3647 2328 
Q 3647 1184 3222 546 
Q 2797 -91 2034 -91 
z
" transform="scale(0.015625)"/>
       </defs>
       <use xlink:href="#DejaVuSerif-30"/>
      </g>
     </g>
    </g>
    <g id="ytick_3">
     <g id="line2d_19">
      <path d="M 37.73625 32.699864 
L 422.37625 32.699864 
" clip-path="url(#p9ed9541ec6)" style="fill: none; stroke-dasharray: 2.96,1.28; stroke-dashoffset: 0; stroke: #b0b0b0; stroke-opacity: 0.5; stroke-width: 0.8"/>
     </g>
     <g id="line2d_20">
      <g>
       <use xlink:href="#m28e4e423cb" x="37.73625" y="32.699864" style="stroke: #000000; stroke-width: 0.8"/>
      </g>
     </g>
     <g id="text_3">
      <!-- 2 -->
      <g transform="translate(25.64625 35.739239) scale(0.08 -0.08)">
       <use xlink:href="#DejaVuSerif-32"/>
      </g>
     </g>
    </g>
    <g id="text_4">
     <!-- Observado -->
     <g transform="translate(13.27875 73.93917) rotate(-90) scale(0.08 -0.08)">
      <defs>
       <path id="DejaVuSerif-4f" d="M 2625 244 
Q 3391 244 3781 770 
Q 4172 1297 4172 2328 
Q 4172 3363 3781 3889 
Q 3391 4416 2625 4416 
Q 1856 4416 1465 3889 
Q 1075 3363 1075 2328 
Q 1075 1297 1465 770 
Q 1856 244 2625 244 
z
M 2625 -91 
Q 2150 -91 1751 65 
Q 1353 222 1050 525 
Q 700 875 529 1319 
Q 359 1763 359 2328 
Q 359 2894 529 3339 
Q 700 3784 1050 4134 
Q 1356 4441 1750 4595 
Q 2144 4750 2625 4750 
Q 3641 4750 4266 4084 
Q 4891 3419 4891 2328 
Q 4891 1769 4719 1320 
Q 4547 872 4197 525 
Q 3891 219 3497 64 
Q 3103 -91 2625 -91 
z
" transform="scale(0.015625)"/>
       <path id="DejaVuSerif-62" d="M 738 331 
L 738 4531 
L 184 4531 
L 184 4863 
L 1313 4863 
L 1313 2803 
Q 1481 3116 1742 3264 
Q 2003 3413 2388 3413 
Q 3000 3413 3387 2928 
Q 3775 2444 3775 1663 
Q 3775 881 3387 395 
Q 3000 -91 2388 -91 
Q 2003 -91 1742 57 
Q 1481 206 1313 519 
L 1313 0 
L 184 0 
L 184 331 
L 738 331 
z
M 1313 1497 
Q 1313 897 1542 583 
Q 1772 269 2209 269 
Q 2650 269 2876 622 
Q 3103 975 3103 1663 
Q 3103 2353 2876 2703 
Q 2650 3053 2209 3053 
Q 1772 3053 1542 2737 
Q 1313 2422 1313 1825 
L 1313 1497 
z
" transform="scale(0.015625)"/>
       <path id="DejaVuSerif-73" d="M 359 184 
L 359 959 
L 691 959 
Q 703 588 923 403 
Q 1144 219 1575 219 
Q 1963 219 2166 364 
Q 2369 509 2369 788 
Q 2369 1006 2220 1140 
Q 2072 1275 1594 1428 
L 1178 1569 
Q 750 1706 558 1912 
Q 366 2119 366 2438 
Q 366 2894 700 3153 
Q 1034 3413 1625 3413 
Q 1888 3413 2178 3344 
Q 2469 3275 2778 3144 
L 2778 2419 
L 2447 2419 
Q 2434 2741 2221 2922 
Q 2009 3103 1644 3103 
Q 1281 3103 1095 2975 
Q 909 2847 909 2591 
Q 909 2381 1050 2254 
Q 1191 2128 1613 1997 
L 2069 1856 
Q 2541 1709 2748 1489 
Q 2956 1269 2956 922 
Q 2956 450 2595 179 
Q 2234 -91 1600 -91 
Q 1278 -91 972 -22 
Q 666 47 359 184 
z
" transform="scale(0.015625)"/>
       <path id="DejaVuSerif-65" d="M 3469 1600 
L 991 1600 
L 991 1575 
Q 991 903 1244 561 
Q 1497 219 1991 219 
Q 2369 219 2611 417 
Q 2853 616 2950 1006 
L 3413 1006 
Q 3275 459 2904 184 
Q 2534 -91 1931 -91 
Q 1203 -91 761 389 
Q 319 869 319 1663 
Q 319 2450 753 2931 
Q 1188 3413 1894 3413 
Q 2647 3413 3050 2948 
Q 3453 2484 3469 1600 
z
M 2791 1931 
Q 2772 2513 2545 2808 
Q 2319 3103 1894 3103 
Q 1497 3103 1269 2806 
Q 1041 2509 991 1931 
L 2791 1931 
z
" transform="scale(0.015625)"/>
       <path id="DejaVuSerif-72" d="M 3059 3328 
L 3059 2497 
L 2728 2497 
Q 2713 2744 2591 2866 
Q 2469 2988 2234 2988 
Q 1809 2988 1582 2694 
Q 1356 2400 1356 1850 
L 1356 331 
L 2022 331 
L 2022 0 
L 263 0 
L 263 331 
L 781 331 
L 781 2994 
L 231 2994 
L 231 3322 
L 1356 3322 
L 1356 2731 
Q 1525 3078 1790 3245 
Q 2056 3413 2438 3413 
Q 2578 3413 2733 3391 
Q 2888 3369 3059 3328 
z
" transform="scale(0.015625)"/>
       <path id="DejaVuSerif-76" d="M 1581 0 
L 359 2988 
L -19 2988 
L -19 3322 
L 1509 3322 
L 1509 2988 
L 978 2988 
L 1913 703 
L 2847 2988 
L 2350 2988 
L 2350 3322 
L 3597 3322 
L 3597 2988 
L 3225 2988 
L 2003 0 
L 1581 0 
z
" transform="scale(0.015625)"/>
       <path id="DejaVuSerif-61" d="M 2547 1044 
L 2547 1747 
L 1806 1747 
Q 1378 1747 1168 1562 
Q 959 1378 959 997 
Q 959 650 1171 447 
Q 1384 244 1747 244 
Q 2106 244 2326 466 
Q 2547 688 2547 1044 
z
M 3122 2075 
L 3122 331 
L 3634 331 
L 3634 0 
L 2547 0 
L 2547 359 
Q 2356 128 2106 18 
Q 1856 -91 1522 -91 
Q 969 -91 644 203 
Q 319 497 319 997 
Q 319 1513 691 1797 
Q 1063 2081 1741 2081 
L 2547 2081 
L 2547 2309 
Q 2547 2688 2317 2895 
Q 2088 3103 1672 3103 
Q 1328 3103 1125 2947 
Q 922 2791 872 2484 
L 575 2484 
L 575 3156 
Q 875 3284 1158 3348 
Q 1441 3413 1709 3413 
Q 2400 3413 2761 3070 
Q 3122 2728 3122 2075 
z
" transform="scale(0.015625)"/>
       <path id="DejaVuSerif-64" d="M 3359 331 
L 3909 331 
L 3909 0 
L 2784 0 
L 2784 519 
Q 2616 206 2355 57 
Q 2094 -91 1709 -91 
Q 1097 -91 708 395 
Q 319 881 319 1663 
Q 319 2444 706 2928 
Q 1094 3413 1709 3413 
Q 2094 3413 2355 3264 
Q 2616 3116 2784 2803 
L 2784 4531 
L 2241 4531 
L 2241 4863 
L 3359 4863 
L 3359 331 
z
M 2784 1497 
L 2784 1825 
Q 2784 2422 2554 2737 
Q 2325 3053 1888 3053 
Q 1444 3053 1217 2703 
Q 991 2353 991 1663 
Q 991 975 1217 622 
Q 1444 269 1888 269 
Q 2325 269 2554 583 
Q 2784 897 2784 1497 
z
" transform="scale(0.015625)"/>
       <path id="DejaVuSerif-6f" d="M 1925 219 
Q 2388 219 2623 584 
Q 2859 950 2859 1663 
Q 2859 2375 2623 2739 
Q 2388 3103 1925 3103 
Q 1463 3103 1227 2739 
Q 991 2375 991 1663 
Q 991 950 1228 584 
Q 1466 219 1925 219 
z
M 1925 -91 
Q 1200 -91 759 389 
Q 319 869 319 1663 
Q 319 2456 758 2934 
Q 1197 3413 1925 3413 
Q 2653 3413 3092 2934 
Q 3531 2456 3531 1663 
Q 3531 869 3092 389 
Q 2653 -91 1925 -91 
z
" transform="scale(0.015625)"/>
      </defs>
      <use xlink:href="#DejaVuSerif-4f"/>
      <use xlink:href="#DejaVuSerif-62" transform="translate(81.982422 0)"/>
      <use xlink:href="#DejaVuSerif-73" transform="translate(145.996094 0)"/>
      <use xlink:href="#DejaVuSerif-65" transform="translate(197.314453 0)"/>
      <use xlink:href="#DejaVuSerif-72" transform="translate(256.494141 0)"/>
      <use xlink:href="#DejaVuSerif-76" transform="translate(304.296875 0)"/>
      <use xlink:href="#DejaVuSerif-61" transform="translate(360.791016 0)"/>
      <use xlink:href="#DejaVuSerif-64" transform="translate(420.410156 0)"/>
      <use xlink:href="#DejaVuSerif-6f" transform="translate(484.423828 0)"/>
     </g>
    </g>
   </g>
   <g id="line2d_21">
    <path d="M 55.219886 71.671699 
L 56.319605 73.60146 
L 57.495167 70.046138 
L 58.632807 62.830151 
L 59.808369 57.595227 
L 60.94601 53.604971 
L 62.121571 53.665413 
L 63.297133 52.760861 
L 64.434773 53.340202 
L 65.610335 57.620427 
L 66.747975 57.35972 
L 67.923537 62.578298 
L 69.099099 63.46027 
L 70.160897 67.092893 
L 71.336458 62.096052 
L 72.474099 54.213653 
L 74.787301 46.010617 
L 75.962862 43.967676 
L 77.138424 46.58717 
L 78.276064 47.019768 
L 79.451626 50.783587 
L 80.589267 49.951885 
L 81.764828 53.12117 
L 82.94039 50.211427 
L 84.002188 49.96128 
L 85.177749 51.898532 
L 88.628592 39.432581 
L 89.804154 38.234931 
L 90.979715 37.68822 
L 92.117356 35.875747 
L 93.292917 33.248698 
L 94.430558 33.83241 
L 95.606119 37.423485 
L 96.781681 41.809633 
L 97.843479 46.350123 
L 99.01904 48.357542 
L 100.156681 47.550763 
L 101.332243 48.020194 
L 102.469883 45.322124 
L 103.645445 46.782618 
L 104.821006 46.499258 
L 105.958647 47.562816 
L 107.134208 45.861132 
L 108.271849 47.062753 
L 109.44741 49.400577 
L 111.722691 55.546993 
L 112.898253 54.419362 
L 115.211455 45.558495 
L 116.349095 45.192626 
L 117.524657 40.510592 
L 118.700219 42.538984 
L 119.837859 40.604986 
L 121.013421 40.607156 
L 122.151061 42.935303 
L 123.326623 43.563995 
L 124.502185 46.690218 
L 125.563982 50.152532 
L 126.739544 48.089551 
L 127.877184 48.070795 
L 129.052746 45.156303 
L 130.190387 43.948015 
L 131.365948 45.794112 
L 132.54151 49.284665 
L 133.67915 50.475782 
L 134.854712 50.372243 
L 137.167914 57.158072 
L 138.343476 63.115971 
L 139.405273 63.837402 
L 140.580835 59.847085 
L 141.718476 53.122433 
L 144.031678 44.308562 
L 145.207239 44.472873 
L 146.382801 44.390079 
L 147.520441 43.021516 
L 148.696003 42.156007 
L 149.833643 39.045555 
L 151.009205 39.473596 
L 152.184767 47.999102 
L 153.246565 52.4039 
L 154.422126 53.186346 
L 157.872969 47.046214 
L 159.04853 49.056417 
L 160.224092 53.319344 
L 161.361733 58.06544 
L 162.537294 61.029135 
L 163.674935 65.747966 
L 164.850496 67.206994 
L 166.026058 73.740606 
L 167.125777 75.711313 
L 168.301339 69.973158 
L 169.438979 62.334054 
L 171.752181 55.609679 
L 172.927743 53.183407 
L 174.103305 54.292851 
L 175.240945 55.60011 
L 176.416507 54.29216 
L 177.554147 56.637435 
L 178.729709 62.779238 
L 179.905271 65.810846 
L 180.967068 64.584481 
L 182.14263 59.910928 
L 183.28027 53.123212 
L 184.455832 47.056569 
L 185.593472 43.586218 
L 186.769034 43.854016 
L 187.944596 44.648233 
L 189.082236 45.10018 
L 190.257798 38.889575 
L 191.395438 36.162521 
L 192.571 36.652064 
L 193.746562 38.615036 
L 194.808359 42.476568 
L 195.983921 43.076346 
L 197.121561 43.502728 
L 198.297123 47.37087 
L 199.434763 50.275789 
L 200.610325 55.222912 
L 201.785887 62.809156 
L 202.923527 66.532129 
L 205.236729 67.814247 
L 206.412291 69.86701 
L 207.587853 72.218587 
L 208.64965 69.765012 
L 210.962853 58.337333 
L 212.138414 53.808681 
L 213.276055 51.664645 
L 214.451616 52.032511 
L 215.627178 55.748313 
L 216.764818 57.008748 
L 217.94038 57.847383 
L 219.07802 60.034889 
L 220.253582 64.454362 
L 221.429144 67.905229 
L 222.528863 66.727841 
L 223.704425 61.6153 
L 224.842065 54.48504 
L 226.017627 51.808928 
L 227.155267 48.775182 
L 228.330829 47.299584 
L 229.50639 43.947866 
L 230.644031 45.481615 
L 231.819593 45.158463 
L 232.957233 47.394341 
L 234.132795 50.898239 
L 235.308356 56.534511 
L 236.370154 57.885851 
L 237.545716 57.164095 
L 238.683356 52.578325 
L 239.858918 48.904192 
L 240.996558 48.283337 
L 242.17212 48.332785 
L 245.660884 51.678708 
L 246.798524 49.542518 
L 247.974086 53.010594 
L 249.149647 58.644225 
L 250.211445 56.66831 
L 252.524647 48.27294 
L 253.700209 41.482572 
L 254.837849 43.657186 
L 256.013411 46.831269 
L 257.188973 46.339205 
L 258.326613 45.637232 
L 259.502175 45.773213 
L 260.639815 43.497391 
L 261.815377 45.420186 
L 262.990939 48.12765 
L 264.052736 48.327972 
L 265.228298 45.966146 
L 266.365938 39.605964 
L 267.5415 37.093086 
L 268.67914 35.668735 
L 269.854702 35.279251 
L 271.030264 33.745627 
L 272.167904 34.069307 
L 273.343466 33.447949 
L 274.481106 28.595777 
L 275.656668 32.048236 
L 276.83223 37.810443 
L 277.931949 39.97325 
L 279.10751 40.523668 
L 280.245151 42.23496 
L 281.420713 40.93081 
L 282.558353 41.865741 
L 283.733915 45.417025 
L 284.909476 50.494093 
L 286.047117 53.890384 
L 287.222678 55.965752 
L 289.53588 56.20333 
L 290.711442 58.84557 
L 291.77324 60.128914 
L 292.948802 56.568274 
L 295.262004 45.802302 
L 296.399644 42.217282 
L 297.575206 43.327498 
L 298.750767 47.972332 
L 299.888408 50.92942 
L 302.20161 54.629582 
L 303.377172 58.691097 
L 304.552733 59.921921 
L 305.614531 60.003079 
L 306.790093 58.915699 
L 307.927733 52.887114 
L 309.103295 47.904837 
L 310.240935 46.147309 
L 311.416497 46.454017 
L 312.592059 46.317102 
L 313.729699 46.055026 
L 314.905261 42.518338 
L 317.218463 43.990332 
L 318.394024 48.248369 
L 321.769024 44.938002 
L 322.944586 39.903734 
L 324.082226 38.905268 
L 325.257788 40.246532 
L 326.43335 45.700091 
L 327.57099 46.919353 
L 328.746552 43.587419 
L 329.884192 44.739783 
L 331.059754 45.295391 
L 333.335035 47.931162 
L 334.510596 48.607765 
L 335.648237 46.665894 
L 336.823798 47.286587 
L 337.961439 46.721354 
L 339.137 47.95726 
L 340.312562 53.578207 
L 342.625764 61.584035 
L 343.763405 61.166139 
L 344.938966 63.556781 
L 346.114528 66.945505 
L 347.176326 66.388802 
L 349.489528 53.301707 
L 350.66509 49.575112 
L 351.80273 47.971244 
L 352.978292 49.434036 
L 354.153853 51.844158 
L 355.291494 55.428628 
L 356.467055 57.790225 
L 357.604696 57.93296 
L 358.780257 61.577939 
L 359.955819 59.960204 
L 361.017617 61.524322 
L 362.193179 64.615562 
L 363.330819 60.075792 
L 365.644021 54.006288 
L 366.819583 57.240255 
L 367.995144 59.296476 
L 369.132785 60.728693 
L 370.308346 61.705581 
L 371.445987 60.334341 
L 372.621549 61.038097 
L 373.79711 62.753081 
L 374.858908 61.805083 
L 376.03447 56.097118 
L 377.17211 48.574781 
L 378.347672 44.762209 
L 379.485312 40.295648 
L 380.660874 39.783879 
L 381.836436 37.330205 
L 382.974076 36.73722 
L 384.149638 34.524374 
L 385.287278 31.575958 
L 386.46284 32.909004 
L 387.638401 38.365851 
L 388.73812 42.43013 
L 389.913682 43.548167 
L 391.051323 41.174378 
L 392.226884 39.705686 
L 393.364525 39.160857 
L 394.540086 43.067367 
L 395.715648 44.440805 
L 396.853288 50.686901 
L 398.02885 52.506904 
L 399.16649 52.352326 
L 400.342052 59.128052 
L 401.517614 63.410374 
L 402.579412 63.269647 
L 404.892614 54.330019 
L 404.892614 54.330019 
" clip-path="url(#p9ed9541ec6)" style="fill: none; stroke: #4596f3; stroke-width: 0.5; stroke-linecap: square"/>
   </g>
   <g id="patch_3">
    <path d="M 37.73625 78.06709 
L 37.73625 26.24 
" style="fill: none; stroke: #000000; stroke-width: 0.8; stroke-linejoin: miter; stroke-linecap: square"/>
   </g>
   <g id="patch_4">
    <path d="M 37.73625 78.06709 
L 422.37625 78.06709 
" style="fill: none; stroke: #000000; stroke-width: 0.8; stroke-linejoin: miter; stroke-linecap: square"/>
   </g>
  </g>
  <g id="axes_2">
   <g id="patch_5">
    <path d="M 37.73625 142.564727 
L 422.37625 142.564727 
L 422.37625 90.737637 
L 37.73625 90.737637 
z
" style="fill: #ffffff"/>
   </g>
   <g id="matplotlib.axis_3">
    <g id="xtick_8">
     <g id="line2d_22">
      <path d="M 54.082246 142.564727 
L 54.082246 90.737637 
" clip-path="url(#pef9fb099e7)" style="fill: none; stroke-dasharray: 2.96,1.28; stroke-dashoffset: 0; stroke: #b0b0b0; stroke-opacity: 0.5; stroke-width: 0.8"/>
     </g>
     <g id="line2d_23">
      <g>
       <use xlink:href="#maf3208f874" x="54.082246" y="142.564727" style="stroke: #000000; stroke-width: 0.8"/>
      </g>
     </g>
    </g>
    <g id="xtick_9">
     <g id="line2d_24">
      <path d="M 109.485332 142.564727 
L 109.485332 90.737637 
" clip-path="url(#pef9fb099e7)" style="fill: none; stroke-dasharray: 2.96,1.28; stroke-dashoffset: 0; stroke: #b0b0b0; stroke-opacity: 0.5; stroke-width: 0.8"/>
     </g>
     <g id="line2d_25">
      <g>
       <use xlink:href="#maf3208f874" x="109.485332" y="142.564727" style="stroke: #000000; stroke-width: 0.8"/>
      </g>
     </g>
    </g>
    <g id="xtick_10">
     <g id="line2d_26">
      <path d="M 164.888418 142.564727 
L 164.888418 90.737637 
" clip-path="url(#pef9fb099e7)" style="fill: none; stroke-dasharray: 2.96,1.28; stroke-dashoffset: 0; stroke: #b0b0b0; stroke-opacity: 0.5; stroke-width: 0.8"/>
     </g>
     <g id="line2d_27">
      <g>
       <use xlink:href="#maf3208f874" x="164.888418" y="142.564727" style="stroke: #000000; stroke-width: 0.8"/>
      </g>
     </g>
    </g>
    <g id="xtick_11">
     <g id="line2d_28">
      <path d="M 220.291504 142.564727 
L 220.291504 90.737637 
" clip-path="url(#pef9fb099e7)" style="fill: none; stroke-dasharray: 2.96,1.28; stroke-dashoffset: 0; stroke: #b0b0b0; stroke-opacity: 0.5; stroke-width: 0.8"/>
     </g>
     <g id="line2d_29">
      <g>
       <use xlink:href="#maf3208f874" x="220.291504" y="142.564727" style="stroke: #000000; stroke-width: 0.8"/>
      </g>
     </g>
    </g>
    <g id="xtick_12">
     <g id="line2d_30">
      <path d="M 275.694589 142.564727 
L 275.694589 90.737637 
" clip-path="url(#pef9fb099e7)" style="fill: none; stroke-dasharray: 2.96,1.28; stroke-dashoffset: 0; stroke: #b0b0b0; stroke-opacity: 0.5; stroke-width: 0.8"/>
     </g>
     <g id="line2d_31">
      <g>
       <use xlink:href="#maf3208f874" x="275.694589" y="142.564727" style="stroke: #000000; stroke-width: 0.8"/>
      </g>
     </g>
    </g>
    <g id="xtick_13">
     <g id="line2d_32">
      <path d="M 331.097675 142.564727 
L 331.097675 90.737637 
" clip-path="url(#pef9fb099e7)" style="fill: none; stroke-dasharray: 2.96,1.28; stroke-dashoffset: 0; stroke: #b0b0b0; stroke-opacity: 0.5; stroke-width: 0.8"/>
     </g>
     <g id="line2d_33">
      <g>
       <use xlink:href="#maf3208f874" x="331.097675" y="142.564727" style="stroke: #000000; stroke-width: 0.8"/>
      </g>
     </g>
    </g>
    <g id="xtick_14">
     <g id="line2d_34">
      <path d="M 386.500761 142.564727 
L 386.500761 90.737637 
" clip-path="url(#pef9fb099e7)" style="fill: none; stroke-dasharray: 2.96,1.28; stroke-dashoffset: 0; stroke: #b0b0b0; stroke-opacity: 0.5; stroke-width: 0.8"/>
     </g>
     <g id="line2d_35">
      <g>
       <use xlink:href="#maf3208f874" x="386.500761" y="142.564727" style="stroke: #000000; stroke-width: 0.8"/>
      </g>
     </g>
    </g>
   </g>
   <g id="matplotlib.axis_4">
    <g id="ytick_4">
     <g id="line2d_36">
      <path d="M 37.73625 132.805937 
L 422.37625 132.805937 
" clip-path="url(#pef9fb099e7)" style="fill: none; stroke-dasharray: 2.96,1.28; stroke-dashoffset: 0; stroke: #b0b0b0; stroke-opacity: 0.5; stroke-width: 0.8"/>
     </g>
     <g id="line2d_37">
      <g>
       <use xlink:href="#m28e4e423cb" x="37.73625" y="132.805937" style="stroke: #000000; stroke-width: 0.8"/>
      </g>
     </g>
     <g id="text_5">
      <!-- −1 -->
      <g transform="translate(18.9425 135.845312) scale(0.08 -0.08)">
       <defs>
        <path id="DejaVuSerif-31" d="M 909 0 
L 909 331 
L 1722 331 
L 1722 4213 
L 781 3603 
L 781 4013 
L 1919 4750 
L 2350 4750 
L 2350 331 
L 3163 331 
L 3163 0 
L 909 0 
z
" transform="scale(0.015625)"/>
       </defs>
       <use xlink:href="#DejaVuSerif-2212"/>
       <use xlink:href="#DejaVuSerif-31" transform="translate(83.789062 0)"/>
      </g>
     </g>
    </g>
    <g id="ytick_5">
     <g id="line2d_38">
      <path d="M 37.73625 117.618258 
L 422.37625 117.618258 
" clip-path="url(#pef9fb099e7)" style="fill: none; stroke-dasharray: 2.96,1.28; stroke-dashoffset: 0; stroke: #b0b0b0; stroke-opacity: 0.5; stroke-width: 0.8"/>
     </g>
     <g id="line2d_39">
      <g>
       <use xlink:href="#m28e4e423cb" x="37.73625" y="117.618258" style="stroke: #000000; stroke-width: 0.8"/>
      </g>
     </g>
     <g id="text_6">
      <!-- 0 -->
      <g transform="translate(25.64625 120.657633) scale(0.08 -0.08)">
       <use xlink:href="#DejaVuSerif-30"/>
      </g>
     </g>
    </g>
    <g id="ytick_6">
     <g id="line2d_40">
      <path d="M 37.73625 102.430579 
L 422.37625 102.430579 
" clip-path="url(#pef9fb099e7)" style="fill: none; stroke-dasharray: 2.96,1.28; stroke-dashoffset: 0; stroke: #b0b0b0; stroke-opacity: 0.5; stroke-width: 0.8"/>
     </g>
     <g id="line2d_41">
      <g>
       <use xlink:href="#m28e4e423cb" x="37.73625" y="102.430579" style="stroke: #000000; stroke-width: 0.8"/>
      </g>
     </g>
     <g id="text_7">
      <!-- 1 -->
      <g transform="translate(25.64625 105.469954) scale(0.08 -0.08)">
       <use xlink:href="#DejaVuSerif-31"/>
      </g>
     </g>
    </g>
    <g id="text_8">
     <!-- Tendência -->
     <g transform="translate(13.27875 137.361807) rotate(-90) scale(0.08 -0.08)">
      <defs>
       <path id="DejaVuSerif-54" d="M 1222 0 
L 1222 331 
L 1819 331 
L 1819 4294 
L 447 4294 
L 447 3566 
L 63 3566 
L 63 4666 
L 4206 4666 
L 4206 3566 
L 3822 3566 
L 3822 4294 
L 2450 4294 
L 2450 331 
L 3047 331 
L 3047 0 
L 1222 0 
z
" transform="scale(0.015625)"/>
       <path id="DejaVuSerif-6e" d="M 263 0 
L 263 331 
L 781 331 
L 781 2988 
L 231 2988 
L 231 3322 
L 1356 3322 
L 1356 2731 
Q 1516 3069 1770 3241 
Q 2025 3413 2363 3413 
Q 2913 3413 3172 3097 
Q 3431 2781 3431 2113 
L 3431 331 
L 3944 331 
L 3944 0 
L 2356 0 
L 2356 331 
L 2853 331 
L 2853 1931 
Q 2853 2541 2703 2767 
Q 2553 2994 2175 2994 
Q 1775 2994 1565 2701 
Q 1356 2409 1356 1850 
L 1356 331 
L 1856 331 
L 1856 0 
L 263 0 
z
" transform="scale(0.015625)"/>
       <path id="DejaVuSerif-ea" d="M 3469 1600 
L 991 1600 
L 991 1575 
Q 991 903 1244 561 
Q 1497 219 1991 219 
Q 2369 219 2611 417 
Q 2853 616 2950 1006 
L 3413 1006 
Q 3275 459 2904 184 
Q 2534 -91 1931 -91 
Q 1203 -91 761 389 
Q 319 869 319 1663 
Q 319 2450 753 2931 
Q 1188 3413 1894 3413 
Q 2647 3413 3050 2948 
Q 3453 2484 3469 1600 
z
M 2791 1931 
Q 2772 2513 2545 2808 
Q 2319 3103 1894 3103 
Q 1497 3103 1269 2806 
Q 1041 2509 991 1931 
L 2791 1931 
z
M 1634 5119 
L 2159 5119 
L 2893 3944 
L 2530 3944 
L 1896 4756 
L 1262 3944 
L 899 3944 
L 1634 5119 
z
" transform="scale(0.015625)"/>
       <path id="DejaVuSerif-63" d="M 3291 997 
Q 3169 466 2822 187 
Q 2475 -91 1925 -91 
Q 1200 -91 759 389 
Q 319 869 319 1663 
Q 319 2459 759 2936 
Q 1200 3413 1925 3413 
Q 2241 3413 2553 3339 
Q 2866 3266 3181 3116 
L 3181 2266 
L 2847 2266 
Q 2781 2703 2561 2903 
Q 2341 3103 1931 3103 
Q 1466 3103 1228 2742 
Q 991 2381 991 1663 
Q 991 944 1227 581 
Q 1463 219 1931 219 
Q 2303 219 2525 412 
Q 2747 606 2828 997 
L 3291 997 
z
" transform="scale(0.015625)"/>
       <path id="DejaVuSerif-69" d="M 622 4353 
Q 622 4497 726 4603 
Q 831 4709 978 4709 
Q 1122 4709 1226 4603 
Q 1331 4497 1331 4353 
Q 1331 4206 1228 4103 
Q 1125 4000 978 4000 
Q 831 4000 726 4103 
Q 622 4206 622 4353 
z
M 1356 331 
L 1900 331 
L 1900 0 
L 231 0 
L 231 331 
L 781 331 
L 781 2988 
L 231 2988 
L 231 3322 
L 1356 3322 
L 1356 331 
z
" transform="scale(0.015625)"/>
      </defs>
      <use xlink:href="#DejaVuSerif-54"/>
      <use xlink:href="#DejaVuSerif-65" transform="translate(58.949219 0)"/>
      <use xlink:href="#DejaVuSerif-6e" transform="translate(118.128906 0)"/>
      <use xlink:href="#DejaVuSerif-64" transform="translate(182.533203 0)"/>
      <use xlink:href="#DejaVuSerif-ea" transform="translate(246.546875 0)"/>
      <use xlink:href="#DejaVuSerif-6e" transform="translate(305.726562 0)"/>
      <use xlink:href="#DejaVuSerif-63" transform="translate(370.130859 0)"/>
      <use xlink:href="#DejaVuSerif-69" transform="translate(426.136719 0)"/>
      <use xlink:href="#DejaVuSerif-61" transform="translate(458.119141 0)"/>
     </g>
    </g>
   </g>
   <g id="line2d_42">
    <path d="M 55.219886 140.20895 
L 57.495167 138.020166 
L 72.474099 123.835106 
L 73.64966 122.663896 
L 75.962862 119.867539 
L 78.276064 116.902452 
L 80.589267 114.380324 
L 82.94039 112.126689 
L 85.177749 109.260034 
L 88.628592 103.920889 
L 89.804154 102.433427 
L 90.979715 101.347692 
L 92.117356 100.727159 
L 93.292917 100.551719 
L 94.430558 100.764675 
L 95.606119 101.333394 
L 96.781681 102.251207 
L 99.01904 104.922015 
L 103.645445 111.442521 
L 104.821006 112.711975 
L 105.958647 113.641212 
L 107.134208 114.203098 
L 108.271849 114.389437 
L 109.44741 114.236531 
L 110.622972 113.81278 
L 112.898253 112.51765 
L 118.700219 108.836475 
L 119.837859 108.212283 
L 121.013421 107.736182 
L 122.151061 107.480707 
L 123.326623 107.515253 
L 124.502185 107.875363 
L 125.563982 108.562994 
L 126.739544 109.569203 
L 127.877184 110.874475 
L 129.052746 112.428102 
L 132.54151 117.679179 
L 133.67915 119.209018 
L 134.854712 120.412779 
L 135.992352 121.220779 
L 137.167914 121.606426 
L 138.343476 121.565901 
L 139.405273 121.11398 
L 140.580835 120.231362 
L 141.718476 118.921039 
L 142.894037 117.268625 
L 145.207239 113.600849 
L 146.382801 111.994142 
L 147.520441 110.776352 
L 148.696003 110.036874 
L 149.833643 109.794066 
L 151.009205 110.023219 
L 152.184767 110.72094 
L 153.246565 111.928846 
L 154.422126 113.702695 
L 155.559767 116.043707 
L 156.735328 118.8857 
L 160.224092 128.519961 
L 161.361733 131.298743 
L 162.537294 133.605251 
L 163.674935 135.414678 
L 164.850496 136.722567 
L 166.026058 137.530639 
L 167.125777 137.841126 
L 168.301339 137.682762 
L 169.438979 137.134531 
L 170.614541 136.291721 
L 172.927743 134.06817 
L 175.240945 131.5141 
L 178.729709 127.38403 
L 179.905271 125.951332 
L 182.14263 122.596918 
L 183.28027 120.443568 
L 184.455832 117.865062 
L 187.944596 108.904026 
L 189.082236 106.468811 
L 190.257798 104.800692 
L 191.395438 104.03773 
L 192.571 104.23538 
L 193.746562 105.381609 
L 194.808359 107.407244 
L 195.983921 110.211672 
L 197.121561 113.676795 
L 198.297123 117.643128 
L 200.610325 126.084846 
L 201.785887 129.949447 
L 202.923527 133.202983 
L 204.099089 135.651597 
L 205.236729 137.208844 
L 206.412291 137.917764 
L 207.587853 137.897493 
L 208.64965 137.321951 
L 209.825212 136.39669 
L 212.138414 134.280136 
L 213.276055 133.381256 
L 214.451616 132.661185 
L 216.764818 131.660522 
L 219.07802 130.853367 
L 220.253582 130.266963 
L 221.429144 129.428315 
L 222.528863 128.300274 
L 223.704425 126.902723 
L 228.330829 120.372797 
L 229.50639 119.076533 
L 230.644031 118.082709 
L 231.819593 117.410894 
L 232.957233 117.044457 
L 234.132795 116.955749 
L 235.308356 117.114221 
L 237.545716 118.016929 
L 239.858918 119.133178 
L 240.996558 119.50977 
L 242.17212 119.669713 
L 243.347682 119.586256 
L 244.485322 119.257769 
L 246.798524 118.126179 
L 251.387007 115.689634 
L 253.700209 114.126049 
L 256.013411 112.126216 
L 260.639815 107.71678 
L 262.990939 105.181484 
L 266.365938 100.243183 
L 268.67914 96.79412 
L 269.854702 95.302304 
L 271.030264 94.127049 
L 272.167904 93.370154 
L 273.343466 93.093413 
L 274.481106 93.327951 
L 275.656668 94.095957 
L 276.83223 95.414122 
L 277.931949 97.290528 
L 279.10751 99.704838 
L 281.420713 105.679613 
L 283.733915 112.019446 
L 284.909476 114.836339 
L 286.047117 117.174374 
L 287.222678 118.927524 
L 288.360319 120.065375 
L 289.53588 120.637799 
L 290.711442 120.761133 
L 291.77324 120.58861 
L 295.262004 119.663901 
L 296.399644 119.528276 
L 297.575206 119.547894 
L 299.888408 119.97402 
L 304.552733 121.199768 
L 305.614531 121.082553 
L 306.790093 120.553002 
L 307.927733 119.577794 
L 309.103295 118.218176 
L 314.905261 109.972071 
L 316.042901 108.741402 
L 317.218463 107.77824 
L 318.394024 107.105598 
L 319.455822 106.691451 
L 320.631384 106.49753 
L 322.944586 106.541377 
L 326.43335 106.829221 
L 327.57099 107.055769 
L 328.746552 107.456725 
L 329.884192 108.053096 
L 331.059754 108.854525 
L 332.235316 109.890837 
L 333.335035 111.20908 
L 334.510596 112.827517 
L 335.648237 114.753923 
L 336.823798 116.972524 
L 339.137 121.841199 
L 340.312562 124.076935 
L 341.450203 125.943213 
L 342.625764 127.344286 
L 343.763405 128.262461 
L 344.938966 128.747047 
L 346.114528 128.892168 
L 347.176326 128.805049 
L 348.351887 128.568905 
L 350.66509 127.768213 
L 352.978292 126.86753 
L 354.153853 126.686299 
L 355.291494 126.798565 
L 356.467055 127.219971 
L 357.604696 127.919562 
L 359.955819 129.745528 
L 361.017617 130.646479 
L 363.330819 132.116302 
L 364.506381 132.606768 
L 365.644021 132.887301 
L 366.819583 132.916651 
L 367.995144 132.642172 
L 369.132785 131.998923 
L 370.308346 130.928822 
L 371.445987 129.404682 
L 372.621549 127.455679 
L 373.79711 125.111324 
L 376.03447 119.228403 
L 380.660874 105.17513 
L 381.836436 102.292781 
L 382.974076 99.993839 
L 384.149638 98.328335 
L 385.287278 97.310717 
L 386.46284 96.932391 
L 387.638401 97.18823 
L 388.73812 98.081471 
L 389.913682 99.607872 
L 391.051323 101.736073 
L 392.226884 104.365601 
L 394.540086 110.172303 
L 403.754973 130.812298 
L 404.892614 133.299845 
L 404.892614 133.299845 
" clip-path="url(#pef9fb099e7)" style="fill: none; stroke: #ff5656; stroke-width: 0.5; stroke-linecap: square"/>
   </g>
   <g id="patch_6">
    <path d="M 37.73625 142.564727 
L 37.73625 90.737637 
" style="fill: none; stroke: #000000; stroke-width: 0.8; stroke-linejoin: miter; stroke-linecap: square"/>
   </g>
   <g id="patch_7">
    <path d="M 37.73625 142.564727 
L 422.37625 142.564727 
" style="fill: none; stroke: #000000; stroke-width: 0.8; stroke-linejoin: miter; stroke-linecap: square"/>
   </g>
  </g>
  <g id="axes_3">
   <g id="patch_8">
    <path d="M 37.73625 207.062363 
L 422.37625 207.062363 
L 422.37625 155.235273 
L 37.73625 155.235273 
z
" style="fill: #ffffff"/>
   </g>
   <g id="matplotlib.axis_5">
    <g id="xtick_15">
     <g id="line2d_43">
      <path d="M 54.082246 207.062363 
L 54.082246 155.235273 
" clip-path="url(#p9ba99065da)" style="fill: none; stroke-dasharray: 2.96,1.28; stroke-dashoffset: 0; stroke: #b0b0b0; stroke-opacity: 0.5; stroke-width: 0.8"/>
     </g>
     <g id="line2d_44">
      <g>
       <use xlink:href="#maf3208f874" x="54.082246" y="207.062363" style="stroke: #000000; stroke-width: 0.8"/>
      </g>
     </g>
    </g>
    <g id="xtick_16">
     <g id="line2d_45">
      <path d="M 109.485332 207.062363 
L 109.485332 155.235273 
" clip-path="url(#p9ba99065da)" style="fill: none; stroke-dasharray: 2.96,1.28; stroke-dashoffset: 0; stroke: #b0b0b0; stroke-opacity: 0.5; stroke-width: 0.8"/>
     </g>
     <g id="line2d_46">
      <g>
       <use xlink:href="#maf3208f874" x="109.485332" y="207.062363" style="stroke: #000000; stroke-width: 0.8"/>
      </g>
     </g>
    </g>
    <g id="xtick_17">
     <g id="line2d_47">
      <path d="M 164.888418 207.062363 
L 164.888418 155.235273 
" clip-path="url(#p9ba99065da)" style="fill: none; stroke-dasharray: 2.96,1.28; stroke-dashoffset: 0; stroke: #b0b0b0; stroke-opacity: 0.5; stroke-width: 0.8"/>
     </g>
     <g id="line2d_48">
      <g>
       <use xlink:href="#maf3208f874" x="164.888418" y="207.062363" style="stroke: #000000; stroke-width: 0.8"/>
      </g>
     </g>
    </g>
    <g id="xtick_18">
     <g id="line2d_49">
      <path d="M 220.291504 207.062363 
L 220.291504 155.235273 
" clip-path="url(#p9ba99065da)" style="fill: none; stroke-dasharray: 2.96,1.28; stroke-dashoffset: 0; stroke: #b0b0b0; stroke-opacity: 0.5; stroke-width: 0.8"/>
     </g>
     <g id="line2d_50">
      <g>
       <use xlink:href="#maf3208f874" x="220.291504" y="207.062363" style="stroke: #000000; stroke-width: 0.8"/>
      </g>
     </g>
    </g>
    <g id="xtick_19">
     <g id="line2d_51">
      <path d="M 275.694589 207.062363 
L 275.694589 155.235273 
" clip-path="url(#p9ba99065da)" style="fill: none; stroke-dasharray: 2.96,1.28; stroke-dashoffset: 0; stroke: #b0b0b0; stroke-opacity: 0.5; stroke-width: 0.8"/>
     </g>
     <g id="line2d_52">
      <g>
       <use xlink:href="#maf3208f874" x="275.694589" y="207.062363" style="stroke: #000000; stroke-width: 0.8"/>
      </g>
     </g>
    </g>
    <g id="xtick_20">
     <g id="line2d_53">
      <path d="M 331.097675 207.062363 
L 331.097675 155.235273 
" clip-path="url(#p9ba99065da)" style="fill: none; stroke-dasharray: 2.96,1.28; stroke-dashoffset: 0; stroke: #b0b0b0; stroke-opacity: 0.5; stroke-width: 0.8"/>
     </g>
     <g id="line2d_54">
      <g>
       <use xlink:href="#maf3208f874" x="331.097675" y="207.062363" style="stroke: #000000; stroke-width: 0.8"/>
      </g>
     </g>
    </g>
    <g id="xtick_21">
     <g id="line2d_55">
      <path d="M 386.500761 207.062363 
L 386.500761 155.235273 
" clip-path="url(#p9ba99065da)" style="fill: none; stroke-dasharray: 2.96,1.28; stroke-dashoffset: 0; stroke: #b0b0b0; stroke-opacity: 0.5; stroke-width: 0.8"/>
     </g>
     <g id="line2d_56">
      <g>
       <use xlink:href="#maf3208f874" x="386.500761" y="207.062363" style="stroke: #000000; stroke-width: 0.8"/>
      </g>
     </g>
    </g>
   </g>
   <g id="matplotlib.axis_6">
    <g id="ytick_7">
     <g id="line2d_57">
      <path d="M 37.73625 206.751185 
L 422.37625 206.751185 
" clip-path="url(#p9ba99065da)" style="fill: none; stroke-dasharray: 2.96,1.28; stroke-dashoffset: 0; stroke: #b0b0b0; stroke-opacity: 0.5; stroke-width: 0.8"/>
     </g>
     <g id="line2d_58">
      <g>
       <use xlink:href="#m28e4e423cb" x="37.73625" y="206.751185" style="stroke: #000000; stroke-width: 0.8"/>
      </g>
     </g>
     <g id="text_9">
      <!-- −1 -->
      <g transform="translate(18.9425 209.79056) scale(0.08 -0.08)">
       <use xlink:href="#DejaVuSerif-2212"/>
       <use xlink:href="#DejaVuSerif-31" transform="translate(83.789062 0)"/>
      </g>
     </g>
    </g>
    <g id="ytick_8">
     <g id="line2d_59">
      <path d="M 37.73625 177.241707 
L 422.37625 177.241707 
" clip-path="url(#p9ba99065da)" style="fill: none; stroke-dasharray: 2.96,1.28; stroke-dashoffset: 0; stroke: #b0b0b0; stroke-opacity: 0.5; stroke-width: 0.8"/>
     </g>
     <g id="line2d_60">
      <g>
       <use xlink:href="#m28e4e423cb" x="37.73625" y="177.241707" style="stroke: #000000; stroke-width: 0.8"/>
      </g>
     </g>
     <g id="text_10">
      <!-- 0 -->
      <g transform="translate(25.64625 180.281082) scale(0.08 -0.08)">
       <use xlink:href="#DejaVuSerif-30"/>
      </g>
     </g>
    </g>
    <g id="text_11">
     <!-- Sazonalidade -->
     <g transform="translate(13.27875 208.183193) rotate(-90) scale(0.08 -0.08)">
      <defs>
       <path id="DejaVuSerif-53" d="M 594 225 
L 594 1288 
L 953 1284 
Q 969 753 1261 498 
Q 1553 244 2150 244 
Q 2706 244 2998 464 
Q 3291 684 3291 1106 
Q 3291 1444 3114 1625 
Q 2938 1806 2369 1978 
L 1753 2163 
Q 1084 2366 811 2669 
Q 538 2972 538 3500 
Q 538 4094 959 4422 
Q 1381 4750 2144 4750 
Q 2469 4750 2856 4679 
Q 3244 4609 3681 4475 
L 3681 3481 
L 3328 3481 
Q 3275 3975 2998 4195 
Q 2722 4416 2156 4416 
Q 1663 4416 1405 4214 
Q 1147 4013 1147 3628 
Q 1147 3294 1340 3103 
Q 1534 2913 2163 2725 
L 2741 2553 
Q 3375 2363 3645 2067 
Q 3916 1772 3916 1275 
Q 3916 597 3481 253 
Q 3047 -91 2188 -91 
Q 1803 -91 1404 -12 
Q 1006 66 594 225 
z
" transform="scale(0.015625)"/>
       <path id="DejaVuSerif-7a" d="M 256 0 
L 256 269 
L 2338 2988 
L 691 2988 
L 691 2413 
L 359 2413 
L 359 3322 
L 3078 3322 
L 3078 3053 
L 997 331 
L 2803 331 
L 2803 934 
L 3138 934 
L 3138 0 
L 256 0 
z
" transform="scale(0.015625)"/>
       <path id="DejaVuSerif-6c" d="M 1313 331 
L 1856 331 
L 1856 0 
L 184 0 
L 184 331 
L 738 331 
L 738 4531 
L 184 4531 
L 184 4863 
L 1313 4863 
L 1313 331 
z
" transform="scale(0.015625)"/>
      </defs>
      <use xlink:href="#DejaVuSerif-53"/>
      <use xlink:href="#DejaVuSerif-61" transform="translate(68.505859 0)"/>
      <use xlink:href="#DejaVuSerif-7a" transform="translate(128.125 0)"/>
      <use xlink:href="#DejaVuSerif-6f" transform="translate(180.810547 0)"/>
      <use xlink:href="#DejaVuSerif-6e" transform="translate(241.015625 0)"/>
      <use xlink:href="#DejaVuSerif-61" transform="translate(305.419922 0)"/>
      <use xlink:href="#DejaVuSerif-6c" transform="translate(365.039062 0)"/>
      <use xlink:href="#DejaVuSerif-69" transform="translate(397.021484 0)"/>
      <use xlink:href="#DejaVuSerif-64" transform="translate(429.003906 0)"/>
      <use xlink:href="#DejaVuSerif-61" transform="translate(493.017578 0)"/>
      <use xlink:href="#DejaVuSerif-64" transform="translate(552.636719 0)"/>
      <use xlink:href="#DejaVuSerif-65" transform="translate(616.650391 0)"/>
     </g>
    </g>
   </g>
   <g id="line2d_61">
    <path d="M 55.219886 195.016011 
L 56.319605 204.706587 
L 57.495167 200.162845 
L 58.632807 181.883849 
L 60.94601 159.98695 
L 62.121571 158.86765 
L 63.297133 161.155124 
L 64.434773 162.395068 
L 65.610335 171.85579 
L 66.747975 172.663338 
L 67.923537 187.87161 
L 69.099099 193.829902 
L 70.160897 203.347351 
L 71.336458 199.086841 
L 72.474099 182.513765 
L 73.64966 171.1702 
L 74.787301 161.457337 
L 75.962862 160.149485 
L 77.138424 162.952887 
L 78.276064 163.851939 
L 79.451626 170.709955 
L 80.589267 172.264227 
L 81.764828 185.493189 
L 82.94039 193.015823 
L 84.002188 202.339626 
L 85.177749 198.103323 
L 86.31539 182.947303 
L 87.490951 171.775509 
L 88.628592 162.54913 
L 89.804154 161.131978 
L 90.979715 164.516241 
L 92.117356 165.242514 
L 93.292917 169.78606 
L 94.430558 172.022948 
L 95.606119 183.424517 
L 96.781681 192.440135 
L 97.843479 201.512371 
L 99.01904 197.218858 
L 100.156681 183.268107 
L 101.332243 172.239173 
L 102.469883 163.40345 
L 103.645445 161.943502 
L 104.821006 165.91676 
L 105.958647 166.597346 
L 107.134208 168.938419 
L 108.271849 171.805688 
L 111.722691 200.683844 
L 112.898253 196.395497 
L 114.035893 183.56309 
L 115.211455 172.722752 
L 116.349095 164.205996 
L 117.524657 162.733311 
L 118.700219 167.192521 
L 119.837859 167.914181 
L 121.013421 168.015719 
L 122.151061 171.527148 
L 123.326623 179.65327 
L 124.502185 191.816925 
L 125.563982 200.323767 
L 126.739544 195.604297 
L 127.877184 183.611353 
L 129.052746 172.741245 
L 130.190387 164.590636 
L 131.365948 163.151372 
L 132.54151 167.93086 
L 133.67915 168.923142 
L 134.854712 167.303913 
L 135.992352 171.622089 
L 137.167914 178.495445 
L 138.343476 194.373797 
L 139.405273 202.230427 
L 140.580835 195.14511 
L 141.718476 181.952582 
L 142.894037 170.717126 
L 144.031678 162.957983 
L 145.207239 162.2297 
L 146.382801 168.173924 
L 147.520441 170.601812 
L 148.696003 168.496549 
L 149.833643 172.66384 
L 151.009205 179.634911 
L 152.184767 195.695827 
L 153.246565 202.356306 
L 154.422126 193.506242 
L 155.559767 179.351756 
L 156.735328 168.482738 
L 157.872969 161.269926 
L 159.04853 161.976283 
L 160.224092 169.467502 
L 161.361733 173.2245 
L 162.537294 170.619677 
L 163.674935 173.840508 
L 164.850496 181.031585 
L 166.026058 196.369646 
L 167.125777 201.385991 
L 168.301339 191.451435 
L 169.438979 176.581547 
L 170.614541 166.627929 
L 171.752181 159.790565 
L 172.927743 161.813198 
L 174.103305 170.192576 
L 175.240945 175.174965 
L 176.416507 172.414271 
L 177.554147 175.170355 
L 178.729709 183.063327 
L 179.905271 197.437008 
L 180.967068 200.861546 
L 182.14263 190.195858 
L 183.28027 174.525059 
L 184.455832 165.46423 
L 185.593472 159.269429 
L 186.769034 161.477591 
L 187.944596 169.613419 
L 189.082236 175.46334 
L 190.257798 172.976405 
L 191.395438 175.996947 
L 192.571 185.001439 
L 193.746562 198.326508 
L 194.808359 200.364286 
L 195.983921 189.426307 
L 197.121561 173.518379 
L 198.297123 164.688202 
L 199.434763 159.706186 
L 200.610325 161.963025 
L 201.785887 169.307764 
L 202.923527 175.299902 
L 204.099089 173.21413 
L 205.236729 175.933208 
L 206.412291 186.003685 
L 207.587853 198.653752 
L 208.64965 199.396111 
L 209.825212 188.627686 
L 210.962853 173.065348 
L 212.138414 163.918918 
L 213.276055 160.707447 
L 214.451616 163.765419 
L 215.627178 169.960808 
L 216.764818 175.270966 
L 217.94038 173.892991 
L 219.07802 174.916703 
L 220.253582 185.306274 
L 221.429144 198.032539 
L 222.528863 198.0962 
L 223.704425 188.142245 
L 224.842065 173.250475 
L 226.017627 163.692267 
L 227.155267 161.82688 
L 228.330829 165.53225 
L 230.644031 174.881738 
L 231.819593 174.801243 
L 232.957233 173.853684 
L 234.132795 183.966693 
L 235.308356 197.448175 
L 236.370154 197.51928 
L 237.545716 188.375425 
L 238.683356 174.193688 
L 239.858918 163.932216 
L 240.996558 162.387755 
L 243.347682 169.749182 
L 244.485322 174.009969 
L 245.660884 175.400649 
L 246.798524 173.386157 
L 247.974086 183.240525 
L 249.149647 197.269585 
L 250.211445 197.818865 
L 251.387007 189.450215 
L 252.524647 175.661097 
L 253.700209 164.11969 
L 254.837849 162.16277 
L 257.188973 169.303707 
L 258.326613 173.661809 
L 259.502175 175.65916 
L 260.639815 173.068637 
L 261.815377 182.427015 
L 262.990939 196.068156 
L 264.052736 197.242841 
L 265.228298 190.018122 
L 267.5415 164.19596 
L 268.67914 161.978666 
L 271.030264 170.495854 
L 272.167904 174.854506 
L 273.343466 176.149611 
L 274.481106 173.342364 
L 275.656668 181.606482 
L 276.83223 194.164516 
L 277.931949 195.532421 
L 279.10751 189.403387 
L 281.420713 164.145533 
L 282.558353 161.5544 
L 283.733915 166.085644 
L 284.909476 172.484911 
L 286.047117 176.871846 
L 287.222678 176.882667 
L 288.360319 174.476614 
L 289.53588 181.441877 
L 290.711442 192.463439 
L 291.77324 193.783488 
L 292.948802 188.216718 
L 295.262004 164.271092 
L 296.399644 160.680892 
L 297.575206 164.900287 
L 298.750767 173.424031 
L 299.888408 178.402591 
L 301.06397 177.91898 
L 302.20161 176.54673 
L 303.377172 182.533443 
L 304.552733 191.898107 
L 305.614531 193.142655 
L 306.790093 187.492879 
L 309.103295 163.928204 
L 310.240935 159.061954 
L 311.416497 162.872017 
L 312.592059 173.03167 
L 313.729699 179.012392 
L 314.905261 179.061103 
L 316.042901 178.919114 
L 317.218463 184.680945 
L 318.394024 192.232966 
L 319.455822 193.224943 
L 320.631384 187.603135 
L 321.769024 175.022596 
L 322.944586 163.26584 
L 324.082226 157.59105 
L 325.257788 161.697841 
L 326.43335 172.300861 
L 327.57099 178.837484 
L 329.884192 180.113539 
L 331.059754 186.053737 
L 332.235316 192.595274 
L 333.335035 193.598581 
L 334.510596 188.164382 
L 335.648237 174.501244 
L 336.823798 163.892499 
L 337.961439 157.787426 
L 339.137 162.598537 
L 340.312562 171.372623 
L 341.450203 178.232578 
L 342.625764 179.112279 
L 343.763405 178.506962 
L 344.938966 185.12152 
L 346.114528 192.467777 
L 347.176326 194.131385 
L 348.351887 188.335312 
L 349.489528 174.032597 
L 350.66509 164.911977 
L 351.80273 158.373029 
L 352.978292 163.708968 
L 354.153853 170.541004 
L 355.291494 178.111334 
L 356.467055 179.230775 
L 357.604696 177.298555 
L 359.955819 192.977108 
L 361.017617 194.793592 
L 362.193179 187.947104 
L 363.330819 172.764308 
L 365.644021 158.831416 
L 366.819583 164.753715 
L 367.995144 169.567282 
L 369.132785 177.946677 
L 370.308346 179.478784 
L 371.445987 176.157536 
L 373.79711 193.587458 
L 374.858908 195.562183 
L 376.03447 187.649748 
L 377.17211 171.499251 
L 378.347672 166.771387 
L 379.485312 159.269462 
L 380.660874 165.857453 
L 381.836436 168.493127 
L 382.974076 177.678479 
L 384.149638 179.626028 
L 385.287278 174.865771 
L 387.638401 194.225686 
L 388.73812 196.426995 
L 389.913682 187.450046 
L 391.051323 170.340944 
L 392.226884 167.833329 
L 393.364525 159.794439 
L 394.540086 167.089717 
L 395.715648 167.360522 
L 396.853288 177.345677 
L 398.02885 179.593923 
L 399.16649 173.347854 
L 400.342052 184.734138 
L 401.517614 194.888095 
L 402.579412 197.340361 
L 403.754973 187.252872 
L 404.892614 169.229119 
L 404.892614 169.229119 
" clip-path="url(#p9ba99065da)" style="fill: none; stroke: #ffa722; stroke-width: 0.5; stroke-linecap: square"/>
   </g>
   <g id="patch_9">
    <path d="M 37.73625 207.062363 
L 37.73625 155.235273 
" style="fill: none; stroke: #000000; stroke-width: 0.8; stroke-linejoin: miter; stroke-linecap: square"/>
   </g>
   <g id="patch_10">
    <path d="M 37.73625 207.062363 
L 422.37625 207.062363 
" style="fill: none; stroke: #000000; stroke-width: 0.8; stroke-linejoin: miter; stroke-linecap: square"/>
   </g>
  </g>
  <g id="axes_4">
   <g id="patch_11">
    <path d="M 37.73625 271.56 
L 422.37625 271.56 
L 422.37625 219.73291 
L 37.73625 219.73291 
z
" style="fill: #ffffff"/>
   </g>
   <g id="matplotlib.axis_7">
    <g id="xtick_22">
     <g id="line2d_62">
      <path d="M 54.082246 271.56 
L 54.082246 219.73291 
" clip-path="url(#p46d0966044)" style="fill: none; stroke-dasharray: 2.96,1.28; stroke-dashoffset: 0; stroke: #b0b0b0; stroke-opacity: 0.5; stroke-width: 0.8"/>
     </g>
     <g id="line2d_63">
      <g>
       <use xlink:href="#maf3208f874" x="54.082246" y="271.56" style="stroke: #000000; stroke-width: 0.8"/>
      </g>
     </g>
     <g id="text_12">
      <!-- 2000 -->
      <g transform="translate(43.902246 284.63875) scale(0.08 -0.08)">
       <use xlink:href="#DejaVuSerif-32"/>
       <use xlink:href="#DejaVuSerif-30" transform="translate(63.623047 0)"/>
       <use xlink:href="#DejaVuSerif-30" transform="translate(127.246094 0)"/>
       <use xlink:href="#DejaVuSerif-30" transform="translate(190.869141 0)"/>
      </g>
     </g>
    </g>
    <g id="xtick_23">
     <g id="line2d_64">
      <path d="M 109.485332 271.56 
L 109.485332 219.73291 
" clip-path="url(#p46d0966044)" style="fill: none; stroke-dasharray: 2.96,1.28; stroke-dashoffset: 0; stroke: #b0b0b0; stroke-opacity: 0.5; stroke-width: 0.8"/>
     </g>
     <g id="line2d_65">
      <g>
       <use xlink:href="#maf3208f874" x="109.485332" y="271.56" style="stroke: #000000; stroke-width: 0.8"/>
      </g>
     </g>
     <g id="text_13">
      <!-- 2004 -->
      <g transform="translate(99.305332 284.63875) scale(0.08 -0.08)">
       <defs>
        <path id="DejaVuSerif-34" d="M 2234 1581 
L 2234 4063 
L 641 1581 
L 2234 1581 
z
M 3609 0 
L 1484 0 
L 1484 331 
L 2234 331 
L 2234 1247 
L 197 1247 
L 197 1588 
L 2241 4750 
L 2859 4750 
L 2859 1581 
L 3750 1581 
L 3750 1247 
L 2859 1247 
L 2859 331 
L 3609 331 
L 3609 0 
z
" transform="scale(0.015625)"/>
       </defs>
       <use xlink:href="#DejaVuSerif-32"/>
       <use xlink:href="#DejaVuSerif-30" transform="translate(63.623047 0)"/>
       <use xlink:href="#DejaVuSerif-30" transform="translate(127.246094 0)"/>
       <use xlink:href="#DejaVuSerif-34" transform="translate(190.869141 0)"/>
      </g>
     </g>
    </g>
    <g id="xtick_24">
     <g id="line2d_66">
      <path d="M 164.888418 271.56 
L 164.888418 219.73291 
" clip-path="url(#p46d0966044)" style="fill: none; stroke-dasharray: 2.96,1.28; stroke-dashoffset: 0; stroke: #b0b0b0; stroke-opacity: 0.5; stroke-width: 0.8"/>
     </g>
     <g id="line2d_67">
      <g>
       <use xlink:href="#maf3208f874" x="164.888418" y="271.56" style="stroke: #000000; stroke-width: 0.8"/>
      </g>
     </g>
     <g id="text_14">
      <!-- 2008 -->
      <g transform="translate(154.708418 284.63875) scale(0.08 -0.08)">
       <defs>
        <path id="DejaVuSerif-38" d="M 2981 1275 
Q 2981 1775 2732 2051 
Q 2484 2328 2034 2328 
Q 1584 2328 1336 2051 
Q 1088 1775 1088 1275 
Q 1088 772 1336 495 
Q 1584 219 2034 219 
Q 2484 219 2732 495 
Q 2981 772 2981 1275 
z
M 2853 3541 
Q 2853 3966 2637 4203 
Q 2422 4441 2034 4441 
Q 1650 4441 1433 4203 
Q 1216 3966 1216 3541 
Q 1216 3113 1433 2875 
Q 1650 2638 2034 2638 
Q 2422 2638 2637 2875 
Q 2853 3113 2853 3541 
z
M 2516 2484 
Q 3047 2413 3344 2092 
Q 3641 1772 3641 1275 
Q 3641 619 3225 264 
Q 2809 -91 2034 -91 
Q 1263 -91 845 264 
Q 428 619 428 1275 
Q 428 1772 725 2092 
Q 1022 2413 1556 2484 
Q 1084 2569 832 2842 
Q 581 3116 581 3541 
Q 581 4103 968 4426 
Q 1356 4750 2034 4750 
Q 2713 4750 3100 4426 
Q 3488 4103 3488 3541 
Q 3488 3116 3236 2842 
Q 2984 2569 2516 2484 
z
" transform="scale(0.015625)"/>
       </defs>
       <use xlink:href="#DejaVuSerif-32"/>
       <use xlink:href="#DejaVuSerif-30" transform="translate(63.623047 0)"/>
       <use xlink:href="#DejaVuSerif-30" transform="translate(127.246094 0)"/>
       <use xlink:href="#DejaVuSerif-38" transform="translate(190.869141 0)"/>
      </g>
     </g>
    </g>
    <g id="xtick_25">
     <g id="line2d_68">
      <path d="M 220.291504 271.56 
L 220.291504 219.73291 
" clip-path="url(#p46d0966044)" style="fill: none; stroke-dasharray: 2.96,1.28; stroke-dashoffset: 0; stroke: #b0b0b0; stroke-opacity: 0.5; stroke-width: 0.8"/>
     </g>
     <g id="line2d_69">
      <g>
       <use xlink:href="#maf3208f874" x="220.291504" y="271.56" style="stroke: #000000; stroke-width: 0.8"/>
      </g>
     </g>
     <g id="text_15">
      <!-- 2012 -->
      <g transform="translate(210.111504 284.63875) scale(0.08 -0.08)">
       <use xlink:href="#DejaVuSerif-32"/>
       <use xlink:href="#DejaVuSerif-30" transform="translate(63.623047 0)"/>
       <use xlink:href="#DejaVuSerif-31" transform="translate(127.246094 0)"/>
       <use xlink:href="#DejaVuSerif-32" transform="translate(190.869141 0)"/>
      </g>
     </g>
    </g>
    <g id="xtick_26">
     <g id="line2d_70">
      <path d="M 275.694589 271.56 
L 275.694589 219.73291 
" clip-path="url(#p46d0966044)" style="fill: none; stroke-dasharray: 2.96,1.28; stroke-dashoffset: 0; stroke: #b0b0b0; stroke-opacity: 0.5; stroke-width: 0.8"/>
     </g>
     <g id="line2d_71">
      <g>
       <use xlink:href="#maf3208f874" x="275.694589" y="271.56" style="stroke: #000000; stroke-width: 0.8"/>
      </g>
     </g>
     <g id="text_16">
      <!-- 2016 -->
      <g transform="translate(265.514589 284.63875) scale(0.08 -0.08)">
       <defs>
        <path id="DejaVuSerif-36" d="M 2094 219 
Q 2534 219 2771 542 
Q 3009 866 3009 1472 
Q 3009 2078 2771 2401 
Q 2534 2725 2094 2725 
Q 1647 2725 1412 2412 
Q 1178 2100 1178 1509 
Q 1178 888 1415 553 
Q 1653 219 2094 219 
z
M 1075 2569 
Q 1288 2803 1556 2918 
Q 1825 3034 2163 3034 
Q 2859 3034 3264 2615 
Q 3669 2197 3669 1472 
Q 3669 763 3233 336 
Q 2797 -91 2069 -91 
Q 1278 -91 853 498 
Q 428 1088 428 2181 
Q 428 3406 931 4078 
Q 1434 4750 2350 4750 
Q 2597 4750 2869 4703 
Q 3141 4656 3425 4563 
L 3425 3794 
L 3072 3794 
Q 3034 4109 2831 4275 
Q 2628 4441 2284 4441 
Q 1678 4441 1381 3981 
Q 1084 3522 1075 2569 
z
" transform="scale(0.015625)"/>
       </defs>
       <use xlink:href="#DejaVuSerif-32"/>
       <use xlink:href="#DejaVuSerif-30" transform="translate(63.623047 0)"/>
       <use xlink:href="#DejaVuSerif-31" transform="translate(127.246094 0)"/>
       <use xlink:href="#DejaVuSerif-36" transform="translate(190.869141 0)"/>
      </g>
     </g>
    </g>
    <g id="xtick_27">
     <g id="line2d_72">
      <path d="M 331.097675 271.56 
L 331.097675 219.73291 
" clip-path="url(#p46d0966044)" style="fill: none; stroke-dasharray: 2.96,1.28; stroke-dashoffset: 0; stroke: #b0b0b0; stroke-opacity: 0.5; stroke-width: 0.8"/>
     </g>
     <g id="line2d_73">
      <g>
       <use xlink:href="#maf3208f874" x="331.097675" y="271.56" style="stroke: #000000; stroke-width: 0.8"/>
      </g>
     </g>
     <g id="text_17">
      <!-- 2020 -->
      <g transform="translate(320.917675 284.63875) scale(0.08 -0.08)">
       <use xlink:href="#DejaVuSerif-32"/>
       <use xlink:href="#DejaVuSerif-30" transform="translate(63.623047 0)"/>
       <use xlink:href="#DejaVuSerif-32" transform="translate(127.246094 0)"/>
       <use xlink:href="#DejaVuSerif-30" transform="translate(190.869141 0)"/>
      </g>
     </g>
    </g>
    <g id="xtick_28">
     <g id="line2d_74">
      <path d="M 386.500761 271.56 
L 386.500761 219.73291 
" clip-path="url(#p46d0966044)" style="fill: none; stroke-dasharray: 2.96,1.28; stroke-dashoffset: 0; stroke: #b0b0b0; stroke-opacity: 0.5; stroke-width: 0.8"/>
     </g>
     <g id="line2d_75">
      <g>
       <use xlink:href="#maf3208f874" x="386.500761" y="271.56" style="stroke: #000000; stroke-width: 0.8"/>
      </g>
     </g>
     <g id="text_18">
      <!-- 2024 -->
      <g transform="translate(376.320761 284.63875) scale(0.08 -0.08)">
       <use xlink:href="#DejaVuSerif-32"/>
       <use xlink:href="#DejaVuSerif-30" transform="translate(63.623047 0)"/>
       <use xlink:href="#DejaVuSerif-32" transform="translate(127.246094 0)"/>
       <use xlink:href="#DejaVuSerif-34" transform="translate(190.869141 0)"/>
      </g>
     </g>
    </g>
    <g id="text_19">
     <!-- Série histórica -->
     <g transform="translate(200.37875 296.38125) scale(0.08 -0.08)">
      <defs>
       <path id="DejaVuSerif-e9" d="M 3469 1600 
L 991 1600 
L 991 1575 
Q 991 903 1244 561 
Q 1497 219 1991 219 
Q 2369 219 2611 417 
Q 2853 616 2950 1006 
L 3413 1006 
Q 3275 459 2904 184 
Q 2534 -91 1931 -91 
Q 1203 -91 761 389 
Q 319 869 319 1663 
Q 319 2450 753 2931 
Q 1188 3413 1894 3413 
Q 2647 3413 3050 2948 
Q 3453 2484 3469 1600 
z
M 2791 1931 
Q 2772 2513 2545 2808 
Q 2319 3103 1894 3103 
Q 1497 3103 1269 2806 
Q 1041 2509 991 1931 
L 2791 1931 
z
M 2330 5119 
L 2952 5119 
L 1890 3944 
L 1524 3944 
L 2330 5119 
z
" transform="scale(0.015625)"/>
       <path id="DejaVuSerif-20" transform="scale(0.015625)"/>
       <path id="DejaVuSerif-68" d="M 263 0 
L 263 331 
L 781 331 
L 781 4531 
L 231 4531 
L 231 4863 
L 1356 4863 
L 1356 2731 
Q 1516 3069 1770 3241 
Q 2025 3413 2363 3413 
Q 2913 3413 3172 3097 
Q 3431 2781 3431 2113 
L 3431 331 
L 3944 331 
L 3944 0 
L 2356 0 
L 2356 331 
L 2853 331 
L 2853 1931 
Q 2853 2541 2704 2764 
Q 2556 2988 2175 2988 
Q 1775 2988 1565 2697 
Q 1356 2406 1356 1850 
L 1356 331 
L 1856 331 
L 1856 0 
L 263 0 
z
" transform="scale(0.015625)"/>
       <path id="DejaVuSerif-74" d="M 691 2988 
L 184 2988 
L 184 3322 
L 691 3322 
L 691 4353 
L 1269 4353 
L 1269 3322 
L 2350 3322 
L 2350 2988 
L 1269 2988 
L 1269 878 
Q 1269 456 1350 337 
Q 1431 219 1650 219 
Q 1875 219 1978 351 
Q 2081 484 2088 781 
L 2522 781 
Q 2497 328 2275 118 
Q 2053 -91 1600 -91 
Q 1103 -91 897 129 
Q 691 350 691 878 
L 691 2988 
z
" transform="scale(0.015625)"/>
       <path id="DejaVuSerif-f3" d="M 1925 219 
Q 2388 219 2623 584 
Q 2859 950 2859 1663 
Q 2859 2375 2623 2739 
Q 2388 3103 1925 3103 
Q 1463 3103 1227 2739 
Q 991 2375 991 1663 
Q 991 950 1228 584 
Q 1466 219 1925 219 
z
M 1925 -91 
Q 1200 -91 759 389 
Q 319 869 319 1663 
Q 319 2456 758 2934 
Q 1197 3413 1925 3413 
Q 2653 3413 3092 2934 
Q 3531 2456 3531 1663 
Q 3531 869 3092 389 
Q 2653 -91 1925 -91 
z
M 2362 5119 
L 2984 5119 
L 1922 3944 
L 1556 3944 
L 2362 5119 
z
" transform="scale(0.015625)"/>
      </defs>
      <use xlink:href="#DejaVuSerif-53"/>
      <use xlink:href="#DejaVuSerif-e9" transform="translate(68.505859 0)"/>
      <use xlink:href="#DejaVuSerif-72" transform="translate(127.685547 0)"/>
      <use xlink:href="#DejaVuSerif-69" transform="translate(175.488281 0)"/>
      <use xlink:href="#DejaVuSerif-65" transform="translate(207.470703 0)"/>
      <use xlink:href="#DejaVuSerif-20" transform="translate(266.650391 0)"/>
      <use xlink:href="#DejaVuSerif-68" transform="translate(298.4375 0)"/>
      <use xlink:href="#DejaVuSerif-69" transform="translate(362.841797 0)"/>
      <use xlink:href="#DejaVuSerif-73" transform="translate(394.824219 0)"/>
      <use xlink:href="#DejaVuSerif-74" transform="translate(446.142578 0)"/>
      <use xlink:href="#DejaVuSerif-f3" transform="translate(486.328125 0)"/>
      <use xlink:href="#DejaVuSerif-72" transform="translate(546.533203 0)"/>
      <use xlink:href="#DejaVuSerif-69" transform="translate(594.335938 0)"/>
      <use xlink:href="#DejaVuSerif-63" transform="translate(626.318359 0)"/>
      <use xlink:href="#DejaVuSerif-61" transform="translate(682.324219 0)"/>
     </g>
    </g>
   </g>
   <g id="matplotlib.axis_8">
    <g id="ytick_9">
     <g id="line2d_76">
      <path d="M 37.73625 250.853509 
L 422.37625 250.853509 
" clip-path="url(#p46d0966044)" style="fill: none; stroke-dasharray: 2.96,1.28; stroke-dashoffset: 0; stroke: #b0b0b0; stroke-opacity: 0.5; stroke-width: 0.8"/>
     </g>
     <g id="line2d_77">
      <g>
       <use xlink:href="#m28e4e423cb" x="37.73625" y="250.853509" style="stroke: #000000; stroke-width: 0.8"/>
      </g>
     </g>
     <g id="text_20">
      <!-- 0 -->
      <g transform="translate(25.64625 253.892884) scale(0.08 -0.08)">
       <use xlink:href="#DejaVuSerif-30"/>
      </g>
     </g>
    </g>
    <g id="ytick_10">
     <g id="line2d_78">
      <path d="M 37.73625 227.883275 
L 422.37625 227.883275 
" clip-path="url(#p46d0966044)" style="fill: none; stroke-dasharray: 2.96,1.28; stroke-dashoffset: 0; stroke: #b0b0b0; stroke-opacity: 0.5; stroke-width: 0.8"/>
     </g>
     <g id="line2d_79">
      <g>
       <use xlink:href="#m28e4e423cb" x="37.73625" y="227.883275" style="stroke: #000000; stroke-width: 0.8"/>
      </g>
     </g>
     <g id="text_21">
      <!-- 1 -->
      <g transform="translate(25.64625 230.92265) scale(0.08 -0.08)">
       <use xlink:href="#DejaVuSerif-31"/>
      </g>
     </g>
    </g>
    <g id="text_22">
     <!-- Resíduo -->
     <g transform="translate(19.9825 261.902705) rotate(-90) scale(0.08 -0.08)">
      <defs>
       <path id="DejaVuSerif-52" d="M 3066 2316 
Q 3284 2256 3442 2114 
Q 3600 1972 3725 1716 
L 4403 331 
L 4972 331 
L 4972 0 
L 3872 0 
L 3144 1484 
Q 2934 1916 2759 2042 
Q 2584 2169 2278 2169 
L 1581 2169 
L 1581 331 
L 2241 331 
L 2241 0 
L 353 0 
L 353 331 
L 947 331 
L 947 4331 
L 353 4331 
L 353 4666 
L 2719 4666 
Q 3400 4666 3770 4341 
Q 4141 4016 4141 3419 
Q 4141 2938 3870 2661 
Q 3600 2384 3066 2316 
z
M 1581 2503 
L 2503 2503 
Q 2975 2503 3200 2726 
Q 3425 2950 3425 3419 
Q 3425 3888 3200 4109 
Q 2975 4331 2503 4331 
L 1581 4331 
L 1581 2503 
z
" transform="scale(0.015625)"/>
       <path id="DejaVuSerif-ed" d="M 1356 331 
L 1900 331 
L 1900 0 
L 231 0 
L 231 331 
L 781 331 
L 781 2988 
L 231 2988 
L 231 3322 
L 1356 3322 
L 1356 331 
z
M 1458 5119 
L 2080 5119 
L 1018 3944 
L 652 3944 
L 1458 5119 
z
" transform="scale(0.015625)"/>
       <path id="DejaVuSerif-75" d="M 2266 3322 
L 3341 3322 
L 3341 331 
L 3884 331 
L 3884 0 
L 2766 0 
L 2766 588 
Q 2606 256 2353 82 
Q 2100 -91 1766 -91 
Q 1213 -91 952 223 
Q 691 538 691 1209 
L 691 2988 
L 172 2988 
L 172 3322 
L 1269 3322 
L 1269 1388 
Q 1269 781 1417 556 
Q 1566 331 1947 331 
Q 2347 331 2556 625 
Q 2766 919 2766 1478 
L 2766 2988 
L 2266 2988 
L 2266 3322 
z
" transform="scale(0.015625)"/>
      </defs>
      <use xlink:href="#DejaVuSerif-52"/>
      <use xlink:href="#DejaVuSerif-65" transform="translate(75.292969 0)"/>
      <use xlink:href="#DejaVuSerif-73" transform="translate(134.472656 0)"/>
      <use xlink:href="#DejaVuSerif-ed" transform="translate(185.791016 0)"/>
      <use xlink:href="#DejaVuSerif-64" transform="translate(217.773438 0)"/>
      <use xlink:href="#DejaVuSerif-75" transform="translate(281.787109 0)"/>
      <use xlink:href="#DejaVuSerif-6f" transform="translate(346.191406 0)"/>
     </g>
    </g>
   </g>
   <g id="line2d_80">
    <path d="M 55.219886 256.271709 
L 56.319605 255.319484 
L 57.495167 251.431314 
L 59.808369 246.182082 
L 60.94601 245.631435 
L 62.121571 248.293245 
L 63.297133 245.871507 
L 64.434773 248.077225 
L 65.610335 253.313907 
L 66.747975 253.542895 
L 67.923537 256.722617 
L 69.099099 256.052842 
L 70.160897 259.591383 
L 71.336458 251.809385 
L 72.474099 246.2574 
L 73.64966 245.817675 
L 74.787301 245.517155 
L 75.962862 243.54373 
L 77.138424 250.323479 
L 78.276064 252.927694 
L 79.451626 259.198166 
L 80.589267 257.669686 
L 81.764828 257.127283 
L 82.94039 245.586776 
L 84.002188 239.683244 
L 85.177749 250.263631 
L 86.31539 254.143848 
L 87.490951 254.56783 
L 88.628592 254.231475 
L 89.804154 254.530785 
L 90.979715 252.14469 
L 92.117356 247.896862 
L 93.292917 237.927685 
L 95.606119 236.773121 
L 97.843479 242.221354 
L 100.156681 254.844358 
L 101.332243 262.058938 
L 102.469883 259.522929 
L 103.645445 262.066335 
L 104.821006 256.331147 
L 105.958647 257.107578 
L 107.134208 250.096931 
L 108.271849 250.646821 
L 109.44741 249.281033 
L 110.622972 249.742588 
L 111.722691 251.58406 
L 112.898253 253.093108 
L 114.035893 253.305319 
L 115.211455 251.156389 
L 116.349095 257.987153 
L 117.524657 248.324833 
L 118.700219 251.102549 
L 119.837859 246.554011 
L 121.013421 247.200574 
L 122.151061 250.789404 
L 123.326623 246.014653 
L 124.502185 243.972288 
L 125.563982 245.137924 
L 126.739544 242.030065 
L 127.877184 249.343448 
L 129.052746 248.024349 
L 130.190387 248.673182 
L 131.365948 251.788012 
L 132.54151 254.352398 
L 133.67915 254.303057 
L 134.854712 253.478893 
L 135.992352 257.167592 
L 138.343476 263.154507 
L 139.405273 259.561718 
L 140.580835 256.238291 
L 141.718476 251.344256 
L 142.894037 250.803258 
L 144.031678 248.940144 
L 145.207239 252.69042 
L 146.382801 250.28236 
L 147.520441 246.745071 
L 148.696003 247.295553 
L 149.833643 236.488679 
L 151.009205 231.807122 
L 152.184767 239.986296 
L 153.246565 244.205188 
L 154.422126 250.406172 
L 155.559767 252.540566 
L 156.735328 250.744946 
L 157.872969 247.184327 
L 159.04853 246.769818 
L 160.224092 247.047046 
L 161.361733 252.020338 
L 162.537294 258.115628 
L 163.674935 264.902841 
L 164.850496 261.047082 
L 166.026058 264.543584 
L 167.125777 265.193694 
L 169.438979 251.464093 
L 170.614541 251.430523 
L 171.752181 250.25091 
L 172.927743 244.267339 
L 174.103305 242.461449 
L 175.240945 243.89088 
L 176.416507 244.757517 
L 177.554147 250.679736 
L 178.729709 262.300591 
L 179.905271 261.008201 
L 180.967068 257.571797 
L 182.14263 256.675844 
L 183.28027 254.825128 
L 184.455832 250.310632 
L 185.593472 250.727767 
L 186.769034 254.364686 
L 187.944596 254.493603 
L 189.082236 254.775359 
L 190.257798 243.399804 
L 191.395438 235.249747 
L 192.571 229.189821 
L 193.746562 222.088687 
L 195.983921 233.085879 
L 197.121561 241.314987 
L 198.297123 252.051682 
L 199.434763 256.931039 
L 200.610325 261.424734 
L 201.785887 269.204223 
L 202.923527 269.111138 
L 204.099089 268.780162 
L 205.236729 265.828439 
L 207.587853 258.330315 
L 208.64965 252.367393 
L 209.825212 247.346325 
L 210.962853 246.74927 
L 212.138414 243.901833 
L 213.276055 242.294791 
L 214.451616 241.941411 
L 215.627178 247.440965 
L 216.764818 247.186105 
L 217.94038 250.976645 
L 219.07802 256.397948 
L 220.253582 260.465281 
L 221.429144 260.625711 
L 222.528863 259.280417 
L 223.704425 256.107565 
L 224.842065 251.944591 
L 226.017627 255.141456 
L 227.155267 251.403403 
L 228.330829 247.084506 
L 229.50639 236.765687 
L 230.644031 238.635417 
L 231.819593 238.890248 
L 232.957233 245.882541 
L 234.132795 247.078108 
L 235.308356 250.714425 
L 236.370154 253.53876 
L 237.545716 258.016554 
L 238.683356 256.480299 
L 239.858918 254.295848 
L 240.996558 253.345586 
L 242.17212 250.357909 
L 243.347682 250.627138 
L 244.485322 250.515339 
L 245.660884 253.041628 
L 246.798524 250.087342 
L 247.974086 252.19397 
L 249.149647 256.537205 
L 250.211445 251.965134 
L 251.387007 248.675476 
L 252.524647 249.855671 
L 253.700209 242.800975 
L 254.837849 251.318645 
L 256.013411 258.10729 
L 257.188973 255.82183 
L 258.326613 252.314255 
L 259.502175 252.769272 
L 260.639815 250.665537 
L 261.815377 250.092772 
L 262.990939 248.40223 
L 265.228298 252.401694 
L 266.365938 249.122939 
L 267.5415 255.220063 
L 268.67914 255.858088 
L 269.854702 253.876593 
L 271.030264 248.358965 
L 272.167904 246.936168 
L 273.343466 244.762419 
L 274.481106 234.221969 
L 275.656668 235.429857 
L 276.83223 238.352116 
L 277.931949 239.963612 
L 279.10751 242.486324 
L 280.245151 251.990571 
L 281.420713 254.148715 
L 282.558353 253.679133 
L 283.733915 254.48787 
L 284.909476 258.190608 
L 286.047117 259.898746 
L 287.222678 262.530086 
L 288.360319 262.959948 
L 289.53588 257.000242 
L 290.711442 254.971048 
L 291.77324 257.476407 
L 292.948802 253.216428 
L 294.086442 249.551131 
L 295.262004 245.320938 
L 296.399644 239.180461 
L 297.575206 238.696965 
L 298.750767 243.660204 
L 299.888408 246.923805 
L 301.06397 251.449477 
L 303.377172 261.925863 
L 304.552733 257.491921 
L 305.614531 256.90736 
L 306.790093 259.333725 
L 307.927733 254.436826 
L 309.103295 253.134928 
L 310.240935 254.912217 
L 311.416497 255.406693 
L 312.592059 249.808327 
L 313.729699 246.957345 
L 314.905261 240.093881 
L 316.042901 243.832356 
L 317.218463 242.790323 
L 318.394024 248.785252 
L 319.455822 245.943409 
L 320.631384 247.64131 
L 321.769024 254.699315 
L 322.944586 250.911525 
L 324.082226 252.64826 
L 325.257788 252.742503 
L 326.43335 258.221454 
L 327.57099 255.899278 
L 328.746552 246.25215 
L 329.884192 247.84067 
L 331.059754 243.421261 
L 332.235316 240.140406 
L 333.335035 240.707304 
L 334.510596 244.21457 
L 335.648237 246.985521 
L 336.823798 253.470413 
L 337.961439 253.111418 
L 339.137 248.824047 
L 340.312562 252.943829 
L 341.450203 254.434589 
L 342.625764 262.388967 
L 343.763405 260.406023 
L 344.938966 260.619419 
L 346.114528 263.321343 
L 347.176326 260.738802 
L 348.351887 248.805293 
L 349.489528 243.901173 
L 350.66509 242.183902 
L 351.80273 243.933944 
L 352.978292 244.12286 
L 354.153853 245.223634 
L 355.291494 248.299899 
L 356.467055 252.812205 
L 357.604696 253.622081 
L 358.780257 255.591019 
L 359.955819 243.824804 
L 361.017617 245.03604 
L 362.193179 257.031029 
L 363.330819 256.267567 
L 364.506381 252.807788 
L 365.644021 250.472323 
L 366.819583 254.063191 
L 367.995144 255.973886 
L 369.132785 254.075736 
L 370.308346 256.992221 
L 371.445987 258.386579 
L 372.621549 256.224074 
L 373.79711 257.479198 
L 374.858908 257.678094 
L 376.03447 254.028838 
L 377.17211 252.657182 
L 378.347672 252.117684 
L 379.485312 252.02491 
L 380.660874 250.654978 
L 381.836436 246.706917 
L 382.974076 241.522153 
L 384.149638 236.883346 
L 385.287278 234.610653 
L 386.46284 230.720926 
L 387.638401 237.037337 
L 389.913682 251.864597 
L 391.051323 255.911497 
L 392.226884 250.141947 
L 393.364525 250.558255 
L 394.540086 250.509375 
L 395.715648 249.775821 
L 396.853288 253.984248 
L 398.02885 252.95753 
L 399.16649 253.522379 
L 400.342052 258.043151 
L 401.517614 257.181804 
L 403.754973 244.061074 
L 404.892614 242.58016 
L 404.892614 242.58016 
" clip-path="url(#p46d0966044)" style="fill: none; stroke: #47a730; stroke-width: 0.5; stroke-linecap: square"/>
   </g>
   <g id="patch_12">
    <path d="M 37.73625 271.56 
L 37.73625 219.73291 
" style="fill: none; stroke: #000000; stroke-width: 0.8; stroke-linejoin: miter; stroke-linecap: square"/>
   </g>
   <g id="patch_13">
    <path d="M 37.73625 271.56 
L 422.37625 271.56 
" style="fill: none; stroke: #000000; stroke-width: 0.8; stroke-linejoin: miter; stroke-linecap: square"/>
   </g>
  </g>
  <g id="legend_1">
   <g id="line2d_81">
    <path d="M 60.429375 13.67875 
L 68.429375 13.67875 
L 76.429375 13.67875 
" style="fill: none; stroke: #4596f3; stroke-width: 0.5; stroke-linecap: square"/>
   </g>
   <g id="text_23">
    <!-- Observado -->
    <g transform="translate(82.829375 16.47875) scale(0.08 -0.08)">
     <use xlink:href="#DejaVuSerif-4f"/>
     <use xlink:href="#DejaVuSerif-62" transform="translate(81.982422 0)"/>
     <use xlink:href="#DejaVuSerif-73" transform="translate(145.996094 0)"/>
     <use xlink:href="#DejaVuSerif-65" transform="translate(197.314453 0)"/>
     <use xlink:href="#DejaVuSerif-72" transform="translate(256.494141 0)"/>
     <use xlink:href="#DejaVuSerif-76" transform="translate(304.296875 0)"/>
     <use xlink:href="#DejaVuSerif-61" transform="translate(360.791016 0)"/>
     <use xlink:href="#DejaVuSerif-64" transform="translate(420.410156 0)"/>
     <use xlink:href="#DejaVuSerif-6f" transform="translate(484.423828 0)"/>
    </g>
   </g>
   <g id="line2d_82">
    <path d="M 142.400625 13.67875 
L 150.400625 13.67875 
L 158.400625 13.67875 
" style="fill: none; stroke: #ff5656; stroke-width: 0.5; stroke-linecap: square"/>
   </g>
   <g id="text_24">
    <!-- Tendência -->
    <g transform="translate(164.800625 16.47875) scale(0.08 -0.08)">
     <use xlink:href="#DejaVuSerif-54"/>
     <use xlink:href="#DejaVuSerif-65" transform="translate(58.949219 0)"/>
     <use xlink:href="#DejaVuSerif-6e" transform="translate(118.128906 0)"/>
     <use xlink:href="#DejaVuSerif-64" transform="translate(182.533203 0)"/>
     <use xlink:href="#DejaVuSerif-ea" transform="translate(246.546875 0)"/>
     <use xlink:href="#DejaVuSerif-6e" transform="translate(305.726562 0)"/>
     <use xlink:href="#DejaVuSerif-63" transform="translate(370.130859 0)"/>
     <use xlink:href="#DejaVuSerif-69" transform="translate(426.136719 0)"/>
     <use xlink:href="#DejaVuSerif-61" transform="translate(458.119141 0)"/>
    </g>
   </g>
   <g id="line2d_83">
    <path d="M 222.221875 13.67875 
L 230.221875 13.67875 
L 238.221875 13.67875 
" style="fill: none; stroke: #ffa722; stroke-width: 0.5; stroke-linecap: square"/>
   </g>
   <g id="text_25">
    <!-- Sazonalidade -->
    <g transform="translate(244.621875 16.47875) scale(0.08 -0.08)">
     <use xlink:href="#DejaVuSerif-53"/>
     <use xlink:href="#DejaVuSerif-61" transform="translate(68.505859 0)"/>
     <use xlink:href="#DejaVuSerif-7a" transform="translate(128.125 0)"/>
     <use xlink:href="#DejaVuSerif-6f" transform="translate(180.810547 0)"/>
     <use xlink:href="#DejaVuSerif-6e" transform="translate(241.015625 0)"/>
     <use xlink:href="#DejaVuSerif-61" transform="translate(305.419922 0)"/>
     <use xlink:href="#DejaVuSerif-6c" transform="translate(365.039062 0)"/>
     <use xlink:href="#DejaVuSerif-69" transform="translate(397.021484 0)"/>
     <use xlink:href="#DejaVuSerif-64" transform="translate(429.003906 0)"/>
     <use xlink:href="#DejaVuSerif-61" transform="translate(493.017578 0)"/>
     <use xlink:href="#DejaVuSerif-64" transform="translate(552.636719 0)"/>
     <use xlink:href="#DejaVuSerif-65" transform="translate(616.650391 0)"/>
    </g>
   </g>
   <g id="line2d_84">
    <path d="M 314.690625 13.67875 
L 322.690625 13.67875 
L 330.690625 13.67875 
" style="fill: none; stroke: #47a730; stroke-width: 0.5; stroke-linecap: square"/>
   </g>
   <g id="text_26">
    <!-- Resíduo -->
    <g transform="translate(337.090625 16.47875) scale(0.08 -0.08)">
     <use xlink:href="#DejaVuSerif-52"/>
     <use xlink:href="#DejaVuSerif-65" transform="translate(75.292969 0)"/>
     <use xlink:href="#DejaVuSerif-73" transform="translate(134.472656 0)"/>
     <use xlink:href="#DejaVuSerif-ed" transform="translate(185.791016 0)"/>
     <use xlink:href="#DejaVuSerif-64" transform="translate(217.773438 0)"/>
     <use xlink:href="#DejaVuSerif-75" transform="translate(281.787109 0)"/>
     <use xlink:href="#DejaVuSerif-6f" transform="translate(346.191406 0)"/>
    </g>
   </g>
  </g>
 </g>
 <defs>
  <clipPath id="p9ed9541ec6">
   <rect x="37.73625" y="26.24" width="384.64" height="51.82709"/>
  </clipPath>
  <clipPath id="pef9fb099e7">
   <rect x="37.73625" y="90.737637" width="384.64" height="51.82709"/>
  </clipPath>
  <clipPath id="p9ba99065da">
   <rect x="37.73625" y="155.235273" width="384.64" height="51.82709"/>
  </clipPath>
  <clipPath id="p46d0966044">
   <rect x="37.73625" y="219.73291" width="384.64" height="51.82709"/>
  </clipPath>
 </defs>
</svg>
