<?xml version="1.0" encoding="utf-8" standalone="no"?>
<!DOCTYPE svg PUBLIC "-//W3C//DTD SVG 1.1//EN"
  "http://www.w3.org/Graphics/SVG/1.1/DTD/svg11.dtd">
<svg xmlns:xlink="http://www.w3.org/1999/xlink" width="429.01625pt" height="305.245pt" viewBox="0 0 429.01625 305.245" xmlns="http://www.w3.org/2000/svg" version="1.1">
 <metadata>
  <rdf:RDF xmlns:dc="http://purl.org/dc/elements/1.1/" xmlns:cc="http://creativecommons.org/ns#" xmlns:rdf="http://www.w3.org/1999/02/22-rdf-syntax-ns#">
   <cc:Work>
    <dc:type rdf:resource="http://purl.org/dc/dcmitype/StillImage"/>
    <dc:date>2025-06-30T04:35:45.098361</dc:date>
    <dc:format>image/svg+xml</dc:format>
    <dc:creator>
     <cc:Agent>
      <dc:title>Matplotlib v3.10.3, https://matplotlib.org/</dc:title>
     </cc:Agent>
    </dc:creator>
   </cc:Work>
  </rdf:RDF>
 </metadata>
 <defs>
  <style type="text/css">*{stroke-linejoin: round; stroke-linecap: butt}</style>
 </defs>
 <g id="figure_1">
  <g id="patch_1">
   <path d="M 0 305.245 
L 429.01625 305.245 
L 429.01625 0 
L 0 0 
z
" style="fill: #ffffff"/>
  </g>
  <g id="axes_1">
   <g id="patch_2">
    <path d="M 33.62625 78.465 
L 421.81625 78.465 
L 421.81625 26.24 
L 33.62625 26.24 
z
" style="fill: #ffffff"/>
   </g>
   <g id="matplotlib.axis_1">
    <g id="xtick_1">
     <g id="line2d_1">
      <path d="M 50.130655 78.465 
L 50.130655 26.24 
" clip-path="url(#pfa21ff36d1)" style="fill: none; stroke-dasharray: 2.96,1.28; stroke-dashoffset: 0; stroke: #b0b0b0; stroke-opacity: 0.5; stroke-width: 0.8"/>
     </g>
     <g id="line2d_2">
      <defs>
       <path id="m39f51333b9" d="M 0 0 
L 0 3.5 
" style="stroke: #000000; stroke-width: 0.8"/>
      </defs>
      <g>
       <use xlink:href="#m39f51333b9" x="50.130655" y="78.465" style="stroke: #000000; stroke-width: 0.8"/>
      </g>
     </g>
    </g>
    <g id="xtick_2">
     <g id="line2d_3">
      <path d="M 105.677617 78.465 
L 105.677617 26.24 
" clip-path="url(#pfa21ff36d1)" style="fill: none; stroke-dasharray: 2.96,1.28; stroke-dashoffset: 0; stroke: #b0b0b0; stroke-opacity: 0.5; stroke-width: 0.8"/>
     </g>
     <g id="line2d_4">
      <g>
       <use xlink:href="#m39f51333b9" x="105.677617" y="78.465" style="stroke: #000000; stroke-width: 0.8"/>
      </g>
     </g>
    </g>
    <g id="xtick_3">
     <g id="line2d_5">
      <path d="M 161.224579 78.465 
L 161.224579 26.24 
" clip-path="url(#pfa21ff36d1)" style="fill: none; stroke-dasharray: 2.96,1.28; stroke-dashoffset: 0; stroke: #b0b0b0; stroke-opacity: 0.5; stroke-width: 0.8"/>
     </g>
     <g id="line2d_6">
      <g>
       <use xlink:href="#m39f51333b9" x="161.224579" y="78.465" style="stroke: #000000; stroke-width: 0.8"/>
      </g>
     </g>
    </g>
    <g id="xtick_4">
     <g id="line2d_7">
      <path d="M 216.771541 78.465 
L 216.771541 26.24 
" clip-path="url(#pfa21ff36d1)" style="fill: none; stroke-dasharray: 2.96,1.28; stroke-dashoffset: 0; stroke: #b0b0b0; stroke-opacity: 0.5; stroke-width: 0.8"/>
     </g>
     <g id="line2d_8">
      <g>
       <use xlink:href="#m39f51333b9" x="216.771541" y="78.465" style="stroke: #000000; stroke-width: 0.8"/>
      </g>
     </g>
    </g>
    <g id="xtick_5">
     <g id="line2d_9">
      <path d="M 272.318503 78.465 
L 272.318503 26.24 
" clip-path="url(#pfa21ff36d1)" style="fill: none; stroke-dasharray: 2.96,1.28; stroke-dashoffset: 0; stroke: #b0b0b0; stroke-opacity: 0.5; stroke-width: 0.8"/>
     </g>
     <g id="line2d_10">
      <g>
       <use xlink:href="#m39f51333b9" x="272.318503" y="78.465" style="stroke: #000000; stroke-width: 0.8"/>
      </g>
     </g>
    </g>
    <g id="xtick_6">
     <g id="line2d_11">
      <path d="M 327.865465 78.465 
L 327.865465 26.24 
" clip-path="url(#pfa21ff36d1)" style="fill: none; stroke-dasharray: 2.96,1.28; stroke-dashoffset: 0; stroke: #b0b0b0; stroke-opacity: 0.5; stroke-width: 0.8"/>
     </g>
     <g id="line2d_12">
      <g>
       <use xlink:href="#m39f51333b9" x="327.865465" y="78.465" style="stroke: #000000; stroke-width: 0.8"/>
      </g>
     </g>
    </g>
    <g id="xtick_7">
     <g id="line2d_13">
      <path d="M 383.412426 78.465 
L 383.412426 26.24 
" clip-path="url(#pfa21ff36d1)" style="fill: none; stroke-dasharray: 2.96,1.28; stroke-dashoffset: 0; stroke: #b0b0b0; stroke-opacity: 0.5; stroke-width: 0.8"/>
     </g>
     <g id="line2d_14">
      <g>
       <use xlink:href="#m39f51333b9" x="383.412426" y="78.465" style="stroke: #000000; stroke-width: 0.8"/>
      </g>
     </g>
    </g>
   </g>
   <g id="matplotlib.axis_2">
    <g id="ytick_1">
     <g id="line2d_15">
      <path d="M 33.62625 60.80411 
L 421.81625 60.80411 
" clip-path="url(#pfa21ff36d1)" style="fill: none; stroke-dasharray: 2.96,1.28; stroke-dashoffset: 0; stroke: #b0b0b0; stroke-opacity: 0.5; stroke-width: 0.8"/>
     </g>
     <g id="line2d_16">
      <defs>
       <path id="m5b12c7c82e" d="M 0 0 
L -3.5 0 
" style="stroke: #000000; stroke-width: 0.8"/>
      </defs>
      <g>
       <use xlink:href="#m5b12c7c82e" x="33.62625" y="60.80411" style="stroke: #000000; stroke-width: 0.8"/>
      </g>
     </g>
     <g id="text_1">
      <!-- 0 -->
      <g transform="translate(21.53625 63.843485) scale(0.08 -0.08)">
       <defs>
        <path id="DejaVuSerif-30" d="M 2034 219 
Q 2513 219 2750 744 
Q 2988 1269 2988 2328 
Q 2988 3391 2750 3916 
Q 2513 4441 2034 4441 
Q 1556 4441 1318 3916 
Q 1081 3391 1081 2328 
Q 1081 1269 1318 744 
Q 1556 219 2034 219 
z
M 2034 -91 
Q 1275 -91 848 546 
Q 422 1184 422 2328 
Q 422 3475 848 4112 
Q 1275 4750 2034 4750 
Q 2797 4750 3222 4112 
Q 3647 3475 3647 2328 
Q 3647 1184 3222 546 
Q 2797 -91 2034 -91 
z
" transform="scale(0.015625)"/>
       </defs>
       <use xlink:href="#DejaVuSerif-30"/>
      </g>
     </g>
    </g>
    <g id="ytick_2">
     <g id="line2d_17">
      <path d="M 33.62625 36.878466 
L 421.81625 36.878466 
" clip-path="url(#pfa21ff36d1)" style="fill: none; stroke-dasharray: 2.96,1.28; stroke-dashoffset: 0; stroke: #b0b0b0; stroke-opacity: 0.5; stroke-width: 0.8"/>
     </g>
     <g id="line2d_18">
      <g>
       <use xlink:href="#m5b12c7c82e" x="33.62625" y="36.878466" style="stroke: #000000; stroke-width: 0.8"/>
      </g>
     </g>
     <g id="text_2">
      <!-- 2 -->
      <g transform="translate(21.53625 39.917841) scale(0.08 -0.08)">
       <defs>
        <path id="DejaVuSerif-32" d="M 819 3553 
L 469 3553 
L 469 4384 
Q 803 4563 1142 4656 
Q 1481 4750 1806 4750 
Q 2534 4750 2956 4397 
Q 3378 4044 3378 3438 
Q 3378 2753 2422 1800 
Q 2347 1728 2309 1691 
L 1131 513 
L 3078 513 
L 3078 1088 
L 3444 1088 
L 3444 0 
L 434 0 
L 434 341 
L 1850 1753 
Q 2319 2222 2519 2614 
Q 2719 3006 2719 3438 
Q 2719 3909 2473 4175 
Q 2228 4441 1797 4441 
Q 1350 4441 1106 4219 
Q 863 3997 819 3553 
z
" transform="scale(0.015625)"/>
       </defs>
       <use xlink:href="#DejaVuSerif-32"/>
      </g>
     </g>
    </g>
   </g>
   <g id="line2d_19">
    <path d="M 51.27125 73.898647 
L 52.373825 73.539424 
L 54.693034 75.376686 
L 55.871649 75.911232 
L 57.012243 75.401933 
L 58.190858 75.847908 
L 59.369472 73.214275 
L 60.510067 73.870714 
L 61.688682 75.176447 
L 62.829276 71.675018 
L 64.007891 70.458978 
L 65.186505 71.356213 
L 66.25106 70.084123 
L 67.429675 69.439069 
L 68.57027 71.044052 
L 69.748884 70.702429 
L 70.889479 69.512524 
L 72.068093 69.414083 
L 73.246708 68.354383 
L 74.387303 68.133715 
L 75.565917 68.756651 
L 76.706512 68.818799 
L 77.885126 67.984079 
L 79.063741 68.29319 
L 80.128296 69.069944 
L 81.30691 71.179395 
L 82.447505 69.54261 
L 83.62612 68.969825 
L 84.766714 69.551384 
L 87.123943 71.399711 
L 88.264538 70.371553 
L 89.443153 71.014937 
L 90.583747 72.26386 
L 92.940976 72.068497 
L 94.005531 71.554408 
L 95.184146 72.159255 
L 96.324741 73.524291 
L 97.503355 72.90144 
L 98.64395 70.132629 
L 99.822564 70.328274 
L 101.001179 71.524911 
L 102.141774 72.460741 
L 103.320388 71.746233 
L 104.460983 68.748946 
L 105.639597 68.289057 
L 106.818212 67.237175 
L 109.099401 71.347226 
L 110.239996 69.526987 
L 111.41861 71.512163 
L 112.559205 70.073561 
L 113.73782 71.242493 
L 114.916434 69.982372 
L 116.057029 67.148647 
L 117.235643 67.878312 
L 118.376238 68.992397 
L 119.554853 72.369002 
L 120.733467 72.476736 
L 121.798022 73.193865 
L 122.976637 73.1779 
L 124.117231 70.427282 
L 125.295846 69.979476 
L 127.615055 70.589506 
L 128.79367 69.390919 
L 129.934264 69.677214 
L 131.112879 68.911076 
L 132.253474 68.694001 
L 133.432088 71.923143 
L 134.610703 72.371514 
L 135.675258 69.061559 
L 136.853872 68.336947 
L 137.994467 71.064177 
L 139.173082 70.473728 
L 140.313676 71.079192 
L 141.492291 68.768094 
L 142.670905 68.668519 
L 143.8115 67.265547 
L 144.990114 67.285534 
L 146.130709 70.030394 
L 147.309324 68.910917 
L 148.487938 72.297286 
L 149.552493 74.079981 
L 150.731108 74.246877 
L 151.871702 74.582857 
L 153.050317 74.088989 
L 154.190912 72.71481 
L 156.548141 69.582042 
L 157.688735 68.445424 
L 158.86735 68.274174 
L 160.007945 66.774306 
L 161.186559 65.882529 
L 162.365174 62.55608 
L 163.467749 60.620993 
L 165.786958 65.142017 
L 166.965572 67.648892 
L 168.106167 66.763722 
L 169.284782 65.344808 
L 170.463396 64.981068 
L 171.603991 65.271969 
L 172.782605 64.352541 
L 173.9232 66.816861 
L 175.101815 64.490738 
L 176.280429 70.279245 
L 177.344984 72.217826 
L 178.523599 70.904756 
L 179.664193 73.028779 
L 180.842808 68.02716 
L 181.983403 67.710677 
L 183.162017 71.075799 
L 184.340632 76.091136 
L 185.481226 73.5383 
L 186.659841 73.553286 
L 188.97905 72.608826 
L 190.157665 71.870431 
L 191.22222 70.369959 
L 192.400834 70.487602 
L 193.541429 71.687896 
L 194.720043 68.316324 
L 195.860638 62.813558 
L 197.039253 64.829145 
L 198.217867 58.658197 
L 199.358462 53.895843 
L 200.537076 58.069104 
L 201.677671 59.275466 
L 202.856286 62.876014 
L 204.0349 69.67593 
L 205.099455 69.272963 
L 207.418664 72.197607 
L 208.597279 69.433091 
L 209.737874 66.106422 
L 210.916488 66.582308 
L 212.095103 67.994685 
L 213.235697 68.504995 
L 214.414312 66.683273 
L 215.554907 65.28207 
L 216.733521 65.649485 
L 217.912136 69.257353 
L 219.01471 68.440797 
L 220.193325 69.015295 
L 221.33392 59.011617 
L 222.512534 59.553618 
L 223.653129 67.814181 
L 224.831743 69.666098 
L 226.010358 64.323465 
L 227.150953 53.982534 
L 229.470162 41.764086 
L 231.827391 47.131409 
L 232.891946 47.235408 
L 234.07056 49.792239 
L 235.211155 51.701171 
L 237.530364 48.223522 
L 238.708979 53.498077 
L 239.887593 52.196951 
L 241.028188 51.587386 
L 242.206803 51.186708 
L 243.347397 48.37426 
L 244.526012 51.795257 
L 245.704626 47.059442 
L 246.769181 40.419758 
L 247.947796 38.271643 
L 249.088391 41.864238 
L 250.267005 34.474596 
L 251.4076 37.681466 
L 252.586214 37.952231 
L 253.764829 34.82148 
L 254.905424 35.089514 
L 256.084038 32.974834 
L 257.224633 31.711529 
L 258.403247 31.302033 
L 259.581862 32.492018 
L 260.646417 32.088525 
L 261.825032 31.184222 
L 262.965626 36.311775 
L 264.144241 40.346996 
L 265.284835 37.658246 
L 266.46345 41.997872 
L 267.642064 41.773855 
L 268.782659 38.824012 
L 269.961274 42.477724 
L 271.101868 39.581217 
L 272.280483 40.968919 
L 273.459097 43.575396 
L 275.740287 52.940419 
L 276.880882 52.24457 
L 278.059496 56.006697 
L 279.200091 54.325786 
L 280.378705 57.285291 
L 281.55732 52.036605 
L 282.697915 49.805377 
L 283.876529 48.423079 
L 285.017124 49.265013 
L 286.195738 56.796982 
L 287.374353 56.317082 
L 288.438908 57.451398 
L 289.617522 52.664194 
L 290.758117 50.183667 
L 291.936732 50.630639 
L 293.077326 56.323759 
L 294.255941 48.406622 
L 295.434555 39.109137 
L 296.57515 40.725116 
L 297.753765 37.213859 
L 298.894359 39.970835 
L 301.251588 54.18891 
L 302.316143 57.47936 
L 303.494758 56.573106 
L 304.635353 59.104615 
L 305.813967 57.776198 
L 306.954562 49.533835 
L 308.133176 46.259447 
L 309.311791 44.683529 
L 310.452386 42.610245 
L 311.631 51.425793 
L 312.771595 65.310457 
L 313.950209 64.656477 
L 315.128824 61.919962 
L 316.193379 50.966625 
L 317.371993 58.096277 
L 319.691203 64.6899 
L 320.831797 62.498015 
L 322.010412 51.773839 
L 323.189026 46.739658 
L 324.329621 46.370344 
L 325.508236 44.590496 
L 326.64883 43.634086 
L 327.827445 48.928454 
L 329.006059 45.29113 
L 330.108634 57.556449 
L 331.287249 62.110127 
L 332.427843 65.234536 
L 333.606458 64.706211 
L 334.747053 63.794918 
L 335.925667 67.873219 
L 337.104282 65.70149 
L 338.244876 64.377254 
L 339.423491 45.659778 
L 340.564086 39.568028 
L 341.7427 40.227942 
L 342.921315 40.210256 
L 343.98587 50.524617 
L 345.164484 53.492492 
L 346.305079 54.03347 
L 347.483693 53.064774 
L 348.624288 40.912788 
L 349.802903 37.558446 
L 350.981517 31.712695 
L 352.122112 31.925428 
L 353.300726 28.613864 
L 354.441321 33.083491 
L 355.619936 43.321387 
L 356.79855 50.164435 
L 357.863105 58.166173 
L 359.04172 62.053908 
L 360.182314 68.79106 
L 361.360929 68.399702 
L 362.501524 67.550991 
L 363.680138 69.278135 
L 364.858753 66.30217 
L 365.999347 66.156367 
L 367.177962 64.709559 
L 368.318557 67.748978 
L 369.497171 65.97876 
L 370.675786 66.232014 
L 371.740341 68.909125 
L 372.918955 68.083851 
L 374.05955 66.006058 
L 375.238164 67.991966 
L 376.378759 62.499467 
L 377.557374 65.067898 
L 378.735988 65.575939 
L 379.876583 67.430438 
L 381.055197 70.553745 
L 382.195792 64.088104 
L 383.374407 61.112897 
L 384.553021 61.637009 
L 385.655596 64.557546 
L 386.834211 66.524887 
L 387.974805 68.041813 
L 389.15342 69.172179 
L 390.294014 66.680685 
L 391.472629 61.715944 
L 392.651244 57.553746 
L 393.791838 49.60102 
L 394.970453 45.888518 
L 396.111047 59.61318 
L 397.289662 62.89052 
L 398.468277 64.926768 
L 399.532832 65.207951 
L 400.711446 66.704949 
L 401.852041 66.33389 
L 403.030655 67.949121 
L 404.17125 63.149232 
L 404.17125 63.149232 
" clip-path="url(#pfa21ff36d1)" style="fill: none; stroke: #4596f3; stroke-width: 0.5; stroke-linecap: square"/>
   </g>
   <g id="patch_3">
    <path d="M 33.62625 78.465 
L 33.62625 26.24 
" style="fill: none; stroke: #000000; stroke-width: 0.8; stroke-linejoin: miter; stroke-linecap: square"/>
   </g>
   <g id="patch_4">
    <path d="M 33.62625 78.465 
L 421.81625 78.465 
" style="fill: none; stroke: #000000; stroke-width: 0.8; stroke-linejoin: miter; stroke-linecap: square"/>
   </g>
  </g>
  <g id="axes_2">
   <g id="patch_5">
    <path d="M 33.62625 142.83 
L 421.81625 142.83 
L 421.81625 90.605 
L 33.62625 90.605 
z
" style="fill: #ffffff"/>
   </g>
   <g id="matplotlib.axis_3">
    <g id="xtick_8">
     <g id="line2d_20">
      <path d="M 50.130655 142.83 
L 50.130655 90.605 
" clip-path="url(#pdfaeea1d3a)" style="fill: none; stroke-dasharray: 2.96,1.28; stroke-dashoffset: 0; stroke: #b0b0b0; stroke-opacity: 0.5; stroke-width: 0.8"/>
     </g>
     <g id="line2d_21">
      <g>
       <use xlink:href="#m39f51333b9" x="50.130655" y="142.83" style="stroke: #000000; stroke-width: 0.8"/>
      </g>
     </g>
    </g>
    <g id="xtick_9">
     <g id="line2d_22">
      <path d="M 105.677617 142.83 
L 105.677617 90.605 
" clip-path="url(#pdfaeea1d3a)" style="fill: none; stroke-dasharray: 2.96,1.28; stroke-dashoffset: 0; stroke: #b0b0b0; stroke-opacity: 0.5; stroke-width: 0.8"/>
     </g>
     <g id="line2d_23">
      <g>
       <use xlink:href="#m39f51333b9" x="105.677617" y="142.83" style="stroke: #000000; stroke-width: 0.8"/>
      </g>
     </g>
    </g>
    <g id="xtick_10">
     <g id="line2d_24">
      <path d="M 161.224579 142.83 
L 161.224579 90.605 
" clip-path="url(#pdfaeea1d3a)" style="fill: none; stroke-dasharray: 2.96,1.28; stroke-dashoffset: 0; stroke: #b0b0b0; stroke-opacity: 0.5; stroke-width: 0.8"/>
     </g>
     <g id="line2d_25">
      <g>
       <use xlink:href="#m39f51333b9" x="161.224579" y="142.83" style="stroke: #000000; stroke-width: 0.8"/>
      </g>
     </g>
    </g>
    <g id="xtick_11">
     <g id="line2d_26">
      <path d="M 216.771541 142.83 
L 216.771541 90.605 
" clip-path="url(#pdfaeea1d3a)" style="fill: none; stroke-dasharray: 2.96,1.28; stroke-dashoffset: 0; stroke: #b0b0b0; stroke-opacity: 0.5; stroke-width: 0.8"/>
     </g>
     <g id="line2d_27">
      <g>
       <use xlink:href="#m39f51333b9" x="216.771541" y="142.83" style="stroke: #000000; stroke-width: 0.8"/>
      </g>
     </g>
    </g>
    <g id="xtick_12">
     <g id="line2d_28">
      <path d="M 272.318503 142.83 
L 272.318503 90.605 
" clip-path="url(#pdfaeea1d3a)" style="fill: none; stroke-dasharray: 2.96,1.28; stroke-dashoffset: 0; stroke: #b0b0b0; stroke-opacity: 0.5; stroke-width: 0.8"/>
     </g>
     <g id="line2d_29">
      <g>
       <use xlink:href="#m39f51333b9" x="272.318503" y="142.83" style="stroke: #000000; stroke-width: 0.8"/>
      </g>
     </g>
    </g>
    <g id="xtick_13">
     <g id="line2d_30">
      <path d="M 327.865465 142.83 
L 327.865465 90.605 
" clip-path="url(#pdfaeea1d3a)" style="fill: none; stroke-dasharray: 2.96,1.28; stroke-dashoffset: 0; stroke: #b0b0b0; stroke-opacity: 0.5; stroke-width: 0.8"/>
     </g>
     <g id="line2d_31">
      <g>
       <use xlink:href="#m39f51333b9" x="327.865465" y="142.83" style="stroke: #000000; stroke-width: 0.8"/>
      </g>
     </g>
    </g>
    <g id="xtick_14">
     <g id="line2d_32">
      <path d="M 383.412426 142.83 
L 383.412426 90.605 
" clip-path="url(#pdfaeea1d3a)" style="fill: none; stroke-dasharray: 2.96,1.28; stroke-dashoffset: 0; stroke: #b0b0b0; stroke-opacity: 0.5; stroke-width: 0.8"/>
     </g>
     <g id="line2d_33">
      <g>
       <use xlink:href="#m39f51333b9" x="383.412426" y="142.83" style="stroke: #000000; stroke-width: 0.8"/>
      </g>
     </g>
    </g>
   </g>
   <g id="matplotlib.axis_4">
    <g id="ytick_3">
     <g id="line2d_34">
      <path d="M 33.62625 123.132237 
L 421.81625 123.132237 
" clip-path="url(#pdfaeea1d3a)" style="fill: none; stroke-dasharray: 2.96,1.28; stroke-dashoffset: 0; stroke: #b0b0b0; stroke-opacity: 0.5; stroke-width: 0.8"/>
     </g>
     <g id="line2d_35">
      <g>
       <use xlink:href="#m5b12c7c82e" x="33.62625" y="123.132237" style="stroke: #000000; stroke-width: 0.8"/>
      </g>
     </g>
     <g id="text_3">
      <!-- 0 -->
      <g transform="translate(21.53625 126.171612) scale(0.08 -0.08)">
       <use xlink:href="#DejaVuSerif-30"/>
      </g>
     </g>
    </g>
    <g id="ytick_4">
     <g id="line2d_36">
      <path d="M 33.62625 95.759949 
L 421.81625 95.759949 
" clip-path="url(#pdfaeea1d3a)" style="fill: none; stroke-dasharray: 2.96,1.28; stroke-dashoffset: 0; stroke: #b0b0b0; stroke-opacity: 0.5; stroke-width: 0.8"/>
     </g>
     <g id="line2d_37">
      <g>
       <use xlink:href="#m5b12c7c82e" x="33.62625" y="95.759949" style="stroke: #000000; stroke-width: 0.8"/>
      </g>
     </g>
     <g id="text_4">
      <!-- 2 -->
      <g transform="translate(21.53625 98.799324) scale(0.08 -0.08)">
       <use xlink:href="#DejaVuSerif-32"/>
      </g>
     </g>
    </g>
   </g>
   <g id="line2d_38">
    <path d="M 51.27125 140.456136 
L 62.829276 136.499453 
L 69.748884 133.60032 
L 72.068093 133.025143 
L 74.387303 132.722077 
L 76.706512 132.593823 
L 79.063741 132.684379 
L 81.30691 133.03529 
L 91.762362 135.355121 
L 94.005531 135.599749 
L 96.324741 135.602373 
L 98.64395 135.256283 
L 104.460983 134.017319 
L 110.239996 133.346583 
L 111.41861 133.32112 
L 113.73782 133.631486 
L 116.057029 134.094252 
L 118.376238 134.297032 
L 126.436441 134.437461 
L 128.79367 134.175526 
L 131.112879 133.864152 
L 139.173082 133.252094 
L 141.492291 133.311923 
L 143.8115 133.740961 
L 148.487938 134.931103 
L 150.731108 135.224506 
L 151.871702 135.227932 
L 153.050317 135.049487 
L 154.190912 134.634746 
L 155.369526 133.980521 
L 157.688735 132.212026 
L 160.007945 130.454265 
L 162.365174 129.130402 
L 163.467749 128.650537 
L 164.646363 128.297464 
L 165.786958 128.077236 
L 166.965572 128.020978 
L 168.106167 128.172661 
L 169.284782 128.540944 
L 171.603991 129.695568 
L 173.9232 130.781858 
L 176.280429 131.750456 
L 178.523599 133.040712 
L 180.842808 134.47603 
L 181.983403 135.0488 
L 183.162017 135.458712 
L 184.340632 135.703353 
L 185.481226 135.795268 
L 186.659841 135.724392 
L 187.800436 135.480596 
L 188.97905 135.00688 
L 190.157665 134.233828 
L 192.400834 131.860888 
L 194.720043 129.233503 
L 195.860638 128.229865 
L 197.039253 127.52767 
L 198.217867 127.128511 
L 199.358462 126.988731 
L 200.537076 127.032715 
L 201.677671 127.200353 
L 202.856286 127.492229 
L 204.0349 127.945149 
L 208.597279 130.621297 
L 209.737874 131.055124 
L 210.916488 131.26327 
L 212.095103 131.212188 
L 213.235697 130.92408 
L 217.912136 129.23012 
L 219.01471 128.604365 
L 220.193325 127.665102 
L 221.33392 126.343649 
L 222.512534 124.680048 
L 226.010358 119.044772 
L 228.329567 115.743188 
L 230.648776 112.971288 
L 232.891946 110.852056 
L 234.07056 110.242283 
L 235.211155 110.044584 
L 238.708979 110.394511 
L 239.887593 110.16161 
L 241.028188 109.594658 
L 242.206803 108.722914 
L 244.526012 106.308444 
L 245.704626 104.897244 
L 251.4076 97.037565 
L 252.586214 95.643161 
L 253.764829 94.495948 
L 254.905424 93.673121 
L 256.084038 93.181562 
L 257.224633 92.978864 
L 258.403247 93.02969 
L 259.581862 93.308137 
L 261.825032 94.417751 
L 264.144241 95.953692 
L 266.46345 97.998435 
L 267.642064 99.279951 
L 274.561672 107.859239 
L 276.880882 110.17237 
L 280.378705 113.229484 
L 281.55732 113.946198 
L 282.697915 114.346161 
L 283.876529 114.43682 
L 285.017124 114.264939 
L 286.195738 113.870636 
L 287.374353 113.293698 
L 293.077326 109.442651 
L 294.255941 109.04081 
L 295.434555 108.861845 
L 296.57515 108.883878 
L 300.072974 109.448509 
L 301.251588 109.63652 
L 302.316143 109.944773 
L 303.494758 110.567689 
L 304.635353 111.565378 
L 306.954562 113.959978 
L 308.133176 114.899285 
L 309.311791 115.543704 
L 315.128824 117.750685 
L 316.193379 118.030914 
L 317.371993 118.001028 
L 318.512588 117.581674 
L 319.691203 116.806453 
L 322.010412 114.969058 
L 323.189026 114.37999 
L 324.329621 114.165469 
L 325.508236 114.26777 
L 326.64883 114.628626 
L 327.827445 115.232798 
L 329.006059 116.100225 
L 331.287249 118.060411 
L 332.427843 118.72537 
L 333.606458 118.974028 
L 334.747053 118.835357 
L 335.925667 118.409359 
L 337.104282 117.771267 
L 338.244876 116.921598 
L 339.423491 115.786905 
L 340.564086 114.280889 
L 341.7427 112.391594 
L 342.921315 110.179245 
L 343.98587 107.790227 
L 345.164484 105.47227 
L 346.305079 103.542746 
L 347.483693 102.263672 
L 348.624288 101.722326 
L 349.802903 101.823794 
L 350.981517 102.398957 
L 352.122112 103.33708 
L 353.300726 104.62761 
L 354.441321 106.319652 
L 355.619936 108.461068 
L 356.79855 111.036803 
L 360.182314 120.171797 
L 361.360929 123.044748 
L 362.501524 125.528888 
L 363.680138 127.501452 
L 364.858753 128.897779 
L 365.999347 129.746452 
L 367.177962 130.143242 
L 368.318557 130.207875 
L 376.378759 129.183477 
L 378.735988 128.762419 
L 381.055197 128.599602 
L 383.374407 128.501127 
L 384.553021 128.150251 
L 385.655596 127.462107 
L 389.15342 124.62099 
L 390.294014 124.006783 
L 391.472629 123.700072 
L 392.651244 123.625012 
L 394.970453 123.932153 
L 398.468277 124.28815 
L 403.030655 125.150946 
L 404.17125 125.411237 
L 404.17125 125.411237 
" clip-path="url(#pdfaeea1d3a)" style="fill: none; stroke: #ff5656; stroke-width: 0.5; stroke-linecap: square"/>
   </g>
   <g id="patch_6">
    <path d="M 33.62625 142.83 
L 33.62625 90.605 
" style="fill: none; stroke: #000000; stroke-width: 0.8; stroke-linejoin: miter; stroke-linecap: square"/>
   </g>
   <g id="patch_7">
    <path d="M 33.62625 142.83 
L 421.81625 142.83 
" style="fill: none; stroke: #000000; stroke-width: 0.8; stroke-linejoin: miter; stroke-linecap: square"/>
   </g>
  </g>
  <g id="axes_3">
   <g id="patch_8">
    <path d="M 33.62625 207.195 
L 421.81625 207.195 
L 421.81625 154.97 
L 33.62625 154.97 
z
" style="fill: #ffffff"/>
   </g>
   <g id="matplotlib.axis_5">
    <g id="xtick_15">
     <g id="line2d_39">
      <path d="M 50.130655 207.195 
L 50.130655 154.97 
" clip-path="url(#p69485fb376)" style="fill: none; stroke-dasharray: 2.96,1.28; stroke-dashoffset: 0; stroke: #b0b0b0; stroke-opacity: 0.5; stroke-width: 0.8"/>
     </g>
     <g id="line2d_40">
      <g>
       <use xlink:href="#m39f51333b9" x="50.130655" y="207.195" style="stroke: #000000; stroke-width: 0.8"/>
      </g>
     </g>
    </g>
    <g id="xtick_16">
     <g id="line2d_41">
      <path d="M 105.677617 207.195 
L 105.677617 154.97 
" clip-path="url(#p69485fb376)" style="fill: none; stroke-dasharray: 2.96,1.28; stroke-dashoffset: 0; stroke: #b0b0b0; stroke-opacity: 0.5; stroke-width: 0.8"/>
     </g>
     <g id="line2d_42">
      <g>
       <use xlink:href="#m39f51333b9" x="105.677617" y="207.195" style="stroke: #000000; stroke-width: 0.8"/>
      </g>
     </g>
    </g>
    <g id="xtick_17">
     <g id="line2d_43">
      <path d="M 161.224579 207.195 
L 161.224579 154.97 
" clip-path="url(#p69485fb376)" style="fill: none; stroke-dasharray: 2.96,1.28; stroke-dashoffset: 0; stroke: #b0b0b0; stroke-opacity: 0.5; stroke-width: 0.8"/>
     </g>
     <g id="line2d_44">
      <g>
       <use xlink:href="#m39f51333b9" x="161.224579" y="207.195" style="stroke: #000000; stroke-width: 0.8"/>
      </g>
     </g>
    </g>
    <g id="xtick_18">
     <g id="line2d_45">
      <path d="M 216.771541 207.195 
L 216.771541 154.97 
" clip-path="url(#p69485fb376)" style="fill: none; stroke-dasharray: 2.96,1.28; stroke-dashoffset: 0; stroke: #b0b0b0; stroke-opacity: 0.5; stroke-width: 0.8"/>
     </g>
     <g id="line2d_46">
      <g>
       <use xlink:href="#m39f51333b9" x="216.771541" y="207.195" style="stroke: #000000; stroke-width: 0.8"/>
      </g>
     </g>
    </g>
    <g id="xtick_19">
     <g id="line2d_47">
      <path d="M 272.318503 207.195 
L 272.318503 154.97 
" clip-path="url(#p69485fb376)" style="fill: none; stroke-dasharray: 2.96,1.28; stroke-dashoffset: 0; stroke: #b0b0b0; stroke-opacity: 0.5; stroke-width: 0.8"/>
     </g>
     <g id="line2d_48">
      <g>
       <use xlink:href="#m39f51333b9" x="272.318503" y="207.195" style="stroke: #000000; stroke-width: 0.8"/>
      </g>
     </g>
    </g>
    <g id="xtick_20">
     <g id="line2d_49">
      <path d="M 327.865465 207.195 
L 327.865465 154.97 
" clip-path="url(#p69485fb376)" style="fill: none; stroke-dasharray: 2.96,1.28; stroke-dashoffset: 0; stroke: #b0b0b0; stroke-opacity: 0.5; stroke-width: 0.8"/>
     </g>
     <g id="line2d_50">
      <g>
       <use xlink:href="#m39f51333b9" x="327.865465" y="207.195" style="stroke: #000000; stroke-width: 0.8"/>
      </g>
     </g>
    </g>
    <g id="xtick_21">
     <g id="line2d_51">
      <path d="M 383.412426 207.195 
L 383.412426 154.97 
" clip-path="url(#p69485fb376)" style="fill: none; stroke-dasharray: 2.96,1.28; stroke-dashoffset: 0; stroke: #b0b0b0; stroke-opacity: 0.5; stroke-width: 0.8"/>
     </g>
     <g id="line2d_52">
      <g>
       <use xlink:href="#m39f51333b9" x="383.412426" y="207.195" style="stroke: #000000; stroke-width: 0.8"/>
      </g>
     </g>
    </g>
   </g>
   <g id="matplotlib.axis_6">
    <g id="ytick_5">
     <g id="line2d_53">
      <path d="M 33.62625 201.422088 
L 421.81625 201.422088 
" clip-path="url(#p69485fb376)" style="fill: none; stroke-dasharray: 2.96,1.28; stroke-dashoffset: 0; stroke: #b0b0b0; stroke-opacity: 0.5; stroke-width: 0.8"/>
     </g>
     <g id="line2d_54">
      <g>
       <use xlink:href="#m5b12c7c82e" x="33.62625" y="201.422088" style="stroke: #000000; stroke-width: 0.8"/>
      </g>
     </g>
     <g id="text_5">
      <!-- −0.5 -->
      <g transform="translate(7.2 204.461463) scale(0.08 -0.08)">
       <defs>
        <path id="DejaVuSerif-2212" d="M 678 2259 
L 4684 2259 
L 4684 1753 
L 678 1753 
L 678 2259 
z
" transform="scale(0.015625)"/>
        <path id="DejaVuSerif-2e" d="M 603 325 
Q 603 500 722 622 
Q 841 744 1019 744 
Q 1191 744 1312 622 
Q 1434 500 1434 325 
Q 1434 153 1312 31 
Q 1191 -91 1019 -91 
Q 841 -91 722 29 
Q 603 150 603 325 
z
" transform="scale(0.015625)"/>
        <path id="DejaVuSerif-35" d="M 3219 4666 
L 3219 4153 
L 1081 4153 
L 1081 2816 
Q 1244 2928 1461 2984 
Q 1678 3041 1947 3041 
Q 2703 3041 3140 2622 
Q 3578 2203 3578 1478 
Q 3578 738 3136 323 
Q 2694 -91 1894 -91 
Q 1572 -91 1234 -12 
Q 897 66 544 225 
L 544 1131 
L 897 1131 
Q 925 688 1179 453 
Q 1434 219 1894 219 
Q 2388 219 2653 544 
Q 2919 869 2919 1478 
Q 2919 2084 2655 2407 
Q 2391 2731 1894 2731 
Q 1613 2731 1398 2631 
Q 1184 2531 1019 2322 
L 750 2322 
L 750 4666 
L 3219 4666 
z
" transform="scale(0.015625)"/>
       </defs>
       <use xlink:href="#DejaVuSerif-2212"/>
       <use xlink:href="#DejaVuSerif-30" transform="translate(83.789062 0)"/>
       <use xlink:href="#DejaVuSerif-2e" transform="translate(147.412109 0)"/>
       <use xlink:href="#DejaVuSerif-35" transform="translate(179.199219 0)"/>
      </g>
     </g>
    </g>
    <g id="ytick_6">
     <g id="line2d_55">
      <path d="M 33.62625 182.37527 
L 421.81625 182.37527 
" clip-path="url(#p69485fb376)" style="fill: none; stroke-dasharray: 2.96,1.28; stroke-dashoffset: 0; stroke: #b0b0b0; stroke-opacity: 0.5; stroke-width: 0.8"/>
     </g>
     <g id="line2d_56">
      <g>
       <use xlink:href="#m5b12c7c82e" x="33.62625" y="182.37527" style="stroke: #000000; stroke-width: 0.8"/>
      </g>
     </g>
     <g id="text_6">
      <!-- 0.0 -->
      <g transform="translate(13.90375 185.414645) scale(0.08 -0.08)">
       <use xlink:href="#DejaVuSerif-30"/>
       <use xlink:href="#DejaVuSerif-2e" transform="translate(63.623047 0)"/>
       <use xlink:href="#DejaVuSerif-30" transform="translate(95.410156 0)"/>
      </g>
     </g>
    </g>
    <g id="ytick_7">
     <g id="line2d_57">
      <path d="M 33.62625 163.328451 
L 421.81625 163.328451 
" clip-path="url(#p69485fb376)" style="fill: none; stroke-dasharray: 2.96,1.28; stroke-dashoffset: 0; stroke: #b0b0b0; stroke-opacity: 0.5; stroke-width: 0.8"/>
     </g>
     <g id="line2d_58">
      <g>
       <use xlink:href="#m5b12c7c82e" x="33.62625" y="163.328451" style="stroke: #000000; stroke-width: 0.8"/>
      </g>
     </g>
     <g id="text_7">
      <!-- 0.5 -->
      <g transform="translate(13.90375 166.367826) scale(0.08 -0.08)">
       <use xlink:href="#DejaVuSerif-30"/>
       <use xlink:href="#DejaVuSerif-2e" transform="translate(63.623047 0)"/>
       <use xlink:href="#DejaVuSerif-35" transform="translate(95.410156 0)"/>
      </g>
     </g>
    </g>
   </g>
   <g id="line2d_59">
    <path d="M 51.27125 178.107267 
L 52.373825 178.120681 
L 53.552439 181.568797 
L 54.693034 183.685355 
L 55.871649 184.40265 
L 57.012243 182.26451 
L 58.190858 185.225727 
L 59.369472 182.224013 
L 60.510067 183.124062 
L 61.688682 186.573333 
L 62.829276 181.389996 
L 64.007891 179.876697 
L 65.186505 179.179688 
L 66.25106 179.27816 
L 67.429675 182.476505 
L 68.57027 183.910448 
L 69.748884 184.512528 
L 70.889479 182.324754 
L 72.068093 184.569139 
L 73.246708 182.040819 
L 74.387303 182.159114 
L 75.565917 184.774784 
L 76.706512 180.939425 
L 77.885126 180.435784 
L 79.063741 180.244703 
L 80.128296 180.351563 
L 81.30691 183.252157 
L 82.447505 184.184755 
L 83.62612 184.669687 
L 84.766714 182.489507 
L 85.945329 183.950495 
L 87.123943 181.828165 
L 88.264538 181.216443 
L 89.443153 183.042588 
L 90.583747 180.553254 
L 94.005531 181.342268 
L 95.184146 183.934966 
L 96.324741 184.511796 
L 97.503355 184.845399 
L 98.64395 182.701651 
L 99.822564 183.335911 
L 101.001179 181.638573 
L 102.141774 180.333201 
L 103.320388 181.392704 
L 104.460983 180.260182 
L 105.639597 181.154848 
L 106.818212 182.22329 
L 107.920787 182.232418 
L 109.099401 184.564692 
L 110.239996 184.894873 
L 111.41861 185.067759 
L 112.559205 182.90924 
L 113.73782 182.731501 
L 114.916434 181.528337 
L 116.057029 179.578845 
L 117.235643 179.876689 
L 118.376238 180.010274 
L 119.554853 181.32337 
L 120.733467 182.839376 
L 121.798022 182.886698 
L 122.976637 185.058597 
L 125.295846 185.555263 
L 126.436441 183.359595 
L 128.79367 181.450581 
L 129.934264 179.005796 
L 131.112879 178.678269 
L 132.253474 179.670682 
L 134.610703 183.145436 
L 135.675258 183.099326 
L 136.853872 184.747613 
L 137.994467 186.139035 
L 139.173082 185.646704 
L 140.313676 183.311969 
L 142.670905 181.560956 
L 143.8115 178.486773 
L 144.990114 178.142626 
L 146.130709 179.705975 
L 147.309324 180.960933 
L 148.487938 184.068616 
L 149.552493 183.682665 
L 150.731108 184.854207 
L 151.871702 187.648432 
L 153.050317 185.493968 
L 154.190912 182.484113 
L 155.369526 182.196008 
L 156.548141 181.12448 
L 157.688735 177.031111 
L 158.86735 177.333814 
L 160.007945 179.425652 
L 161.186559 180.338486 
L 162.365174 185.489073 
L 163.467749 184.626389 
L 164.646363 185.714265 
L 165.786958 189.251287 
L 168.106167 181.754923 
L 169.284782 182.406064 
L 170.463396 181.141006 
L 171.603991 176.136822 
L 172.782605 176.647521 
L 173.9232 178.202718 
L 175.101815 178.948089 
L 176.280429 186.093352 
L 177.344984 185.231331 
L 178.523599 186.966945 
L 179.664193 189.326462 
L 180.842808 184.997593 
L 181.983403 182.078647 
L 183.162017 184.528245 
L 184.340632 182.719637 
L 185.481226 176.091978 
L 187.800436 175.791918 
L 188.97905 177.491131 
L 190.157665 185.904591 
L 191.22222 185.166085 
L 192.400834 187.74268 
L 193.541429 188.60778 
L 194.720043 183.64293 
L 195.860638 182.216936 
L 197.039253 187.294348 
L 198.217867 184.755627 
L 199.358462 176.951923 
L 200.537076 175.90153 
L 201.677671 173.869073 
L 202.856286 177.667188 
L 204.0349 185.946507 
L 205.099455 184.292447 
L 206.27807 187.060439 
L 207.418664 188.003689 
L 208.597279 182.001672 
L 209.737874 182.202409 
L 210.916488 189.481634 
L 212.095103 185.917376 
L 213.235697 177.779125 
L 214.414312 176.287618 
L 215.554907 172.622114 
L 216.733521 178.140521 
L 217.912136 185.698378 
L 219.01471 183.17006 
L 220.193325 185.776475 
L 221.33392 187.492197 
L 222.512534 181.893172 
L 223.653129 182.899723 
L 224.831743 191.395044 
L 226.010358 186.449094 
L 227.150953 178.307492 
L 228.329567 176.746412 
L 229.470162 171.485933 
L 231.827391 184.416461 
L 232.891946 182.037161 
L 234.07056 184.778339 
L 235.211155 186.461157 
L 236.38977 183.214525 
L 237.530364 185.077199 
L 238.708979 193.279909 
L 239.887593 186.210781 
L 241.028188 178.415265 
L 242.206803 176.120586 
L 243.347397 170.212699 
L 244.526012 178.405441 
L 245.704626 183.488211 
L 246.769181 182.322376 
L 247.947796 184.313661 
L 249.088391 185.881612 
L 250.267005 184.714101 
L 251.4076 187.35145 
L 252.586214 193.322223 
L 253.764829 183.964265 
L 254.905424 177.22528 
L 256.084038 174.476488 
L 257.224633 170.209986 
L 258.403247 180.037116 
L 259.581862 184.138873 
L 260.646417 183.740444 
L 261.825032 184.725162 
L 262.965626 187.544897 
L 264.144241 187.325297 
L 265.284835 188.214948 
L 266.46345 190.189629 
L 267.642064 178.772206 
L 268.782659 173.313193 
L 269.961274 172.23416 
L 271.101868 172.318566 
L 272.280483 182.735336 
L 273.459097 185.598262 
L 274.561672 184.833363 
L 275.740287 186.108036 
L 276.880882 190.821485 
L 278.059496 191.650741 
L 279.200091 189.25775 
L 280.378705 186.249535 
L 281.55732 173.606942 
L 282.697915 169.421046 
L 283.876529 169.12205 
L 285.017124 172.912506 
L 286.195738 183.271252 
L 288.438908 186.264885 
L 289.617522 189.250454 
L 290.758117 194.262039 
L 291.936732 196.508086 
L 293.077326 191.493062 
L 294.255941 184.994484 
L 295.434555 171.540844 
L 296.57515 167.793632 
L 297.753765 164.352597 
L 298.894359 169.586642 
L 300.072974 180.652918 
L 301.251588 182.175425 
L 302.316143 188.432716 
L 304.635353 198.458738 
L 305.813967 201.168433 
L 308.133176 184.643255 
L 309.311791 170.319408 
L 310.452386 167.042275 
L 311.631 159.309498 
L 312.771595 165.521203 
L 313.950209 178.002123 
L 315.128824 180.094972 
L 316.193379 190.476404 
L 317.371993 197.272324 
L 318.512588 202.571072 
L 319.691203 203.967571 
L 320.831797 193.319061 
L 322.010412 184.042389 
L 323.189026 169.851596 
L 324.329621 167.507493 
L 325.508236 157.343864 
L 326.64883 164.194137 
L 327.827445 175.906804 
L 329.006059 178.197167 
L 330.108634 190.5368 
L 331.287249 198.109984 
L 332.427843 204.284192 
L 333.606458 204.821136 
L 334.747053 191.774393 
L 335.925667 184.048253 
L 337.104282 171.502622 
L 338.244876 168.705442 
L 339.423491 159.388389 
L 340.564086 165.737145 
L 341.7427 174.678207 
L 342.921315 177.307929 
L 343.98587 189.836487 
L 345.164484 197.163042 
L 346.305079 202.724821 
L 347.483693 204.009243 
L 348.624288 190.662434 
L 349.802903 184.671671 
L 350.981517 173.499583 
L 352.122112 169.144823 
L 353.300726 159.625793 
L 355.619936 173.997315 
L 356.79855 177.161261 
L 357.863105 189.76436 
L 359.04172 196.762223 
L 360.182314 201.496765 
L 361.360929 203.384939 
L 362.501524 189.483958 
L 363.680138 185.372925 
L 364.858753 175.393122 
L 365.999347 169.340824 
L 367.177962 159.616797 
L 368.318557 168.230267 
L 369.497171 173.460196 
L 370.675786 177.430818 
L 371.740341 189.927759 
L 372.918955 196.281654 
L 374.05955 200.025122 
L 375.238164 202.473554 
L 376.378759 188.099995 
L 377.557374 185.981979 
L 381.055197 159.929323 
L 382.195792 169.953008 
L 383.374407 173.30342 
L 384.553021 178.195842 
L 385.655596 190.104767 
L 386.834211 195.53881 
L 387.974805 198.099442 
L 389.15342 201.216239 
L 390.294014 186.586731 
L 391.472629 186.390579 
L 392.651244 178.716636 
L 393.791838 169.02773 
L 394.970453 160.53017 
L 396.111047 172.275086 
L 397.289662 173.612463 
L 398.468277 179.449066 
L 399.532832 190.210344 
L 400.711446 194.581251 
L 401.852041 195.827401 
L 403.030655 199.757711 
L 404.17125 185.105738 
L 404.17125 185.105738 
" clip-path="url(#p69485fb376)" style="fill: none; stroke: #ffa722; stroke-width: 0.5; stroke-linecap: square"/>
   </g>
   <g id="patch_9">
    <path d="M 33.62625 207.195 
L 33.62625 154.97 
" style="fill: none; stroke: #000000; stroke-width: 0.8; stroke-linejoin: miter; stroke-linecap: square"/>
   </g>
   <g id="patch_10">
    <path d="M 33.62625 207.195 
L 421.81625 207.195 
" style="fill: none; stroke: #000000; stroke-width: 0.8; stroke-linejoin: miter; stroke-linecap: square"/>
   </g>
  </g>
  <g id="axes_4">
   <g id="patch_11">
    <path d="M 33.62625 271.56 
L 421.81625 271.56 
L 421.81625 219.335 
L 33.62625 219.335 
z
" style="fill: #ffffff"/>
   </g>
   <g id="matplotlib.axis_7">
    <g id="xtick_22">
     <g id="line2d_60">
      <path d="M 50.130655 271.56 
L 50.130655 219.335 
" clip-path="url(#p76a153a768)" style="fill: none; stroke-dasharray: 2.96,1.28; stroke-dashoffset: 0; stroke: #b0b0b0; stroke-opacity: 0.5; stroke-width: 0.8"/>
     </g>
     <g id="line2d_61">
      <g>
       <use xlink:href="#m39f51333b9" x="50.130655" y="271.56" style="stroke: #000000; stroke-width: 0.8"/>
      </g>
     </g>
     <g id="text_8">
      <!-- 2000 -->
      <g transform="translate(39.950655 284.63875) scale(0.08 -0.08)">
       <use xlink:href="#DejaVuSerif-32"/>
       <use xlink:href="#DejaVuSerif-30" transform="translate(63.623047 0)"/>
       <use xlink:href="#DejaVuSerif-30" transform="translate(127.246094 0)"/>
       <use xlink:href="#DejaVuSerif-30" transform="translate(190.869141 0)"/>
      </g>
     </g>
    </g>
    <g id="xtick_23">
     <g id="line2d_62">
      <path d="M 105.677617 271.56 
L 105.677617 219.335 
" clip-path="url(#p76a153a768)" style="fill: none; stroke-dasharray: 2.96,1.28; stroke-dashoffset: 0; stroke: #b0b0b0; stroke-opacity: 0.5; stroke-width: 0.8"/>
     </g>
     <g id="line2d_63">
      <g>
       <use xlink:href="#m39f51333b9" x="105.677617" y="271.56" style="stroke: #000000; stroke-width: 0.8"/>
      </g>
     </g>
     <g id="text_9">
      <!-- 2004 -->
      <g transform="translate(95.497617 284.63875) scale(0.08 -0.08)">
       <defs>
        <path id="DejaVuSerif-34" d="M 2234 1581 
L 2234 4063 
L 641 1581 
L 2234 1581 
z
M 3609 0 
L 1484 0 
L 1484 331 
L 2234 331 
L 2234 1247 
L 197 1247 
L 197 1588 
L 2241 4750 
L 2859 4750 
L 2859 1581 
L 3750 1581 
L 3750 1247 
L 2859 1247 
L 2859 331 
L 3609 331 
L 3609 0 
z
" transform="scale(0.015625)"/>
       </defs>
       <use xlink:href="#DejaVuSerif-32"/>
       <use xlink:href="#DejaVuSerif-30" transform="translate(63.623047 0)"/>
       <use xlink:href="#DejaVuSerif-30" transform="translate(127.246094 0)"/>
       <use xlink:href="#DejaVuSerif-34" transform="translate(190.869141 0)"/>
      </g>
     </g>
    </g>
    <g id="xtick_24">
     <g id="line2d_64">
      <path d="M 161.224579 271.56 
L 161.224579 219.335 
" clip-path="url(#p76a153a768)" style="fill: none; stroke-dasharray: 2.96,1.28; stroke-dashoffset: 0; stroke: #b0b0b0; stroke-opacity: 0.5; stroke-width: 0.8"/>
     </g>
     <g id="line2d_65">
      <g>
       <use xlink:href="#m39f51333b9" x="161.224579" y="271.56" style="stroke: #000000; stroke-width: 0.8"/>
      </g>
     </g>
     <g id="text_10">
      <!-- 2008 -->
      <g transform="translate(151.044579 284.63875) scale(0.08 -0.08)">
       <defs>
        <path id="DejaVuSerif-38" d="M 2981 1275 
Q 2981 1775 2732 2051 
Q 2484 2328 2034 2328 
Q 1584 2328 1336 2051 
Q 1088 1775 1088 1275 
Q 1088 772 1336 495 
Q 1584 219 2034 219 
Q 2484 219 2732 495 
Q 2981 772 2981 1275 
z
M 2853 3541 
Q 2853 3966 2637 4203 
Q 2422 4441 2034 4441 
Q 1650 4441 1433 4203 
Q 1216 3966 1216 3541 
Q 1216 3113 1433 2875 
Q 1650 2638 2034 2638 
Q 2422 2638 2637 2875 
Q 2853 3113 2853 3541 
z
M 2516 2484 
Q 3047 2413 3344 2092 
Q 3641 1772 3641 1275 
Q 3641 619 3225 264 
Q 2809 -91 2034 -91 
Q 1263 -91 845 264 
Q 428 619 428 1275 
Q 428 1772 725 2092 
Q 1022 2413 1556 2484 
Q 1084 2569 832 2842 
Q 581 3116 581 3541 
Q 581 4103 968 4426 
Q 1356 4750 2034 4750 
Q 2713 4750 3100 4426 
Q 3488 4103 3488 3541 
Q 3488 3116 3236 2842 
Q 2984 2569 2516 2484 
z
" transform="scale(0.015625)"/>
       </defs>
       <use xlink:href="#DejaVuSerif-32"/>
       <use xlink:href="#DejaVuSerif-30" transform="translate(63.623047 0)"/>
       <use xlink:href="#DejaVuSerif-30" transform="translate(127.246094 0)"/>
       <use xlink:href="#DejaVuSerif-38" transform="translate(190.869141 0)"/>
      </g>
     </g>
    </g>
    <g id="xtick_25">
     <g id="line2d_66">
      <path d="M 216.771541 271.56 
L 216.771541 219.335 
" clip-path="url(#p76a153a768)" style="fill: none; stroke-dasharray: 2.96,1.28; stroke-dashoffset: 0; stroke: #b0b0b0; stroke-opacity: 0.5; stroke-width: 0.8"/>
     </g>
     <g id="line2d_67">
      <g>
       <use xlink:href="#m39f51333b9" x="216.771541" y="271.56" style="stroke: #000000; stroke-width: 0.8"/>
      </g>
     </g>
     <g id="text_11">
      <!-- 2012 -->
      <g transform="translate(206.591541 284.63875) scale(0.08 -0.08)">
       <defs>
        <path id="DejaVuSerif-31" d="M 909 0 
L 909 331 
L 1722 331 
L 1722 4213 
L 781 3603 
L 781 4013 
L 1919 4750 
L 2350 4750 
L 2350 331 
L 3163 331 
L 3163 0 
L 909 0 
z
" transform="scale(0.015625)"/>
       </defs>
       <use xlink:href="#DejaVuSerif-32"/>
       <use xlink:href="#DejaVuSerif-30" transform="translate(63.623047 0)"/>
       <use xlink:href="#DejaVuSerif-31" transform="translate(127.246094 0)"/>
       <use xlink:href="#DejaVuSerif-32" transform="translate(190.869141 0)"/>
      </g>
     </g>
    </g>
    <g id="xtick_26">
     <g id="line2d_68">
      <path d="M 272.318503 271.56 
L 272.318503 219.335 
" clip-path="url(#p76a153a768)" style="fill: none; stroke-dasharray: 2.96,1.28; stroke-dashoffset: 0; stroke: #b0b0b0; stroke-opacity: 0.5; stroke-width: 0.8"/>
     </g>
     <g id="line2d_69">
      <g>
       <use xlink:href="#m39f51333b9" x="272.318503" y="271.56" style="stroke: #000000; stroke-width: 0.8"/>
      </g>
     </g>
     <g id="text_12">
      <!-- 2016 -->
      <g transform="translate(262.138503 284.63875) scale(0.08 -0.08)">
       <defs>
        <path id="DejaVuSerif-36" d="M 2094 219 
Q 2534 219 2771 542 
Q 3009 866 3009 1472 
Q 3009 2078 2771 2401 
Q 2534 2725 2094 2725 
Q 1647 2725 1412 2412 
Q 1178 2100 1178 1509 
Q 1178 888 1415 553 
Q 1653 219 2094 219 
z
M 1075 2569 
Q 1288 2803 1556 2918 
Q 1825 3034 2163 3034 
Q 2859 3034 3264 2615 
Q 3669 2197 3669 1472 
Q 3669 763 3233 336 
Q 2797 -91 2069 -91 
Q 1278 -91 853 498 
Q 428 1088 428 2181 
Q 428 3406 931 4078 
Q 1434 4750 2350 4750 
Q 2597 4750 2869 4703 
Q 3141 4656 3425 4563 
L 3425 3794 
L 3072 3794 
Q 3034 4109 2831 4275 
Q 2628 4441 2284 4441 
Q 1678 4441 1381 3981 
Q 1084 3522 1075 2569 
z
" transform="scale(0.015625)"/>
       </defs>
       <use xlink:href="#DejaVuSerif-32"/>
       <use xlink:href="#DejaVuSerif-30" transform="translate(63.623047 0)"/>
       <use xlink:href="#DejaVuSerif-31" transform="translate(127.246094 0)"/>
       <use xlink:href="#DejaVuSerif-36" transform="translate(190.869141 0)"/>
      </g>
     </g>
    </g>
    <g id="xtick_27">
     <g id="line2d_70">
      <path d="M 327.865465 271.56 
L 327.865465 219.335 
" clip-path="url(#p76a153a768)" style="fill: none; stroke-dasharray: 2.96,1.28; stroke-dashoffset: 0; stroke: #b0b0b0; stroke-opacity: 0.5; stroke-width: 0.8"/>
     </g>
     <g id="line2d_71">
      <g>
       <use xlink:href="#m39f51333b9" x="327.865465" y="271.56" style="stroke: #000000; stroke-width: 0.8"/>
      </g>
     </g>
     <g id="text_13">
      <!-- 2020 -->
      <g transform="translate(317.685465 284.63875) scale(0.08 -0.08)">
       <use xlink:href="#DejaVuSerif-32"/>
       <use xlink:href="#DejaVuSerif-30" transform="translate(63.623047 0)"/>
       <use xlink:href="#DejaVuSerif-32" transform="translate(127.246094 0)"/>
       <use xlink:href="#DejaVuSerif-30" transform="translate(190.869141 0)"/>
      </g>
     </g>
    </g>
    <g id="xtick_28">
     <g id="line2d_72">
      <path d="M 383.412426 271.56 
L 383.412426 219.335 
" clip-path="url(#p76a153a768)" style="fill: none; stroke-dasharray: 2.96,1.28; stroke-dashoffset: 0; stroke: #b0b0b0; stroke-opacity: 0.5; stroke-width: 0.8"/>
     </g>
     <g id="line2d_73">
      <g>
       <use xlink:href="#m39f51333b9" x="383.412426" y="271.56" style="stroke: #000000; stroke-width: 0.8"/>
      </g>
     </g>
     <g id="text_14">
      <!-- 2024 -->
      <g transform="translate(373.232426 284.63875) scale(0.08 -0.08)">
       <use xlink:href="#DejaVuSerif-32"/>
       <use xlink:href="#DejaVuSerif-30" transform="translate(63.623047 0)"/>
       <use xlink:href="#DejaVuSerif-32" transform="translate(127.246094 0)"/>
       <use xlink:href="#DejaVuSerif-34" transform="translate(190.869141 0)"/>
      </g>
     </g>
    </g>
    <g id="text_15">
     <!-- Série histórica -->
     <g transform="translate(198.04375 296.38125) scale(0.08 -0.08)">
      <defs>
       <path id="DejaVuSerif-53" d="M 594 225 
L 594 1288 
L 953 1284 
Q 969 753 1261 498 
Q 1553 244 2150 244 
Q 2706 244 2998 464 
Q 3291 684 3291 1106 
Q 3291 1444 3114 1625 
Q 2938 1806 2369 1978 
L 1753 2163 
Q 1084 2366 811 2669 
Q 538 2972 538 3500 
Q 538 4094 959 4422 
Q 1381 4750 2144 4750 
Q 2469 4750 2856 4679 
Q 3244 4609 3681 4475 
L 3681 3481 
L 3328 3481 
Q 3275 3975 2998 4195 
Q 2722 4416 2156 4416 
Q 1663 4416 1405 4214 
Q 1147 4013 1147 3628 
Q 1147 3294 1340 3103 
Q 1534 2913 2163 2725 
L 2741 2553 
Q 3375 2363 3645 2067 
Q 3916 1772 3916 1275 
Q 3916 597 3481 253 
Q 3047 -91 2188 -91 
Q 1803 -91 1404 -12 
Q 1006 66 594 225 
z
" transform="scale(0.015625)"/>
       <path id="DejaVuSerif-e9" d="M 3469 1600 
L 991 1600 
L 991 1575 
Q 991 903 1244 561 
Q 1497 219 1991 219 
Q 2369 219 2611 417 
Q 2853 616 2950 1006 
L 3413 1006 
Q 3275 459 2904 184 
Q 2534 -91 1931 -91 
Q 1203 -91 761 389 
Q 319 869 319 1663 
Q 319 2450 753 2931 
Q 1188 3413 1894 3413 
Q 2647 3413 3050 2948 
Q 3453 2484 3469 1600 
z
M 2791 1931 
Q 2772 2513 2545 2808 
Q 2319 3103 1894 3103 
Q 1497 3103 1269 2806 
Q 1041 2509 991 1931 
L 2791 1931 
z
M 2330 5119 
L 2952 5119 
L 1890 3944 
L 1524 3944 
L 2330 5119 
z
" transform="scale(0.015625)"/>
       <path id="DejaVuSerif-72" d="M 3059 3328 
L 3059 2497 
L 2728 2497 
Q 2713 2744 2591 2866 
Q 2469 2988 2234 2988 
Q 1809 2988 1582 2694 
Q 1356 2400 1356 1850 
L 1356 331 
L 2022 331 
L 2022 0 
L 263 0 
L 263 331 
L 781 331 
L 781 2994 
L 231 2994 
L 231 3322 
L 1356 3322 
L 1356 2731 
Q 1525 3078 1790 3245 
Q 2056 3413 2438 3413 
Q 2578 3413 2733 3391 
Q 2888 3369 3059 3328 
z
" transform="scale(0.015625)"/>
       <path id="DejaVuSerif-69" d="M 622 4353 
Q 622 4497 726 4603 
Q 831 4709 978 4709 
Q 1122 4709 1226 4603 
Q 1331 4497 1331 4353 
Q 1331 4206 1228 4103 
Q 1125 4000 978 4000 
Q 831 4000 726 4103 
Q 622 4206 622 4353 
z
M 1356 331 
L 1900 331 
L 1900 0 
L 231 0 
L 231 331 
L 781 331 
L 781 2988 
L 231 2988 
L 231 3322 
L 1356 3322 
L 1356 331 
z
" transform="scale(0.015625)"/>
       <path id="DejaVuSerif-65" d="M 3469 1600 
L 991 1600 
L 991 1575 
Q 991 903 1244 561 
Q 1497 219 1991 219 
Q 2369 219 2611 417 
Q 2853 616 2950 1006 
L 3413 1006 
Q 3275 459 2904 184 
Q 2534 -91 1931 -91 
Q 1203 -91 761 389 
Q 319 869 319 1663 
Q 319 2450 753 2931 
Q 1188 3413 1894 3413 
Q 2647 3413 3050 2948 
Q 3453 2484 3469 1600 
z
M 2791 1931 
Q 2772 2513 2545 2808 
Q 2319 3103 1894 3103 
Q 1497 3103 1269 2806 
Q 1041 2509 991 1931 
L 2791 1931 
z
" transform="scale(0.015625)"/>
       <path id="DejaVuSerif-20" transform="scale(0.015625)"/>
       <path id="DejaVuSerif-68" d="M 263 0 
L 263 331 
L 781 331 
L 781 4531 
L 231 4531 
L 231 4863 
L 1356 4863 
L 1356 2731 
Q 1516 3069 1770 3241 
Q 2025 3413 2363 3413 
Q 2913 3413 3172 3097 
Q 3431 2781 3431 2113 
L 3431 331 
L 3944 331 
L 3944 0 
L 2356 0 
L 2356 331 
L 2853 331 
L 2853 1931 
Q 2853 2541 2704 2764 
Q 2556 2988 2175 2988 
Q 1775 2988 1565 2697 
Q 1356 2406 1356 1850 
L 1356 331 
L 1856 331 
L 1856 0 
L 263 0 
z
" transform="scale(0.015625)"/>
       <path id="DejaVuSerif-73" d="M 359 184 
L 359 959 
L 691 959 
Q 703 588 923 403 
Q 1144 219 1575 219 
Q 1963 219 2166 364 
Q 2369 509 2369 788 
Q 2369 1006 2220 1140 
Q 2072 1275 1594 1428 
L 1178 1569 
Q 750 1706 558 1912 
Q 366 2119 366 2438 
Q 366 2894 700 3153 
Q 1034 3413 1625 3413 
Q 1888 3413 2178 3344 
Q 2469 3275 2778 3144 
L 2778 2419 
L 2447 2419 
Q 2434 2741 2221 2922 
Q 2009 3103 1644 3103 
Q 1281 3103 1095 2975 
Q 909 2847 909 2591 
Q 909 2381 1050 2254 
Q 1191 2128 1613 1997 
L 2069 1856 
Q 2541 1709 2748 1489 
Q 2956 1269 2956 922 
Q 2956 450 2595 179 
Q 2234 -91 1600 -91 
Q 1278 -91 972 -22 
Q 666 47 359 184 
z
" transform="scale(0.015625)"/>
       <path id="DejaVuSerif-74" d="M 691 2988 
L 184 2988 
L 184 3322 
L 691 3322 
L 691 4353 
L 1269 4353 
L 1269 3322 
L 2350 3322 
L 2350 2988 
L 1269 2988 
L 1269 878 
Q 1269 456 1350 337 
Q 1431 219 1650 219 
Q 1875 219 1978 351 
Q 2081 484 2088 781 
L 2522 781 
Q 2497 328 2275 118 
Q 2053 -91 1600 -91 
Q 1103 -91 897 129 
Q 691 350 691 878 
L 691 2988 
z
" transform="scale(0.015625)"/>
       <path id="DejaVuSerif-f3" d="M 1925 219 
Q 2388 219 2623 584 
Q 2859 950 2859 1663 
Q 2859 2375 2623 2739 
Q 2388 3103 1925 3103 
Q 1463 3103 1227 2739 
Q 991 2375 991 1663 
Q 991 950 1228 584 
Q 1466 219 1925 219 
z
M 1925 -91 
Q 1200 -91 759 389 
Q 319 869 319 1663 
Q 319 2456 758 2934 
Q 1197 3413 1925 3413 
Q 2653 3413 3092 2934 
Q 3531 2456 3531 1663 
Q 3531 869 3092 389 
Q 2653 -91 1925 -91 
z
M 2362 5119 
L 2984 5119 
L 1922 3944 
L 1556 3944 
L 2362 5119 
z
" transform="scale(0.015625)"/>
       <path id="DejaVuSerif-63" d="M 3291 997 
Q 3169 466 2822 187 
Q 2475 -91 1925 -91 
Q 1200 -91 759 389 
Q 319 869 319 1663 
Q 319 2459 759 2936 
Q 1200 3413 1925 3413 
Q 2241 3413 2553 3339 
Q 2866 3266 3181 3116 
L 3181 2266 
L 2847 2266 
Q 2781 2703 2561 2903 
Q 2341 3103 1931 3103 
Q 1466 3103 1228 2742 
Q 991 2381 991 1663 
Q 991 944 1227 581 
Q 1463 219 1931 219 
Q 2303 219 2525 412 
Q 2747 606 2828 997 
L 3291 997 
z
" transform="scale(0.015625)"/>
       <path id="DejaVuSerif-61" d="M 2547 1044 
L 2547 1747 
L 1806 1747 
Q 1378 1747 1168 1562 
Q 959 1378 959 997 
Q 959 650 1171 447 
Q 1384 244 1747 244 
Q 2106 244 2326 466 
Q 2547 688 2547 1044 
z
M 3122 2075 
L 3122 331 
L 3634 331 
L 3634 0 
L 2547 0 
L 2547 359 
Q 2356 128 2106 18 
Q 1856 -91 1522 -91 
Q 969 -91 644 203 
Q 319 497 319 997 
Q 319 1513 691 1797 
Q 1063 2081 1741 2081 
L 2547 2081 
L 2547 2309 
Q 2547 2688 2317 2895 
Q 2088 3103 1672 3103 
Q 1328 3103 1125 2947 
Q 922 2791 872 2484 
L 575 2484 
L 575 3156 
Q 875 3284 1158 3348 
Q 1441 3413 1709 3413 
Q 2400 3413 2761 3070 
Q 3122 2728 3122 2075 
z
" transform="scale(0.015625)"/>
      </defs>
      <use xlink:href="#DejaVuSerif-53"/>
      <use xlink:href="#DejaVuSerif-e9" transform="translate(68.505859 0)"/>
      <use xlink:href="#DejaVuSerif-72" transform="translate(127.685547 0)"/>
      <use xlink:href="#DejaVuSerif-69" transform="translate(175.488281 0)"/>
      <use xlink:href="#DejaVuSerif-65" transform="translate(207.470703 0)"/>
      <use xlink:href="#DejaVuSerif-20" transform="translate(266.650391 0)"/>
      <use xlink:href="#DejaVuSerif-68" transform="translate(298.4375 0)"/>
      <use xlink:href="#DejaVuSerif-69" transform="translate(362.841797 0)"/>
      <use xlink:href="#DejaVuSerif-73" transform="translate(394.824219 0)"/>
      <use xlink:href="#DejaVuSerif-74" transform="translate(446.142578 0)"/>
      <use xlink:href="#DejaVuSerif-f3" transform="translate(486.328125 0)"/>
      <use xlink:href="#DejaVuSerif-72" transform="translate(546.533203 0)"/>
      <use xlink:href="#DejaVuSerif-69" transform="translate(594.335938 0)"/>
      <use xlink:href="#DejaVuSerif-63" transform="translate(626.318359 0)"/>
      <use xlink:href="#DejaVuSerif-61" transform="translate(682.324219 0)"/>
     </g>
    </g>
   </g>
   <g id="matplotlib.axis_8">
    <g id="ytick_8">
     <g id="line2d_74">
      <path d="M 33.62625 262.605668 
L 421.81625 262.605668 
" clip-path="url(#p76a153a768)" style="fill: none; stroke-dasharray: 2.96,1.28; stroke-dashoffset: 0; stroke: #b0b0b0; stroke-opacity: 0.5; stroke-width: 0.8"/>
     </g>
     <g id="line2d_75">
      <g>
       <use xlink:href="#m5b12c7c82e" x="33.62625" y="262.605668" style="stroke: #000000; stroke-width: 0.8"/>
      </g>
     </g>
     <g id="text_16">
      <!-- −1 -->
      <g transform="translate(14.8325 265.645043) scale(0.08 -0.08)">
       <use xlink:href="#DejaVuSerif-2212"/>
       <use xlink:href="#DejaVuSerif-31" transform="translate(83.789062 0)"/>
      </g>
     </g>
    </g>
    <g id="ytick_9">
     <g id="line2d_76">
      <path d="M 33.62625 239.123191 
L 421.81625 239.123191 
" clip-path="url(#p76a153a768)" style="fill: none; stroke-dasharray: 2.96,1.28; stroke-dashoffset: 0; stroke: #b0b0b0; stroke-opacity: 0.5; stroke-width: 0.8"/>
     </g>
     <g id="line2d_77">
      <g>
       <use xlink:href="#m5b12c7c82e" x="33.62625" y="239.123191" style="stroke: #000000; stroke-width: 0.8"/>
      </g>
     </g>
     <g id="text_17">
      <!-- 0 -->
      <g transform="translate(21.53625 242.162566) scale(0.08 -0.08)">
       <use xlink:href="#DejaVuSerif-30"/>
      </g>
     </g>
    </g>
   </g>
   <g id="line2d_78">
    <path d="M 51.27125 237.734062 
L 52.373825 237.654167 
L 53.552439 237.983596 
L 57.012243 241.421603 
L 58.190858 241.155342 
L 59.369472 238.520177 
L 60.510067 239.93798 
L 61.688682 241.064681 
L 62.829276 238.134387 
L 64.007891 237.555458 
L 65.186505 240.651031 
L 66.25106 238.990508 
L 67.429675 236.599985 
L 68.57027 239.637969 
L 70.889479 238.851287 
L 72.068093 237.697689 
L 75.565917 236.950876 
L 76.706512 239.50673 
L 77.885126 238.152789 
L 79.063741 238.747862 
L 80.128296 239.963389 
L 81.30691 241.957347 
L 82.447505 237.71494 
L 83.62612 235.782164 
L 84.766714 237.748005 
L 85.945329 238.221556 
L 87.123943 240.798754 
L 88.264538 238.693604 
L 89.443153 238.417227 
L 90.583747 242.058169 
L 92.940976 240.692472 
L 94.005531 239.470754 
L 95.184146 238.989258 
L 96.324741 241.379217 
L 97.503355 240.176577 
L 98.64395 236.431202 
L 99.822564 236.889162 
L 101.001179 240.784615 
L 102.141774 243.889395 
L 103.320388 242.224245 
L 104.460983 237.345911 
L 105.639597 236.135898 
L 106.818212 233.638526 
L 107.920787 237.761238 
L 109.099401 240.751714 
L 110.239996 237.166996 
L 111.41861 241.000923 
L 112.559205 239.336391 
L 113.73782 241.379216 
L 114.916434 239.217625 
L 116.057029 234.492601 
L 117.235643 235.507026 
L 118.376238 237.49792 
L 119.554853 243.271026 
L 120.733467 242.519423 
L 121.798022 243.866688 
L 122.976637 242.449653 
L 124.117231 236.837404 
L 125.295846 235.744594 
L 126.436441 237.823435 
L 127.615055 239.064009 
L 128.79367 237.600815 
L 129.934264 239.967068 
L 131.112879 238.902124 
L 132.253474 238.026746 
L 133.432088 243.396839 
L 134.610703 243.328707 
L 135.675258 237.013806 
L 136.853872 234.760217 
L 137.994467 239.442385 
L 139.173082 238.724071 
L 140.313676 241.378786 
L 141.492291 237.277409 
L 142.670905 237.304249 
L 143.8115 236.001439 
L 144.990114 235.695439 
L 146.130709 239.542142 
L 147.309324 236.066535 
L 148.487938 240.395612 
L 149.552493 243.8224 
L 150.731108 243.234883 
L 151.871702 242.166043 
L 153.050317 242.830877 
L 154.190912 242.70043 
L 155.369526 240.78742 
L 156.548141 239.953625 
L 157.688735 241.838139 
L 158.86735 242.892706 
L 160.007945 240.097656 
L 161.186559 239.02605 
L 162.365174 230.351192 
L 163.467749 227.907842 
L 164.646363 232.123386 
L 165.786958 234.915092 
L 166.965572 242.272005 
L 168.106167 242.555763 
L 169.284782 238.737215 
L 170.463396 237.874627 
L 171.603991 240.477766 
L 172.782605 237.357399 
L 173.9232 240.372978 
L 175.101815 234.548237 
L 176.280429 240.643464 
L 177.344984 243.959356 
L 178.523599 239.118993 
L 179.664193 240.56383 
L 180.842808 232.221695 
L 181.983403 232.417062 
L 183.162017 236.809291 
L 184.340632 247.349319 
L 185.481226 246.266069 
L 186.659841 246.536923 
L 187.800436 246.028457 
L 188.97905 244.931764 
L 190.157665 239.622318 
L 191.22222 238.973335 
L 192.400834 239.846268 
L 193.541429 244.022945 
L 194.720043 242.619428 
L 195.860638 234.418818 
L 197.039253 236.450214 
L 198.217867 226.586763 
L 199.358462 222.288834 
L 200.537076 231.052795 
L 201.677671 234.386089 
L 202.856286 238.61169 
L 204.0349 246.078793 
L 205.099455 245.245955 
L 206.27807 245.103021 
L 207.418664 246.228387 
L 208.597279 243.442175 
L 209.737874 236.043978 
L 210.916488 232.133775 
L 212.095103 237.191006 
L 213.235697 243.703806 
L 214.414312 241.755553 
L 215.554907 241.993051 
L 216.733521 240.007818 
L 217.912136 243.205368 
L 220.193325 245.367311 
L 221.33392 226.940232 
L 222.512534 234.310006 
L 223.653129 253.113217 
L 224.831743 254.801638 
L 226.010358 250.533464 
L 227.150953 238.201536 
L 228.329567 230.083331 
L 229.470162 223.629225 
L 230.648776 227.271454 
L 231.827391 230.464067 
L 232.891946 233.767017 
L 234.07056 238.142425 
L 235.211155 241.191422 
L 236.38977 239.695343 
L 237.530364 234.695745 
L 238.708979 239.914909 
L 239.887593 242.118166 
L 241.028188 246.699859 
L 242.206803 248.823607 
L 243.347397 248.86232 
L 244.526012 252.752393 
L 246.769181 232.994468 
L 247.947796 230.24244 
L 249.088391 239.116584 
L 250.267005 228.113955 
L 251.4076 235.439808 
L 252.586214 234.683177 
L 253.764829 236.274654 
L 254.905424 242.366773 
L 256.084038 240.753629 
L 257.224633 241.251652 
L 258.403247 234.302777 
L 259.581862 233.632417 
L 260.646417 232.256973 
L 261.825032 228.800002 
L 264.144241 242.547939 
L 265.284835 235.116618 
L 266.46345 240.514502 
L 267.642064 244.914129 
L 268.782659 240.056663 
L 269.961274 245.342685 
L 271.101868 237.019776 
L 272.280483 230.794839 
L 273.459097 231.751695 
L 275.740287 245.537528 
L 276.880882 239.350951 
L 278.059496 244.37795 
L 279.200091 240.762733 
L 280.378705 246.818645 
L 281.55732 243.079398 
L 283.876529 237.909079 
L 285.017124 237.520076 
L 286.195738 246.595975 
L 287.374353 245.627213 
L 288.438908 248.286676 
L 289.617522 238.494418 
L 290.758117 232.030556 
L 291.936732 232.873283 
L 293.077326 248.196267 
L 294.255941 237.35075 
L 295.434555 227.700647 
L 296.57515 233.144872 
L 297.753765 228.100899 
L 298.894359 229.93134 
L 300.072974 237.0669 
L 301.251588 249.416792 
L 302.316143 251.489651 
L 303.494758 245.374237 
L 304.635353 245.71889 
L 305.813967 239.347428 
L 306.954562 226.038772 
L 308.133176 223.300571 
L 309.311791 227.931238 
L 310.452386 225.125269 
L 312.771595 269.186136 
L 313.950209 259.375472 
L 315.128824 251.952813 
L 316.193379 223.571556 
L 317.371993 233.428733 
L 318.512588 237.400664 
L 319.691203 244.294125 
L 320.831797 248.191269 
L 322.010412 234.375757 
L 323.189026 234.252386 
L 324.329621 235.340513 
L 325.508236 237.936502 
L 326.64883 231.217174 
L 327.827445 233.352981 
L 329.006059 223.312886 
L 330.108634 238.0445 
L 331.287249 240.689483 
L 332.427843 241.875595 
L 333.606458 240.080879 
L 334.747053 246.572527 
L 335.925667 260.071679 
L 337.104282 264.637141 
L 338.244876 265.21987 
L 339.423491 236.168616 
L 340.564086 222.881154 
L 341.7427 221.906522 
L 342.921315 224.046652 
L 343.98587 240.6692 
L 345.164484 245.955732 
L 346.305079 246.899786 
L 347.483693 246.401124 
L 348.624288 231.70368 
L 349.802903 228.638111 
L 350.981517 223.063245 
L 352.122112 224.555666 
L 353.300726 221.708864 
L 354.441321 223.03054 
L 355.619936 235.142482 
L 356.79855 242.20528 
L 357.863105 245.124931 
L 359.04172 243.09501 
L 360.182314 248.093417 
L 361.360929 241.231885 
L 363.680138 246.412806 
L 364.858753 244.327285 
L 365.999347 246.315826 
L 367.177962 248.789289 
L 368.318557 249.334939 
L 369.497171 242.87866 
L 370.675786 241.291754 
L 371.740341 239.119996 
L 372.918955 233.756349 
L 374.05955 227.521829 
L 375.238164 230.132441 
L 376.378759 228.539518 
L 378.735988 242.054023 
L 379.876583 250.721409 
L 381.055197 262.717062 
L 382.195792 243.849784 
L 383.374407 236.109724 
L 384.553021 234.724671 
L 385.655596 234.297111 
L 386.834211 236.427598 
L 387.974805 239.568212 
L 389.15342 241.380606 
L 390.294014 246.561991 
L 391.472629 237.463595 
L 392.651244 234.152708 
L 393.791838 224.191133 
L 394.970453 221.93829 
L 396.111047 241.471736 
L 397.289662 246.885552 
L 398.468277 247.036316 
L 399.532832 240.649403 
L 400.711446 240.538578 
L 401.852041 238.646962 
L 403.030655 238.969605 
L 404.17125 238.133113 
L 404.17125 238.133113 
" clip-path="url(#p76a153a768)" style="fill: none; stroke: #47a730; stroke-width: 0.5; stroke-linecap: square"/>
   </g>
   <g id="patch_12">
    <path d="M 33.62625 271.56 
L 33.62625 219.335 
" style="fill: none; stroke: #000000; stroke-width: 0.8; stroke-linejoin: miter; stroke-linecap: square"/>
   </g>
   <g id="patch_13">
    <path d="M 33.62625 271.56 
L 421.81625 271.56 
" style="fill: none; stroke: #000000; stroke-width: 0.8; stroke-linejoin: miter; stroke-linecap: square"/>
   </g>
  </g>
  <g id="legend_1">
   <g id="line2d_79">
    <path d="M 59.869375 13.67875 
L 67.869375 13.67875 
L 75.869375 13.67875 
" style="fill: none; stroke: #4596f3; stroke-width: 0.5; stroke-linecap: square"/>
   </g>
   <g id="text_18">
    <!-- Observado -->
    <g transform="translate(82.269375 16.47875) scale(0.08 -0.08)">
     <defs>
      <path id="DejaVuSerif-4f" d="M 2625 244 
Q 3391 244 3781 770 
Q 4172 1297 4172 2328 
Q 4172 3363 3781 3889 
Q 3391 4416 2625 4416 
Q 1856 4416 1465 3889 
Q 1075 3363 1075 2328 
Q 1075 1297 1465 770 
Q 1856 244 2625 244 
z
M 2625 -91 
Q 2150 -91 1751 65 
Q 1353 222 1050 525 
Q 700 875 529 1319 
Q 359 1763 359 2328 
Q 359 2894 529 3339 
Q 700 3784 1050 4134 
Q 1356 4441 1750 4595 
Q 2144 4750 2625 4750 
Q 3641 4750 4266 4084 
Q 4891 3419 4891 2328 
Q 4891 1769 4719 1320 
Q 4547 872 4197 525 
Q 3891 219 3497 64 
Q 3103 -91 2625 -91 
z
" transform="scale(0.015625)"/>
      <path id="DejaVuSerif-62" d="M 738 331 
L 738 4531 
L 184 4531 
L 184 4863 
L 1313 4863 
L 1313 2803 
Q 1481 3116 1742 3264 
Q 2003 3413 2388 3413 
Q 3000 3413 3387 2928 
Q 3775 2444 3775 1663 
Q 3775 881 3387 395 
Q 3000 -91 2388 -91 
Q 2003 -91 1742 57 
Q 1481 206 1313 519 
L 1313 0 
L 184 0 
L 184 331 
L 738 331 
z
M 1313 1497 
Q 1313 897 1542 583 
Q 1772 269 2209 269 
Q 2650 269 2876 622 
Q 3103 975 3103 1663 
Q 3103 2353 2876 2703 
Q 2650 3053 2209 3053 
Q 1772 3053 1542 2737 
Q 1313 2422 1313 1825 
L 1313 1497 
z
" transform="scale(0.015625)"/>
      <path id="DejaVuSerif-76" d="M 1581 0 
L 359 2988 
L -19 2988 
L -19 3322 
L 1509 3322 
L 1509 2988 
L 978 2988 
L 1913 703 
L 2847 2988 
L 2350 2988 
L 2350 3322 
L 3597 3322 
L 3597 2988 
L 3225 2988 
L 2003 0 
L 1581 0 
z
" transform="scale(0.015625)"/>
      <path id="DejaVuSerif-64" d="M 3359 331 
L 3909 331 
L 3909 0 
L 2784 0 
L 2784 519 
Q 2616 206 2355 57 
Q 2094 -91 1709 -91 
Q 1097 -91 708 395 
Q 319 881 319 1663 
Q 319 2444 706 2928 
Q 1094 3413 1709 3413 
Q 2094 3413 2355 3264 
Q 2616 3116 2784 2803 
L 2784 4531 
L 2241 4531 
L 2241 4863 
L 3359 4863 
L 3359 331 
z
M 2784 1497 
L 2784 1825 
Q 2784 2422 2554 2737 
Q 2325 3053 1888 3053 
Q 1444 3053 1217 2703 
Q 991 2353 991 1663 
Q 991 975 1217 622 
Q 1444 269 1888 269 
Q 2325 269 2554 583 
Q 2784 897 2784 1497 
z
" transform="scale(0.015625)"/>
      <path id="DejaVuSerif-6f" d="M 1925 219 
Q 2388 219 2623 584 
Q 2859 950 2859 1663 
Q 2859 2375 2623 2739 
Q 2388 3103 1925 3103 
Q 1463 3103 1227 2739 
Q 991 2375 991 1663 
Q 991 950 1228 584 
Q 1466 219 1925 219 
z
M 1925 -91 
Q 1200 -91 759 389 
Q 319 869 319 1663 
Q 319 2456 758 2934 
Q 1197 3413 1925 3413 
Q 2653 3413 3092 2934 
Q 3531 2456 3531 1663 
Q 3531 869 3092 389 
Q 2653 -91 1925 -91 
z
" transform="scale(0.015625)"/>
     </defs>
     <use xlink:href="#DejaVuSerif-4f"/>
     <use xlink:href="#DejaVuSerif-62" transform="translate(81.982422 0)"/>
     <use xlink:href="#DejaVuSerif-73" transform="translate(145.996094 0)"/>
     <use xlink:href="#DejaVuSerif-65" transform="translate(197.314453 0)"/>
     <use xlink:href="#DejaVuSerif-72" transform="translate(256.494141 0)"/>
     <use xlink:href="#DejaVuSerif-76" transform="translate(304.296875 0)"/>
     <use xlink:href="#DejaVuSerif-61" transform="translate(360.791016 0)"/>
     <use xlink:href="#DejaVuSerif-64" transform="translate(420.410156 0)"/>
     <use xlink:href="#DejaVuSerif-6f" transform="translate(484.423828 0)"/>
    </g>
   </g>
   <g id="line2d_80">
    <path d="M 141.840625 13.67875 
L 149.840625 13.67875 
L 157.840625 13.67875 
" style="fill: none; stroke: #ff5656; stroke-width: 0.5; stroke-linecap: square"/>
   </g>
   <g id="text_19">
    <!-- Tendência -->
    <g transform="translate(164.240625 16.47875) scale(0.08 -0.08)">
     <defs>
      <path id="DejaVuSerif-54" d="M 1222 0 
L 1222 331 
L 1819 331 
L 1819 4294 
L 447 4294 
L 447 3566 
L 63 3566 
L 63 4666 
L 4206 4666 
L 4206 3566 
L 3822 3566 
L 3822 4294 
L 2450 4294 
L 2450 331 
L 3047 331 
L 3047 0 
L 1222 0 
z
" transform="scale(0.015625)"/>
      <path id="DejaVuSerif-6e" d="M 263 0 
L 263 331 
L 781 331 
L 781 2988 
L 231 2988 
L 231 3322 
L 1356 3322 
L 1356 2731 
Q 1516 3069 1770 3241 
Q 2025 3413 2363 3413 
Q 2913 3413 3172 3097 
Q 3431 2781 3431 2113 
L 3431 331 
L 3944 331 
L 3944 0 
L 2356 0 
L 2356 331 
L 2853 331 
L 2853 1931 
Q 2853 2541 2703 2767 
Q 2553 2994 2175 2994 
Q 1775 2994 1565 2701 
Q 1356 2409 1356 1850 
L 1356 331 
L 1856 331 
L 1856 0 
L 263 0 
z
" transform="scale(0.015625)"/>
      <path id="DejaVuSerif-ea" d="M 3469 1600 
L 991 1600 
L 991 1575 
Q 991 903 1244 561 
Q 1497 219 1991 219 
Q 2369 219 2611 417 
Q 2853 616 2950 1006 
L 3413 1006 
Q 3275 459 2904 184 
Q 2534 -91 1931 -91 
Q 1203 -91 761 389 
Q 319 869 319 1663 
Q 319 2450 753 2931 
Q 1188 3413 1894 3413 
Q 2647 3413 3050 2948 
Q 3453 2484 3469 1600 
z
M 2791 1931 
Q 2772 2513 2545 2808 
Q 2319 3103 1894 3103 
Q 1497 3103 1269 2806 
Q 1041 2509 991 1931 
L 2791 1931 
z
M 1634 5119 
L 2159 5119 
L 2893 3944 
L 2530 3944 
L 1896 4756 
L 1262 3944 
L 899 3944 
L 1634 5119 
z
" transform="scale(0.015625)"/>
     </defs>
     <use xlink:href="#DejaVuSerif-54"/>
     <use xlink:href="#DejaVuSerif-65" transform="translate(58.949219 0)"/>
     <use xlink:href="#DejaVuSerif-6e" transform="translate(118.128906 0)"/>
     <use xlink:href="#DejaVuSerif-64" transform="translate(182.533203 0)"/>
     <use xlink:href="#DejaVuSerif-ea" transform="translate(246.546875 0)"/>
     <use xlink:href="#DejaVuSerif-6e" transform="translate(305.726562 0)"/>
     <use xlink:href="#DejaVuSerif-63" transform="translate(370.130859 0)"/>
     <use xlink:href="#DejaVuSerif-69" transform="translate(426.136719 0)"/>
     <use xlink:href="#DejaVuSerif-61" transform="translate(458.119141 0)"/>
    </g>
   </g>
   <g id="line2d_81">
    <path d="M 221.661875 13.67875 
L 229.661875 13.67875 
L 237.661875 13.67875 
" style="fill: none; stroke: #ffa722; stroke-width: 0.5; stroke-linecap: square"/>
   </g>
   <g id="text_20">
    <!-- Sazonalidade -->
    <g transform="translate(244.061875 16.47875) scale(0.08 -0.08)">
     <defs>
      <path id="DejaVuSerif-7a" d="M 256 0 
L 256 269 
L 2338 2988 
L 691 2988 
L 691 2413 
L 359 2413 
L 359 3322 
L 3078 3322 
L 3078 3053 
L 997 331 
L 2803 331 
L 2803 934 
L 3138 934 
L 3138 0 
L 256 0 
z
" transform="scale(0.015625)"/>
      <path id="DejaVuSerif-6c" d="M 1313 331 
L 1856 331 
L 1856 0 
L 184 0 
L 184 331 
L 738 331 
L 738 4531 
L 184 4531 
L 184 4863 
L 1313 4863 
L 1313 331 
z
" transform="scale(0.015625)"/>
     </defs>
     <use xlink:href="#DejaVuSerif-53"/>
     <use xlink:href="#DejaVuSerif-61" transform="translate(68.505859 0)"/>
     <use xlink:href="#DejaVuSerif-7a" transform="translate(128.125 0)"/>
     <use xlink:href="#DejaVuSerif-6f" transform="translate(180.810547 0)"/>
     <use xlink:href="#DejaVuSerif-6e" transform="translate(241.015625 0)"/>
     <use xlink:href="#DejaVuSerif-61" transform="translate(305.419922 0)"/>
     <use xlink:href="#DejaVuSerif-6c" transform="translate(365.039062 0)"/>
     <use xlink:href="#DejaVuSerif-69" transform="translate(397.021484 0)"/>
     <use xlink:href="#DejaVuSerif-64" transform="translate(429.003906 0)"/>
     <use xlink:href="#DejaVuSerif-61" transform="translate(493.017578 0)"/>
     <use xlink:href="#DejaVuSerif-64" transform="translate(552.636719 0)"/>
     <use xlink:href="#DejaVuSerif-65" transform="translate(616.650391 0)"/>
    </g>
   </g>
   <g id="line2d_82">
    <path d="M 314.130625 13.67875 
L 322.130625 13.67875 
L 330.130625 13.67875 
" style="fill: none; stroke: #47a730; stroke-width: 0.5; stroke-linecap: square"/>
   </g>
   <g id="text_21">
    <!-- Resíduo -->
    <g transform="translate(336.530625 16.47875) scale(0.08 -0.08)">
     <defs>
      <path id="DejaVuSerif-52" d="M 3066 2316 
Q 3284 2256 3442 2114 
Q 3600 1972 3725 1716 
L 4403 331 
L 4972 331 
L 4972 0 
L 3872 0 
L 3144 1484 
Q 2934 1916 2759 2042 
Q 2584 2169 2278 2169 
L 1581 2169 
L 1581 331 
L 2241 331 
L 2241 0 
L 353 0 
L 353 331 
L 947 331 
L 947 4331 
L 353 4331 
L 353 4666 
L 2719 4666 
Q 3400 4666 3770 4341 
Q 4141 4016 4141 3419 
Q 4141 2938 3870 2661 
Q 3600 2384 3066 2316 
z
M 1581 2503 
L 2503 2503 
Q 2975 2503 3200 2726 
Q 3425 2950 3425 3419 
Q 3425 3888 3200 4109 
Q 2975 4331 2503 4331 
L 1581 4331 
L 1581 2503 
z
" transform="scale(0.015625)"/>
      <path id="DejaVuSerif-ed" d="M 1356 331 
L 1900 331 
L 1900 0 
L 231 0 
L 231 331 
L 781 331 
L 781 2988 
L 231 2988 
L 231 3322 
L 1356 3322 
L 1356 331 
z
M 1458 5119 
L 2080 5119 
L 1018 3944 
L 652 3944 
L 1458 5119 
z
" transform="scale(0.015625)"/>
      <path id="DejaVuSerif-75" d="M 2266 3322 
L 3341 3322 
L 3341 331 
L 3884 331 
L 3884 0 
L 2766 0 
L 2766 588 
Q 2606 256 2353 82 
Q 2100 -91 1766 -91 
Q 1213 -91 952 223 
Q 691 538 691 1209 
L 691 2988 
L 172 2988 
L 172 3322 
L 1269 3322 
L 1269 1388 
Q 1269 781 1417 556 
Q 1566 331 1947 331 
Q 2347 331 2556 625 
Q 2766 919 2766 1478 
L 2766 2988 
L 2266 2988 
L 2266 3322 
z
" transform="scale(0.015625)"/>
     </defs>
     <use xlink:href="#DejaVuSerif-52"/>
     <use xlink:href="#DejaVuSerif-65" transform="translate(75.292969 0)"/>
     <use xlink:href="#DejaVuSerif-73" transform="translate(134.472656 0)"/>
     <use xlink:href="#DejaVuSerif-ed" transform="translate(185.791016 0)"/>
     <use xlink:href="#DejaVuSerif-64" transform="translate(217.773438 0)"/>
     <use xlink:href="#DejaVuSerif-75" transform="translate(281.787109 0)"/>
     <use xlink:href="#DejaVuSerif-6f" transform="translate(346.191406 0)"/>
    </g>
   </g>
  </g>
 </g>
 <defs>
  <clipPath id="pfa21ff36d1">
   <rect x="33.62625" y="26.24" width="388.19" height="52.225"/>
  </clipPath>
  <clipPath id="pdfaeea1d3a">
   <rect x="33.62625" y="90.605" width="388.19" height="52.225"/>
  </clipPath>
  <clipPath id="p69485fb376">
   <rect x="33.62625" y="154.97" width="388.19" height="52.225"/>
  </clipPath>
  <clipPath id="p76a153a768">
   <rect x="33.62625" y="219.335" width="388.19" height="52.225"/>
  </clipPath>
 </defs>
</svg>
