<?xml version="1.0" encoding="utf-8" standalone="no"?>
<!DOCTYPE svg PUBLIC "-//W3C//DTD SVG 1.1//EN"
  "http://www.w3.org/Graphics/SVG/1.1/DTD/svg11.dtd">
<svg xmlns:xlink="http://www.w3.org/1999/xlink" width="429.57625pt" height="305.245pt" viewBox="0 0 429.57625 305.245" xmlns="http://www.w3.org/2000/svg" version="1.1">
 <metadata>
  <rdf:RDF xmlns:dc="http://purl.org/dc/elements/1.1/" xmlns:cc="http://creativecommons.org/ns#" xmlns:rdf="http://www.w3.org/1999/02/22-rdf-syntax-ns#">
   <cc:Work>
    <dc:type rdf:resource="http://purl.org/dc/dcmitype/StillImage"/>
    <dc:date>2025-06-30T00:35:11.229673</dc:date>
    <dc:format>image/svg+xml</dc:format>
    <dc:creator>
     <cc:Agent>
      <dc:title>Matplotlib v3.10.3, https://matplotlib.org/</dc:title>
     </cc:Agent>
    </dc:creator>
   </cc:Work>
  </rdf:RDF>
 </metadata>
 <defs>
  <style type="text/css">*{stroke-linejoin: round; stroke-linecap: butt}</style>
 </defs>
 <g id="figure_1">
  <g id="patch_1">
   <path d="M 0 305.245 
L 429.57625 305.245 
L 429.57625 0 
L 0 0 
z
" style="fill: #ffffff"/>
  </g>
  <g id="axes_1">
   <g id="patch_2">
    <path d="M 37.73625 78.465 
L 422.37625 78.465 
L 422.37625 26.24 
L 37.73625 26.24 
z
" style="fill: #ffffff"/>
   </g>
   <g id="matplotlib.axis_1">
    <g id="xtick_1">
     <g id="line2d_1">
      <path d="M 54.089722 78.465 
L 54.089722 26.24 
" clip-path="url(#p63da5e9353)" style="fill: none; stroke-dasharray: 2.96,1.28; stroke-dashoffset: 0; stroke: #b0b0b0; stroke-opacity: 0.5; stroke-width: 0.8"/>
     </g>
     <g id="line2d_2">
      <defs>
       <path id="mda89151ca5" d="M 0 0 
L 0 3.5 
" style="stroke: #000000; stroke-width: 0.8"/>
      </defs>
      <g>
       <use xlink:href="#mda89151ca5" x="54.089722" y="78.465" style="stroke: #000000; stroke-width: 0.8"/>
      </g>
     </g>
    </g>
    <g id="xtick_2">
     <g id="line2d_3">
      <path d="M 109.128707 78.465 
L 109.128707 26.24 
" clip-path="url(#p63da5e9353)" style="fill: none; stroke-dasharray: 2.96,1.28; stroke-dashoffset: 0; stroke: #b0b0b0; stroke-opacity: 0.5; stroke-width: 0.8"/>
     </g>
     <g id="line2d_4">
      <g>
       <use xlink:href="#mda89151ca5" x="109.128707" y="78.465" style="stroke: #000000; stroke-width: 0.8"/>
      </g>
     </g>
    </g>
    <g id="xtick_3">
     <g id="line2d_5">
      <path d="M 164.167691 78.465 
L 164.167691 26.24 
" clip-path="url(#p63da5e9353)" style="fill: none; stroke-dasharray: 2.96,1.28; stroke-dashoffset: 0; stroke: #b0b0b0; stroke-opacity: 0.5; stroke-width: 0.8"/>
     </g>
     <g id="line2d_6">
      <g>
       <use xlink:href="#mda89151ca5" x="164.167691" y="78.465" style="stroke: #000000; stroke-width: 0.8"/>
      </g>
     </g>
    </g>
    <g id="xtick_4">
     <g id="line2d_7">
      <path d="M 219.206676 78.465 
L 219.206676 26.24 
" clip-path="url(#p63da5e9353)" style="fill: none; stroke-dasharray: 2.96,1.28; stroke-dashoffset: 0; stroke: #b0b0b0; stroke-opacity: 0.5; stroke-width: 0.8"/>
     </g>
     <g id="line2d_8">
      <g>
       <use xlink:href="#mda89151ca5" x="219.206676" y="78.465" style="stroke: #000000; stroke-width: 0.8"/>
      </g>
     </g>
    </g>
    <g id="xtick_5">
     <g id="line2d_9">
      <path d="M 274.245661 78.465 
L 274.245661 26.24 
" clip-path="url(#p63da5e9353)" style="fill: none; stroke-dasharray: 2.96,1.28; stroke-dashoffset: 0; stroke: #b0b0b0; stroke-opacity: 0.5; stroke-width: 0.8"/>
     </g>
     <g id="line2d_10">
      <g>
       <use xlink:href="#mda89151ca5" x="274.245661" y="78.465" style="stroke: #000000; stroke-width: 0.8"/>
      </g>
     </g>
    </g>
    <g id="xtick_6">
     <g id="line2d_11">
      <path d="M 329.284645 78.465 
L 329.284645 26.24 
" clip-path="url(#p63da5e9353)" style="fill: none; stroke-dasharray: 2.96,1.28; stroke-dashoffset: 0; stroke: #b0b0b0; stroke-opacity: 0.5; stroke-width: 0.8"/>
     </g>
     <g id="line2d_12">
      <g>
       <use xlink:href="#mda89151ca5" x="329.284645" y="78.465" style="stroke: #000000; stroke-width: 0.8"/>
      </g>
     </g>
    </g>
    <g id="xtick_7">
     <g id="line2d_13">
      <path d="M 384.32363 78.465 
L 384.32363 26.24 
" clip-path="url(#p63da5e9353)" style="fill: none; stroke-dasharray: 2.96,1.28; stroke-dashoffset: 0; stroke: #b0b0b0; stroke-opacity: 0.5; stroke-width: 0.8"/>
     </g>
     <g id="line2d_14">
      <g>
       <use xlink:href="#mda89151ca5" x="384.32363" y="78.465" style="stroke: #000000; stroke-width: 0.8"/>
      </g>
     </g>
    </g>
   </g>
   <g id="matplotlib.axis_2">
    <g id="ytick_1">
     <g id="line2d_15">
      <path d="M 37.73625 70.236681 
L 422.37625 70.236681 
" clip-path="url(#p63da5e9353)" style="fill: none; stroke-dasharray: 2.96,1.28; stroke-dashoffset: 0; stroke: #b0b0b0; stroke-opacity: 0.5; stroke-width: 0.8"/>
     </g>
     <g id="line2d_16">
      <defs>
       <path id="m013246899e" d="M 0 0 
L -3.5 0 
" style="stroke: #000000; stroke-width: 0.8"/>
      </defs>
      <g>
       <use xlink:href="#m013246899e" x="37.73625" y="70.236681" style="stroke: #000000; stroke-width: 0.8"/>
      </g>
     </g>
     <g id="text_1">
      <!-- −2 -->
      <g transform="translate(18.9425 73.276056) scale(0.08 -0.08)">
       <defs>
        <path id="DejaVuSerif-2212" d="M 678 2259 
L 4684 2259 
L 4684 1753 
L 678 1753 
L 678 2259 
z
" transform="scale(0.015625)"/>
        <path id="DejaVuSerif-32" d="M 819 3553 
L 469 3553 
L 469 4384 
Q 803 4563 1142 4656 
Q 1481 4750 1806 4750 
Q 2534 4750 2956 4397 
Q 3378 4044 3378 3438 
Q 3378 2753 2422 1800 
Q 2347 1728 2309 1691 
L 1131 513 
L 3078 513 
L 3078 1088 
L 3444 1088 
L 3444 0 
L 434 0 
L 434 341 
L 1850 1753 
Q 2319 2222 2519 2614 
Q 2719 3006 2719 3438 
Q 2719 3909 2473 4175 
Q 2228 4441 1797 4441 
Q 1350 4441 1106 4219 
Q 863 3997 819 3553 
z
" transform="scale(0.015625)"/>
       </defs>
       <use xlink:href="#DejaVuSerif-2212"/>
       <use xlink:href="#DejaVuSerif-32" transform="translate(83.789062 0)"/>
      </g>
     </g>
    </g>
    <g id="ytick_2">
     <g id="line2d_17">
      <path d="M 37.73625 52.497891 
L 422.37625 52.497891 
" clip-path="url(#p63da5e9353)" style="fill: none; stroke-dasharray: 2.96,1.28; stroke-dashoffset: 0; stroke: #b0b0b0; stroke-opacity: 0.5; stroke-width: 0.8"/>
     </g>
     <g id="line2d_18">
      <g>
       <use xlink:href="#m013246899e" x="37.73625" y="52.497891" style="stroke: #000000; stroke-width: 0.8"/>
      </g>
     </g>
     <g id="text_2">
      <!-- 0 -->
      <g transform="translate(25.64625 55.537266) scale(0.08 -0.08)">
       <defs>
        <path id="DejaVuSerif-30" d="M 2034 219 
Q 2513 219 2750 744 
Q 2988 1269 2988 2328 
Q 2988 3391 2750 3916 
Q 2513 4441 2034 4441 
Q 1556 4441 1318 3916 
Q 1081 3391 1081 2328 
Q 1081 1269 1318 744 
Q 1556 219 2034 219 
z
M 2034 -91 
Q 1275 -91 848 546 
Q 422 1184 422 2328 
Q 422 3475 848 4112 
Q 1275 4750 2034 4750 
Q 2797 4750 3222 4112 
Q 3647 3475 3647 2328 
Q 3647 1184 3222 546 
Q 2797 -91 2034 -91 
z
" transform="scale(0.015625)"/>
       </defs>
       <use xlink:href="#DejaVuSerif-30"/>
      </g>
     </g>
    </g>
    <g id="ytick_3">
     <g id="line2d_19">
      <path d="M 37.73625 34.7591 
L 422.37625 34.7591 
" clip-path="url(#p63da5e9353)" style="fill: none; stroke-dasharray: 2.96,1.28; stroke-dashoffset: 0; stroke: #b0b0b0; stroke-opacity: 0.5; stroke-width: 0.8"/>
     </g>
     <g id="line2d_20">
      <g>
       <use xlink:href="#m013246899e" x="37.73625" y="34.7591" style="stroke: #000000; stroke-width: 0.8"/>
      </g>
     </g>
     <g id="text_3">
      <!-- 2 -->
      <g transform="translate(25.64625 37.798475) scale(0.08 -0.08)">
       <use xlink:href="#DejaVuSerif-32"/>
      </g>
     </g>
    </g>
    <g id="text_4">
     <!-- Observado -->
     <g transform="translate(13.27875 74.138125) rotate(-90) scale(0.08 -0.08)">
      <defs>
       <path id="DejaVuSerif-4f" d="M 2625 244 
Q 3391 244 3781 770 
Q 4172 1297 4172 2328 
Q 4172 3363 3781 3889 
Q 3391 4416 2625 4416 
Q 1856 4416 1465 3889 
Q 1075 3363 1075 2328 
Q 1075 1297 1465 770 
Q 1856 244 2625 244 
z
M 2625 -91 
Q 2150 -91 1751 65 
Q 1353 222 1050 525 
Q 700 875 529 1319 
Q 359 1763 359 2328 
Q 359 2894 529 3339 
Q 700 3784 1050 4134 
Q 1356 4441 1750 4595 
Q 2144 4750 2625 4750 
Q 3641 4750 4266 4084 
Q 4891 3419 4891 2328 
Q 4891 1769 4719 1320 
Q 4547 872 4197 525 
Q 3891 219 3497 64 
Q 3103 -91 2625 -91 
z
" transform="scale(0.015625)"/>
       <path id="DejaVuSerif-62" d="M 738 331 
L 738 4531 
L 184 4531 
L 184 4863 
L 1313 4863 
L 1313 2803 
Q 1481 3116 1742 3264 
Q 2003 3413 2388 3413 
Q 3000 3413 3387 2928 
Q 3775 2444 3775 1663 
Q 3775 881 3387 395 
Q 3000 -91 2388 -91 
Q 2003 -91 1742 57 
Q 1481 206 1313 519 
L 1313 0 
L 184 0 
L 184 331 
L 738 331 
z
M 1313 1497 
Q 1313 897 1542 583 
Q 1772 269 2209 269 
Q 2650 269 2876 622 
Q 3103 975 3103 1663 
Q 3103 2353 2876 2703 
Q 2650 3053 2209 3053 
Q 1772 3053 1542 2737 
Q 1313 2422 1313 1825 
L 1313 1497 
z
" transform="scale(0.015625)"/>
       <path id="DejaVuSerif-73" d="M 359 184 
L 359 959 
L 691 959 
Q 703 588 923 403 
Q 1144 219 1575 219 
Q 1963 219 2166 364 
Q 2369 509 2369 788 
Q 2369 1006 2220 1140 
Q 2072 1275 1594 1428 
L 1178 1569 
Q 750 1706 558 1912 
Q 366 2119 366 2438 
Q 366 2894 700 3153 
Q 1034 3413 1625 3413 
Q 1888 3413 2178 3344 
Q 2469 3275 2778 3144 
L 2778 2419 
L 2447 2419 
Q 2434 2741 2221 2922 
Q 2009 3103 1644 3103 
Q 1281 3103 1095 2975 
Q 909 2847 909 2591 
Q 909 2381 1050 2254 
Q 1191 2128 1613 1997 
L 2069 1856 
Q 2541 1709 2748 1489 
Q 2956 1269 2956 922 
Q 2956 450 2595 179 
Q 2234 -91 1600 -91 
Q 1278 -91 972 -22 
Q 666 47 359 184 
z
" transform="scale(0.015625)"/>
       <path id="DejaVuSerif-65" d="M 3469 1600 
L 991 1600 
L 991 1575 
Q 991 903 1244 561 
Q 1497 219 1991 219 
Q 2369 219 2611 417 
Q 2853 616 2950 1006 
L 3413 1006 
Q 3275 459 2904 184 
Q 2534 -91 1931 -91 
Q 1203 -91 761 389 
Q 319 869 319 1663 
Q 319 2450 753 2931 
Q 1188 3413 1894 3413 
Q 2647 3413 3050 2948 
Q 3453 2484 3469 1600 
z
M 2791 1931 
Q 2772 2513 2545 2808 
Q 2319 3103 1894 3103 
Q 1497 3103 1269 2806 
Q 1041 2509 991 1931 
L 2791 1931 
z
" transform="scale(0.015625)"/>
       <path id="DejaVuSerif-72" d="M 3059 3328 
L 3059 2497 
L 2728 2497 
Q 2713 2744 2591 2866 
Q 2469 2988 2234 2988 
Q 1809 2988 1582 2694 
Q 1356 2400 1356 1850 
L 1356 331 
L 2022 331 
L 2022 0 
L 263 0 
L 263 331 
L 781 331 
L 781 2994 
L 231 2994 
L 231 3322 
L 1356 3322 
L 1356 2731 
Q 1525 3078 1790 3245 
Q 2056 3413 2438 3413 
Q 2578 3413 2733 3391 
Q 2888 3369 3059 3328 
z
" transform="scale(0.015625)"/>
       <path id="DejaVuSerif-76" d="M 1581 0 
L 359 2988 
L -19 2988 
L -19 3322 
L 1509 3322 
L 1509 2988 
L 978 2988 
L 1913 703 
L 2847 2988 
L 2350 2988 
L 2350 3322 
L 3597 3322 
L 3597 2988 
L 3225 2988 
L 2003 0 
L 1581 0 
z
" transform="scale(0.015625)"/>
       <path id="DejaVuSerif-61" d="M 2547 1044 
L 2547 1747 
L 1806 1747 
Q 1378 1747 1168 1562 
Q 959 1378 959 997 
Q 959 650 1171 447 
Q 1384 244 1747 244 
Q 2106 244 2326 466 
Q 2547 688 2547 1044 
z
M 3122 2075 
L 3122 331 
L 3634 331 
L 3634 0 
L 2547 0 
L 2547 359 
Q 2356 128 2106 18 
Q 1856 -91 1522 -91 
Q 969 -91 644 203 
Q 319 497 319 997 
Q 319 1513 691 1797 
Q 1063 2081 1741 2081 
L 2547 2081 
L 2547 2309 
Q 2547 2688 2317 2895 
Q 2088 3103 1672 3103 
Q 1328 3103 1125 2947 
Q 922 2791 872 2484 
L 575 2484 
L 575 3156 
Q 875 3284 1158 3348 
Q 1441 3413 1709 3413 
Q 2400 3413 2761 3070 
Q 3122 2728 3122 2075 
z
" transform="scale(0.015625)"/>
       <path id="DejaVuSerif-64" d="M 3359 331 
L 3909 331 
L 3909 0 
L 2784 0 
L 2784 519 
Q 2616 206 2355 57 
Q 2094 -91 1709 -91 
Q 1097 -91 708 395 
Q 319 881 319 1663 
Q 319 2444 706 2928 
Q 1094 3413 1709 3413 
Q 2094 3413 2355 3264 
Q 2616 3116 2784 2803 
L 2784 4531 
L 2241 4531 
L 2241 4863 
L 3359 4863 
L 3359 331 
z
M 2784 1497 
L 2784 1825 
Q 2784 2422 2554 2737 
Q 2325 3053 1888 3053 
Q 1444 3053 1217 2703 
Q 991 2353 991 1663 
Q 991 975 1217 622 
Q 1444 269 1888 269 
Q 2325 269 2554 583 
Q 2784 897 2784 1497 
z
" transform="scale(0.015625)"/>
       <path id="DejaVuSerif-6f" d="M 1925 219 
Q 2388 219 2623 584 
Q 2859 950 2859 1663 
Q 2859 2375 2623 2739 
Q 2388 3103 1925 3103 
Q 1463 3103 1227 2739 
Q 991 2375 991 1663 
Q 991 950 1228 584 
Q 1466 219 1925 219 
z
M 1925 -91 
Q 1200 -91 759 389 
Q 319 869 319 1663 
Q 319 2456 758 2934 
Q 1197 3413 1925 3413 
Q 2653 3413 3092 2934 
Q 3531 2456 3531 1663 
Q 3531 869 3092 389 
Q 2653 -91 1925 -91 
z
" transform="scale(0.015625)"/>
      </defs>
      <use xlink:href="#DejaVuSerif-4f"/>
      <use xlink:href="#DejaVuSerif-62" transform="translate(81.982422 0)"/>
      <use xlink:href="#DejaVuSerif-73" transform="translate(145.996094 0)"/>
      <use xlink:href="#DejaVuSerif-65" transform="translate(197.314453 0)"/>
      <use xlink:href="#DejaVuSerif-72" transform="translate(256.494141 0)"/>
      <use xlink:href="#DejaVuSerif-76" transform="translate(304.296875 0)"/>
      <use xlink:href="#DejaVuSerif-61" transform="translate(360.791016 0)"/>
      <use xlink:href="#DejaVuSerif-64" transform="translate(420.410156 0)"/>
      <use xlink:href="#DejaVuSerif-6f" transform="translate(484.423828 0)"/>
     </g>
    </g>
   </g>
   <g id="line2d_21">
    <path d="M 55.219886 63.633807 
L 56.312378 61.712955 
L 57.480214 61.542789 
L 58.610378 61.643188 
L 59.778214 61.496226 
L 62.076214 63.695899 
L 63.24405 63.437909 
L 64.374214 62.299788 
L 65.54205 59.049054 
L 66.672214 62.037338 
L 67.840051 63.815278 
L 69.007887 61.207257 
L 70.062706 59.587379 
L 71.230542 59.566005 
L 72.360706 61.041784 
L 73.528542 65.732717 
L 74.658706 75.334182 
L 75.826542 75.638562 
L 76.994379 75.569322 
L 78.124542 76.091136 
L 79.292379 73.414968 
L 80.422543 73.139112 
L 81.590379 73.489342 
L 82.758215 71.537936 
L 83.813034 68.78068 
L 84.98087 64.556307 
L 86.111034 64.195199 
L 87.278871 66.749249 
L 88.409034 66.952886 
L 89.576871 66.747388 
L 90.744707 64.649684 
L 91.874871 65.500784 
L 93.042707 61.269184 
L 94.172871 61.568838 
L 95.340707 62.631209 
L 96.508543 61.927029 
L 97.563362 59.251984 
L 98.731199 61.122311 
L 99.861363 60.80082 
L 102.159363 64.265427 
L 103.327199 64.171107 
L 104.495035 63.519712 
L 105.625199 61.253384 
L 106.793035 60.231847 
L 107.923199 61.382842 
L 109.091035 61.917829 
L 110.258871 62.958967 
L 111.351363 61.094338 
L 112.519199 58.182143 
L 113.649363 59.402564 
L 114.817199 59.830189 
L 115.947363 60.569212 
L 118.283035 59.460487 
L 119.413199 58.745434 
L 120.581035 59.583588 
L 121.711199 58.03597 
L 124.046871 55.806161 
L 125.101691 54.262382 
L 126.269527 52.827205 
L 127.399691 55.022845 
L 128.567527 58.243654 
L 129.697691 57.83856 
L 130.865527 59.236647 
L 132.033363 57.323444 
L 133.163527 57.375444 
L 134.331363 56.252472 
L 135.461527 56.778854 
L 136.629363 55.439398 
L 137.797199 52.688186 
L 138.852019 52.84958 
L 140.019855 51.526072 
L 141.150019 54.37292 
L 142.317855 56.082108 
L 143.448019 55.76703 
L 144.615855 56.724299 
L 145.783691 54.568309 
L 146.913855 56.243815 
L 148.081691 55.381485 
L 149.211855 53.142804 
L 150.379691 53.516313 
L 151.547527 50.754841 
L 152.602347 48.865012 
L 153.770183 45.788854 
L 156.068183 50.815959 
L 157.198347 51.786956 
L 158.366183 51.972234 
L 159.534019 51.120904 
L 160.664183 52.081588 
L 161.832019 50.286516 
L 162.962183 51.880293 
L 164.130019 52.304246 
L 165.297855 53.399271 
L 166.390347 53.395923 
L 167.558183 51.761166 
L 168.688347 50.830977 
L 169.856183 51.741588 
L 170.986347 50.684229 
L 172.154183 52.91549 
L 173.32202 51.231655 
L 174.452183 51.334705 
L 175.62002 49.612058 
L 176.750184 51.258705 
L 177.91802 56.335549 
L 179.085856 52.53772 
L 180.140675 47.965859 
L 181.308511 46.150454 
L 183.606512 53.610598 
L 184.736675 54.388108 
L 185.904512 51.219867 
L 187.072348 48.479352 
L 188.202512 47.594166 
L 189.370348 47.189534 
L 190.500512 43.993094 
L 191.668348 46.059719 
L 192.836184 44.484256 
L 193.891003 41.414517 
L 195.05884 41.159621 
L 196.189004 45.1602 
L 198.487004 51.010281 
L 199.65484 48.825534 
L 200.822676 51.628734 
L 201.95284 52.368973 
L 203.120676 51.377712 
L 204.25084 50.11314 
L 205.418676 46.787593 
L 206.586512 42.159646 
L 207.641332 38.640469 
L 208.809168 41.267801 
L 209.939332 41.683365 
L 211.107168 45.225991 
L 212.237332 47.149776 
L 213.405168 46.150751 
L 214.573004 42.509084 
L 215.703168 42.608467 
L 216.871004 44.099177 
L 218.001168 44.026908 
L 219.169004 42.744139 
L 220.33684 40.542316 
L 221.429332 35.872724 
L 222.597168 34.713509 
L 223.727332 43.381714 
L 224.895168 46.813766 
L 226.025332 46.344549 
L 227.193168 45.601892 
L 228.361004 44.520565 
L 229.491168 48.283247 
L 230.659004 48.869434 
L 231.789168 53.654648 
L 232.957004 49.753019 
L 234.12484 50.616058 
L 235.17966 46.539782 
L 236.347496 46.717439 
L 237.47766 48.147469 
L 238.645496 52.626075 
L 239.77566 53.958065 
L 240.943496 50.54416 
L 242.111332 49.392589 
L 243.241496 48.502748 
L 244.409332 47.116913 
L 245.539496 47.989438 
L 246.707332 48.265602 
L 247.875168 40.858573 
L 248.929988 41.974016 
L 250.097824 48.270526 
L 251.227988 50.364324 
L 252.395824 55.289033 
L 253.525988 57.330968 
L 254.693824 57.129805 
L 255.86166 58.814911 
L 256.991824 55.379442 
L 258.15966 54.633516 
L 259.289824 55.176376 
L 260.45766 56.048108 
L 261.625496 47.215984 
L 262.680316 49.056126 
L 263.848152 50.195097 
L 264.978316 54.204304 
L 267.276316 61.22761 
L 268.444152 59.105728 
L 269.611988 59.017006 
L 270.742152 56.580686 
L 271.909988 52.778531 
L 273.040152 53.472245 
L 274.207988 52.291423 
L 275.375825 48.671826 
L 276.468316 42.313557 
L 277.636152 42.390939 
L 278.766316 45.402819 
L 279.934152 50.725818 
L 281.064316 52.675785 
L 282.232153 53.539993 
L 283.399989 54.190913 
L 284.530153 55.357958 
L 285.697989 54.830555 
L 286.828153 53.07986 
L 289.163825 40.391917 
L 290.218644 36.495457 
L 291.386481 39.801317 
L 292.516645 50.563409 
L 293.684481 52.786979 
L 294.814645 53.09381 
L 295.982481 60.976822 
L 297.150317 62.944009 
L 298.280481 61.520027 
L 299.448317 60.598061 
L 300.578481 58.016211 
L 301.746317 50.977909 
L 302.914153 43.029927 
L 303.968973 39.807129 
L 305.136809 37.676062 
L 306.266973 44.250337 
L 307.434809 52.472039 
L 308.564973 58.899297 
L 309.732809 61.603057 
L 310.900645 61.218211 
L 312.030809 61.981879 
L 313.198645 52.276136 
L 314.328809 46.130348 
L 315.496645 41.176983 
L 316.664481 34.680303 
L 317.719301 38.346062 
L 318.887137 40.328686 
L 320.017301 41.240537 
L 321.185137 46.104364 
L 322.315301 53.496146 
L 323.483137 59.049639 
L 324.650973 63.0891 
L 325.781137 58.767278 
L 326.948973 55.87673 
L 328.079137 55.173809 
L 329.246973 51.648367 
L 330.414809 43.673259 
L 331.507301 38.061756 
L 332.675137 38.78411 
L 333.805301 52.728121 
L 334.973137 56.33681 
L 336.103301 57.017054 
L 337.271137 53.969665 
L 338.438973 54.937489 
L 339.569137 49.085676 
L 340.736973 52.991081 
L 341.867137 58.60237 
L 343.034973 54.261516 
L 344.202809 50.707105 
L 345.257629 42.296232 
L 346.425465 38.064938 
L 347.555629 46.567463 
L 348.723465 52.180515 
L 349.853629 61.643319 
L 351.021465 67.599541 
L 352.189301 70.002376 
L 353.319465 66.454298 
L 354.487301 67.051956 
L 355.617465 57.873931 
L 356.785301 50.169372 
L 357.953137 41.365681 
L 359.007957 35.444086 
L 360.175793 33.729959 
L 361.305957 38.596714 
L 362.473793 45.132397 
L 365.939629 54.158277 
L 367.069793 53.722497 
L 368.237629 53.047062 
L 369.367793 44.63581 
L 370.535629 42.480905 
L 373.926121 30.147754 
L 375.056285 39.090852 
L 376.224121 46.11189 
L 377.354285 54.585202 
L 378.522121 57.256935 
L 379.689957 53.014504 
L 380.820121 49.527894 
L 381.987958 46.429644 
L 383.118121 42.952162 
L 384.285958 42.498435 
L 385.453794 36.294913 
L 386.546285 32.048466 
L 387.714122 29.482445 
L 388.844285 35.380142 
L 390.012122 44.7883 
L 391.142286 52.53865 
L 392.310122 56.071851 
L 393.477958 58.928505 
L 394.608122 59.838173 
L 395.775958 59.315989 
L 396.906122 50.862823 
L 398.073958 48.052305 
L 399.241794 32.7692 
L 400.296614 28.613864 
L 401.46445 34.936084 
L 403.76245 51.062578 
L 404.892614 55.862047 
L 404.892614 55.862047 
" clip-path="url(#p63da5e9353)" style="fill: none; stroke: #4596f3; stroke-width: 0.5; stroke-linecap: square"/>
   </g>
   <g id="patch_3">
    <path d="M 37.73625 78.465 
L 37.73625 26.24 
" style="fill: none; stroke: #000000; stroke-width: 0.8; stroke-linejoin: miter; stroke-linecap: square"/>
   </g>
   <g id="patch_4">
    <path d="M 37.73625 78.465 
L 422.37625 78.465 
" style="fill: none; stroke: #000000; stroke-width: 0.8; stroke-linejoin: miter; stroke-linecap: square"/>
   </g>
  </g>
  <g id="axes_2">
   <g id="patch_5">
    <path d="M 37.73625 142.83 
L 422.37625 142.83 
L 422.37625 90.605 
L 37.73625 90.605 
z
" style="fill: #ffffff"/>
   </g>
   <g id="matplotlib.axis_3">
    <g id="xtick_8">
     <g id="line2d_22">
      <path d="M 54.089722 142.83 
L 54.089722 90.605 
" clip-path="url(#p440391fd0e)" style="fill: none; stroke-dasharray: 2.96,1.28; stroke-dashoffset: 0; stroke: #b0b0b0; stroke-opacity: 0.5; stroke-width: 0.8"/>
     </g>
     <g id="line2d_23">
      <g>
       <use xlink:href="#mda89151ca5" x="54.089722" y="142.83" style="stroke: #000000; stroke-width: 0.8"/>
      </g>
     </g>
    </g>
    <g id="xtick_9">
     <g id="line2d_24">
      <path d="M 109.128707 142.83 
L 109.128707 90.605 
" clip-path="url(#p440391fd0e)" style="fill: none; stroke-dasharray: 2.96,1.28; stroke-dashoffset: 0; stroke: #b0b0b0; stroke-opacity: 0.5; stroke-width: 0.8"/>
     </g>
     <g id="line2d_25">
      <g>
       <use xlink:href="#mda89151ca5" x="109.128707" y="142.83" style="stroke: #000000; stroke-width: 0.8"/>
      </g>
     </g>
    </g>
    <g id="xtick_10">
     <g id="line2d_26">
      <path d="M 164.167691 142.83 
L 164.167691 90.605 
" clip-path="url(#p440391fd0e)" style="fill: none; stroke-dasharray: 2.96,1.28; stroke-dashoffset: 0; stroke: #b0b0b0; stroke-opacity: 0.5; stroke-width: 0.8"/>
     </g>
     <g id="line2d_27">
      <g>
       <use xlink:href="#mda89151ca5" x="164.167691" y="142.83" style="stroke: #000000; stroke-width: 0.8"/>
      </g>
     </g>
    </g>
    <g id="xtick_11">
     <g id="line2d_28">
      <path d="M 219.206676 142.83 
L 219.206676 90.605 
" clip-path="url(#p440391fd0e)" style="fill: none; stroke-dasharray: 2.96,1.28; stroke-dashoffset: 0; stroke: #b0b0b0; stroke-opacity: 0.5; stroke-width: 0.8"/>
     </g>
     <g id="line2d_29">
      <g>
       <use xlink:href="#mda89151ca5" x="219.206676" y="142.83" style="stroke: #000000; stroke-width: 0.8"/>
      </g>
     </g>
    </g>
    <g id="xtick_12">
     <g id="line2d_30">
      <path d="M 274.245661 142.83 
L 274.245661 90.605 
" clip-path="url(#p440391fd0e)" style="fill: none; stroke-dasharray: 2.96,1.28; stroke-dashoffset: 0; stroke: #b0b0b0; stroke-opacity: 0.5; stroke-width: 0.8"/>
     </g>
     <g id="line2d_31">
      <g>
       <use xlink:href="#mda89151ca5" x="274.245661" y="142.83" style="stroke: #000000; stroke-width: 0.8"/>
      </g>
     </g>
    </g>
    <g id="xtick_13">
     <g id="line2d_32">
      <path d="M 329.284645 142.83 
L 329.284645 90.605 
" clip-path="url(#p440391fd0e)" style="fill: none; stroke-dasharray: 2.96,1.28; stroke-dashoffset: 0; stroke: #b0b0b0; stroke-opacity: 0.5; stroke-width: 0.8"/>
     </g>
     <g id="line2d_33">
      <g>
       <use xlink:href="#mda89151ca5" x="329.284645" y="142.83" style="stroke: #000000; stroke-width: 0.8"/>
      </g>
     </g>
    </g>
    <g id="xtick_14">
     <g id="line2d_34">
      <path d="M 384.32363 142.83 
L 384.32363 90.605 
" clip-path="url(#p440391fd0e)" style="fill: none; stroke-dasharray: 2.96,1.28; stroke-dashoffset: 0; stroke: #b0b0b0; stroke-opacity: 0.5; stroke-width: 0.8"/>
     </g>
     <g id="line2d_35">
      <g>
       <use xlink:href="#mda89151ca5" x="384.32363" y="142.83" style="stroke: #000000; stroke-width: 0.8"/>
      </g>
     </g>
    </g>
   </g>
   <g id="matplotlib.axis_4">
    <g id="ytick_4">
     <g id="line2d_36">
      <path d="M 37.73625 139.095464 
L 422.37625 139.095464 
" clip-path="url(#p440391fd0e)" style="fill: none; stroke-dasharray: 2.96,1.28; stroke-dashoffset: 0; stroke: #b0b0b0; stroke-opacity: 0.5; stroke-width: 0.8"/>
     </g>
     <g id="line2d_37">
      <g>
       <use xlink:href="#m013246899e" x="37.73625" y="139.095464" style="stroke: #000000; stroke-width: 0.8"/>
      </g>
     </g>
     <g id="text_5">
      <!-- −2 -->
      <g transform="translate(18.9425 142.134839) scale(0.08 -0.08)">
       <use xlink:href="#DejaVuSerif-2212"/>
       <use xlink:href="#DejaVuSerif-32" transform="translate(83.789062 0)"/>
      </g>
     </g>
    </g>
    <g id="ytick_5">
     <g id="line2d_38">
      <path d="M 37.73625 109.561278 
L 422.37625 109.561278 
" clip-path="url(#p440391fd0e)" style="fill: none; stroke-dasharray: 2.96,1.28; stroke-dashoffset: 0; stroke: #b0b0b0; stroke-opacity: 0.5; stroke-width: 0.8"/>
     </g>
     <g id="line2d_39">
      <g>
       <use xlink:href="#m013246899e" x="37.73625" y="109.561278" style="stroke: #000000; stroke-width: 0.8"/>
      </g>
     </g>
     <g id="text_6">
      <!-- 0 -->
      <g transform="translate(25.64625 112.600653) scale(0.08 -0.08)">
       <use xlink:href="#DejaVuSerif-30"/>
      </g>
     </g>
    </g>
    <g id="text_7">
     <!-- Tendência -->
     <g transform="translate(13.27875 137.428125) rotate(-90) scale(0.08 -0.08)">
      <defs>
       <path id="DejaVuSerif-54" d="M 1222 0 
L 1222 331 
L 1819 331 
L 1819 4294 
L 447 4294 
L 447 3566 
L 63 3566 
L 63 4666 
L 4206 4666 
L 4206 3566 
L 3822 3566 
L 3822 4294 
L 2450 4294 
L 2450 331 
L 3047 331 
L 3047 0 
L 1222 0 
z
" transform="scale(0.015625)"/>
       <path id="DejaVuSerif-6e" d="M 263 0 
L 263 331 
L 781 331 
L 781 2988 
L 231 2988 
L 231 3322 
L 1356 3322 
L 1356 2731 
Q 1516 3069 1770 3241 
Q 2025 3413 2363 3413 
Q 2913 3413 3172 3097 
Q 3431 2781 3431 2113 
L 3431 331 
L 3944 331 
L 3944 0 
L 2356 0 
L 2356 331 
L 2853 331 
L 2853 1931 
Q 2853 2541 2703 2767 
Q 2553 2994 2175 2994 
Q 1775 2994 1565 2701 
Q 1356 2409 1356 1850 
L 1356 331 
L 1856 331 
L 1856 0 
L 263 0 
z
" transform="scale(0.015625)"/>
       <path id="DejaVuSerif-ea" d="M 3469 1600 
L 991 1600 
L 991 1575 
Q 991 903 1244 561 
Q 1497 219 1991 219 
Q 2369 219 2611 417 
Q 2853 616 2950 1006 
L 3413 1006 
Q 3275 459 2904 184 
Q 2534 -91 1931 -91 
Q 1203 -91 761 389 
Q 319 869 319 1663 
Q 319 2450 753 2931 
Q 1188 3413 1894 3413 
Q 2647 3413 3050 2948 
Q 3453 2484 3469 1600 
z
M 2791 1931 
Q 2772 2513 2545 2808 
Q 2319 3103 1894 3103 
Q 1497 3103 1269 2806 
Q 1041 2509 991 1931 
L 2791 1931 
z
M 1634 5119 
L 2159 5119 
L 2893 3944 
L 2530 3944 
L 1896 4756 
L 1262 3944 
L 899 3944 
L 1634 5119 
z
" transform="scale(0.015625)"/>
       <path id="DejaVuSerif-63" d="M 3291 997 
Q 3169 466 2822 187 
Q 2475 -91 1925 -91 
Q 1200 -91 759 389 
Q 319 869 319 1663 
Q 319 2459 759 2936 
Q 1200 3413 1925 3413 
Q 2241 3413 2553 3339 
Q 2866 3266 3181 3116 
L 3181 2266 
L 2847 2266 
Q 2781 2703 2561 2903 
Q 2341 3103 1931 3103 
Q 1466 3103 1228 2742 
Q 991 2381 991 1663 
Q 991 944 1227 581 
Q 1463 219 1931 219 
Q 2303 219 2525 412 
Q 2747 606 2828 997 
L 3291 997 
z
" transform="scale(0.015625)"/>
       <path id="DejaVuSerif-69" d="M 622 4353 
Q 622 4497 726 4603 
Q 831 4709 978 4709 
Q 1122 4709 1226 4603 
Q 1331 4497 1331 4353 
Q 1331 4206 1228 4103 
Q 1125 4000 978 4000 
Q 831 4000 726 4103 
Q 622 4206 622 4353 
z
M 1356 331 
L 1900 331 
L 1900 0 
L 231 0 
L 231 331 
L 781 331 
L 781 2988 
L 231 2988 
L 231 3322 
L 1356 3322 
L 1356 331 
z
" transform="scale(0.015625)"/>
      </defs>
      <use xlink:href="#DejaVuSerif-54"/>
      <use xlink:href="#DejaVuSerif-65" transform="translate(58.949219 0)"/>
      <use xlink:href="#DejaVuSerif-6e" transform="translate(118.128906 0)"/>
      <use xlink:href="#DejaVuSerif-64" transform="translate(182.533203 0)"/>
      <use xlink:href="#DejaVuSerif-ea" transform="translate(246.546875 0)"/>
      <use xlink:href="#DejaVuSerif-6e" transform="translate(305.726562 0)"/>
      <use xlink:href="#DejaVuSerif-63" transform="translate(370.130859 0)"/>
      <use xlink:href="#DejaVuSerif-69" transform="translate(426.136719 0)"/>
      <use xlink:href="#DejaVuSerif-61" transform="translate(458.119141 0)"/>
     </g>
    </g>
   </g>
   <g id="line2d_40">
    <path d="M 55.219886 127.440899 
L 57.480214 126.85009 
L 59.778214 126.421074 
L 63.24405 126.047367 
L 66.672214 125.877041 
L 67.840051 126.803119 
L 69.007887 128.112391 
L 74.658706 136.53208 
L 75.826542 137.944559 
L 76.994379 139.104586 
L 78.124542 139.95718 
L 79.292379 140.430099 
L 80.422543 140.456136 
L 81.590379 140.014517 
L 82.758215 139.149751 
L 84.98087 136.529009 
L 88.409034 131.982839 
L 89.576871 130.639788 
L 90.744707 129.486914 
L 91.874871 128.540482 
L 93.042707 127.795937 
L 94.172871 127.223374 
L 96.508543 126.406458 
L 98.731199 125.81791 
L 101.029199 125.441365 
L 106.793035 124.914339 
L 109.091035 124.213075 
L 113.649363 122.522225 
L 115.947363 121.409981 
L 121.711199 118.02766 
L 124.046871 117.340082 
L 132.033363 115.598175 
L 136.629363 114.573511 
L 143.448019 112.871635 
L 145.783691 111.996284 
L 148.081691 110.78326 
L 152.602347 108.08243 
L 154.900347 107.034598 
L 156.068183 106.706777 
L 157.198347 106.604138 
L 158.366183 106.757814 
L 160.664183 107.539258 
L 162.962183 108.252445 
L 165.297855 108.541264 
L 168.688347 108.430316 
L 170.986347 108.328023 
L 173.32202 107.976476 
L 175.62002 107.554649 
L 180.140675 107.172661 
L 181.308511 106.787944 
L 182.438675 106.187541 
L 183.606512 105.413089 
L 189.370348 100.863366 
L 190.500512 100.22714 
L 191.668348 99.758685 
L 192.836184 99.521624 
L 193.891003 99.560384 
L 195.05884 99.848341 
L 197.35684 100.701409 
L 198.487004 101.018036 
L 199.65484 101.183355 
L 200.822676 101.174278 
L 201.95284 100.99175 
L 203.120676 100.670612 
L 204.25084 100.228174 
L 205.418676 99.641269 
L 206.586512 98.89257 
L 211.107168 95.243141 
L 212.237332 94.543592 
L 213.405168 93.997689 
L 215.703168 93.332532 
L 218.001168 93.025314 
L 219.169004 92.978864 
L 220.33684 93.045409 
L 221.429332 93.265384 
L 222.597168 93.695795 
L 223.727332 94.358947 
L 224.895168 95.265358 
L 227.193168 97.644208 
L 230.659004 101.518041 
L 231.789168 102.60537 
L 232.957004 103.495322 
L 234.12484 104.163881 
L 235.17966 104.609894 
L 236.347496 104.79854 
L 237.47766 104.709894 
L 238.645496 104.360296 
L 240.943496 103.326497 
L 242.111332 102.928552 
L 243.241496 102.732114 
L 244.409332 102.770976 
L 245.539496 103.065999 
L 246.707332 103.592547 
L 247.875168 104.290598 
L 251.227988 106.998152 
L 255.86166 110.859693 
L 256.991824 111.639788 
L 258.15966 112.286791 
L 259.289824 112.783921 
L 260.45766 113.154122 
L 261.625496 113.399499 
L 262.680316 113.484959 
L 264.978316 113.270078 
L 267.276316 112.837479 
L 268.444152 112.487554 
L 269.611988 111.979655 
L 271.909988 110.481836 
L 275.375825 107.657812 
L 276.468316 106.89338 
L 278.766316 105.853837 
L 283.399989 104.18595 
L 284.530153 103.973337 
L 285.697989 103.974064 
L 286.828153 104.201937 
L 287.995989 104.620125 
L 289.163825 105.187092 
L 293.684481 108.068348 
L 294.814645 108.662306 
L 295.982481 109.129815 
L 297.150317 109.450616 
L 298.280481 109.626817 
L 300.578481 109.699126 
L 302.914153 109.610492 
L 303.968973 109.442888 
L 305.136809 109.013615 
L 306.266973 108.265909 
L 309.732809 105.445898 
L 312.030809 104.30917 
L 316.664481 102.700188 
L 317.719301 102.45962 
L 318.887137 102.460132 
L 320.017301 102.776152 
L 321.185137 103.375664 
L 324.650973 105.871829 
L 326.948973 107.455631 
L 328.079137 108.059602 
L 329.246973 108.421948 
L 330.414809 108.418715 
L 331.507301 108.039254 
L 333.805301 107.02826 
L 334.973137 106.847591 
L 336.103301 106.946281 
L 339.569137 107.601214 
L 341.867137 108.017576 
L 343.034973 108.560354 
L 344.202809 109.510648 
L 347.555629 113.610996 
L 348.723465 114.405121 
L 349.853629 114.615799 
L 351.021465 114.302576 
L 352.189301 113.637618 
L 353.319465 112.767786 
L 354.487301 111.714474 
L 355.617465 110.442493 
L 356.785301 108.901596 
L 357.953137 107.113384 
L 360.175793 103.184842 
L 361.305957 101.295836 
L 362.473793 99.660539 
L 363.603957 98.384997 
L 364.771793 97.486779 
L 365.939629 96.938943 
L 367.069793 96.677035 
L 368.237629 96.6629 
L 370.535629 97.135042 
L 371.703466 97.372383 
L 372.758285 97.442191 
L 373.926121 97.300073 
L 379.689957 95.772249 
L 383.118121 95.088558 
L 384.285958 95.040657 
L 385.453794 95.206944 
L 386.546285 95.667909 
L 387.714122 96.426759 
L 390.012122 98.321294 
L 391.142286 99.070547 
L 393.477958 100.037505 
L 395.775958 100.924154 
L 400.296614 102.838233 
L 404.892614 104.500852 
L 404.892614 104.500852 
" clip-path="url(#p440391fd0e)" style="fill: none; stroke: #ff5656; stroke-width: 0.5; stroke-linecap: square"/>
   </g>
   <g id="patch_6">
    <path d="M 37.73625 142.83 
L 37.73625 90.605 
" style="fill: none; stroke: #000000; stroke-width: 0.8; stroke-linejoin: miter; stroke-linecap: square"/>
   </g>
   <g id="patch_7">
    <path d="M 37.73625 142.83 
L 422.37625 142.83 
" style="fill: none; stroke: #000000; stroke-width: 0.8; stroke-linejoin: miter; stroke-linecap: square"/>
   </g>
  </g>
  <g id="axes_3">
   <g id="patch_8">
    <path d="M 37.73625 207.195 
L 422.37625 207.195 
L 422.37625 154.97 
L 37.73625 154.97 
z
" style="fill: #ffffff"/>
   </g>
   <g id="matplotlib.axis_5">
    <g id="xtick_15">
     <g id="line2d_41">
      <path d="M 54.089722 207.195 
L 54.089722 154.97 
" clip-path="url(#p2dcf037ff4)" style="fill: none; stroke-dasharray: 2.96,1.28; stroke-dashoffset: 0; stroke: #b0b0b0; stroke-opacity: 0.5; stroke-width: 0.8"/>
     </g>
     <g id="line2d_42">
      <g>
       <use xlink:href="#mda89151ca5" x="54.089722" y="207.195" style="stroke: #000000; stroke-width: 0.8"/>
      </g>
     </g>
    </g>
    <g id="xtick_16">
     <g id="line2d_43">
      <path d="M 109.128707 207.195 
L 109.128707 154.97 
" clip-path="url(#p2dcf037ff4)" style="fill: none; stroke-dasharray: 2.96,1.28; stroke-dashoffset: 0; stroke: #b0b0b0; stroke-opacity: 0.5; stroke-width: 0.8"/>
     </g>
     <g id="line2d_44">
      <g>
       <use xlink:href="#mda89151ca5" x="109.128707" y="207.195" style="stroke: #000000; stroke-width: 0.8"/>
      </g>
     </g>
    </g>
    <g id="xtick_17">
     <g id="line2d_45">
      <path d="M 164.167691 207.195 
L 164.167691 154.97 
" clip-path="url(#p2dcf037ff4)" style="fill: none; stroke-dasharray: 2.96,1.28; stroke-dashoffset: 0; stroke: #b0b0b0; stroke-opacity: 0.5; stroke-width: 0.8"/>
     </g>
     <g id="line2d_46">
      <g>
       <use xlink:href="#mda89151ca5" x="164.167691" y="207.195" style="stroke: #000000; stroke-width: 0.8"/>
      </g>
     </g>
    </g>
    <g id="xtick_18">
     <g id="line2d_47">
      <path d="M 219.206676 207.195 
L 219.206676 154.97 
" clip-path="url(#p2dcf037ff4)" style="fill: none; stroke-dasharray: 2.96,1.28; stroke-dashoffset: 0; stroke: #b0b0b0; stroke-opacity: 0.5; stroke-width: 0.8"/>
     </g>
     <g id="line2d_48">
      <g>
       <use xlink:href="#mda89151ca5" x="219.206676" y="207.195" style="stroke: #000000; stroke-width: 0.8"/>
      </g>
     </g>
    </g>
    <g id="xtick_19">
     <g id="line2d_49">
      <path d="M 274.245661 207.195 
L 274.245661 154.97 
" clip-path="url(#p2dcf037ff4)" style="fill: none; stroke-dasharray: 2.96,1.28; stroke-dashoffset: 0; stroke: #b0b0b0; stroke-opacity: 0.5; stroke-width: 0.8"/>
     </g>
     <g id="line2d_50">
      <g>
       <use xlink:href="#mda89151ca5" x="274.245661" y="207.195" style="stroke: #000000; stroke-width: 0.8"/>
      </g>
     </g>
    </g>
    <g id="xtick_20">
     <g id="line2d_51">
      <path d="M 329.284645 207.195 
L 329.284645 154.97 
" clip-path="url(#p2dcf037ff4)" style="fill: none; stroke-dasharray: 2.96,1.28; stroke-dashoffset: 0; stroke: #b0b0b0; stroke-opacity: 0.5; stroke-width: 0.8"/>
     </g>
     <g id="line2d_52">
      <g>
       <use xlink:href="#mda89151ca5" x="329.284645" y="207.195" style="stroke: #000000; stroke-width: 0.8"/>
      </g>
     </g>
    </g>
    <g id="xtick_21">
     <g id="line2d_53">
      <path d="M 384.32363 207.195 
L 384.32363 154.97 
" clip-path="url(#p2dcf037ff4)" style="fill: none; stroke-dasharray: 2.96,1.28; stroke-dashoffset: 0; stroke: #b0b0b0; stroke-opacity: 0.5; stroke-width: 0.8"/>
     </g>
     <g id="line2d_54">
      <g>
       <use xlink:href="#mda89151ca5" x="384.32363" y="207.195" style="stroke: #000000; stroke-width: 0.8"/>
      </g>
     </g>
    </g>
   </g>
   <g id="matplotlib.axis_6">
    <g id="ytick_6">
     <g id="line2d_55">
      <path d="M 37.73625 201.215033 
L 422.37625 201.215033 
" clip-path="url(#p2dcf037ff4)" style="fill: none; stroke-dasharray: 2.96,1.28; stroke-dashoffset: 0; stroke: #b0b0b0; stroke-opacity: 0.5; stroke-width: 0.8"/>
     </g>
     <g id="line2d_56">
      <g>
       <use xlink:href="#m013246899e" x="37.73625" y="201.215033" style="stroke: #000000; stroke-width: 0.8"/>
      </g>
     </g>
     <g id="text_8">
      <!-- −1 -->
      <g transform="translate(18.9425 204.254408) scale(0.08 -0.08)">
       <defs>
        <path id="DejaVuSerif-31" d="M 909 0 
L 909 331 
L 1722 331 
L 1722 4213 
L 781 3603 
L 781 4013 
L 1919 4750 
L 2350 4750 
L 2350 331 
L 3163 331 
L 3163 0 
L 909 0 
z
" transform="scale(0.015625)"/>
       </defs>
       <use xlink:href="#DejaVuSerif-2212"/>
       <use xlink:href="#DejaVuSerif-31" transform="translate(83.789062 0)"/>
      </g>
     </g>
    </g>
    <g id="ytick_7">
     <g id="line2d_57">
      <path d="M 37.73625 185.265789 
L 422.37625 185.265789 
" clip-path="url(#p2dcf037ff4)" style="fill: none; stroke-dasharray: 2.96,1.28; stroke-dashoffset: 0; stroke: #b0b0b0; stroke-opacity: 0.5; stroke-width: 0.8"/>
     </g>
     <g id="line2d_58">
      <g>
       <use xlink:href="#m013246899e" x="37.73625" y="185.265789" style="stroke: #000000; stroke-width: 0.8"/>
      </g>
     </g>
     <g id="text_9">
      <!-- 0 -->
      <g transform="translate(25.64625 188.305164) scale(0.08 -0.08)">
       <use xlink:href="#DejaVuSerif-30"/>
      </g>
     </g>
    </g>
    <g id="ytick_8">
     <g id="line2d_59">
      <path d="M 37.73625 169.316545 
L 422.37625 169.316545 
" clip-path="url(#p2dcf037ff4)" style="fill: none; stroke-dasharray: 2.96,1.28; stroke-dashoffset: 0; stroke: #b0b0b0; stroke-opacity: 0.5; stroke-width: 0.8"/>
     </g>
     <g id="line2d_60">
      <g>
       <use xlink:href="#m013246899e" x="37.73625" y="169.316545" style="stroke: #000000; stroke-width: 0.8"/>
      </g>
     </g>
     <g id="text_10">
      <!-- 1 -->
      <g transform="translate(25.64625 172.35592) scale(0.08 -0.08)">
       <use xlink:href="#DejaVuSerif-31"/>
      </g>
     </g>
    </g>
    <g id="text_11">
     <!-- Sazonalidade -->
     <g transform="translate(13.27875 208.116875) rotate(-90) scale(0.08 -0.08)">
      <defs>
       <path id="DejaVuSerif-53" d="M 594 225 
L 594 1288 
L 953 1284 
Q 969 753 1261 498 
Q 1553 244 2150 244 
Q 2706 244 2998 464 
Q 3291 684 3291 1106 
Q 3291 1444 3114 1625 
Q 2938 1806 2369 1978 
L 1753 2163 
Q 1084 2366 811 2669 
Q 538 2972 538 3500 
Q 538 4094 959 4422 
Q 1381 4750 2144 4750 
Q 2469 4750 2856 4679 
Q 3244 4609 3681 4475 
L 3681 3481 
L 3328 3481 
Q 3275 3975 2998 4195 
Q 2722 4416 2156 4416 
Q 1663 4416 1405 4214 
Q 1147 4013 1147 3628 
Q 1147 3294 1340 3103 
Q 1534 2913 2163 2725 
L 2741 2553 
Q 3375 2363 3645 2067 
Q 3916 1772 3916 1275 
Q 3916 597 3481 253 
Q 3047 -91 2188 -91 
Q 1803 -91 1404 -12 
Q 1006 66 594 225 
z
" transform="scale(0.015625)"/>
       <path id="DejaVuSerif-7a" d="M 256 0 
L 256 269 
L 2338 2988 
L 691 2988 
L 691 2413 
L 359 2413 
L 359 3322 
L 3078 3322 
L 3078 3053 
L 997 331 
L 2803 331 
L 2803 934 
L 3138 934 
L 3138 0 
L 256 0 
z
" transform="scale(0.015625)"/>
       <path id="DejaVuSerif-6c" d="M 1313 331 
L 1856 331 
L 1856 0 
L 184 0 
L 184 331 
L 738 331 
L 738 4531 
L 184 4531 
L 184 4863 
L 1313 4863 
L 1313 331 
z
" transform="scale(0.015625)"/>
      </defs>
      <use xlink:href="#DejaVuSerif-53"/>
      <use xlink:href="#DejaVuSerif-61" transform="translate(68.505859 0)"/>
      <use xlink:href="#DejaVuSerif-7a" transform="translate(128.125 0)"/>
      <use xlink:href="#DejaVuSerif-6f" transform="translate(180.810547 0)"/>
      <use xlink:href="#DejaVuSerif-6e" transform="translate(241.015625 0)"/>
      <use xlink:href="#DejaVuSerif-61" transform="translate(305.419922 0)"/>
      <use xlink:href="#DejaVuSerif-6c" transform="translate(365.039062 0)"/>
      <use xlink:href="#DejaVuSerif-69" transform="translate(397.021484 0)"/>
      <use xlink:href="#DejaVuSerif-64" transform="translate(429.003906 0)"/>
      <use xlink:href="#DejaVuSerif-61" transform="translate(493.017578 0)"/>
      <use xlink:href="#DejaVuSerif-64" transform="translate(552.636719 0)"/>
      <use xlink:href="#DejaVuSerif-65" transform="translate(616.650391 0)"/>
     </g>
    </g>
   </g>
   <g id="line2d_61">
    <path d="M 55.219886 185.060409 
L 56.312378 180.732523 
L 57.480214 179.577061 
L 58.610378 179.496947 
L 59.778214 182.938245 
L 60.908378 190.109866 
L 62.076214 190.645863 
L 63.24405 189.830259 
L 64.374214 188.662454 
L 65.54205 182.968191 
L 66.672214 185.628888 
L 67.840051 187.213782 
L 69.007887 184.933253 
L 70.062706 180.981241 
L 71.230542 179.5333 
L 72.360706 180.081579 
L 73.528542 183.68436 
L 74.658706 189.656535 
L 75.826542 190.291379 
L 76.994379 189.210016 
L 78.124542 188.366457 
L 79.292379 183.591225 
L 80.422543 185.651389 
L 81.590379 186.950914 
L 82.758215 184.770253 
L 83.813034 181.206817 
L 84.98087 179.449903 
L 86.111034 180.626294 
L 87.278871 184.38746 
L 88.409034 189.227501 
L 89.576871 189.972834 
L 90.744707 188.616959 
L 91.874871 188.125356 
L 93.042707 184.187857 
L 94.172871 185.684478 
L 95.340707 186.767903 
L 96.508543 184.598543 
L 97.563362 181.419929 
L 98.731199 179.328739 
L 99.861363 181.109092 
L 102.159363 188.815363 
L 103.327199 189.670884 
L 104.495035 188.02891 
L 105.625199 187.916736 
L 106.793035 184.721732 
L 109.091035 186.652304 
L 110.258871 184.476708 
L 111.351363 181.663361 
L 112.519199 179.261216 
L 113.649363 181.591889 
L 114.817199 185.686405 
L 115.947363 188.360591 
L 117.115199 189.318546 
L 118.283035 187.397513 
L 119.413199 187.634628 
L 120.581035 185.135028 
L 121.711199 185.642174 
L 122.879035 186.569182 
L 124.046871 184.490996 
L 126.269527 179.513184 
L 127.399691 182.392075 
L 128.567527 186.359827 
L 129.697691 187.645289 
L 130.865527 188.793879 
L 132.033363 186.670722 
L 133.163527 187.118099 
L 134.331363 185.385521 
L 135.461527 185.609269 
L 136.629363 186.544741 
L 137.797199 184.616936 
L 140.019855 179.456734 
L 141.150019 182.841225 
L 142.317855 186.835082 
L 143.448019 187.64879 
L 144.615855 188.628718 
L 145.783691 186.40302 
L 146.913855 186.995653 
L 148.081691 185.545941 
L 149.211855 185.498033 
L 150.379691 186.947386 
L 151.547527 184.37393 
L 152.602347 181.605024 
L 153.770183 178.904759 
L 156.068183 187.204251 
L 157.198347 188.182228 
L 158.366183 188.63279 
L 159.534019 186.527516 
L 160.664183 187.412206 
L 161.832019 186.006837 
L 162.962183 185.583455 
L 164.130019 187.1658 
L 166.390347 180.419051 
L 167.558183 178.344052 
L 169.856183 187.500353 
L 170.986347 188.890218 
L 172.154183 188.65477 
L 173.32202 186.593854 
L 174.452183 187.677687 
L 175.62002 186.390474 
L 176.750184 185.987632 
L 177.91802 187.26946 
L 179.085856 183.585311 
L 180.140675 179.241118 
L 181.308511 177.824709 
L 183.606512 187.86354 
L 184.736675 189.530035 
L 185.904512 188.488246 
L 187.072348 186.403305 
L 188.202512 187.598268 
L 189.370348 186.594013 
L 190.500512 186.688087 
L 191.668348 187.231919 
L 192.836184 183.415462 
L 193.891003 178.132368 
L 195.05884 177.49126 
L 197.35684 188.507552 
L 198.487004 190.383507 
L 200.822676 186.452282 
L 201.95284 187.430768 
L 203.120676 186.659962 
L 204.25084 187.237073 
L 205.418676 186.901048 
L 206.586512 182.218717 
L 207.641332 176.753136 
L 208.809168 177.364424 
L 211.107168 189.290759 
L 212.237332 191.496306 
L 213.405168 188.85689 
L 214.573004 187.209696 
L 215.703168 187.570299 
L 216.871004 186.830284 
L 218.001168 187.62633 
L 219.169004 186.424021 
L 220.33684 180.256888 
L 221.429332 175.295747 
L 222.597168 177.095283 
L 223.727332 183.046534 
L 224.895168 189.812489 
L 226.025332 192.498877 
L 227.193168 189.559981 
L 228.361004 188.362271 
L 229.491168 188.054456 
L 230.659004 187.010036 
L 231.789168 188.072427 
L 232.957004 185.917849 
L 234.12484 178.602176 
L 235.17966 174.016908 
L 236.347496 176.512054 
L 238.645496 189.89972 
L 239.77566 192.770227 
L 240.943496 190.465537 
L 243.241496 188.963304 
L 244.409332 187.465198 
L 245.539496 188.696519 
L 246.707332 185.462113 
L 247.875168 177.121468 
L 248.929988 172.495838 
L 250.097824 175.229693 
L 252.395824 189.786238 
L 253.525988 192.749919 
L 254.693824 191.965421 
L 255.86166 191.71293 
L 256.991824 190.613127 
L 258.15966 188.377407 
L 259.289824 188.974673 
L 260.45766 184.657314 
L 261.625496 175.06503 
L 262.680316 170.655646 
L 263.848152 173.328988 
L 266.146152 189.309603 
L 267.276316 193.110289 
L 268.444152 194.185365 
L 269.611988 194.812513 
L 270.742152 193.245586 
L 271.909988 189.611745 
L 273.040152 188.721331 
L 274.207988 183.393801 
L 275.375825 172.429541 
L 276.468316 168.74782 
L 277.636152 171.381207 
L 279.934152 188.477336 
L 281.064316 193.614655 
L 282.232153 196.434286 
L 283.399989 197.960849 
L 284.530153 195.620028 
L 285.697989 190.892991 
L 286.828153 188.761789 
L 287.995989 182.488414 
L 289.163825 170.689917 
L 290.218644 166.842388 
L 291.386481 168.931033 
L 292.516645 179.172923 
L 293.684481 187.771976 
L 294.814645 193.90342 
L 295.982481 197.894701 
L 297.150317 200.029563 
L 298.280481 196.911239 
L 299.448317 192.288726 
L 300.578481 189.74991 
L 301.746317 182.196906 
L 302.914153 170.460202 
L 303.968973 165.203173 
L 305.136809 166.061253 
L 306.266973 178.087559 
L 307.434809 186.868413 
L 308.564973 193.956869 
L 309.732809 199.008866 
L 310.900645 201.646797 
L 314.328809 190.77751 
L 315.496645 182.027165 
L 316.664481 170.398397 
L 317.719301 163.88058 
L 318.887137 163.56147 
L 320.017301 176.692813 
L 322.315301 194.186434 
L 323.483137 200.047996 
L 324.650973 202.986533 
L 325.781137 198.802141 
L 326.948973 195.720184 
L 328.079137 190.822845 
L 329.246973 181.939647 
L 330.414809 170.320235 
L 331.507301 163.369227 
L 332.675137 161.90094 
L 333.805301 175.430336 
L 336.103301 195.072041 
L 337.271137 200.954693 
L 338.438973 203.39292 
L 339.569137 199.265368 
L 340.736973 196.529342 
L 341.867137 190.07889 
L 343.034973 182.349227 
L 344.202809 170.102744 
L 345.257629 162.698455 
L 346.425465 160.995298 
L 347.555629 174.385018 
L 349.853629 195.799162 
L 351.021465 201.630348 
L 352.189301 203.764338 
L 353.319465 199.824808 
L 354.487301 197.61951 
L 355.617465 189.693466 
L 356.785301 182.962511 
L 357.953137 169.416258 
L 359.007957 161.436257 
L 360.175793 160.168071 
L 361.305957 173.474442 
L 363.603957 196.33011 
L 364.771793 202.271748 
L 365.939629 204.132714 
L 367.069793 200.486498 
L 368.237629 198.901459 
L 369.367793 189.342039 
L 370.535629 183.571131 
L 371.703466 168.670835 
L 372.758285 160.10487 
L 373.926121 159.3304 
L 376.224121 185.75414 
L 377.354285 196.834252 
L 378.522121 202.952219 
L 379.689957 204.482055 
L 380.820121 201.276587 
L 381.987958 200.244093 
L 383.118121 188.889915 
L 384.285958 184.121851 
L 385.453794 167.82366 
L 386.546285 158.758176 
L 387.714122 158.53618 
L 391.142286 197.381886 
L 392.310122 203.711493 
L 393.477958 204.821136 
L 394.608122 202.19716 
L 395.775958 201.581391 
L 396.906122 188.335115 
L 398.073958 184.626389 
L 399.241794 166.795748 
L 400.296614 157.343864 
L 401.46445 157.823118 
L 402.594614 170.574536 
L 403.76245 186.096166 
L 404.892614 197.953091 
L 404.892614 197.953091 
" clip-path="url(#p2dcf037ff4)" style="fill: none; stroke: #ffa722; stroke-width: 0.5; stroke-linecap: square"/>
   </g>
   <g id="patch_9">
    <path d="M 37.73625 207.195 
L 37.73625 154.97 
" style="fill: none; stroke: #000000; stroke-width: 0.8; stroke-linejoin: miter; stroke-linecap: square"/>
   </g>
   <g id="patch_10">
    <path d="M 37.73625 207.195 
L 422.37625 207.195 
" style="fill: none; stroke: #000000; stroke-width: 0.8; stroke-linejoin: miter; stroke-linecap: square"/>
   </g>
  </g>
  <g id="axes_4">
   <g id="patch_11">
    <path d="M 37.73625 271.56 
L 422.37625 271.56 
L 422.37625 219.335 
L 37.73625 219.335 
z
" style="fill: #ffffff"/>
   </g>
   <g id="matplotlib.axis_7">
    <g id="xtick_22">
     <g id="line2d_62">
      <path d="M 54.089722 271.56 
L 54.089722 219.335 
" clip-path="url(#p8207d61ec6)" style="fill: none; stroke-dasharray: 2.96,1.28; stroke-dashoffset: 0; stroke: #b0b0b0; stroke-opacity: 0.5; stroke-width: 0.8"/>
     </g>
     <g id="line2d_63">
      <g>
       <use xlink:href="#mda89151ca5" x="54.089722" y="271.56" style="stroke: #000000; stroke-width: 0.8"/>
      </g>
     </g>
     <g id="text_12">
      <!-- 2000 -->
      <g transform="translate(43.909722 284.63875) scale(0.08 -0.08)">
       <use xlink:href="#DejaVuSerif-32"/>
       <use xlink:href="#DejaVuSerif-30" transform="translate(63.623047 0)"/>
       <use xlink:href="#DejaVuSerif-30" transform="translate(127.246094 0)"/>
       <use xlink:href="#DejaVuSerif-30" transform="translate(190.869141 0)"/>
      </g>
     </g>
    </g>
    <g id="xtick_23">
     <g id="line2d_64">
      <path d="M 109.128707 271.56 
L 109.128707 219.335 
" clip-path="url(#p8207d61ec6)" style="fill: none; stroke-dasharray: 2.96,1.28; stroke-dashoffset: 0; stroke: #b0b0b0; stroke-opacity: 0.5; stroke-width: 0.8"/>
     </g>
     <g id="line2d_65">
      <g>
       <use xlink:href="#mda89151ca5" x="109.128707" y="271.56" style="stroke: #000000; stroke-width: 0.8"/>
      </g>
     </g>
     <g id="text_13">
      <!-- 2004 -->
      <g transform="translate(98.948707 284.63875) scale(0.08 -0.08)">
       <defs>
        <path id="DejaVuSerif-34" d="M 2234 1581 
L 2234 4063 
L 641 1581 
L 2234 1581 
z
M 3609 0 
L 1484 0 
L 1484 331 
L 2234 331 
L 2234 1247 
L 197 1247 
L 197 1588 
L 2241 4750 
L 2859 4750 
L 2859 1581 
L 3750 1581 
L 3750 1247 
L 2859 1247 
L 2859 331 
L 3609 331 
L 3609 0 
z
" transform="scale(0.015625)"/>
       </defs>
       <use xlink:href="#DejaVuSerif-32"/>
       <use xlink:href="#DejaVuSerif-30" transform="translate(63.623047 0)"/>
       <use xlink:href="#DejaVuSerif-30" transform="translate(127.246094 0)"/>
       <use xlink:href="#DejaVuSerif-34" transform="translate(190.869141 0)"/>
      </g>
     </g>
    </g>
    <g id="xtick_24">
     <g id="line2d_66">
      <path d="M 164.167691 271.56 
L 164.167691 219.335 
" clip-path="url(#p8207d61ec6)" style="fill: none; stroke-dasharray: 2.96,1.28; stroke-dashoffset: 0; stroke: #b0b0b0; stroke-opacity: 0.5; stroke-width: 0.8"/>
     </g>
     <g id="line2d_67">
      <g>
       <use xlink:href="#mda89151ca5" x="164.167691" y="271.56" style="stroke: #000000; stroke-width: 0.8"/>
      </g>
     </g>
     <g id="text_14">
      <!-- 2008 -->
      <g transform="translate(153.987691 284.63875) scale(0.08 -0.08)">
       <defs>
        <path id="DejaVuSerif-38" d="M 2981 1275 
Q 2981 1775 2732 2051 
Q 2484 2328 2034 2328 
Q 1584 2328 1336 2051 
Q 1088 1775 1088 1275 
Q 1088 772 1336 495 
Q 1584 219 2034 219 
Q 2484 219 2732 495 
Q 2981 772 2981 1275 
z
M 2853 3541 
Q 2853 3966 2637 4203 
Q 2422 4441 2034 4441 
Q 1650 4441 1433 4203 
Q 1216 3966 1216 3541 
Q 1216 3113 1433 2875 
Q 1650 2638 2034 2638 
Q 2422 2638 2637 2875 
Q 2853 3113 2853 3541 
z
M 2516 2484 
Q 3047 2413 3344 2092 
Q 3641 1772 3641 1275 
Q 3641 619 3225 264 
Q 2809 -91 2034 -91 
Q 1263 -91 845 264 
Q 428 619 428 1275 
Q 428 1772 725 2092 
Q 1022 2413 1556 2484 
Q 1084 2569 832 2842 
Q 581 3116 581 3541 
Q 581 4103 968 4426 
Q 1356 4750 2034 4750 
Q 2713 4750 3100 4426 
Q 3488 4103 3488 3541 
Q 3488 3116 3236 2842 
Q 2984 2569 2516 2484 
z
" transform="scale(0.015625)"/>
       </defs>
       <use xlink:href="#DejaVuSerif-32"/>
       <use xlink:href="#DejaVuSerif-30" transform="translate(63.623047 0)"/>
       <use xlink:href="#DejaVuSerif-30" transform="translate(127.246094 0)"/>
       <use xlink:href="#DejaVuSerif-38" transform="translate(190.869141 0)"/>
      </g>
     </g>
    </g>
    <g id="xtick_25">
     <g id="line2d_68">
      <path d="M 219.206676 271.56 
L 219.206676 219.335 
" clip-path="url(#p8207d61ec6)" style="fill: none; stroke-dasharray: 2.96,1.28; stroke-dashoffset: 0; stroke: #b0b0b0; stroke-opacity: 0.5; stroke-width: 0.8"/>
     </g>
     <g id="line2d_69">
      <g>
       <use xlink:href="#mda89151ca5" x="219.206676" y="271.56" style="stroke: #000000; stroke-width: 0.8"/>
      </g>
     </g>
     <g id="text_15">
      <!-- 2012 -->
      <g transform="translate(209.026676 284.63875) scale(0.08 -0.08)">
       <use xlink:href="#DejaVuSerif-32"/>
       <use xlink:href="#DejaVuSerif-30" transform="translate(63.623047 0)"/>
       <use xlink:href="#DejaVuSerif-31" transform="translate(127.246094 0)"/>
       <use xlink:href="#DejaVuSerif-32" transform="translate(190.869141 0)"/>
      </g>
     </g>
    </g>
    <g id="xtick_26">
     <g id="line2d_70">
      <path d="M 274.245661 271.56 
L 274.245661 219.335 
" clip-path="url(#p8207d61ec6)" style="fill: none; stroke-dasharray: 2.96,1.28; stroke-dashoffset: 0; stroke: #b0b0b0; stroke-opacity: 0.5; stroke-width: 0.8"/>
     </g>
     <g id="line2d_71">
      <g>
       <use xlink:href="#mda89151ca5" x="274.245661" y="271.56" style="stroke: #000000; stroke-width: 0.8"/>
      </g>
     </g>
     <g id="text_16">
      <!-- 2016 -->
      <g transform="translate(264.065661 284.63875) scale(0.08 -0.08)">
       <defs>
        <path id="DejaVuSerif-36" d="M 2094 219 
Q 2534 219 2771 542 
Q 3009 866 3009 1472 
Q 3009 2078 2771 2401 
Q 2534 2725 2094 2725 
Q 1647 2725 1412 2412 
Q 1178 2100 1178 1509 
Q 1178 888 1415 553 
Q 1653 219 2094 219 
z
M 1075 2569 
Q 1288 2803 1556 2918 
Q 1825 3034 2163 3034 
Q 2859 3034 3264 2615 
Q 3669 2197 3669 1472 
Q 3669 763 3233 336 
Q 2797 -91 2069 -91 
Q 1278 -91 853 498 
Q 428 1088 428 2181 
Q 428 3406 931 4078 
Q 1434 4750 2350 4750 
Q 2597 4750 2869 4703 
Q 3141 4656 3425 4563 
L 3425 3794 
L 3072 3794 
Q 3034 4109 2831 4275 
Q 2628 4441 2284 4441 
Q 1678 4441 1381 3981 
Q 1084 3522 1075 2569 
z
" transform="scale(0.015625)"/>
       </defs>
       <use xlink:href="#DejaVuSerif-32"/>
       <use xlink:href="#DejaVuSerif-30" transform="translate(63.623047 0)"/>
       <use xlink:href="#DejaVuSerif-31" transform="translate(127.246094 0)"/>
       <use xlink:href="#DejaVuSerif-36" transform="translate(190.869141 0)"/>
      </g>
     </g>
    </g>
    <g id="xtick_27">
     <g id="line2d_72">
      <path d="M 329.284645 271.56 
L 329.284645 219.335 
" clip-path="url(#p8207d61ec6)" style="fill: none; stroke-dasharray: 2.96,1.28; stroke-dashoffset: 0; stroke: #b0b0b0; stroke-opacity: 0.5; stroke-width: 0.8"/>
     </g>
     <g id="line2d_73">
      <g>
       <use xlink:href="#mda89151ca5" x="329.284645" y="271.56" style="stroke: #000000; stroke-width: 0.8"/>
      </g>
     </g>
     <g id="text_17">
      <!-- 2020 -->
      <g transform="translate(319.104645 284.63875) scale(0.08 -0.08)">
       <use xlink:href="#DejaVuSerif-32"/>
       <use xlink:href="#DejaVuSerif-30" transform="translate(63.623047 0)"/>
       <use xlink:href="#DejaVuSerif-32" transform="translate(127.246094 0)"/>
       <use xlink:href="#DejaVuSerif-30" transform="translate(190.869141 0)"/>
      </g>
     </g>
    </g>
    <g id="xtick_28">
     <g id="line2d_74">
      <path d="M 384.32363 271.56 
L 384.32363 219.335 
" clip-path="url(#p8207d61ec6)" style="fill: none; stroke-dasharray: 2.96,1.28; stroke-dashoffset: 0; stroke: #b0b0b0; stroke-opacity: 0.5; stroke-width: 0.8"/>
     </g>
     <g id="line2d_75">
      <g>
       <use xlink:href="#mda89151ca5" x="384.32363" y="271.56" style="stroke: #000000; stroke-width: 0.8"/>
      </g>
     </g>
     <g id="text_18">
      <!-- 2024 -->
      <g transform="translate(374.14363 284.63875) scale(0.08 -0.08)">
       <use xlink:href="#DejaVuSerif-32"/>
       <use xlink:href="#DejaVuSerif-30" transform="translate(63.623047 0)"/>
       <use xlink:href="#DejaVuSerif-32" transform="translate(127.246094 0)"/>
       <use xlink:href="#DejaVuSerif-34" transform="translate(190.869141 0)"/>
      </g>
     </g>
    </g>
    <g id="text_19">
     <!-- Série histórica -->
     <g transform="translate(200.37875 296.38125) scale(0.08 -0.08)">
      <defs>
       <path id="DejaVuSerif-e9" d="M 3469 1600 
L 991 1600 
L 991 1575 
Q 991 903 1244 561 
Q 1497 219 1991 219 
Q 2369 219 2611 417 
Q 2853 616 2950 1006 
L 3413 1006 
Q 3275 459 2904 184 
Q 2534 -91 1931 -91 
Q 1203 -91 761 389 
Q 319 869 319 1663 
Q 319 2450 753 2931 
Q 1188 3413 1894 3413 
Q 2647 3413 3050 2948 
Q 3453 2484 3469 1600 
z
M 2791 1931 
Q 2772 2513 2545 2808 
Q 2319 3103 1894 3103 
Q 1497 3103 1269 2806 
Q 1041 2509 991 1931 
L 2791 1931 
z
M 2330 5119 
L 2952 5119 
L 1890 3944 
L 1524 3944 
L 2330 5119 
z
" transform="scale(0.015625)"/>
       <path id="DejaVuSerif-20" transform="scale(0.015625)"/>
       <path id="DejaVuSerif-68" d="M 263 0 
L 263 331 
L 781 331 
L 781 4531 
L 231 4531 
L 231 4863 
L 1356 4863 
L 1356 2731 
Q 1516 3069 1770 3241 
Q 2025 3413 2363 3413 
Q 2913 3413 3172 3097 
Q 3431 2781 3431 2113 
L 3431 331 
L 3944 331 
L 3944 0 
L 2356 0 
L 2356 331 
L 2853 331 
L 2853 1931 
Q 2853 2541 2704 2764 
Q 2556 2988 2175 2988 
Q 1775 2988 1565 2697 
Q 1356 2406 1356 1850 
L 1356 331 
L 1856 331 
L 1856 0 
L 263 0 
z
" transform="scale(0.015625)"/>
       <path id="DejaVuSerif-74" d="M 691 2988 
L 184 2988 
L 184 3322 
L 691 3322 
L 691 4353 
L 1269 4353 
L 1269 3322 
L 2350 3322 
L 2350 2988 
L 1269 2988 
L 1269 878 
Q 1269 456 1350 337 
Q 1431 219 1650 219 
Q 1875 219 1978 351 
Q 2081 484 2088 781 
L 2522 781 
Q 2497 328 2275 118 
Q 2053 -91 1600 -91 
Q 1103 -91 897 129 
Q 691 350 691 878 
L 691 2988 
z
" transform="scale(0.015625)"/>
       <path id="DejaVuSerif-f3" d="M 1925 219 
Q 2388 219 2623 584 
Q 2859 950 2859 1663 
Q 2859 2375 2623 2739 
Q 2388 3103 1925 3103 
Q 1463 3103 1227 2739 
Q 991 2375 991 1663 
Q 991 950 1228 584 
Q 1466 219 1925 219 
z
M 1925 -91 
Q 1200 -91 759 389 
Q 319 869 319 1663 
Q 319 2456 758 2934 
Q 1197 3413 1925 3413 
Q 2653 3413 3092 2934 
Q 3531 2456 3531 1663 
Q 3531 869 3092 389 
Q 2653 -91 1925 -91 
z
M 2362 5119 
L 2984 5119 
L 1922 3944 
L 1556 3944 
L 2362 5119 
z
" transform="scale(0.015625)"/>
      </defs>
      <use xlink:href="#DejaVuSerif-53"/>
      <use xlink:href="#DejaVuSerif-e9" transform="translate(68.505859 0)"/>
      <use xlink:href="#DejaVuSerif-72" transform="translate(127.685547 0)"/>
      <use xlink:href="#DejaVuSerif-69" transform="translate(175.488281 0)"/>
      <use xlink:href="#DejaVuSerif-65" transform="translate(207.470703 0)"/>
      <use xlink:href="#DejaVuSerif-20" transform="translate(266.650391 0)"/>
      <use xlink:href="#DejaVuSerif-68" transform="translate(298.4375 0)"/>
      <use xlink:href="#DejaVuSerif-69" transform="translate(362.841797 0)"/>
      <use xlink:href="#DejaVuSerif-73" transform="translate(394.824219 0)"/>
      <use xlink:href="#DejaVuSerif-74" transform="translate(446.142578 0)"/>
      <use xlink:href="#DejaVuSerif-f3" transform="translate(486.328125 0)"/>
      <use xlink:href="#DejaVuSerif-72" transform="translate(546.533203 0)"/>
      <use xlink:href="#DejaVuSerif-69" transform="translate(594.335938 0)"/>
      <use xlink:href="#DejaVuSerif-63" transform="translate(626.318359 0)"/>
      <use xlink:href="#DejaVuSerif-61" transform="translate(682.324219 0)"/>
     </g>
    </g>
   </g>
   <g id="matplotlib.axis_8">
    <g id="ytick_9">
     <g id="line2d_76">
      <path d="M 37.73625 249.301345 
L 422.37625 249.301345 
" clip-path="url(#p8207d61ec6)" style="fill: none; stroke-dasharray: 2.96,1.28; stroke-dashoffset: 0; stroke: #b0b0b0; stroke-opacity: 0.5; stroke-width: 0.8"/>
     </g>
     <g id="line2d_77">
      <g>
       <use xlink:href="#m013246899e" x="37.73625" y="249.301345" style="stroke: #000000; stroke-width: 0.8"/>
      </g>
     </g>
     <g id="text_20">
      <!-- 0 -->
      <g transform="translate(25.64625 252.34072) scale(0.08 -0.08)">
       <use xlink:href="#DejaVuSerif-30"/>
      </g>
     </g>
    </g>
    <g id="ytick_10">
     <g id="line2d_78">
      <path d="M 37.73625 224.877691 
L 422.37625 224.877691 
" clip-path="url(#p8207d61ec6)" style="fill: none; stroke-dasharray: 2.96,1.28; stroke-dashoffset: 0; stroke: #b0b0b0; stroke-opacity: 0.5; stroke-width: 0.8"/>
     </g>
     <g id="line2d_79">
      <g>
       <use xlink:href="#m013246899e" x="37.73625" y="224.877691" style="stroke: #000000; stroke-width: 0.8"/>
      </g>
     </g>
     <g id="text_21">
      <!-- 1 -->
      <g transform="translate(25.64625 227.917066) scale(0.08 -0.08)">
       <use xlink:href="#DejaVuSerif-31"/>
      </g>
     </g>
    </g>
    <g id="text_22">
     <!-- Resíduo -->
     <g transform="translate(19.9825 261.70375) rotate(-90) scale(0.08 -0.08)">
      <defs>
       <path id="DejaVuSerif-52" d="M 3066 2316 
Q 3284 2256 3442 2114 
Q 3600 1972 3725 1716 
L 4403 331 
L 4972 331 
L 4972 0 
L 3872 0 
L 3144 1484 
Q 2934 1916 2759 2042 
Q 2584 2169 2278 2169 
L 1581 2169 
L 1581 331 
L 2241 331 
L 2241 0 
L 353 0 
L 353 331 
L 947 331 
L 947 4331 
L 353 4331 
L 353 4666 
L 2719 4666 
Q 3400 4666 3770 4341 
Q 4141 4016 4141 3419 
Q 4141 2938 3870 2661 
Q 3600 2384 3066 2316 
z
M 1581 2503 
L 2503 2503 
Q 2975 2503 3200 2726 
Q 3425 2950 3425 3419 
Q 3425 3888 3200 4109 
Q 2975 4331 2503 4331 
L 1581 4331 
L 1581 2503 
z
" transform="scale(0.015625)"/>
       <path id="DejaVuSerif-ed" d="M 1356 331 
L 1900 331 
L 1900 0 
L 231 0 
L 231 331 
L 781 331 
L 781 2988 
L 231 2988 
L 231 3322 
L 1356 3322 
L 1356 331 
z
M 1458 5119 
L 2080 5119 
L 1018 3944 
L 652 3944 
L 1458 5119 
z
" transform="scale(0.015625)"/>
       <path id="DejaVuSerif-75" d="M 2266 3322 
L 3341 3322 
L 3341 331 
L 3884 331 
L 3884 0 
L 2766 0 
L 2766 588 
Q 2606 256 2353 82 
Q 2100 -91 1766 -91 
Q 1213 -91 952 223 
Q 691 538 691 1209 
L 691 2988 
L 172 2988 
L 172 3322 
L 1269 3322 
L 1269 1388 
Q 1269 781 1417 556 
Q 1566 331 1947 331 
Q 2347 331 2556 625 
Q 2766 919 2766 1478 
L 2766 2988 
L 2266 2988 
L 2266 3322 
z
" transform="scale(0.015625)"/>
      </defs>
      <use xlink:href="#DejaVuSerif-52"/>
      <use xlink:href="#DejaVuSerif-65" transform="translate(75.292969 0)"/>
      <use xlink:href="#DejaVuSerif-73" transform="translate(134.472656 0)"/>
      <use xlink:href="#DejaVuSerif-ed" transform="translate(185.791016 0)"/>
      <use xlink:href="#DejaVuSerif-64" transform="translate(217.773438 0)"/>
      <use xlink:href="#DejaVuSerif-75" transform="translate(281.787109 0)"/>
      <use xlink:href="#DejaVuSerif-6f" transform="translate(346.191406 0)"/>
     </g>
    </g>
   </g>
   <g id="line2d_80">
    <path d="M 55.219886 250.709282 
L 56.312378 252.566714 
L 57.480214 254.32525 
L 58.610378 255.113947 
L 59.778214 249.759486 
L 60.908378 241.834074 
L 62.076214 244.471567 
L 63.24405 245.170394 
L 64.374214 243.961229 
L 65.54205 243.862588 
L 66.672214 248.029058 
L 67.840051 248.966302 
L 69.007887 243.111415 
L 70.062706 242.062709 
L 71.230542 241.338423 
L 72.360706 241.63955 
L 73.528542 246.204433 
L 74.658706 260.854267 
L 75.826542 258.384146 
L 76.994379 257.930815 
L 78.124542 259.249379 
L 79.292379 258.41033 
L 80.422543 254.452836 
L 81.590379 254.15766 
L 82.758215 253.553656 
L 83.813034 253.404135 
L 84.98087 246.810097 
L 86.111034 246.530809 
L 87.278871 250.352893 
L 88.409034 245.955789 
L 89.576871 246.469859 
L 90.744707 244.676478 
L 91.874871 249.338287 
L 93.042707 244.946787 
L 94.172871 244.427088 
L 96.508543 248.42749 
L 97.563362 246.456197 
L 98.731199 255.254793 
L 99.861363 252.008927 
L 101.029199 251.354044 
L 102.159363 250.148292 
L 103.327199 248.654248 
L 104.495035 249.47264 
L 105.625199 243.604558 
L 107.923199 248.23915 
L 109.091035 248.884846 
L 110.258871 255.778147 
L 111.351363 255.643026 
L 112.519199 251.985249 
L 113.649363 252.504294 
L 114.817199 248.250005 
L 115.947363 247.191304 
L 117.115199 245.421112 
L 118.283035 248.045916 
L 119.413199 246.939533 
L 120.581035 254.1551 
L 122.879035 245.977869 
L 124.046871 246.732245 
L 125.101691 246.553924 
L 126.269527 246.917814 
L 127.399691 248.933363 
L 128.567527 252.153254 
L 129.697691 249.526184 
L 130.865527 252.065979 
L 132.033363 250.453476 
L 133.163527 250.297438 
L 134.331363 250.262563 
L 135.461527 251.804295 
L 136.629363 247.153014 
L 137.797199 243.0087 
L 138.852019 247.61134 
L 140.019855 248.599366 
L 141.150019 251.691797 
L 142.317855 250.751362 
L 143.448019 249.17932 
L 144.615855 250.970521 
L 145.783691 249.233858 
L 146.913855 253.876578 
L 148.081691 254.791825 
L 149.211855 249.854958 
L 150.379691 249.825746 
L 151.547527 247.27473 
L 152.602347 247.349253 
L 153.770183 243.952417 
L 154.900347 245.766929 
L 156.068183 246.422501 
L 157.198347 247.768482 
L 158.366183 247.334553 
L 159.534019 247.63472 
L 160.664183 248.212354 
L 161.832019 244.756565 
L 162.962183 249.278925 
L 164.130019 247.692225 
L 165.297855 255.680652 
L 166.390347 260.890041 
L 167.558183 259.657753 
L 168.688347 250.488727 
L 170.986347 240.796557 
L 172.154183 247.529471 
L 174.452183 245.413501 
L 175.62002 242.951168 
L 176.750184 248.270014 
L 177.91802 260.352061 
L 179.085856 255.634297 
L 180.140675 249.997876 
L 181.308511 247.804088 
L 183.606512 255.248167 
L 184.736675 256.333247 
L 185.904512 250.827483 
L 188.202512 245.334349 
L 189.370348 247.035454 
L 190.500512 239.141627 
L 191.668348 244.774492 
L 192.836184 246.672498 
L 193.891003 246.245447 
L 195.05884 246.049032 
L 196.189004 248.1327 
L 197.35684 246.719712 
L 198.487004 251.497843 
L 199.65484 248.15198 
L 200.822676 258.962493 
L 201.95284 259.804385 
L 203.120676 258.786249 
L 204.25084 255.152007 
L 205.418676 247.479712 
L 206.586512 243.144246 
L 207.641332 243.284313 
L 208.809168 251.169964 
L 209.939332 245.176858 
L 211.107168 246.794249 
L 212.237332 249.871341 
L 213.405168 252.065041 
L 214.573004 245.213475 
L 215.703168 245.380976 
L 216.871004 250.927447 
L 218.001168 249.709251 
L 219.169004 248.094854 
L 220.33684 251.365589 
L 221.429332 245.740283 
L 222.597168 239.080591 
L 223.727332 252.740058 
L 224.895168 250.330816 
L 226.025332 243.080726 
L 227.193168 243.445914 
L 228.361004 240.101338 
L 229.491168 248.762665 
L 230.659004 249.94154 
L 231.789168 259.693348 
L 232.957004 250.7769 
L 234.12484 263.25046 
L 235.17966 258.309535 
L 236.347496 254.665833 
L 237.47766 249.119295 
L 238.645496 251.160251 
L 239.77566 251.284459 
L 240.943496 246.270649 
L 242.111332 244.952079 
L 243.241496 243.932704 
L 244.409332 242.346358 
L 245.539496 242.375516 
L 246.707332 247.218083 
L 247.875168 238.439155 
L 248.929988 247.246866 
L 250.097824 258.897269 
L 251.227988 252.032139 
L 252.395824 252.638224 
L 253.525988 252.068983 
L 254.693824 251.121498 
L 255.86166 254.676302 
L 256.991824 245.610004 
L 258.15966 245.90949 
L 259.289824 245.667533 
L 260.45766 254.067066 
L 261.625496 244.029221 
L 262.680316 255.707327 
L 263.848152 254.850729 
L 264.978316 253.774455 
L 266.146152 252.225631 
L 267.276316 255.909219 
L 268.444152 248.998638 
L 269.611988 248.633978 
L 271.909988 241.896491 
L 273.040152 246.7247 
L 274.207988 253.240014 
L 275.375825 261.570309 
L 276.468316 250.963808 
L 277.636152 248.114704 
L 278.766316 243.833109 
L 279.934152 246.305984 
L 281.064316 244.517637 
L 282.232153 243.327169 
L 283.399989 243.413401 
L 284.530153 250.563325 
L 285.697989 256.348494 
L 286.828153 254.414306 
L 287.995989 245.942509 
L 289.163825 245.520257 
L 290.218644 239.552252 
L 291.386481 244.210849 
L 292.516645 256.917822 
L 293.684481 248.728785 
L 294.814645 239.202044 
L 295.982481 254.024276 
L 297.150317 255.641546 
L 298.280481 256.204107 
L 299.448317 260.632793 
L 300.578481 257.402459 
L 301.746317 249.640781 
L 302.914153 245.820349 
L 303.968973 245.273212 
L 305.136809 238.800868 
L 306.266973 239.724781 
L 307.434809 250.526458 
L 308.564973 259.027626 
L 309.732809 260.135498 
L 310.900645 256.094331 
L 312.030809 264.673427 
L 313.198645 244.449446 
L 314.328809 233.416988 
L 316.664481 234.351751 
L 317.719301 254.825001 
L 318.887137 260.772371 
L 320.017301 242.652162 
L 321.185137 240.778125 
L 322.315301 247.328711 
L 324.650973 257.432013 
L 325.781137 250.56984 
L 326.948973 246.079042 
L 328.079137 250.64396 
L 329.246973 253.939818 
L 331.507301 245.596869 
L 332.675137 250.746536 
L 333.805301 269.186136 
L 334.973137 263.927027 
L 336.103301 251.054105 
L 337.271137 233.262848 
L 338.438973 231.799389 
L 339.569137 221.708864 
L 340.736973 236.395801 
L 341.867137 261.293941 
L 343.034973 260.27953 
L 344.202809 267.673515 
L 345.257629 253.631563 
L 346.425465 242.134285 
L 347.555629 242.934915 
L 348.723465 239.969868 
L 349.853629 249.995183 
L 351.021465 257.985371 
L 352.189301 262.433993 
L 353.319465 260.13503 
L 354.487301 266.899952 
L 355.617465 255.867622 
L 356.785301 247.507461 
L 357.953137 246.966168 
L 359.007957 246.091133 
L 360.175793 246.599278 
L 361.305957 242.748606 
L 362.473793 244.800156 
L 363.603957 238.930799 
L 364.771793 240.641568 
L 367.069793 250.675085 
L 368.237629 251.265745 
L 369.367793 242.428978 
L 370.535629 244.864717 
L 371.703466 255.428344 
L 372.758285 257.145942 
L 373.926121 247.750677 
L 375.056285 252.707128 
L 376.224121 252.400054 
L 377.354285 259.314305 
L 378.522121 257.73369 
L 379.689957 244.10339 
L 380.820121 239.836255 
L 381.987958 233.294126 
L 383.118121 241.402299 
L 384.285958 247.533604 
L 385.453794 255.133951 
L 386.546285 256.560411 
L 387.714122 248.579226 
L 388.844285 243.321132 
L 391.142286 248.210642 
L 392.310122 247.349845 
L 393.477958 252.815118 
L 394.608122 258.674874 
L 395.775958 257.376823 
L 396.906122 253.552243 
L 398.073958 250.676367 
L 399.241794 235.115923 
L 400.296614 237.40916 
L 401.46445 253.379999 
L 402.594614 253.996897 
L 403.76245 253.12543 
L 404.892614 247.506257 
L 404.892614 247.506257 
" clip-path="url(#p8207d61ec6)" style="fill: none; stroke: #47a730; stroke-width: 0.5; stroke-linecap: square"/>
   </g>
   <g id="patch_12">
    <path d="M 37.73625 271.56 
L 37.73625 219.335 
" style="fill: none; stroke: #000000; stroke-width: 0.8; stroke-linejoin: miter; stroke-linecap: square"/>
   </g>
   <g id="patch_13">
    <path d="M 37.73625 271.56 
L 422.37625 271.56 
" style="fill: none; stroke: #000000; stroke-width: 0.8; stroke-linejoin: miter; stroke-linecap: square"/>
   </g>
  </g>
  <g id="legend_1">
   <g id="line2d_81">
    <path d="M 60.429375 13.67875 
L 68.429375 13.67875 
L 76.429375 13.67875 
" style="fill: none; stroke: #4596f3; stroke-width: 0.5; stroke-linecap: square"/>
   </g>
   <g id="text_23">
    <!-- Observado -->
    <g transform="translate(82.829375 16.47875) scale(0.08 -0.08)">
     <use xlink:href="#DejaVuSerif-4f"/>
     <use xlink:href="#DejaVuSerif-62" transform="translate(81.982422 0)"/>
     <use xlink:href="#DejaVuSerif-73" transform="translate(145.996094 0)"/>
     <use xlink:href="#DejaVuSerif-65" transform="translate(197.314453 0)"/>
     <use xlink:href="#DejaVuSerif-72" transform="translate(256.494141 0)"/>
     <use xlink:href="#DejaVuSerif-76" transform="translate(304.296875 0)"/>
     <use xlink:href="#DejaVuSerif-61" transform="translate(360.791016 0)"/>
     <use xlink:href="#DejaVuSerif-64" transform="translate(420.410156 0)"/>
     <use xlink:href="#DejaVuSerif-6f" transform="translate(484.423828 0)"/>
    </g>
   </g>
   <g id="line2d_82">
    <path d="M 142.400625 13.67875 
L 150.400625 13.67875 
L 158.400625 13.67875 
" style="fill: none; stroke: #ff5656; stroke-width: 0.5; stroke-linecap: square"/>
   </g>
   <g id="text_24">
    <!-- Tendência -->
    <g transform="translate(164.800625 16.47875) scale(0.08 -0.08)">
     <use xlink:href="#DejaVuSerif-54"/>
     <use xlink:href="#DejaVuSerif-65" transform="translate(58.949219 0)"/>
     <use xlink:href="#DejaVuSerif-6e" transform="translate(118.128906 0)"/>
     <use xlink:href="#DejaVuSerif-64" transform="translate(182.533203 0)"/>
     <use xlink:href="#DejaVuSerif-ea" transform="translate(246.546875 0)"/>
     <use xlink:href="#DejaVuSerif-6e" transform="translate(305.726562 0)"/>
     <use xlink:href="#DejaVuSerif-63" transform="translate(370.130859 0)"/>
     <use xlink:href="#DejaVuSerif-69" transform="translate(426.136719 0)"/>
     <use xlink:href="#DejaVuSerif-61" transform="translate(458.119141 0)"/>
    </g>
   </g>
   <g id="line2d_83">
    <path d="M 222.221875 13.67875 
L 230.221875 13.67875 
L 238.221875 13.67875 
" style="fill: none; stroke: #ffa722; stroke-width: 0.5; stroke-linecap: square"/>
   </g>
   <g id="text_25">
    <!-- Sazonalidade -->
    <g transform="translate(244.621875 16.47875) scale(0.08 -0.08)">
     <use xlink:href="#DejaVuSerif-53"/>
     <use xlink:href="#DejaVuSerif-61" transform="translate(68.505859 0)"/>
     <use xlink:href="#DejaVuSerif-7a" transform="translate(128.125 0)"/>
     <use xlink:href="#DejaVuSerif-6f" transform="translate(180.810547 0)"/>
     <use xlink:href="#DejaVuSerif-6e" transform="translate(241.015625 0)"/>
     <use xlink:href="#DejaVuSerif-61" transform="translate(305.419922 0)"/>
     <use xlink:href="#DejaVuSerif-6c" transform="translate(365.039062 0)"/>
     <use xlink:href="#DejaVuSerif-69" transform="translate(397.021484 0)"/>
     <use xlink:href="#DejaVuSerif-64" transform="translate(429.003906 0)"/>
     <use xlink:href="#DejaVuSerif-61" transform="translate(493.017578 0)"/>
     <use xlink:href="#DejaVuSerif-64" transform="translate(552.636719 0)"/>
     <use xlink:href="#DejaVuSerif-65" transform="translate(616.650391 0)"/>
    </g>
   </g>
   <g id="line2d_84">
    <path d="M 314.690625 13.67875 
L 322.690625 13.67875 
L 330.690625 13.67875 
" style="fill: none; stroke: #47a730; stroke-width: 0.5; stroke-linecap: square"/>
   </g>
   <g id="text_26">
    <!-- Resíduo -->
    <g transform="translate(337.090625 16.47875) scale(0.08 -0.08)">
     <use xlink:href="#DejaVuSerif-52"/>
     <use xlink:href="#DejaVuSerif-65" transform="translate(75.292969 0)"/>
     <use xlink:href="#DejaVuSerif-73" transform="translate(134.472656 0)"/>
     <use xlink:href="#DejaVuSerif-ed" transform="translate(185.791016 0)"/>
     <use xlink:href="#DejaVuSerif-64" transform="translate(217.773438 0)"/>
     <use xlink:href="#DejaVuSerif-75" transform="translate(281.787109 0)"/>
     <use xlink:href="#DejaVuSerif-6f" transform="translate(346.191406 0)"/>
    </g>
   </g>
  </g>
 </g>
 <defs>
  <clipPath id="p63da5e9353">
   <rect x="37.73625" y="26.24" width="384.64" height="52.225"/>
  </clipPath>
  <clipPath id="p440391fd0e">
   <rect x="37.73625" y="90.605" width="384.64" height="52.225"/>
  </clipPath>
  <clipPath id="p2dcf037ff4">
   <rect x="37.73625" y="154.97" width="384.64" height="52.225"/>
  </clipPath>
  <clipPath id="p8207d61ec6">
   <rect x="37.73625" y="219.335" width="384.64" height="52.225"/>
  </clipPath>
 </defs>
</svg>
