<?xml version="1.0" encoding="utf-8" standalone="no"?>
<!DOCTYPE svg PUBLIC "-//W3C//DTD SVG 1.1//EN"
  "http://www.w3.org/Graphics/SVG/1.1/DTD/svg11.dtd">
<svg xmlns:xlink="http://www.w3.org/1999/xlink" width="429.57625pt" height="305.245pt" viewBox="0 0 429.57625 305.245" xmlns="http://www.w3.org/2000/svg" version="1.1">
 <metadata>
  <rdf:RDF xmlns:dc="http://purl.org/dc/elements/1.1/" xmlns:cc="http://creativecommons.org/ns#" xmlns:rdf="http://www.w3.org/1999/02/22-rdf-syntax-ns#">
   <cc:Work>
    <dc:type rdf:resource="http://purl.org/dc/dcmitype/StillImage"/>
    <dc:date>2025-06-30T00:11:22.581692</dc:date>
    <dc:format>image/svg+xml</dc:format>
    <dc:creator>
     <cc:Agent>
      <dc:title>Matplotlib v3.10.3, https://matplotlib.org/</dc:title>
     </cc:Agent>
    </dc:creator>
   </cc:Work>
  </rdf:RDF>
 </metadata>
 <defs>
  <style type="text/css">*{stroke-linejoin: round; stroke-linecap: butt}</style>
 </defs>
 <g id="figure_1">
  <g id="patch_1">
   <path d="M 0 305.245 
L 429.57625 305.245 
L 429.57625 0 
L 0 0 
z
" style="fill: #ffffff"/>
  </g>
  <g id="axes_1">
   <g id="patch_2">
    <path d="M 37.73625 77.492638 
L 422.37625 77.492638 
L 422.37625 26.24 
L 37.73625 26.24 
z
" style="fill: #ffffff"/>
   </g>
   <g id="matplotlib.axis_1">
    <g id="xtick_1">
     <g id="line2d_1">
      <path d="M 54.082246 77.492638 
L 54.082246 26.24 
" clip-path="url(#p84acfbf9e0)" style="fill: none; stroke-dasharray: 2.96,1.28; stroke-dashoffset: 0; stroke: #b0b0b0; stroke-opacity: 0.5; stroke-width: 0.8"/>
     </g>
     <g id="line2d_2">
      <defs>
       <path id="m3e749a1267" d="M 0 0 
L 0 3.5 
" style="stroke: #000000; stroke-width: 0.8"/>
      </defs>
      <g>
       <use xlink:href="#m3e749a1267" x="54.082246" y="77.492638" style="stroke: #000000; stroke-width: 0.8"/>
      </g>
     </g>
    </g>
    <g id="xtick_2">
     <g id="line2d_3">
      <path d="M 109.485332 77.492638 
L 109.485332 26.24 
" clip-path="url(#p84acfbf9e0)" style="fill: none; stroke-dasharray: 2.96,1.28; stroke-dashoffset: 0; stroke: #b0b0b0; stroke-opacity: 0.5; stroke-width: 0.8"/>
     </g>
     <g id="line2d_4">
      <g>
       <use xlink:href="#m3e749a1267" x="109.485332" y="77.492638" style="stroke: #000000; stroke-width: 0.8"/>
      </g>
     </g>
    </g>
    <g id="xtick_3">
     <g id="line2d_5">
      <path d="M 164.888418 77.492638 
L 164.888418 26.24 
" clip-path="url(#p84acfbf9e0)" style="fill: none; stroke-dasharray: 2.96,1.28; stroke-dashoffset: 0; stroke: #b0b0b0; stroke-opacity: 0.5; stroke-width: 0.8"/>
     </g>
     <g id="line2d_6">
      <g>
       <use xlink:href="#m3e749a1267" x="164.888418" y="77.492638" style="stroke: #000000; stroke-width: 0.8"/>
      </g>
     </g>
    </g>
    <g id="xtick_4">
     <g id="line2d_7">
      <path d="M 220.291504 77.492638 
L 220.291504 26.24 
" clip-path="url(#p84acfbf9e0)" style="fill: none; stroke-dasharray: 2.96,1.28; stroke-dashoffset: 0; stroke: #b0b0b0; stroke-opacity: 0.5; stroke-width: 0.8"/>
     </g>
     <g id="line2d_8">
      <g>
       <use xlink:href="#m3e749a1267" x="220.291504" y="77.492638" style="stroke: #000000; stroke-width: 0.8"/>
      </g>
     </g>
    </g>
    <g id="xtick_5">
     <g id="line2d_9">
      <path d="M 275.694589 77.492638 
L 275.694589 26.24 
" clip-path="url(#p84acfbf9e0)" style="fill: none; stroke-dasharray: 2.96,1.28; stroke-dashoffset: 0; stroke: #b0b0b0; stroke-opacity: 0.5; stroke-width: 0.8"/>
     </g>
     <g id="line2d_10">
      <g>
       <use xlink:href="#m3e749a1267" x="275.694589" y="77.492638" style="stroke: #000000; stroke-width: 0.8"/>
      </g>
     </g>
    </g>
    <g id="xtick_6">
     <g id="line2d_11">
      <path d="M 331.097675 77.492638 
L 331.097675 26.24 
" clip-path="url(#p84acfbf9e0)" style="fill: none; stroke-dasharray: 2.96,1.28; stroke-dashoffset: 0; stroke: #b0b0b0; stroke-opacity: 0.5; stroke-width: 0.8"/>
     </g>
     <g id="line2d_12">
      <g>
       <use xlink:href="#m3e749a1267" x="331.097675" y="77.492638" style="stroke: #000000; stroke-width: 0.8"/>
      </g>
     </g>
    </g>
    <g id="xtick_7">
     <g id="line2d_13">
      <path d="M 386.500761 77.492638 
L 386.500761 26.24 
" clip-path="url(#p84acfbf9e0)" style="fill: none; stroke-dasharray: 2.96,1.28; stroke-dashoffset: 0; stroke: #b0b0b0; stroke-opacity: 0.5; stroke-width: 0.8"/>
     </g>
     <g id="line2d_14">
      <g>
       <use xlink:href="#m3e749a1267" x="386.500761" y="77.492638" style="stroke: #000000; stroke-width: 0.8"/>
      </g>
     </g>
    </g>
   </g>
   <g id="matplotlib.axis_2">
    <g id="ytick_1">
     <g id="line2d_15">
      <path d="M 37.73625 70.368272 
L 422.37625 70.368272 
" clip-path="url(#p84acfbf9e0)" style="fill: none; stroke-dasharray: 2.96,1.28; stroke-dashoffset: 0; stroke: #b0b0b0; stroke-opacity: 0.5; stroke-width: 0.8"/>
     </g>
     <g id="line2d_16">
      <defs>
       <path id="m8322df43cb" d="M 0 0 
L -3.5 0 
" style="stroke: #000000; stroke-width: 0.8"/>
      </defs>
      <g>
       <use xlink:href="#m8322df43cb" x="37.73625" y="70.368272" style="stroke: #000000; stroke-width: 0.8"/>
      </g>
     </g>
     <g id="text_1">
      <!-- −2 -->
      <g transform="translate(18.9425 73.407647) scale(0.08 -0.08)">
       <defs>
        <path id="DejaVuSerif-2212" d="M 678 2259 
L 4684 2259 
L 4684 1753 
L 678 1753 
L 678 2259 
z
" transform="scale(0.015625)"/>
        <path id="DejaVuSerif-32" d="M 819 3553 
L 469 3553 
L 469 4384 
Q 803 4563 1142 4656 
Q 1481 4750 1806 4750 
Q 2534 4750 2956 4397 
Q 3378 4044 3378 3438 
Q 3378 2753 2422 1800 
Q 2347 1728 2309 1691 
L 1131 513 
L 3078 513 
L 3078 1088 
L 3444 1088 
L 3444 0 
L 434 0 
L 434 341 
L 1850 1753 
Q 2319 2222 2519 2614 
Q 2719 3006 2719 3438 
Q 2719 3909 2473 4175 
Q 2228 4441 1797 4441 
Q 1350 4441 1106 4219 
Q 863 3997 819 3553 
z
" transform="scale(0.015625)"/>
       </defs>
       <use xlink:href="#DejaVuSerif-2212"/>
       <use xlink:href="#DejaVuSerif-32" transform="translate(83.789062 0)"/>
      </g>
     </g>
    </g>
    <g id="ytick_2">
     <g id="line2d_17">
      <path d="M 37.73625 51.690664 
L 422.37625 51.690664 
" clip-path="url(#p84acfbf9e0)" style="fill: none; stroke-dasharray: 2.96,1.28; stroke-dashoffset: 0; stroke: #b0b0b0; stroke-opacity: 0.5; stroke-width: 0.8"/>
     </g>
     <g id="line2d_18">
      <g>
       <use xlink:href="#m8322df43cb" x="37.73625" y="51.690664" style="stroke: #000000; stroke-width: 0.8"/>
      </g>
     </g>
     <g id="text_2">
      <!-- 0 -->
      <g transform="translate(25.64625 54.730039) scale(0.08 -0.08)">
       <defs>
        <path id="DejaVuSerif-30" d="M 2034 219 
Q 2513 219 2750 744 
Q 2988 1269 2988 2328 
Q 2988 3391 2750 3916 
Q 2513 4441 2034 4441 
Q 1556 4441 1318 3916 
Q 1081 3391 1081 2328 
Q 1081 1269 1318 744 
Q 1556 219 2034 219 
z
M 2034 -91 
Q 1275 -91 848 546 
Q 422 1184 422 2328 
Q 422 3475 848 4112 
Q 1275 4750 2034 4750 
Q 2797 4750 3222 4112 
Q 3647 3475 3647 2328 
Q 3647 1184 3222 546 
Q 2797 -91 2034 -91 
z
" transform="scale(0.015625)"/>
       </defs>
       <use xlink:href="#DejaVuSerif-30"/>
      </g>
     </g>
    </g>
    <g id="ytick_3">
     <g id="line2d_19">
      <path d="M 37.73625 33.013056 
L 422.37625 33.013056 
" clip-path="url(#p84acfbf9e0)" style="fill: none; stroke-dasharray: 2.96,1.28; stroke-dashoffset: 0; stroke: #b0b0b0; stroke-opacity: 0.5; stroke-width: 0.8"/>
     </g>
     <g id="line2d_20">
      <g>
       <use xlink:href="#m8322df43cb" x="37.73625" y="33.013056" style="stroke: #000000; stroke-width: 0.8"/>
      </g>
     </g>
     <g id="text_3">
      <!-- 2 -->
      <g transform="translate(25.64625 36.052431) scale(0.08 -0.08)">
       <use xlink:href="#DejaVuSerif-32"/>
      </g>
     </g>
    </g>
    <g id="text_4">
     <!-- Observado -->
     <g transform="translate(13.27875 73.651944) rotate(-90) scale(0.08 -0.08)">
      <defs>
       <path id="DejaVuSerif-4f" d="M 2625 244 
Q 3391 244 3781 770 
Q 4172 1297 4172 2328 
Q 4172 3363 3781 3889 
Q 3391 4416 2625 4416 
Q 1856 4416 1465 3889 
Q 1075 3363 1075 2328 
Q 1075 1297 1465 770 
Q 1856 244 2625 244 
z
M 2625 -91 
Q 2150 -91 1751 65 
Q 1353 222 1050 525 
Q 700 875 529 1319 
Q 359 1763 359 2328 
Q 359 2894 529 3339 
Q 700 3784 1050 4134 
Q 1356 4441 1750 4595 
Q 2144 4750 2625 4750 
Q 3641 4750 4266 4084 
Q 4891 3419 4891 2328 
Q 4891 1769 4719 1320 
Q 4547 872 4197 525 
Q 3891 219 3497 64 
Q 3103 -91 2625 -91 
z
" transform="scale(0.015625)"/>
       <path id="DejaVuSerif-62" d="M 738 331 
L 738 4531 
L 184 4531 
L 184 4863 
L 1313 4863 
L 1313 2803 
Q 1481 3116 1742 3264 
Q 2003 3413 2388 3413 
Q 3000 3413 3387 2928 
Q 3775 2444 3775 1663 
Q 3775 881 3387 395 
Q 3000 -91 2388 -91 
Q 2003 -91 1742 57 
Q 1481 206 1313 519 
L 1313 0 
L 184 0 
L 184 331 
L 738 331 
z
M 1313 1497 
Q 1313 897 1542 583 
Q 1772 269 2209 269 
Q 2650 269 2876 622 
Q 3103 975 3103 1663 
Q 3103 2353 2876 2703 
Q 2650 3053 2209 3053 
Q 1772 3053 1542 2737 
Q 1313 2422 1313 1825 
L 1313 1497 
z
" transform="scale(0.015625)"/>
       <path id="DejaVuSerif-73" d="M 359 184 
L 359 959 
L 691 959 
Q 703 588 923 403 
Q 1144 219 1575 219 
Q 1963 219 2166 364 
Q 2369 509 2369 788 
Q 2369 1006 2220 1140 
Q 2072 1275 1594 1428 
L 1178 1569 
Q 750 1706 558 1912 
Q 366 2119 366 2438 
Q 366 2894 700 3153 
Q 1034 3413 1625 3413 
Q 1888 3413 2178 3344 
Q 2469 3275 2778 3144 
L 2778 2419 
L 2447 2419 
Q 2434 2741 2221 2922 
Q 2009 3103 1644 3103 
Q 1281 3103 1095 2975 
Q 909 2847 909 2591 
Q 909 2381 1050 2254 
Q 1191 2128 1613 1997 
L 2069 1856 
Q 2541 1709 2748 1489 
Q 2956 1269 2956 922 
Q 2956 450 2595 179 
Q 2234 -91 1600 -91 
Q 1278 -91 972 -22 
Q 666 47 359 184 
z
" transform="scale(0.015625)"/>
       <path id="DejaVuSerif-65" d="M 3469 1600 
L 991 1600 
L 991 1575 
Q 991 903 1244 561 
Q 1497 219 1991 219 
Q 2369 219 2611 417 
Q 2853 616 2950 1006 
L 3413 1006 
Q 3275 459 2904 184 
Q 2534 -91 1931 -91 
Q 1203 -91 761 389 
Q 319 869 319 1663 
Q 319 2450 753 2931 
Q 1188 3413 1894 3413 
Q 2647 3413 3050 2948 
Q 3453 2484 3469 1600 
z
M 2791 1931 
Q 2772 2513 2545 2808 
Q 2319 3103 1894 3103 
Q 1497 3103 1269 2806 
Q 1041 2509 991 1931 
L 2791 1931 
z
" transform="scale(0.015625)"/>
       <path id="DejaVuSerif-72" d="M 3059 3328 
L 3059 2497 
L 2728 2497 
Q 2713 2744 2591 2866 
Q 2469 2988 2234 2988 
Q 1809 2988 1582 2694 
Q 1356 2400 1356 1850 
L 1356 331 
L 2022 331 
L 2022 0 
L 263 0 
L 263 331 
L 781 331 
L 781 2994 
L 231 2994 
L 231 3322 
L 1356 3322 
L 1356 2731 
Q 1525 3078 1790 3245 
Q 2056 3413 2438 3413 
Q 2578 3413 2733 3391 
Q 2888 3369 3059 3328 
z
" transform="scale(0.015625)"/>
       <path id="DejaVuSerif-76" d="M 1581 0 
L 359 2988 
L -19 2988 
L -19 3322 
L 1509 3322 
L 1509 2988 
L 978 2988 
L 1913 703 
L 2847 2988 
L 2350 2988 
L 2350 3322 
L 3597 3322 
L 3597 2988 
L 3225 2988 
L 2003 0 
L 1581 0 
z
" transform="scale(0.015625)"/>
       <path id="DejaVuSerif-61" d="M 2547 1044 
L 2547 1747 
L 1806 1747 
Q 1378 1747 1168 1562 
Q 959 1378 959 997 
Q 959 650 1171 447 
Q 1384 244 1747 244 
Q 2106 244 2326 466 
Q 2547 688 2547 1044 
z
M 3122 2075 
L 3122 331 
L 3634 331 
L 3634 0 
L 2547 0 
L 2547 359 
Q 2356 128 2106 18 
Q 1856 -91 1522 -91 
Q 969 -91 644 203 
Q 319 497 319 997 
Q 319 1513 691 1797 
Q 1063 2081 1741 2081 
L 2547 2081 
L 2547 2309 
Q 2547 2688 2317 2895 
Q 2088 3103 1672 3103 
Q 1328 3103 1125 2947 
Q 922 2791 872 2484 
L 575 2484 
L 575 3156 
Q 875 3284 1158 3348 
Q 1441 3413 1709 3413 
Q 2400 3413 2761 3070 
Q 3122 2728 3122 2075 
z
" transform="scale(0.015625)"/>
       <path id="DejaVuSerif-64" d="M 3359 331 
L 3909 331 
L 3909 0 
L 2784 0 
L 2784 519 
Q 2616 206 2355 57 
Q 2094 -91 1709 -91 
Q 1097 -91 708 395 
Q 319 881 319 1663 
Q 319 2444 706 2928 
Q 1094 3413 1709 3413 
Q 2094 3413 2355 3264 
Q 2616 3116 2784 2803 
L 2784 4531 
L 2241 4531 
L 2241 4863 
L 3359 4863 
L 3359 331 
z
M 2784 1497 
L 2784 1825 
Q 2784 2422 2554 2737 
Q 2325 3053 1888 3053 
Q 1444 3053 1217 2703 
Q 991 2353 991 1663 
Q 991 975 1217 622 
Q 1444 269 1888 269 
Q 2325 269 2554 583 
Q 2784 897 2784 1497 
z
" transform="scale(0.015625)"/>
       <path id="DejaVuSerif-6f" d="M 1925 219 
Q 2388 219 2623 584 
Q 2859 950 2859 1663 
Q 2859 2375 2623 2739 
Q 2388 3103 1925 3103 
Q 1463 3103 1227 2739 
Q 991 2375 991 1663 
Q 991 950 1228 584 
Q 1466 219 1925 219 
z
M 1925 -91 
Q 1200 -91 759 389 
Q 319 869 319 1663 
Q 319 2456 758 2934 
Q 1197 3413 1925 3413 
Q 2653 3413 3092 2934 
Q 3531 2456 3531 1663 
Q 3531 869 3092 389 
Q 2653 -91 1925 -91 
z
" transform="scale(0.015625)"/>
      </defs>
      <use xlink:href="#DejaVuSerif-4f"/>
      <use xlink:href="#DejaVuSerif-62" transform="translate(81.982422 0)"/>
      <use xlink:href="#DejaVuSerif-73" transform="translate(145.996094 0)"/>
      <use xlink:href="#DejaVuSerif-65" transform="translate(197.314453 0)"/>
      <use xlink:href="#DejaVuSerif-72" transform="translate(256.494141 0)"/>
      <use xlink:href="#DejaVuSerif-76" transform="translate(304.296875 0)"/>
      <use xlink:href="#DejaVuSerif-61" transform="translate(360.791016 0)"/>
      <use xlink:href="#DejaVuSerif-64" transform="translate(420.410156 0)"/>
      <use xlink:href="#DejaVuSerif-6f" transform="translate(484.423828 0)"/>
     </g>
    </g>
   </g>
   <g id="line2d_21">
    <path d="M 55.219886 75.162973 
L 56.319605 71.347439 
L 58.632807 53.315545 
L 59.808369 51.277305 
L 60.94601 50.317702 
L 62.121571 54.573834 
L 63.297133 56.089719 
L 64.434773 57.905019 
L 66.747975 63.524222 
L 67.923537 64.779515 
L 69.099099 62.931307 
L 70.160897 62.950895 
L 72.474099 46.803495 
L 73.64966 45.540137 
L 74.787301 45.279402 
L 75.962862 46.285185 
L 77.138424 53.303919 
L 78.276064 56.013629 
L 79.451626 56.187459 
L 80.589267 57.365213 
L 81.764828 60.643109 
L 82.94039 58.418065 
L 84.002188 54.354594 
L 85.177749 51.052924 
L 86.31539 44.528 
L 87.490951 41.520199 
L 88.628592 38.063631 
L 89.804154 41.211714 
L 90.979715 44.036923 
L 92.117356 44.11132 
L 93.292917 43.610087 
L 94.430558 40.058266 
L 95.606119 42.221803 
L 96.781681 47.457248 
L 97.843479 50.063257 
L 99.01904 45.502207 
L 100.156681 45.271407 
L 101.332243 46.782035 
L 102.469883 46.446918 
L 103.645445 47.827712 
L 104.821006 54.656744 
L 105.958647 53.321918 
L 107.134208 51.277471 
L 108.271849 51.157678 
L 109.44741 54.141314 
L 110.622972 56.703517 
L 111.722691 55.145464 
L 112.898253 52.032658 
L 114.035893 45.647662 
L 115.211455 42.170884 
L 116.349095 44.268688 
L 117.524657 42.103999 
L 118.700219 45.29309 
L 119.837859 46.079621 
L 121.013421 47.308391 
L 122.151061 48.089703 
L 123.326623 49.332954 
L 124.502185 53.232665 
L 125.563982 55.26853 
L 126.739544 47.932609 
L 127.877184 43.369182 
L 129.052746 41.066952 
L 130.190387 41.053136 
L 132.54151 53.27091 
L 133.67915 55.474872 
L 134.854712 53.946277 
L 135.992352 58.385267 
L 137.167914 62.445377 
L 138.343476 65.388568 
L 140.580835 57.139073 
L 141.718476 47.521318 
L 142.894037 43.879155 
L 144.031678 43.336579 
L 145.207239 48.019806 
L 146.382801 49.116492 
L 147.520441 47.793517 
L 148.696003 47.947471 
L 149.833643 45.918538 
L 151.009205 45.690314 
L 152.184767 50.619619 
L 153.246565 52.971345 
L 154.422126 51.392388 
L 155.559767 46.321157 
L 156.735328 46.455464 
L 157.872969 44.657775 
L 159.04853 52.173657 
L 160.224092 58.892377 
L 161.361733 66.773333 
L 162.537294 69.308897 
L 163.674935 71.147487 
L 164.850496 72.26837 
L 166.026058 74.802173 
L 167.125777 73.222075 
L 168.301339 62.191782 
L 169.438979 54.818091 
L 170.614541 51.63432 
L 171.752181 50.039901 
L 172.927743 49.844031 
L 174.103305 52.877299 
L 175.240945 56.396033 
L 176.416507 57.56546 
L 177.554147 59.094265 
L 178.729709 64.708131 
L 179.905271 66.121858 
L 180.967068 61.562056 
L 182.14263 55.241897 
L 183.28027 47.622884 
L 184.455832 42.615229 
L 185.593472 40.753193 
L 186.769034 43.024168 
L 187.944596 45.830025 
L 189.082236 45.877113 
L 190.257798 44.282191 
L 191.395438 40.035408 
L 192.571 40.521553 
L 193.746562 43.524826 
L 194.808359 45.109432 
L 195.983921 41.894094 
L 197.121561 39.776027 
L 198.297123 44.531678 
L 199.434763 50.483055 
L 200.610325 59.382612 
L 201.785887 66.613809 
L 202.923527 69.236047 
L 204.099089 69.77609 
L 205.236729 69.675945 
L 206.412291 72.689048 
L 207.587853 73.189702 
L 209.825212 60.39885 
L 210.962853 52.264388 
L 212.138414 48.372671 
L 213.276055 47.307155 
L 214.451616 51.475321 
L 215.627178 57.99097 
L 217.94038 64.164185 
L 219.07802 66.083344 
L 220.253582 65.988567 
L 221.429144 67.107897 
L 223.704425 57.260009 
L 224.842065 49.701984 
L 227.155267 43.890525 
L 229.50639 45.331233 
L 230.644031 50.174333 
L 231.819593 50.80625 
L 232.957233 52.674632 
L 234.132795 58.550957 
L 235.308356 60.668492 
L 236.370154 57.549426 
L 237.545716 51.646372 
L 238.683356 46.664137 
L 239.858918 45.159142 
L 240.996558 46.681425 
L 243.347682 55.201098 
L 244.485322 54.258522 
L 245.660884 55.923423 
L 246.798524 54.346138 
L 249.149647 60.179051 
L 250.211445 59.157027 
L 251.387007 51.851561 
L 252.524647 43.52479 
L 253.700209 40.701766 
L 254.837849 42.097141 
L 256.013411 47.273099 
L 257.188973 50.05931 
L 258.326613 51.289792 
L 259.502175 50.948496 
L 260.639815 47.846304 
L 261.815377 49.905931 
L 262.990939 52.868191 
L 264.052736 50.906086 
L 265.228298 47.003941 
L 266.365938 38.232128 
L 267.5415 35.422192 
L 268.67914 35.211526 
L 269.854702 36.29559 
L 272.167904 34.378392 
L 273.343466 31.798508 
L 274.481106 28.569665 
L 275.656668 31.638808 
L 276.83223 34.333836 
L 277.931949 35.860049 
L 279.10751 36.294337 
L 280.245151 35.107559 
L 281.420713 37.790375 
L 282.558353 43.158033 
L 283.733915 50.753305 
L 284.909476 57.579933 
L 286.047117 59.258788 
L 287.222678 59.587762 
L 288.360319 59.027389 
L 289.53588 60.035383 
L 290.711442 60.573339 
L 294.086442 43.649328 
L 295.262004 39.675026 
L 296.399644 39.810699 
L 297.575206 44.16424 
L 298.750767 53.626177 
L 299.888408 57.250255 
L 301.06397 58.504704 
L 303.377172 64.394961 
L 305.614531 63.231057 
L 306.790093 57.962095 
L 307.927733 49.898602 
L 309.103295 45.478626 
L 310.240935 43.98749 
L 311.416497 45.939572 
L 312.592059 49.307329 
L 313.729699 51.026947 
L 314.905261 47.694119 
L 316.042901 47.717149 
L 317.218463 49.002971 
L 318.394024 51.80437 
L 319.455822 50.233765 
L 320.631384 42.530217 
L 321.769024 38.673776 
L 322.944586 35.608037 
L 324.082226 38.490732 
L 325.257788 43.370129 
L 326.43335 51.647255 
L 327.57099 55.295848 
L 328.746552 51.267897 
L 329.884192 50.255018 
L 331.059754 51.778514 
L 332.235316 52.325272 
L 333.335035 51.802861 
L 335.648237 41.290167 
L 336.823798 44.680394 
L 337.961439 46.526166 
L 339.137 50.794246 
L 340.312562 59.70495 
L 341.450203 61.913078 
L 342.625764 66.295428 
L 343.763405 68.327372 
L 344.938966 68.161139 
L 346.114528 67.20624 
L 347.176326 62.584261 
L 348.351887 55.799237 
L 349.489528 50.530755 
L 350.66509 46.567282 
L 351.80273 45.534922 
L 354.153853 54.983171 
L 355.291494 57.942898 
L 356.467055 62.967986 
L 357.604696 63.71563 
L 358.780257 66.04353 
L 359.955819 65.385216 
L 361.017617 63.038222 
L 362.193179 61.106074 
L 363.330819 54.665462 
L 364.506381 53.730896 
L 365.644021 51.640362 
L 366.819583 55.004801 
L 367.995144 59.82431 
L 369.132785 62.137076 
L 370.308346 63.114601 
L 371.445987 63.696968 
L 372.621549 65.043331 
L 373.79711 64.216913 
L 374.858908 60.683511 
L 376.03447 51.287252 
L 377.17211 44.044391 
L 378.347672 39.539682 
L 379.485312 36.763819 
L 381.836436 39.951762 
L 382.974076 38.426604 
L 384.149638 38.551921 
L 385.287278 37.442824 
L 386.46284 37.851649 
L 387.638401 39.784465 
L 388.73812 39.712955 
L 391.051323 36.034138 
L 392.226884 38.759262 
L 393.364525 39.996528 
L 395.715648 51.204619 
L 396.853288 58.533154 
L 398.02885 59.095604 
L 399.16649 55.1614 
L 400.342052 63.088242 
L 401.517614 64.216333 
L 402.579412 58.624449 
L 403.754973 50.234115 
L 404.892614 49.954616 
L 404.892614 49.954616 
" clip-path="url(#p84acfbf9e0)" style="fill: none; stroke: #4596f3; stroke-width: 0.5; stroke-linecap: square"/>
   </g>
   <g id="patch_3">
    <path d="M 37.73625 77.492638 
L 37.73625 26.24 
" style="fill: none; stroke: #000000; stroke-width: 0.8; stroke-linejoin: miter; stroke-linecap: square"/>
   </g>
   <g id="patch_4">
    <path d="M 37.73625 77.492638 
L 422.37625 77.492638 
" style="fill: none; stroke: #000000; stroke-width: 0.8; stroke-linejoin: miter; stroke-linecap: square"/>
   </g>
  </g>
  <g id="axes_2">
   <g id="patch_5">
    <path d="M 37.73625 142.181759 
L 422.37625 142.181759 
L 422.37625 90.929121 
L 37.73625 90.929121 
z
" style="fill: #ffffff"/>
   </g>
   <g id="matplotlib.axis_3">
    <g id="xtick_8">
     <g id="line2d_22">
      <path d="M 54.082246 142.181759 
L 54.082246 90.929121 
" clip-path="url(#pc1e91e63fc)" style="fill: none; stroke-dasharray: 2.96,1.28; stroke-dashoffset: 0; stroke: #b0b0b0; stroke-opacity: 0.5; stroke-width: 0.8"/>
     </g>
     <g id="line2d_23">
      <g>
       <use xlink:href="#m3e749a1267" x="54.082246" y="142.181759" style="stroke: #000000; stroke-width: 0.8"/>
      </g>
     </g>
    </g>
    <g id="xtick_9">
     <g id="line2d_24">
      <path d="M 109.485332 142.181759 
L 109.485332 90.929121 
" clip-path="url(#pc1e91e63fc)" style="fill: none; stroke-dasharray: 2.96,1.28; stroke-dashoffset: 0; stroke: #b0b0b0; stroke-opacity: 0.5; stroke-width: 0.8"/>
     </g>
     <g id="line2d_25">
      <g>
       <use xlink:href="#m3e749a1267" x="109.485332" y="142.181759" style="stroke: #000000; stroke-width: 0.8"/>
      </g>
     </g>
    </g>
    <g id="xtick_10">
     <g id="line2d_26">
      <path d="M 164.888418 142.181759 
L 164.888418 90.929121 
" clip-path="url(#pc1e91e63fc)" style="fill: none; stroke-dasharray: 2.96,1.28; stroke-dashoffset: 0; stroke: #b0b0b0; stroke-opacity: 0.5; stroke-width: 0.8"/>
     </g>
     <g id="line2d_27">
      <g>
       <use xlink:href="#m3e749a1267" x="164.888418" y="142.181759" style="stroke: #000000; stroke-width: 0.8"/>
      </g>
     </g>
    </g>
    <g id="xtick_11">
     <g id="line2d_28">
      <path d="M 220.291504 142.181759 
L 220.291504 90.929121 
" clip-path="url(#pc1e91e63fc)" style="fill: none; stroke-dasharray: 2.96,1.28; stroke-dashoffset: 0; stroke: #b0b0b0; stroke-opacity: 0.5; stroke-width: 0.8"/>
     </g>
     <g id="line2d_29">
      <g>
       <use xlink:href="#m3e749a1267" x="220.291504" y="142.181759" style="stroke: #000000; stroke-width: 0.8"/>
      </g>
     </g>
    </g>
    <g id="xtick_12">
     <g id="line2d_30">
      <path d="M 275.694589 142.181759 
L 275.694589 90.929121 
" clip-path="url(#pc1e91e63fc)" style="fill: none; stroke-dasharray: 2.96,1.28; stroke-dashoffset: 0; stroke: #b0b0b0; stroke-opacity: 0.5; stroke-width: 0.8"/>
     </g>
     <g id="line2d_31">
      <g>
       <use xlink:href="#m3e749a1267" x="275.694589" y="142.181759" style="stroke: #000000; stroke-width: 0.8"/>
      </g>
     </g>
    </g>
    <g id="xtick_13">
     <g id="line2d_32">
      <path d="M 331.097675 142.181759 
L 331.097675 90.929121 
" clip-path="url(#pc1e91e63fc)" style="fill: none; stroke-dasharray: 2.96,1.28; stroke-dashoffset: 0; stroke: #b0b0b0; stroke-opacity: 0.5; stroke-width: 0.8"/>
     </g>
     <g id="line2d_33">
      <g>
       <use xlink:href="#m3e749a1267" x="331.097675" y="142.181759" style="stroke: #000000; stroke-width: 0.8"/>
      </g>
     </g>
    </g>
    <g id="xtick_14">
     <g id="line2d_34">
      <path d="M 386.500761 142.181759 
L 386.500761 90.929121 
" clip-path="url(#pc1e91e63fc)" style="fill: none; stroke-dasharray: 2.96,1.28; stroke-dashoffset: 0; stroke: #b0b0b0; stroke-opacity: 0.5; stroke-width: 0.8"/>
     </g>
     <g id="line2d_35">
      <g>
       <use xlink:href="#m3e749a1267" x="386.500761" y="142.181759" style="stroke: #000000; stroke-width: 0.8"/>
      </g>
     </g>
    </g>
   </g>
   <g id="matplotlib.axis_4">
    <g id="ytick_4">
     <g id="line2d_36">
      <path d="M 37.73625 135.610026 
L 422.37625 135.610026 
" clip-path="url(#pc1e91e63fc)" style="fill: none; stroke-dasharray: 2.96,1.28; stroke-dashoffset: 0; stroke: #b0b0b0; stroke-opacity: 0.5; stroke-width: 0.8"/>
     </g>
     <g id="line2d_37">
      <g>
       <use xlink:href="#m8322df43cb" x="37.73625" y="135.610026" style="stroke: #000000; stroke-width: 0.8"/>
      </g>
     </g>
     <g id="text_5">
      <!-- −1 -->
      <g transform="translate(18.9425 138.649401) scale(0.08 -0.08)">
       <defs>
        <path id="DejaVuSerif-31" d="M 909 0 
L 909 331 
L 1722 331 
L 1722 4213 
L 781 3603 
L 781 4013 
L 1919 4750 
L 2350 4750 
L 2350 331 
L 3163 331 
L 3163 0 
L 909 0 
z
" transform="scale(0.015625)"/>
       </defs>
       <use xlink:href="#DejaVuSerif-2212"/>
       <use xlink:href="#DejaVuSerif-31" transform="translate(83.789062 0)"/>
      </g>
     </g>
    </g>
    <g id="ytick_5">
     <g id="line2d_38">
      <path d="M 37.73625 120.508528 
L 422.37625 120.508528 
" clip-path="url(#pc1e91e63fc)" style="fill: none; stroke-dasharray: 2.96,1.28; stroke-dashoffset: 0; stroke: #b0b0b0; stroke-opacity: 0.5; stroke-width: 0.8"/>
     </g>
     <g id="line2d_39">
      <g>
       <use xlink:href="#m8322df43cb" x="37.73625" y="120.508528" style="stroke: #000000; stroke-width: 0.8"/>
      </g>
     </g>
     <g id="text_6">
      <!-- 0 -->
      <g transform="translate(25.64625 123.547903) scale(0.08 -0.08)">
       <use xlink:href="#DejaVuSerif-30"/>
      </g>
     </g>
    </g>
    <g id="ytick_6">
     <g id="line2d_40">
      <path d="M 37.73625 105.40703 
L 422.37625 105.40703 
" clip-path="url(#pc1e91e63fc)" style="fill: none; stroke-dasharray: 2.96,1.28; stroke-dashoffset: 0; stroke: #b0b0b0; stroke-opacity: 0.5; stroke-width: 0.8"/>
     </g>
     <g id="line2d_41">
      <g>
       <use xlink:href="#m8322df43cb" x="37.73625" y="105.40703" style="stroke: #000000; stroke-width: 0.8"/>
      </g>
     </g>
     <g id="text_7">
      <!-- 1 -->
      <g transform="translate(25.64625 108.446405) scale(0.08 -0.08)">
       <use xlink:href="#DejaVuSerif-31"/>
      </g>
     </g>
    </g>
    <g id="text_8">
     <!-- Tendência -->
     <g transform="translate(13.27875 137.266065) rotate(-90) scale(0.08 -0.08)">
      <defs>
       <path id="DejaVuSerif-54" d="M 1222 0 
L 1222 331 
L 1819 331 
L 1819 4294 
L 447 4294 
L 447 3566 
L 63 3566 
L 63 4666 
L 4206 4666 
L 4206 3566 
L 3822 3566 
L 3822 4294 
L 2450 4294 
L 2450 331 
L 3047 331 
L 3047 0 
L 1222 0 
z
" transform="scale(0.015625)"/>
       <path id="DejaVuSerif-6e" d="M 263 0 
L 263 331 
L 781 331 
L 781 2988 
L 231 2988 
L 231 3322 
L 1356 3322 
L 1356 2731 
Q 1516 3069 1770 3241 
Q 2025 3413 2363 3413 
Q 2913 3413 3172 3097 
Q 3431 2781 3431 2113 
L 3431 331 
L 3944 331 
L 3944 0 
L 2356 0 
L 2356 331 
L 2853 331 
L 2853 1931 
Q 2853 2541 2703 2767 
Q 2553 2994 2175 2994 
Q 1775 2994 1565 2701 
Q 1356 2409 1356 1850 
L 1356 331 
L 1856 331 
L 1856 0 
L 263 0 
z
" transform="scale(0.015625)"/>
       <path id="DejaVuSerif-ea" d="M 3469 1600 
L 991 1600 
L 991 1575 
Q 991 903 1244 561 
Q 1497 219 1991 219 
Q 2369 219 2611 417 
Q 2853 616 2950 1006 
L 3413 1006 
Q 3275 459 2904 184 
Q 2534 -91 1931 -91 
Q 1203 -91 761 389 
Q 319 869 319 1663 
Q 319 2450 753 2931 
Q 1188 3413 1894 3413 
Q 2647 3413 3050 2948 
Q 3453 2484 3469 1600 
z
M 2791 1931 
Q 2772 2513 2545 2808 
Q 2319 3103 1894 3103 
Q 1497 3103 1269 2806 
Q 1041 2509 991 1931 
L 2791 1931 
z
M 1634 5119 
L 2159 5119 
L 2893 3944 
L 2530 3944 
L 1896 4756 
L 1262 3944 
L 899 3944 
L 1634 5119 
z
" transform="scale(0.015625)"/>
       <path id="DejaVuSerif-63" d="M 3291 997 
Q 3169 466 2822 187 
Q 2475 -91 1925 -91 
Q 1200 -91 759 389 
Q 319 869 319 1663 
Q 319 2459 759 2936 
Q 1200 3413 1925 3413 
Q 2241 3413 2553 3339 
Q 2866 3266 3181 3116 
L 3181 2266 
L 2847 2266 
Q 2781 2703 2561 2903 
Q 2341 3103 1931 3103 
Q 1466 3103 1228 2742 
Q 991 2381 991 1663 
Q 991 944 1227 581 
Q 1463 219 1931 219 
Q 2303 219 2525 412 
Q 2747 606 2828 997 
L 3291 997 
z
" transform="scale(0.015625)"/>
       <path id="DejaVuSerif-69" d="M 622 4353 
Q 622 4497 726 4603 
Q 831 4709 978 4709 
Q 1122 4709 1226 4603 
Q 1331 4497 1331 4353 
Q 1331 4206 1228 4103 
Q 1125 4000 978 4000 
Q 831 4000 726 4103 
Q 622 4206 622 4353 
z
M 1356 331 
L 1900 331 
L 1900 0 
L 231 0 
L 231 331 
L 781 331 
L 781 2988 
L 231 2988 
L 231 3322 
L 1356 3322 
L 1356 331 
z
" transform="scale(0.015625)"/>
      </defs>
      <use xlink:href="#DejaVuSerif-54"/>
      <use xlink:href="#DejaVuSerif-65" transform="translate(58.949219 0)"/>
      <use xlink:href="#DejaVuSerif-6e" transform="translate(118.128906 0)"/>
      <use xlink:href="#DejaVuSerif-64" transform="translate(182.533203 0)"/>
      <use xlink:href="#DejaVuSerif-ea" transform="translate(246.546875 0)"/>
      <use xlink:href="#DejaVuSerif-6e" transform="translate(305.726562 0)"/>
      <use xlink:href="#DejaVuSerif-63" transform="translate(370.130859 0)"/>
      <use xlink:href="#DejaVuSerif-69" transform="translate(426.136719 0)"/>
      <use xlink:href="#DejaVuSerif-61" transform="translate(458.119141 0)"/>
     </g>
    </g>
   </g>
   <g id="line2d_42">
    <path d="M 55.219886 139.852094 
L 57.495167 137.652644 
L 65.610335 130.062178 
L 67.923537 128.294915 
L 71.336458 126.19144 
L 77.138424 123.155233 
L 80.589267 121.26176 
L 81.764828 120.484899 
L 82.94039 119.551695 
L 85.177749 117.004094 
L 87.490951 113.561927 
L 88.628592 111.793023 
L 89.804154 110.218968 
L 90.979715 109.001952 
L 92.117356 108.262085 
L 93.292917 108.022691 
L 94.430558 108.222598 
L 95.606119 108.807639 
L 96.781681 109.719587 
L 100.156681 113.461271 
L 103.645445 117.342541 
L 104.821006 118.303864 
L 105.958647 118.932958 
L 107.134208 119.209994 
L 108.271849 119.141242 
L 109.44741 118.756047 
L 110.622972 118.127797 
L 114.035893 115.882022 
L 116.349095 114.708142 
L 119.837859 113.500812 
L 121.013421 113.198358 
L 122.151061 113.02431 
L 123.326623 113.063337 
L 124.502185 113.379048 
L 125.563982 113.97753 
L 126.739544 114.85258 
L 129.052746 117.2595 
L 131.365948 119.937661 
L 133.67915 122.237541 
L 134.854712 123.081791 
L 135.992352 123.70513 
L 137.167914 124.083969 
L 138.343476 124.153205 
L 139.405273 123.866336 
L 140.580835 123.18795 
L 141.718476 122.120251 
L 142.894037 120.733736 
L 145.207239 117.601411 
L 146.382801 116.241814 
L 147.520441 115.250623 
L 148.696003 114.68692 
L 149.833643 114.551638 
L 151.009205 114.843706 
L 152.184767 115.608293 
L 153.246565 116.894982 
L 154.422126 118.742724 
L 155.559767 121.127613 
L 156.735328 123.932885 
L 159.04853 129.918522 
L 160.224092 132.607273 
L 161.361733 134.844104 
L 162.537294 136.542649 
L 163.674935 137.674124 
L 164.850496 138.240074 
L 166.026058 138.260265 
L 167.125777 137.767661 
L 168.301339 136.833955 
L 170.614541 134.177157 
L 172.927743 131.395377 
L 175.240945 129.007492 
L 179.905271 124.827665 
L 182.14263 122.15787 
L 183.28027 120.338725 
L 184.455832 118.128915 
L 187.944596 110.709829 
L 189.082236 108.820115 
L 190.257798 107.651332 
L 191.395438 107.348615 
L 192.571 107.960972 
L 193.746562 109.451482 
L 194.808359 111.710373 
L 195.983921 114.595625 
L 198.297123 121.652101 
L 200.610325 129.110996 
L 201.785887 132.385293 
L 202.923527 135.033233 
L 204.099089 136.893675 
L 205.236729 137.919695 
L 206.412291 138.179433 
L 207.587853 137.820344 
L 209.825212 136.141007 
L 212.138414 134.39751 
L 214.451616 132.990696 
L 216.764818 131.910387 
L 219.07802 130.951531 
L 220.253582 130.274132 
L 221.429144 129.360011 
L 223.704425 126.806127 
L 226.017627 123.888122 
L 227.155267 122.589198 
L 228.330829 121.484944 
L 229.50639 120.609097 
L 230.644031 119.973045 
L 231.819593 119.580147 
L 232.957233 119.452525 
L 234.132795 119.611614 
L 235.308356 120.03724 
L 238.683356 121.918549 
L 239.858918 122.353983 
L 240.996558 122.623602 
L 242.17212 122.751614 
L 243.347682 122.74427 
L 244.485322 122.608162 
L 245.660884 122.350125 
L 247.974086 121.499767 
L 250.211445 120.353771 
L 252.524647 119.024729 
L 254.837849 117.454088 
L 259.502175 114.02362 
L 261.815377 112.039799 
L 262.990939 110.699912 
L 265.228298 107.024861 
L 271.030264 95.699148 
L 272.167904 94.211851 
L 273.343466 93.35637 
L 274.481106 93.258786 
L 275.656668 93.979087 
L 276.83223 95.505184 
L 277.931949 97.769371 
L 279.10751 100.668862 
L 281.420713 107.676134 
L 282.558353 111.296224 
L 283.733915 114.656182 
L 284.909476 117.543654 
L 286.047117 119.791658 
L 287.222678 121.307649 
L 288.360319 122.098291 
L 289.53588 122.289056 
L 290.711442 122.07255 
L 292.948802 121.248177 
L 294.086442 120.999229 
L 295.262004 120.993786 
L 296.399644 121.262262 
L 297.575206 121.800093 
L 298.750767 122.567955 
L 302.20161 125.270719 
L 303.377172 125.871736 
L 304.552733 126.129467 
L 305.614531 125.948577 
L 306.790093 125.270195 
L 307.927733 124.110513 
L 309.103295 122.574551 
L 313.729699 115.313641 
L 314.905261 113.769541 
L 316.042901 112.520438 
L 317.218463 111.6583 
L 318.394024 111.221473 
L 319.455822 111.1486 
L 320.631384 111.322007 
L 327.57099 113.218793 
L 328.746552 113.727364 
L 329.884192 114.41335 
L 331.059754 115.267863 
L 332.235316 116.271264 
L 334.510596 118.857634 
L 336.823798 122.370804 
L 339.137 126.300202 
L 340.312562 128.058111 
L 341.450203 129.503078 
L 342.625764 130.565917 
L 343.763405 131.228905 
L 344.938966 131.502607 
L 346.114528 131.42621 
L 348.351887 130.658429 
L 350.66509 129.724594 
L 351.80273 129.361618 
L 352.978292 129.183617 
L 354.153853 129.263217 
L 355.291494 129.602701 
L 356.467055 130.141228 
L 361.017617 132.815574 
L 362.193179 133.283957 
L 363.330819 133.593296 
L 364.506381 133.724335 
L 365.644021 133.661325 
L 366.819583 133.387198 
L 367.995144 132.869674 
L 369.132785 132.039343 
L 370.308346 130.842952 
L 371.445987 129.274659 
L 372.621549 127.365048 
L 373.79711 125.129923 
L 376.03447 119.696227 
L 380.660874 106.778315 
L 381.836436 104.044652 
L 382.974076 101.88311 
L 384.149638 100.4005 
L 385.287278 99.655594 
L 386.46284 99.661344 
L 387.638401 100.390204 
L 388.73812 101.767455 
L 389.913682 103.68509 
L 392.226884 108.746095 
L 393.364525 111.5955 
L 395.715648 116.276512 
L 399.16649 122.896234 
L 404.892614 133.189037 
L 404.892614 133.189037 
" clip-path="url(#pc1e91e63fc)" style="fill: none; stroke: #ff5656; stroke-width: 0.5; stroke-linecap: square"/>
   </g>
   <g id="patch_6">
    <path d="M 37.73625 142.181759 
L 37.73625 90.929121 
" style="fill: none; stroke: #000000; stroke-width: 0.8; stroke-linejoin: miter; stroke-linecap: square"/>
   </g>
   <g id="patch_7">
    <path d="M 37.73625 142.181759 
L 422.37625 142.181759 
" style="fill: none; stroke: #000000; stroke-width: 0.8; stroke-linejoin: miter; stroke-linecap: square"/>
   </g>
  </g>
  <g id="axes_3">
   <g id="patch_8">
    <path d="M 37.73625 206.870879 
L 422.37625 206.870879 
L 422.37625 155.618241 
L 37.73625 155.618241 
z
" style="fill: #ffffff"/>
   </g>
   <g id="matplotlib.axis_5">
    <g id="xtick_15">
     <g id="line2d_43">
      <path d="M 54.082246 206.870879 
L 54.082246 155.618241 
" clip-path="url(#p50f23885b7)" style="fill: none; stroke-dasharray: 2.96,1.28; stroke-dashoffset: 0; stroke: #b0b0b0; stroke-opacity: 0.5; stroke-width: 0.8"/>
     </g>
     <g id="line2d_44">
      <g>
       <use xlink:href="#m3e749a1267" x="54.082246" y="206.870879" style="stroke: #000000; stroke-width: 0.8"/>
      </g>
     </g>
    </g>
    <g id="xtick_16">
     <g id="line2d_45">
      <path d="M 109.485332 206.870879 
L 109.485332 155.618241 
" clip-path="url(#p50f23885b7)" style="fill: none; stroke-dasharray: 2.96,1.28; stroke-dashoffset: 0; stroke: #b0b0b0; stroke-opacity: 0.5; stroke-width: 0.8"/>
     </g>
     <g id="line2d_46">
      <g>
       <use xlink:href="#m3e749a1267" x="109.485332" y="206.870879" style="stroke: #000000; stroke-width: 0.8"/>
      </g>
     </g>
    </g>
    <g id="xtick_17">
     <g id="line2d_47">
      <path d="M 164.888418 206.870879 
L 164.888418 155.618241 
" clip-path="url(#p50f23885b7)" style="fill: none; stroke-dasharray: 2.96,1.28; stroke-dashoffset: 0; stroke: #b0b0b0; stroke-opacity: 0.5; stroke-width: 0.8"/>
     </g>
     <g id="line2d_48">
      <g>
       <use xlink:href="#m3e749a1267" x="164.888418" y="206.870879" style="stroke: #000000; stroke-width: 0.8"/>
      </g>
     </g>
    </g>
    <g id="xtick_18">
     <g id="line2d_49">
      <path d="M 220.291504 206.870879 
L 220.291504 155.618241 
" clip-path="url(#p50f23885b7)" style="fill: none; stroke-dasharray: 2.96,1.28; stroke-dashoffset: 0; stroke: #b0b0b0; stroke-opacity: 0.5; stroke-width: 0.8"/>
     </g>
     <g id="line2d_50">
      <g>
       <use xlink:href="#m3e749a1267" x="220.291504" y="206.870879" style="stroke: #000000; stroke-width: 0.8"/>
      </g>
     </g>
    </g>
    <g id="xtick_19">
     <g id="line2d_51">
      <path d="M 275.694589 206.870879 
L 275.694589 155.618241 
" clip-path="url(#p50f23885b7)" style="fill: none; stroke-dasharray: 2.96,1.28; stroke-dashoffset: 0; stroke: #b0b0b0; stroke-opacity: 0.5; stroke-width: 0.8"/>
     </g>
     <g id="line2d_52">
      <g>
       <use xlink:href="#m3e749a1267" x="275.694589" y="206.870879" style="stroke: #000000; stroke-width: 0.8"/>
      </g>
     </g>
    </g>
    <g id="xtick_20">
     <g id="line2d_53">
      <path d="M 331.097675 206.870879 
L 331.097675 155.618241 
" clip-path="url(#p50f23885b7)" style="fill: none; stroke-dasharray: 2.96,1.28; stroke-dashoffset: 0; stroke: #b0b0b0; stroke-opacity: 0.5; stroke-width: 0.8"/>
     </g>
     <g id="line2d_54">
      <g>
       <use xlink:href="#m3e749a1267" x="331.097675" y="206.870879" style="stroke: #000000; stroke-width: 0.8"/>
      </g>
     </g>
    </g>
    <g id="xtick_21">
     <g id="line2d_55">
      <path d="M 386.500761 206.870879 
L 386.500761 155.618241 
" clip-path="url(#p50f23885b7)" style="fill: none; stroke-dasharray: 2.96,1.28; stroke-dashoffset: 0; stroke: #b0b0b0; stroke-opacity: 0.5; stroke-width: 0.8"/>
     </g>
     <g id="line2d_56">
      <g>
       <use xlink:href="#m3e749a1267" x="386.500761" y="206.870879" style="stroke: #000000; stroke-width: 0.8"/>
      </g>
     </g>
    </g>
   </g>
   <g id="matplotlib.axis_6">
    <g id="ytick_7">
     <g id="line2d_57">
      <path d="M 37.73625 182.192481 
L 422.37625 182.192481 
" clip-path="url(#p50f23885b7)" style="fill: none; stroke-dasharray: 2.96,1.28; stroke-dashoffset: 0; stroke: #b0b0b0; stroke-opacity: 0.5; stroke-width: 0.8"/>
     </g>
     <g id="line2d_58">
      <g>
       <use xlink:href="#m8322df43cb" x="37.73625" y="182.192481" style="stroke: #000000; stroke-width: 0.8"/>
      </g>
     </g>
     <g id="text_9">
      <!-- 0 -->
      <g transform="translate(25.64625 185.231856) scale(0.08 -0.08)">
       <use xlink:href="#DejaVuSerif-30"/>
      </g>
     </g>
    </g>
    <g id="ytick_8">
     <g id="line2d_59">
      <path d="M 37.73625 157.301744 
L 422.37625 157.301744 
" clip-path="url(#p50f23885b7)" style="fill: none; stroke-dasharray: 2.96,1.28; stroke-dashoffset: 0; stroke: #b0b0b0; stroke-opacity: 0.5; stroke-width: 0.8"/>
     </g>
     <g id="line2d_60">
      <g>
       <use xlink:href="#m8322df43cb" x="37.73625" y="157.301744" style="stroke: #000000; stroke-width: 0.8"/>
      </g>
     </g>
     <g id="text_10">
      <!-- 1 -->
      <g transform="translate(25.64625 160.341119) scale(0.08 -0.08)">
       <use xlink:href="#DejaVuSerif-31"/>
      </g>
     </g>
    </g>
    <g id="text_11">
     <!-- Sazonalidade -->
     <g transform="translate(19.9825 208.278935) rotate(-90) scale(0.08 -0.08)">
      <defs>
       <path id="DejaVuSerif-53" d="M 594 225 
L 594 1288 
L 953 1284 
Q 969 753 1261 498 
Q 1553 244 2150 244 
Q 2706 244 2998 464 
Q 3291 684 3291 1106 
Q 3291 1444 3114 1625 
Q 2938 1806 2369 1978 
L 1753 2163 
Q 1084 2366 811 2669 
Q 538 2972 538 3500 
Q 538 4094 959 4422 
Q 1381 4750 2144 4750 
Q 2469 4750 2856 4679 
Q 3244 4609 3681 4475 
L 3681 3481 
L 3328 3481 
Q 3275 3975 2998 4195 
Q 2722 4416 2156 4416 
Q 1663 4416 1405 4214 
Q 1147 4013 1147 3628 
Q 1147 3294 1340 3103 
Q 1534 2913 2163 2725 
L 2741 2553 
Q 3375 2363 3645 2067 
Q 3916 1772 3916 1275 
Q 3916 597 3481 253 
Q 3047 -91 2188 -91 
Q 1803 -91 1404 -12 
Q 1006 66 594 225 
z
" transform="scale(0.015625)"/>
       <path id="DejaVuSerif-7a" d="M 256 0 
L 256 269 
L 2338 2988 
L 691 2988 
L 691 2413 
L 359 2413 
L 359 3322 
L 3078 3322 
L 3078 3053 
L 997 331 
L 2803 331 
L 2803 934 
L 3138 934 
L 3138 0 
L 256 0 
z
" transform="scale(0.015625)"/>
       <path id="DejaVuSerif-6c" d="M 1313 331 
L 1856 331 
L 1856 0 
L 184 0 
L 184 331 
L 738 331 
L 738 4531 
L 184 4531 
L 184 4863 
L 1313 4863 
L 1313 331 
z
" transform="scale(0.015625)"/>
      </defs>
      <use xlink:href="#DejaVuSerif-53"/>
      <use xlink:href="#DejaVuSerif-61" transform="translate(68.505859 0)"/>
      <use xlink:href="#DejaVuSerif-7a" transform="translate(128.125 0)"/>
      <use xlink:href="#DejaVuSerif-6f" transform="translate(180.810547 0)"/>
      <use xlink:href="#DejaVuSerif-6e" transform="translate(241.015625 0)"/>
      <use xlink:href="#DejaVuSerif-61" transform="translate(305.419922 0)"/>
      <use xlink:href="#DejaVuSerif-6c" transform="translate(365.039062 0)"/>
      <use xlink:href="#DejaVuSerif-69" transform="translate(397.021484 0)"/>
      <use xlink:href="#DejaVuSerif-64" transform="translate(429.003906 0)"/>
      <use xlink:href="#DejaVuSerif-61" transform="translate(493.017578 0)"/>
      <use xlink:href="#DejaVuSerif-64" transform="translate(552.636719 0)"/>
      <use xlink:href="#DejaVuSerif-65" transform="translate(616.650391 0)"/>
     </g>
    </g>
   </g>
   <g id="line2d_61">
    <path d="M 55.219886 204.541214 
L 56.319605 200.171966 
L 58.632807 164.862691 
L 59.808369 162.417697 
L 60.94601 161.236205 
L 62.121571 168.401417 
L 63.297133 180.640884 
L 64.434773 184.608754 
L 65.610335 188.004678 
L 66.747975 190.8193 
L 67.923537 197.849028 
L 69.099099 203.275074 
L 70.160897 199.670935 
L 72.474099 166.245112 
L 73.64966 163.136739 
L 74.787301 161.976552 
L 75.962862 169.072326 
L 77.138424 181.23946 
L 78.276064 184.875517 
L 80.589267 189.709482 
L 81.764828 196.435971 
L 82.94039 202.223923 
L 84.002188 199.304187 
L 86.31539 167.376773 
L 87.490951 163.603961 
L 88.628592 162.409117 
L 89.804154 169.598139 
L 90.979715 181.669568 
L 92.117356 185.188595 
L 93.292917 186.782712 
L 94.430558 188.870421 
L 96.781681 201.300187 
L 97.843479 198.982377 
L 100.156681 168.364823 
L 101.332243 163.957814 
L 102.469883 162.623581 
L 103.645445 170.01511 
L 104.821006 181.991906 
L 105.958647 185.551156 
L 107.134208 186.413323 
L 108.271849 188.110128 
L 110.622972 200.395374 
L 111.722691 198.633427 
L 112.898253 184.780124 
L 114.035893 169.338612 
L 115.211455 164.361676 
L 116.349095 162.803006 
L 117.524657 170.374052 
L 118.700219 182.243942 
L 119.837859 185.889412 
L 121.013421 186.071376 
L 122.151061 187.304312 
L 123.326623 193.223339 
L 124.502185 199.989816 
L 125.563982 198.612908 
L 126.739544 185.440673 
L 127.877184 170.022026 
L 129.052746 164.41892 
L 130.190387 162.792469 
L 131.365948 170.635309 
L 132.54151 182.040892 
L 133.67915 185.980014 
L 134.854712 185.936822 
L 135.992352 187.264414 
L 137.167914 192.891403 
L 138.343476 201.483778 
L 139.405273 199.67182 
L 140.580835 185.434271 
L 141.718476 169.083116 
L 142.894037 163.033154 
L 144.031678 161.597821 
L 145.207239 170.234544 
L 146.382801 181.343954 
L 147.520441 186.582153 
L 148.696003 187.049265 
L 149.833643 188.483572 
L 151.009205 194.163449 
L 152.184767 202.238275 
L 153.246565 199.446924 
L 154.422126 184.45004 
L 155.559767 167.296789 
L 156.735328 161.447994 
L 157.872969 160.439249 
L 160.224092 181.828001 
L 161.361733 187.976672 
L 163.674935 189.61534 
L 164.850496 195.167706 
L 166.026058 202.37257 
L 167.125777 198.255075 
L 168.301339 182.949664 
L 169.438979 165.54953 
L 170.614541 160.285658 
L 171.752181 159.371738 
L 174.103305 182.330294 
L 175.240945 189.26606 
L 176.416507 190.755791 
L 177.554147 190.970787 
L 178.729709 196.45803 
L 179.905271 202.756301 
L 180.967068 197.146007 
L 182.14263 181.808744 
L 183.28027 164.603652 
L 184.455832 159.780357 
L 185.593472 158.97986 
L 187.944596 181.698256 
L 189.082236 189.364109 
L 190.257798 191.634951 
L 191.395438 191.82169 
L 193.746562 203.476754 
L 194.808359 196.640671 
L 195.983921 181.038994 
L 197.121561 164.245951 
L 198.297123 159.557673 
L 199.434763 159.367096 
L 200.610325 169.787765 
L 201.785887 181.439964 
L 202.923527 188.834269 
L 204.099089 191.467047 
L 205.236729 191.56912 
L 206.412291 198.601488 
L 207.587853 203.858078 
L 208.64965 196.367329 
L 209.825212 180.855776 
L 210.962853 164.072013 
L 212.138414 159.475622 
L 213.276055 160.427167 
L 215.627178 182.201121 
L 216.764818 188.365501 
L 217.94038 190.822026 
L 219.07802 190.166073 
L 220.253582 197.588899 
L 221.429144 203.109049 
L 222.528863 195.840023 
L 223.704425 181.409156 
L 224.842065 164.377099 
L 226.017627 159.965063 
L 227.155267 161.785494 
L 229.50639 183.078127 
L 230.644031 188.160967 
L 231.819593 190.169113 
L 232.957233 188.690375 
L 234.132795 195.995006 
L 235.308356 201.812718 
L 236.370154 195.17826 
L 237.545716 181.98059 
L 238.683356 165.01702 
L 239.858918 160.674964 
L 240.996558 162.956417 
L 242.17212 173.883654 
L 243.347682 183.573947 
L 244.485322 188.078377 
L 245.660884 189.618956 
L 246.798524 187.897942 
L 247.974086 195.244955 
L 249.149647 201.001368 
L 250.211445 194.819551 
L 251.387007 182.440495 
L 252.524647 165.761156 
L 253.700209 160.994247 
L 254.837849 163.497461 
L 257.188973 184.174316 
L 258.326613 188.278711 
L 259.502175 189.104231 
L 260.639815 187.276804 
L 261.815377 194.522588 
L 262.990939 199.910693 
L 264.052736 194.622195 
L 265.228298 182.506916 
L 266.365938 166.157743 
L 267.5415 160.939675 
L 268.67914 163.866132 
L 271.030264 185.6525 
L 272.167904 189.51849 
L 273.343466 188.949522 
L 274.481106 186.934278 
L 275.656668 193.678798 
L 276.83223 198.634274 
L 277.931949 194.212761 
L 279.10751 181.805484 
L 280.245151 165.855259 
L 281.420713 160.372986 
L 282.558353 163.773117 
L 283.733915 174.800866 
L 284.909476 187.487998 
L 286.047117 191.612206 
L 288.360319 187.688156 
L 289.53588 193.366213 
L 290.711442 197.476752 
L 291.77324 193.268799 
L 292.948802 180.392023 
L 294.086442 164.961599 
L 295.262004 159.711271 
L 296.399644 163.008286 
L 297.575206 173.87502 
L 298.750767 188.437532 
L 299.888408 193.281313 
L 301.06397 191.055674 
L 302.20161 190.058277 
L 303.377172 194.632138 
L 304.552733 197.34017 
L 305.614531 192.412792 
L 306.790093 178.798304 
L 307.927733 163.895888 
L 309.103295 158.737885 
L 310.240935 161.235174 
L 311.416497 171.896033 
L 312.592059 188.068968 
L 313.729699 193.692043 
L 314.905261 192.792919 
L 316.042901 193.116986 
L 317.218463 197.045178 
L 318.394024 198.352071 
L 319.455822 192.602601 
L 321.769024 163.250095 
L 322.944586 157.947906 
L 324.082226 159.20906 
L 325.257788 169.746578 
L 326.43335 186.637723 
L 327.57099 192.898881 
L 328.746552 193.690394 
L 329.884192 195.036482 
L 331.059754 198.759188 
L 332.235316 199.433859 
L 333.335035 193.426105 
L 335.648237 163.377278 
L 336.823798 158.929066 
L 337.961439 159.215724 
L 339.137 169.706493 
L 340.312562 185.419696 
L 341.450203 191.869326 
L 342.625764 193.518824 
L 343.763405 194.044254 
L 344.938966 198.436293 
L 346.114528 199.206163 
L 347.176326 192.811482 
L 349.489528 163.757939 
L 350.66509 160.512372 
L 351.80273 159.9494 
L 352.978292 170.405833 
L 354.153853 184.874673 
L 355.291494 191.840424 
L 356.467055 194.068213 
L 357.604696 193.104817 
L 358.780257 198.608679 
L 359.955819 199.288946 
L 361.017617 191.854902 
L 362.193179 176.083702 
L 363.330819 163.669926 
L 365.644021 160.674033 
L 366.819583 171.133427 
L 367.995144 184.266154 
L 369.132785 191.761283 
L 370.308346 194.686941 
L 371.445987 192.19041 
L 372.621549 198.907063 
L 373.79711 199.463583 
L 374.858908 190.913633 
L 376.03447 174.645369 
L 377.17211 163.641685 
L 378.347672 163.813584 
L 379.485312 161.440304 
L 380.660874 171.914822 
L 381.836436 183.595577 
L 382.974076 191.599352 
L 384.149638 195.184279 
L 385.287278 191.111338 
L 386.46284 199.136541 
L 387.638401 199.62994 
L 388.73812 189.986069 
L 389.913682 173.226818 
L 391.051323 163.689747 
L 392.226884 165.630716 
L 393.364525 162.335883 
L 395.715648 182.96091 
L 396.853288 191.483253 
L 398.02885 195.560919 
L 399.16649 189.777688 
L 400.342052 199.230657 
L 401.517614 199.738254 
L 402.579412 188.986763 
L 403.754973 171.678713 
L 404.892614 163.722791 
L 404.892614 163.722791 
" clip-path="url(#p50f23885b7)" style="fill: none; stroke: #ffa722; stroke-width: 0.5; stroke-linecap: square"/>
   </g>
   <g id="patch_9">
    <path d="M 37.73625 206.870879 
L 37.73625 155.618241 
" style="fill: none; stroke: #000000; stroke-width: 0.8; stroke-linejoin: miter; stroke-linecap: square"/>
   </g>
   <g id="patch_10">
    <path d="M 37.73625 206.870879 
L 422.37625 206.870879 
" style="fill: none; stroke: #000000; stroke-width: 0.8; stroke-linejoin: miter; stroke-linecap: square"/>
   </g>
  </g>
  <g id="axes_4">
   <g id="patch_11">
    <path d="M 37.73625 271.56 
L 422.37625 271.56 
L 422.37625 220.307362 
L 37.73625 220.307362 
z
" style="fill: #ffffff"/>
   </g>
   <g id="matplotlib.axis_7">
    <g id="xtick_22">
     <g id="line2d_62">
      <path d="M 54.082246 271.56 
L 54.082246 220.307362 
" clip-path="url(#p15954282d5)" style="fill: none; stroke-dasharray: 2.96,1.28; stroke-dashoffset: 0; stroke: #b0b0b0; stroke-opacity: 0.5; stroke-width: 0.8"/>
     </g>
     <g id="line2d_63">
      <g>
       <use xlink:href="#m3e749a1267" x="54.082246" y="271.56" style="stroke: #000000; stroke-width: 0.8"/>
      </g>
     </g>
     <g id="text_12">
      <!-- 2000 -->
      <g transform="translate(43.902246 284.63875) scale(0.08 -0.08)">
       <use xlink:href="#DejaVuSerif-32"/>
       <use xlink:href="#DejaVuSerif-30" transform="translate(63.623047 0)"/>
       <use xlink:href="#DejaVuSerif-30" transform="translate(127.246094 0)"/>
       <use xlink:href="#DejaVuSerif-30" transform="translate(190.869141 0)"/>
      </g>
     </g>
    </g>
    <g id="xtick_23">
     <g id="line2d_64">
      <path d="M 109.485332 271.56 
L 109.485332 220.307362 
" clip-path="url(#p15954282d5)" style="fill: none; stroke-dasharray: 2.96,1.28; stroke-dashoffset: 0; stroke: #b0b0b0; stroke-opacity: 0.5; stroke-width: 0.8"/>
     </g>
     <g id="line2d_65">
      <g>
       <use xlink:href="#m3e749a1267" x="109.485332" y="271.56" style="stroke: #000000; stroke-width: 0.8"/>
      </g>
     </g>
     <g id="text_13">
      <!-- 2004 -->
      <g transform="translate(99.305332 284.63875) scale(0.08 -0.08)">
       <defs>
        <path id="DejaVuSerif-34" d="M 2234 1581 
L 2234 4063 
L 641 1581 
L 2234 1581 
z
M 3609 0 
L 1484 0 
L 1484 331 
L 2234 331 
L 2234 1247 
L 197 1247 
L 197 1588 
L 2241 4750 
L 2859 4750 
L 2859 1581 
L 3750 1581 
L 3750 1247 
L 2859 1247 
L 2859 331 
L 3609 331 
L 3609 0 
z
" transform="scale(0.015625)"/>
       </defs>
       <use xlink:href="#DejaVuSerif-32"/>
       <use xlink:href="#DejaVuSerif-30" transform="translate(63.623047 0)"/>
       <use xlink:href="#DejaVuSerif-30" transform="translate(127.246094 0)"/>
       <use xlink:href="#DejaVuSerif-34" transform="translate(190.869141 0)"/>
      </g>
     </g>
    </g>
    <g id="xtick_24">
     <g id="line2d_66">
      <path d="M 164.888418 271.56 
L 164.888418 220.307362 
" clip-path="url(#p15954282d5)" style="fill: none; stroke-dasharray: 2.96,1.28; stroke-dashoffset: 0; stroke: #b0b0b0; stroke-opacity: 0.5; stroke-width: 0.8"/>
     </g>
     <g id="line2d_67">
      <g>
       <use xlink:href="#m3e749a1267" x="164.888418" y="271.56" style="stroke: #000000; stroke-width: 0.8"/>
      </g>
     </g>
     <g id="text_14">
      <!-- 2008 -->
      <g transform="translate(154.708418 284.63875) scale(0.08 -0.08)">
       <defs>
        <path id="DejaVuSerif-38" d="M 2981 1275 
Q 2981 1775 2732 2051 
Q 2484 2328 2034 2328 
Q 1584 2328 1336 2051 
Q 1088 1775 1088 1275 
Q 1088 772 1336 495 
Q 1584 219 2034 219 
Q 2484 219 2732 495 
Q 2981 772 2981 1275 
z
M 2853 3541 
Q 2853 3966 2637 4203 
Q 2422 4441 2034 4441 
Q 1650 4441 1433 4203 
Q 1216 3966 1216 3541 
Q 1216 3113 1433 2875 
Q 1650 2638 2034 2638 
Q 2422 2638 2637 2875 
Q 2853 3113 2853 3541 
z
M 2516 2484 
Q 3047 2413 3344 2092 
Q 3641 1772 3641 1275 
Q 3641 619 3225 264 
Q 2809 -91 2034 -91 
Q 1263 -91 845 264 
Q 428 619 428 1275 
Q 428 1772 725 2092 
Q 1022 2413 1556 2484 
Q 1084 2569 832 2842 
Q 581 3116 581 3541 
Q 581 4103 968 4426 
Q 1356 4750 2034 4750 
Q 2713 4750 3100 4426 
Q 3488 4103 3488 3541 
Q 3488 3116 3236 2842 
Q 2984 2569 2516 2484 
z
" transform="scale(0.015625)"/>
       </defs>
       <use xlink:href="#DejaVuSerif-32"/>
       <use xlink:href="#DejaVuSerif-30" transform="translate(63.623047 0)"/>
       <use xlink:href="#DejaVuSerif-30" transform="translate(127.246094 0)"/>
       <use xlink:href="#DejaVuSerif-38" transform="translate(190.869141 0)"/>
      </g>
     </g>
    </g>
    <g id="xtick_25">
     <g id="line2d_68">
      <path d="M 220.291504 271.56 
L 220.291504 220.307362 
" clip-path="url(#p15954282d5)" style="fill: none; stroke-dasharray: 2.96,1.28; stroke-dashoffset: 0; stroke: #b0b0b0; stroke-opacity: 0.5; stroke-width: 0.8"/>
     </g>
     <g id="line2d_69">
      <g>
       <use xlink:href="#m3e749a1267" x="220.291504" y="271.56" style="stroke: #000000; stroke-width: 0.8"/>
      </g>
     </g>
     <g id="text_15">
      <!-- 2012 -->
      <g transform="translate(210.111504 284.63875) scale(0.08 -0.08)">
       <use xlink:href="#DejaVuSerif-32"/>
       <use xlink:href="#DejaVuSerif-30" transform="translate(63.623047 0)"/>
       <use xlink:href="#DejaVuSerif-31" transform="translate(127.246094 0)"/>
       <use xlink:href="#DejaVuSerif-32" transform="translate(190.869141 0)"/>
      </g>
     </g>
    </g>
    <g id="xtick_26">
     <g id="line2d_70">
      <path d="M 275.694589 271.56 
L 275.694589 220.307362 
" clip-path="url(#p15954282d5)" style="fill: none; stroke-dasharray: 2.96,1.28; stroke-dashoffset: 0; stroke: #b0b0b0; stroke-opacity: 0.5; stroke-width: 0.8"/>
     </g>
     <g id="line2d_71">
      <g>
       <use xlink:href="#m3e749a1267" x="275.694589" y="271.56" style="stroke: #000000; stroke-width: 0.8"/>
      </g>
     </g>
     <g id="text_16">
      <!-- 2016 -->
      <g transform="translate(265.514589 284.63875) scale(0.08 -0.08)">
       <defs>
        <path id="DejaVuSerif-36" d="M 2094 219 
Q 2534 219 2771 542 
Q 3009 866 3009 1472 
Q 3009 2078 2771 2401 
Q 2534 2725 2094 2725 
Q 1647 2725 1412 2412 
Q 1178 2100 1178 1509 
Q 1178 888 1415 553 
Q 1653 219 2094 219 
z
M 1075 2569 
Q 1288 2803 1556 2918 
Q 1825 3034 2163 3034 
Q 2859 3034 3264 2615 
Q 3669 2197 3669 1472 
Q 3669 763 3233 336 
Q 2797 -91 2069 -91 
Q 1278 -91 853 498 
Q 428 1088 428 2181 
Q 428 3406 931 4078 
Q 1434 4750 2350 4750 
Q 2597 4750 2869 4703 
Q 3141 4656 3425 4563 
L 3425 3794 
L 3072 3794 
Q 3034 4109 2831 4275 
Q 2628 4441 2284 4441 
Q 1678 4441 1381 3981 
Q 1084 3522 1075 2569 
z
" transform="scale(0.015625)"/>
       </defs>
       <use xlink:href="#DejaVuSerif-32"/>
       <use xlink:href="#DejaVuSerif-30" transform="translate(63.623047 0)"/>
       <use xlink:href="#DejaVuSerif-31" transform="translate(127.246094 0)"/>
       <use xlink:href="#DejaVuSerif-36" transform="translate(190.869141 0)"/>
      </g>
     </g>
    </g>
    <g id="xtick_27">
     <g id="line2d_72">
      <path d="M 331.097675 271.56 
L 331.097675 220.307362 
" clip-path="url(#p15954282d5)" style="fill: none; stroke-dasharray: 2.96,1.28; stroke-dashoffset: 0; stroke: #b0b0b0; stroke-opacity: 0.5; stroke-width: 0.8"/>
     </g>
     <g id="line2d_73">
      <g>
       <use xlink:href="#m3e749a1267" x="331.097675" y="271.56" style="stroke: #000000; stroke-width: 0.8"/>
      </g>
     </g>
     <g id="text_17">
      <!-- 2020 -->
      <g transform="translate(320.917675 284.63875) scale(0.08 -0.08)">
       <use xlink:href="#DejaVuSerif-32"/>
       <use xlink:href="#DejaVuSerif-30" transform="translate(63.623047 0)"/>
       <use xlink:href="#DejaVuSerif-32" transform="translate(127.246094 0)"/>
       <use xlink:href="#DejaVuSerif-30" transform="translate(190.869141 0)"/>
      </g>
     </g>
    </g>
    <g id="xtick_28">
     <g id="line2d_74">
      <path d="M 386.500761 271.56 
L 386.500761 220.307362 
" clip-path="url(#p15954282d5)" style="fill: none; stroke-dasharray: 2.96,1.28; stroke-dashoffset: 0; stroke: #b0b0b0; stroke-opacity: 0.5; stroke-width: 0.8"/>
     </g>
     <g id="line2d_75">
      <g>
       <use xlink:href="#m3e749a1267" x="386.500761" y="271.56" style="stroke: #000000; stroke-width: 0.8"/>
      </g>
     </g>
     <g id="text_18">
      <!-- 2024 -->
      <g transform="translate(376.320761 284.63875) scale(0.08 -0.08)">
       <use xlink:href="#DejaVuSerif-32"/>
       <use xlink:href="#DejaVuSerif-30" transform="translate(63.623047 0)"/>
       <use xlink:href="#DejaVuSerif-32" transform="translate(127.246094 0)"/>
       <use xlink:href="#DejaVuSerif-34" transform="translate(190.869141 0)"/>
      </g>
     </g>
    </g>
    <g id="text_19">
     <!-- Série histórica -->
     <g transform="translate(200.37875 296.38125) scale(0.08 -0.08)">
      <defs>
       <path id="DejaVuSerif-e9" d="M 3469 1600 
L 991 1600 
L 991 1575 
Q 991 903 1244 561 
Q 1497 219 1991 219 
Q 2369 219 2611 417 
Q 2853 616 2950 1006 
L 3413 1006 
Q 3275 459 2904 184 
Q 2534 -91 1931 -91 
Q 1203 -91 761 389 
Q 319 869 319 1663 
Q 319 2450 753 2931 
Q 1188 3413 1894 3413 
Q 2647 3413 3050 2948 
Q 3453 2484 3469 1600 
z
M 2791 1931 
Q 2772 2513 2545 2808 
Q 2319 3103 1894 3103 
Q 1497 3103 1269 2806 
Q 1041 2509 991 1931 
L 2791 1931 
z
M 2330 5119 
L 2952 5119 
L 1890 3944 
L 1524 3944 
L 2330 5119 
z
" transform="scale(0.015625)"/>
       <path id="DejaVuSerif-20" transform="scale(0.015625)"/>
       <path id="DejaVuSerif-68" d="M 263 0 
L 263 331 
L 781 331 
L 781 4531 
L 231 4531 
L 231 4863 
L 1356 4863 
L 1356 2731 
Q 1516 3069 1770 3241 
Q 2025 3413 2363 3413 
Q 2913 3413 3172 3097 
Q 3431 2781 3431 2113 
L 3431 331 
L 3944 331 
L 3944 0 
L 2356 0 
L 2356 331 
L 2853 331 
L 2853 1931 
Q 2853 2541 2704 2764 
Q 2556 2988 2175 2988 
Q 1775 2988 1565 2697 
Q 1356 2406 1356 1850 
L 1356 331 
L 1856 331 
L 1856 0 
L 263 0 
z
" transform="scale(0.015625)"/>
       <path id="DejaVuSerif-74" d="M 691 2988 
L 184 2988 
L 184 3322 
L 691 3322 
L 691 4353 
L 1269 4353 
L 1269 3322 
L 2350 3322 
L 2350 2988 
L 1269 2988 
L 1269 878 
Q 1269 456 1350 337 
Q 1431 219 1650 219 
Q 1875 219 1978 351 
Q 2081 484 2088 781 
L 2522 781 
Q 2497 328 2275 118 
Q 2053 -91 1600 -91 
Q 1103 -91 897 129 
Q 691 350 691 878 
L 691 2988 
z
" transform="scale(0.015625)"/>
       <path id="DejaVuSerif-f3" d="M 1925 219 
Q 2388 219 2623 584 
Q 2859 950 2859 1663 
Q 2859 2375 2623 2739 
Q 2388 3103 1925 3103 
Q 1463 3103 1227 2739 
Q 991 2375 991 1663 
Q 991 950 1228 584 
Q 1466 219 1925 219 
z
M 1925 -91 
Q 1200 -91 759 389 
Q 319 869 319 1663 
Q 319 2456 758 2934 
Q 1197 3413 1925 3413 
Q 2653 3413 3092 2934 
Q 3531 2456 3531 1663 
Q 3531 869 3092 389 
Q 2653 -91 1925 -91 
z
M 2362 5119 
L 2984 5119 
L 1922 3944 
L 1556 3944 
L 2362 5119 
z
" transform="scale(0.015625)"/>
      </defs>
      <use xlink:href="#DejaVuSerif-53"/>
      <use xlink:href="#DejaVuSerif-e9" transform="translate(68.505859 0)"/>
      <use xlink:href="#DejaVuSerif-72" transform="translate(127.685547 0)"/>
      <use xlink:href="#DejaVuSerif-69" transform="translate(175.488281 0)"/>
      <use xlink:href="#DejaVuSerif-65" transform="translate(207.470703 0)"/>
      <use xlink:href="#DejaVuSerif-20" transform="translate(266.650391 0)"/>
      <use xlink:href="#DejaVuSerif-68" transform="translate(298.4375 0)"/>
      <use xlink:href="#DejaVuSerif-69" transform="translate(362.841797 0)"/>
      <use xlink:href="#DejaVuSerif-73" transform="translate(394.824219 0)"/>
      <use xlink:href="#DejaVuSerif-74" transform="translate(446.142578 0)"/>
      <use xlink:href="#DejaVuSerif-f3" transform="translate(486.328125 0)"/>
      <use xlink:href="#DejaVuSerif-72" transform="translate(546.533203 0)"/>
      <use xlink:href="#DejaVuSerif-69" transform="translate(594.335938 0)"/>
      <use xlink:href="#DejaVuSerif-63" transform="translate(626.318359 0)"/>
      <use xlink:href="#DejaVuSerif-61" transform="translate(682.324219 0)"/>
     </g>
    </g>
   </g>
   <g id="matplotlib.axis_8">
    <g id="ytick_9">
     <g id="line2d_76">
      <path d="M 37.73625 247.907263 
L 422.37625 247.907263 
" clip-path="url(#p15954282d5)" style="fill: none; stroke-dasharray: 2.96,1.28; stroke-dashoffset: 0; stroke: #b0b0b0; stroke-opacity: 0.5; stroke-width: 0.8"/>
     </g>
     <g id="line2d_77">
      <g>
       <use xlink:href="#m8322df43cb" x="37.73625" y="247.907263" style="stroke: #000000; stroke-width: 0.8"/>
      </g>
     </g>
     <g id="text_20">
      <!-- 0 -->
      <g transform="translate(25.64625 250.946638) scale(0.08 -0.08)">
       <use xlink:href="#DejaVuSerif-30"/>
      </g>
     </g>
    </g>
    <g id="ytick_10">
     <g id="line2d_78">
      <path d="M 37.73625 222.575183 
L 422.37625 222.575183 
" clip-path="url(#p15954282d5)" style="fill: none; stroke-dasharray: 2.96,1.28; stroke-dashoffset: 0; stroke: #b0b0b0; stroke-opacity: 0.5; stroke-width: 0.8"/>
     </g>
     <g id="line2d_79">
      <g>
       <use xlink:href="#m8322df43cb" x="37.73625" y="222.575183" style="stroke: #000000; stroke-width: 0.8"/>
      </g>
     </g>
     <g id="text_21">
      <!-- 1 -->
      <g transform="translate(25.64625 225.614558) scale(0.08 -0.08)">
       <use xlink:href="#DejaVuSerif-31"/>
      </g>
     </g>
    </g>
    <g id="text_22">
     <!-- Resíduo -->
     <g transform="translate(19.9825 262.189931) rotate(-90) scale(0.08 -0.08)">
      <defs>
       <path id="DejaVuSerif-52" d="M 3066 2316 
Q 3284 2256 3442 2114 
Q 3600 1972 3725 1716 
L 4403 331 
L 4972 331 
L 4972 0 
L 3872 0 
L 3144 1484 
Q 2934 1916 2759 2042 
Q 2584 2169 2278 2169 
L 1581 2169 
L 1581 331 
L 2241 331 
L 2241 0 
L 353 0 
L 353 331 
L 947 331 
L 947 4331 
L 353 4331 
L 353 4666 
L 2719 4666 
Q 3400 4666 3770 4341 
Q 4141 4016 4141 3419 
Q 4141 2938 3870 2661 
Q 3600 2384 3066 2316 
z
M 1581 2503 
L 2503 2503 
Q 2975 2503 3200 2726 
Q 3425 2950 3425 3419 
Q 3425 3888 3200 4109 
Q 2975 4331 2503 4331 
L 1581 4331 
L 1581 2503 
z
" transform="scale(0.015625)"/>
       <path id="DejaVuSerif-ed" d="M 1356 331 
L 1900 331 
L 1900 0 
L 231 0 
L 231 331 
L 781 331 
L 781 2988 
L 231 2988 
L 231 3322 
L 1356 3322 
L 1356 331 
z
M 1458 5119 
L 2080 5119 
L 1018 3944 
L 652 3944 
L 1458 5119 
z
" transform="scale(0.015625)"/>
       <path id="DejaVuSerif-75" d="M 2266 3322 
L 3341 3322 
L 3341 331 
L 3884 331 
L 3884 0 
L 2766 0 
L 2766 588 
Q 2606 256 2353 82 
Q 2100 -91 1766 -91 
Q 1213 -91 952 223 
Q 691 538 691 1209 
L 691 2988 
L 172 2988 
L 172 3322 
L 1269 3322 
L 1269 1388 
Q 1269 781 1417 556 
Q 1566 331 1947 331 
Q 2347 331 2556 625 
Q 2766 919 2766 1478 
L 2766 2988 
L 2266 2988 
L 2266 3322 
z
" transform="scale(0.015625)"/>
      </defs>
      <use xlink:href="#DejaVuSerif-52"/>
      <use xlink:href="#DejaVuSerif-65" transform="translate(75.292969 0)"/>
      <use xlink:href="#DejaVuSerif-73" transform="translate(134.472656 0)"/>
      <use xlink:href="#DejaVuSerif-ed" transform="translate(185.791016 0)"/>
      <use xlink:href="#DejaVuSerif-64" transform="translate(217.773438 0)"/>
      <use xlink:href="#DejaVuSerif-75" transform="translate(281.787109 0)"/>
      <use xlink:href="#DejaVuSerif-6f" transform="translate(346.191406 0)"/>
     </g>
    </g>
   </g>
   <g id="line2d_80">
    <path d="M 55.219886 256.384385 
L 57.495167 247.766167 
L 58.632807 242.998183 
L 59.808369 241.755904 
L 60.94601 242.161251 
L 62.121571 248.237079 
L 63.297133 241.734919 
L 64.434773 244.472934 
L 66.747975 256.748164 
L 67.923537 254.416107 
L 69.099099 245.168396 
L 70.160897 250.065472 
L 71.336458 245.37944 
L 72.474099 242.311784 
L 73.64966 242.995604 
L 74.787301 244.501184 
L 75.962862 241.09581 
L 77.138424 248.813506 
L 78.276064 253.473658 
L 79.451626 252.515322 
L 80.589267 254.386027 
L 81.764828 257.734912 
L 82.94039 247.374171 
L 84.002188 241.244634 
L 85.177749 250.991204 
L 86.31539 252.199269 
L 87.490951 250.889975 
L 88.628592 245.697109 
L 89.804154 249.560392 
L 90.979715 246.979965 
L 92.117356 244.84144 
L 93.292917 242.261004 
L 94.430558 230.166412 
L 95.606119 228.506841 
L 96.781681 235.075313 
L 97.843479 242.59099 
L 99.01904 243.29666 
L 100.156681 256.388928 
L 101.332243 262.68843 
L 102.469883 260.91838 
L 103.645445 255.132859 
L 104.821006 259.855293 
L 105.958647 251.556859 
L 107.134208 244.669 
L 108.271849 242.732491 
L 109.44741 245.201454 
L 110.622972 246.97285 
L 111.722691 245.796066 
L 112.898253 252.739744 
L 114.035893 252.357785 
L 115.211455 249.073359 
L 116.349095 257.237855 
L 117.524657 244.406525 
L 118.700219 241.645966 
L 119.837859 240.679606 
L 121.013421 244.334885 
L 122.151061 245.491399 
L 123.326623 242.774351 
L 124.502185 245.936512 
L 125.563982 251.856316 
L 126.739544 243.895117 
L 127.877184 245.32501 
L 129.052746 242.628595 
L 130.190387 241.987679 
L 131.365948 248.324322 
L 132.54151 251.230966 
L 133.67915 251.417127 
L 134.854712 245.898486 
L 135.992352 255.542765 
L 137.167914 260.193815 
L 138.343476 259.316534 
L 139.405273 250.707747 
L 140.580835 254.892527 
L 141.718476 247.235874 
L 142.894037 245.839334 
L 144.031678 248.460025 
L 145.207239 254.996356 
L 146.382801 248.945453 
L 147.520441 241.688401 
L 148.696003 242.576204 
L 151.009205 228.9502 
L 152.184767 232.82068 
L 154.422126 247.762639 
L 155.559767 247.463468 
L 156.735328 249.074569 
L 157.872969 240.163391 
L 159.04853 245.163449 
L 160.224092 247.518196 
L 161.361733 258.885898 
L 162.537294 262.028309 
L 163.674935 264.336106 
L 164.850496 260.776397 
L 166.026058 260.283008 
L 167.125777 261.013721 
L 168.301339 248.236416 
L 169.438979 248.040859 
L 171.752181 246.12226 
L 172.927743 236.293704 
L 174.103305 234.80972 
L 175.240945 239.215234 
L 176.416507 242.666382 
L 177.554147 248.308644 
L 178.729709 259.65331 
L 179.905271 258.879164 
L 180.967068 254.249991 
L 182.14263 255.164045 
L 183.28027 255.058695 
L 184.455832 250.090799 
L 185.593472 250.033083 
L 186.769034 249.310216 
L 187.944596 248.949781 
L 190.257798 239.76879 
L 191.395438 228.566876 
L 192.571 222.637027 
L 193.746562 222.642949 
L 194.808359 230.109399 
L 195.983921 232.42603 
L 197.121561 238.11981 
L 198.297123 249.605929 
L 199.434763 259.575643 
L 200.610325 266.96656 
L 201.785887 269.230335 
L 202.923527 264.376103 
L 204.099089 260.040736 
L 205.236729 257.9441 
L 206.412291 258.524568 
L 207.587853 255.135183 
L 208.64965 247.992133 
L 209.825212 246.666382 
L 210.962853 243.215206 
L 212.138414 238.728521 
L 213.276055 236.114458 
L 214.451616 237.721585 
L 215.627178 245.028492 
L 216.764818 247.929888 
L 219.07802 261.315652 
L 220.253582 254.640429 
L 221.429144 253.592048 
L 222.528863 249.400386 
L 223.704425 253.247729 
L 224.842065 252.559546 
L 226.017627 251.458803 
L 228.330829 236.610702 
L 229.50639 229.586864 
L 230.644031 238.618054 
L 231.819593 238.947484 
L 232.957233 245.734624 
L 234.132795 253.973501 
L 235.308356 253.08261 
L 236.370154 250.344496 
L 237.545716 246.635199 
L 238.683356 249.387253 
L 239.858918 248.993488 
L 240.996558 250.348595 
L 242.17212 250.728626 
L 243.347682 252.273212 
L 244.485322 245.360436 
L 245.660884 248.741529 
L 246.798524 246.841005 
L 247.974086 247.832891 
L 249.149647 251.052969 
L 250.211445 255.568864 
L 251.387007 249.417593 
L 252.524647 244.968506 
L 253.700209 243.432457 
L 254.837849 246.034432 
L 256.013411 250.611321 
L 257.188973 249.451024 
L 258.326613 250.053369 
L 259.502175 249.737921 
L 260.639815 244.717125 
L 261.815377 244.723238 
L 262.990939 249.522507 
L 264.052736 252.389898 
L 265.228298 257.49247 
L 266.365938 254.124029 
L 267.5415 255.850028 
L 268.67914 256.365183 
L 269.854702 252.118725 
L 271.030264 241.780828 
L 272.167904 237.602237 
L 273.343466 232.618232 
L 274.481106 226.074466 
L 275.656668 226.327321 
L 276.83223 226.03445 
L 277.931949 230.876239 
L 279.10751 239.817778 
L 280.245151 247.16817 
L 281.420713 253.934014 
L 282.558353 258.961162 
L 283.733915 262.704342 
L 284.909476 263.466295 
L 286.047117 260.052033 
L 287.222678 260.463011 
L 288.360319 259.548705 
L 289.53588 256.184214 
L 290.711442 253.823207 
L 291.77324 244.556458 
L 292.948802 242.81949 
L 294.086442 242.807923 
L 295.262004 237.379936 
L 296.399644 233.942126 
L 297.575206 233.789773 
L 298.750767 243.347083 
L 299.888408 246.710881 
L 301.06397 250.791828 
L 302.20161 258.342193 
L 303.377172 260.711683 
L 304.552733 255.809804 
L 305.614531 259.684322 
L 306.790093 260.385783 
L 307.927733 255.625031 
L 310.240935 247.839846 
L 311.416497 245.43233 
L 312.592059 241.237677 
L 313.729699 243.117614 
L 314.905261 237.582335 
L 316.042901 239.410309 
L 317.218463 240.346535 
L 318.394024 247.348191 
L 319.455822 249.061487 
L 320.631384 242.595119 
L 321.769024 246.786819 
L 322.944586 243.310753 
L 324.082226 249.311382 
L 325.257788 251.325712 
L 326.43335 256.099978 
L 327.57099 259.018509 
L 328.746552 246.433792 
L 329.884192 241.165627 
L 331.059754 240.076086 
L 332.235316 239.189405 
L 333.335035 241.90489 
L 335.648237 238.844421 
L 336.823798 249.443495 
L 337.961439 250.837315 
L 339.137 248.467782 
L 340.312562 253.697985 
L 341.450203 250.699812 
L 342.625764 259.125595 
L 343.763405 262.99049 
L 344.938966 257.610533 
L 346.114528 254.364942 
L 347.176326 248.878129 
L 348.351887 246.719158 
L 349.489528 247.299112 
L 350.66509 240.614762 
L 351.80273 238.996251 
L 352.978292 241.194134 
L 354.153853 239.423045 
L 355.291494 239.792754 
L 356.467055 250.25297 
L 357.604696 252.147743 
L 358.780257 251.662614 
L 359.955819 248.023121 
L 361.017617 248.20995 
L 362.193179 258.23403 
L 363.330819 252.878461 
L 364.506381 251.699999 
L 365.644021 247.607588 
L 366.819583 246.548821 
L 367.995144 247.124573 
L 369.132785 247.162908 
L 370.308346 248.843864 
L 371.445987 255.595107 
L 372.621549 255.614738 
L 373.79711 256.555962 
L 374.858908 259.97403 
L 376.03447 255.856513 
L 377.17211 252.670216 
L 378.347672 245.833836 
L 379.485312 246.306641 
L 380.660874 245.095624 
L 381.836436 242.2542 
L 382.974076 233.597315 
L 384.149638 232.775761 
L 385.287278 235.161975 
L 386.46284 228.093792 
L 387.638401 231.611895 
L 388.73812 238.922513 
L 389.913682 247.620632 
L 392.226884 249.416413 
L 393.364525 251.346079 
L 394.540086 252.538456 
L 395.715648 252.905797 
L 396.853288 260.378779 
L 398.02885 254.047735 
L 399.16649 245.596876 
L 400.342052 253.870307 
L 401.517614 252.872836 
L 403.754973 236.665412 
L 404.892614 240.724326 
L 404.892614 240.724326 
" clip-path="url(#p15954282d5)" style="fill: none; stroke: #47a730; stroke-width: 0.5; stroke-linecap: square"/>
   </g>
   <g id="patch_12">
    <path d="M 37.73625 271.56 
L 37.73625 220.307362 
" style="fill: none; stroke: #000000; stroke-width: 0.8; stroke-linejoin: miter; stroke-linecap: square"/>
   </g>
   <g id="patch_13">
    <path d="M 37.73625 271.56 
L 422.37625 271.56 
" style="fill: none; stroke: #000000; stroke-width: 0.8; stroke-linejoin: miter; stroke-linecap: square"/>
   </g>
  </g>
  <g id="legend_1">
   <g id="line2d_81">
    <path d="M 60.429375 13.67875 
L 68.429375 13.67875 
L 76.429375 13.67875 
" style="fill: none; stroke: #4596f3; stroke-width: 0.5; stroke-linecap: square"/>
   </g>
   <g id="text_23">
    <!-- Observado -->
    <g transform="translate(82.829375 16.47875) scale(0.08 -0.08)">
     <use xlink:href="#DejaVuSerif-4f"/>
     <use xlink:href="#DejaVuSerif-62" transform="translate(81.982422 0)"/>
     <use xlink:href="#DejaVuSerif-73" transform="translate(145.996094 0)"/>
     <use xlink:href="#DejaVuSerif-65" transform="translate(197.314453 0)"/>
     <use xlink:href="#DejaVuSerif-72" transform="translate(256.494141 0)"/>
     <use xlink:href="#DejaVuSerif-76" transform="translate(304.296875 0)"/>
     <use xlink:href="#DejaVuSerif-61" transform="translate(360.791016 0)"/>
     <use xlink:href="#DejaVuSerif-64" transform="translate(420.410156 0)"/>
     <use xlink:href="#DejaVuSerif-6f" transform="translate(484.423828 0)"/>
    </g>
   </g>
   <g id="line2d_82">
    <path d="M 142.400625 13.67875 
L 150.400625 13.67875 
L 158.400625 13.67875 
" style="fill: none; stroke: #ff5656; stroke-width: 0.5; stroke-linecap: square"/>
   </g>
   <g id="text_24">
    <!-- Tendência -->
    <g transform="translate(164.800625 16.47875) scale(0.08 -0.08)">
     <use xlink:href="#DejaVuSerif-54"/>
     <use xlink:href="#DejaVuSerif-65" transform="translate(58.949219 0)"/>
     <use xlink:href="#DejaVuSerif-6e" transform="translate(118.128906 0)"/>
     <use xlink:href="#DejaVuSerif-64" transform="translate(182.533203 0)"/>
     <use xlink:href="#DejaVuSerif-ea" transform="translate(246.546875 0)"/>
     <use xlink:href="#DejaVuSerif-6e" transform="translate(305.726562 0)"/>
     <use xlink:href="#DejaVuSerif-63" transform="translate(370.130859 0)"/>
     <use xlink:href="#DejaVuSerif-69" transform="translate(426.136719 0)"/>
     <use xlink:href="#DejaVuSerif-61" transform="translate(458.119141 0)"/>
    </g>
   </g>
   <g id="line2d_83">
    <path d="M 222.221875 13.67875 
L 230.221875 13.67875 
L 238.221875 13.67875 
" style="fill: none; stroke: #ffa722; stroke-width: 0.5; stroke-linecap: square"/>
   </g>
   <g id="text_25">
    <!-- Sazonalidade -->
    <g transform="translate(244.621875 16.47875) scale(0.08 -0.08)">
     <use xlink:href="#DejaVuSerif-53"/>
     <use xlink:href="#DejaVuSerif-61" transform="translate(68.505859 0)"/>
     <use xlink:href="#DejaVuSerif-7a" transform="translate(128.125 0)"/>
     <use xlink:href="#DejaVuSerif-6f" transform="translate(180.810547 0)"/>
     <use xlink:href="#DejaVuSerif-6e" transform="translate(241.015625 0)"/>
     <use xlink:href="#DejaVuSerif-61" transform="translate(305.419922 0)"/>
     <use xlink:href="#DejaVuSerif-6c" transform="translate(365.039062 0)"/>
     <use xlink:href="#DejaVuSerif-69" transform="translate(397.021484 0)"/>
     <use xlink:href="#DejaVuSerif-64" transform="translate(429.003906 0)"/>
     <use xlink:href="#DejaVuSerif-61" transform="translate(493.017578 0)"/>
     <use xlink:href="#DejaVuSerif-64" transform="translate(552.636719 0)"/>
     <use xlink:href="#DejaVuSerif-65" transform="translate(616.650391 0)"/>
    </g>
   </g>
   <g id="line2d_84">
    <path d="M 314.690625 13.67875 
L 322.690625 13.67875 
L 330.690625 13.67875 
" style="fill: none; stroke: #47a730; stroke-width: 0.5; stroke-linecap: square"/>
   </g>
   <g id="text_26">
    <!-- Resíduo -->
    <g transform="translate(337.090625 16.47875) scale(0.08 -0.08)">
     <use xlink:href="#DejaVuSerif-52"/>
     <use xlink:href="#DejaVuSerif-65" transform="translate(75.292969 0)"/>
     <use xlink:href="#DejaVuSerif-73" transform="translate(134.472656 0)"/>
     <use xlink:href="#DejaVuSerif-ed" transform="translate(185.791016 0)"/>
     <use xlink:href="#DejaVuSerif-64" transform="translate(217.773438 0)"/>
     <use xlink:href="#DejaVuSerif-75" transform="translate(281.787109 0)"/>
     <use xlink:href="#DejaVuSerif-6f" transform="translate(346.191406 0)"/>
    </g>
   </g>
  </g>
 </g>
 <defs>
  <clipPath id="p84acfbf9e0">
   <rect x="37.73625" y="26.24" width="384.64" height="51.252638"/>
  </clipPath>
  <clipPath id="pc1e91e63fc">
   <rect x="37.73625" y="90.929121" width="384.64" height="51.252638"/>
  </clipPath>
  <clipPath id="p50f23885b7">
   <rect x="37.73625" y="155.618241" width="384.64" height="51.252638"/>
  </clipPath>
  <clipPath id="p15954282d5">
   <rect x="37.73625" y="220.307362" width="384.64" height="51.252638"/>
  </clipPath>
 </defs>
</svg>
