<?xml version="1.0" encoding="utf-8" standalone="no"?>
<!DOCTYPE svg PUBLIC "-//W3C//DTD SVG 1.1//EN"
  "http://www.w3.org/Graphics/SVG/1.1/DTD/svg11.dtd">
<svg xmlns:xlink="http://www.w3.org/1999/xlink" width="429.55875pt" height="305.245pt" viewBox="0 0 429.55875 305.245" xmlns="http://www.w3.org/2000/svg" version="1.1">
 <metadata>
  <rdf:RDF xmlns:dc="http://purl.org/dc/elements/1.1/" xmlns:cc="http://creativecommons.org/ns#" xmlns:rdf="http://www.w3.org/1999/02/22-rdf-syntax-ns#">
   <cc:Work>
    <dc:type rdf:resource="http://purl.org/dc/dcmitype/StillImage"/>
    <dc:date>2025-06-30T00:11:22.363314</dc:date>
    <dc:format>image/svg+xml</dc:format>
    <dc:creator>
     <cc:Agent>
      <dc:title>Matplotlib v3.10.3, https://matplotlib.org/</dc:title>
     </cc:Agent>
    </dc:creator>
   </cc:Work>
  </rdf:RDF>
 </metadata>
 <defs>
  <style type="text/css">*{stroke-linejoin: round; stroke-linecap: butt}</style>
 </defs>
 <g id="figure_1">
  <g id="patch_1">
   <path d="M 0 305.245 
L 429.55875 305.245 
L 429.55875 0 
L 0 0 
z
" style="fill: #ffffff"/>
  </g>
  <g id="axes_1">
   <g id="patch_2">
    <path d="M 45.36875 77.95163 
L 422.35875 77.95163 
L 422.35875 26.24 
L 45.36875 26.24 
z
" style="fill: #ffffff"/>
   </g>
   <g id="matplotlib.axis_1">
    <g id="xtick_1">
     <g id="line2d_1">
      <path d="M 61.389645 77.95163 
L 61.389645 26.24 
" clip-path="url(#p1bad2ca95e)" style="fill: none; stroke-dasharray: 2.96,1.28; stroke-dashoffset: 0; stroke: #b0b0b0; stroke-opacity: 0.5; stroke-width: 0.8"/>
     </g>
     <g id="line2d_2">
      <defs>
       <path id="m019677cfa8" d="M 0 0 
L 0 3.5 
" style="stroke: #000000; stroke-width: 0.8"/>
      </defs>
      <g>
       <use xlink:href="#m019677cfa8" x="61.389645" y="77.95163" style="stroke: #000000; stroke-width: 0.8"/>
      </g>
     </g>
    </g>
    <g id="xtick_2">
     <g id="line2d_3">
      <path d="M 115.690834 77.95163 
L 115.690834 26.24 
" clip-path="url(#p1bad2ca95e)" style="fill: none; stroke-dasharray: 2.96,1.28; stroke-dashoffset: 0; stroke: #b0b0b0; stroke-opacity: 0.5; stroke-width: 0.8"/>
     </g>
     <g id="line2d_4">
      <g>
       <use xlink:href="#m019677cfa8" x="115.690834" y="77.95163" style="stroke: #000000; stroke-width: 0.8"/>
      </g>
     </g>
    </g>
    <g id="xtick_3">
     <g id="line2d_5">
      <path d="M 169.992023 77.95163 
L 169.992023 26.24 
" clip-path="url(#p1bad2ca95e)" style="fill: none; stroke-dasharray: 2.96,1.28; stroke-dashoffset: 0; stroke: #b0b0b0; stroke-opacity: 0.5; stroke-width: 0.8"/>
     </g>
     <g id="line2d_6">
      <g>
       <use xlink:href="#m019677cfa8" x="169.992023" y="77.95163" style="stroke: #000000; stroke-width: 0.8"/>
      </g>
     </g>
    </g>
    <g id="xtick_4">
     <g id="line2d_7">
      <path d="M 224.293212 77.95163 
L 224.293212 26.24 
" clip-path="url(#p1bad2ca95e)" style="fill: none; stroke-dasharray: 2.96,1.28; stroke-dashoffset: 0; stroke: #b0b0b0; stroke-opacity: 0.5; stroke-width: 0.8"/>
     </g>
     <g id="line2d_8">
      <g>
       <use xlink:href="#m019677cfa8" x="224.293212" y="77.95163" style="stroke: #000000; stroke-width: 0.8"/>
      </g>
     </g>
    </g>
    <g id="xtick_5">
     <g id="line2d_9">
      <path d="M 278.594401 77.95163 
L 278.594401 26.24 
" clip-path="url(#p1bad2ca95e)" style="fill: none; stroke-dasharray: 2.96,1.28; stroke-dashoffset: 0; stroke: #b0b0b0; stroke-opacity: 0.5; stroke-width: 0.8"/>
     </g>
     <g id="line2d_10">
      <g>
       <use xlink:href="#m019677cfa8" x="278.594401" y="77.95163" style="stroke: #000000; stroke-width: 0.8"/>
      </g>
     </g>
    </g>
    <g id="xtick_6">
     <g id="line2d_11">
      <path d="M 332.89559 77.95163 
L 332.89559 26.24 
" clip-path="url(#p1bad2ca95e)" style="fill: none; stroke-dasharray: 2.96,1.28; stroke-dashoffset: 0; stroke: #b0b0b0; stroke-opacity: 0.5; stroke-width: 0.8"/>
     </g>
     <g id="line2d_12">
      <g>
       <use xlink:href="#m019677cfa8" x="332.89559" y="77.95163" style="stroke: #000000; stroke-width: 0.8"/>
      </g>
     </g>
    </g>
    <g id="xtick_7">
     <g id="line2d_13">
      <path d="M 387.196779 77.95163 
L 387.196779 26.24 
" clip-path="url(#p1bad2ca95e)" style="fill: none; stroke-dasharray: 2.96,1.28; stroke-dashoffset: 0; stroke: #b0b0b0; stroke-opacity: 0.5; stroke-width: 0.8"/>
     </g>
     <g id="line2d_14">
      <g>
       <use xlink:href="#m019677cfa8" x="387.196779" y="77.95163" style="stroke: #000000; stroke-width: 0.8"/>
      </g>
     </g>
    </g>
   </g>
   <g id="matplotlib.axis_2">
    <g id="ytick_1">
     <g id="line2d_15">
      <path d="M 45.36875 72.71188 
L 422.35875 72.71188 
" clip-path="url(#p1bad2ca95e)" style="fill: none; stroke-dasharray: 2.96,1.28; stroke-dashoffset: 0; stroke: #b0b0b0; stroke-opacity: 0.5; stroke-width: 0.8"/>
     </g>
     <g id="line2d_16">
      <defs>
       <path id="md0f628f81b" d="M 0 0 
L -3.5 0 
" style="stroke: #000000; stroke-width: 0.8"/>
      </defs>
      <g>
       <use xlink:href="#md0f628f81b" x="45.36875" y="72.71188" style="stroke: #000000; stroke-width: 0.8"/>
      </g>
     </g>
     <g id="text_1">
      <!-- −2 -->
      <g transform="translate(26.575 75.751255) scale(0.08 -0.08)">
       <defs>
        <path id="DejaVuSerif-2212" d="M 678 2259 
L 4684 2259 
L 4684 1753 
L 678 1753 
L 678 2259 
z
" transform="scale(0.015625)"/>
        <path id="DejaVuSerif-32" d="M 819 3553 
L 469 3553 
L 469 4384 
Q 803 4563 1142 4656 
Q 1481 4750 1806 4750 
Q 2534 4750 2956 4397 
Q 3378 4044 3378 3438 
Q 3378 2753 2422 1800 
Q 2347 1728 2309 1691 
L 1131 513 
L 3078 513 
L 3078 1088 
L 3444 1088 
L 3444 0 
L 434 0 
L 434 341 
L 1850 1753 
Q 2319 2222 2519 2614 
Q 2719 3006 2719 3438 
Q 2719 3909 2473 4175 
Q 2228 4441 1797 4441 
Q 1350 4441 1106 4219 
Q 863 3997 819 3553 
z
" transform="scale(0.015625)"/>
       </defs>
       <use xlink:href="#DejaVuSerif-2212"/>
       <use xlink:href="#DejaVuSerif-32" transform="translate(83.789062 0)"/>
      </g>
     </g>
    </g>
    <g id="ytick_2">
     <g id="line2d_17">
      <path d="M 45.36875 51.872053 
L 422.35875 51.872053 
" clip-path="url(#p1bad2ca95e)" style="fill: none; stroke-dasharray: 2.96,1.28; stroke-dashoffset: 0; stroke: #b0b0b0; stroke-opacity: 0.5; stroke-width: 0.8"/>
     </g>
     <g id="line2d_18">
      <g>
       <use xlink:href="#md0f628f81b" x="45.36875" y="51.872053" style="stroke: #000000; stroke-width: 0.8"/>
      </g>
     </g>
     <g id="text_2">
      <!-- 0 -->
      <g transform="translate(33.27875 54.911428) scale(0.08 -0.08)">
       <defs>
        <path id="DejaVuSerif-30" d="M 2034 219 
Q 2513 219 2750 744 
Q 2988 1269 2988 2328 
Q 2988 3391 2750 3916 
Q 2513 4441 2034 4441 
Q 1556 4441 1318 3916 
Q 1081 3391 1081 2328 
Q 1081 1269 1318 744 
Q 1556 219 2034 219 
z
M 2034 -91 
Q 1275 -91 848 546 
Q 422 1184 422 2328 
Q 422 3475 848 4112 
Q 1275 4750 2034 4750 
Q 2797 4750 3222 4112 
Q 3647 3475 3647 2328 
Q 3647 1184 3222 546 
Q 2797 -91 2034 -91 
z
" transform="scale(0.015625)"/>
       </defs>
       <use xlink:href="#DejaVuSerif-30"/>
      </g>
     </g>
    </g>
    <g id="ytick_3">
     <g id="line2d_19">
      <path d="M 45.36875 31.032226 
L 422.35875 31.032226 
" clip-path="url(#p1bad2ca95e)" style="fill: none; stroke-dasharray: 2.96,1.28; stroke-dashoffset: 0; stroke: #b0b0b0; stroke-opacity: 0.5; stroke-width: 0.8"/>
     </g>
     <g id="line2d_20">
      <g>
       <use xlink:href="#md0f628f81b" x="45.36875" y="31.032226" style="stroke: #000000; stroke-width: 0.8"/>
      </g>
     </g>
     <g id="text_3">
      <!-- 2 -->
      <g transform="translate(33.27875 34.071601) scale(0.08 -0.08)">
       <use xlink:href="#DejaVuSerif-32"/>
      </g>
     </g>
    </g>
    <g id="text_4">
     <!-- Observado -->
     <g transform="translate(20.91125 73.88144) rotate(-90) scale(0.08 -0.08)">
      <defs>
       <path id="DejaVuSerif-4f" d="M 2625 244 
Q 3391 244 3781 770 
Q 4172 1297 4172 2328 
Q 4172 3363 3781 3889 
Q 3391 4416 2625 4416 
Q 1856 4416 1465 3889 
Q 1075 3363 1075 2328 
Q 1075 1297 1465 770 
Q 1856 244 2625 244 
z
M 2625 -91 
Q 2150 -91 1751 65 
Q 1353 222 1050 525 
Q 700 875 529 1319 
Q 359 1763 359 2328 
Q 359 2894 529 3339 
Q 700 3784 1050 4134 
Q 1356 4441 1750 4595 
Q 2144 4750 2625 4750 
Q 3641 4750 4266 4084 
Q 4891 3419 4891 2328 
Q 4891 1769 4719 1320 
Q 4547 872 4197 525 
Q 3891 219 3497 64 
Q 3103 -91 2625 -91 
z
" transform="scale(0.015625)"/>
       <path id="DejaVuSerif-62" d="M 738 331 
L 738 4531 
L 184 4531 
L 184 4863 
L 1313 4863 
L 1313 2803 
Q 1481 3116 1742 3264 
Q 2003 3413 2388 3413 
Q 3000 3413 3387 2928 
Q 3775 2444 3775 1663 
Q 3775 881 3387 395 
Q 3000 -91 2388 -91 
Q 2003 -91 1742 57 
Q 1481 206 1313 519 
L 1313 0 
L 184 0 
L 184 331 
L 738 331 
z
M 1313 1497 
Q 1313 897 1542 583 
Q 1772 269 2209 269 
Q 2650 269 2876 622 
Q 3103 975 3103 1663 
Q 3103 2353 2876 2703 
Q 2650 3053 2209 3053 
Q 1772 3053 1542 2737 
Q 1313 2422 1313 1825 
L 1313 1497 
z
" transform="scale(0.015625)"/>
       <path id="DejaVuSerif-73" d="M 359 184 
L 359 959 
L 691 959 
Q 703 588 923 403 
Q 1144 219 1575 219 
Q 1963 219 2166 364 
Q 2369 509 2369 788 
Q 2369 1006 2220 1140 
Q 2072 1275 1594 1428 
L 1178 1569 
Q 750 1706 558 1912 
Q 366 2119 366 2438 
Q 366 2894 700 3153 
Q 1034 3413 1625 3413 
Q 1888 3413 2178 3344 
Q 2469 3275 2778 3144 
L 2778 2419 
L 2447 2419 
Q 2434 2741 2221 2922 
Q 2009 3103 1644 3103 
Q 1281 3103 1095 2975 
Q 909 2847 909 2591 
Q 909 2381 1050 2254 
Q 1191 2128 1613 1997 
L 2069 1856 
Q 2541 1709 2748 1489 
Q 2956 1269 2956 922 
Q 2956 450 2595 179 
Q 2234 -91 1600 -91 
Q 1278 -91 972 -22 
Q 666 47 359 184 
z
" transform="scale(0.015625)"/>
       <path id="DejaVuSerif-65" d="M 3469 1600 
L 991 1600 
L 991 1575 
Q 991 903 1244 561 
Q 1497 219 1991 219 
Q 2369 219 2611 417 
Q 2853 616 2950 1006 
L 3413 1006 
Q 3275 459 2904 184 
Q 2534 -91 1931 -91 
Q 1203 -91 761 389 
Q 319 869 319 1663 
Q 319 2450 753 2931 
Q 1188 3413 1894 3413 
Q 2647 3413 3050 2948 
Q 3453 2484 3469 1600 
z
M 2791 1931 
Q 2772 2513 2545 2808 
Q 2319 3103 1894 3103 
Q 1497 3103 1269 2806 
Q 1041 2509 991 1931 
L 2791 1931 
z
" transform="scale(0.015625)"/>
       <path id="DejaVuSerif-72" d="M 3059 3328 
L 3059 2497 
L 2728 2497 
Q 2713 2744 2591 2866 
Q 2469 2988 2234 2988 
Q 1809 2988 1582 2694 
Q 1356 2400 1356 1850 
L 1356 331 
L 2022 331 
L 2022 0 
L 263 0 
L 263 331 
L 781 331 
L 781 2994 
L 231 2994 
L 231 3322 
L 1356 3322 
L 1356 2731 
Q 1525 3078 1790 3245 
Q 2056 3413 2438 3413 
Q 2578 3413 2733 3391 
Q 2888 3369 3059 3328 
z
" transform="scale(0.015625)"/>
       <path id="DejaVuSerif-76" d="M 1581 0 
L 359 2988 
L -19 2988 
L -19 3322 
L 1509 3322 
L 1509 2988 
L 978 2988 
L 1913 703 
L 2847 2988 
L 2350 2988 
L 2350 3322 
L 3597 3322 
L 3597 2988 
L 3225 2988 
L 2003 0 
L 1581 0 
z
" transform="scale(0.015625)"/>
       <path id="DejaVuSerif-61" d="M 2547 1044 
L 2547 1747 
L 1806 1747 
Q 1378 1747 1168 1562 
Q 959 1378 959 997 
Q 959 650 1171 447 
Q 1384 244 1747 244 
Q 2106 244 2326 466 
Q 2547 688 2547 1044 
z
M 3122 2075 
L 3122 331 
L 3634 331 
L 3634 0 
L 2547 0 
L 2547 359 
Q 2356 128 2106 18 
Q 1856 -91 1522 -91 
Q 969 -91 644 203 
Q 319 497 319 997 
Q 319 1513 691 1797 
Q 1063 2081 1741 2081 
L 2547 2081 
L 2547 2309 
Q 2547 2688 2317 2895 
Q 2088 3103 1672 3103 
Q 1328 3103 1125 2947 
Q 922 2791 872 2484 
L 575 2484 
L 575 3156 
Q 875 3284 1158 3348 
Q 1441 3413 1709 3413 
Q 2400 3413 2761 3070 
Q 3122 2728 3122 2075 
z
" transform="scale(0.015625)"/>
       <path id="DejaVuSerif-64" d="M 3359 331 
L 3909 331 
L 3909 0 
L 2784 0 
L 2784 519 
Q 2616 206 2355 57 
Q 2094 -91 1709 -91 
Q 1097 -91 708 395 
Q 319 881 319 1663 
Q 319 2444 706 2928 
Q 1094 3413 1709 3413 
Q 2094 3413 2355 3264 
Q 2616 3116 2784 2803 
L 2784 4531 
L 2241 4531 
L 2241 4863 
L 3359 4863 
L 3359 331 
z
M 2784 1497 
L 2784 1825 
Q 2784 2422 2554 2737 
Q 2325 3053 1888 3053 
Q 1444 3053 1217 2703 
Q 991 2353 991 1663 
Q 991 975 1217 622 
Q 1444 269 1888 269 
Q 2325 269 2554 583 
Q 2784 897 2784 1497 
z
" transform="scale(0.015625)"/>
       <path id="DejaVuSerif-6f" d="M 1925 219 
Q 2388 219 2623 584 
Q 2859 950 2859 1663 
Q 2859 2375 2623 2739 
Q 2388 3103 1925 3103 
Q 1463 3103 1227 2739 
Q 991 2375 991 1663 
Q 991 950 1228 584 
Q 1466 219 1925 219 
z
M 1925 -91 
Q 1200 -91 759 389 
Q 319 869 319 1663 
Q 319 2456 758 2934 
Q 1197 3413 1925 3413 
Q 2653 3413 3092 2934 
Q 3531 2456 3531 1663 
Q 3531 869 3092 389 
Q 2653 -91 1925 -91 
z
" transform="scale(0.015625)"/>
      </defs>
      <use xlink:href="#DejaVuSerif-4f"/>
      <use xlink:href="#DejaVuSerif-62" transform="translate(81.982422 0)"/>
      <use xlink:href="#DejaVuSerif-73" transform="translate(145.996094 0)"/>
      <use xlink:href="#DejaVuSerif-65" transform="translate(197.314453 0)"/>
      <use xlink:href="#DejaVuSerif-72" transform="translate(256.494141 0)"/>
      <use xlink:href="#DejaVuSerif-76" transform="translate(304.296875 0)"/>
      <use xlink:href="#DejaVuSerif-61" transform="translate(360.791016 0)"/>
      <use xlink:href="#DejaVuSerif-64" transform="translate(420.410156 0)"/>
      <use xlink:href="#DejaVuSerif-6f" transform="translate(484.423828 0)"/>
     </g>
    </g>
   </g>
   <g id="line2d_21">
    <path d="M 62.504659 71.312649 
L 64.734687 45.621914 
L 65.849702 39.763255 
L 68.116897 51.437882 
L 70.42126 63.143359 
L 71.536274 62.244748 
L 72.688455 63.120207 
L 73.803469 65.425287 
L 74.95565 65.726864 
L 76.107832 61.819149 
L 77.148512 52.979924 
L 78.300693 40.564281 
L 79.415707 38.180112 
L 80.567888 43.373326 
L 81.682902 46.213667 
L 83.987265 60.157821 
L 85.102279 64.802919 
L 86.25446 63.09111 
L 88.521656 63.979691 
L 89.673837 59.984616 
L 90.714517 50.580942 
L 91.866698 43.7828 
L 92.981712 39.3148 
L 94.133894 40.624757 
L 95.248908 39.396177 
L 96.401089 48.705327 
L 97.55327 52.193284 
L 98.668285 52.716002 
L 99.820466 50.802069 
L 100.93548 48.282904 
L 102.087661 47.473876 
L 103.239843 48.498368 
L 104.280522 47.905329 
L 105.432704 41.573984 
L 106.547718 43.318955 
L 107.699899 50.247755 
L 108.814913 51.314577 
L 109.967095 52.713684 
L 111.119276 60.008471 
L 112.23429 57.907866 
L 113.386471 54.947077 
L 114.501486 54.893989 
L 115.653667 54.696078 
L 116.805848 56.12004 
L 119.035876 43.142436 
L 120.150891 40.800113 
L 121.303072 44.199114 
L 122.418086 48.153348 
L 123.570267 54.100698 
L 124.722449 56.370732 
L 125.837463 57.223558 
L 128.104658 56.501445 
L 129.256839 55.031917 
L 130.409021 54.701789 
L 131.449701 51.811844 
L 132.601882 43.48545 
L 133.716896 38.497083 
L 134.869077 38.796587 
L 135.984091 41.955378 
L 138.288454 56.93981 
L 139.403468 60.319371 
L 140.555649 58.895209 
L 141.670664 64.743752 
L 142.822845 66.772204 
L 143.975026 61.427735 
L 145.015706 51.783596 
L 146.167887 47.560103 
L 147.282901 41.513473 
L 148.435083 42.297611 
L 149.550097 45.418923 
L 150.702278 51.148736 
L 151.854459 54.713133 
L 152.969474 52.03829 
L 155.236669 50.034529 
L 156.38885 48.225718 
L 157.541032 47.937995 
L 158.581711 47.168253 
L 159.733893 45.704109 
L 160.848907 43.659191 
L 162.001088 47.551542 
L 163.116102 50.309451 
L 164.268284 62.432433 
L 165.420465 67.139336 
L 166.535479 70.843765 
L 167.68766 74.086323 
L 168.802674 75.601102 
L 169.954856 73.388348 
L 171.107037 70.074684 
L 172.184884 60.915127 
L 173.337065 49.305411 
L 174.45208 44.466677 
L 175.604261 44.01296 
L 177.871456 49.446065 
L 180.138652 58.457998 
L 181.290833 61.482331 
L 182.405847 60.632652 
L 183.558028 64.821445 
L 184.71021 60.979039 
L 185.75089 53.203671 
L 186.903071 48.495822 
L 188.018085 39.889812 
L 189.170266 39.554452 
L 190.28528 41.028854 
L 191.437462 44.712994 
L 192.589643 51.201475 
L 193.704657 52.473587 
L 194.856838 53.51152 
L 195.971853 48.452022 
L 197.124034 46.660536 
L 198.276215 46.816957 
L 199.316895 43.036339 
L 200.469076 37.216116 
L 201.58409 35.521606 
L 202.736272 43.034707 
L 205.003467 63.903213 
L 206.155648 68.811839 
L 208.422844 73.485647 
L 209.537858 74.509569 
L 210.690039 75.025733 
L 211.842221 68.45855 
L 212.8829 56.093065 
L 214.035082 49.87692 
L 215.150096 42.715575 
L 216.302277 42.837883 
L 217.417291 45.698682 
L 218.569473 52.952844 
L 219.721654 62.136815 
L 221.988849 67.240487 
L 223.103863 70.190875 
L 224.256045 67.224594 
L 225.408226 61.925439 
L 226.486073 49.50843 
L 228.753268 39.480174 
L 229.90545 41.337309 
L 231.020464 40.881375 
L 234.439841 56.27162 
L 235.592022 58.559868 
L 236.707036 57.147757 
L 237.859217 61.65191 
L 239.011399 60.329709 
L 240.052079 51.604839 
L 241.20426 40.653606 
L 242.319274 40.124654 
L 243.471455 47.287158 
L 244.586469 51.220515 
L 245.738651 58.27722 
L 246.890832 62.174088 
L 248.005846 59.752605 
L 249.158027 60.220908 
L 250.273042 57.579343 
L 251.425223 59.288062 
L 252.577404 58.500493 
L 253.618084 55.3265 
L 254.770265 43.790838 
L 255.885279 38.130666 
L 257.037461 37.838936 
L 258.152475 40.114553 
L 259.304656 49.878126 
L 260.456837 54.099405 
L 261.571852 54.633661 
L 262.724033 53.173981 
L 263.839047 51.97421 
L 264.991228 52.539253 
L 266.14341 52.15723 
L 267.184089 47.221305 
L 268.336271 41.12767 
L 269.451285 34.31067 
L 270.603466 33.830287 
L 271.71848 34.607763 
L 272.870662 37.141186 
L 274.022843 38.243931 
L 275.137857 37.975231 
L 276.290038 36.833721 
L 277.405052 34.370351 
L 278.557234 34.588708 
L 280.787262 32.717642 
L 281.939443 28.590529 
L 283.054457 30.479269 
L 284.206639 40.031133 
L 285.321653 47.984505 
L 286.473834 57.293537 
L 287.626015 60.608202 
L 288.74103 60.905851 
L 289.893211 62.345833 
L 291.008225 62.680401 
L 292.160406 62.293704 
L 293.312588 56.886577 
L 294.353268 44.780013 
L 295.505449 38.313141 
L 296.620463 34.236419 
L 297.772644 37.427405 
L 298.887658 43.4133 
L 300.03984 50.402926 
L 301.192021 59.63307 
L 302.307035 63.566717 
L 303.459216 63.464593 
L 304.574231 68.002222 
L 305.726412 69.75731 
L 306.878593 65.877121 
L 309.071454 50.28039 
L 310.186468 44.922793 
L 311.33865 43.67001 
L 312.453664 43.143479 
L 313.605845 49.147929 
L 314.758026 57.239434 
L 315.873041 56.31028 
L 317.025222 53.040306 
L 318.140236 51.865267 
L 319.292417 52.664344 
L 320.444599 51.134478 
L 321.485278 45.325938 
L 322.63746 36.502241 
L 323.752474 33.821799 
L 324.904655 36.129214 
L 326.019669 42.024623 
L 327.171851 51.947074 
L 328.324032 60.626098 
L 329.439046 62.935057 
L 330.591227 56.34549 
L 331.706241 56.276698 
L 332.858423 57.132373 
L 334.010604 54.188093 
L 335.088451 50.29735 
L 336.240632 41.564856 
L 337.355646 36.327852 
L 339.622842 52.871428 
L 340.775023 56.223547 
L 341.927204 63.883696 
L 343.042219 68.698759 
L 344.1944 71.621162 
L 345.309414 71.006843 
L 346.461595 67.612156 
L 347.613777 62.067234 
L 348.654456 53.406176 
L 349.806638 46.036442 
L 350.921652 46.210933 
L 352.073833 45.367618 
L 353.188847 46.015381 
L 355.49321 60.933924 
L 356.608224 62.902791 
L 357.760405 66.668107 
L 358.87542 66.493765 
L 360.027601 67.243395 
L 361.179782 66.163915 
L 362.220462 59.649397 
L 363.372643 50.692927 
L 364.487657 48.22619 
L 365.639839 50.812035 
L 366.754853 50.319903 
L 367.907034 55.11509 
L 369.059215 63.460599 
L 370.17423 66.970349 
L 371.326411 65.455481 
L 372.441425 66.409361 
L 373.593606 64.89551 
L 374.745788 60.384173 
L 375.786467 51.475032 
L 376.938649 38.991559 
L 378.053663 35.644349 
L 379.205844 33.662554 
L 380.320858 33.813653 
L 381.47304 37.848114 
L 382.625221 40.451774 
L 384.892416 41.059567 
L 386.00743 39.931401 
L 387.159612 39.561749 
L 388.311793 38.113491 
L 389.38964 35.624736 
L 390.541821 32.267318 
L 391.656835 32.638601 
L 392.809017 43.098857 
L 393.924031 47.63658 
L 396.228393 60.520693 
L 397.343408 61.753711 
L 398.495589 63.588525 
L 399.610603 60.373934 
L 400.762784 64.503898 
L 401.914966 59.169541 
L 404.107827 36.429314 
L 405.222841 36.654722 
L 405.222841 36.654722 
" clip-path="url(#p1bad2ca95e)" style="fill: none; stroke: #4596f3; stroke-width: 0.5; stroke-linecap: square"/>
   </g>
   <g id="patch_3">
    <path d="M 45.36875 77.95163 
L 45.36875 26.24 
" style="fill: none; stroke: #000000; stroke-width: 0.8; stroke-linejoin: miter; stroke-linecap: square"/>
   </g>
   <g id="patch_4">
    <path d="M 45.36875 77.95163 
L 422.35875 77.95163 
" style="fill: none; stroke: #000000; stroke-width: 0.8; stroke-linejoin: miter; stroke-linecap: square"/>
   </g>
  </g>
  <g id="axes_2">
   <g id="patch_5">
    <path d="M 45.36875 142.487754 
L 422.35875 142.487754 
L 422.35875 90.776123 
L 45.36875 90.776123 
z
" style="fill: #ffffff"/>
   </g>
   <g id="matplotlib.axis_3">
    <g id="xtick_8">
     <g id="line2d_22">
      <path d="M 61.389645 142.487754 
L 61.389645 90.776123 
" clip-path="url(#pcfeecc69e8)" style="fill: none; stroke-dasharray: 2.96,1.28; stroke-dashoffset: 0; stroke: #b0b0b0; stroke-opacity: 0.5; stroke-width: 0.8"/>
     </g>
     <g id="line2d_23">
      <g>
       <use xlink:href="#m019677cfa8" x="61.389645" y="142.487754" style="stroke: #000000; stroke-width: 0.8"/>
      </g>
     </g>
    </g>
    <g id="xtick_9">
     <g id="line2d_24">
      <path d="M 115.690834 142.487754 
L 115.690834 90.776123 
" clip-path="url(#pcfeecc69e8)" style="fill: none; stroke-dasharray: 2.96,1.28; stroke-dashoffset: 0; stroke: #b0b0b0; stroke-opacity: 0.5; stroke-width: 0.8"/>
     </g>
     <g id="line2d_25">
      <g>
       <use xlink:href="#m019677cfa8" x="115.690834" y="142.487754" style="stroke: #000000; stroke-width: 0.8"/>
      </g>
     </g>
    </g>
    <g id="xtick_10">
     <g id="line2d_26">
      <path d="M 169.992023 142.487754 
L 169.992023 90.776123 
" clip-path="url(#pcfeecc69e8)" style="fill: none; stroke-dasharray: 2.96,1.28; stroke-dashoffset: 0; stroke: #b0b0b0; stroke-opacity: 0.5; stroke-width: 0.8"/>
     </g>
     <g id="line2d_27">
      <g>
       <use xlink:href="#m019677cfa8" x="169.992023" y="142.487754" style="stroke: #000000; stroke-width: 0.8"/>
      </g>
     </g>
    </g>
    <g id="xtick_11">
     <g id="line2d_28">
      <path d="M 224.293212 142.487754 
L 224.293212 90.776123 
" clip-path="url(#pcfeecc69e8)" style="fill: none; stroke-dasharray: 2.96,1.28; stroke-dashoffset: 0; stroke: #b0b0b0; stroke-opacity: 0.5; stroke-width: 0.8"/>
     </g>
     <g id="line2d_29">
      <g>
       <use xlink:href="#m019677cfa8" x="224.293212" y="142.487754" style="stroke: #000000; stroke-width: 0.8"/>
      </g>
     </g>
    </g>
    <g id="xtick_12">
     <g id="line2d_30">
      <path d="M 278.594401 142.487754 
L 278.594401 90.776123 
" clip-path="url(#pcfeecc69e8)" style="fill: none; stroke-dasharray: 2.96,1.28; stroke-dashoffset: 0; stroke: #b0b0b0; stroke-opacity: 0.5; stroke-width: 0.8"/>
     </g>
     <g id="line2d_31">
      <g>
       <use xlink:href="#m019677cfa8" x="278.594401" y="142.487754" style="stroke: #000000; stroke-width: 0.8"/>
      </g>
     </g>
    </g>
    <g id="xtick_13">
     <g id="line2d_32">
      <path d="M 332.89559 142.487754 
L 332.89559 90.776123 
" clip-path="url(#pcfeecc69e8)" style="fill: none; stroke-dasharray: 2.96,1.28; stroke-dashoffset: 0; stroke: #b0b0b0; stroke-opacity: 0.5; stroke-width: 0.8"/>
     </g>
     <g id="line2d_33">
      <g>
       <use xlink:href="#m019677cfa8" x="332.89559" y="142.487754" style="stroke: #000000; stroke-width: 0.8"/>
      </g>
     </g>
    </g>
    <g id="xtick_14">
     <g id="line2d_34">
      <path d="M 387.196779 142.487754 
L 387.196779 90.776123 
" clip-path="url(#pcfeecc69e8)" style="fill: none; stroke-dasharray: 2.96,1.28; stroke-dashoffset: 0; stroke: #b0b0b0; stroke-opacity: 0.5; stroke-width: 0.8"/>
     </g>
     <g id="line2d_35">
      <g>
       <use xlink:href="#m019677cfa8" x="387.196779" y="142.487754" style="stroke: #000000; stroke-width: 0.8"/>
      </g>
     </g>
    </g>
   </g>
   <g id="matplotlib.axis_4">
    <g id="ytick_4">
     <g id="line2d_36">
      <path d="M 45.36875 141.015899 
L 422.35875 141.015899 
" clip-path="url(#pcfeecc69e8)" style="fill: none; stroke-dasharray: 2.96,1.28; stroke-dashoffset: 0; stroke: #b0b0b0; stroke-opacity: 0.5; stroke-width: 0.8"/>
     </g>
     <g id="line2d_37">
      <g>
       <use xlink:href="#md0f628f81b" x="45.36875" y="141.015899" style="stroke: #000000; stroke-width: 0.8"/>
      </g>
     </g>
     <g id="text_5">
      <!-- −1 -->
      <g transform="translate(26.575 144.055274) scale(0.08 -0.08)">
       <defs>
        <path id="DejaVuSerif-31" d="M 909 0 
L 909 331 
L 1722 331 
L 1722 4213 
L 781 3603 
L 781 4013 
L 1919 4750 
L 2350 4750 
L 2350 331 
L 3163 331 
L 3163 0 
L 909 0 
z
" transform="scale(0.015625)"/>
       </defs>
       <use xlink:href="#DejaVuSerif-2212"/>
       <use xlink:href="#DejaVuSerif-31" transform="translate(83.789062 0)"/>
      </g>
     </g>
    </g>
    <g id="ytick_5">
     <g id="line2d_38">
      <path d="M 45.36875 122.492 
L 422.35875 122.492 
" clip-path="url(#pcfeecc69e8)" style="fill: none; stroke-dasharray: 2.96,1.28; stroke-dashoffset: 0; stroke: #b0b0b0; stroke-opacity: 0.5; stroke-width: 0.8"/>
     </g>
     <g id="line2d_39">
      <g>
       <use xlink:href="#md0f628f81b" x="45.36875" y="122.492" style="stroke: #000000; stroke-width: 0.8"/>
      </g>
     </g>
     <g id="text_6">
      <!-- 0 -->
      <g transform="translate(33.27875 125.531375) scale(0.08 -0.08)">
       <use xlink:href="#DejaVuSerif-30"/>
      </g>
     </g>
    </g>
    <g id="ytick_6">
     <g id="line2d_40">
      <path d="M 45.36875 103.9681 
L 422.35875 103.9681 
" clip-path="url(#pcfeecc69e8)" style="fill: none; stroke-dasharray: 2.96,1.28; stroke-dashoffset: 0; stroke: #b0b0b0; stroke-opacity: 0.5; stroke-width: 0.8"/>
     </g>
     <g id="line2d_41">
      <g>
       <use xlink:href="#md0f628f81b" x="45.36875" y="103.9681" style="stroke: #000000; stroke-width: 0.8"/>
      </g>
     </g>
     <g id="text_7">
      <!-- 1 -->
      <g transform="translate(33.27875 107.007475) scale(0.08 -0.08)">
       <use xlink:href="#DejaVuSerif-31"/>
      </g>
     </g>
    </g>
    <g id="text_8">
     <!-- Tendência -->
     <g transform="translate(20.91125 137.342563) rotate(-90) scale(0.08 -0.08)">
      <defs>
       <path id="DejaVuSerif-54" d="M 1222 0 
L 1222 331 
L 1819 331 
L 1819 4294 
L 447 4294 
L 447 3566 
L 63 3566 
L 63 4666 
L 4206 4666 
L 4206 3566 
L 3822 3566 
L 3822 4294 
L 2450 4294 
L 2450 331 
L 3047 331 
L 3047 0 
L 1222 0 
z
" transform="scale(0.015625)"/>
       <path id="DejaVuSerif-6e" d="M 263 0 
L 263 331 
L 781 331 
L 781 2988 
L 231 2988 
L 231 3322 
L 1356 3322 
L 1356 2731 
Q 1516 3069 1770 3241 
Q 2025 3413 2363 3413 
Q 2913 3413 3172 3097 
Q 3431 2781 3431 2113 
L 3431 331 
L 3944 331 
L 3944 0 
L 2356 0 
L 2356 331 
L 2853 331 
L 2853 1931 
Q 2853 2541 2703 2767 
Q 2553 2994 2175 2994 
Q 1775 2994 1565 2701 
Q 1356 2409 1356 1850 
L 1356 331 
L 1856 331 
L 1856 0 
L 263 0 
z
" transform="scale(0.015625)"/>
       <path id="DejaVuSerif-ea" d="M 3469 1600 
L 991 1600 
L 991 1575 
Q 991 903 1244 561 
Q 1497 219 1991 219 
Q 2369 219 2611 417 
Q 2853 616 2950 1006 
L 3413 1006 
Q 3275 459 2904 184 
Q 2534 -91 1931 -91 
Q 1203 -91 761 389 
Q 319 869 319 1663 
Q 319 2450 753 2931 
Q 1188 3413 1894 3413 
Q 2647 3413 3050 2948 
Q 3453 2484 3469 1600 
z
M 2791 1931 
Q 2772 2513 2545 2808 
Q 2319 3103 1894 3103 
Q 1497 3103 1269 2806 
Q 1041 2509 991 1931 
L 2791 1931 
z
M 1634 5119 
L 2159 5119 
L 2893 3944 
L 2530 3944 
L 1896 4756 
L 1262 3944 
L 899 3944 
L 1634 5119 
z
" transform="scale(0.015625)"/>
       <path id="DejaVuSerif-63" d="M 3291 997 
Q 3169 466 2822 187 
Q 2475 -91 1925 -91 
Q 1200 -91 759 389 
Q 319 869 319 1663 
Q 319 2459 759 2936 
Q 1200 3413 1925 3413 
Q 2241 3413 2553 3339 
Q 2866 3266 3181 3116 
L 3181 2266 
L 2847 2266 
Q 2781 2703 2561 2903 
Q 2341 3103 1931 3103 
Q 1466 3103 1228 2742 
Q 991 2381 991 1663 
Q 991 944 1227 581 
Q 1463 219 1931 219 
Q 2303 219 2525 412 
Q 2747 606 2828 997 
L 3291 997 
z
" transform="scale(0.015625)"/>
       <path id="DejaVuSerif-69" d="M 622 4353 
Q 622 4497 726 4603 
Q 831 4709 978 4709 
Q 1122 4709 1226 4603 
Q 1331 4497 1331 4353 
Q 1331 4206 1228 4103 
Q 1125 4000 978 4000 
Q 831 4000 726 4103 
Q 622 4206 622 4353 
z
M 1356 331 
L 1900 331 
L 1900 0 
L 231 0 
L 231 331 
L 781 331 
L 781 2988 
L 231 2988 
L 231 3322 
L 1356 3322 
L 1356 331 
z
" transform="scale(0.015625)"/>
      </defs>
      <use xlink:href="#DejaVuSerif-54"/>
      <use xlink:href="#DejaVuSerif-65" transform="translate(58.949219 0)"/>
      <use xlink:href="#DejaVuSerif-6e" transform="translate(118.128906 0)"/>
      <use xlink:href="#DejaVuSerif-64" transform="translate(182.533203 0)"/>
      <use xlink:href="#DejaVuSerif-ea" transform="translate(246.546875 0)"/>
      <use xlink:href="#DejaVuSerif-6e" transform="translate(305.726562 0)"/>
      <use xlink:href="#DejaVuSerif-63" transform="translate(370.130859 0)"/>
      <use xlink:href="#DejaVuSerif-69" transform="translate(426.136719 0)"/>
      <use xlink:href="#DejaVuSerif-61" transform="translate(458.119141 0)"/>
     </g>
    </g>
   </g>
   <g id="line2d_42">
    <path d="M 62.504659 135.6818 
L 65.849702 133.652256 
L 70.42126 130.822866 
L 72.688455 129.408944 
L 76.107832 127.853641 
L 77.148512 127.486116 
L 79.415707 127.113361 
L 85.102279 126.700123 
L 86.25446 126.535801 
L 87.369475 126.19305 
L 88.521656 125.620261 
L 89.673837 124.784923 
L 90.714517 123.669507 
L 91.866698 122.257541 
L 94.133894 118.728335 
L 95.248908 116.927809 
L 96.401089 115.394949 
L 97.55327 114.323418 
L 98.668285 113.840634 
L 99.820466 113.943761 
L 100.93548 114.504882 
L 102.087661 115.393558 
L 107.699899 120.607368 
L 108.814913 121.484756 
L 109.967095 122.222852 
L 111.119276 122.71774 
L 112.23429 122.89933 
L 113.386471 122.791957 
L 117.883695 121.617896 
L 120.150891 121.617226 
L 124.722449 121.918763 
L 125.837463 121.753918 
L 126.989644 121.414877 
L 130.409021 120.050334 
L 131.449701 119.842157 
L 132.601882 119.944095 
L 133.716896 120.406886 
L 134.869077 121.149843 
L 138.288454 123.68984 
L 139.403468 124.376969 
L 141.670664 125.450635 
L 142.822845 125.829117 
L 143.975026 125.962563 
L 145.015706 125.700803 
L 146.167887 124.94395 
L 147.282901 123.688138 
L 148.435083 122.041928 
L 150.702278 118.54223 
L 151.854459 117.237782 
L 152.969474 116.50081 
L 154.121655 116.35823 
L 155.236669 116.765908 
L 156.38885 117.679698 
L 157.541032 119.091593 
L 158.581711 121.002912 
L 159.733893 123.413944 
L 162.001088 129.392058 
L 163.116102 132.542357 
L 164.268284 135.396518 
L 165.420465 137.700517 
L 166.535479 139.284405 
L 167.68766 140.086419 
L 168.802674 140.137225 
L 169.954856 139.531509 
L 171.107037 138.395037 
L 173.337065 135.040662 
L 175.604261 131.222723 
L 176.719275 129.51517 
L 177.871456 128.090938 
L 179.023638 126.986704 
L 180.138652 126.163762 
L 182.405847 124.988282 
L 184.71021 123.822995 
L 185.75089 123.092507 
L 186.903071 122.141146 
L 188.018085 120.859112 
L 189.170266 119.226075 
L 192.589643 113.696252 
L 193.704657 112.348752 
L 194.856838 111.663813 
L 195.971853 111.804211 
L 197.124034 112.795492 
L 198.276215 114.550239 
L 200.469076 119.753497 
L 205.003467 132.711783 
L 206.155648 135.355154 
L 207.270663 137.316737 
L 208.422844 138.486691 
L 209.537858 138.887436 
L 210.690039 138.634452 
L 211.842221 137.884586 
L 214.035082 135.76036 
L 216.302277 133.859947 
L 219.721654 131.263894 
L 224.256045 128.281271 
L 225.408226 127.291301 
L 231.020464 121.492086 
L 232.172645 120.813365 
L 233.324826 120.420447 
L 234.439841 120.365506 
L 235.592022 120.655367 
L 236.707036 121.271074 
L 237.859217 122.165591 
L 241.20426 125.332008 
L 242.319274 126.000228 
L 243.471455 126.380152 
L 245.738651 126.695266 
L 246.890832 126.701192 
L 248.005846 126.529228 
L 249.158027 126.110438 
L 250.273042 125.411422 
L 251.425223 124.446037 
L 257.037461 119.027427 
L 259.304656 117.258304 
L 263.839047 113.996049 
L 264.991228 112.912612 
L 266.14341 111.503811 
L 268.336271 107.596078 
L 274.022843 95.515121 
L 275.137857 93.924862 
L 276.290038 93.126652 
L 277.405052 93.296057 
L 278.557234 94.456806 
L 279.709415 96.501543 
L 280.787262 99.264261 
L 281.939443 102.572463 
L 285.321653 113.621724 
L 286.473834 116.827909 
L 287.626015 119.418535 
L 288.74103 121.249888 
L 289.893211 122.299434 
L 291.008225 122.665961 
L 292.160406 122.547525 
L 294.353268 121.799949 
L 295.505449 121.624728 
L 296.620463 121.791955 
L 297.772644 122.338601 
L 298.887658 123.239979 
L 300.03984 124.468018 
L 303.459216 129.028108 
L 304.574231 130.156392 
L 305.726412 130.823807 
L 306.878593 130.985604 
L 307.919273 130.604259 
L 309.071454 129.664876 
L 310.186468 128.210426 
L 311.33865 126.346961 
L 314.758026 119.903647 
L 315.873041 118.014233 
L 317.025222 116.478553 
L 318.140236 115.395505 
L 319.292417 114.833353 
L 320.444599 114.781088 
L 321.485278 115.100439 
L 323.752474 116.192695 
L 329.439046 119.251662 
L 330.591227 119.974342 
L 332.858423 121.738216 
L 334.010604 122.727505 
L 336.240632 125.099875 
L 340.775023 131.077855 
L 341.927204 132.259236 
L 343.042219 133.150876 
L 344.1944 133.717039 
L 345.309414 133.949494 
L 346.461595 133.857986 
L 347.613777 133.465099 
L 350.921652 131.665239 
L 352.073833 131.249653 
L 353.188847 131.075865 
L 354.341029 131.21071 
L 355.49321 131.645301 
L 360.027601 134.079077 
L 362.220462 134.968118 
L 363.372643 135.24774 
L 364.487657 135.348535 
L 365.639839 135.23703 
L 366.754853 134.870242 
L 367.907034 134.207234 
L 369.059215 133.224888 
L 370.17423 131.873397 
L 371.326411 130.138879 
L 372.441425 128.047018 
L 373.593606 125.615574 
L 374.745788 122.851191 
L 378.053663 112.783994 
L 380.320858 105.588031 
L 381.47304 102.496234 
L 382.625221 100.060113 
L 383.740235 98.465872 
L 384.892416 97.821687 
L 386.00743 98.152117 
L 387.159612 99.388097 
L 388.311793 101.377152 
L 390.541821 106.846853 
L 393.924031 116.331031 
L 395.076212 118.117732 
L 398.495589 122.323305 
L 400.762784 124.780907 
L 402.955645 126.881092 
L 405.222841 128.57223 
L 405.222841 128.57223 
" clip-path="url(#pcfeecc69e8)" style="fill: none; stroke: #ff5656; stroke-width: 0.5; stroke-linecap: square"/>
   </g>
   <g id="patch_6">
    <path d="M 45.36875 142.487754 
L 45.36875 90.776123 
" style="fill: none; stroke: #000000; stroke-width: 0.8; stroke-linejoin: miter; stroke-linecap: square"/>
   </g>
   <g id="patch_7">
    <path d="M 45.36875 142.487754 
L 422.35875 142.487754 
" style="fill: none; stroke: #000000; stroke-width: 0.8; stroke-linejoin: miter; stroke-linecap: square"/>
   </g>
  </g>
  <g id="axes_3">
   <g id="patch_8">
    <path d="M 45.36875 207.023877 
L 422.35875 207.023877 
L 422.35875 155.312246 
L 45.36875 155.312246 
z
" style="fill: #ffffff"/>
   </g>
   <g id="matplotlib.axis_5">
    <g id="xtick_15">
     <g id="line2d_43">
      <path d="M 61.389645 207.023877 
L 61.389645 155.312246 
" clip-path="url(#p44cd6c4534)" style="fill: none; stroke-dasharray: 2.96,1.28; stroke-dashoffset: 0; stroke: #b0b0b0; stroke-opacity: 0.5; stroke-width: 0.8"/>
     </g>
     <g id="line2d_44">
      <g>
       <use xlink:href="#m019677cfa8" x="61.389645" y="207.023877" style="stroke: #000000; stroke-width: 0.8"/>
      </g>
     </g>
    </g>
    <g id="xtick_16">
     <g id="line2d_45">
      <path d="M 115.690834 207.023877 
L 115.690834 155.312246 
" clip-path="url(#p44cd6c4534)" style="fill: none; stroke-dasharray: 2.96,1.28; stroke-dashoffset: 0; stroke: #b0b0b0; stroke-opacity: 0.5; stroke-width: 0.8"/>
     </g>
     <g id="line2d_46">
      <g>
       <use xlink:href="#m019677cfa8" x="115.690834" y="207.023877" style="stroke: #000000; stroke-width: 0.8"/>
      </g>
     </g>
    </g>
    <g id="xtick_17">
     <g id="line2d_47">
      <path d="M 169.992023 207.023877 
L 169.992023 155.312246 
" clip-path="url(#p44cd6c4534)" style="fill: none; stroke-dasharray: 2.96,1.28; stroke-dashoffset: 0; stroke: #b0b0b0; stroke-opacity: 0.5; stroke-width: 0.8"/>
     </g>
     <g id="line2d_48">
      <g>
       <use xlink:href="#m019677cfa8" x="169.992023" y="207.023877" style="stroke: #000000; stroke-width: 0.8"/>
      </g>
     </g>
    </g>
    <g id="xtick_18">
     <g id="line2d_49">
      <path d="M 224.293212 207.023877 
L 224.293212 155.312246 
" clip-path="url(#p44cd6c4534)" style="fill: none; stroke-dasharray: 2.96,1.28; stroke-dashoffset: 0; stroke: #b0b0b0; stroke-opacity: 0.5; stroke-width: 0.8"/>
     </g>
     <g id="line2d_50">
      <g>
       <use xlink:href="#m019677cfa8" x="224.293212" y="207.023877" style="stroke: #000000; stroke-width: 0.8"/>
      </g>
     </g>
    </g>
    <g id="xtick_19">
     <g id="line2d_51">
      <path d="M 278.594401 207.023877 
L 278.594401 155.312246 
" clip-path="url(#p44cd6c4534)" style="fill: none; stroke-dasharray: 2.96,1.28; stroke-dashoffset: 0; stroke: #b0b0b0; stroke-opacity: 0.5; stroke-width: 0.8"/>
     </g>
     <g id="line2d_52">
      <g>
       <use xlink:href="#m019677cfa8" x="278.594401" y="207.023877" style="stroke: #000000; stroke-width: 0.8"/>
      </g>
     </g>
    </g>
    <g id="xtick_20">
     <g id="line2d_53">
      <path d="M 332.89559 207.023877 
L 332.89559 155.312246 
" clip-path="url(#p44cd6c4534)" style="fill: none; stroke-dasharray: 2.96,1.28; stroke-dashoffset: 0; stroke: #b0b0b0; stroke-opacity: 0.5; stroke-width: 0.8"/>
     </g>
     <g id="line2d_54">
      <g>
       <use xlink:href="#m019677cfa8" x="332.89559" y="207.023877" style="stroke: #000000; stroke-width: 0.8"/>
      </g>
     </g>
    </g>
    <g id="xtick_21">
     <g id="line2d_55">
      <path d="M 387.196779 207.023877 
L 387.196779 155.312246 
" clip-path="url(#p44cd6c4534)" style="fill: none; stroke-dasharray: 2.96,1.28; stroke-dashoffset: 0; stroke: #b0b0b0; stroke-opacity: 0.5; stroke-width: 0.8"/>
     </g>
     <g id="line2d_56">
      <g>
       <use xlink:href="#m019677cfa8" x="387.196779" y="207.023877" style="stroke: #000000; stroke-width: 0.8"/>
      </g>
     </g>
    </g>
   </g>
   <g id="matplotlib.axis_6">
    <g id="ytick_7">
     <g id="line2d_57">
      <path d="M 45.36875 206.878523 
L 422.35875 206.878523 
" clip-path="url(#p44cd6c4534)" style="fill: none; stroke-dasharray: 2.96,1.28; stroke-dashoffset: 0; stroke: #b0b0b0; stroke-opacity: 0.5; stroke-width: 0.8"/>
     </g>
     <g id="line2d_58">
      <g>
       <use xlink:href="#md0f628f81b" x="45.36875" y="206.878523" style="stroke: #000000; stroke-width: 0.8"/>
      </g>
     </g>
     <g id="text_9">
      <!-- −1 -->
      <g transform="translate(26.575 209.917898) scale(0.08 -0.08)">
       <use xlink:href="#DejaVuSerif-2212"/>
       <use xlink:href="#DejaVuSerif-31" transform="translate(83.789062 0)"/>
      </g>
     </g>
    </g>
    <g id="ytick_8">
     <g id="line2d_59">
      <path d="M 45.36875 187.037089 
L 422.35875 187.037089 
" clip-path="url(#p44cd6c4534)" style="fill: none; stroke-dasharray: 2.96,1.28; stroke-dashoffset: 0; stroke: #b0b0b0; stroke-opacity: 0.5; stroke-width: 0.8"/>
     </g>
     <g id="line2d_60">
      <g>
       <use xlink:href="#md0f628f81b" x="45.36875" y="187.037089" style="stroke: #000000; stroke-width: 0.8"/>
      </g>
     </g>
     <g id="text_10">
      <!-- 0 -->
      <g transform="translate(33.27875 190.076464) scale(0.08 -0.08)">
       <use xlink:href="#DejaVuSerif-30"/>
      </g>
     </g>
    </g>
    <g id="ytick_9">
     <g id="line2d_61">
      <path d="M 45.36875 167.195655 
L 422.35875 167.195655 
" clip-path="url(#p44cd6c4534)" style="fill: none; stroke-dasharray: 2.96,1.28; stroke-dashoffset: 0; stroke: #b0b0b0; stroke-opacity: 0.5; stroke-width: 0.8"/>
     </g>
     <g id="line2d_62">
      <g>
       <use xlink:href="#md0f628f81b" x="45.36875" y="167.195655" style="stroke: #000000; stroke-width: 0.8"/>
      </g>
     </g>
     <g id="text_11">
      <!-- 1 -->
      <g transform="translate(33.27875 170.23503) scale(0.08 -0.08)">
       <use xlink:href="#DejaVuSerif-31"/>
      </g>
     </g>
    </g>
    <g id="text_12">
     <!-- Sazonalidade -->
     <g transform="translate(20.91125 208.202437) rotate(-90) scale(0.08 -0.08)">
      <defs>
       <path id="DejaVuSerif-53" d="M 594 225 
L 594 1288 
L 953 1284 
Q 969 753 1261 498 
Q 1553 244 2150 244 
Q 2706 244 2998 464 
Q 3291 684 3291 1106 
Q 3291 1444 3114 1625 
Q 2938 1806 2369 1978 
L 1753 2163 
Q 1084 2366 811 2669 
Q 538 2972 538 3500 
Q 538 4094 959 4422 
Q 1381 4750 2144 4750 
Q 2469 4750 2856 4679 
Q 3244 4609 3681 4475 
L 3681 3481 
L 3328 3481 
Q 3275 3975 2998 4195 
Q 2722 4416 2156 4416 
Q 1663 4416 1405 4214 
Q 1147 4013 1147 3628 
Q 1147 3294 1340 3103 
Q 1534 2913 2163 2725 
L 2741 2553 
Q 3375 2363 3645 2067 
Q 3916 1772 3916 1275 
Q 3916 597 3481 253 
Q 3047 -91 2188 -91 
Q 1803 -91 1404 -12 
Q 1006 66 594 225 
z
" transform="scale(0.015625)"/>
       <path id="DejaVuSerif-7a" d="M 256 0 
L 256 269 
L 2338 2988 
L 691 2988 
L 691 2413 
L 359 2413 
L 359 3322 
L 3078 3322 
L 3078 3053 
L 997 331 
L 2803 331 
L 2803 934 
L 3138 934 
L 3138 0 
L 256 0 
z
" transform="scale(0.015625)"/>
       <path id="DejaVuSerif-6c" d="M 1313 331 
L 1856 331 
L 1856 0 
L 184 0 
L 184 331 
L 738 331 
L 738 4531 
L 184 4531 
L 184 4863 
L 1313 4863 
L 1313 331 
z
" transform="scale(0.015625)"/>
      </defs>
      <use xlink:href="#DejaVuSerif-53"/>
      <use xlink:href="#DejaVuSerif-61" transform="translate(68.505859 0)"/>
      <use xlink:href="#DejaVuSerif-7a" transform="translate(128.125 0)"/>
      <use xlink:href="#DejaVuSerif-6f" transform="translate(180.810547 0)"/>
      <use xlink:href="#DejaVuSerif-6e" transform="translate(241.015625 0)"/>
      <use xlink:href="#DejaVuSerif-61" transform="translate(305.419922 0)"/>
      <use xlink:href="#DejaVuSerif-6c" transform="translate(365.039062 0)"/>
      <use xlink:href="#DejaVuSerif-69" transform="translate(397.021484 0)"/>
      <use xlink:href="#DejaVuSerif-64" transform="translate(429.003906 0)"/>
      <use xlink:href="#DejaVuSerif-61" transform="translate(493.017578 0)"/>
      <use xlink:href="#DejaVuSerif-64" transform="translate(552.636719 0)"/>
      <use xlink:href="#DejaVuSerif-65" transform="translate(616.650391 0)"/>
     </g>
    </g>
   </g>
   <g id="line2d_63">
    <path d="M 62.504659 203.728022 
L 64.734687 163.4494 
L 65.849702 157.662775 
L 67.001883 168.70382 
L 68.116897 175.270771 
L 70.42126 199.557313 
L 71.536274 201.445634 
L 72.688455 199.337826 
L 73.803469 200.463114 
L 74.95565 200.901245 
L 76.107832 201.674933 
L 78.300693 165.518563 
L 79.415707 159.753463 
L 80.567888 169.449937 
L 81.682902 175.494914 
L 83.987265 199.089316 
L 85.102279 200.883983 
L 86.25446 198.80585 
L 87.369475 199.955182 
L 88.521656 200.119916 
L 89.673837 199.796659 
L 91.866698 167.458787 
L 92.981712 161.605841 
L 94.133894 169.95832 
L 95.248908 175.558731 
L 96.401089 187.766891 
L 97.55327 198.583569 
L 98.668285 200.383746 
L 99.820466 198.45499 
L 100.93548 199.638915 
L 102.087661 199.564273 
L 103.239843 198.027207 
L 105.432704 169.314311 
L 106.547718 163.32543 
L 107.699899 170.339489 
L 108.814913 175.483929 
L 109.967095 187.77191 
L 111.119276 198.041069 
L 112.23429 199.926857 
L 113.386471 198.230767 
L 114.501486 199.369416 
L 115.653667 199.07149 
L 116.805848 196.271864 
L 117.883695 184.771474 
L 119.035876 171.124648 
L 120.150891 165.033378 
L 121.303072 170.767306 
L 122.418086 175.424689 
L 123.570267 187.741831 
L 124.722449 197.478126 
L 125.837463 199.435238 
L 126.989644 198.036245 
L 128.104658 199.033627 
L 129.256839 198.526855 
L 130.409021 194.896717 
L 132.601882 172.772816 
L 133.716896 166.358268 
L 135.984091 175.54633 
L 137.136273 187.694411 
L 138.288454 196.917217 
L 139.403468 198.81297 
L 140.555649 198.076696 
L 141.670664 199.221159 
L 142.822845 198.635998 
L 143.975026 195.533731 
L 146.167887 173.358371 
L 147.282901 165.768218 
L 148.435083 169.460361 
L 149.550097 174.817169 
L 150.702278 186.906808 
L 151.854459 196.225912 
L 152.969474 198.973884 
L 154.121655 199.618234 
L 155.236669 200.43757 
L 156.38885 200.150128 
L 157.541032 196.127844 
L 159.733893 173.140029 
L 160.848907 164.345359 
L 162.001088 167.609733 
L 163.116102 173.942758 
L 164.268284 186.572435 
L 165.420465 196.155032 
L 166.535479 199.658054 
L 167.68766 201.504125 
L 168.802674 201.787834 
L 169.954856 201.544705 
L 171.107037 196.395812 
L 172.184884 183.769341 
L 173.337065 172.366134 
L 174.45208 162.922905 
L 175.604261 166.27344 
L 176.719275 173.120674 
L 177.871456 186.138223 
L 179.023638 196.342115 
L 180.138652 200.406785 
L 181.290833 203.320464 
L 182.405847 203.201955 
L 183.558028 202.878765 
L 184.71021 196.966755 
L 185.75089 182.729521 
L 186.903071 171.213062 
L 188.018085 161.817407 
L 189.170266 165.684301 
L 190.28528 172.517647 
L 191.437462 185.391942 
L 192.589643 196.11557 
L 193.704657 200.78054 
L 194.856838 204.548894 
L 195.971853 203.902945 
L 197.124034 204.032336 
L 198.276215 197.974638 
L 199.316895 182.500456 
L 200.469076 169.997511 
L 201.58409 160.994091 
L 202.736272 165.589974 
L 203.851286 172.327105 
L 205.003467 185.027502 
L 206.155648 196.054275 
L 207.270663 200.776087 
L 208.422844 204.673348 
L 209.537858 203.547657 
L 210.690039 204.521045 
L 211.842221 198.777715 
L 212.8829 183.042738 
L 214.035082 169.421566 
L 215.150096 160.739044 
L 216.302277 165.851932 
L 217.417291 172.604038 
L 218.569473 185.57073 
L 219.721654 196.484594 
L 220.836668 200.466949 
L 221.988849 203.668172 
L 223.103863 202.233048 
L 224.256045 203.696756 
L 225.408226 198.61048 
L 226.486073 183.696611 
L 227.638254 169.686511 
L 228.753268 161.394339 
L 229.90545 166.798405 
L 231.020464 173.339755 
L 232.172645 186.738018 
L 233.324826 196.931215 
L 234.439841 199.987053 
L 235.592022 202.3043 
L 236.707036 200.874644 
L 237.859217 202.329151 
L 239.011399 197.776784 
L 241.20426 169.815396 
L 242.319274 162.307444 
L 243.471455 168.108474 
L 244.586469 174.407662 
L 245.738651 187.853135 
L 246.890832 197.095225 
L 248.005846 199.513895 
L 249.158027 201.122634 
L 250.273042 199.910273 
L 251.425223 201.543095 
L 252.577404 197.174243 
L 254.770265 169.840848 
L 255.885279 162.986601 
L 258.152475 175.284913 
L 259.304656 188.473409 
L 260.456837 197.353021 
L 261.571852 199.296596 
L 262.724033 200.056301 
L 263.839047 198.999059 
L 264.991228 200.850711 
L 266.14341 196.656254 
L 268.336271 169.984419 
L 269.451285 163.409202 
L 270.603466 169.306344 
L 271.71848 175.801385 
L 272.870662 189.045704 
L 274.022843 198.263332 
L 275.137857 199.751226 
L 276.290038 199.212023 
L 277.405052 198.370873 
L 278.557234 200.209131 
L 279.709415 196.000767 
L 280.787262 184.402381 
L 281.939443 170.036182 
L 283.054457 163.28593 
L 284.206639 168.7887 
L 285.321653 175.896747 
L 286.473834 189.301095 
L 287.626015 199.542985 
L 288.74103 201.085673 
L 289.893211 199.11261 
L 291.008225 198.710379 
L 292.160406 199.963524 
L 293.312588 195.145684 
L 294.353268 183.626124 
L 295.505449 169.47163 
L 296.620463 162.515125 
L 297.772644 168.102848 
L 298.887658 175.81993 
L 300.03984 188.837726 
L 301.192021 200.332863 
L 302.307035 202.651204 
L 303.459216 200.183179 
L 304.574231 200.15587 
L 305.726412 200.596582 
L 306.878593 194.78008 
L 309.071454 168.164282 
L 310.186468 161.59037 
L 311.33865 167.363527 
L 312.453664 175.120698 
L 314.758026 200.503064 
L 315.873041 203.66028 
L 317.025222 201.613682 
L 318.140236 201.900277 
L 319.292417 201.866488 
L 320.444599 195.481725 
L 322.63746 167.314526 
L 323.752474 161.231426 
L 324.904655 166.583734 
L 326.019669 173.544402 
L 327.171851 185.834446 
L 328.324032 199.981469 
L 329.439046 203.910908 
L 330.591227 202.362559 
L 331.706241 202.868999 
L 332.858423 202.617061 
L 334.010604 196.365789 
L 335.088451 183.232479 
L 336.240632 167.364667 
L 337.355646 161.750993 
L 338.507828 167.354753 
L 339.622842 173.347046 
L 340.775023 185.283516 
L 341.927204 199.09946 
L 343.042219 203.161521 
L 344.1944 202.365922 
L 346.461595 202.18414 
L 347.613777 195.955924 
L 348.654456 182.953745 
L 349.806638 166.771982 
L 350.921652 162.026141 
L 352.073833 168.889986 
L 353.188847 174.159719 
L 354.341029 185.622176 
L 355.49321 198.875528 
L 356.608224 202.845611 
L 357.760405 202.894078 
L 358.87542 201.885941 
L 360.027601 202.137644 
L 361.179782 195.607655 
L 362.220462 182.236142 
L 363.372643 165.481378 
L 364.487657 161.720483 
L 365.639839 170.534499 
L 366.754853 175.035479 
L 367.907034 186.002701 
L 369.059215 198.618806 
L 370.17423 202.471247 
L 371.326411 203.501221 
L 372.441425 201.563526 
L 373.593606 202.224117 
L 374.745788 195.374035 
L 375.786467 181.520248 
L 376.938649 164.167209 
L 378.053663 161.427551 
L 379.205844 172.263904 
L 380.320858 175.930332 
L 381.47304 186.403664 
L 382.625221 198.296093 
L 383.740235 201.984009 
L 384.892416 204.025986 
L 386.00743 201.194768 
L 387.159612 202.328167 
L 388.311793 195.15377 
L 389.38964 180.776378 
L 390.541821 162.845267 
L 391.656835 161.131264 
L 392.809017 174.112719 
L 393.924031 176.939323 
L 395.076212 186.936232 
L 396.228393 197.998399 
L 397.343408 201.43121 
L 398.495589 204.457084 
L 399.610603 200.706705 
L 400.762784 202.402737 
L 401.914966 194.864877 
L 402.955645 179.91524 
L 404.107827 161.421778 
L 405.222841 160.719642 
L 405.222841 160.719642 
" clip-path="url(#p44cd6c4534)" style="fill: none; stroke: #ffa722; stroke-width: 0.5; stroke-linecap: square"/>
   </g>
   <g id="patch_9">
    <path d="M 45.36875 207.023877 
L 45.36875 155.312246 
" style="fill: none; stroke: #000000; stroke-width: 0.8; stroke-linejoin: miter; stroke-linecap: square"/>
   </g>
   <g id="patch_10">
    <path d="M 45.36875 207.023877 
L 422.35875 207.023877 
" style="fill: none; stroke: #000000; stroke-width: 0.8; stroke-linejoin: miter; stroke-linecap: square"/>
   </g>
  </g>
  <g id="axes_4">
   <g id="patch_11">
    <path d="M 45.36875 271.56 
L 422.35875 271.56 
L 422.35875 219.84837 
L 45.36875 219.84837 
z
" style="fill: #ffffff"/>
   </g>
   <g id="matplotlib.axis_7">
    <g id="xtick_22">
     <g id="line2d_64">
      <path d="M 61.389645 271.56 
L 61.389645 219.84837 
" clip-path="url(#p29d090699c)" style="fill: none; stroke-dasharray: 2.96,1.28; stroke-dashoffset: 0; stroke: #b0b0b0; stroke-opacity: 0.5; stroke-width: 0.8"/>
     </g>
     <g id="line2d_65">
      <g>
       <use xlink:href="#m019677cfa8" x="61.389645" y="271.56" style="stroke: #000000; stroke-width: 0.8"/>
      </g>
     </g>
     <g id="text_13">
      <!-- 2000 -->
      <g transform="translate(51.209645 284.63875) scale(0.08 -0.08)">
       <use xlink:href="#DejaVuSerif-32"/>
       <use xlink:href="#DejaVuSerif-30" transform="translate(63.623047 0)"/>
       <use xlink:href="#DejaVuSerif-30" transform="translate(127.246094 0)"/>
       <use xlink:href="#DejaVuSerif-30" transform="translate(190.869141 0)"/>
      </g>
     </g>
    </g>
    <g id="xtick_23">
     <g id="line2d_66">
      <path d="M 115.690834 271.56 
L 115.690834 219.84837 
" clip-path="url(#p29d090699c)" style="fill: none; stroke-dasharray: 2.96,1.28; stroke-dashoffset: 0; stroke: #b0b0b0; stroke-opacity: 0.5; stroke-width: 0.8"/>
     </g>
     <g id="line2d_67">
      <g>
       <use xlink:href="#m019677cfa8" x="115.690834" y="271.56" style="stroke: #000000; stroke-width: 0.8"/>
      </g>
     </g>
     <g id="text_14">
      <!-- 2004 -->
      <g transform="translate(105.510834 284.63875) scale(0.08 -0.08)">
       <defs>
        <path id="DejaVuSerif-34" d="M 2234 1581 
L 2234 4063 
L 641 1581 
L 2234 1581 
z
M 3609 0 
L 1484 0 
L 1484 331 
L 2234 331 
L 2234 1247 
L 197 1247 
L 197 1588 
L 2241 4750 
L 2859 4750 
L 2859 1581 
L 3750 1581 
L 3750 1247 
L 2859 1247 
L 2859 331 
L 3609 331 
L 3609 0 
z
" transform="scale(0.015625)"/>
       </defs>
       <use xlink:href="#DejaVuSerif-32"/>
       <use xlink:href="#DejaVuSerif-30" transform="translate(63.623047 0)"/>
       <use xlink:href="#DejaVuSerif-30" transform="translate(127.246094 0)"/>
       <use xlink:href="#DejaVuSerif-34" transform="translate(190.869141 0)"/>
      </g>
     </g>
    </g>
    <g id="xtick_24">
     <g id="line2d_68">
      <path d="M 169.992023 271.56 
L 169.992023 219.84837 
" clip-path="url(#p29d090699c)" style="fill: none; stroke-dasharray: 2.96,1.28; stroke-dashoffset: 0; stroke: #b0b0b0; stroke-opacity: 0.5; stroke-width: 0.8"/>
     </g>
     <g id="line2d_69">
      <g>
       <use xlink:href="#m019677cfa8" x="169.992023" y="271.56" style="stroke: #000000; stroke-width: 0.8"/>
      </g>
     </g>
     <g id="text_15">
      <!-- 2008 -->
      <g transform="translate(159.812023 284.63875) scale(0.08 -0.08)">
       <defs>
        <path id="DejaVuSerif-38" d="M 2981 1275 
Q 2981 1775 2732 2051 
Q 2484 2328 2034 2328 
Q 1584 2328 1336 2051 
Q 1088 1775 1088 1275 
Q 1088 772 1336 495 
Q 1584 219 2034 219 
Q 2484 219 2732 495 
Q 2981 772 2981 1275 
z
M 2853 3541 
Q 2853 3966 2637 4203 
Q 2422 4441 2034 4441 
Q 1650 4441 1433 4203 
Q 1216 3966 1216 3541 
Q 1216 3113 1433 2875 
Q 1650 2638 2034 2638 
Q 2422 2638 2637 2875 
Q 2853 3113 2853 3541 
z
M 2516 2484 
Q 3047 2413 3344 2092 
Q 3641 1772 3641 1275 
Q 3641 619 3225 264 
Q 2809 -91 2034 -91 
Q 1263 -91 845 264 
Q 428 619 428 1275 
Q 428 1772 725 2092 
Q 1022 2413 1556 2484 
Q 1084 2569 832 2842 
Q 581 3116 581 3541 
Q 581 4103 968 4426 
Q 1356 4750 2034 4750 
Q 2713 4750 3100 4426 
Q 3488 4103 3488 3541 
Q 3488 3116 3236 2842 
Q 2984 2569 2516 2484 
z
" transform="scale(0.015625)"/>
       </defs>
       <use xlink:href="#DejaVuSerif-32"/>
       <use xlink:href="#DejaVuSerif-30" transform="translate(63.623047 0)"/>
       <use xlink:href="#DejaVuSerif-30" transform="translate(127.246094 0)"/>
       <use xlink:href="#DejaVuSerif-38" transform="translate(190.869141 0)"/>
      </g>
     </g>
    </g>
    <g id="xtick_25">
     <g id="line2d_70">
      <path d="M 224.293212 271.56 
L 224.293212 219.84837 
" clip-path="url(#p29d090699c)" style="fill: none; stroke-dasharray: 2.96,1.28; stroke-dashoffset: 0; stroke: #b0b0b0; stroke-opacity: 0.5; stroke-width: 0.8"/>
     </g>
     <g id="line2d_71">
      <g>
       <use xlink:href="#m019677cfa8" x="224.293212" y="271.56" style="stroke: #000000; stroke-width: 0.8"/>
      </g>
     </g>
     <g id="text_16">
      <!-- 2012 -->
      <g transform="translate(214.113212 284.63875) scale(0.08 -0.08)">
       <use xlink:href="#DejaVuSerif-32"/>
       <use xlink:href="#DejaVuSerif-30" transform="translate(63.623047 0)"/>
       <use xlink:href="#DejaVuSerif-31" transform="translate(127.246094 0)"/>
       <use xlink:href="#DejaVuSerif-32" transform="translate(190.869141 0)"/>
      </g>
     </g>
    </g>
    <g id="xtick_26">
     <g id="line2d_72">
      <path d="M 278.594401 271.56 
L 278.594401 219.84837 
" clip-path="url(#p29d090699c)" style="fill: none; stroke-dasharray: 2.96,1.28; stroke-dashoffset: 0; stroke: #b0b0b0; stroke-opacity: 0.5; stroke-width: 0.8"/>
     </g>
     <g id="line2d_73">
      <g>
       <use xlink:href="#m019677cfa8" x="278.594401" y="271.56" style="stroke: #000000; stroke-width: 0.8"/>
      </g>
     </g>
     <g id="text_17">
      <!-- 2016 -->
      <g transform="translate(268.414401 284.63875) scale(0.08 -0.08)">
       <defs>
        <path id="DejaVuSerif-36" d="M 2094 219 
Q 2534 219 2771 542 
Q 3009 866 3009 1472 
Q 3009 2078 2771 2401 
Q 2534 2725 2094 2725 
Q 1647 2725 1412 2412 
Q 1178 2100 1178 1509 
Q 1178 888 1415 553 
Q 1653 219 2094 219 
z
M 1075 2569 
Q 1288 2803 1556 2918 
Q 1825 3034 2163 3034 
Q 2859 3034 3264 2615 
Q 3669 2197 3669 1472 
Q 3669 763 3233 336 
Q 2797 -91 2069 -91 
Q 1278 -91 853 498 
Q 428 1088 428 2181 
Q 428 3406 931 4078 
Q 1434 4750 2350 4750 
Q 2597 4750 2869 4703 
Q 3141 4656 3425 4563 
L 3425 3794 
L 3072 3794 
Q 3034 4109 2831 4275 
Q 2628 4441 2284 4441 
Q 1678 4441 1381 3981 
Q 1084 3522 1075 2569 
z
" transform="scale(0.015625)"/>
       </defs>
       <use xlink:href="#DejaVuSerif-32"/>
       <use xlink:href="#DejaVuSerif-30" transform="translate(63.623047 0)"/>
       <use xlink:href="#DejaVuSerif-31" transform="translate(127.246094 0)"/>
       <use xlink:href="#DejaVuSerif-36" transform="translate(190.869141 0)"/>
      </g>
     </g>
    </g>
    <g id="xtick_27">
     <g id="line2d_74">
      <path d="M 332.89559 271.56 
L 332.89559 219.84837 
" clip-path="url(#p29d090699c)" style="fill: none; stroke-dasharray: 2.96,1.28; stroke-dashoffset: 0; stroke: #b0b0b0; stroke-opacity: 0.5; stroke-width: 0.8"/>
     </g>
     <g id="line2d_75">
      <g>
       <use xlink:href="#m019677cfa8" x="332.89559" y="271.56" style="stroke: #000000; stroke-width: 0.8"/>
      </g>
     </g>
     <g id="text_18">
      <!-- 2020 -->
      <g transform="translate(322.71559 284.63875) scale(0.08 -0.08)">
       <use xlink:href="#DejaVuSerif-32"/>
       <use xlink:href="#DejaVuSerif-30" transform="translate(63.623047 0)"/>
       <use xlink:href="#DejaVuSerif-32" transform="translate(127.246094 0)"/>
       <use xlink:href="#DejaVuSerif-30" transform="translate(190.869141 0)"/>
      </g>
     </g>
    </g>
    <g id="xtick_28">
     <g id="line2d_76">
      <path d="M 387.196779 271.56 
L 387.196779 219.84837 
" clip-path="url(#p29d090699c)" style="fill: none; stroke-dasharray: 2.96,1.28; stroke-dashoffset: 0; stroke: #b0b0b0; stroke-opacity: 0.5; stroke-width: 0.8"/>
     </g>
     <g id="line2d_77">
      <g>
       <use xlink:href="#m019677cfa8" x="387.196779" y="271.56" style="stroke: #000000; stroke-width: 0.8"/>
      </g>
     </g>
     <g id="text_19">
      <!-- 2024 -->
      <g transform="translate(377.016779 284.63875) scale(0.08 -0.08)">
       <use xlink:href="#DejaVuSerif-32"/>
       <use xlink:href="#DejaVuSerif-30" transform="translate(63.623047 0)"/>
       <use xlink:href="#DejaVuSerif-32" transform="translate(127.246094 0)"/>
       <use xlink:href="#DejaVuSerif-34" transform="translate(190.869141 0)"/>
      </g>
     </g>
    </g>
    <g id="text_20">
     <!-- Série histórica -->
     <g transform="translate(204.18625 296.38125) scale(0.08 -0.08)">
      <defs>
       <path id="DejaVuSerif-e9" d="M 3469 1600 
L 991 1600 
L 991 1575 
Q 991 903 1244 561 
Q 1497 219 1991 219 
Q 2369 219 2611 417 
Q 2853 616 2950 1006 
L 3413 1006 
Q 3275 459 2904 184 
Q 2534 -91 1931 -91 
Q 1203 -91 761 389 
Q 319 869 319 1663 
Q 319 2450 753 2931 
Q 1188 3413 1894 3413 
Q 2647 3413 3050 2948 
Q 3453 2484 3469 1600 
z
M 2791 1931 
Q 2772 2513 2545 2808 
Q 2319 3103 1894 3103 
Q 1497 3103 1269 2806 
Q 1041 2509 991 1931 
L 2791 1931 
z
M 2330 5119 
L 2952 5119 
L 1890 3944 
L 1524 3944 
L 2330 5119 
z
" transform="scale(0.015625)"/>
       <path id="DejaVuSerif-20" transform="scale(0.015625)"/>
       <path id="DejaVuSerif-68" d="M 263 0 
L 263 331 
L 781 331 
L 781 4531 
L 231 4531 
L 231 4863 
L 1356 4863 
L 1356 2731 
Q 1516 3069 1770 3241 
Q 2025 3413 2363 3413 
Q 2913 3413 3172 3097 
Q 3431 2781 3431 2113 
L 3431 331 
L 3944 331 
L 3944 0 
L 2356 0 
L 2356 331 
L 2853 331 
L 2853 1931 
Q 2853 2541 2704 2764 
Q 2556 2988 2175 2988 
Q 1775 2988 1565 2697 
Q 1356 2406 1356 1850 
L 1356 331 
L 1856 331 
L 1856 0 
L 263 0 
z
" transform="scale(0.015625)"/>
       <path id="DejaVuSerif-74" d="M 691 2988 
L 184 2988 
L 184 3322 
L 691 3322 
L 691 4353 
L 1269 4353 
L 1269 3322 
L 2350 3322 
L 2350 2988 
L 1269 2988 
L 1269 878 
Q 1269 456 1350 337 
Q 1431 219 1650 219 
Q 1875 219 1978 351 
Q 2081 484 2088 781 
L 2522 781 
Q 2497 328 2275 118 
Q 2053 -91 1600 -91 
Q 1103 -91 897 129 
Q 691 350 691 878 
L 691 2988 
z
" transform="scale(0.015625)"/>
       <path id="DejaVuSerif-f3" d="M 1925 219 
Q 2388 219 2623 584 
Q 2859 950 2859 1663 
Q 2859 2375 2623 2739 
Q 2388 3103 1925 3103 
Q 1463 3103 1227 2739 
Q 991 2375 991 1663 
Q 991 950 1228 584 
Q 1466 219 1925 219 
z
M 1925 -91 
Q 1200 -91 759 389 
Q 319 869 319 1663 
Q 319 2456 758 2934 
Q 1197 3413 1925 3413 
Q 2653 3413 3092 2934 
Q 3531 2456 3531 1663 
Q 3531 869 3092 389 
Q 2653 -91 1925 -91 
z
M 2362 5119 
L 2984 5119 
L 1922 3944 
L 1556 3944 
L 2362 5119 
z
" transform="scale(0.015625)"/>
      </defs>
      <use xlink:href="#DejaVuSerif-53"/>
      <use xlink:href="#DejaVuSerif-e9" transform="translate(68.505859 0)"/>
      <use xlink:href="#DejaVuSerif-72" transform="translate(127.685547 0)"/>
      <use xlink:href="#DejaVuSerif-69" transform="translate(175.488281 0)"/>
      <use xlink:href="#DejaVuSerif-65" transform="translate(207.470703 0)"/>
      <use xlink:href="#DejaVuSerif-20" transform="translate(266.650391 0)"/>
      <use xlink:href="#DejaVuSerif-68" transform="translate(298.4375 0)"/>
      <use xlink:href="#DejaVuSerif-69" transform="translate(362.841797 0)"/>
      <use xlink:href="#DejaVuSerif-73" transform="translate(394.824219 0)"/>
      <use xlink:href="#DejaVuSerif-74" transform="translate(446.142578 0)"/>
      <use xlink:href="#DejaVuSerif-f3" transform="translate(486.328125 0)"/>
      <use xlink:href="#DejaVuSerif-72" transform="translate(546.533203 0)"/>
      <use xlink:href="#DejaVuSerif-69" transform="translate(594.335938 0)"/>
      <use xlink:href="#DejaVuSerif-63" transform="translate(626.318359 0)"/>
      <use xlink:href="#DejaVuSerif-61" transform="translate(682.324219 0)"/>
     </g>
    </g>
   </g>
   <g id="matplotlib.axis_8">
    <g id="ytick_10">
     <g id="line2d_78">
      <path d="M 45.36875 260.872555 
L 422.35875 260.872555 
" clip-path="url(#p29d090699c)" style="fill: none; stroke-dasharray: 2.96,1.28; stroke-dashoffset: 0; stroke: #b0b0b0; stroke-opacity: 0.5; stroke-width: 0.8"/>
     </g>
     <g id="line2d_79">
      <g>
       <use xlink:href="#md0f628f81b" x="45.36875" y="260.872555" style="stroke: #000000; stroke-width: 0.8"/>
      </g>
     </g>
     <g id="text_21">
      <!-- −0.5 -->
      <g transform="translate(18.9425 263.91193) scale(0.08 -0.08)">
       <defs>
        <path id="DejaVuSerif-2e" d="M 603 325 
Q 603 500 722 622 
Q 841 744 1019 744 
Q 1191 744 1312 622 
Q 1434 500 1434 325 
Q 1434 153 1312 31 
Q 1191 -91 1019 -91 
Q 841 -91 722 29 
Q 603 150 603 325 
z
" transform="scale(0.015625)"/>
        <path id="DejaVuSerif-35" d="M 3219 4666 
L 3219 4153 
L 1081 4153 
L 1081 2816 
Q 1244 2928 1461 2984 
Q 1678 3041 1947 3041 
Q 2703 3041 3140 2622 
Q 3578 2203 3578 1478 
Q 3578 738 3136 323 
Q 2694 -91 1894 -91 
Q 1572 -91 1234 -12 
Q 897 66 544 225 
L 544 1131 
L 897 1131 
Q 925 688 1179 453 
Q 1434 219 1894 219 
Q 2388 219 2653 544 
Q 2919 869 2919 1478 
Q 2919 2084 2655 2407 
Q 2391 2731 1894 2731 
Q 1613 2731 1398 2631 
Q 1184 2531 1019 2322 
L 750 2322 
L 750 4666 
L 3219 4666 
z
" transform="scale(0.015625)"/>
       </defs>
       <use xlink:href="#DejaVuSerif-2212"/>
       <use xlink:href="#DejaVuSerif-30" transform="translate(83.789062 0)"/>
       <use xlink:href="#DejaVuSerif-2e" transform="translate(147.412109 0)"/>
       <use xlink:href="#DejaVuSerif-35" transform="translate(179.199219 0)"/>
      </g>
     </g>
    </g>
    <g id="ytick_11">
     <g id="line2d_80">
      <path d="M 45.36875 246.36896 
L 422.35875 246.36896 
" clip-path="url(#p29d090699c)" style="fill: none; stroke-dasharray: 2.96,1.28; stroke-dashoffset: 0; stroke: #b0b0b0; stroke-opacity: 0.5; stroke-width: 0.8"/>
     </g>
     <g id="line2d_81">
      <g>
       <use xlink:href="#md0f628f81b" x="45.36875" y="246.36896" style="stroke: #000000; stroke-width: 0.8"/>
      </g>
     </g>
     <g id="text_22">
      <!-- 0.0 -->
      <g transform="translate(25.64625 249.408335) scale(0.08 -0.08)">
       <use xlink:href="#DejaVuSerif-30"/>
       <use xlink:href="#DejaVuSerif-2e" transform="translate(63.623047 0)"/>
       <use xlink:href="#DejaVuSerif-30" transform="translate(95.410156 0)"/>
      </g>
     </g>
    </g>
    <g id="ytick_12">
     <g id="line2d_82">
      <path d="M 45.36875 231.865364 
L 422.35875 231.865364 
" clip-path="url(#p29d090699c)" style="fill: none; stroke-dasharray: 2.96,1.28; stroke-dashoffset: 0; stroke: #b0b0b0; stroke-opacity: 0.5; stroke-width: 0.8"/>
     </g>
     <g id="line2d_83">
      <g>
       <use xlink:href="#md0f628f81b" x="45.36875" y="231.865364" style="stroke: #000000; stroke-width: 0.8"/>
      </g>
     </g>
     <g id="text_23">
      <!-- 0.5 -->
      <g transform="translate(25.64625 234.904739) scale(0.08 -0.08)">
       <use xlink:href="#DejaVuSerif-30"/>
       <use xlink:href="#DejaVuSerif-2e" transform="translate(63.623047 0)"/>
       <use xlink:href="#DejaVuSerif-35" transform="translate(95.410156 0)"/>
      </g>
     </g>
    </g>
    <g id="text_24">
     <!-- Resíduo -->
     <g transform="translate(13.27875 261.960435) rotate(-90) scale(0.08 -0.08)">
      <defs>
       <path id="DejaVuSerif-52" d="M 3066 2316 
Q 3284 2256 3442 2114 
Q 3600 1972 3725 1716 
L 4403 331 
L 4972 331 
L 4972 0 
L 3872 0 
L 3144 1484 
Q 2934 1916 2759 2042 
Q 2584 2169 2278 2169 
L 1581 2169 
L 1581 331 
L 2241 331 
L 2241 0 
L 353 0 
L 353 331 
L 947 331 
L 947 4331 
L 353 4331 
L 353 4666 
L 2719 4666 
Q 3400 4666 3770 4341 
Q 4141 4016 4141 3419 
Q 4141 2938 3870 2661 
Q 3600 2384 3066 2316 
z
M 1581 2503 
L 2503 2503 
Q 2975 2503 3200 2726 
Q 3425 2950 3425 3419 
Q 3425 3888 3200 4109 
Q 2975 4331 2503 4331 
L 1581 4331 
L 1581 2503 
z
" transform="scale(0.015625)"/>
       <path id="DejaVuSerif-ed" d="M 1356 331 
L 1900 331 
L 1900 0 
L 231 0 
L 231 331 
L 781 331 
L 781 2988 
L 231 2988 
L 231 3322 
L 1356 3322 
L 1356 331 
z
M 1458 5119 
L 2080 5119 
L 1018 3944 
L 652 3944 
L 1458 5119 
z
" transform="scale(0.015625)"/>
       <path id="DejaVuSerif-75" d="M 2266 3322 
L 3341 3322 
L 3341 331 
L 3884 331 
L 3884 0 
L 2766 0 
L 2766 588 
Q 2606 256 2353 82 
Q 2100 -91 1766 -91 
Q 1213 -91 952 223 
Q 691 538 691 1209 
L 691 2988 
L 172 2988 
L 172 3322 
L 1269 3322 
L 1269 1388 
Q 1269 781 1417 556 
Q 1566 331 1947 331 
Q 2347 331 2556 625 
Q 2766 919 2766 1478 
L 2766 2988 
L 2266 2988 
L 2266 3322 
z
" transform="scale(0.015625)"/>
      </defs>
      <use xlink:href="#DejaVuSerif-52"/>
      <use xlink:href="#DejaVuSerif-65" transform="translate(75.292969 0)"/>
      <use xlink:href="#DejaVuSerif-73" transform="translate(134.472656 0)"/>
      <use xlink:href="#DejaVuSerif-ed" transform="translate(185.791016 0)"/>
      <use xlink:href="#DejaVuSerif-64" transform="translate(217.773438 0)"/>
      <use xlink:href="#DejaVuSerif-75" transform="translate(281.787109 0)"/>
      <use xlink:href="#DejaVuSerif-6f" transform="translate(346.191406 0)"/>
     </g>
    </g>
   </g>
   <g id="line2d_84">
    <path d="M 62.504659 255.432472 
L 63.582506 248.224713 
L 64.734687 244.922021 
L 65.849702 238.127785 
L 67.001883 238.792056 
L 68.116897 247.053147 
L 69.269078 246.54583 
L 70.42126 246.396753 
L 71.536274 242.274285 
L 72.688455 248.867288 
L 73.803469 254.478163 
L 74.95565 255.540792 
L 76.107832 244.26414 
L 77.148512 244.568625 
L 78.300693 238.913207 
L 79.415707 240.903589 
L 80.567888 241.304813 
L 81.682902 240.515498 
L 82.835084 241.906548 
L 83.987265 245.112919 
L 85.102279 255.533087 
L 86.25446 254.06316 
L 87.369475 254.243388 
L 88.521656 256.049386 
L 89.673837 246.708475 
L 90.714517 243.949739 
L 91.866698 252.839565 
L 92.981712 251.595353 
L 94.133894 245.920445 
L 95.248908 237.132277 
L 96.401089 247.599931 
L 97.55327 243.174285 
L 98.668285 242.753677 
L 99.820466 240.083883 
L 100.93548 230.461458 
L 102.087661 226.926783 
L 103.239843 230.330605 
L 104.280522 246.126892 
L 105.432704 249.584162 
L 106.547718 261.649721 
L 107.699899 269.209471 
L 108.814913 263.284469 
L 109.967095 248.059109 
L 111.119276 252.578539 
L 112.23429 243.689541 
L 113.386471 238.094968 
L 114.501486 236.744216 
L 115.653667 237.196916 
L 116.805848 245.76173 
L 117.883695 245.165642 
L 119.035876 246.768761 
L 120.150891 249.084811 
L 121.303072 250.031253 
L 122.418086 254.044257 
L 123.570267 252.439586 
L 124.722449 244.52586 
L 125.837463 244.29691 
L 126.989644 245.868865 
L 128.104658 244.128258 
L 129.256839 241.553123 
L 130.409021 246.579544 
L 131.449701 253.668433 
L 133.716896 242.631974 
L 134.869077 235.613006 
L 135.984091 236.308105 
L 137.136273 238.536559 
L 139.403468 249.717307 
L 140.555649 245.921886 
L 141.670664 259.755957 
L 142.822845 265.665606 
L 143.975026 255.113946 
L 145.015706 243.913015 
L 146.167887 250.523272 
L 147.282901 246.753473 
L 148.435083 246.116497 
L 149.550097 249.809138 
L 150.702278 250.730914 
L 151.854459 249.072174 
L 152.969474 238.762536 
L 154.121655 235.195742 
L 155.236669 230.629459 
L 156.38885 224.583342 
L 157.541032 227.451821 
L 158.581711 238.914766 
L 159.733893 248.071608 
L 160.848907 250.774917 
L 162.001088 251.938224 
L 163.116102 245.424028 
L 164.268284 256.238874 
L 165.420465 251.724867 
L 166.535479 254.435833 
L 167.68766 259.507777 
L 168.802674 263.230322 
L 169.954856 258.37436 
L 171.107037 258.456775 
L 172.184884 253.82679 
L 173.337065 241.021723 
L 174.45208 244.385981 
L 175.604261 241.174333 
L 176.719275 240.997351 
L 177.871456 232.161973 
L 179.023638 231.751037 
L 180.138652 239.407499 
L 181.290833 244.554863 
L 182.405847 243.215672 
L 183.558028 256.209522 
L 184.71021 255.120266 
L 185.75089 255.433045 
L 186.903071 260.653488 
L 188.018085 252.439442 
L 189.170266 248.40988 
L 190.28528 245.446182 
L 191.437462 239.875667 
L 192.589643 245.003456 
L 193.704657 243.834931 
L 194.856838 242.287776 
L 195.971853 228.927524 
L 197.124034 222.198898 
L 198.276215 228.742585 
L 199.316895 237.135759 
L 200.469076 234.76876 
L 201.58409 238.243099 
L 202.736272 247.196478 
L 203.851286 261.500885 
L 205.003467 266.795995 
L 206.155648 260.200801 
L 207.270663 256.825846 
L 208.422844 255.70742 
L 209.537858 259.576001 
L 210.690039 259.986022 
L 211.842221 251.274852 
L 212.8829 241.478296 
L 214.035082 245.790518 
L 216.302277 234.389635 
L 217.417291 233.87161 
L 218.569473 236.490161 
L 219.721654 247.396254 
L 220.836668 249.838512 
L 221.988849 253.307166 
L 223.103863 264.755382 
L 224.256045 255.686494 
L 225.408226 249.920696 
L 226.486073 238.946141 
L 227.638254 246.635286 
L 228.753268 247.647748 
L 229.90545 246.737314 
L 231.020464 237.363485 
L 232.172645 232.828339 
L 233.324826 233.441342 
L 234.439841 243.01432 
L 235.592022 245.542793 
L 236.707036 242.737655 
L 237.859217 251.749247 
L 239.011399 253.024232 
L 240.052079 247.216352 
L 241.20426 235.86879 
L 242.319274 244.326147 
L 243.471455 255.189536 
L 244.586469 256.6095 
L 245.738651 256.424758 
L 246.890832 253.752189 
L 248.005846 243.744519 
L 249.158027 243.352091 
L 250.273042 238.865466 
L 251.425223 242.746862 
L 252.577404 248.729737 
L 253.618084 260.973159 
L 254.770265 251.321646 
L 255.885279 247.195629 
L 257.037461 239.020799 
L 258.152475 237.670176 
L 259.304656 246.914012 
L 260.456837 246.947624 
L 261.571852 246.818048 
L 262.724033 242.886398 
L 263.839047 242.469634 
L 264.991228 243.03218 
L 268.336271 264.71468 
L 270.603466 253.119908 
L 271.71848 249.806994 
L 272.870662 241.323198 
L 274.022843 234.262469 
L 275.137857 233.829469 
L 276.290038 232.689939 
L 277.405052 226.796794 
L 278.557234 222.899565 
L 279.709415 223.142264 
L 280.787262 233.271378 
L 281.939443 237.604473 
L 283.054457 246.9969 
L 284.206639 259.631663 
L 285.321653 265.723603 
L 286.473834 267.021134 
L 287.626015 257.218691 
L 288.74103 252.924186 
L 289.893211 258.173838 
L 291.008225 259.119301 
L 292.160406 256.396233 
L 293.312588 248.963585 
L 294.353268 232.696347 
L 295.505449 235.661273 
L 296.620463 234.220602 
L 297.772644 234.078754 
L 298.887658 238.048936 
L 300.03984 236.552419 
L 301.192021 243.105723 
L 302.307035 248.164683 
L 303.459216 249.186496 
L 304.574231 260.091559 
L 305.726412 263.287984 
L 307.919273 258.392056 
L 309.071454 258.296915 
L 310.186468 255.270618 
L 312.453664 236.767234 
L 313.605845 238.621203 
L 314.758026 245.6774 
L 315.873041 241.433801 
L 317.025222 237.727572 
L 318.140236 235.733466 
L 319.292417 238.887643 
L 320.444599 244.044818 
L 321.485278 246.544865 
L 322.63746 243.188426 
L 323.752474 243.711144 
L 324.904655 241.363722 
L 326.019669 246.620945 
L 327.171851 255.303699 
L 328.324032 257.853173 
L 329.439046 257.571868 
L 330.591227 240.359626 
L 331.706241 238.11029 
L 332.858423 239.415991 
L 334.010604 238.809524 
L 335.088451 245.453017 
L 336.240632 242.351898 
L 337.355646 233.712109 
L 338.507828 247.539355 
L 339.622842 257.935989 
L 340.775023 247.601507 
L 341.927204 246.877818 
L 343.042219 252.947318 
L 344.1944 261.359322 
L 345.309414 259.384334 
L 346.461595 250.244004 
L 347.613777 244.528504 
L 348.654456 240.354842 
L 349.806638 244.495876 
L 350.921652 252.80949 
L 352.073833 241.07803 
L 353.188847 235.449341 
L 354.341029 238.750014 
L 355.49321 239.954934 
L 356.608224 238.652261 
L 357.760405 248.01908 
L 358.87542 248.054303 
L 360.027601 248.939199 
L 361.179782 254.728982 
L 362.220462 255.501684 
L 363.372643 254.625222 
L 364.487657 253.098668 
L 365.639839 247.586156 
L 366.754853 240.210309 
L 367.907034 238.56395 
L 370.17423 251.145325 
L 371.326411 248.138568 
L 372.441425 256.902532 
L 373.593606 255.529967 
L 374.745788 257.314525 
L 375.786467 257.598975 
L 376.938649 253.50655 
L 378.053663 253.835872 
L 379.205844 238.235262 
L 380.320858 238.805593 
L 381.47304 239.566872 
L 382.625221 233.243665 
L 383.740235 231.081875 
L 384.892416 230.064057 
L 386.00743 230.545115 
L 387.159612 225.923632 
L 388.311793 229.265822 
L 389.38964 239.361755 
L 390.541821 251.659353 
L 391.656835 250.260916 
L 392.809017 255.341906 
L 393.924031 258.988255 
L 395.076212 259.555871 
L 396.228393 258.97751 
L 397.343408 255.199294 
L 398.495589 253.782539 
L 399.610603 248.328226 
L 400.762784 255.485687 
L 401.914966 249.935363 
L 402.955645 240.471958 
L 404.107827 232.548325 
L 405.222841 232.960176 
L 405.222841 232.960176 
" clip-path="url(#p29d090699c)" style="fill: none; stroke: #47a730; stroke-width: 0.5; stroke-linecap: square"/>
   </g>
   <g id="patch_12">
    <path d="M 45.36875 271.56 
L 45.36875 219.84837 
" style="fill: none; stroke: #000000; stroke-width: 0.8; stroke-linejoin: miter; stroke-linecap: square"/>
   </g>
   <g id="patch_13">
    <path d="M 45.36875 271.56 
L 422.35875 271.56 
" style="fill: none; stroke: #000000; stroke-width: 0.8; stroke-linejoin: miter; stroke-linecap: square"/>
   </g>
  </g>
  <g id="legend_1">
   <g id="line2d_85">
    <path d="M 60.411875 13.67875 
L 68.411875 13.67875 
L 76.411875 13.67875 
" style="fill: none; stroke: #4596f3; stroke-width: 0.5; stroke-linecap: square"/>
   </g>
   <g id="text_25">
    <!-- Observado -->
    <g transform="translate(82.811875 16.47875) scale(0.08 -0.08)">
     <use xlink:href="#DejaVuSerif-4f"/>
     <use xlink:href="#DejaVuSerif-62" transform="translate(81.982422 0)"/>
     <use xlink:href="#DejaVuSerif-73" transform="translate(145.996094 0)"/>
     <use xlink:href="#DejaVuSerif-65" transform="translate(197.314453 0)"/>
     <use xlink:href="#DejaVuSerif-72" transform="translate(256.494141 0)"/>
     <use xlink:href="#DejaVuSerif-76" transform="translate(304.296875 0)"/>
     <use xlink:href="#DejaVuSerif-61" transform="translate(360.791016 0)"/>
     <use xlink:href="#DejaVuSerif-64" transform="translate(420.410156 0)"/>
     <use xlink:href="#DejaVuSerif-6f" transform="translate(484.423828 0)"/>
    </g>
   </g>
   <g id="line2d_86">
    <path d="M 142.383125 13.67875 
L 150.383125 13.67875 
L 158.383125 13.67875 
" style="fill: none; stroke: #ff5656; stroke-width: 0.5; stroke-linecap: square"/>
   </g>
   <g id="text_26">
    <!-- Tendência -->
    <g transform="translate(164.783125 16.47875) scale(0.08 -0.08)">
     <use xlink:href="#DejaVuSerif-54"/>
     <use xlink:href="#DejaVuSerif-65" transform="translate(58.949219 0)"/>
     <use xlink:href="#DejaVuSerif-6e" transform="translate(118.128906 0)"/>
     <use xlink:href="#DejaVuSerif-64" transform="translate(182.533203 0)"/>
     <use xlink:href="#DejaVuSerif-ea" transform="translate(246.546875 0)"/>
     <use xlink:href="#DejaVuSerif-6e" transform="translate(305.726562 0)"/>
     <use xlink:href="#DejaVuSerif-63" transform="translate(370.130859 0)"/>
     <use xlink:href="#DejaVuSerif-69" transform="translate(426.136719 0)"/>
     <use xlink:href="#DejaVuSerif-61" transform="translate(458.119141 0)"/>
    </g>
   </g>
   <g id="line2d_87">
    <path d="M 222.204375 13.67875 
L 230.204375 13.67875 
L 238.204375 13.67875 
" style="fill: none; stroke: #ffa722; stroke-width: 0.5; stroke-linecap: square"/>
   </g>
   <g id="text_27">
    <!-- Sazonalidade -->
    <g transform="translate(244.604375 16.47875) scale(0.08 -0.08)">
     <use xlink:href="#DejaVuSerif-53"/>
     <use xlink:href="#DejaVuSerif-61" transform="translate(68.505859 0)"/>
     <use xlink:href="#DejaVuSerif-7a" transform="translate(128.125 0)"/>
     <use xlink:href="#DejaVuSerif-6f" transform="translate(180.810547 0)"/>
     <use xlink:href="#DejaVuSerif-6e" transform="translate(241.015625 0)"/>
     <use xlink:href="#DejaVuSerif-61" transform="translate(305.419922 0)"/>
     <use xlink:href="#DejaVuSerif-6c" transform="translate(365.039062 0)"/>
     <use xlink:href="#DejaVuSerif-69" transform="translate(397.021484 0)"/>
     <use xlink:href="#DejaVuSerif-64" transform="translate(429.003906 0)"/>
     <use xlink:href="#DejaVuSerif-61" transform="translate(493.017578 0)"/>
     <use xlink:href="#DejaVuSerif-64" transform="translate(552.636719 0)"/>
     <use xlink:href="#DejaVuSerif-65" transform="translate(616.650391 0)"/>
    </g>
   </g>
   <g id="line2d_88">
    <path d="M 314.673125 13.67875 
L 322.673125 13.67875 
L 330.673125 13.67875 
" style="fill: none; stroke: #47a730; stroke-width: 0.5; stroke-linecap: square"/>
   </g>
   <g id="text_28">
    <!-- Resíduo -->
    <g transform="translate(337.073125 16.47875) scale(0.08 -0.08)">
     <use xlink:href="#DejaVuSerif-52"/>
     <use xlink:href="#DejaVuSerif-65" transform="translate(75.292969 0)"/>
     <use xlink:href="#DejaVuSerif-73" transform="translate(134.472656 0)"/>
     <use xlink:href="#DejaVuSerif-ed" transform="translate(185.791016 0)"/>
     <use xlink:href="#DejaVuSerif-64" transform="translate(217.773438 0)"/>
     <use xlink:href="#DejaVuSerif-75" transform="translate(281.787109 0)"/>
     <use xlink:href="#DejaVuSerif-6f" transform="translate(346.191406 0)"/>
    </g>
   </g>
  </g>
 </g>
 <defs>
  <clipPath id="p1bad2ca95e">
   <rect x="45.36875" y="26.24" width="376.99" height="51.71163"/>
  </clipPath>
  <clipPath id="pcfeecc69e8">
   <rect x="45.36875" y="90.776123" width="376.99" height="51.71163"/>
  </clipPath>
  <clipPath id="p44cd6c4534">
   <rect x="45.36875" y="155.312246" width="376.99" height="51.71163"/>
  </clipPath>
  <clipPath id="p29d090699c">
   <rect x="45.36875" y="219.84837" width="376.99" height="51.71163"/>
  </clipPath>
 </defs>
</svg>
