<?xml version="1.0" encoding="utf-8" standalone="no"?>
<!DOCTYPE svg PUBLIC "-//W3C//DTD SVG 1.1//EN"
  "http://www.w3.org/Graphics/SVG/1.1/DTD/svg11.dtd">
<svg xmlns:xlink="http://www.w3.org/1999/xlink" width="428.97625pt" height="305.245pt" viewBox="0 0 428.97625 305.245" xmlns="http://www.w3.org/2000/svg" version="1.1">
 <metadata>
  <rdf:RDF xmlns:dc="http://purl.org/dc/elements/1.1/" xmlns:cc="http://creativecommons.org/ns#" xmlns:rdf="http://www.w3.org/1999/02/22-rdf-syntax-ns#">
   <cc:Work>
    <dc:type rdf:resource="http://purl.org/dc/dcmitype/StillImage"/>
    <dc:date>2025-06-30T04:35:45.583043</dc:date>
    <dc:format>image/svg+xml</dc:format>
    <dc:creator>
     <cc:Agent>
      <dc:title>Matplotlib v3.10.3, https://matplotlib.org/</dc:title>
     </cc:Agent>
    </dc:creator>
   </cc:Work>
  </rdf:RDF>
 </metadata>
 <defs>
  <style type="text/css">*{stroke-linejoin: round; stroke-linecap: butt}</style>
 </defs>
 <g id="figure_1">
  <g id="patch_1">
   <path d="M 0 305.245 
L 428.97625 305.245 
L 428.97625 0 
L 0 0 
z
" style="fill: #ffffff"/>
  </g>
  <g id="axes_1">
   <g id="patch_2">
    <path d="M 38.71625 77.332903 
L 421.77625 77.332903 
L 421.77625 26.24 
L 38.71625 26.24 
z
" style="fill: #ffffff"/>
   </g>
   <g id="matplotlib.axis_1">
    <g id="xtick_1">
     <g id="line2d_1">
      <path d="M 54.998897 77.332903 
L 54.998897 26.24 
" clip-path="url(#p4d54399ea8)" style="fill: none; stroke-dasharray: 2.96,1.28; stroke-dashoffset: 0; stroke: #b0b0b0; stroke-opacity: 0.5; stroke-width: 0.8"/>
     </g>
     <g id="line2d_2">
      <defs>
       <path id="m441216923f" d="M 0 0 
L 0 3.5 
" style="stroke: #000000; stroke-width: 0.8"/>
      </defs>
      <g>
       <use xlink:href="#m441216923f" x="54.998897" y="77.332903" style="stroke: #000000; stroke-width: 0.8"/>
      </g>
     </g>
    </g>
    <g id="xtick_2">
     <g id="line2d_3">
      <path d="M 109.989529 77.332903 
L 109.989529 26.24 
" clip-path="url(#p4d54399ea8)" style="fill: none; stroke-dasharray: 2.96,1.28; stroke-dashoffset: 0; stroke: #b0b0b0; stroke-opacity: 0.5; stroke-width: 0.8"/>
     </g>
     <g id="line2d_4">
      <g>
       <use xlink:href="#m441216923f" x="109.989529" y="77.332903" style="stroke: #000000; stroke-width: 0.8"/>
      </g>
     </g>
    </g>
    <g id="xtick_3">
     <g id="line2d_5">
      <path d="M 164.980161 77.332903 
L 164.980161 26.24 
" clip-path="url(#p4d54399ea8)" style="fill: none; stroke-dasharray: 2.96,1.28; stroke-dashoffset: 0; stroke: #b0b0b0; stroke-opacity: 0.5; stroke-width: 0.8"/>
     </g>
     <g id="line2d_6">
      <g>
       <use xlink:href="#m441216923f" x="164.980161" y="77.332903" style="stroke: #000000; stroke-width: 0.8"/>
      </g>
     </g>
    </g>
    <g id="xtick_4">
     <g id="line2d_7">
      <path d="M 219.970793 77.332903 
L 219.970793 26.24 
" clip-path="url(#p4d54399ea8)" style="fill: none; stroke-dasharray: 2.96,1.28; stroke-dashoffset: 0; stroke: #b0b0b0; stroke-opacity: 0.5; stroke-width: 0.8"/>
     </g>
     <g id="line2d_8">
      <g>
       <use xlink:href="#m441216923f" x="219.970793" y="77.332903" style="stroke: #000000; stroke-width: 0.8"/>
      </g>
     </g>
    </g>
    <g id="xtick_5">
     <g id="line2d_9">
      <path d="M 274.961425 77.332903 
L 274.961425 26.24 
" clip-path="url(#p4d54399ea8)" style="fill: none; stroke-dasharray: 2.96,1.28; stroke-dashoffset: 0; stroke: #b0b0b0; stroke-opacity: 0.5; stroke-width: 0.8"/>
     </g>
     <g id="line2d_10">
      <g>
       <use xlink:href="#m441216923f" x="274.961425" y="77.332903" style="stroke: #000000; stroke-width: 0.8"/>
      </g>
     </g>
    </g>
    <g id="xtick_6">
     <g id="line2d_11">
      <path d="M 329.952057 77.332903 
L 329.952057 26.24 
" clip-path="url(#p4d54399ea8)" style="fill: none; stroke-dasharray: 2.96,1.28; stroke-dashoffset: 0; stroke: #b0b0b0; stroke-opacity: 0.5; stroke-width: 0.8"/>
     </g>
     <g id="line2d_12">
      <g>
       <use xlink:href="#m441216923f" x="329.952057" y="77.332903" style="stroke: #000000; stroke-width: 0.8"/>
      </g>
     </g>
    </g>
    <g id="xtick_7">
     <g id="line2d_13">
      <path d="M 384.942689 77.332903 
L 384.942689 26.24 
" clip-path="url(#p4d54399ea8)" style="fill: none; stroke-dasharray: 2.96,1.28; stroke-dashoffset: 0; stroke: #b0b0b0; stroke-opacity: 0.5; stroke-width: 0.8"/>
     </g>
     <g id="line2d_14">
      <g>
       <use xlink:href="#m441216923f" x="384.942689" y="77.332903" style="stroke: #000000; stroke-width: 0.8"/>
      </g>
     </g>
    </g>
   </g>
   <g id="matplotlib.axis_2">
    <g id="ytick_1">
     <g id="line2d_15">
      <path d="M 38.71625 74.610958 
L 421.77625 74.610958 
" clip-path="url(#p4d54399ea8)" style="fill: none; stroke-dasharray: 2.96,1.28; stroke-dashoffset: 0; stroke: #b0b0b0; stroke-opacity: 0.5; stroke-width: 0.8"/>
     </g>
     <g id="line2d_16">
      <defs>
       <path id="m9cd43a0e91" d="M 0 0 
L -3.5 0 
" style="stroke: #000000; stroke-width: 0.8"/>
      </defs>
      <g>
       <use xlink:href="#m9cd43a0e91" x="38.71625" y="74.610958" style="stroke: #000000; stroke-width: 0.8"/>
      </g>
     </g>
     <g id="text_1">
      <!-- −2 -->
      <g transform="translate(19.9225 77.650333) scale(0.08 -0.08)">
       <defs>
        <path id="DejaVuSerif-2212" d="M 678 2259 
L 4684 2259 
L 4684 1753 
L 678 1753 
L 678 2259 
z
" transform="scale(0.015625)"/>
        <path id="DejaVuSerif-32" d="M 819 3553 
L 469 3553 
L 469 4384 
Q 803 4563 1142 4656 
Q 1481 4750 1806 4750 
Q 2534 4750 2956 4397 
Q 3378 4044 3378 3438 
Q 3378 2753 2422 1800 
Q 2347 1728 2309 1691 
L 1131 513 
L 3078 513 
L 3078 1088 
L 3444 1088 
L 3444 0 
L 434 0 
L 434 341 
L 1850 1753 
Q 2319 2222 2519 2614 
Q 2719 3006 2719 3438 
Q 2719 3909 2473 4175 
Q 2228 4441 1797 4441 
Q 1350 4441 1106 4219 
Q 863 3997 819 3553 
z
" transform="scale(0.015625)"/>
       </defs>
       <use xlink:href="#DejaVuSerif-2212"/>
       <use xlink:href="#DejaVuSerif-32" transform="translate(83.789062 0)"/>
      </g>
     </g>
    </g>
    <g id="ytick_2">
     <g id="line2d_17">
      <path d="M 38.71625 55.504555 
L 421.77625 55.504555 
" clip-path="url(#p4d54399ea8)" style="fill: none; stroke-dasharray: 2.96,1.28; stroke-dashoffset: 0; stroke: #b0b0b0; stroke-opacity: 0.5; stroke-width: 0.8"/>
     </g>
     <g id="line2d_18">
      <g>
       <use xlink:href="#m9cd43a0e91" x="38.71625" y="55.504555" style="stroke: #000000; stroke-width: 0.8"/>
      </g>
     </g>
     <g id="text_2">
      <!-- 0 -->
      <g transform="translate(26.62625 58.54393) scale(0.08 -0.08)">
       <defs>
        <path id="DejaVuSerif-30" d="M 2034 219 
Q 2513 219 2750 744 
Q 2988 1269 2988 2328 
Q 2988 3391 2750 3916 
Q 2513 4441 2034 4441 
Q 1556 4441 1318 3916 
Q 1081 3391 1081 2328 
Q 1081 1269 1318 744 
Q 1556 219 2034 219 
z
M 2034 -91 
Q 1275 -91 848 546 
Q 422 1184 422 2328 
Q 422 3475 848 4112 
Q 1275 4750 2034 4750 
Q 2797 4750 3222 4112 
Q 3647 3475 3647 2328 
Q 3647 1184 3222 546 
Q 2797 -91 2034 -91 
z
" transform="scale(0.015625)"/>
       </defs>
       <use xlink:href="#DejaVuSerif-30"/>
      </g>
     </g>
    </g>
    <g id="ytick_3">
     <g id="line2d_19">
      <path d="M 38.71625 36.398153 
L 421.77625 36.398153 
" clip-path="url(#p4d54399ea8)" style="fill: none; stroke-dasharray: 2.96,1.28; stroke-dashoffset: 0; stroke: #b0b0b0; stroke-opacity: 0.5; stroke-width: 0.8"/>
     </g>
     <g id="line2d_20">
      <g>
       <use xlink:href="#m9cd43a0e91" x="38.71625" y="36.398153" style="stroke: #000000; stroke-width: 0.8"/>
      </g>
     </g>
     <g id="text_3">
      <!-- 2 -->
      <g transform="translate(26.62625 39.437528) scale(0.08 -0.08)">
       <use xlink:href="#DejaVuSerif-32"/>
      </g>
     </g>
    </g>
   </g>
   <g id="line2d_21">
    <path d="M 56.128068 69.802206 
L 57.2196 68.636501 
L 58.38641 68.726764 
L 59.515581 69.008377 
L 61.811563 68.735927 
L 62.978373 69.21485 
L 64.145183 68.299173 
L 65.274354 68.298289 
L 66.441164 67.066698 
L 67.570335 67.648309 
L 68.737145 67.890036 
L 69.903955 67.151326 
L 70.957848 66.080381 
L 72.124659 65.658925 
L 73.25383 66.800655 
L 74.42064 68.948833 
L 75.549811 74.125625 
L 76.716621 75.010498 
L 77.883431 74.296165 
L 79.012602 74.224981 
L 81.308583 73.084848 
L 82.475394 73.345178 
L 84.696097 71.090119 
L 85.862907 69.229223 
L 86.992078 68.57429 
L 88.158888 69.888531 
L 90.454869 70.285857 
L 91.621679 69.331144 
L 92.75085 69.54907 
L 93.917661 67.298651 
L 96.213642 68.381177 
L 97.380452 67.957934 
L 98.434345 66.2884 
L 99.601155 67.521186 
L 100.730326 67.69797 
L 101.897136 68.592475 
L 103.026307 68.776699 
L 105.359928 68.719517 
L 106.489099 67.670804 
L 107.655909 66.897343 
L 108.78508 66.762104 
L 109.95189 66.94694 
L 111.1187 67.267254 
L 112.210232 66.722973 
L 113.377042 65.650058 
L 114.506213 65.983588 
L 115.673024 66.935982 
L 116.802195 67.014246 
L 117.969005 66.908753 
L 119.135815 66.273928 
L 120.264986 64.941445 
L 121.431796 65.502106 
L 122.560967 64.910435 
L 123.727777 65.13758 
L 124.894587 64.789233 
L 125.94848 64.216761 
L 127.115291 63.142369 
L 128.244462 63.334473 
L 129.411272 65.19813 
L 130.540443 65.193948 
L 131.707253 66.067379 
L 132.874063 64.650468 
L 134.003234 64.720001 
L 135.170044 63.883959 
L 136.299215 64.147539 
L 137.466026 64.241907 
L 138.632836 62.828909 
L 139.686729 61.973467 
L 140.853539 61.470018 
L 141.98271 63.708957 
L 143.14952 64.209633 
L 145.445501 64.076996 
L 146.612311 62.838755 
L 147.741482 63.396911 
L 150.037464 62.331846 
L 151.204274 62.262267 
L 153.424977 61.017633 
L 154.591787 59.28624 
L 156.887768 62.258662 
L 158.016939 62.753172 
L 159.18375 62.625375 
L 160.35056 61.603723 
L 161.479731 61.048061 
L 162.646541 59.871986 
L 163.775712 60.453285 
L 164.942522 60.476883 
L 166.109332 60.206628 
L 167.200864 59.660146 
L 168.367674 59.314045 
L 169.496845 59.386891 
L 170.663656 60.97164 
L 171.792827 60.63184 
L 172.959637 60.521507 
L 174.126447 59.587021 
L 175.255618 59.502141 
L 176.422428 58.561023 
L 177.551599 60.25608 
L 178.718409 62.525864 
L 179.885219 61.928255 
L 180.939112 60.0122 
L 182.105923 58.820108 
L 183.235094 61.247372 
L 184.401904 62.050153 
L 185.531075 62.540823 
L 186.697885 61.683504 
L 187.864695 61.264749 
L 188.993866 59.766271 
L 190.160676 59.510459 
L 191.289847 57.651715 
L 192.456658 58.701748 
L 193.623468 57.615728 
L 194.677361 55.447532 
L 195.844171 55.414004 
L 196.973342 58.054641 
L 198.140152 58.753783 
L 199.269323 59.178097 
L 200.436133 58.74324 
L 201.602943 58.593049 
L 202.732114 57.311193 
L 203.898925 57.750476 
L 205.028096 57.382981 
L 207.361716 55.690532 
L 208.415609 53.507759 
L 209.582419 55.381743 
L 210.71159 55.960286 
L 211.8784 57.42339 
L 213.007571 58.115105 
L 214.174382 57.750457 
L 215.341192 55.795062 
L 216.470363 55.682233 
L 217.637173 55.850562 
L 219.933154 54.743983 
L 221.099964 54.391289 
L 222.191496 51.528762 
L 223.358306 51.1616 
L 225.654288 55.484439 
L 226.783459 57.476209 
L 227.950269 57.411247 
L 229.117079 55.069165 
L 230.24625 54.434171 
L 231.41306 53.119796 
L 232.542231 54.360286 
L 233.709041 53.055364 
L 234.875851 54.260957 
L 235.929744 51.791394 
L 237.096555 52.582343 
L 238.225726 53.881285 
L 239.392536 55.840824 
L 240.521707 56.117798 
L 241.688517 55.474663 
L 242.855327 54.187483 
L 243.984498 53.464854 
L 245.151308 52.483268 
L 246.280479 52.317412 
L 247.44729 53.53876 
L 248.6141 48.241984 
L 249.667993 48.505461 
L 250.834803 49.936823 
L 251.963974 51.944769 
L 253.130784 52.688634 
L 254.259955 54.18466 
L 256.593575 53.637725 
L 257.722746 51.885721 
L 258.889557 50.781946 
L 261.185538 51.335727 
L 262.352348 46.804431 
L 263.406241 47.847595 
L 264.573051 48.560354 
L 265.702222 53.053813 
L 266.869032 54.341323 
L 267.998203 55.333731 
L 269.165014 55.191998 
L 270.331824 54.092279 
L 271.460995 52.230895 
L 272.627805 50.902847 
L 273.756976 50.936692 
L 276.090596 50.578138 
L 277.182128 47.34511 
L 279.478109 49.443848 
L 280.64492 53.247003 
L 281.774091 53.610725 
L 282.940901 54.264853 
L 284.107711 52.899632 
L 285.236882 52.508233 
L 286.403692 51.913809 
L 287.532863 51.584749 
L 288.699673 50.694586 
L 289.866483 47.343216 
L 290.920376 45.827833 
L 292.087187 46.677246 
L 293.216358 51.113956 
L 294.383168 52.23205 
L 295.512339 53.02744 
L 296.679149 54.530018 
L 298.97513 51.308348 
L 300.14194 50.341472 
L 301.271111 50.568709 
L 302.437922 49.406579 
L 303.604732 47.287339 
L 304.658625 47.413121 
L 305.825435 46.025089 
L 308.121416 52.6696 
L 309.250587 53.054441 
L 310.417397 52.998771 
L 311.584207 52.331606 
L 312.713378 51.3696 
L 313.880189 49.490782 
L 315.00936 49.348815 
L 316.17617 48.318785 
L 317.34298 43.43074 
L 318.396873 44.581711 
L 319.563683 47.14308 
L 320.692854 48.133961 
L 322.988835 52.591179 
L 324.155646 53.116504 
L 325.322456 52.423944 
L 326.451627 50.032224 
L 327.618437 48.066702 
L 329.914418 48.362127 
L 331.081228 45.623149 
L 332.17276 45.412286 
L 333.33957 47.547995 
L 334.468741 55.006389 
L 335.635552 56.01362 
L 339.098343 52.121533 
L 340.227514 48.27928 
L 341.394324 46.456718 
L 342.523495 47.634393 
L 344.857115 44.502845 
L 345.911008 44.121848 
L 347.077819 42.583038 
L 348.20699 46.159975 
L 349.3738 47.428931 
L 350.502971 47.87461 
L 351.669781 48.475683 
L 352.836591 46.632674 
L 353.965762 44.325007 
L 355.132572 46.842873 
L 356.261743 44.188476 
L 357.428554 44.352115 
L 358.595364 42.882276 
L 359.649257 41.31227 
L 360.816067 40.887733 
L 361.945238 45.05192 
L 363.112048 47.342898 
L 364.241219 48.427623 
L 365.408029 47.779692 
L 366.574839 47.313833 
L 367.70401 46.731083 
L 368.870821 45.512689 
L 369.999992 45.822067 
L 371.166802 45.619895 
L 372.333612 43.780284 
L 373.387505 41.261673 
L 374.554315 40.415648 
L 375.683486 45.125923 
L 376.850296 43.563014 
L 377.979467 45.160114 
L 379.146278 45.266719 
L 381.442259 39.700534 
L 382.609069 38.430817 
L 383.73824 35.619051 
L 384.90505 35.637759 
L 386.07186 36.374992 
L 387.163392 33.879245 
L 388.330202 34.099607 
L 389.459373 36.381309 
L 390.626184 38.322846 
L 391.755355 41.153452 
L 392.922165 41.052573 
L 394.088975 39.454663 
L 395.218146 35.809041 
L 396.384956 35.532779 
L 397.514127 35.663111 
L 398.680937 36.53488 
L 399.847747 33.603182 
L 400.90164 28.562405 
L 402.068451 31.252155 
L 403.197622 36.683656 
L 404.364432 39.006467 
L 404.364432 39.006467 
" clip-path="url(#p4d54399ea8)" style="fill: none; stroke: #4596f3; stroke-width: 0.5; stroke-linecap: square"/>
   </g>
   <g id="patch_3">
    <path d="M 38.71625 77.332903 
L 38.71625 26.24 
" style="fill: none; stroke: #000000; stroke-width: 0.8; stroke-linejoin: miter; stroke-linecap: square"/>
   </g>
   <g id="patch_4">
    <path d="M 38.71625 77.332903 
L 421.77625 77.332903 
" style="fill: none; stroke: #000000; stroke-width: 0.8; stroke-linejoin: miter; stroke-linecap: square"/>
   </g>
  </g>
  <g id="axes_2">
   <g id="patch_5">
    <path d="M 38.71625 142.075269 
L 421.77625 142.075269 
L 421.77625 90.982366 
L 38.71625 90.982366 
z
" style="fill: #ffffff"/>
   </g>
   <g id="matplotlib.axis_3">
    <g id="xtick_8">
     <g id="line2d_22">
      <path d="M 54.998897 142.075269 
L 54.998897 90.982366 
" clip-path="url(#pa179653b77)" style="fill: none; stroke-dasharray: 2.96,1.28; stroke-dashoffset: 0; stroke: #b0b0b0; stroke-opacity: 0.5; stroke-width: 0.8"/>
     </g>
     <g id="line2d_23">
      <g>
       <use xlink:href="#m441216923f" x="54.998897" y="142.075269" style="stroke: #000000; stroke-width: 0.8"/>
      </g>
     </g>
    </g>
    <g id="xtick_9">
     <g id="line2d_24">
      <path d="M 109.989529 142.075269 
L 109.989529 90.982366 
" clip-path="url(#pa179653b77)" style="fill: none; stroke-dasharray: 2.96,1.28; stroke-dashoffset: 0; stroke: #b0b0b0; stroke-opacity: 0.5; stroke-width: 0.8"/>
     </g>
     <g id="line2d_25">
      <g>
       <use xlink:href="#m441216923f" x="109.989529" y="142.075269" style="stroke: #000000; stroke-width: 0.8"/>
      </g>
     </g>
    </g>
    <g id="xtick_10">
     <g id="line2d_26">
      <path d="M 164.980161 142.075269 
L 164.980161 90.982366 
" clip-path="url(#pa179653b77)" style="fill: none; stroke-dasharray: 2.96,1.28; stroke-dashoffset: 0; stroke: #b0b0b0; stroke-opacity: 0.5; stroke-width: 0.8"/>
     </g>
     <g id="line2d_27">
      <g>
       <use xlink:href="#m441216923f" x="164.980161" y="142.075269" style="stroke: #000000; stroke-width: 0.8"/>
      </g>
     </g>
    </g>
    <g id="xtick_11">
     <g id="line2d_28">
      <path d="M 219.970793 142.075269 
L 219.970793 90.982366 
" clip-path="url(#pa179653b77)" style="fill: none; stroke-dasharray: 2.96,1.28; stroke-dashoffset: 0; stroke: #b0b0b0; stroke-opacity: 0.5; stroke-width: 0.8"/>
     </g>
     <g id="line2d_29">
      <g>
       <use xlink:href="#m441216923f" x="219.970793" y="142.075269" style="stroke: #000000; stroke-width: 0.8"/>
      </g>
     </g>
    </g>
    <g id="xtick_12">
     <g id="line2d_30">
      <path d="M 274.961425 142.075269 
L 274.961425 90.982366 
" clip-path="url(#pa179653b77)" style="fill: none; stroke-dasharray: 2.96,1.28; stroke-dashoffset: 0; stroke: #b0b0b0; stroke-opacity: 0.5; stroke-width: 0.8"/>
     </g>
     <g id="line2d_31">
      <g>
       <use xlink:href="#m441216923f" x="274.961425" y="142.075269" style="stroke: #000000; stroke-width: 0.8"/>
      </g>
     </g>
    </g>
    <g id="xtick_13">
     <g id="line2d_32">
      <path d="M 329.952057 142.075269 
L 329.952057 90.982366 
" clip-path="url(#pa179653b77)" style="fill: none; stroke-dasharray: 2.96,1.28; stroke-dashoffset: 0; stroke: #b0b0b0; stroke-opacity: 0.5; stroke-width: 0.8"/>
     </g>
     <g id="line2d_33">
      <g>
       <use xlink:href="#m441216923f" x="329.952057" y="142.075269" style="stroke: #000000; stroke-width: 0.8"/>
      </g>
     </g>
    </g>
    <g id="xtick_14">
     <g id="line2d_34">
      <path d="M 384.942689 142.075269 
L 384.942689 90.982366 
" clip-path="url(#pa179653b77)" style="fill: none; stroke-dasharray: 2.96,1.28; stroke-dashoffset: 0; stroke: #b0b0b0; stroke-opacity: 0.5; stroke-width: 0.8"/>
     </g>
     <g id="line2d_35">
      <g>
       <use xlink:href="#m441216923f" x="384.942689" y="142.075269" style="stroke: #000000; stroke-width: 0.8"/>
      </g>
     </g>
    </g>
   </g>
   <g id="matplotlib.axis_4">
    <g id="ytick_4">
     <g id="line2d_36">
      <path d="M 38.71625 118.750359 
L 421.77625 118.750359 
" clip-path="url(#pa179653b77)" style="fill: none; stroke-dasharray: 2.96,1.28; stroke-dashoffset: 0; stroke: #b0b0b0; stroke-opacity: 0.5; stroke-width: 0.8"/>
     </g>
     <g id="line2d_37">
      <g>
       <use xlink:href="#m9cd43a0e91" x="38.71625" y="118.750359" style="stroke: #000000; stroke-width: 0.8"/>
      </g>
     </g>
     <g id="text_4">
      <!-- 0 -->
      <g transform="translate(26.62625 121.789734) scale(0.08 -0.08)">
       <use xlink:href="#DejaVuSerif-30"/>
      </g>
     </g>
    </g>
    <g id="ytick_5">
     <g id="line2d_38">
      <path d="M 38.71625 94.573073 
L 421.77625 94.573073 
" clip-path="url(#pa179653b77)" style="fill: none; stroke-dasharray: 2.96,1.28; stroke-dashoffset: 0; stroke: #b0b0b0; stroke-opacity: 0.5; stroke-width: 0.8"/>
     </g>
     <g id="line2d_39">
      <g>
       <use xlink:href="#m9cd43a0e91" x="38.71625" y="94.573073" style="stroke: #000000; stroke-width: 0.8"/>
      </g>
     </g>
     <g id="text_5">
      <!-- 2 -->
      <g transform="translate(26.62625 97.612448) scale(0.08 -0.08)">
       <use xlink:href="#DejaVuSerif-32"/>
      </g>
     </g>
    </g>
   </g>
   <g id="line2d_40">
    <path d="M 56.128068 136.974823 
L 59.515581 136.07141 
L 64.145183 135.097964 
L 67.570335 134.465373 
L 68.737145 134.681603 
L 69.903955 135.073687 
L 73.25383 136.859776 
L 76.716621 138.657133 
L 79.012602 139.492869 
L 80.179412 139.709021 
L 81.308583 139.752864 
L 82.475394 139.615232 
L 83.642204 139.311919 
L 86.992078 137.817486 
L 90.454869 136.27381 
L 92.75085 135.552 
L 95.046832 135.116412 
L 99.601155 134.627222 
L 108.78508 133.684076 
L 115.673024 132.460526 
L 125.94848 130.548353 
L 132.874063 129.81282 
L 147.741482 127.857525 
L 161.479731 125.619544 
L 164.942522 125.178433 
L 169.496845 124.521657 
L 171.792827 124.510831 
L 176.422428 124.900671 
L 182.105923 125.456939 
L 184.401904 125.288923 
L 186.697885 124.725574 
L 194.677361 122.218612 
L 198.140152 121.56686 
L 203.898925 120.855908 
L 208.415609 120.163728 
L 224.487477 117.506179 
L 226.783459 117.279494 
L 229.117079 117.242845 
L 233.709041 117.268063 
L 237.096555 116.915063 
L 240.521707 116.412053 
L 243.984498 115.606166 
L 247.44729 114.822533 
L 251.963974 114.104965 
L 256.593575 113.56552 
L 258.889557 113.545488 
L 267.998203 114.03497 
L 270.331824 114.123386 
L 272.627805 114.0121 
L 278.348938 113.416953 
L 282.940901 113.290226 
L 293.216358 112.616784 
L 296.679149 112.436774 
L 303.604732 112.199222 
L 308.121416 111.86263 
L 316.17617 110.83543 
L 322.988835 110.497636 
L 325.322456 110.689898 
L 327.618437 111.237923 
L 329.914418 111.838109 
L 332.17276 112.137995 
L 334.468741 112.045288 
L 336.764723 111.751674 
L 339.098343 111.176643 
L 341.394324 110.137563 
L 345.911008 107.590278 
L 348.20699 106.834982 
L 351.669781 106.129115 
L 355.132572 105.643391 
L 357.428554 105.529552 
L 360.816067 105.62496 
L 366.574839 105.969251 
L 368.870821 105.860078 
L 371.166802 105.411299 
L 372.333612 105.034596 
L 374.554315 103.929684 
L 376.850296 102.34121 
L 380.313088 99.743349 
L 382.609069 98.226023 
L 384.90505 97.036917 
L 387.163392 96.17006 
L 389.459373 95.589885 
L 397.514127 94.265235 
L 404.364432 93.30477 
L 404.364432 93.30477 
" clip-path="url(#pa179653b77)" style="fill: none; stroke: #ff5656; stroke-width: 0.5; stroke-linecap: square"/>
   </g>
   <g id="patch_6">
    <path d="M 38.71625 142.075269 
L 38.71625 90.982366 
" style="fill: none; stroke: #000000; stroke-width: 0.8; stroke-linejoin: miter; stroke-linecap: square"/>
   </g>
   <g id="patch_7">
    <path d="M 38.71625 142.075269 
L 421.77625 142.075269 
" style="fill: none; stroke: #000000; stroke-width: 0.8; stroke-linejoin: miter; stroke-linecap: square"/>
   </g>
  </g>
  <g id="axes_3">
   <g id="patch_8">
    <path d="M 38.71625 206.817634 
L 421.77625 206.817634 
L 421.77625 155.724731 
L 38.71625 155.724731 
z
" style="fill: #ffffff"/>
   </g>
   <g id="matplotlib.axis_5">
    <g id="xtick_15">
     <g id="line2d_41">
      <path d="M 54.998897 206.817634 
L 54.998897 155.724731 
" clip-path="url(#p0ea3f76732)" style="fill: none; stroke-dasharray: 2.96,1.28; stroke-dashoffset: 0; stroke: #b0b0b0; stroke-opacity: 0.5; stroke-width: 0.8"/>
     </g>
     <g id="line2d_42">
      <g>
       <use xlink:href="#m441216923f" x="54.998897" y="206.817634" style="stroke: #000000; stroke-width: 0.8"/>
      </g>
     </g>
    </g>
    <g id="xtick_16">
     <g id="line2d_43">
      <path d="M 109.989529 206.817634 
L 109.989529 155.724731 
" clip-path="url(#p0ea3f76732)" style="fill: none; stroke-dasharray: 2.96,1.28; stroke-dashoffset: 0; stroke: #b0b0b0; stroke-opacity: 0.5; stroke-width: 0.8"/>
     </g>
     <g id="line2d_44">
      <g>
       <use xlink:href="#m441216923f" x="109.989529" y="206.817634" style="stroke: #000000; stroke-width: 0.8"/>
      </g>
     </g>
    </g>
    <g id="xtick_17">
     <g id="line2d_45">
      <path d="M 164.980161 206.817634 
L 164.980161 155.724731 
" clip-path="url(#p0ea3f76732)" style="fill: none; stroke-dasharray: 2.96,1.28; stroke-dashoffset: 0; stroke: #b0b0b0; stroke-opacity: 0.5; stroke-width: 0.8"/>
     </g>
     <g id="line2d_46">
      <g>
       <use xlink:href="#m441216923f" x="164.980161" y="206.817634" style="stroke: #000000; stroke-width: 0.8"/>
      </g>
     </g>
    </g>
    <g id="xtick_18">
     <g id="line2d_47">
      <path d="M 219.970793 206.817634 
L 219.970793 155.724731 
" clip-path="url(#p0ea3f76732)" style="fill: none; stroke-dasharray: 2.96,1.28; stroke-dashoffset: 0; stroke: #b0b0b0; stroke-opacity: 0.5; stroke-width: 0.8"/>
     </g>
     <g id="line2d_48">
      <g>
       <use xlink:href="#m441216923f" x="219.970793" y="206.817634" style="stroke: #000000; stroke-width: 0.8"/>
      </g>
     </g>
    </g>
    <g id="xtick_19">
     <g id="line2d_49">
      <path d="M 274.961425 206.817634 
L 274.961425 155.724731 
" clip-path="url(#p0ea3f76732)" style="fill: none; stroke-dasharray: 2.96,1.28; stroke-dashoffset: 0; stroke: #b0b0b0; stroke-opacity: 0.5; stroke-width: 0.8"/>
     </g>
     <g id="line2d_50">
      <g>
       <use xlink:href="#m441216923f" x="274.961425" y="206.817634" style="stroke: #000000; stroke-width: 0.8"/>
      </g>
     </g>
    </g>
    <g id="xtick_20">
     <g id="line2d_51">
      <path d="M 329.952057 206.817634 
L 329.952057 155.724731 
" clip-path="url(#p0ea3f76732)" style="fill: none; stroke-dasharray: 2.96,1.28; stroke-dashoffset: 0; stroke: #b0b0b0; stroke-opacity: 0.5; stroke-width: 0.8"/>
     </g>
     <g id="line2d_52">
      <g>
       <use xlink:href="#m441216923f" x="329.952057" y="206.817634" style="stroke: #000000; stroke-width: 0.8"/>
      </g>
     </g>
    </g>
    <g id="xtick_21">
     <g id="line2d_53">
      <path d="M 384.942689 206.817634 
L 384.942689 155.724731 
" clip-path="url(#p0ea3f76732)" style="fill: none; stroke-dasharray: 2.96,1.28; stroke-dashoffset: 0; stroke: #b0b0b0; stroke-opacity: 0.5; stroke-width: 0.8"/>
     </g>
     <g id="line2d_54">
      <g>
       <use xlink:href="#m441216923f" x="384.942689" y="206.817634" style="stroke: #000000; stroke-width: 0.8"/>
      </g>
     </g>
    </g>
   </g>
   <g id="matplotlib.axis_6">
    <g id="ytick_6">
     <g id="line2d_55">
      <path d="M 38.71625 184.44043 
L 421.77625 184.44043 
" clip-path="url(#p0ea3f76732)" style="fill: none; stroke-dasharray: 2.96,1.28; stroke-dashoffset: 0; stroke: #b0b0b0; stroke-opacity: 0.5; stroke-width: 0.8"/>
     </g>
     <g id="line2d_56">
      <g>
       <use xlink:href="#m9cd43a0e91" x="38.71625" y="184.44043" style="stroke: #000000; stroke-width: 0.8"/>
      </g>
     </g>
     <g id="text_6">
      <!-- 0.0 -->
      <g transform="translate(18.99375 187.479805) scale(0.08 -0.08)">
       <defs>
        <path id="DejaVuSerif-2e" d="M 603 325 
Q 603 500 722 622 
Q 841 744 1019 744 
Q 1191 744 1312 622 
Q 1434 500 1434 325 
Q 1434 153 1312 31 
Q 1191 -91 1019 -91 
Q 841 -91 722 29 
Q 603 150 603 325 
z
" transform="scale(0.015625)"/>
       </defs>
       <use xlink:href="#DejaVuSerif-30"/>
       <use xlink:href="#DejaVuSerif-2e" transform="translate(63.623047 0)"/>
       <use xlink:href="#DejaVuSerif-30" transform="translate(95.410156 0)"/>
      </g>
     </g>
    </g>
    <g id="ytick_7">
     <g id="line2d_57">
      <path d="M 38.71625 158.983755 
L 421.77625 158.983755 
" clip-path="url(#p0ea3f76732)" style="fill: none; stroke-dasharray: 2.96,1.28; stroke-dashoffset: 0; stroke: #b0b0b0; stroke-opacity: 0.5; stroke-width: 0.8"/>
     </g>
     <g id="line2d_58">
      <g>
       <use xlink:href="#m9cd43a0e91" x="38.71625" y="158.983755" style="stroke: #000000; stroke-width: 0.8"/>
      </g>
     </g>
     <g id="text_7">
      <!-- 0.5 -->
      <g transform="translate(18.99375 162.02313) scale(0.08 -0.08)">
       <defs>
        <path id="DejaVuSerif-35" d="M 3219 4666 
L 3219 4153 
L 1081 4153 
L 1081 2816 
Q 1244 2928 1461 2984 
Q 1678 3041 1947 3041 
Q 2703 3041 3140 2622 
Q 3578 2203 3578 1478 
Q 3578 738 3136 323 
Q 2694 -91 1894 -91 
Q 1572 -91 1234 -12 
Q 897 66 544 225 
L 544 1131 
L 897 1131 
Q 925 688 1179 453 
Q 1434 219 1894 219 
Q 2388 219 2653 544 
Q 2919 869 2919 1478 
Q 2919 2084 2655 2407 
Q 2391 2731 1894 2731 
Q 1613 2731 1398 2631 
Q 1184 2531 1019 2322 
L 750 2322 
L 750 4666 
L 3219 4666 
z
" transform="scale(0.015625)"/>
       </defs>
       <use xlink:href="#DejaVuSerif-30"/>
       <use xlink:href="#DejaVuSerif-2e" transform="translate(63.623047 0)"/>
       <use xlink:href="#DejaVuSerif-35" transform="translate(95.410156 0)"/>
      </g>
     </g>
    </g>
   </g>
   <g id="line2d_59">
    <path d="M 56.128068 182.944061 
L 57.2196 176.622147 
L 58.38641 175.57719 
L 59.515581 176.293506 
L 60.682392 181.181056 
L 61.811563 190.842809 
L 62.978373 193.905659 
L 64.145183 190.398725 
L 65.274354 189.753523 
L 66.441164 183.748599 
L 67.570335 184.704962 
L 68.737145 186.146961 
L 69.903955 183.020643 
L 70.957848 177.221264 
L 72.124659 175.720232 
L 73.25383 177.130506 
L 74.42064 182.554446 
L 75.549811 190.603447 
L 76.716621 193.327086 
L 77.883431 189.733963 
L 79.012602 188.897388 
L 80.179412 183.603869 
L 81.308583 184.418216 
L 82.475394 185.985272 
L 83.642204 183.04818 
L 84.696097 177.761598 
L 85.862907 175.756675 
L 86.992078 177.938125 
L 88.158888 183.870478 
L 89.288059 190.44256 
L 90.454869 192.821938 
L 91.621679 189.08187 
L 92.75085 188.116102 
L 93.917661 183.46189 
L 95.046832 184.179728 
L 96.213642 185.893878 
L 97.380452 183.047863 
L 98.434345 178.253719 
L 99.601155 175.698217 
L 100.730326 178.675991 
L 101.897136 185.122406 
L 103.026307 190.334569 
L 104.193118 192.35085 
L 105.359928 188.440387 
L 106.489099 187.392968 
L 107.655909 183.260162 
L 108.78508 183.941722 
L 109.95189 185.85866 
L 111.1187 183.078222 
L 112.210232 178.743901 
L 113.377042 175.702947 
L 114.506213 179.447815 
L 115.673024 186.375071 
L 116.802195 190.170883 
L 117.969005 191.783176 
L 119.135815 187.748675 
L 120.264986 186.59364 
L 121.431796 182.909186 
L 122.560967 183.624924 
L 123.727777 185.812821 
L 124.894587 183.227602 
L 125.94848 179.427261 
L 127.115291 176.19852 
L 128.244462 180.810677 
L 129.411272 187.897359 
L 130.540443 189.691919 
L 131.707253 190.908217 
L 132.874063 186.797813 
L 134.003234 185.487616 
L 135.170044 182.420618 
L 136.299215 183.325204 
L 137.466026 185.749334 
L 138.632836 183.520929 
L 139.686729 179.564398 
L 140.853539 175.959821 
L 141.98271 181.886477 
L 143.14952 188.838095 
L 144.278691 190.058881 
L 145.445501 190.693145 
L 146.612311 186.477221 
L 147.741482 184.86742 
L 148.908293 182.271754 
L 150.037464 183.104488 
L 151.204274 186.158024 
L 152.371084 183.461849 
L 153.424977 178.750463 
L 154.591787 175.11537 
L 155.720958 182.579364 
L 156.887768 189.377593 
L 158.016939 190.794514 
L 159.18375 190.834543 
L 160.35056 186.61633 
L 161.479731 184.793806 
L 162.646541 182.582592 
L 163.775712 183.068425 
L 164.942522 186.226986 
L 166.109332 183.059862 
L 167.200864 177.037038 
L 168.367674 174.495274 
L 169.496845 183.028474 
L 170.663656 189.828893 
L 171.792827 191.841278 
L 172.959637 191.272321 
L 174.126447 186.877051 
L 176.422428 182.839146 
L 177.551599 183.138318 
L 178.718409 185.786002 
L 179.885219 182.835485 
L 180.939112 175.184081 
L 182.105923 174.065127 
L 183.235094 183.079602 
L 184.401904 190.271606 
L 185.531075 193.207618 
L 186.697885 192.109241 
L 187.864695 187.223561 
L 188.993866 184.606789 
L 190.160676 182.752485 
L 191.289847 183.196173 
L 192.456658 185.145287 
L 193.623468 182.5328 
L 194.677361 173.473549 
L 195.844171 173.82352 
L 196.973342 182.99058 
L 198.140152 190.76358 
L 199.269323 194.592095 
L 200.436133 193.205859 
L 201.602943 187.893013 
L 202.732114 184.642857 
L 203.898925 182.743158 
L 205.028096 183.231364 
L 206.194906 184.766151 
L 207.361716 180.744135 
L 208.415609 171.4318 
L 209.582419 173.479082 
L 210.71159 183.336158 
L 211.8784 191.28712 
L 213.007571 195.989695 
L 214.174382 194.530187 
L 215.341192 189.07526 
L 216.470363 185.133539 
L 217.637173 183.010665 
L 218.766344 183.30753 
L 219.933154 184.261843 
L 221.099964 177.710996 
L 222.191496 169.245026 
L 223.358306 172.810389 
L 224.487477 183.768431 
L 225.654288 192.010306 
L 226.783459 197.425248 
L 227.950269 196.159477 
L 229.117079 190.436035 
L 230.24625 185.865242 
L 231.41306 183.141609 
L 232.542231 183.473789 
L 233.709041 183.535586 
L 235.929744 167.378412 
L 237.096555 171.993697 
L 238.225726 183.611809 
L 239.392536 192.796662 
L 240.521707 198.435922 
L 241.688517 197.826915 
L 242.855327 191.550801 
L 243.984498 186.660768 
L 245.151308 182.985813 
L 246.280479 183.777463 
L 247.44729 183.121019 
L 248.6141 173.099887 
L 249.667993 166.038556 
L 250.834803 170.776474 
L 251.963974 183.476924 
L 253.130784 193.544058 
L 254.259955 198.985498 
L 255.426765 199.341047 
L 256.593575 192.826352 
L 257.722746 187.537242 
L 258.889557 182.894923 
L 260.018728 183.8896 
L 261.185538 182.880988 
L 262.352348 170.827027 
L 263.406241 165.146656 
L 264.573051 169.399398 
L 265.702222 183.517981 
L 266.869032 194.227117 
L 267.998203 199.337138 
L 269.165014 200.527638 
L 272.627805 183.033379 
L 273.756976 183.794475 
L 274.923786 182.401749 
L 276.090596 167.883285 
L 277.182128 164.155146 
L 278.348938 168.607506 
L 279.478109 183.943538 
L 280.64492 195.069162 
L 281.774091 199.924785 
L 282.940901 201.620146 
L 284.107711 196.16267 
L 285.236882 189.099282 
L 286.403692 182.853227 
L 287.532863 183.344801 
L 288.699673 181.337726 
L 289.866483 165.712786 
L 290.920376 163.149829 
L 292.087187 167.946746 
L 293.216358 185.100016 
L 294.383168 196.472501 
L 295.512339 200.77539 
L 296.679149 202.605635 
L 297.845959 197.121899 
L 298.97513 188.74659 
L 300.14194 182.301558 
L 301.271111 182.830876 
L 302.437922 179.911463 
L 303.604732 165.259415 
L 304.658625 162.925127 
L 305.825435 167.257911 
L 306.954606 186.215164 
L 308.121416 197.585474 
L 309.250587 201.218489 
L 310.417397 202.997185 
L 311.584207 197.197687 
L 312.713378 187.842652 
L 313.880189 182.321753 
L 315.00936 182.458927 
L 316.17617 179.165131 
L 317.34298 165.663002 
L 318.396873 163.376976 
L 319.563683 166.639644 
L 320.692854 187.088796 
L 321.859664 197.838849 
L 322.988835 201.390127 
L 324.155646 202.749615 
L 325.322456 196.894775 
L 326.451627 187.031 
L 327.618437 182.495794 
L 328.747608 181.948421 
L 329.914418 179.039419 
L 331.081228 166.418446 
L 332.17276 164.043774 
L 333.33957 166.345719 
L 334.468741 188.112511 
L 335.635552 197.41272 
L 336.764723 201.741292 
L 337.931533 202.825837 
L 339.098343 196.545305 
L 340.227514 186.210804 
L 341.394324 182.407954 
L 343.690305 179.195684 
L 344.857115 168.630693 
L 345.911008 163.508575 
L 347.077819 166.040806 
L 348.20699 188.23787 
L 349.3738 196.837864 
L 350.502971 202.467477 
L 351.669781 203.259618 
L 352.836591 196.518661 
L 353.965762 185.189542 
L 355.132572 182.219602 
L 356.261743 179.961889 
L 357.428554 179.699887 
L 359.649257 162.250038 
L 360.816067 165.500341 
L 361.945238 188.431667 
L 363.112048 196.79268 
L 364.241219 203.126014 
L 365.408029 203.652311 
L 366.574839 196.411995 
L 367.70401 184.156145 
L 368.870821 182.200927 
L 369.999992 179.216308 
L 371.166802 180.348283 
L 372.333612 172.895498 
L 373.387505 160.943831 
L 374.554315 164.83689 
L 375.683486 188.472266 
L 376.850296 196.62219 
L 377.979467 203.703006 
L 379.146278 204.033171 
L 380.313088 196.255726 
L 381.442259 183.223228 
L 382.609069 182.288746 
L 383.73824 178.519476 
L 384.90505 181.080877 
L 386.07186 175.239467 
L 387.163392 159.579183 
L 388.330202 164.141529 
L 389.459373 188.364776 
L 391.755355 204.267769 
L 392.922165 204.49523 
L 394.088975 196.128865 
L 395.218146 182.385426 
L 396.384956 182.395618 
L 397.514127 177.814027 
L 398.680937 181.846819 
L 399.847747 177.593792 
L 400.90164 158.047136 
L 402.068451 163.446771 
L 403.197622 188.129815 
L 404.364432 196.023986 
L 404.364432 196.023986 
" clip-path="url(#p0ea3f76732)" style="fill: none; stroke: #ffa722; stroke-width: 0.5; stroke-linecap: square"/>
   </g>
   <g id="patch_9">
    <path d="M 38.71625 206.817634 
L 38.71625 155.724731 
" style="fill: none; stroke: #000000; stroke-width: 0.8; stroke-linejoin: miter; stroke-linecap: square"/>
   </g>
   <g id="patch_10">
    <path d="M 38.71625 206.817634 
L 421.77625 206.817634 
" style="fill: none; stroke: #000000; stroke-width: 0.8; stroke-linejoin: miter; stroke-linecap: square"/>
   </g>
  </g>
  <g id="axes_4">
   <g id="patch_11">
    <path d="M 38.71625 271.56 
L 421.77625 271.56 
L 421.77625 220.467097 
L 38.71625 220.467097 
z
" style="fill: #ffffff"/>
   </g>
   <g id="matplotlib.axis_7">
    <g id="xtick_22">
     <g id="line2d_60">
      <path d="M 54.998897 271.56 
L 54.998897 220.467097 
" clip-path="url(#p0d12af6375)" style="fill: none; stroke-dasharray: 2.96,1.28; stroke-dashoffset: 0; stroke: #b0b0b0; stroke-opacity: 0.5; stroke-width: 0.8"/>
     </g>
     <g id="line2d_61">
      <g>
       <use xlink:href="#m441216923f" x="54.998897" y="271.56" style="stroke: #000000; stroke-width: 0.8"/>
      </g>
     </g>
     <g id="text_8">
      <!-- 2000 -->
      <g transform="translate(44.818897 284.63875) scale(0.08 -0.08)">
       <use xlink:href="#DejaVuSerif-32"/>
       <use xlink:href="#DejaVuSerif-30" transform="translate(63.623047 0)"/>
       <use xlink:href="#DejaVuSerif-30" transform="translate(127.246094 0)"/>
       <use xlink:href="#DejaVuSerif-30" transform="translate(190.869141 0)"/>
      </g>
     </g>
    </g>
    <g id="xtick_23">
     <g id="line2d_62">
      <path d="M 109.989529 271.56 
L 109.989529 220.467097 
" clip-path="url(#p0d12af6375)" style="fill: none; stroke-dasharray: 2.96,1.28; stroke-dashoffset: 0; stroke: #b0b0b0; stroke-opacity: 0.5; stroke-width: 0.8"/>
     </g>
     <g id="line2d_63">
      <g>
       <use xlink:href="#m441216923f" x="109.989529" y="271.56" style="stroke: #000000; stroke-width: 0.8"/>
      </g>
     </g>
     <g id="text_9">
      <!-- 2004 -->
      <g transform="translate(99.809529 284.63875) scale(0.08 -0.08)">
       <defs>
        <path id="DejaVuSerif-34" d="M 2234 1581 
L 2234 4063 
L 641 1581 
L 2234 1581 
z
M 3609 0 
L 1484 0 
L 1484 331 
L 2234 331 
L 2234 1247 
L 197 1247 
L 197 1588 
L 2241 4750 
L 2859 4750 
L 2859 1581 
L 3750 1581 
L 3750 1247 
L 2859 1247 
L 2859 331 
L 3609 331 
L 3609 0 
z
" transform="scale(0.015625)"/>
       </defs>
       <use xlink:href="#DejaVuSerif-32"/>
       <use xlink:href="#DejaVuSerif-30" transform="translate(63.623047 0)"/>
       <use xlink:href="#DejaVuSerif-30" transform="translate(127.246094 0)"/>
       <use xlink:href="#DejaVuSerif-34" transform="translate(190.869141 0)"/>
      </g>
     </g>
    </g>
    <g id="xtick_24">
     <g id="line2d_64">
      <path d="M 164.980161 271.56 
L 164.980161 220.467097 
" clip-path="url(#p0d12af6375)" style="fill: none; stroke-dasharray: 2.96,1.28; stroke-dashoffset: 0; stroke: #b0b0b0; stroke-opacity: 0.5; stroke-width: 0.8"/>
     </g>
     <g id="line2d_65">
      <g>
       <use xlink:href="#m441216923f" x="164.980161" y="271.56" style="stroke: #000000; stroke-width: 0.8"/>
      </g>
     </g>
     <g id="text_10">
      <!-- 2008 -->
      <g transform="translate(154.800161 284.63875) scale(0.08 -0.08)">
       <defs>
        <path id="DejaVuSerif-38" d="M 2981 1275 
Q 2981 1775 2732 2051 
Q 2484 2328 2034 2328 
Q 1584 2328 1336 2051 
Q 1088 1775 1088 1275 
Q 1088 772 1336 495 
Q 1584 219 2034 219 
Q 2484 219 2732 495 
Q 2981 772 2981 1275 
z
M 2853 3541 
Q 2853 3966 2637 4203 
Q 2422 4441 2034 4441 
Q 1650 4441 1433 4203 
Q 1216 3966 1216 3541 
Q 1216 3113 1433 2875 
Q 1650 2638 2034 2638 
Q 2422 2638 2637 2875 
Q 2853 3113 2853 3541 
z
M 2516 2484 
Q 3047 2413 3344 2092 
Q 3641 1772 3641 1275 
Q 3641 619 3225 264 
Q 2809 -91 2034 -91 
Q 1263 -91 845 264 
Q 428 619 428 1275 
Q 428 1772 725 2092 
Q 1022 2413 1556 2484 
Q 1084 2569 832 2842 
Q 581 3116 581 3541 
Q 581 4103 968 4426 
Q 1356 4750 2034 4750 
Q 2713 4750 3100 4426 
Q 3488 4103 3488 3541 
Q 3488 3116 3236 2842 
Q 2984 2569 2516 2484 
z
" transform="scale(0.015625)"/>
       </defs>
       <use xlink:href="#DejaVuSerif-32"/>
       <use xlink:href="#DejaVuSerif-30" transform="translate(63.623047 0)"/>
       <use xlink:href="#DejaVuSerif-30" transform="translate(127.246094 0)"/>
       <use xlink:href="#DejaVuSerif-38" transform="translate(190.869141 0)"/>
      </g>
     </g>
    </g>
    <g id="xtick_25">
     <g id="line2d_66">
      <path d="M 219.970793 271.56 
L 219.970793 220.467097 
" clip-path="url(#p0d12af6375)" style="fill: none; stroke-dasharray: 2.96,1.28; stroke-dashoffset: 0; stroke: #b0b0b0; stroke-opacity: 0.5; stroke-width: 0.8"/>
     </g>
     <g id="line2d_67">
      <g>
       <use xlink:href="#m441216923f" x="219.970793" y="271.56" style="stroke: #000000; stroke-width: 0.8"/>
      </g>
     </g>
     <g id="text_11">
      <!-- 2012 -->
      <g transform="translate(209.790793 284.63875) scale(0.08 -0.08)">
       <defs>
        <path id="DejaVuSerif-31" d="M 909 0 
L 909 331 
L 1722 331 
L 1722 4213 
L 781 3603 
L 781 4013 
L 1919 4750 
L 2350 4750 
L 2350 331 
L 3163 331 
L 3163 0 
L 909 0 
z
" transform="scale(0.015625)"/>
       </defs>
       <use xlink:href="#DejaVuSerif-32"/>
       <use xlink:href="#DejaVuSerif-30" transform="translate(63.623047 0)"/>
       <use xlink:href="#DejaVuSerif-31" transform="translate(127.246094 0)"/>
       <use xlink:href="#DejaVuSerif-32" transform="translate(190.869141 0)"/>
      </g>
     </g>
    </g>
    <g id="xtick_26">
     <g id="line2d_68">
      <path d="M 274.961425 271.56 
L 274.961425 220.467097 
" clip-path="url(#p0d12af6375)" style="fill: none; stroke-dasharray: 2.96,1.28; stroke-dashoffset: 0; stroke: #b0b0b0; stroke-opacity: 0.5; stroke-width: 0.8"/>
     </g>
     <g id="line2d_69">
      <g>
       <use xlink:href="#m441216923f" x="274.961425" y="271.56" style="stroke: #000000; stroke-width: 0.8"/>
      </g>
     </g>
     <g id="text_12">
      <!-- 2016 -->
      <g transform="translate(264.781425 284.63875) scale(0.08 -0.08)">
       <defs>
        <path id="DejaVuSerif-36" d="M 2094 219 
Q 2534 219 2771 542 
Q 3009 866 3009 1472 
Q 3009 2078 2771 2401 
Q 2534 2725 2094 2725 
Q 1647 2725 1412 2412 
Q 1178 2100 1178 1509 
Q 1178 888 1415 553 
Q 1653 219 2094 219 
z
M 1075 2569 
Q 1288 2803 1556 2918 
Q 1825 3034 2163 3034 
Q 2859 3034 3264 2615 
Q 3669 2197 3669 1472 
Q 3669 763 3233 336 
Q 2797 -91 2069 -91 
Q 1278 -91 853 498 
Q 428 1088 428 2181 
Q 428 3406 931 4078 
Q 1434 4750 2350 4750 
Q 2597 4750 2869 4703 
Q 3141 4656 3425 4563 
L 3425 3794 
L 3072 3794 
Q 3034 4109 2831 4275 
Q 2628 4441 2284 4441 
Q 1678 4441 1381 3981 
Q 1084 3522 1075 2569 
z
" transform="scale(0.015625)"/>
       </defs>
       <use xlink:href="#DejaVuSerif-32"/>
       <use xlink:href="#DejaVuSerif-30" transform="translate(63.623047 0)"/>
       <use xlink:href="#DejaVuSerif-31" transform="translate(127.246094 0)"/>
       <use xlink:href="#DejaVuSerif-36" transform="translate(190.869141 0)"/>
      </g>
     </g>
    </g>
    <g id="xtick_27">
     <g id="line2d_70">
      <path d="M 329.952057 271.56 
L 329.952057 220.467097 
" clip-path="url(#p0d12af6375)" style="fill: none; stroke-dasharray: 2.96,1.28; stroke-dashoffset: 0; stroke: #b0b0b0; stroke-opacity: 0.5; stroke-width: 0.8"/>
     </g>
     <g id="line2d_71">
      <g>
       <use xlink:href="#m441216923f" x="329.952057" y="271.56" style="stroke: #000000; stroke-width: 0.8"/>
      </g>
     </g>
     <g id="text_13">
      <!-- 2020 -->
      <g transform="translate(319.772057 284.63875) scale(0.08 -0.08)">
       <use xlink:href="#DejaVuSerif-32"/>
       <use xlink:href="#DejaVuSerif-30" transform="translate(63.623047 0)"/>
       <use xlink:href="#DejaVuSerif-32" transform="translate(127.246094 0)"/>
       <use xlink:href="#DejaVuSerif-30" transform="translate(190.869141 0)"/>
      </g>
     </g>
    </g>
    <g id="xtick_28">
     <g id="line2d_72">
      <path d="M 384.942689 271.56 
L 384.942689 220.467097 
" clip-path="url(#p0d12af6375)" style="fill: none; stroke-dasharray: 2.96,1.28; stroke-dashoffset: 0; stroke: #b0b0b0; stroke-opacity: 0.5; stroke-width: 0.8"/>
     </g>
     <g id="line2d_73">
      <g>
       <use xlink:href="#m441216923f" x="384.942689" y="271.56" style="stroke: #000000; stroke-width: 0.8"/>
      </g>
     </g>
     <g id="text_14">
      <!-- 2024 -->
      <g transform="translate(374.762689 284.63875) scale(0.08 -0.08)">
       <use xlink:href="#DejaVuSerif-32"/>
       <use xlink:href="#DejaVuSerif-30" transform="translate(63.623047 0)"/>
       <use xlink:href="#DejaVuSerif-32" transform="translate(127.246094 0)"/>
       <use xlink:href="#DejaVuSerif-34" transform="translate(190.869141 0)"/>
      </g>
     </g>
    </g>
    <g id="text_15">
     <!-- Série histórica -->
     <g transform="translate(200.56875 296.38125) scale(0.08 -0.08)">
      <defs>
       <path id="DejaVuSerif-53" d="M 594 225 
L 594 1288 
L 953 1284 
Q 969 753 1261 498 
Q 1553 244 2150 244 
Q 2706 244 2998 464 
Q 3291 684 3291 1106 
Q 3291 1444 3114 1625 
Q 2938 1806 2369 1978 
L 1753 2163 
Q 1084 2366 811 2669 
Q 538 2972 538 3500 
Q 538 4094 959 4422 
Q 1381 4750 2144 4750 
Q 2469 4750 2856 4679 
Q 3244 4609 3681 4475 
L 3681 3481 
L 3328 3481 
Q 3275 3975 2998 4195 
Q 2722 4416 2156 4416 
Q 1663 4416 1405 4214 
Q 1147 4013 1147 3628 
Q 1147 3294 1340 3103 
Q 1534 2913 2163 2725 
L 2741 2553 
Q 3375 2363 3645 2067 
Q 3916 1772 3916 1275 
Q 3916 597 3481 253 
Q 3047 -91 2188 -91 
Q 1803 -91 1404 -12 
Q 1006 66 594 225 
z
" transform="scale(0.015625)"/>
       <path id="DejaVuSerif-e9" d="M 3469 1600 
L 991 1600 
L 991 1575 
Q 991 903 1244 561 
Q 1497 219 1991 219 
Q 2369 219 2611 417 
Q 2853 616 2950 1006 
L 3413 1006 
Q 3275 459 2904 184 
Q 2534 -91 1931 -91 
Q 1203 -91 761 389 
Q 319 869 319 1663 
Q 319 2450 753 2931 
Q 1188 3413 1894 3413 
Q 2647 3413 3050 2948 
Q 3453 2484 3469 1600 
z
M 2791 1931 
Q 2772 2513 2545 2808 
Q 2319 3103 1894 3103 
Q 1497 3103 1269 2806 
Q 1041 2509 991 1931 
L 2791 1931 
z
M 2330 5119 
L 2952 5119 
L 1890 3944 
L 1524 3944 
L 2330 5119 
z
" transform="scale(0.015625)"/>
       <path id="DejaVuSerif-72" d="M 3059 3328 
L 3059 2497 
L 2728 2497 
Q 2713 2744 2591 2866 
Q 2469 2988 2234 2988 
Q 1809 2988 1582 2694 
Q 1356 2400 1356 1850 
L 1356 331 
L 2022 331 
L 2022 0 
L 263 0 
L 263 331 
L 781 331 
L 781 2994 
L 231 2994 
L 231 3322 
L 1356 3322 
L 1356 2731 
Q 1525 3078 1790 3245 
Q 2056 3413 2438 3413 
Q 2578 3413 2733 3391 
Q 2888 3369 3059 3328 
z
" transform="scale(0.015625)"/>
       <path id="DejaVuSerif-69" d="M 622 4353 
Q 622 4497 726 4603 
Q 831 4709 978 4709 
Q 1122 4709 1226 4603 
Q 1331 4497 1331 4353 
Q 1331 4206 1228 4103 
Q 1125 4000 978 4000 
Q 831 4000 726 4103 
Q 622 4206 622 4353 
z
M 1356 331 
L 1900 331 
L 1900 0 
L 231 0 
L 231 331 
L 781 331 
L 781 2988 
L 231 2988 
L 231 3322 
L 1356 3322 
L 1356 331 
z
" transform="scale(0.015625)"/>
       <path id="DejaVuSerif-65" d="M 3469 1600 
L 991 1600 
L 991 1575 
Q 991 903 1244 561 
Q 1497 219 1991 219 
Q 2369 219 2611 417 
Q 2853 616 2950 1006 
L 3413 1006 
Q 3275 459 2904 184 
Q 2534 -91 1931 -91 
Q 1203 -91 761 389 
Q 319 869 319 1663 
Q 319 2450 753 2931 
Q 1188 3413 1894 3413 
Q 2647 3413 3050 2948 
Q 3453 2484 3469 1600 
z
M 2791 1931 
Q 2772 2513 2545 2808 
Q 2319 3103 1894 3103 
Q 1497 3103 1269 2806 
Q 1041 2509 991 1931 
L 2791 1931 
z
" transform="scale(0.015625)"/>
       <path id="DejaVuSerif-20" transform="scale(0.015625)"/>
       <path id="DejaVuSerif-68" d="M 263 0 
L 263 331 
L 781 331 
L 781 4531 
L 231 4531 
L 231 4863 
L 1356 4863 
L 1356 2731 
Q 1516 3069 1770 3241 
Q 2025 3413 2363 3413 
Q 2913 3413 3172 3097 
Q 3431 2781 3431 2113 
L 3431 331 
L 3944 331 
L 3944 0 
L 2356 0 
L 2356 331 
L 2853 331 
L 2853 1931 
Q 2853 2541 2704 2764 
Q 2556 2988 2175 2988 
Q 1775 2988 1565 2697 
Q 1356 2406 1356 1850 
L 1356 331 
L 1856 331 
L 1856 0 
L 263 0 
z
" transform="scale(0.015625)"/>
       <path id="DejaVuSerif-73" d="M 359 184 
L 359 959 
L 691 959 
Q 703 588 923 403 
Q 1144 219 1575 219 
Q 1963 219 2166 364 
Q 2369 509 2369 788 
Q 2369 1006 2220 1140 
Q 2072 1275 1594 1428 
L 1178 1569 
Q 750 1706 558 1912 
Q 366 2119 366 2438 
Q 366 2894 700 3153 
Q 1034 3413 1625 3413 
Q 1888 3413 2178 3344 
Q 2469 3275 2778 3144 
L 2778 2419 
L 2447 2419 
Q 2434 2741 2221 2922 
Q 2009 3103 1644 3103 
Q 1281 3103 1095 2975 
Q 909 2847 909 2591 
Q 909 2381 1050 2254 
Q 1191 2128 1613 1997 
L 2069 1856 
Q 2541 1709 2748 1489 
Q 2956 1269 2956 922 
Q 2956 450 2595 179 
Q 2234 -91 1600 -91 
Q 1278 -91 972 -22 
Q 666 47 359 184 
z
" transform="scale(0.015625)"/>
       <path id="DejaVuSerif-74" d="M 691 2988 
L 184 2988 
L 184 3322 
L 691 3322 
L 691 4353 
L 1269 4353 
L 1269 3322 
L 2350 3322 
L 2350 2988 
L 1269 2988 
L 1269 878 
Q 1269 456 1350 337 
Q 1431 219 1650 219 
Q 1875 219 1978 351 
Q 2081 484 2088 781 
L 2522 781 
Q 2497 328 2275 118 
Q 2053 -91 1600 -91 
Q 1103 -91 897 129 
Q 691 350 691 878 
L 691 2988 
z
" transform="scale(0.015625)"/>
       <path id="DejaVuSerif-f3" d="M 1925 219 
Q 2388 219 2623 584 
Q 2859 950 2859 1663 
Q 2859 2375 2623 2739 
Q 2388 3103 1925 3103 
Q 1463 3103 1227 2739 
Q 991 2375 991 1663 
Q 991 950 1228 584 
Q 1466 219 1925 219 
z
M 1925 -91 
Q 1200 -91 759 389 
Q 319 869 319 1663 
Q 319 2456 758 2934 
Q 1197 3413 1925 3413 
Q 2653 3413 3092 2934 
Q 3531 2456 3531 1663 
Q 3531 869 3092 389 
Q 2653 -91 1925 -91 
z
M 2362 5119 
L 2984 5119 
L 1922 3944 
L 1556 3944 
L 2362 5119 
z
" transform="scale(0.015625)"/>
       <path id="DejaVuSerif-63" d="M 3291 997 
Q 3169 466 2822 187 
Q 2475 -91 1925 -91 
Q 1200 -91 759 389 
Q 319 869 319 1663 
Q 319 2459 759 2936 
Q 1200 3413 1925 3413 
Q 2241 3413 2553 3339 
Q 2866 3266 3181 3116 
L 3181 2266 
L 2847 2266 
Q 2781 2703 2561 2903 
Q 2341 3103 1931 3103 
Q 1466 3103 1228 2742 
Q 991 2381 991 1663 
Q 991 944 1227 581 
Q 1463 219 1931 219 
Q 2303 219 2525 412 
Q 2747 606 2828 997 
L 3291 997 
z
" transform="scale(0.015625)"/>
       <path id="DejaVuSerif-61" d="M 2547 1044 
L 2547 1747 
L 1806 1747 
Q 1378 1747 1168 1562 
Q 959 1378 959 997 
Q 959 650 1171 447 
Q 1384 244 1747 244 
Q 2106 244 2326 466 
Q 2547 688 2547 1044 
z
M 3122 2075 
L 3122 331 
L 3634 331 
L 3634 0 
L 2547 0 
L 2547 359 
Q 2356 128 2106 18 
Q 1856 -91 1522 -91 
Q 969 -91 644 203 
Q 319 497 319 997 
Q 319 1513 691 1797 
Q 1063 2081 1741 2081 
L 2547 2081 
L 2547 2309 
Q 2547 2688 2317 2895 
Q 2088 3103 1672 3103 
Q 1328 3103 1125 2947 
Q 922 2791 872 2484 
L 575 2484 
L 575 3156 
Q 875 3284 1158 3348 
Q 1441 3413 1709 3413 
Q 2400 3413 2761 3070 
Q 3122 2728 3122 2075 
z
" transform="scale(0.015625)"/>
      </defs>
      <use xlink:href="#DejaVuSerif-53"/>
      <use xlink:href="#DejaVuSerif-e9" transform="translate(68.505859 0)"/>
      <use xlink:href="#DejaVuSerif-72" transform="translate(127.685547 0)"/>
      <use xlink:href="#DejaVuSerif-69" transform="translate(175.488281 0)"/>
      <use xlink:href="#DejaVuSerif-65" transform="translate(207.470703 0)"/>
      <use xlink:href="#DejaVuSerif-20" transform="translate(266.650391 0)"/>
      <use xlink:href="#DejaVuSerif-68" transform="translate(298.4375 0)"/>
      <use xlink:href="#DejaVuSerif-69" transform="translate(362.841797 0)"/>
      <use xlink:href="#DejaVuSerif-73" transform="translate(394.824219 0)"/>
      <use xlink:href="#DejaVuSerif-74" transform="translate(446.142578 0)"/>
      <use xlink:href="#DejaVuSerif-f3" transform="translate(486.328125 0)"/>
      <use xlink:href="#DejaVuSerif-72" transform="translate(546.533203 0)"/>
      <use xlink:href="#DejaVuSerif-69" transform="translate(594.335938 0)"/>
      <use xlink:href="#DejaVuSerif-63" transform="translate(626.318359 0)"/>
      <use xlink:href="#DejaVuSerif-61" transform="translate(682.324219 0)"/>
     </g>
    </g>
   </g>
   <g id="matplotlib.axis_8">
    <g id="ytick_8">
     <g id="line2d_74">
      <path d="M 38.71625 256.692408 
L 421.77625 256.692408 
" clip-path="url(#p0d12af6375)" style="fill: none; stroke-dasharray: 2.96,1.28; stroke-dashoffset: 0; stroke: #b0b0b0; stroke-opacity: 0.5; stroke-width: 0.8"/>
     </g>
     <g id="line2d_75">
      <g>
       <use xlink:href="#m9cd43a0e91" x="38.71625" y="256.692408" style="stroke: #000000; stroke-width: 0.8"/>
      </g>
     </g>
     <g id="text_16">
      <!-- −0.25 -->
      <g transform="translate(7.2 259.731783) scale(0.08 -0.08)">
       <use xlink:href="#DejaVuSerif-2212"/>
       <use xlink:href="#DejaVuSerif-30" transform="translate(83.789062 0)"/>
       <use xlink:href="#DejaVuSerif-2e" transform="translate(147.412109 0)"/>
       <use xlink:href="#DejaVuSerif-32" transform="translate(179.199219 0)"/>
       <use xlink:href="#DejaVuSerif-35" transform="translate(242.822266 0)"/>
      </g>
     </g>
    </g>
    <g id="ytick_9">
     <g id="line2d_76">
      <path d="M 38.71625 239.306019 
L 421.77625 239.306019 
" clip-path="url(#p0d12af6375)" style="fill: none; stroke-dasharray: 2.96,1.28; stroke-dashoffset: 0; stroke: #b0b0b0; stroke-opacity: 0.5; stroke-width: 0.8"/>
     </g>
     <g id="line2d_77">
      <g>
       <use xlink:href="#m9cd43a0e91" x="38.71625" y="239.306019" style="stroke: #000000; stroke-width: 0.8"/>
      </g>
     </g>
     <g id="text_17">
      <!-- 0.00 -->
      <g transform="translate(13.90375 242.345394) scale(0.08 -0.08)">
       <use xlink:href="#DejaVuSerif-30"/>
       <use xlink:href="#DejaVuSerif-2e" transform="translate(63.623047 0)"/>
       <use xlink:href="#DejaVuSerif-30" transform="translate(95.410156 0)"/>
       <use xlink:href="#DejaVuSerif-30" transform="translate(159.033203 0)"/>
      </g>
     </g>
    </g>
    <g id="ytick_10">
     <g id="line2d_78">
      <path d="M 38.71625 221.91963 
L 421.77625 221.91963 
" clip-path="url(#p0d12af6375)" style="fill: none; stroke-dasharray: 2.96,1.28; stroke-dashoffset: 0; stroke: #b0b0b0; stroke-opacity: 0.5; stroke-width: 0.8"/>
     </g>
     <g id="line2d_79">
      <g>
       <use xlink:href="#m9cd43a0e91" x="38.71625" y="221.91963" style="stroke: #000000; stroke-width: 0.8"/>
      </g>
     </g>
     <g id="text_18">
      <!-- 0.25 -->
      <g transform="translate(13.90375 224.959005) scale(0.08 -0.08)">
       <use xlink:href="#DejaVuSerif-30"/>
       <use xlink:href="#DejaVuSerif-2e" transform="translate(63.623047 0)"/>
       <use xlink:href="#DejaVuSerif-32" transform="translate(95.410156 0)"/>
       <use xlink:href="#DejaVuSerif-35" transform="translate(159.033203 0)"/>
      </g>
     </g>
    </g>
   </g>
   <g id="line2d_80">
    <path d="M 56.128068 240.589546 
L 57.2196 242.562333 
L 58.38641 246.383274 
L 59.515581 249.092313 
L 60.682392 242.786483 
L 61.811563 230.201622 
L 62.978373 230.853248 
L 64.145183 230.26248 
L 65.274354 232.389647 
L 66.441164 232.886025 
L 67.570335 236.941036 
L 68.737145 235.48709 
L 70.957848 229.192217 
L 72.124659 224.646786 
L 73.25383 227.341744 
L 74.42064 231.917721 
L 75.549811 255.118486 
L 76.716621 254.643901 
L 77.883431 251.625042 
L 79.012602 250.168306 
L 80.179412 251.936206 
L 81.308583 246.490973 
L 82.475394 247.037379 
L 83.642204 243.555974 
L 84.696097 246.098904 
L 85.862907 238.253723 
L 86.992078 233.640633 
L 88.158888 238.241053 
L 89.288059 233.91747 
L 90.454869 234.650568 
L 91.621679 235.117374 
L 92.75085 239.867421 
L 93.917661 231.260622 
L 95.046832 235.022083 
L 96.213642 237.750319 
L 97.380452 239.265442 
L 98.434345 234.304337 
L 99.601155 247.387337 
L 100.730326 245.224605 
L 101.897136 243.528325 
L 103.026307 238.306211 
L 104.193118 236.10286 
L 105.359928 241.632912 
L 106.489099 236.129134 
L 107.655909 236.970955 
L 108.78508 236.02696 
L 109.95189 235.840157 
L 111.1187 243.116867 
L 112.210232 246.241815 
L 113.377042 243.768218 
L 114.506213 242.295413 
L 115.673024 241.007949 
L 116.802195 237.658458 
L 117.969005 236.021637 
L 119.135815 238.339456 
L 120.264986 231.704356 
L 121.431796 242.276411 
L 122.560967 238.294439 
L 123.727777 238.057448 
L 125.94848 241.703605 
L 127.115291 238.902256 
L 128.244462 234.570627 
L 129.411272 239.082649 
L 130.540443 237.339698 
L 131.707253 242.878843 
L 132.874063 239.024534 
L 134.003234 242.12994 
L 135.170044 240.996233 
L 136.299215 242.415769 
L 137.466026 240.551327 
L 138.632836 234.117885 
L 139.686729 234.142413 
L 140.853539 236.264587 
L 141.98271 245.3478 
L 143.14952 240.384491 
L 144.278691 239.414256 
L 145.445501 238.717763 
L 146.612311 236.456716 
L 147.741482 243.784455 
L 148.908293 244.716443 
L 150.037464 240.749461 
L 151.204274 237.257129 
L 152.371084 237.393533 
L 153.424977 240.620766 
L 154.591787 234.158689 
L 156.887768 238.764925 
L 158.016939 241.540024 
L 159.18375 241.460386 
L 161.479731 239.660836 
L 162.646541 234.852109 
L 163.775712 239.259673 
L 164.942522 236.082794 
L 166.109332 239.516526 
L 167.200864 244.867605 
L 168.367674 246.78391 
L 169.496845 236.295305 
L 170.663656 238.763233 
L 171.792827 233.382658 
L 172.959637 232.95117 
L 174.126447 231.607836 
L 175.255618 233.202216 
L 176.422428 228.361297 
L 178.718409 251.694183 
L 179.885219 250.596433 
L 180.939112 246.473128 
L 182.105923 239.032152 
L 183.235094 244.585381 
L 184.401904 241.375481 
L 185.531075 242.301321 
L 186.697885 239.437146 
L 187.864695 245.249664 
L 188.993866 240.176175 
L 190.160676 243.048211 
L 191.289847 231.034665 
L 192.456658 238.053758 
L 193.623468 235.627876 
L 194.677361 233.918468 
L 195.844171 234.652146 
L 196.973342 242.588688 
L 198.140152 238.119399 
L 199.269323 236.906676 
L 200.436133 236.458909 
L 201.602943 243.392927 
L 202.732114 239.273871 
L 203.898925 245.861159 
L 205.028096 243.372151 
L 206.194906 235.988724 
L 207.361716 236.469933 
L 208.415609 234.407901 
L 209.582419 246.398779 
L 210.71159 238.308888 
L 211.8784 239.228248 
L 213.007571 238.931569 
L 214.174382 239.395587 
L 215.341192 233.8257 
L 216.470363 239.705568 
L 217.637173 245.169931 
L 218.766344 242.201029 
L 219.933154 237.708261 
L 221.099964 245.004922 
L 222.191496 236.583626 
L 223.358306 229.882675 
L 224.487477 231.563051 
L 225.654288 236.735523 
L 226.783459 244.384403 
L 227.950269 245.882771 
L 229.117079 236.61938 
L 230.24625 238.057283 
L 231.41306 232.027638 
L 232.542231 240.575132 
L 233.709041 231.239929 
L 234.875851 252.104599 
L 235.929744 245.358199 
L 237.096555 245.592971 
L 238.225726 239.970147 
L 239.392536 242.619204 
L 240.521707 238.105239 
L 241.688517 235.657456 
L 242.855327 236.432561 
L 243.984498 239.512913 
L 245.151308 239.03674 
L 246.280479 238.265422 
L 247.44729 249.394302 
L 248.6141 225.698847 
L 249.667993 238.326625 
L 250.834803 243.249379 
L 251.963974 241.432332 
L 253.130784 234.013412 
L 254.259955 238.362867 
L 255.426765 236.80777 
L 256.593575 244.089217 
L 257.722746 238.763214 
L 258.889557 236.980836 
L 260.018728 237.041401 
L 261.185538 240.315852 
L 262.352348 223.291823 
L 263.406241 238.218926 
L 264.573051 237.31097 
L 265.702222 250.521264 
L 266.869032 244.976591 
L 267.998203 244.841633 
L 269.165014 241.828934 
L 270.331824 241.877864 
L 271.460995 236.655909 
L 272.627805 234.987446 
L 273.756976 234.991867 
L 274.923786 236.558585 
L 276.090596 255.868222 
L 277.182128 237.996378 
L 278.348938 240.54135 
L 279.478109 226.662862 
L 280.64492 239.222657 
L 281.774091 235.412956 
L 282.940901 238.226386 
L 284.107711 236.252066 
L 285.236882 243.604383 
L 286.403692 248.291323 
L 287.532863 245.56614 
L 288.699673 242.120973 
L 289.866483 239.395011 
L 290.920376 232.269939 
L 292.087187 232.359344 
L 293.216358 241.728542 
L 294.383168 234.805466 
L 295.512339 235.067988 
L 296.679149 243.720484 
L 297.845959 239.165858 
L 298.97513 239.438704 
L 300.14194 241.357118 
L 301.271111 242.539089 
L 302.437922 238.414406 
L 304.658625 247.844133 
L 305.825435 232.21519 
L 306.954606 231.745191 
L 308.121416 240.337343 
L 309.250587 239.064112 
L 310.417397 237.196439 
L 311.584207 241.250779 
L 312.713378 248.000963 
L 313.880189 242.74082 
L 315.00936 242.216379 
L 316.17617 239.73509 
L 317.34298 223.028183 
L 318.396873 234.950274 
L 319.563683 249.543595 
L 320.692854 229.177721 
L 321.859664 230.736258 
L 322.988835 242.422216 
L 324.155646 244.105287 
L 325.322456 246.239164 
L 326.451627 240.907272 
L 327.618437 231.034896 
L 328.747608 230.869795 
L 329.914418 234.453945 
L 331.081228 230.558256 
L 332.17276 231.737858 
L 333.33957 244.204949 
L 334.468741 269.237595 
L 335.635552 264.594064 
L 336.764723 250.015469 
L 337.931533 240.817004 
L 339.098343 241.714806 
L 340.227514 230.50715 
L 341.394324 225.764827 
L 342.523495 240.343019 
L 343.690305 234.717911 
L 344.857115 241.921102 
L 345.911008 249.237627 
L 347.077819 237.005622 
L 348.20699 234.640801 
L 349.3738 233.679808 
L 350.502971 230.543232 
L 351.669781 235.040463 
L 352.836591 231.952321 
L 353.965762 231.580333 
L 355.132572 254.688062 
L 356.261743 238.90118 
L 358.595364 242.264469 
L 359.649257 242.153406 
L 360.816067 234.279597 
L 361.945238 232.835986 
L 363.112048 237.623331 
L 364.241219 236.419089 
L 365.408029 230.602992 
L 366.574839 236.855677 
L 367.70401 249.447278 
L 368.870821 243.783485 
L 369.999992 251.130731 
L 371.166802 249.676368 
L 372.333612 248.631699 
L 373.387505 249.438231 
L 374.554315 241.502012 
L 375.683486 247.795113 
L 376.850296 230.135284 
L 377.979467 237.169547 
L 379.146278 242.515849 
L 380.313088 236.794536 
L 381.442259 239.829381 
L 382.609069 236.027258 
L 383.73824 224.38319 
L 384.90505 224.185095 
L 386.07186 240.233945 
L 387.163392 245.740866 
L 388.330202 242.993098 
L 389.459373 227.97322 
L 390.626184 232.403684 
L 391.755355 243.270526 
L 392.922165 243.381306 
L 394.088975 244.502906 
L 395.218146 237.776461 
L 396.384956 236.678779 
L 397.514127 244.777432 
L 398.680937 246.50111 
L 399.847747 231.865895 
L 400.90164 222.789502 
L 402.068451 235.934862 
L 404.364432 249.767905 
L 404.364432 249.767905 
" clip-path="url(#p0d12af6375)" style="fill: none; stroke: #47a730; stroke-width: 0.5; stroke-linecap: square"/>
   </g>
   <g id="patch_12">
    <path d="M 38.71625 271.56 
L 38.71625 220.467097 
" style="fill: none; stroke: #000000; stroke-width: 0.8; stroke-linejoin: miter; stroke-linecap: square"/>
   </g>
   <g id="patch_13">
    <path d="M 38.71625 271.56 
L 421.77625 271.56 
" style="fill: none; stroke: #000000; stroke-width: 0.8; stroke-linejoin: miter; stroke-linecap: square"/>
   </g>
  </g>
  <g id="legend_1">
   <g id="line2d_81">
    <path d="M 59.829375 13.67875 
L 67.829375 13.67875 
L 75.829375 13.67875 
" style="fill: none; stroke: #4596f3; stroke-width: 0.5; stroke-linecap: square"/>
   </g>
   <g id="text_19">
    <!-- Observado -->
    <g transform="translate(82.229375 16.47875) scale(0.08 -0.08)">
     <defs>
      <path id="DejaVuSerif-4f" d="M 2625 244 
Q 3391 244 3781 770 
Q 4172 1297 4172 2328 
Q 4172 3363 3781 3889 
Q 3391 4416 2625 4416 
Q 1856 4416 1465 3889 
Q 1075 3363 1075 2328 
Q 1075 1297 1465 770 
Q 1856 244 2625 244 
z
M 2625 -91 
Q 2150 -91 1751 65 
Q 1353 222 1050 525 
Q 700 875 529 1319 
Q 359 1763 359 2328 
Q 359 2894 529 3339 
Q 700 3784 1050 4134 
Q 1356 4441 1750 4595 
Q 2144 4750 2625 4750 
Q 3641 4750 4266 4084 
Q 4891 3419 4891 2328 
Q 4891 1769 4719 1320 
Q 4547 872 4197 525 
Q 3891 219 3497 64 
Q 3103 -91 2625 -91 
z
" transform="scale(0.015625)"/>
      <path id="DejaVuSerif-62" d="M 738 331 
L 738 4531 
L 184 4531 
L 184 4863 
L 1313 4863 
L 1313 2803 
Q 1481 3116 1742 3264 
Q 2003 3413 2388 3413 
Q 3000 3413 3387 2928 
Q 3775 2444 3775 1663 
Q 3775 881 3387 395 
Q 3000 -91 2388 -91 
Q 2003 -91 1742 57 
Q 1481 206 1313 519 
L 1313 0 
L 184 0 
L 184 331 
L 738 331 
z
M 1313 1497 
Q 1313 897 1542 583 
Q 1772 269 2209 269 
Q 2650 269 2876 622 
Q 3103 975 3103 1663 
Q 3103 2353 2876 2703 
Q 2650 3053 2209 3053 
Q 1772 3053 1542 2737 
Q 1313 2422 1313 1825 
L 1313 1497 
z
" transform="scale(0.015625)"/>
      <path id="DejaVuSerif-76" d="M 1581 0 
L 359 2988 
L -19 2988 
L -19 3322 
L 1509 3322 
L 1509 2988 
L 978 2988 
L 1913 703 
L 2847 2988 
L 2350 2988 
L 2350 3322 
L 3597 3322 
L 3597 2988 
L 3225 2988 
L 2003 0 
L 1581 0 
z
" transform="scale(0.015625)"/>
      <path id="DejaVuSerif-64" d="M 3359 331 
L 3909 331 
L 3909 0 
L 2784 0 
L 2784 519 
Q 2616 206 2355 57 
Q 2094 -91 1709 -91 
Q 1097 -91 708 395 
Q 319 881 319 1663 
Q 319 2444 706 2928 
Q 1094 3413 1709 3413 
Q 2094 3413 2355 3264 
Q 2616 3116 2784 2803 
L 2784 4531 
L 2241 4531 
L 2241 4863 
L 3359 4863 
L 3359 331 
z
M 2784 1497 
L 2784 1825 
Q 2784 2422 2554 2737 
Q 2325 3053 1888 3053 
Q 1444 3053 1217 2703 
Q 991 2353 991 1663 
Q 991 975 1217 622 
Q 1444 269 1888 269 
Q 2325 269 2554 583 
Q 2784 897 2784 1497 
z
" transform="scale(0.015625)"/>
      <path id="DejaVuSerif-6f" d="M 1925 219 
Q 2388 219 2623 584 
Q 2859 950 2859 1663 
Q 2859 2375 2623 2739 
Q 2388 3103 1925 3103 
Q 1463 3103 1227 2739 
Q 991 2375 991 1663 
Q 991 950 1228 584 
Q 1466 219 1925 219 
z
M 1925 -91 
Q 1200 -91 759 389 
Q 319 869 319 1663 
Q 319 2456 758 2934 
Q 1197 3413 1925 3413 
Q 2653 3413 3092 2934 
Q 3531 2456 3531 1663 
Q 3531 869 3092 389 
Q 2653 -91 1925 -91 
z
" transform="scale(0.015625)"/>
     </defs>
     <use xlink:href="#DejaVuSerif-4f"/>
     <use xlink:href="#DejaVuSerif-62" transform="translate(81.982422 0)"/>
     <use xlink:href="#DejaVuSerif-73" transform="translate(145.996094 0)"/>
     <use xlink:href="#DejaVuSerif-65" transform="translate(197.314453 0)"/>
     <use xlink:href="#DejaVuSerif-72" transform="translate(256.494141 0)"/>
     <use xlink:href="#DejaVuSerif-76" transform="translate(304.296875 0)"/>
     <use xlink:href="#DejaVuSerif-61" transform="translate(360.791016 0)"/>
     <use xlink:href="#DejaVuSerif-64" transform="translate(420.410156 0)"/>
     <use xlink:href="#DejaVuSerif-6f" transform="translate(484.423828 0)"/>
    </g>
   </g>
   <g id="line2d_82">
    <path d="M 141.800625 13.67875 
L 149.800625 13.67875 
L 157.800625 13.67875 
" style="fill: none; stroke: #ff5656; stroke-width: 0.5; stroke-linecap: square"/>
   </g>
   <g id="text_20">
    <!-- Tendência -->
    <g transform="translate(164.200625 16.47875) scale(0.08 -0.08)">
     <defs>
      <path id="DejaVuSerif-54" d="M 1222 0 
L 1222 331 
L 1819 331 
L 1819 4294 
L 447 4294 
L 447 3566 
L 63 3566 
L 63 4666 
L 4206 4666 
L 4206 3566 
L 3822 3566 
L 3822 4294 
L 2450 4294 
L 2450 331 
L 3047 331 
L 3047 0 
L 1222 0 
z
" transform="scale(0.015625)"/>
      <path id="DejaVuSerif-6e" d="M 263 0 
L 263 331 
L 781 331 
L 781 2988 
L 231 2988 
L 231 3322 
L 1356 3322 
L 1356 2731 
Q 1516 3069 1770 3241 
Q 2025 3413 2363 3413 
Q 2913 3413 3172 3097 
Q 3431 2781 3431 2113 
L 3431 331 
L 3944 331 
L 3944 0 
L 2356 0 
L 2356 331 
L 2853 331 
L 2853 1931 
Q 2853 2541 2703 2767 
Q 2553 2994 2175 2994 
Q 1775 2994 1565 2701 
Q 1356 2409 1356 1850 
L 1356 331 
L 1856 331 
L 1856 0 
L 263 0 
z
" transform="scale(0.015625)"/>
      <path id="DejaVuSerif-ea" d="M 3469 1600 
L 991 1600 
L 991 1575 
Q 991 903 1244 561 
Q 1497 219 1991 219 
Q 2369 219 2611 417 
Q 2853 616 2950 1006 
L 3413 1006 
Q 3275 459 2904 184 
Q 2534 -91 1931 -91 
Q 1203 -91 761 389 
Q 319 869 319 1663 
Q 319 2450 753 2931 
Q 1188 3413 1894 3413 
Q 2647 3413 3050 2948 
Q 3453 2484 3469 1600 
z
M 2791 1931 
Q 2772 2513 2545 2808 
Q 2319 3103 1894 3103 
Q 1497 3103 1269 2806 
Q 1041 2509 991 1931 
L 2791 1931 
z
M 1634 5119 
L 2159 5119 
L 2893 3944 
L 2530 3944 
L 1896 4756 
L 1262 3944 
L 899 3944 
L 1634 5119 
z
" transform="scale(0.015625)"/>
     </defs>
     <use xlink:href="#DejaVuSerif-54"/>
     <use xlink:href="#DejaVuSerif-65" transform="translate(58.949219 0)"/>
     <use xlink:href="#DejaVuSerif-6e" transform="translate(118.128906 0)"/>
     <use xlink:href="#DejaVuSerif-64" transform="translate(182.533203 0)"/>
     <use xlink:href="#DejaVuSerif-ea" transform="translate(246.546875 0)"/>
     <use xlink:href="#DejaVuSerif-6e" transform="translate(305.726562 0)"/>
     <use xlink:href="#DejaVuSerif-63" transform="translate(370.130859 0)"/>
     <use xlink:href="#DejaVuSerif-69" transform="translate(426.136719 0)"/>
     <use xlink:href="#DejaVuSerif-61" transform="translate(458.119141 0)"/>
    </g>
   </g>
   <g id="line2d_83">
    <path d="M 221.621875 13.67875 
L 229.621875 13.67875 
L 237.621875 13.67875 
" style="fill: none; stroke: #ffa722; stroke-width: 0.5; stroke-linecap: square"/>
   </g>
   <g id="text_21">
    <!-- Sazonalidade -->
    <g transform="translate(244.021875 16.47875) scale(0.08 -0.08)">
     <defs>
      <path id="DejaVuSerif-7a" d="M 256 0 
L 256 269 
L 2338 2988 
L 691 2988 
L 691 2413 
L 359 2413 
L 359 3322 
L 3078 3322 
L 3078 3053 
L 997 331 
L 2803 331 
L 2803 934 
L 3138 934 
L 3138 0 
L 256 0 
z
" transform="scale(0.015625)"/>
      <path id="DejaVuSerif-6c" d="M 1313 331 
L 1856 331 
L 1856 0 
L 184 0 
L 184 331 
L 738 331 
L 738 4531 
L 184 4531 
L 184 4863 
L 1313 4863 
L 1313 331 
z
" transform="scale(0.015625)"/>
     </defs>
     <use xlink:href="#DejaVuSerif-53"/>
     <use xlink:href="#DejaVuSerif-61" transform="translate(68.505859 0)"/>
     <use xlink:href="#DejaVuSerif-7a" transform="translate(128.125 0)"/>
     <use xlink:href="#DejaVuSerif-6f" transform="translate(180.810547 0)"/>
     <use xlink:href="#DejaVuSerif-6e" transform="translate(241.015625 0)"/>
     <use xlink:href="#DejaVuSerif-61" transform="translate(305.419922 0)"/>
     <use xlink:href="#DejaVuSerif-6c" transform="translate(365.039062 0)"/>
     <use xlink:href="#DejaVuSerif-69" transform="translate(397.021484 0)"/>
     <use xlink:href="#DejaVuSerif-64" transform="translate(429.003906 0)"/>
     <use xlink:href="#DejaVuSerif-61" transform="translate(493.017578 0)"/>
     <use xlink:href="#DejaVuSerif-64" transform="translate(552.636719 0)"/>
     <use xlink:href="#DejaVuSerif-65" transform="translate(616.650391 0)"/>
    </g>
   </g>
   <g id="line2d_84">
    <path d="M 314.090625 13.67875 
L 322.090625 13.67875 
L 330.090625 13.67875 
" style="fill: none; stroke: #47a730; stroke-width: 0.5; stroke-linecap: square"/>
   </g>
   <g id="text_22">
    <!-- Resíduo -->
    <g transform="translate(336.490625 16.47875) scale(0.08 -0.08)">
     <defs>
      <path id="DejaVuSerif-52" d="M 3066 2316 
Q 3284 2256 3442 2114 
Q 3600 1972 3725 1716 
L 4403 331 
L 4972 331 
L 4972 0 
L 3872 0 
L 3144 1484 
Q 2934 1916 2759 2042 
Q 2584 2169 2278 2169 
L 1581 2169 
L 1581 331 
L 2241 331 
L 2241 0 
L 353 0 
L 353 331 
L 947 331 
L 947 4331 
L 353 4331 
L 353 4666 
L 2719 4666 
Q 3400 4666 3770 4341 
Q 4141 4016 4141 3419 
Q 4141 2938 3870 2661 
Q 3600 2384 3066 2316 
z
M 1581 2503 
L 2503 2503 
Q 2975 2503 3200 2726 
Q 3425 2950 3425 3419 
Q 3425 3888 3200 4109 
Q 2975 4331 2503 4331 
L 1581 4331 
L 1581 2503 
z
" transform="scale(0.015625)"/>
      <path id="DejaVuSerif-ed" d="M 1356 331 
L 1900 331 
L 1900 0 
L 231 0 
L 231 331 
L 781 331 
L 781 2988 
L 231 2988 
L 231 3322 
L 1356 3322 
L 1356 331 
z
M 1458 5119 
L 2080 5119 
L 1018 3944 
L 652 3944 
L 1458 5119 
z
" transform="scale(0.015625)"/>
      <path id="DejaVuSerif-75" d="M 2266 3322 
L 3341 3322 
L 3341 331 
L 3884 331 
L 3884 0 
L 2766 0 
L 2766 588 
Q 2606 256 2353 82 
Q 2100 -91 1766 -91 
Q 1213 -91 952 223 
Q 691 538 691 1209 
L 691 2988 
L 172 2988 
L 172 3322 
L 1269 3322 
L 1269 1388 
Q 1269 781 1417 556 
Q 1566 331 1947 331 
Q 2347 331 2556 625 
Q 2766 919 2766 1478 
L 2766 2988 
L 2266 2988 
L 2266 3322 
z
" transform="scale(0.015625)"/>
     </defs>
     <use xlink:href="#DejaVuSerif-52"/>
     <use xlink:href="#DejaVuSerif-65" transform="translate(75.292969 0)"/>
     <use xlink:href="#DejaVuSerif-73" transform="translate(134.472656 0)"/>
     <use xlink:href="#DejaVuSerif-ed" transform="translate(185.791016 0)"/>
     <use xlink:href="#DejaVuSerif-64" transform="translate(217.773438 0)"/>
     <use xlink:href="#DejaVuSerif-75" transform="translate(281.787109 0)"/>
     <use xlink:href="#DejaVuSerif-6f" transform="translate(346.191406 0)"/>
    </g>
   </g>
  </g>
 </g>
 <defs>
  <clipPath id="p4d54399ea8">
   <rect x="38.71625" y="26.24" width="383.06" height="51.092903"/>
  </clipPath>
  <clipPath id="pa179653b77">
   <rect x="38.71625" y="90.982366" width="383.06" height="51.092903"/>
  </clipPath>
  <clipPath id="p0ea3f76732">
   <rect x="38.71625" y="155.724731" width="383.06" height="51.092903"/>
  </clipPath>
  <clipPath id="p0d12af6375">
   <rect x="38.71625" y="220.467097" width="383.06" height="51.092903"/>
  </clipPath>
 </defs>
</svg>
