<?xml version="1.0" encoding="utf-8" standalone="no"?>
<!DOCTYPE svg PUBLIC "-//W3C//DTD SVG 1.1//EN"
  "http://www.w3.org/Graphics/SVG/1.1/DTD/svg11.dtd">
<svg xmlns:xlink="http://www.w3.org/1999/xlink" width="429.03375pt" height="305.245pt" viewBox="0 0 429.03375 305.245" xmlns="http://www.w3.org/2000/svg" version="1.1">
 <metadata>
  <rdf:RDF xmlns:dc="http://purl.org/dc/elements/1.1/" xmlns:cc="http://creativecommons.org/ns#" xmlns:rdf="http://www.w3.org/1999/02/22-rdf-syntax-ns#">
   <cc:Work>
    <dc:type rdf:resource="http://purl.org/dc/dcmitype/StillImage"/>
    <dc:date>2025-06-30T04:35:44.679762</dc:date>
    <dc:format>image/svg+xml</dc:format>
    <dc:creator>
     <cc:Agent>
      <dc:title>Matplotlib v3.10.3, https://matplotlib.org/</dc:title>
     </cc:Agent>
    </dc:creator>
   </cc:Work>
  </rdf:RDF>
 </metadata>
 <defs>
  <style type="text/css">*{stroke-linejoin: round; stroke-linecap: butt}</style>
 </defs>
 <g id="figure_1">
  <g id="patch_1">
   <path d="M 0 305.245 
L 429.03375 305.245 
L 429.03375 0 
L 0 0 
z
" style="fill: #ffffff"/>
  </g>
  <g id="axes_1">
   <g id="patch_2">
    <path d="M 25.99375 78.465 
L 421.83375 78.465 
L 421.83375 26.24 
L 25.99375 26.24 
z
" style="fill: #ffffff"/>
   </g>
   <g id="matplotlib.axis_1">
    <g id="xtick_1">
     <g id="line2d_1">
      <path d="M 42.823405 78.465 
L 42.823405 26.24 
" clip-path="url(#p9c2855d5b7)" style="fill: none; stroke-dasharray: 2.96,1.28; stroke-dashoffset: 0; stroke: #b0b0b0; stroke-opacity: 0.5; stroke-width: 0.8"/>
     </g>
     <g id="line2d_2">
      <defs>
       <path id="m96412599a3" d="M 0 0 
L 0 3.5 
" style="stroke: #000000; stroke-width: 0.8"/>
      </defs>
      <g>
       <use xlink:href="#m96412599a3" x="42.823405" y="78.465" style="stroke: #000000; stroke-width: 0.8"/>
      </g>
     </g>
    </g>
    <g id="xtick_2">
     <g id="line2d_3">
      <path d="M 99.465022 78.465 
L 99.465022 26.24 
" clip-path="url(#p9c2855d5b7)" style="fill: none; stroke-dasharray: 2.96,1.28; stroke-dashoffset: 0; stroke: #b0b0b0; stroke-opacity: 0.5; stroke-width: 0.8"/>
     </g>
     <g id="line2d_4">
      <g>
       <use xlink:href="#m96412599a3" x="99.465022" y="78.465" style="stroke: #000000; stroke-width: 0.8"/>
      </g>
     </g>
    </g>
    <g id="xtick_3">
     <g id="line2d_5">
      <path d="M 156.106639 78.465 
L 156.106639 26.24 
" clip-path="url(#p9c2855d5b7)" style="fill: none; stroke-dasharray: 2.96,1.28; stroke-dashoffset: 0; stroke: #b0b0b0; stroke-opacity: 0.5; stroke-width: 0.8"/>
     </g>
     <g id="line2d_6">
      <g>
       <use xlink:href="#m96412599a3" x="156.106639" y="78.465" style="stroke: #000000; stroke-width: 0.8"/>
      </g>
     </g>
    </g>
    <g id="xtick_4">
     <g id="line2d_7">
      <path d="M 212.748257 78.465 
L 212.748257 26.24 
" clip-path="url(#p9c2855d5b7)" style="fill: none; stroke-dasharray: 2.96,1.28; stroke-dashoffset: 0; stroke: #b0b0b0; stroke-opacity: 0.5; stroke-width: 0.8"/>
     </g>
     <g id="line2d_8">
      <g>
       <use xlink:href="#m96412599a3" x="212.748257" y="78.465" style="stroke: #000000; stroke-width: 0.8"/>
      </g>
     </g>
    </g>
    <g id="xtick_5">
     <g id="line2d_9">
      <path d="M 269.389874 78.465 
L 269.389874 26.24 
" clip-path="url(#p9c2855d5b7)" style="fill: none; stroke-dasharray: 2.96,1.28; stroke-dashoffset: 0; stroke: #b0b0b0; stroke-opacity: 0.5; stroke-width: 0.8"/>
     </g>
     <g id="line2d_10">
      <g>
       <use xlink:href="#m96412599a3" x="269.389874" y="78.465" style="stroke: #000000; stroke-width: 0.8"/>
      </g>
     </g>
    </g>
    <g id="xtick_6">
     <g id="line2d_11">
      <path d="M 326.031491 78.465 
L 326.031491 26.24 
" clip-path="url(#p9c2855d5b7)" style="fill: none; stroke-dasharray: 2.96,1.28; stroke-dashoffset: 0; stroke: #b0b0b0; stroke-opacity: 0.5; stroke-width: 0.8"/>
     </g>
     <g id="line2d_12">
      <g>
       <use xlink:href="#m96412599a3" x="326.031491" y="78.465" style="stroke: #000000; stroke-width: 0.8"/>
      </g>
     </g>
    </g>
    <g id="xtick_7">
     <g id="line2d_13">
      <path d="M 382.673108 78.465 
L 382.673108 26.24 
" clip-path="url(#p9c2855d5b7)" style="fill: none; stroke-dasharray: 2.96,1.28; stroke-dashoffset: 0; stroke: #b0b0b0; stroke-opacity: 0.5; stroke-width: 0.8"/>
     </g>
     <g id="line2d_14">
      <g>
       <use xlink:href="#m96412599a3" x="382.673108" y="78.465" style="stroke: #000000; stroke-width: 0.8"/>
      </g>
     </g>
    </g>
   </g>
   <g id="matplotlib.axis_2">
    <g id="ytick_1">
     <g id="line2d_15">
      <path d="M 25.99375 70.236681 
L 421.83375 70.236681 
" clip-path="url(#p9c2855d5b7)" style="fill: none; stroke-dasharray: 2.96,1.28; stroke-dashoffset: 0; stroke: #b0b0b0; stroke-opacity: 0.5; stroke-width: 0.8"/>
     </g>
     <g id="line2d_16">
      <defs>
       <path id="m9dea28c66c" d="M 0 0 
L -3.5 0 
" style="stroke: #000000; stroke-width: 0.8"/>
      </defs>
      <g>
       <use xlink:href="#m9dea28c66c" x="25.99375" y="70.236681" style="stroke: #000000; stroke-width: 0.8"/>
      </g>
     </g>
     <g id="text_1">
      <!-- −2 -->
      <g transform="translate(7.2 73.276056) scale(0.08 -0.08)">
       <defs>
        <path id="DejaVuSerif-2212" d="M 678 2259 
L 4684 2259 
L 4684 1753 
L 678 1753 
L 678 2259 
z
" transform="scale(0.015625)"/>
        <path id="DejaVuSerif-32" d="M 819 3553 
L 469 3553 
L 469 4384 
Q 803 4563 1142 4656 
Q 1481 4750 1806 4750 
Q 2534 4750 2956 4397 
Q 3378 4044 3378 3438 
Q 3378 2753 2422 1800 
Q 2347 1728 2309 1691 
L 1131 513 
L 3078 513 
L 3078 1088 
L 3444 1088 
L 3444 0 
L 434 0 
L 434 341 
L 1850 1753 
Q 2319 2222 2519 2614 
Q 2719 3006 2719 3438 
Q 2719 3909 2473 4175 
Q 2228 4441 1797 4441 
Q 1350 4441 1106 4219 
Q 863 3997 819 3553 
z
" transform="scale(0.015625)"/>
       </defs>
       <use xlink:href="#DejaVuSerif-2212"/>
       <use xlink:href="#DejaVuSerif-32" transform="translate(83.789062 0)"/>
      </g>
     </g>
    </g>
    <g id="ytick_2">
     <g id="line2d_17">
      <path d="M 25.99375 52.497891 
L 421.83375 52.497891 
" clip-path="url(#p9c2855d5b7)" style="fill: none; stroke-dasharray: 2.96,1.28; stroke-dashoffset: 0; stroke: #b0b0b0; stroke-opacity: 0.5; stroke-width: 0.8"/>
     </g>
     <g id="line2d_18">
      <g>
       <use xlink:href="#m9dea28c66c" x="25.99375" y="52.497891" style="stroke: #000000; stroke-width: 0.8"/>
      </g>
     </g>
     <g id="text_2">
      <!-- 0 -->
      <g transform="translate(13.90375 55.537266) scale(0.08 -0.08)">
       <defs>
        <path id="DejaVuSerif-30" d="M 2034 219 
Q 2513 219 2750 744 
Q 2988 1269 2988 2328 
Q 2988 3391 2750 3916 
Q 2513 4441 2034 4441 
Q 1556 4441 1318 3916 
Q 1081 3391 1081 2328 
Q 1081 1269 1318 744 
Q 1556 219 2034 219 
z
M 2034 -91 
Q 1275 -91 848 546 
Q 422 1184 422 2328 
Q 422 3475 848 4112 
Q 1275 4750 2034 4750 
Q 2797 4750 3222 4112 
Q 3647 3475 3647 2328 
Q 3647 1184 3222 546 
Q 2797 -91 2034 -91 
z
" transform="scale(0.015625)"/>
       </defs>
       <use xlink:href="#DejaVuSerif-30"/>
      </g>
     </g>
    </g>
    <g id="ytick_3">
     <g id="line2d_19">
      <path d="M 25.99375 34.7591 
L 421.83375 34.7591 
" clip-path="url(#p9c2855d5b7)" style="fill: none; stroke-dasharray: 2.96,1.28; stroke-dashoffset: 0; stroke: #b0b0b0; stroke-opacity: 0.5; stroke-width: 0.8"/>
     </g>
     <g id="line2d_20">
      <g>
       <use xlink:href="#m9dea28c66c" x="25.99375" y="34.7591" style="stroke: #000000; stroke-width: 0.8"/>
      </g>
     </g>
     <g id="text_3">
      <!-- 2 -->
      <g transform="translate(13.90375 37.798475) scale(0.08 -0.08)">
       <use xlink:href="#DejaVuSerif-32"/>
      </g>
     </g>
    </g>
   </g>
   <g id="line2d_21">
    <path d="M 43.986477 63.633807 
L 45.11078 61.712955 
L 46.312622 61.542789 
L 47.475694 61.643188 
L 48.677535 61.496226 
L 51.042449 63.695899 
L 52.24429 63.437909 
L 53.407362 62.299788 
L 54.609204 59.049054 
L 55.772276 62.037338 
L 56.974117 63.815278 
L 58.175958 61.207257 
L 59.261492 59.587379 
L 60.463334 59.566005 
L 61.626406 61.041784 
L 62.828247 65.732717 
L 63.991319 75.334182 
L 65.193161 75.638562 
L 66.395002 75.569322 
L 67.558074 76.091136 
L 68.759916 73.414968 
L 69.922988 73.139112 
L 71.124829 73.489342 
L 72.32667 71.537936 
L 73.412204 68.78068 
L 74.614046 64.556307 
L 75.777118 64.195199 
L 76.978959 66.749249 
L 78.142032 66.952886 
L 79.343873 66.747388 
L 80.545714 64.649684 
L 81.708786 65.500784 
L 82.910628 61.269184 
L 84.0737 61.568838 
L 85.275541 62.631209 
L 86.477382 61.927029 
L 87.562917 59.251984 
L 88.764758 61.122311 
L 89.92783 60.80082 
L 92.292744 64.265427 
L 93.494585 64.171107 
L 94.696426 63.519712 
L 95.859498 61.253384 
L 97.06134 60.231847 
L 98.224412 61.382842 
L 99.426253 61.917829 
L 100.628094 62.958967 
L 101.752398 61.094338 
L 102.954239 58.182143 
L 104.117311 59.402564 
L 105.319152 59.830189 
L 106.482225 60.569212 
L 108.885907 59.460487 
L 110.048979 58.745434 
L 111.250821 59.583588 
L 112.413893 58.03597 
L 114.817576 55.806161 
L 115.90311 54.262382 
L 117.104951 52.827205 
L 118.268023 55.022845 
L 119.469864 58.243654 
L 120.632937 57.83856 
L 121.834778 59.236647 
L 123.036619 57.323444 
L 124.199692 57.375444 
L 125.401533 56.252472 
L 126.564605 56.778854 
L 127.766446 55.439398 
L 128.968288 52.688186 
L 130.053822 52.84958 
L 131.255663 51.526072 
L 132.418735 54.37292 
L 133.620577 56.082108 
L 134.783649 55.76703 
L 135.98549 56.724299 
L 137.187331 54.568309 
L 138.350404 56.243815 
L 139.552245 55.381485 
L 140.715317 53.142804 
L 141.917158 53.516313 
L 143.119 50.754841 
L 144.204534 48.865012 
L 145.406375 45.788854 
L 147.771289 50.815959 
L 148.934361 51.786956 
L 150.136202 51.972234 
L 151.338043 51.120904 
L 152.501116 52.081588 
L 153.702957 50.286516 
L 154.866029 51.880293 
L 156.06787 52.304246 
L 157.269712 53.399271 
L 158.394015 53.395923 
L 159.595856 51.761166 
L 160.758928 50.830977 
L 161.96077 51.741588 
L 163.123842 50.684229 
L 164.325683 52.91549 
L 165.527524 51.231655 
L 166.690597 51.334705 
L 167.892438 49.612058 
L 169.05551 51.258705 
L 170.257351 56.335549 
L 171.459193 52.53772 
L 172.544727 47.965859 
L 173.746568 46.150454 
L 176.111482 53.610598 
L 177.274554 54.388108 
L 178.476395 51.219867 
L 179.678236 48.479352 
L 180.841309 47.594166 
L 182.04315 47.189534 
L 183.206222 43.993094 
L 184.408064 46.059719 
L 185.609905 44.484256 
L 186.695439 41.414517 
L 187.89728 41.159621 
L 189.060352 45.1602 
L 191.425266 51.010281 
L 192.627107 48.825534 
L 193.828949 51.628734 
L 194.992021 52.368973 
L 196.193862 51.377712 
L 197.356934 50.11314 
L 198.558776 46.787593 
L 199.760617 42.159646 
L 200.846151 38.640469 
L 202.047992 41.267801 
L 203.211064 41.683365 
L 204.412906 45.225991 
L 205.575978 47.149776 
L 206.777819 46.150751 
L 207.979661 42.509084 
L 209.142733 42.608467 
L 210.344574 44.099177 
L 211.507646 44.026908 
L 212.709488 42.744139 
L 213.911329 40.542316 
L 215.035632 35.872724 
L 216.237473 34.713509 
L 217.400546 43.381714 
L 218.602387 46.813766 
L 219.765459 46.344549 
L 220.9673 45.601892 
L 222.169142 44.520565 
L 223.332214 48.283247 
L 224.534055 48.869434 
L 225.697127 53.654648 
L 226.898969 49.753019 
L 228.10081 50.616058 
L 229.186344 46.539782 
L 230.388185 46.717439 
L 231.551258 48.147469 
L 232.753099 52.626075 
L 233.916171 53.958065 
L 235.118012 50.54416 
L 236.319854 49.392589 
L 237.482926 48.502748 
L 238.684767 47.116913 
L 239.847839 47.989438 
L 241.049681 48.265602 
L 242.251522 40.858573 
L 243.337056 41.974016 
L 244.538897 48.270526 
L 245.70197 50.364324 
L 246.903811 55.289033 
L 248.066883 57.330968 
L 249.268724 57.129805 
L 250.470566 58.814911 
L 251.633638 55.379442 
L 252.835479 54.633516 
L 253.998551 55.176376 
L 255.200393 56.048108 
L 256.402234 47.215984 
L 257.487768 49.056126 
L 258.689609 50.195097 
L 259.852682 54.204304 
L 262.217595 61.22761 
L 263.419436 59.105728 
L 264.621278 59.017006 
L 265.78435 56.580686 
L 266.986191 52.778531 
L 268.149264 53.472245 
L 269.351105 52.291423 
L 270.552946 48.671826 
L 271.677249 42.313557 
L 272.879091 42.390939 
L 274.042163 45.402819 
L 275.244004 50.725818 
L 276.407076 52.675785 
L 277.608918 53.539993 
L 278.810759 54.190913 
L 279.973831 55.357958 
L 281.175672 54.830555 
L 282.338745 53.07986 
L 284.742427 40.391917 
L 285.827961 36.495457 
L 287.029803 39.801317 
L 288.192875 50.563409 
L 289.394716 52.786979 
L 290.557788 53.09381 
L 291.75963 60.976822 
L 292.961471 62.944009 
L 294.124543 61.520027 
L 295.326384 60.598061 
L 296.489457 58.016211 
L 297.691298 50.977909 
L 298.893139 43.029927 
L 299.978673 39.807129 
L 301.180515 37.676062 
L 302.343587 44.250337 
L 303.545428 52.472039 
L 304.7085 58.899297 
L 305.910342 61.603057 
L 307.112183 61.218211 
L 308.275255 61.981879 
L 309.477096 52.276136 
L 310.640169 46.130348 
L 311.84201 41.176983 
L 313.043851 34.680303 
L 314.129385 38.346062 
L 315.331227 40.328686 
L 316.494299 41.240537 
L 317.69614 46.104364 
L 318.859212 53.496146 
L 320.061054 59.049639 
L 321.262895 63.0891 
L 322.425967 58.767278 
L 323.627808 55.87673 
L 324.790881 55.173809 
L 325.992722 51.648367 
L 327.194563 43.673259 
L 328.318866 38.061756 
L 329.520708 38.78411 
L 330.68378 52.728121 
L 331.885621 56.33681 
L 333.048693 57.017054 
L 334.250535 53.969665 
L 335.452376 54.937489 
L 336.615448 49.085676 
L 337.81729 52.991081 
L 338.980362 58.60237 
L 340.182203 54.261516 
L 341.384044 50.707105 
L 342.469578 42.296232 
L 343.67142 38.064938 
L 344.834492 46.567463 
L 346.036333 52.180515 
L 347.199406 61.643319 
L 348.401247 67.599541 
L 349.603088 70.002376 
L 350.76616 66.454298 
L 351.968002 67.051956 
L 353.131074 57.873931 
L 354.332915 50.169372 
L 355.534756 41.365681 
L 356.620291 35.444086 
L 357.822132 33.729959 
L 358.985204 38.596714 
L 360.187045 45.132397 
L 363.7538 54.158277 
L 364.916872 53.722497 
L 366.118714 53.047062 
L 367.281786 44.63581 
L 368.483627 42.480905 
L 371.972844 30.147754 
L 373.135916 39.090852 
L 374.337757 46.11189 
L 375.50083 54.585202 
L 376.702671 57.256935 
L 377.904512 53.014504 
L 379.067584 49.527894 
L 380.269426 46.429644 
L 381.432498 42.952162 
L 382.634339 42.498435 
L 383.836181 36.294913 
L 384.960484 32.048466 
L 386.162325 29.482445 
L 387.325397 35.380142 
L 388.527238 44.7883 
L 389.690311 52.53865 
L 390.892152 56.071851 
L 392.093993 58.928505 
L 393.257066 59.838173 
L 394.458907 59.315989 
L 395.621979 50.862823 
L 396.82382 48.052305 
L 398.025662 32.7692 
L 399.111196 28.613864 
L 400.313037 34.936084 
L 401.476109 42.500548 
L 402.677951 51.062578 
L 403.841023 55.862047 
L 403.841023 55.862047 
" clip-path="url(#p9c2855d5b7)" style="fill: none; stroke: #4596f3; stroke-width: 0.5; stroke-linecap: square"/>
   </g>
   <g id="patch_3">
    <path d="M 25.99375 78.465 
L 25.99375 26.24 
" style="fill: none; stroke: #000000; stroke-width: 0.8; stroke-linejoin: miter; stroke-linecap: square"/>
   </g>
   <g id="patch_4">
    <path d="M 25.99375 78.465 
L 421.83375 78.465 
" style="fill: none; stroke: #000000; stroke-width: 0.8; stroke-linejoin: miter; stroke-linecap: square"/>
   </g>
  </g>
  <g id="axes_2">
   <g id="patch_5">
    <path d="M 25.99375 142.83 
L 421.83375 142.83 
L 421.83375 90.605 
L 25.99375 90.605 
z
" style="fill: #ffffff"/>
   </g>
   <g id="matplotlib.axis_3">
    <g id="xtick_8">
     <g id="line2d_22">
      <path d="M 42.823405 142.83 
L 42.823405 90.605 
" clip-path="url(#pd5f6926f17)" style="fill: none; stroke-dasharray: 2.96,1.28; stroke-dashoffset: 0; stroke: #b0b0b0; stroke-opacity: 0.5; stroke-width: 0.8"/>
     </g>
     <g id="line2d_23">
      <g>
       <use xlink:href="#m96412599a3" x="42.823405" y="142.83" style="stroke: #000000; stroke-width: 0.8"/>
      </g>
     </g>
    </g>
    <g id="xtick_9">
     <g id="line2d_24">
      <path d="M 99.465022 142.83 
L 99.465022 90.605 
" clip-path="url(#pd5f6926f17)" style="fill: none; stroke-dasharray: 2.96,1.28; stroke-dashoffset: 0; stroke: #b0b0b0; stroke-opacity: 0.5; stroke-width: 0.8"/>
     </g>
     <g id="line2d_25">
      <g>
       <use xlink:href="#m96412599a3" x="99.465022" y="142.83" style="stroke: #000000; stroke-width: 0.8"/>
      </g>
     </g>
    </g>
    <g id="xtick_10">
     <g id="line2d_26">
      <path d="M 156.106639 142.83 
L 156.106639 90.605 
" clip-path="url(#pd5f6926f17)" style="fill: none; stroke-dasharray: 2.96,1.28; stroke-dashoffset: 0; stroke: #b0b0b0; stroke-opacity: 0.5; stroke-width: 0.8"/>
     </g>
     <g id="line2d_27">
      <g>
       <use xlink:href="#m96412599a3" x="156.106639" y="142.83" style="stroke: #000000; stroke-width: 0.8"/>
      </g>
     </g>
    </g>
    <g id="xtick_11">
     <g id="line2d_28">
      <path d="M 212.748257 142.83 
L 212.748257 90.605 
" clip-path="url(#pd5f6926f17)" style="fill: none; stroke-dasharray: 2.96,1.28; stroke-dashoffset: 0; stroke: #b0b0b0; stroke-opacity: 0.5; stroke-width: 0.8"/>
     </g>
     <g id="line2d_29">
      <g>
       <use xlink:href="#m96412599a3" x="212.748257" y="142.83" style="stroke: #000000; stroke-width: 0.8"/>
      </g>
     </g>
    </g>
    <g id="xtick_12">
     <g id="line2d_30">
      <path d="M 269.389874 142.83 
L 269.389874 90.605 
" clip-path="url(#pd5f6926f17)" style="fill: none; stroke-dasharray: 2.96,1.28; stroke-dashoffset: 0; stroke: #b0b0b0; stroke-opacity: 0.5; stroke-width: 0.8"/>
     </g>
     <g id="line2d_31">
      <g>
       <use xlink:href="#m96412599a3" x="269.389874" y="142.83" style="stroke: #000000; stroke-width: 0.8"/>
      </g>
     </g>
    </g>
    <g id="xtick_13">
     <g id="line2d_32">
      <path d="M 326.031491 142.83 
L 326.031491 90.605 
" clip-path="url(#pd5f6926f17)" style="fill: none; stroke-dasharray: 2.96,1.28; stroke-dashoffset: 0; stroke: #b0b0b0; stroke-opacity: 0.5; stroke-width: 0.8"/>
     </g>
     <g id="line2d_33">
      <g>
       <use xlink:href="#m96412599a3" x="326.031491" y="142.83" style="stroke: #000000; stroke-width: 0.8"/>
      </g>
     </g>
    </g>
    <g id="xtick_14">
     <g id="line2d_34">
      <path d="M 382.673108 142.83 
L 382.673108 90.605 
" clip-path="url(#pd5f6926f17)" style="fill: none; stroke-dasharray: 2.96,1.28; stroke-dashoffset: 0; stroke: #b0b0b0; stroke-opacity: 0.5; stroke-width: 0.8"/>
     </g>
     <g id="line2d_35">
      <g>
       <use xlink:href="#m96412599a3" x="382.673108" y="142.83" style="stroke: #000000; stroke-width: 0.8"/>
      </g>
     </g>
    </g>
   </g>
   <g id="matplotlib.axis_4">
    <g id="ytick_4">
     <g id="line2d_36">
      <path d="M 25.99375 139.095464 
L 421.83375 139.095464 
" clip-path="url(#pd5f6926f17)" style="fill: none; stroke-dasharray: 2.96,1.28; stroke-dashoffset: 0; stroke: #b0b0b0; stroke-opacity: 0.5; stroke-width: 0.8"/>
     </g>
     <g id="line2d_37">
      <g>
       <use xlink:href="#m9dea28c66c" x="25.99375" y="139.095464" style="stroke: #000000; stroke-width: 0.8"/>
      </g>
     </g>
     <g id="text_4">
      <!-- −2 -->
      <g transform="translate(7.2 142.134839) scale(0.08 -0.08)">
       <use xlink:href="#DejaVuSerif-2212"/>
       <use xlink:href="#DejaVuSerif-32" transform="translate(83.789062 0)"/>
      </g>
     </g>
    </g>
    <g id="ytick_5">
     <g id="line2d_38">
      <path d="M 25.99375 109.561278 
L 421.83375 109.561278 
" clip-path="url(#pd5f6926f17)" style="fill: none; stroke-dasharray: 2.96,1.28; stroke-dashoffset: 0; stroke: #b0b0b0; stroke-opacity: 0.5; stroke-width: 0.8"/>
     </g>
     <g id="line2d_39">
      <g>
       <use xlink:href="#m9dea28c66c" x="25.99375" y="109.561278" style="stroke: #000000; stroke-width: 0.8"/>
      </g>
     </g>
     <g id="text_5">
      <!-- 0 -->
      <g transform="translate(13.90375 112.600653) scale(0.08 -0.08)">
       <use xlink:href="#DejaVuSerif-30"/>
      </g>
     </g>
    </g>
   </g>
   <g id="line2d_40">
    <path d="M 43.986477 127.440899 
L 46.312622 126.85009 
L 48.677535 126.421074 
L 52.24429 126.047367 
L 55.772276 125.877041 
L 56.974117 126.803119 
L 58.175958 128.112391 
L 63.991319 136.53208 
L 65.193161 137.944559 
L 66.395002 139.104586 
L 67.558074 139.95718 
L 68.759916 140.430099 
L 69.922988 140.456136 
L 71.124829 140.014517 
L 72.32667 139.149751 
L 74.614046 136.529009 
L 78.142032 131.982839 
L 79.343873 130.639788 
L 80.545714 129.486914 
L 81.708786 128.540482 
L 82.910628 127.795937 
L 84.0737 127.223374 
L 86.477382 126.406458 
L 88.764758 125.81791 
L 91.129671 125.441365 
L 97.06134 124.914339 
L 99.426253 124.213075 
L 104.117311 122.522225 
L 106.482225 121.409981 
L 112.413893 118.02766 
L 114.817576 117.340082 
L 123.036619 115.598175 
L 127.766446 114.573511 
L 134.783649 112.871635 
L 137.187331 111.996284 
L 139.552245 110.78326 
L 144.204534 108.08243 
L 146.569447 107.034598 
L 147.771289 106.706777 
L 148.934361 106.604138 
L 150.136202 106.757814 
L 152.501116 107.539258 
L 154.866029 108.252445 
L 157.269712 108.541264 
L 160.758928 108.430316 
L 163.123842 108.328023 
L 165.527524 107.976476 
L 167.892438 107.554649 
L 172.544727 107.172661 
L 173.746568 106.787944 
L 174.90964 106.187541 
L 176.111482 105.413089 
L 182.04315 100.863366 
L 183.206222 100.22714 
L 184.408064 99.758685 
L 185.609905 99.521624 
L 186.695439 99.560384 
L 187.89728 99.848341 
L 190.262194 100.701409 
L 191.425266 101.018036 
L 192.627107 101.183355 
L 193.828949 101.174278 
L 194.992021 100.99175 
L 196.193862 100.670612 
L 197.356934 100.228174 
L 198.558776 99.641269 
L 199.760617 98.89257 
L 204.412906 95.243141 
L 205.575978 94.543592 
L 206.777819 93.997689 
L 209.142733 93.332532 
L 211.507646 93.025314 
L 212.709488 92.978864 
L 213.911329 93.045409 
L 215.035632 93.265384 
L 216.237473 93.695795 
L 217.400546 94.358947 
L 218.602387 95.265358 
L 220.9673 97.644208 
L 224.534055 101.518041 
L 225.697127 102.60537 
L 226.898969 103.495322 
L 228.10081 104.163881 
L 229.186344 104.609894 
L 230.388185 104.79854 
L 231.551258 104.709894 
L 232.753099 104.360296 
L 235.118012 103.326497 
L 236.319854 102.928552 
L 237.482926 102.732114 
L 238.684767 102.770976 
L 239.847839 103.065999 
L 241.049681 103.592547 
L 242.251522 104.290598 
L 245.70197 106.998152 
L 250.470566 110.859693 
L 251.633638 111.639788 
L 252.835479 112.286791 
L 253.998551 112.783921 
L 255.200393 113.154122 
L 256.402234 113.399499 
L 257.487768 113.484959 
L 259.852682 113.270078 
L 262.217595 112.837479 
L 263.419436 112.487554 
L 264.621278 111.979655 
L 266.986191 110.481836 
L 270.552946 107.657812 
L 271.677249 106.89338 
L 274.042163 105.853837 
L 278.810759 104.18595 
L 279.973831 103.973337 
L 281.175672 103.974064 
L 282.338745 104.201937 
L 283.540586 104.620125 
L 284.742427 105.187092 
L 289.394716 108.068348 
L 290.557788 108.662306 
L 291.75963 109.129815 
L 292.961471 109.450616 
L 294.124543 109.626817 
L 296.489457 109.699126 
L 298.893139 109.610492 
L 299.978673 109.442888 
L 301.180515 109.013615 
L 302.343587 108.265909 
L 305.910342 105.445898 
L 308.275255 104.30917 
L 313.043851 102.700188 
L 314.129385 102.45962 
L 315.331227 102.460132 
L 316.494299 102.776152 
L 317.69614 103.375664 
L 321.262895 105.871829 
L 323.627808 107.455631 
L 324.790881 108.059602 
L 325.992722 108.421948 
L 327.194563 108.418715 
L 328.318866 108.039254 
L 330.68378 107.02826 
L 331.885621 106.847591 
L 333.048693 106.946281 
L 336.615448 107.601214 
L 338.980362 108.017576 
L 340.182203 108.560354 
L 341.384044 109.510648 
L 344.834492 113.610996 
L 346.036333 114.405121 
L 347.199406 114.615799 
L 348.401247 114.302576 
L 349.603088 113.637618 
L 350.76616 112.767786 
L 351.968002 111.714474 
L 353.131074 110.442493 
L 354.332915 108.901596 
L 355.534756 107.113384 
L 357.822132 103.184842 
L 358.985204 101.295836 
L 360.187045 99.660539 
L 361.350118 98.384997 
L 362.551959 97.486779 
L 363.7538 96.938943 
L 364.916872 96.677035 
L 366.118714 96.6629 
L 368.483627 97.135042 
L 369.685468 97.372383 
L 370.771003 97.442191 
L 371.972844 97.300073 
L 377.904512 95.772249 
L 381.432498 95.088558 
L 382.634339 95.040657 
L 383.836181 95.206944 
L 384.960484 95.667909 
L 386.162325 96.426759 
L 388.527238 98.321294 
L 389.690311 99.070547 
L 392.093993 100.037505 
L 394.458907 100.924154 
L 399.111196 102.838233 
L 403.841023 104.500852 
L 403.841023 104.500852 
" clip-path="url(#pd5f6926f17)" style="fill: none; stroke: #ff5656; stroke-width: 0.5; stroke-linecap: square"/>
   </g>
   <g id="patch_6">
    <path d="M 25.99375 142.83 
L 25.99375 90.605 
" style="fill: none; stroke: #000000; stroke-width: 0.8; stroke-linejoin: miter; stroke-linecap: square"/>
   </g>
   <g id="patch_7">
    <path d="M 25.99375 142.83 
L 421.83375 142.83 
" style="fill: none; stroke: #000000; stroke-width: 0.8; stroke-linejoin: miter; stroke-linecap: square"/>
   </g>
  </g>
  <g id="axes_3">
   <g id="patch_8">
    <path d="M 25.99375 207.195 
L 421.83375 207.195 
L 421.83375 154.97 
L 25.99375 154.97 
z
" style="fill: #ffffff"/>
   </g>
   <g id="matplotlib.axis_5">
    <g id="xtick_15">
     <g id="line2d_41">
      <path d="M 42.823405 207.195 
L 42.823405 154.97 
" clip-path="url(#pe453b81a63)" style="fill: none; stroke-dasharray: 2.96,1.28; stroke-dashoffset: 0; stroke: #b0b0b0; stroke-opacity: 0.5; stroke-width: 0.8"/>
     </g>
     <g id="line2d_42">
      <g>
       <use xlink:href="#m96412599a3" x="42.823405" y="207.195" style="stroke: #000000; stroke-width: 0.8"/>
      </g>
     </g>
    </g>
    <g id="xtick_16">
     <g id="line2d_43">
      <path d="M 99.465022 207.195 
L 99.465022 154.97 
" clip-path="url(#pe453b81a63)" style="fill: none; stroke-dasharray: 2.96,1.28; stroke-dashoffset: 0; stroke: #b0b0b0; stroke-opacity: 0.5; stroke-width: 0.8"/>
     </g>
     <g id="line2d_44">
      <g>
       <use xlink:href="#m96412599a3" x="99.465022" y="207.195" style="stroke: #000000; stroke-width: 0.8"/>
      </g>
     </g>
    </g>
    <g id="xtick_17">
     <g id="line2d_45">
      <path d="M 156.106639 207.195 
L 156.106639 154.97 
" clip-path="url(#pe453b81a63)" style="fill: none; stroke-dasharray: 2.96,1.28; stroke-dashoffset: 0; stroke: #b0b0b0; stroke-opacity: 0.5; stroke-width: 0.8"/>
     </g>
     <g id="line2d_46">
      <g>
       <use xlink:href="#m96412599a3" x="156.106639" y="207.195" style="stroke: #000000; stroke-width: 0.8"/>
      </g>
     </g>
    </g>
    <g id="xtick_18">
     <g id="line2d_47">
      <path d="M 212.748257 207.195 
L 212.748257 154.97 
" clip-path="url(#pe453b81a63)" style="fill: none; stroke-dasharray: 2.96,1.28; stroke-dashoffset: 0; stroke: #b0b0b0; stroke-opacity: 0.5; stroke-width: 0.8"/>
     </g>
     <g id="line2d_48">
      <g>
       <use xlink:href="#m96412599a3" x="212.748257" y="207.195" style="stroke: #000000; stroke-width: 0.8"/>
      </g>
     </g>
    </g>
    <g id="xtick_19">
     <g id="line2d_49">
      <path d="M 269.389874 207.195 
L 269.389874 154.97 
" clip-path="url(#pe453b81a63)" style="fill: none; stroke-dasharray: 2.96,1.28; stroke-dashoffset: 0; stroke: #b0b0b0; stroke-opacity: 0.5; stroke-width: 0.8"/>
     </g>
     <g id="line2d_50">
      <g>
       <use xlink:href="#m96412599a3" x="269.389874" y="207.195" style="stroke: #000000; stroke-width: 0.8"/>
      </g>
     </g>
    </g>
    <g id="xtick_20">
     <g id="line2d_51">
      <path d="M 326.031491 207.195 
L 326.031491 154.97 
" clip-path="url(#pe453b81a63)" style="fill: none; stroke-dasharray: 2.96,1.28; stroke-dashoffset: 0; stroke: #b0b0b0; stroke-opacity: 0.5; stroke-width: 0.8"/>
     </g>
     <g id="line2d_52">
      <g>
       <use xlink:href="#m96412599a3" x="326.031491" y="207.195" style="stroke: #000000; stroke-width: 0.8"/>
      </g>
     </g>
    </g>
    <g id="xtick_21">
     <g id="line2d_53">
      <path d="M 382.673108 207.195 
L 382.673108 154.97 
" clip-path="url(#pe453b81a63)" style="fill: none; stroke-dasharray: 2.96,1.28; stroke-dashoffset: 0; stroke: #b0b0b0; stroke-opacity: 0.5; stroke-width: 0.8"/>
     </g>
     <g id="line2d_54">
      <g>
       <use xlink:href="#m96412599a3" x="382.673108" y="207.195" style="stroke: #000000; stroke-width: 0.8"/>
      </g>
     </g>
    </g>
   </g>
   <g id="matplotlib.axis_6">
    <g id="ytick_6">
     <g id="line2d_55">
      <path d="M 25.99375 201.215033 
L 421.83375 201.215033 
" clip-path="url(#pe453b81a63)" style="fill: none; stroke-dasharray: 2.96,1.28; stroke-dashoffset: 0; stroke: #b0b0b0; stroke-opacity: 0.5; stroke-width: 0.8"/>
     </g>
     <g id="line2d_56">
      <g>
       <use xlink:href="#m9dea28c66c" x="25.99375" y="201.215033" style="stroke: #000000; stroke-width: 0.8"/>
      </g>
     </g>
     <g id="text_6">
      <!-- −1 -->
      <g transform="translate(7.2 204.254408) scale(0.08 -0.08)">
       <defs>
        <path id="DejaVuSerif-31" d="M 909 0 
L 909 331 
L 1722 331 
L 1722 4213 
L 781 3603 
L 781 4013 
L 1919 4750 
L 2350 4750 
L 2350 331 
L 3163 331 
L 3163 0 
L 909 0 
z
" transform="scale(0.015625)"/>
       </defs>
       <use xlink:href="#DejaVuSerif-2212"/>
       <use xlink:href="#DejaVuSerif-31" transform="translate(83.789062 0)"/>
      </g>
     </g>
    </g>
    <g id="ytick_7">
     <g id="line2d_57">
      <path d="M 25.99375 185.265789 
L 421.83375 185.265789 
" clip-path="url(#pe453b81a63)" style="fill: none; stroke-dasharray: 2.96,1.28; stroke-dashoffset: 0; stroke: #b0b0b0; stroke-opacity: 0.5; stroke-width: 0.8"/>
     </g>
     <g id="line2d_58">
      <g>
       <use xlink:href="#m9dea28c66c" x="25.99375" y="185.265789" style="stroke: #000000; stroke-width: 0.8"/>
      </g>
     </g>
     <g id="text_7">
      <!-- 0 -->
      <g transform="translate(13.90375 188.305164) scale(0.08 -0.08)">
       <use xlink:href="#DejaVuSerif-30"/>
      </g>
     </g>
    </g>
    <g id="ytick_8">
     <g id="line2d_59">
      <path d="M 25.99375 169.316545 
L 421.83375 169.316545 
" clip-path="url(#pe453b81a63)" style="fill: none; stroke-dasharray: 2.96,1.28; stroke-dashoffset: 0; stroke: #b0b0b0; stroke-opacity: 0.5; stroke-width: 0.8"/>
     </g>
     <g id="line2d_60">
      <g>
       <use xlink:href="#m9dea28c66c" x="25.99375" y="169.316545" style="stroke: #000000; stroke-width: 0.8"/>
      </g>
     </g>
     <g id="text_8">
      <!-- 1 -->
      <g transform="translate(13.90375 172.35592) scale(0.08 -0.08)">
       <use xlink:href="#DejaVuSerif-31"/>
      </g>
     </g>
    </g>
   </g>
   <g id="line2d_61">
    <path d="M 43.986477 185.060409 
L 45.11078 180.732523 
L 46.312622 179.577061 
L 47.475694 179.496947 
L 48.677535 182.938245 
L 49.840607 190.109866 
L 51.042449 190.645863 
L 52.24429 189.830259 
L 53.407362 188.662454 
L 54.609204 182.968191 
L 55.772276 185.628888 
L 56.974117 187.213782 
L 58.175958 184.933253 
L 59.261492 180.981241 
L 60.463334 179.5333 
L 61.626406 180.081579 
L 62.828247 183.68436 
L 63.991319 189.656535 
L 65.193161 190.291379 
L 66.395002 189.210016 
L 67.558074 188.366457 
L 68.759916 183.591225 
L 69.922988 185.651389 
L 71.124829 186.950914 
L 72.32667 184.770253 
L 73.412204 181.206817 
L 74.614046 179.449903 
L 75.777118 180.626294 
L 76.978959 184.38746 
L 78.142032 189.227501 
L 79.343873 189.972834 
L 80.545714 188.616959 
L 81.708786 188.125356 
L 82.910628 184.187857 
L 84.0737 185.684478 
L 85.275541 186.767903 
L 86.477382 184.598543 
L 87.562917 181.419929 
L 88.764758 179.328739 
L 89.92783 181.109092 
L 92.292744 188.815363 
L 93.494585 189.670884 
L 94.696426 188.02891 
L 95.859498 187.916736 
L 97.06134 184.721732 
L 99.426253 186.652304 
L 100.628094 184.476708 
L 101.752398 181.663361 
L 102.954239 179.261216 
L 104.117311 181.591889 
L 105.319152 185.686405 
L 106.482225 188.360591 
L 107.684066 189.318546 
L 108.885907 187.397513 
L 110.048979 187.634628 
L 111.250821 185.135028 
L 112.413893 185.642174 
L 113.615734 186.569182 
L 114.817576 184.490996 
L 117.104951 179.513184 
L 118.268023 182.392075 
L 119.469864 186.359827 
L 120.632937 187.645289 
L 121.834778 188.793879 
L 123.036619 186.670722 
L 124.199692 187.118099 
L 125.401533 185.385521 
L 126.564605 185.609269 
L 127.766446 186.544741 
L 128.968288 184.616936 
L 131.255663 179.456734 
L 132.418735 182.841225 
L 133.620577 186.835082 
L 134.783649 187.64879 
L 135.98549 188.628718 
L 137.187331 186.40302 
L 138.350404 186.995653 
L 139.552245 185.545941 
L 140.715317 185.498033 
L 141.917158 186.947386 
L 143.119 184.37393 
L 144.204534 181.605024 
L 145.406375 178.904759 
L 147.771289 187.204251 
L 148.934361 188.182228 
L 150.136202 188.63279 
L 151.338043 186.527516 
L 152.501116 187.412206 
L 153.702957 186.006837 
L 154.866029 185.583455 
L 156.06787 187.1658 
L 158.394015 180.419051 
L 159.595856 178.344052 
L 161.96077 187.500353 
L 163.123842 188.890218 
L 164.325683 188.65477 
L 165.527524 186.593854 
L 166.690597 187.677687 
L 167.892438 186.390474 
L 169.05551 185.987632 
L 170.257351 187.26946 
L 171.459193 183.585311 
L 172.544727 179.241118 
L 173.746568 177.824709 
L 176.111482 187.86354 
L 177.274554 189.530035 
L 178.476395 188.488246 
L 179.678236 186.403305 
L 180.841309 187.598268 
L 182.04315 186.594013 
L 183.206222 186.688087 
L 184.408064 187.231919 
L 185.609905 183.415462 
L 186.695439 178.132368 
L 187.89728 177.49126 
L 190.262194 188.507552 
L 191.425266 190.383507 
L 193.828949 186.452282 
L 194.992021 187.430768 
L 196.193862 186.659962 
L 197.356934 187.237073 
L 198.558776 186.901048 
L 199.760617 182.218717 
L 200.846151 176.753136 
L 202.047992 177.364424 
L 204.412906 189.290759 
L 205.575978 191.496306 
L 206.777819 188.85689 
L 207.979661 187.209696 
L 209.142733 187.570299 
L 210.344574 186.830284 
L 211.507646 187.62633 
L 212.709488 186.424021 
L 213.911329 180.256888 
L 215.035632 175.295747 
L 216.237473 177.095283 
L 217.400546 183.046534 
L 218.602387 189.812489 
L 219.765459 192.498877 
L 220.9673 189.559981 
L 222.169142 188.362271 
L 223.332214 188.054456 
L 224.534055 187.010036 
L 225.697127 188.072427 
L 226.898969 185.917849 
L 228.10081 178.602176 
L 229.186344 174.016908 
L 230.388185 176.512054 
L 232.753099 189.89972 
L 233.916171 192.770227 
L 235.118012 190.465537 
L 237.482926 188.963304 
L 238.684767 187.465198 
L 239.847839 188.696519 
L 241.049681 185.462113 
L 242.251522 177.121468 
L 243.337056 172.495838 
L 244.538897 175.229693 
L 246.903811 189.786238 
L 248.066883 192.749919 
L 249.268724 191.965421 
L 250.470566 191.71293 
L 251.633638 190.613127 
L 252.835479 188.377407 
L 253.998551 188.974673 
L 255.200393 184.657314 
L 256.402234 175.06503 
L 257.487768 170.655646 
L 258.689609 173.328988 
L 261.054523 189.309603 
L 262.217595 193.110289 
L 263.419436 194.185365 
L 264.621278 194.812513 
L 265.78435 193.245586 
L 266.986191 189.611745 
L 268.149264 188.721331 
L 269.351105 183.393801 
L 270.552946 172.429541 
L 271.677249 168.74782 
L 272.879091 171.381207 
L 275.244004 188.477336 
L 276.407076 193.614655 
L 277.608918 196.434286 
L 278.810759 197.960849 
L 279.973831 195.620028 
L 281.175672 190.892991 
L 282.338745 188.761789 
L 283.540586 182.488414 
L 284.742427 170.689917 
L 285.827961 166.842388 
L 287.029803 168.931033 
L 288.192875 179.172923 
L 289.394716 187.771976 
L 290.557788 193.90342 
L 291.75963 197.894701 
L 292.961471 200.029563 
L 294.124543 196.911239 
L 295.326384 192.288726 
L 296.489457 189.74991 
L 297.691298 182.196906 
L 298.893139 170.460202 
L 299.978673 165.203173 
L 301.180515 166.061253 
L 302.343587 178.087559 
L 303.545428 186.868413 
L 304.7085 193.956869 
L 305.910342 199.008866 
L 307.112183 201.646797 
L 310.640169 190.77751 
L 311.84201 182.027165 
L 313.043851 170.398397 
L 314.129385 163.88058 
L 315.331227 163.56147 
L 316.494299 176.692813 
L 318.859212 194.186434 
L 320.061054 200.047996 
L 321.262895 202.986533 
L 322.425967 198.802141 
L 323.627808 195.720184 
L 324.790881 190.822845 
L 325.992722 181.939647 
L 327.194563 170.320235 
L 328.318866 163.369227 
L 329.520708 161.90094 
L 330.68378 175.430336 
L 333.048693 195.072041 
L 334.250535 200.954693 
L 335.452376 203.39292 
L 336.615448 199.265368 
L 337.81729 196.529342 
L 338.980362 190.07889 
L 340.182203 182.349227 
L 341.384044 170.102744 
L 342.469578 162.698455 
L 343.67142 160.995298 
L 344.834492 174.385018 
L 347.199406 195.799162 
L 348.401247 201.630348 
L 349.603088 203.764338 
L 350.76616 199.824808 
L 351.968002 197.61951 
L 353.131074 189.693466 
L 354.332915 182.962511 
L 355.534756 169.416258 
L 356.620291 161.436257 
L 357.822132 160.168071 
L 358.985204 173.474442 
L 361.350118 196.33011 
L 362.551959 202.271748 
L 363.7538 204.132714 
L 364.916872 200.486498 
L 366.118714 198.901459 
L 367.281786 189.342039 
L 368.483627 183.571131 
L 369.685468 168.670835 
L 370.771003 160.10487 
L 371.972844 159.3304 
L 374.337757 185.75414 
L 375.50083 196.834252 
L 376.702671 202.952219 
L 377.904512 204.482055 
L 379.067584 201.276587 
L 380.269426 200.244093 
L 381.432498 188.889915 
L 382.634339 184.121851 
L 383.836181 167.82366 
L 384.960484 158.758176 
L 386.162325 158.53618 
L 389.690311 197.381886 
L 390.892152 203.711493 
L 392.093993 204.821136 
L 393.257066 202.19716 
L 394.458907 201.581391 
L 395.621979 188.335115 
L 396.82382 184.626389 
L 398.025662 166.795748 
L 399.111196 157.343864 
L 400.313037 157.823118 
L 401.476109 170.574536 
L 402.677951 186.096166 
L 403.841023 197.953091 
L 403.841023 197.953091 
" clip-path="url(#pe453b81a63)" style="fill: none; stroke: #ffa722; stroke-width: 0.5; stroke-linecap: square"/>
   </g>
   <g id="patch_9">
    <path d="M 25.99375 207.195 
L 25.99375 154.97 
" style="fill: none; stroke: #000000; stroke-width: 0.8; stroke-linejoin: miter; stroke-linecap: square"/>
   </g>
   <g id="patch_10">
    <path d="M 25.99375 207.195 
L 421.83375 207.195 
" style="fill: none; stroke: #000000; stroke-width: 0.8; stroke-linejoin: miter; stroke-linecap: square"/>
   </g>
  </g>
  <g id="axes_4">
   <g id="patch_11">
    <path d="M 25.99375 271.56 
L 421.83375 271.56 
L 421.83375 219.335 
L 25.99375 219.335 
z
" style="fill: #ffffff"/>
   </g>
   <g id="matplotlib.axis_7">
    <g id="xtick_22">
     <g id="line2d_62">
      <path d="M 42.823405 271.56 
L 42.823405 219.335 
" clip-path="url(#p8915a790f5)" style="fill: none; stroke-dasharray: 2.96,1.28; stroke-dashoffset: 0; stroke: #b0b0b0; stroke-opacity: 0.5; stroke-width: 0.8"/>
     </g>
     <g id="line2d_63">
      <g>
       <use xlink:href="#m96412599a3" x="42.823405" y="271.56" style="stroke: #000000; stroke-width: 0.8"/>
      </g>
     </g>
     <g id="text_9">
      <!-- 2000 -->
      <g transform="translate(32.643405 284.63875) scale(0.08 -0.08)">
       <use xlink:href="#DejaVuSerif-32"/>
       <use xlink:href="#DejaVuSerif-30" transform="translate(63.623047 0)"/>
       <use xlink:href="#DejaVuSerif-30" transform="translate(127.246094 0)"/>
       <use xlink:href="#DejaVuSerif-30" transform="translate(190.869141 0)"/>
      </g>
     </g>
    </g>
    <g id="xtick_23">
     <g id="line2d_64">
      <path d="M 99.465022 271.56 
L 99.465022 219.335 
" clip-path="url(#p8915a790f5)" style="fill: none; stroke-dasharray: 2.96,1.28; stroke-dashoffset: 0; stroke: #b0b0b0; stroke-opacity: 0.5; stroke-width: 0.8"/>
     </g>
     <g id="line2d_65">
      <g>
       <use xlink:href="#m96412599a3" x="99.465022" y="271.56" style="stroke: #000000; stroke-width: 0.8"/>
      </g>
     </g>
     <g id="text_10">
      <!-- 2004 -->
      <g transform="translate(89.285022 284.63875) scale(0.08 -0.08)">
       <defs>
        <path id="DejaVuSerif-34" d="M 2234 1581 
L 2234 4063 
L 641 1581 
L 2234 1581 
z
M 3609 0 
L 1484 0 
L 1484 331 
L 2234 331 
L 2234 1247 
L 197 1247 
L 197 1588 
L 2241 4750 
L 2859 4750 
L 2859 1581 
L 3750 1581 
L 3750 1247 
L 2859 1247 
L 2859 331 
L 3609 331 
L 3609 0 
z
" transform="scale(0.015625)"/>
       </defs>
       <use xlink:href="#DejaVuSerif-32"/>
       <use xlink:href="#DejaVuSerif-30" transform="translate(63.623047 0)"/>
       <use xlink:href="#DejaVuSerif-30" transform="translate(127.246094 0)"/>
       <use xlink:href="#DejaVuSerif-34" transform="translate(190.869141 0)"/>
      </g>
     </g>
    </g>
    <g id="xtick_24">
     <g id="line2d_66">
      <path d="M 156.106639 271.56 
L 156.106639 219.335 
" clip-path="url(#p8915a790f5)" style="fill: none; stroke-dasharray: 2.96,1.28; stroke-dashoffset: 0; stroke: #b0b0b0; stroke-opacity: 0.5; stroke-width: 0.8"/>
     </g>
     <g id="line2d_67">
      <g>
       <use xlink:href="#m96412599a3" x="156.106639" y="271.56" style="stroke: #000000; stroke-width: 0.8"/>
      </g>
     </g>
     <g id="text_11">
      <!-- 2008 -->
      <g transform="translate(145.926639 284.63875) scale(0.08 -0.08)">
       <defs>
        <path id="DejaVuSerif-38" d="M 2981 1275 
Q 2981 1775 2732 2051 
Q 2484 2328 2034 2328 
Q 1584 2328 1336 2051 
Q 1088 1775 1088 1275 
Q 1088 772 1336 495 
Q 1584 219 2034 219 
Q 2484 219 2732 495 
Q 2981 772 2981 1275 
z
M 2853 3541 
Q 2853 3966 2637 4203 
Q 2422 4441 2034 4441 
Q 1650 4441 1433 4203 
Q 1216 3966 1216 3541 
Q 1216 3113 1433 2875 
Q 1650 2638 2034 2638 
Q 2422 2638 2637 2875 
Q 2853 3113 2853 3541 
z
M 2516 2484 
Q 3047 2413 3344 2092 
Q 3641 1772 3641 1275 
Q 3641 619 3225 264 
Q 2809 -91 2034 -91 
Q 1263 -91 845 264 
Q 428 619 428 1275 
Q 428 1772 725 2092 
Q 1022 2413 1556 2484 
Q 1084 2569 832 2842 
Q 581 3116 581 3541 
Q 581 4103 968 4426 
Q 1356 4750 2034 4750 
Q 2713 4750 3100 4426 
Q 3488 4103 3488 3541 
Q 3488 3116 3236 2842 
Q 2984 2569 2516 2484 
z
" transform="scale(0.015625)"/>
       </defs>
       <use xlink:href="#DejaVuSerif-32"/>
       <use xlink:href="#DejaVuSerif-30" transform="translate(63.623047 0)"/>
       <use xlink:href="#DejaVuSerif-30" transform="translate(127.246094 0)"/>
       <use xlink:href="#DejaVuSerif-38" transform="translate(190.869141 0)"/>
      </g>
     </g>
    </g>
    <g id="xtick_25">
     <g id="line2d_68">
      <path d="M 212.748257 271.56 
L 212.748257 219.335 
" clip-path="url(#p8915a790f5)" style="fill: none; stroke-dasharray: 2.96,1.28; stroke-dashoffset: 0; stroke: #b0b0b0; stroke-opacity: 0.5; stroke-width: 0.8"/>
     </g>
     <g id="line2d_69">
      <g>
       <use xlink:href="#m96412599a3" x="212.748257" y="271.56" style="stroke: #000000; stroke-width: 0.8"/>
      </g>
     </g>
     <g id="text_12">
      <!-- 2012 -->
      <g transform="translate(202.568257 284.63875) scale(0.08 -0.08)">
       <use xlink:href="#DejaVuSerif-32"/>
       <use xlink:href="#DejaVuSerif-30" transform="translate(63.623047 0)"/>
       <use xlink:href="#DejaVuSerif-31" transform="translate(127.246094 0)"/>
       <use xlink:href="#DejaVuSerif-32" transform="translate(190.869141 0)"/>
      </g>
     </g>
    </g>
    <g id="xtick_26">
     <g id="line2d_70">
      <path d="M 269.389874 271.56 
L 269.389874 219.335 
" clip-path="url(#p8915a790f5)" style="fill: none; stroke-dasharray: 2.96,1.28; stroke-dashoffset: 0; stroke: #b0b0b0; stroke-opacity: 0.5; stroke-width: 0.8"/>
     </g>
     <g id="line2d_71">
      <g>
       <use xlink:href="#m96412599a3" x="269.389874" y="271.56" style="stroke: #000000; stroke-width: 0.8"/>
      </g>
     </g>
     <g id="text_13">
      <!-- 2016 -->
      <g transform="translate(259.209874 284.63875) scale(0.08 -0.08)">
       <defs>
        <path id="DejaVuSerif-36" d="M 2094 219 
Q 2534 219 2771 542 
Q 3009 866 3009 1472 
Q 3009 2078 2771 2401 
Q 2534 2725 2094 2725 
Q 1647 2725 1412 2412 
Q 1178 2100 1178 1509 
Q 1178 888 1415 553 
Q 1653 219 2094 219 
z
M 1075 2569 
Q 1288 2803 1556 2918 
Q 1825 3034 2163 3034 
Q 2859 3034 3264 2615 
Q 3669 2197 3669 1472 
Q 3669 763 3233 336 
Q 2797 -91 2069 -91 
Q 1278 -91 853 498 
Q 428 1088 428 2181 
Q 428 3406 931 4078 
Q 1434 4750 2350 4750 
Q 2597 4750 2869 4703 
Q 3141 4656 3425 4563 
L 3425 3794 
L 3072 3794 
Q 3034 4109 2831 4275 
Q 2628 4441 2284 4441 
Q 1678 4441 1381 3981 
Q 1084 3522 1075 2569 
z
" transform="scale(0.015625)"/>
       </defs>
       <use xlink:href="#DejaVuSerif-32"/>
       <use xlink:href="#DejaVuSerif-30" transform="translate(63.623047 0)"/>
       <use xlink:href="#DejaVuSerif-31" transform="translate(127.246094 0)"/>
       <use xlink:href="#DejaVuSerif-36" transform="translate(190.869141 0)"/>
      </g>
     </g>
    </g>
    <g id="xtick_27">
     <g id="line2d_72">
      <path d="M 326.031491 271.56 
L 326.031491 219.335 
" clip-path="url(#p8915a790f5)" style="fill: none; stroke-dasharray: 2.96,1.28; stroke-dashoffset: 0; stroke: #b0b0b0; stroke-opacity: 0.5; stroke-width: 0.8"/>
     </g>
     <g id="line2d_73">
      <g>
       <use xlink:href="#m96412599a3" x="326.031491" y="271.56" style="stroke: #000000; stroke-width: 0.8"/>
      </g>
     </g>
     <g id="text_14">
      <!-- 2020 -->
      <g transform="translate(315.851491 284.63875) scale(0.08 -0.08)">
       <use xlink:href="#DejaVuSerif-32"/>
       <use xlink:href="#DejaVuSerif-30" transform="translate(63.623047 0)"/>
       <use xlink:href="#DejaVuSerif-32" transform="translate(127.246094 0)"/>
       <use xlink:href="#DejaVuSerif-30" transform="translate(190.869141 0)"/>
      </g>
     </g>
    </g>
    <g id="xtick_28">
     <g id="line2d_74">
      <path d="M 382.673108 271.56 
L 382.673108 219.335 
" clip-path="url(#p8915a790f5)" style="fill: none; stroke-dasharray: 2.96,1.28; stroke-dashoffset: 0; stroke: #b0b0b0; stroke-opacity: 0.5; stroke-width: 0.8"/>
     </g>
     <g id="line2d_75">
      <g>
       <use xlink:href="#m96412599a3" x="382.673108" y="271.56" style="stroke: #000000; stroke-width: 0.8"/>
      </g>
     </g>
     <g id="text_15">
      <!-- 2024 -->
      <g transform="translate(372.493108 284.63875) scale(0.08 -0.08)">
       <use xlink:href="#DejaVuSerif-32"/>
       <use xlink:href="#DejaVuSerif-30" transform="translate(63.623047 0)"/>
       <use xlink:href="#DejaVuSerif-32" transform="translate(127.246094 0)"/>
       <use xlink:href="#DejaVuSerif-34" transform="translate(190.869141 0)"/>
      </g>
     </g>
    </g>
    <g id="text_16">
     <!-- Série histórica -->
     <g transform="translate(194.23625 296.38125) scale(0.08 -0.08)">
      <defs>
       <path id="DejaVuSerif-53" d="M 594 225 
L 594 1288 
L 953 1284 
Q 969 753 1261 498 
Q 1553 244 2150 244 
Q 2706 244 2998 464 
Q 3291 684 3291 1106 
Q 3291 1444 3114 1625 
Q 2938 1806 2369 1978 
L 1753 2163 
Q 1084 2366 811 2669 
Q 538 2972 538 3500 
Q 538 4094 959 4422 
Q 1381 4750 2144 4750 
Q 2469 4750 2856 4679 
Q 3244 4609 3681 4475 
L 3681 3481 
L 3328 3481 
Q 3275 3975 2998 4195 
Q 2722 4416 2156 4416 
Q 1663 4416 1405 4214 
Q 1147 4013 1147 3628 
Q 1147 3294 1340 3103 
Q 1534 2913 2163 2725 
L 2741 2553 
Q 3375 2363 3645 2067 
Q 3916 1772 3916 1275 
Q 3916 597 3481 253 
Q 3047 -91 2188 -91 
Q 1803 -91 1404 -12 
Q 1006 66 594 225 
z
" transform="scale(0.015625)"/>
       <path id="DejaVuSerif-e9" d="M 3469 1600 
L 991 1600 
L 991 1575 
Q 991 903 1244 561 
Q 1497 219 1991 219 
Q 2369 219 2611 417 
Q 2853 616 2950 1006 
L 3413 1006 
Q 3275 459 2904 184 
Q 2534 -91 1931 -91 
Q 1203 -91 761 389 
Q 319 869 319 1663 
Q 319 2450 753 2931 
Q 1188 3413 1894 3413 
Q 2647 3413 3050 2948 
Q 3453 2484 3469 1600 
z
M 2791 1931 
Q 2772 2513 2545 2808 
Q 2319 3103 1894 3103 
Q 1497 3103 1269 2806 
Q 1041 2509 991 1931 
L 2791 1931 
z
M 2330 5119 
L 2952 5119 
L 1890 3944 
L 1524 3944 
L 2330 5119 
z
" transform="scale(0.015625)"/>
       <path id="DejaVuSerif-72" d="M 3059 3328 
L 3059 2497 
L 2728 2497 
Q 2713 2744 2591 2866 
Q 2469 2988 2234 2988 
Q 1809 2988 1582 2694 
Q 1356 2400 1356 1850 
L 1356 331 
L 2022 331 
L 2022 0 
L 263 0 
L 263 331 
L 781 331 
L 781 2994 
L 231 2994 
L 231 3322 
L 1356 3322 
L 1356 2731 
Q 1525 3078 1790 3245 
Q 2056 3413 2438 3413 
Q 2578 3413 2733 3391 
Q 2888 3369 3059 3328 
z
" transform="scale(0.015625)"/>
       <path id="DejaVuSerif-69" d="M 622 4353 
Q 622 4497 726 4603 
Q 831 4709 978 4709 
Q 1122 4709 1226 4603 
Q 1331 4497 1331 4353 
Q 1331 4206 1228 4103 
Q 1125 4000 978 4000 
Q 831 4000 726 4103 
Q 622 4206 622 4353 
z
M 1356 331 
L 1900 331 
L 1900 0 
L 231 0 
L 231 331 
L 781 331 
L 781 2988 
L 231 2988 
L 231 3322 
L 1356 3322 
L 1356 331 
z
" transform="scale(0.015625)"/>
       <path id="DejaVuSerif-65" d="M 3469 1600 
L 991 1600 
L 991 1575 
Q 991 903 1244 561 
Q 1497 219 1991 219 
Q 2369 219 2611 417 
Q 2853 616 2950 1006 
L 3413 1006 
Q 3275 459 2904 184 
Q 2534 -91 1931 -91 
Q 1203 -91 761 389 
Q 319 869 319 1663 
Q 319 2450 753 2931 
Q 1188 3413 1894 3413 
Q 2647 3413 3050 2948 
Q 3453 2484 3469 1600 
z
M 2791 1931 
Q 2772 2513 2545 2808 
Q 2319 3103 1894 3103 
Q 1497 3103 1269 2806 
Q 1041 2509 991 1931 
L 2791 1931 
z
" transform="scale(0.015625)"/>
       <path id="DejaVuSerif-20" transform="scale(0.015625)"/>
       <path id="DejaVuSerif-68" d="M 263 0 
L 263 331 
L 781 331 
L 781 4531 
L 231 4531 
L 231 4863 
L 1356 4863 
L 1356 2731 
Q 1516 3069 1770 3241 
Q 2025 3413 2363 3413 
Q 2913 3413 3172 3097 
Q 3431 2781 3431 2113 
L 3431 331 
L 3944 331 
L 3944 0 
L 2356 0 
L 2356 331 
L 2853 331 
L 2853 1931 
Q 2853 2541 2704 2764 
Q 2556 2988 2175 2988 
Q 1775 2988 1565 2697 
Q 1356 2406 1356 1850 
L 1356 331 
L 1856 331 
L 1856 0 
L 263 0 
z
" transform="scale(0.015625)"/>
       <path id="DejaVuSerif-73" d="M 359 184 
L 359 959 
L 691 959 
Q 703 588 923 403 
Q 1144 219 1575 219 
Q 1963 219 2166 364 
Q 2369 509 2369 788 
Q 2369 1006 2220 1140 
Q 2072 1275 1594 1428 
L 1178 1569 
Q 750 1706 558 1912 
Q 366 2119 366 2438 
Q 366 2894 700 3153 
Q 1034 3413 1625 3413 
Q 1888 3413 2178 3344 
Q 2469 3275 2778 3144 
L 2778 2419 
L 2447 2419 
Q 2434 2741 2221 2922 
Q 2009 3103 1644 3103 
Q 1281 3103 1095 2975 
Q 909 2847 909 2591 
Q 909 2381 1050 2254 
Q 1191 2128 1613 1997 
L 2069 1856 
Q 2541 1709 2748 1489 
Q 2956 1269 2956 922 
Q 2956 450 2595 179 
Q 2234 -91 1600 -91 
Q 1278 -91 972 -22 
Q 666 47 359 184 
z
" transform="scale(0.015625)"/>
       <path id="DejaVuSerif-74" d="M 691 2988 
L 184 2988 
L 184 3322 
L 691 3322 
L 691 4353 
L 1269 4353 
L 1269 3322 
L 2350 3322 
L 2350 2988 
L 1269 2988 
L 1269 878 
Q 1269 456 1350 337 
Q 1431 219 1650 219 
Q 1875 219 1978 351 
Q 2081 484 2088 781 
L 2522 781 
Q 2497 328 2275 118 
Q 2053 -91 1600 -91 
Q 1103 -91 897 129 
Q 691 350 691 878 
L 691 2988 
z
" transform="scale(0.015625)"/>
       <path id="DejaVuSerif-f3" d="M 1925 219 
Q 2388 219 2623 584 
Q 2859 950 2859 1663 
Q 2859 2375 2623 2739 
Q 2388 3103 1925 3103 
Q 1463 3103 1227 2739 
Q 991 2375 991 1663 
Q 991 950 1228 584 
Q 1466 219 1925 219 
z
M 1925 -91 
Q 1200 -91 759 389 
Q 319 869 319 1663 
Q 319 2456 758 2934 
Q 1197 3413 1925 3413 
Q 2653 3413 3092 2934 
Q 3531 2456 3531 1663 
Q 3531 869 3092 389 
Q 2653 -91 1925 -91 
z
M 2362 5119 
L 2984 5119 
L 1922 3944 
L 1556 3944 
L 2362 5119 
z
" transform="scale(0.015625)"/>
       <path id="DejaVuSerif-63" d="M 3291 997 
Q 3169 466 2822 187 
Q 2475 -91 1925 -91 
Q 1200 -91 759 389 
Q 319 869 319 1663 
Q 319 2459 759 2936 
Q 1200 3413 1925 3413 
Q 2241 3413 2553 3339 
Q 2866 3266 3181 3116 
L 3181 2266 
L 2847 2266 
Q 2781 2703 2561 2903 
Q 2341 3103 1931 3103 
Q 1466 3103 1228 2742 
Q 991 2381 991 1663 
Q 991 944 1227 581 
Q 1463 219 1931 219 
Q 2303 219 2525 412 
Q 2747 606 2828 997 
L 3291 997 
z
" transform="scale(0.015625)"/>
       <path id="DejaVuSerif-61" d="M 2547 1044 
L 2547 1747 
L 1806 1747 
Q 1378 1747 1168 1562 
Q 959 1378 959 997 
Q 959 650 1171 447 
Q 1384 244 1747 244 
Q 2106 244 2326 466 
Q 2547 688 2547 1044 
z
M 3122 2075 
L 3122 331 
L 3634 331 
L 3634 0 
L 2547 0 
L 2547 359 
Q 2356 128 2106 18 
Q 1856 -91 1522 -91 
Q 969 -91 644 203 
Q 319 497 319 997 
Q 319 1513 691 1797 
Q 1063 2081 1741 2081 
L 2547 2081 
L 2547 2309 
Q 2547 2688 2317 2895 
Q 2088 3103 1672 3103 
Q 1328 3103 1125 2947 
Q 922 2791 872 2484 
L 575 2484 
L 575 3156 
Q 875 3284 1158 3348 
Q 1441 3413 1709 3413 
Q 2400 3413 2761 3070 
Q 3122 2728 3122 2075 
z
" transform="scale(0.015625)"/>
      </defs>
      <use xlink:href="#DejaVuSerif-53"/>
      <use xlink:href="#DejaVuSerif-e9" transform="translate(68.505859 0)"/>
      <use xlink:href="#DejaVuSerif-72" transform="translate(127.685547 0)"/>
      <use xlink:href="#DejaVuSerif-69" transform="translate(175.488281 0)"/>
      <use xlink:href="#DejaVuSerif-65" transform="translate(207.470703 0)"/>
      <use xlink:href="#DejaVuSerif-20" transform="translate(266.650391 0)"/>
      <use xlink:href="#DejaVuSerif-68" transform="translate(298.4375 0)"/>
      <use xlink:href="#DejaVuSerif-69" transform="translate(362.841797 0)"/>
      <use xlink:href="#DejaVuSerif-73" transform="translate(394.824219 0)"/>
      <use xlink:href="#DejaVuSerif-74" transform="translate(446.142578 0)"/>
      <use xlink:href="#DejaVuSerif-f3" transform="translate(486.328125 0)"/>
      <use xlink:href="#DejaVuSerif-72" transform="translate(546.533203 0)"/>
      <use xlink:href="#DejaVuSerif-69" transform="translate(594.335938 0)"/>
      <use xlink:href="#DejaVuSerif-63" transform="translate(626.318359 0)"/>
      <use xlink:href="#DejaVuSerif-61" transform="translate(682.324219 0)"/>
     </g>
    </g>
   </g>
   <g id="matplotlib.axis_8">
    <g id="ytick_9">
     <g id="line2d_76">
      <path d="M 25.99375 249.301345 
L 421.83375 249.301345 
" clip-path="url(#p8915a790f5)" style="fill: none; stroke-dasharray: 2.96,1.28; stroke-dashoffset: 0; stroke: #b0b0b0; stroke-opacity: 0.5; stroke-width: 0.8"/>
     </g>
     <g id="line2d_77">
      <g>
       <use xlink:href="#m9dea28c66c" x="25.99375" y="249.301345" style="stroke: #000000; stroke-width: 0.8"/>
      </g>
     </g>
     <g id="text_17">
      <!-- 0 -->
      <g transform="translate(13.90375 252.34072) scale(0.08 -0.08)">
       <use xlink:href="#DejaVuSerif-30"/>
      </g>
     </g>
    </g>
    <g id="ytick_10">
     <g id="line2d_78">
      <path d="M 25.99375 224.877691 
L 421.83375 224.877691 
" clip-path="url(#p8915a790f5)" style="fill: none; stroke-dasharray: 2.96,1.28; stroke-dashoffset: 0; stroke: #b0b0b0; stroke-opacity: 0.5; stroke-width: 0.8"/>
     </g>
     <g id="line2d_79">
      <g>
       <use xlink:href="#m9dea28c66c" x="25.99375" y="224.877691" style="stroke: #000000; stroke-width: 0.8"/>
      </g>
     </g>
     <g id="text_18">
      <!-- 1 -->
      <g transform="translate(13.90375 227.917066) scale(0.08 -0.08)">
       <use xlink:href="#DejaVuSerif-31"/>
      </g>
     </g>
    </g>
   </g>
   <g id="line2d_80">
    <path d="M 43.986477 250.709282 
L 45.11078 252.566714 
L 46.312622 254.32525 
L 47.475694 255.113947 
L 48.677535 249.759486 
L 49.840607 241.834074 
L 51.042449 244.471567 
L 52.24429 245.170394 
L 53.407362 243.961229 
L 54.609204 243.862588 
L 55.772276 248.029058 
L 56.974117 248.966302 
L 58.175958 243.111415 
L 59.261492 242.062709 
L 60.463334 241.338423 
L 61.626406 241.63955 
L 62.828247 246.204433 
L 63.991319 260.854267 
L 65.193161 258.384146 
L 66.395002 257.930815 
L 67.558074 259.249379 
L 68.759916 258.41033 
L 69.922988 254.452836 
L 71.124829 254.15766 
L 72.32667 253.553656 
L 73.412204 253.404135 
L 74.614046 246.810097 
L 75.777118 246.530809 
L 76.978959 250.352893 
L 78.142032 245.955789 
L 79.343873 246.469859 
L 80.545714 244.676478 
L 81.708786 249.338287 
L 82.910628 244.946787 
L 84.0737 244.427088 
L 86.477382 248.42749 
L 87.562917 246.456197 
L 88.764758 255.254793 
L 89.92783 252.008927 
L 91.129671 251.354044 
L 92.292744 250.148292 
L 93.494585 248.654248 
L 94.696426 249.47264 
L 95.859498 243.604558 
L 98.224412 248.23915 
L 99.426253 248.884846 
L 100.628094 255.778147 
L 101.752398 255.643026 
L 102.954239 251.985249 
L 104.117311 252.504294 
L 105.319152 248.250005 
L 106.482225 247.191304 
L 107.684066 245.421112 
L 108.885907 248.045916 
L 110.048979 246.939533 
L 111.250821 254.1551 
L 113.615734 245.977869 
L 114.817576 246.732245 
L 115.90311 246.553924 
L 117.104951 246.917814 
L 118.268023 248.933363 
L 119.469864 252.153254 
L 120.632937 249.526184 
L 121.834778 252.065979 
L 123.036619 250.453476 
L 124.199692 250.297438 
L 125.401533 250.262563 
L 126.564605 251.804295 
L 127.766446 247.153014 
L 128.968288 243.0087 
L 130.053822 247.61134 
L 131.255663 248.599366 
L 132.418735 251.691797 
L 133.620577 250.751362 
L 134.783649 249.17932 
L 135.98549 250.970521 
L 137.187331 249.233858 
L 138.350404 253.876578 
L 139.552245 254.791825 
L 140.715317 249.854958 
L 141.917158 249.825746 
L 143.119 247.27473 
L 144.204534 247.349253 
L 145.406375 243.952417 
L 146.569447 245.766929 
L 147.771289 246.422501 
L 148.934361 247.768482 
L 150.136202 247.334553 
L 151.338043 247.63472 
L 152.501116 248.212354 
L 153.702957 244.756565 
L 154.866029 249.278925 
L 156.06787 247.692225 
L 157.269712 255.680652 
L 158.394015 260.890041 
L 159.595856 259.657753 
L 160.758928 250.488727 
L 163.123842 240.796557 
L 164.325683 247.529471 
L 166.690597 245.413501 
L 167.892438 242.951168 
L 169.05551 248.270014 
L 170.257351 260.352061 
L 171.459193 255.634297 
L 172.544727 249.997876 
L 173.746568 247.804088 
L 176.111482 255.248167 
L 177.274554 256.333247 
L 178.476395 250.827483 
L 180.841309 245.334349 
L 182.04315 247.035454 
L 183.206222 239.141627 
L 184.408064 244.774492 
L 185.609905 246.672498 
L 186.695439 246.245447 
L 187.89728 246.049032 
L 189.060352 248.1327 
L 190.262194 246.719712 
L 191.425266 251.497843 
L 192.627107 248.15198 
L 193.828949 258.962493 
L 194.992021 259.804385 
L 196.193862 258.786249 
L 197.356934 255.152007 
L 198.558776 247.479712 
L 199.760617 243.144246 
L 200.846151 243.284313 
L 202.047992 251.169964 
L 203.211064 245.176858 
L 204.412906 246.794249 
L 205.575978 249.871341 
L 206.777819 252.065041 
L 207.979661 245.213475 
L 209.142733 245.380976 
L 210.344574 250.927447 
L 211.507646 249.709251 
L 212.709488 248.094854 
L 213.911329 251.365589 
L 215.035632 245.740283 
L 216.237473 239.080591 
L 217.400546 252.740058 
L 218.602387 250.330816 
L 219.765459 243.080726 
L 220.9673 243.445914 
L 222.169142 240.101338 
L 223.332214 248.762665 
L 224.534055 249.94154 
L 225.697127 259.693348 
L 226.898969 250.7769 
L 228.10081 263.25046 
L 229.186344 258.309535 
L 230.388185 254.665833 
L 231.551258 249.119295 
L 232.753099 251.160251 
L 233.916171 251.284459 
L 235.118012 246.270649 
L 236.319854 244.952079 
L 237.482926 243.932704 
L 238.684767 242.346358 
L 239.847839 242.375516 
L 241.049681 247.218083 
L 242.251522 238.439155 
L 243.337056 247.246866 
L 244.538897 258.897269 
L 245.70197 252.032139 
L 246.903811 252.638224 
L 248.066883 252.068983 
L 249.268724 251.121498 
L 250.470566 254.676302 
L 251.633638 245.610004 
L 252.835479 245.90949 
L 253.998551 245.667533 
L 255.200393 254.067066 
L 256.402234 244.029221 
L 257.487768 255.707327 
L 258.689609 254.850729 
L 259.852682 253.774455 
L 261.054523 252.225631 
L 262.217595 255.909219 
L 263.419436 248.998638 
L 264.621278 248.633978 
L 266.986191 241.896491 
L 268.149264 246.7247 
L 269.351105 253.240014 
L 270.552946 261.570309 
L 271.677249 250.963808 
L 272.879091 248.114704 
L 274.042163 243.833109 
L 275.244004 246.305984 
L 276.407076 244.517637 
L 277.608918 243.327169 
L 278.810759 243.413401 
L 279.973831 250.563325 
L 281.175672 256.348494 
L 282.338745 254.414306 
L 283.540586 245.942509 
L 284.742427 245.520257 
L 285.827961 239.552252 
L 287.029803 244.210849 
L 288.192875 256.917822 
L 289.394716 248.728785 
L 290.557788 239.202044 
L 291.75963 254.024276 
L 292.961471 255.641546 
L 294.124543 256.204107 
L 295.326384 260.632793 
L 296.489457 257.402459 
L 297.691298 249.640781 
L 298.893139 245.820349 
L 299.978673 245.273212 
L 301.180515 238.800868 
L 302.343587 239.724781 
L 303.545428 250.526458 
L 304.7085 259.027626 
L 305.910342 260.135498 
L 307.112183 256.094331 
L 308.275255 264.673427 
L 309.477096 244.449446 
L 310.640169 233.416988 
L 313.043851 234.351751 
L 314.129385 254.825001 
L 315.331227 260.772371 
L 316.494299 242.652162 
L 317.69614 240.778125 
L 318.859212 247.328711 
L 321.262895 257.432013 
L 322.425967 250.56984 
L 323.627808 246.079042 
L 324.790881 250.64396 
L 325.992722 253.939818 
L 328.318866 245.596869 
L 329.520708 250.746536 
L 330.68378 269.186136 
L 331.885621 263.927027 
L 333.048693 251.054105 
L 334.250535 233.262848 
L 335.452376 231.799389 
L 336.615448 221.708864 
L 337.81729 236.395801 
L 338.980362 261.293941 
L 340.182203 260.27953 
L 341.384044 267.673515 
L 342.469578 253.631563 
L 343.67142 242.134285 
L 344.834492 242.934915 
L 346.036333 239.969868 
L 347.199406 249.995183 
L 348.401247 257.985371 
L 349.603088 262.433993 
L 350.76616 260.13503 
L 351.968002 266.899952 
L 353.131074 255.867622 
L 354.332915 247.507461 
L 355.534756 246.966168 
L 356.620291 246.091133 
L 357.822132 246.599278 
L 358.985204 242.748606 
L 360.187045 244.800156 
L 361.350118 238.930799 
L 362.551959 240.641568 
L 364.916872 250.675085 
L 366.118714 251.265745 
L 367.281786 242.428978 
L 368.483627 244.864717 
L 369.685468 255.428344 
L 370.771003 257.145942 
L 371.972844 247.750677 
L 373.135916 252.707128 
L 374.337757 252.400054 
L 375.50083 259.314305 
L 376.702671 257.73369 
L 377.904512 244.10339 
L 379.067584 239.836255 
L 380.269426 233.294126 
L 381.432498 241.402299 
L 382.634339 247.533604 
L 383.836181 255.133951 
L 384.960484 256.560411 
L 386.162325 248.579226 
L 387.325397 243.321132 
L 389.690311 248.210642 
L 390.892152 247.349845 
L 392.093993 252.815118 
L 393.257066 258.674874 
L 394.458907 257.376823 
L 395.621979 253.552243 
L 396.82382 250.676367 
L 398.025662 235.115923 
L 399.111196 237.40916 
L 400.313037 253.379999 
L 401.476109 253.996897 
L 402.677951 253.12543 
L 403.841023 247.506257 
L 403.841023 247.506257 
" clip-path="url(#p8915a790f5)" style="fill: none; stroke: #47a730; stroke-width: 0.5; stroke-linecap: square"/>
   </g>
   <g id="patch_12">
    <path d="M 25.99375 271.56 
L 25.99375 219.335 
" style="fill: none; stroke: #000000; stroke-width: 0.8; stroke-linejoin: miter; stroke-linecap: square"/>
   </g>
   <g id="patch_13">
    <path d="M 25.99375 271.56 
L 421.83375 271.56 
" style="fill: none; stroke: #000000; stroke-width: 0.8; stroke-linejoin: miter; stroke-linecap: square"/>
   </g>
  </g>
  <g id="legend_1">
   <g id="line2d_81">
    <path d="M 59.886875 13.67875 
L 67.886875 13.67875 
L 75.886875 13.67875 
" style="fill: none; stroke: #4596f3; stroke-width: 0.5; stroke-linecap: square"/>
   </g>
   <g id="text_19">
    <!-- Observado -->
    <g transform="translate(82.286875 16.47875) scale(0.08 -0.08)">
     <defs>
      <path id="DejaVuSerif-4f" d="M 2625 244 
Q 3391 244 3781 770 
Q 4172 1297 4172 2328 
Q 4172 3363 3781 3889 
Q 3391 4416 2625 4416 
Q 1856 4416 1465 3889 
Q 1075 3363 1075 2328 
Q 1075 1297 1465 770 
Q 1856 244 2625 244 
z
M 2625 -91 
Q 2150 -91 1751 65 
Q 1353 222 1050 525 
Q 700 875 529 1319 
Q 359 1763 359 2328 
Q 359 2894 529 3339 
Q 700 3784 1050 4134 
Q 1356 4441 1750 4595 
Q 2144 4750 2625 4750 
Q 3641 4750 4266 4084 
Q 4891 3419 4891 2328 
Q 4891 1769 4719 1320 
Q 4547 872 4197 525 
Q 3891 219 3497 64 
Q 3103 -91 2625 -91 
z
" transform="scale(0.015625)"/>
      <path id="DejaVuSerif-62" d="M 738 331 
L 738 4531 
L 184 4531 
L 184 4863 
L 1313 4863 
L 1313 2803 
Q 1481 3116 1742 3264 
Q 2003 3413 2388 3413 
Q 3000 3413 3387 2928 
Q 3775 2444 3775 1663 
Q 3775 881 3387 395 
Q 3000 -91 2388 -91 
Q 2003 -91 1742 57 
Q 1481 206 1313 519 
L 1313 0 
L 184 0 
L 184 331 
L 738 331 
z
M 1313 1497 
Q 1313 897 1542 583 
Q 1772 269 2209 269 
Q 2650 269 2876 622 
Q 3103 975 3103 1663 
Q 3103 2353 2876 2703 
Q 2650 3053 2209 3053 
Q 1772 3053 1542 2737 
Q 1313 2422 1313 1825 
L 1313 1497 
z
" transform="scale(0.015625)"/>
      <path id="DejaVuSerif-76" d="M 1581 0 
L 359 2988 
L -19 2988 
L -19 3322 
L 1509 3322 
L 1509 2988 
L 978 2988 
L 1913 703 
L 2847 2988 
L 2350 2988 
L 2350 3322 
L 3597 3322 
L 3597 2988 
L 3225 2988 
L 2003 0 
L 1581 0 
z
" transform="scale(0.015625)"/>
      <path id="DejaVuSerif-64" d="M 3359 331 
L 3909 331 
L 3909 0 
L 2784 0 
L 2784 519 
Q 2616 206 2355 57 
Q 2094 -91 1709 -91 
Q 1097 -91 708 395 
Q 319 881 319 1663 
Q 319 2444 706 2928 
Q 1094 3413 1709 3413 
Q 2094 3413 2355 3264 
Q 2616 3116 2784 2803 
L 2784 4531 
L 2241 4531 
L 2241 4863 
L 3359 4863 
L 3359 331 
z
M 2784 1497 
L 2784 1825 
Q 2784 2422 2554 2737 
Q 2325 3053 1888 3053 
Q 1444 3053 1217 2703 
Q 991 2353 991 1663 
Q 991 975 1217 622 
Q 1444 269 1888 269 
Q 2325 269 2554 583 
Q 2784 897 2784 1497 
z
" transform="scale(0.015625)"/>
      <path id="DejaVuSerif-6f" d="M 1925 219 
Q 2388 219 2623 584 
Q 2859 950 2859 1663 
Q 2859 2375 2623 2739 
Q 2388 3103 1925 3103 
Q 1463 3103 1227 2739 
Q 991 2375 991 1663 
Q 991 950 1228 584 
Q 1466 219 1925 219 
z
M 1925 -91 
Q 1200 -91 759 389 
Q 319 869 319 1663 
Q 319 2456 758 2934 
Q 1197 3413 1925 3413 
Q 2653 3413 3092 2934 
Q 3531 2456 3531 1663 
Q 3531 869 3092 389 
Q 2653 -91 1925 -91 
z
" transform="scale(0.015625)"/>
     </defs>
     <use xlink:href="#DejaVuSerif-4f"/>
     <use xlink:href="#DejaVuSerif-62" transform="translate(81.982422 0)"/>
     <use xlink:href="#DejaVuSerif-73" transform="translate(145.996094 0)"/>
     <use xlink:href="#DejaVuSerif-65" transform="translate(197.314453 0)"/>
     <use xlink:href="#DejaVuSerif-72" transform="translate(256.494141 0)"/>
     <use xlink:href="#DejaVuSerif-76" transform="translate(304.296875 0)"/>
     <use xlink:href="#DejaVuSerif-61" transform="translate(360.791016 0)"/>
     <use xlink:href="#DejaVuSerif-64" transform="translate(420.410156 0)"/>
     <use xlink:href="#DejaVuSerif-6f" transform="translate(484.423828 0)"/>
    </g>
   </g>
   <g id="line2d_82">
    <path d="M 141.858125 13.67875 
L 149.858125 13.67875 
L 157.858125 13.67875 
" style="fill: none; stroke: #ff5656; stroke-width: 0.5; stroke-linecap: square"/>
   </g>
   <g id="text_20">
    <!-- Tendência -->
    <g transform="translate(164.258125 16.47875) scale(0.08 -0.08)">
     <defs>
      <path id="DejaVuSerif-54" d="M 1222 0 
L 1222 331 
L 1819 331 
L 1819 4294 
L 447 4294 
L 447 3566 
L 63 3566 
L 63 4666 
L 4206 4666 
L 4206 3566 
L 3822 3566 
L 3822 4294 
L 2450 4294 
L 2450 331 
L 3047 331 
L 3047 0 
L 1222 0 
z
" transform="scale(0.015625)"/>
      <path id="DejaVuSerif-6e" d="M 263 0 
L 263 331 
L 781 331 
L 781 2988 
L 231 2988 
L 231 3322 
L 1356 3322 
L 1356 2731 
Q 1516 3069 1770 3241 
Q 2025 3413 2363 3413 
Q 2913 3413 3172 3097 
Q 3431 2781 3431 2113 
L 3431 331 
L 3944 331 
L 3944 0 
L 2356 0 
L 2356 331 
L 2853 331 
L 2853 1931 
Q 2853 2541 2703 2767 
Q 2553 2994 2175 2994 
Q 1775 2994 1565 2701 
Q 1356 2409 1356 1850 
L 1356 331 
L 1856 331 
L 1856 0 
L 263 0 
z
" transform="scale(0.015625)"/>
      <path id="DejaVuSerif-ea" d="M 3469 1600 
L 991 1600 
L 991 1575 
Q 991 903 1244 561 
Q 1497 219 1991 219 
Q 2369 219 2611 417 
Q 2853 616 2950 1006 
L 3413 1006 
Q 3275 459 2904 184 
Q 2534 -91 1931 -91 
Q 1203 -91 761 389 
Q 319 869 319 1663 
Q 319 2450 753 2931 
Q 1188 3413 1894 3413 
Q 2647 3413 3050 2948 
Q 3453 2484 3469 1600 
z
M 2791 1931 
Q 2772 2513 2545 2808 
Q 2319 3103 1894 3103 
Q 1497 3103 1269 2806 
Q 1041 2509 991 1931 
L 2791 1931 
z
M 1634 5119 
L 2159 5119 
L 2893 3944 
L 2530 3944 
L 1896 4756 
L 1262 3944 
L 899 3944 
L 1634 5119 
z
" transform="scale(0.015625)"/>
     </defs>
     <use xlink:href="#DejaVuSerif-54"/>
     <use xlink:href="#DejaVuSerif-65" transform="translate(58.949219 0)"/>
     <use xlink:href="#DejaVuSerif-6e" transform="translate(118.128906 0)"/>
     <use xlink:href="#DejaVuSerif-64" transform="translate(182.533203 0)"/>
     <use xlink:href="#DejaVuSerif-ea" transform="translate(246.546875 0)"/>
     <use xlink:href="#DejaVuSerif-6e" transform="translate(305.726562 0)"/>
     <use xlink:href="#DejaVuSerif-63" transform="translate(370.130859 0)"/>
     <use xlink:href="#DejaVuSerif-69" transform="translate(426.136719 0)"/>
     <use xlink:href="#DejaVuSerif-61" transform="translate(458.119141 0)"/>
    </g>
   </g>
   <g id="line2d_83">
    <path d="M 221.679375 13.67875 
L 229.679375 13.67875 
L 237.679375 13.67875 
" style="fill: none; stroke: #ffa722; stroke-width: 0.5; stroke-linecap: square"/>
   </g>
   <g id="text_21">
    <!-- Sazonalidade -->
    <g transform="translate(244.079375 16.47875) scale(0.08 -0.08)">
     <defs>
      <path id="DejaVuSerif-7a" d="M 256 0 
L 256 269 
L 2338 2988 
L 691 2988 
L 691 2413 
L 359 2413 
L 359 3322 
L 3078 3322 
L 3078 3053 
L 997 331 
L 2803 331 
L 2803 934 
L 3138 934 
L 3138 0 
L 256 0 
z
" transform="scale(0.015625)"/>
      <path id="DejaVuSerif-6c" d="M 1313 331 
L 1856 331 
L 1856 0 
L 184 0 
L 184 331 
L 738 331 
L 738 4531 
L 184 4531 
L 184 4863 
L 1313 4863 
L 1313 331 
z
" transform="scale(0.015625)"/>
     </defs>
     <use xlink:href="#DejaVuSerif-53"/>
     <use xlink:href="#DejaVuSerif-61" transform="translate(68.505859 0)"/>
     <use xlink:href="#DejaVuSerif-7a" transform="translate(128.125 0)"/>
     <use xlink:href="#DejaVuSerif-6f" transform="translate(180.810547 0)"/>
     <use xlink:href="#DejaVuSerif-6e" transform="translate(241.015625 0)"/>
     <use xlink:href="#DejaVuSerif-61" transform="translate(305.419922 0)"/>
     <use xlink:href="#DejaVuSerif-6c" transform="translate(365.039062 0)"/>
     <use xlink:href="#DejaVuSerif-69" transform="translate(397.021484 0)"/>
     <use xlink:href="#DejaVuSerif-64" transform="translate(429.003906 0)"/>
     <use xlink:href="#DejaVuSerif-61" transform="translate(493.017578 0)"/>
     <use xlink:href="#DejaVuSerif-64" transform="translate(552.636719 0)"/>
     <use xlink:href="#DejaVuSerif-65" transform="translate(616.650391 0)"/>
    </g>
   </g>
   <g id="line2d_84">
    <path d="M 314.148125 13.67875 
L 322.148125 13.67875 
L 330.148125 13.67875 
" style="fill: none; stroke: #47a730; stroke-width: 0.5; stroke-linecap: square"/>
   </g>
   <g id="text_22">
    <!-- Resíduo -->
    <g transform="translate(336.548125 16.47875) scale(0.08 -0.08)">
     <defs>
      <path id="DejaVuSerif-52" d="M 3066 2316 
Q 3284 2256 3442 2114 
Q 3600 1972 3725 1716 
L 4403 331 
L 4972 331 
L 4972 0 
L 3872 0 
L 3144 1484 
Q 2934 1916 2759 2042 
Q 2584 2169 2278 2169 
L 1581 2169 
L 1581 331 
L 2241 331 
L 2241 0 
L 353 0 
L 353 331 
L 947 331 
L 947 4331 
L 353 4331 
L 353 4666 
L 2719 4666 
Q 3400 4666 3770 4341 
Q 4141 4016 4141 3419 
Q 4141 2938 3870 2661 
Q 3600 2384 3066 2316 
z
M 1581 2503 
L 2503 2503 
Q 2975 2503 3200 2726 
Q 3425 2950 3425 3419 
Q 3425 3888 3200 4109 
Q 2975 4331 2503 4331 
L 1581 4331 
L 1581 2503 
z
" transform="scale(0.015625)"/>
      <path id="DejaVuSerif-ed" d="M 1356 331 
L 1900 331 
L 1900 0 
L 231 0 
L 231 331 
L 781 331 
L 781 2988 
L 231 2988 
L 231 3322 
L 1356 3322 
L 1356 331 
z
M 1458 5119 
L 2080 5119 
L 1018 3944 
L 652 3944 
L 1458 5119 
z
" transform="scale(0.015625)"/>
      <path id="DejaVuSerif-75" d="M 2266 3322 
L 3341 3322 
L 3341 331 
L 3884 331 
L 3884 0 
L 2766 0 
L 2766 588 
Q 2606 256 2353 82 
Q 2100 -91 1766 -91 
Q 1213 -91 952 223 
Q 691 538 691 1209 
L 691 2988 
L 172 2988 
L 172 3322 
L 1269 3322 
L 1269 1388 
Q 1269 781 1417 556 
Q 1566 331 1947 331 
Q 2347 331 2556 625 
Q 2766 919 2766 1478 
L 2766 2988 
L 2266 2988 
L 2266 3322 
z
" transform="scale(0.015625)"/>
     </defs>
     <use xlink:href="#DejaVuSerif-52"/>
     <use xlink:href="#DejaVuSerif-65" transform="translate(75.292969 0)"/>
     <use xlink:href="#DejaVuSerif-73" transform="translate(134.472656 0)"/>
     <use xlink:href="#DejaVuSerif-ed" transform="translate(185.791016 0)"/>
     <use xlink:href="#DejaVuSerif-64" transform="translate(217.773438 0)"/>
     <use xlink:href="#DejaVuSerif-75" transform="translate(281.787109 0)"/>
     <use xlink:href="#DejaVuSerif-6f" transform="translate(346.191406 0)"/>
    </g>
   </g>
  </g>
 </g>
 <defs>
  <clipPath id="p9c2855d5b7">
   <rect x="25.99375" y="26.24" width="395.84" height="52.225"/>
  </clipPath>
  <clipPath id="pd5f6926f17">
   <rect x="25.99375" y="90.605" width="395.84" height="52.225"/>
  </clipPath>
  <clipPath id="pe453b81a63">
   <rect x="25.99375" y="154.97" width="395.84" height="52.225"/>
  </clipPath>
  <clipPath id="p8915a790f5">
   <rect x="25.99375" y="219.335" width="395.84" height="52.225"/>
  </clipPath>
 </defs>
</svg>
