<?xml version="1.0" encoding="utf-8" standalone="no"?>
<!DOCTYPE svg PUBLIC "-//W3C//DTD SVG 1.1//EN"
  "http://www.w3.org/Graphics/SVG/1.1/DTD/svg11.dtd">
<svg xmlns:xlink="http://www.w3.org/1999/xlink" width="429.51875pt" height="305.245pt" viewBox="0 0 429.51875 305.245" xmlns="http://www.w3.org/2000/svg" version="1.1">
 <metadata>
  <rdf:RDF xmlns:dc="http://purl.org/dc/elements/1.1/" xmlns:cc="http://creativecommons.org/ns#" xmlns:rdf="http://www.w3.org/1999/02/22-rdf-syntax-ns#">
   <cc:Work>
    <dc:type rdf:resource="http://purl.org/dc/dcmitype/StillImage"/>
    <dc:date>2025-06-30T00:35:12.143674</dc:date>
    <dc:format>image/svg+xml</dc:format>
    <dc:creator>
     <cc:Agent>
      <dc:title>Matplotlib v3.10.3, https://matplotlib.org/</dc:title>
     </cc:Agent>
    </dc:creator>
   </cc:Work>
  </rdf:RDF>
 </metadata>
 <defs>
  <style type="text/css">*{stroke-linejoin: round; stroke-linecap: butt}</style>
 </defs>
 <g id="figure_1">
  <g id="patch_1">
   <path d="M 0 305.245 
L 429.51875 305.245 
L 429.51875 0 
L 0 0 
z
" style="fill: #ffffff"/>
  </g>
  <g id="axes_1">
   <g id="patch_2">
    <path d="M 50.45875 77.332903 
L 422.31875 77.332903 
L 422.31875 26.24 
L 50.45875 26.24 
z
" style="fill: #ffffff"/>
   </g>
   <g id="matplotlib.axis_1">
    <g id="xtick_1">
     <g id="line2d_1">
      <path d="M 66.265321 77.332903 
L 66.265321 26.24 
" clip-path="url(#pb3828518f9)" style="fill: none; stroke-dasharray: 2.96,1.28; stroke-dashoffset: 0; stroke: #b0b0b0; stroke-opacity: 0.5; stroke-width: 0.8"/>
     </g>
     <g id="line2d_2">
      <defs>
       <path id="m897311cff9" d="M 0 0 
L 0 3.5 
" style="stroke: #000000; stroke-width: 0.8"/>
      </defs>
      <g>
       <use xlink:href="#m897311cff9" x="66.265321" y="77.332903" style="stroke: #000000; stroke-width: 0.8"/>
      </g>
     </g>
    </g>
    <g id="xtick_2">
     <g id="line2d_3">
      <path d="M 119.648124 77.332903 
L 119.648124 26.24 
" clip-path="url(#pb3828518f9)" style="fill: none; stroke-dasharray: 2.96,1.28; stroke-dashoffset: 0; stroke: #b0b0b0; stroke-opacity: 0.5; stroke-width: 0.8"/>
     </g>
     <g id="line2d_4">
      <g>
       <use xlink:href="#m897311cff9" x="119.648124" y="77.332903" style="stroke: #000000; stroke-width: 0.8"/>
      </g>
     </g>
    </g>
    <g id="xtick_3">
     <g id="line2d_5">
      <path d="M 173.030927 77.332903 
L 173.030927 26.24 
" clip-path="url(#pb3828518f9)" style="fill: none; stroke-dasharray: 2.96,1.28; stroke-dashoffset: 0; stroke: #b0b0b0; stroke-opacity: 0.5; stroke-width: 0.8"/>
     </g>
     <g id="line2d_6">
      <g>
       <use xlink:href="#m897311cff9" x="173.030927" y="77.332903" style="stroke: #000000; stroke-width: 0.8"/>
      </g>
     </g>
    </g>
    <g id="xtick_4">
     <g id="line2d_7">
      <path d="M 226.413729 77.332903 
L 226.413729 26.24 
" clip-path="url(#pb3828518f9)" style="fill: none; stroke-dasharray: 2.96,1.28; stroke-dashoffset: 0; stroke: #b0b0b0; stroke-opacity: 0.5; stroke-width: 0.8"/>
     </g>
     <g id="line2d_8">
      <g>
       <use xlink:href="#m897311cff9" x="226.413729" y="77.332903" style="stroke: #000000; stroke-width: 0.8"/>
      </g>
     </g>
    </g>
    <g id="xtick_5">
     <g id="line2d_9">
      <path d="M 279.796532 77.332903 
L 279.796532 26.24 
" clip-path="url(#pb3828518f9)" style="fill: none; stroke-dasharray: 2.96,1.28; stroke-dashoffset: 0; stroke: #b0b0b0; stroke-opacity: 0.5; stroke-width: 0.8"/>
     </g>
     <g id="line2d_10">
      <g>
       <use xlink:href="#m897311cff9" x="279.796532" y="77.332903" style="stroke: #000000; stroke-width: 0.8"/>
      </g>
     </g>
    </g>
    <g id="xtick_6">
     <g id="line2d_11">
      <path d="M 333.179335 77.332903 
L 333.179335 26.24 
" clip-path="url(#pb3828518f9)" style="fill: none; stroke-dasharray: 2.96,1.28; stroke-dashoffset: 0; stroke: #b0b0b0; stroke-opacity: 0.5; stroke-width: 0.8"/>
     </g>
     <g id="line2d_12">
      <g>
       <use xlink:href="#m897311cff9" x="333.179335" y="77.332903" style="stroke: #000000; stroke-width: 0.8"/>
      </g>
     </g>
    </g>
    <g id="xtick_7">
     <g id="line2d_13">
      <path d="M 386.562138 77.332903 
L 386.562138 26.24 
" clip-path="url(#pb3828518f9)" style="fill: none; stroke-dasharray: 2.96,1.28; stroke-dashoffset: 0; stroke: #b0b0b0; stroke-opacity: 0.5; stroke-width: 0.8"/>
     </g>
     <g id="line2d_14">
      <g>
       <use xlink:href="#m897311cff9" x="386.562138" y="77.332903" style="stroke: #000000; stroke-width: 0.8"/>
      </g>
     </g>
    </g>
   </g>
   <g id="matplotlib.axis_2">
    <g id="ytick_1">
     <g id="line2d_15">
      <path d="M 50.45875 74.610958 
L 422.31875 74.610958 
" clip-path="url(#pb3828518f9)" style="fill: none; stroke-dasharray: 2.96,1.28; stroke-dashoffset: 0; stroke: #b0b0b0; stroke-opacity: 0.5; stroke-width: 0.8"/>
     </g>
     <g id="line2d_16">
      <defs>
       <path id="m4d87e0cb9d" d="M 0 0 
L -3.5 0 
" style="stroke: #000000; stroke-width: 0.8"/>
      </defs>
      <g>
       <use xlink:href="#m4d87e0cb9d" x="50.45875" y="74.610958" style="stroke: #000000; stroke-width: 0.8"/>
      </g>
     </g>
     <g id="text_1">
      <!-- −2 -->
      <g transform="translate(31.665 77.650333) scale(0.08 -0.08)">
       <defs>
        <path id="DejaVuSerif-2212" d="M 678 2259 
L 4684 2259 
L 4684 1753 
L 678 1753 
L 678 2259 
z
" transform="scale(0.015625)"/>
        <path id="DejaVuSerif-32" d="M 819 3553 
L 469 3553 
L 469 4384 
Q 803 4563 1142 4656 
Q 1481 4750 1806 4750 
Q 2534 4750 2956 4397 
Q 3378 4044 3378 3438 
Q 3378 2753 2422 1800 
Q 2347 1728 2309 1691 
L 1131 513 
L 3078 513 
L 3078 1088 
L 3444 1088 
L 3444 0 
L 434 0 
L 434 341 
L 1850 1753 
Q 2319 2222 2519 2614 
Q 2719 3006 2719 3438 
Q 2719 3909 2473 4175 
Q 2228 4441 1797 4441 
Q 1350 4441 1106 4219 
Q 863 3997 819 3553 
z
" transform="scale(0.015625)"/>
       </defs>
       <use xlink:href="#DejaVuSerif-2212"/>
       <use xlink:href="#DejaVuSerif-32" transform="translate(83.789062 0)"/>
      </g>
     </g>
    </g>
    <g id="ytick_2">
     <g id="line2d_17">
      <path d="M 50.45875 55.504555 
L 422.31875 55.504555 
" clip-path="url(#pb3828518f9)" style="fill: none; stroke-dasharray: 2.96,1.28; stroke-dashoffset: 0; stroke: #b0b0b0; stroke-opacity: 0.5; stroke-width: 0.8"/>
     </g>
     <g id="line2d_18">
      <g>
       <use xlink:href="#m4d87e0cb9d" x="50.45875" y="55.504555" style="stroke: #000000; stroke-width: 0.8"/>
      </g>
     </g>
     <g id="text_2">
      <!-- 0 -->
      <g transform="translate(38.36875 58.54393) scale(0.08 -0.08)">
       <defs>
        <path id="DejaVuSerif-30" d="M 2034 219 
Q 2513 219 2750 744 
Q 2988 1269 2988 2328 
Q 2988 3391 2750 3916 
Q 2513 4441 2034 4441 
Q 1556 4441 1318 3916 
Q 1081 3391 1081 2328 
Q 1081 1269 1318 744 
Q 1556 219 2034 219 
z
M 2034 -91 
Q 1275 -91 848 546 
Q 422 1184 422 2328 
Q 422 3475 848 4112 
Q 1275 4750 2034 4750 
Q 2797 4750 3222 4112 
Q 3647 3475 3647 2328 
Q 3647 1184 3222 546 
Q 2797 -91 2034 -91 
z
" transform="scale(0.015625)"/>
       </defs>
       <use xlink:href="#DejaVuSerif-30"/>
      </g>
     </g>
    </g>
    <g id="ytick_3">
     <g id="line2d_19">
      <path d="M 50.45875 36.398153 
L 422.31875 36.398153 
" clip-path="url(#pb3828518f9)" style="fill: none; stroke-dasharray: 2.96,1.28; stroke-dashoffset: 0; stroke: #b0b0b0; stroke-opacity: 0.5; stroke-width: 0.8"/>
     </g>
     <g id="line2d_20">
      <g>
       <use xlink:href="#m4d87e0cb9d" x="50.45875" y="36.398153" style="stroke: #000000; stroke-width: 0.8"/>
      </g>
     </g>
     <g id="text_3">
      <!-- 2 -->
      <g transform="translate(38.36875 39.437528) scale(0.08 -0.08)">
       <use xlink:href="#DejaVuSerif-32"/>
      </g>
     </g>
    </g>
    <g id="text_4">
     <!-- Observado -->
     <g transform="translate(26.00125 73.572076) rotate(-90) scale(0.08 -0.08)">
      <defs>
       <path id="DejaVuSerif-4f" d="M 2625 244 
Q 3391 244 3781 770 
Q 4172 1297 4172 2328 
Q 4172 3363 3781 3889 
Q 3391 4416 2625 4416 
Q 1856 4416 1465 3889 
Q 1075 3363 1075 2328 
Q 1075 1297 1465 770 
Q 1856 244 2625 244 
z
M 2625 -91 
Q 2150 -91 1751 65 
Q 1353 222 1050 525 
Q 700 875 529 1319 
Q 359 1763 359 2328 
Q 359 2894 529 3339 
Q 700 3784 1050 4134 
Q 1356 4441 1750 4595 
Q 2144 4750 2625 4750 
Q 3641 4750 4266 4084 
Q 4891 3419 4891 2328 
Q 4891 1769 4719 1320 
Q 4547 872 4197 525 
Q 3891 219 3497 64 
Q 3103 -91 2625 -91 
z
" transform="scale(0.015625)"/>
       <path id="DejaVuSerif-62" d="M 738 331 
L 738 4531 
L 184 4531 
L 184 4863 
L 1313 4863 
L 1313 2803 
Q 1481 3116 1742 3264 
Q 2003 3413 2388 3413 
Q 3000 3413 3387 2928 
Q 3775 2444 3775 1663 
Q 3775 881 3387 395 
Q 3000 -91 2388 -91 
Q 2003 -91 1742 57 
Q 1481 206 1313 519 
L 1313 0 
L 184 0 
L 184 331 
L 738 331 
z
M 1313 1497 
Q 1313 897 1542 583 
Q 1772 269 2209 269 
Q 2650 269 2876 622 
Q 3103 975 3103 1663 
Q 3103 2353 2876 2703 
Q 2650 3053 2209 3053 
Q 1772 3053 1542 2737 
Q 1313 2422 1313 1825 
L 1313 1497 
z
" transform="scale(0.015625)"/>
       <path id="DejaVuSerif-73" d="M 359 184 
L 359 959 
L 691 959 
Q 703 588 923 403 
Q 1144 219 1575 219 
Q 1963 219 2166 364 
Q 2369 509 2369 788 
Q 2369 1006 2220 1140 
Q 2072 1275 1594 1428 
L 1178 1569 
Q 750 1706 558 1912 
Q 366 2119 366 2438 
Q 366 2894 700 3153 
Q 1034 3413 1625 3413 
Q 1888 3413 2178 3344 
Q 2469 3275 2778 3144 
L 2778 2419 
L 2447 2419 
Q 2434 2741 2221 2922 
Q 2009 3103 1644 3103 
Q 1281 3103 1095 2975 
Q 909 2847 909 2591 
Q 909 2381 1050 2254 
Q 1191 2128 1613 1997 
L 2069 1856 
Q 2541 1709 2748 1489 
Q 2956 1269 2956 922 
Q 2956 450 2595 179 
Q 2234 -91 1600 -91 
Q 1278 -91 972 -22 
Q 666 47 359 184 
z
" transform="scale(0.015625)"/>
       <path id="DejaVuSerif-65" d="M 3469 1600 
L 991 1600 
L 991 1575 
Q 991 903 1244 561 
Q 1497 219 1991 219 
Q 2369 219 2611 417 
Q 2853 616 2950 1006 
L 3413 1006 
Q 3275 459 2904 184 
Q 2534 -91 1931 -91 
Q 1203 -91 761 389 
Q 319 869 319 1663 
Q 319 2450 753 2931 
Q 1188 3413 1894 3413 
Q 2647 3413 3050 2948 
Q 3453 2484 3469 1600 
z
M 2791 1931 
Q 2772 2513 2545 2808 
Q 2319 3103 1894 3103 
Q 1497 3103 1269 2806 
Q 1041 2509 991 1931 
L 2791 1931 
z
" transform="scale(0.015625)"/>
       <path id="DejaVuSerif-72" d="M 3059 3328 
L 3059 2497 
L 2728 2497 
Q 2713 2744 2591 2866 
Q 2469 2988 2234 2988 
Q 1809 2988 1582 2694 
Q 1356 2400 1356 1850 
L 1356 331 
L 2022 331 
L 2022 0 
L 263 0 
L 263 331 
L 781 331 
L 781 2994 
L 231 2994 
L 231 3322 
L 1356 3322 
L 1356 2731 
Q 1525 3078 1790 3245 
Q 2056 3413 2438 3413 
Q 2578 3413 2733 3391 
Q 2888 3369 3059 3328 
z
" transform="scale(0.015625)"/>
       <path id="DejaVuSerif-76" d="M 1581 0 
L 359 2988 
L -19 2988 
L -19 3322 
L 1509 3322 
L 1509 2988 
L 978 2988 
L 1913 703 
L 2847 2988 
L 2350 2988 
L 2350 3322 
L 3597 3322 
L 3597 2988 
L 3225 2988 
L 2003 0 
L 1581 0 
z
" transform="scale(0.015625)"/>
       <path id="DejaVuSerif-61" d="M 2547 1044 
L 2547 1747 
L 1806 1747 
Q 1378 1747 1168 1562 
Q 959 1378 959 997 
Q 959 650 1171 447 
Q 1384 244 1747 244 
Q 2106 244 2326 466 
Q 2547 688 2547 1044 
z
M 3122 2075 
L 3122 331 
L 3634 331 
L 3634 0 
L 2547 0 
L 2547 359 
Q 2356 128 2106 18 
Q 1856 -91 1522 -91 
Q 969 -91 644 203 
Q 319 497 319 997 
Q 319 1513 691 1797 
Q 1063 2081 1741 2081 
L 2547 2081 
L 2547 2309 
Q 2547 2688 2317 2895 
Q 2088 3103 1672 3103 
Q 1328 3103 1125 2947 
Q 922 2791 872 2484 
L 575 2484 
L 575 3156 
Q 875 3284 1158 3348 
Q 1441 3413 1709 3413 
Q 2400 3413 2761 3070 
Q 3122 2728 3122 2075 
z
" transform="scale(0.015625)"/>
       <path id="DejaVuSerif-64" d="M 3359 331 
L 3909 331 
L 3909 0 
L 2784 0 
L 2784 519 
Q 2616 206 2355 57 
Q 2094 -91 1709 -91 
Q 1097 -91 708 395 
Q 319 881 319 1663 
Q 319 2444 706 2928 
Q 1094 3413 1709 3413 
Q 2094 3413 2355 3264 
Q 2616 3116 2784 2803 
L 2784 4531 
L 2241 4531 
L 2241 4863 
L 3359 4863 
L 3359 331 
z
M 2784 1497 
L 2784 1825 
Q 2784 2422 2554 2737 
Q 2325 3053 1888 3053 
Q 1444 3053 1217 2703 
Q 991 2353 991 1663 
Q 991 975 1217 622 
Q 1444 269 1888 269 
Q 2325 269 2554 583 
Q 2784 897 2784 1497 
z
" transform="scale(0.015625)"/>
       <path id="DejaVuSerif-6f" d="M 1925 219 
Q 2388 219 2623 584 
Q 2859 950 2859 1663 
Q 2859 2375 2623 2739 
Q 2388 3103 1925 3103 
Q 1463 3103 1227 2739 
Q 991 2375 991 1663 
Q 991 950 1228 584 
Q 1466 219 1925 219 
z
M 1925 -91 
Q 1200 -91 759 389 
Q 319 869 319 1663 
Q 319 2456 758 2934 
Q 1197 3413 1925 3413 
Q 2653 3413 3092 2934 
Q 3531 2456 3531 1663 
Q 3531 869 3092 389 
Q 2653 -91 1925 -91 
z
" transform="scale(0.015625)"/>
      </defs>
      <use xlink:href="#DejaVuSerif-4f"/>
      <use xlink:href="#DejaVuSerif-62" transform="translate(81.982422 0)"/>
      <use xlink:href="#DejaVuSerif-73" transform="translate(145.996094 0)"/>
      <use xlink:href="#DejaVuSerif-65" transform="translate(197.314453 0)"/>
      <use xlink:href="#DejaVuSerif-72" transform="translate(256.494141 0)"/>
      <use xlink:href="#DejaVuSerif-76" transform="translate(304.296875 0)"/>
      <use xlink:href="#DejaVuSerif-61" transform="translate(360.791016 0)"/>
      <use xlink:href="#DejaVuSerif-64" transform="translate(420.410156 0)"/>
      <use xlink:href="#DejaVuSerif-6f" transform="translate(484.423828 0)"/>
     </g>
    </g>
   </g>
   <g id="line2d_21">
    <path d="M 67.361477 69.802206 
L 68.421095 68.636501 
L 69.55379 68.726764 
L 70.649946 69.008377 
L 72.878796 68.735927 
L 74.011491 69.21485 
L 75.144186 68.299173 
L 76.240342 68.298289 
L 77.373036 67.066698 
L 78.469193 67.648309 
L 79.601887 67.890036 
L 80.734582 67.151326 
L 81.757661 66.080381 
L 82.890356 65.658925 
L 83.986512 66.800655 
L 85.119206 68.948833 
L 86.215362 74.125625 
L 87.348057 75.010498 
L 88.480752 74.296165 
L 89.576908 74.224981 
L 91.805759 73.084848 
L 92.938453 73.345178 
L 95.094227 71.090119 
L 96.226922 69.229223 
L 97.323078 68.57429 
L 98.455772 69.888531 
L 100.684623 70.285857 
L 101.817318 69.331144 
L 102.913474 69.54907 
L 104.046169 67.298651 
L 106.275019 68.381177 
L 107.407714 67.957934 
L 108.430793 66.2884 
L 109.563488 67.521186 
L 110.659644 67.69797 
L 111.792338 68.592475 
L 112.888495 68.776699 
L 115.153884 68.719517 
L 116.25004 67.670804 
L 117.382735 66.897343 
L 118.478891 66.762104 
L 119.611585 66.94694 
L 120.74428 67.267254 
L 121.803898 66.722973 
L 122.936592 65.650058 
L 124.032748 65.983588 
L 125.165443 66.935982 
L 126.261599 67.014246 
L 127.394294 66.908753 
L 128.526988 66.273928 
L 129.623145 64.941445 
L 130.755839 65.502106 
L 131.851995 64.910435 
L 132.98469 65.13758 
L 134.117385 64.789233 
L 135.140464 64.216761 
L 136.273158 63.142369 
L 137.369314 63.334473 
L 138.502009 65.19813 
L 139.598165 65.193948 
L 140.73086 66.067379 
L 141.863554 64.650468 
L 142.959711 64.720001 
L 144.092405 63.883959 
L 145.188561 64.147539 
L 146.321256 64.241907 
L 147.453951 62.828909 
L 148.47703 61.973467 
L 149.609724 61.470018 
L 150.70588 63.708957 
L 151.838575 64.209633 
L 154.067426 64.076996 
L 155.200121 62.838755 
L 156.296277 63.396911 
L 158.525127 62.331846 
L 159.657822 62.262267 
L 161.813596 61.017633 
L 162.94629 59.28624 
L 165.175141 62.258662 
L 166.271297 62.753172 
L 167.403992 62.625375 
L 168.536687 61.603723 
L 169.632843 61.048061 
L 170.765537 59.871986 
L 171.861693 60.453285 
L 172.994388 60.476883 
L 174.127083 60.206628 
L 175.1867 59.660146 
L 176.319395 59.314045 
L 177.415551 59.386891 
L 178.548246 60.97164 
L 179.644402 60.63184 
L 180.777097 60.521507 
L 181.909791 59.587021 
L 183.005947 59.502141 
L 184.138642 58.561023 
L 185.234798 60.25608 
L 186.367493 62.525864 
L 187.500187 61.928255 
L 188.523266 60.0122 
L 189.655961 58.820108 
L 190.752117 61.247372 
L 191.884812 62.050153 
L 192.980968 62.540823 
L 194.113663 61.683504 
L 195.246357 61.264749 
L 196.342513 59.766271 
L 197.475208 59.510459 
L 198.571364 57.651715 
L 199.704059 58.701748 
L 200.836753 57.615728 
L 201.859832 55.447532 
L 202.992527 55.414004 
L 204.088683 58.054641 
L 205.221378 58.753783 
L 206.317534 59.178097 
L 207.450229 58.74324 
L 208.582923 58.593049 
L 209.679079 57.311193 
L 210.811774 57.750476 
L 211.90793 57.382981 
L 214.173319 55.690532 
L 215.196398 53.507759 
L 216.329093 55.381743 
L 217.425249 55.960286 
L 218.557944 57.42339 
L 219.6541 58.115105 
L 220.786795 57.750457 
L 221.919489 55.795062 
L 223.015645 55.682233 
L 224.14834 55.850562 
L 226.377191 54.743983 
L 227.509885 54.391289 
L 228.569503 51.528762 
L 229.702198 51.1616 
L 231.931048 55.484439 
L 233.027205 57.476209 
L 234.159899 57.411247 
L 235.292594 55.069165 
L 236.38875 54.434171 
L 237.521445 53.119796 
L 238.617601 54.360286 
L 239.750295 53.055364 
L 240.88299 54.260957 
L 241.906069 51.791394 
L 243.038764 52.582343 
L 244.13492 53.881285 
L 245.267615 55.840824 
L 246.363771 56.117798 
L 247.496465 55.474663 
L 248.62916 54.187483 
L 249.725316 53.464854 
L 250.858011 52.483268 
L 251.954167 52.317412 
L 253.086861 53.53876 
L 254.219556 48.241984 
L 255.242635 48.505461 
L 256.37533 49.936823 
L 257.471486 51.944769 
L 258.604181 52.688634 
L 259.700337 54.18466 
L 261.965726 53.637725 
L 263.061882 51.885721 
L 264.194577 50.781946 
L 266.423428 51.335727 
L 267.556122 46.804431 
L 268.579201 47.847595 
L 269.711896 48.560354 
L 270.808052 53.053813 
L 271.940747 54.341323 
L 273.036903 55.333731 
L 274.169597 55.191998 
L 275.302292 54.092279 
L 276.398448 52.230895 
L 277.531143 50.902847 
L 278.627299 50.936692 
L 280.892688 50.578138 
L 281.952306 47.34511 
L 284.181157 49.443848 
L 285.313851 53.247003 
L 286.410007 53.610725 
L 287.542702 54.264853 
L 288.675397 52.899632 
L 289.771553 52.508233 
L 290.904247 51.913809 
L 292.000403 51.584749 
L 293.133098 50.694586 
L 294.265793 47.343216 
L 295.288872 45.827833 
L 296.421566 46.677246 
L 297.517723 51.113956 
L 298.650417 52.23205 
L 299.746573 53.02744 
L 300.879268 54.530018 
L 303.108119 51.308348 
L 304.240813 50.341472 
L 305.33697 50.568709 
L 306.469664 49.406579 
L 307.602359 47.287339 
L 308.625438 47.413121 
L 309.758133 46.025089 
L 311.986983 52.6696 
L 313.083139 53.054441 
L 314.215834 52.998771 
L 315.348529 52.331606 
L 316.444685 51.3696 
L 317.577379 49.490782 
L 318.673536 49.348815 
L 319.80623 48.318785 
L 320.938925 43.43074 
L 321.962004 44.581711 
L 323.094699 47.14308 
L 324.190855 48.133961 
L 326.419705 52.591179 
L 327.5524 53.116504 
L 328.685095 52.423944 
L 329.781251 50.032224 
L 330.913946 48.066702 
L 333.142796 48.362127 
L 334.275491 45.623149 
L 335.335109 45.412286 
L 336.467803 47.547995 
L 337.563959 55.006389 
L 338.696654 56.01362 
L 342.058199 52.121533 
L 343.154355 48.27928 
L 344.28705 46.456718 
L 345.383206 47.634393 
L 347.648596 44.502845 
L 348.671675 44.121848 
L 349.804369 42.583038 
L 350.900525 46.159975 
L 352.03322 47.428931 
L 353.129376 47.87461 
L 354.262071 48.475683 
L 355.394765 46.632674 
L 356.490922 44.325007 
L 357.623616 46.842873 
L 358.719772 44.188476 
L 359.852467 44.352115 
L 360.985162 42.882276 
L 362.008241 41.31227 
L 363.140935 40.887733 
L 364.237091 45.05192 
L 365.369786 47.342898 
L 366.465942 48.427623 
L 367.598637 47.779692 
L 368.731331 47.313833 
L 369.827488 46.731083 
L 370.960182 45.512689 
L 372.056338 45.822067 
L 373.189033 45.619895 
L 374.321728 43.780284 
L 375.344807 41.261673 
L 376.477501 40.415648 
L 377.573657 45.125923 
L 378.706352 43.563014 
L 379.802508 45.160114 
L 380.935203 45.266719 
L 383.164054 39.700534 
L 384.296748 38.430817 
L 385.392904 35.619051 
L 386.525599 35.637759 
L 387.658294 36.374992 
L 388.717911 33.879245 
L 389.850606 34.099607 
L 390.946762 36.381309 
L 392.079457 38.322846 
L 393.175613 41.153452 
L 394.308307 41.052573 
L 395.441002 39.454663 
L 396.537158 35.809041 
L 397.669853 35.532779 
L 398.766009 35.663111 
L 399.898704 36.53488 
L 401.031398 33.603182 
L 402.054477 28.562405 
L 403.187172 31.252155 
L 404.283328 36.683656 
L 405.416023 39.006467 
L 405.416023 39.006467 
" clip-path="url(#pb3828518f9)" style="fill: none; stroke: #4596f3; stroke-width: 0.5; stroke-linecap: square"/>
   </g>
   <g id="patch_3">
    <path d="M 50.45875 77.332903 
L 50.45875 26.24 
" style="fill: none; stroke: #000000; stroke-width: 0.8; stroke-linejoin: miter; stroke-linecap: square"/>
   </g>
   <g id="patch_4">
    <path d="M 50.45875 77.332903 
L 422.31875 77.332903 
" style="fill: none; stroke: #000000; stroke-width: 0.8; stroke-linejoin: miter; stroke-linecap: square"/>
   </g>
  </g>
  <g id="axes_2">
   <g id="patch_5">
    <path d="M 50.45875 142.075269 
L 422.31875 142.075269 
L 422.31875 90.982366 
L 50.45875 90.982366 
z
" style="fill: #ffffff"/>
   </g>
   <g id="matplotlib.axis_3">
    <g id="xtick_8">
     <g id="line2d_22">
      <path d="M 66.265321 142.075269 
L 66.265321 90.982366 
" clip-path="url(#p97a25b0a7b)" style="fill: none; stroke-dasharray: 2.96,1.28; stroke-dashoffset: 0; stroke: #b0b0b0; stroke-opacity: 0.5; stroke-width: 0.8"/>
     </g>
     <g id="line2d_23">
      <g>
       <use xlink:href="#m897311cff9" x="66.265321" y="142.075269" style="stroke: #000000; stroke-width: 0.8"/>
      </g>
     </g>
    </g>
    <g id="xtick_9">
     <g id="line2d_24">
      <path d="M 119.648124 142.075269 
L 119.648124 90.982366 
" clip-path="url(#p97a25b0a7b)" style="fill: none; stroke-dasharray: 2.96,1.28; stroke-dashoffset: 0; stroke: #b0b0b0; stroke-opacity: 0.5; stroke-width: 0.8"/>
     </g>
     <g id="line2d_25">
      <g>
       <use xlink:href="#m897311cff9" x="119.648124" y="142.075269" style="stroke: #000000; stroke-width: 0.8"/>
      </g>
     </g>
    </g>
    <g id="xtick_10">
     <g id="line2d_26">
      <path d="M 173.030927 142.075269 
L 173.030927 90.982366 
" clip-path="url(#p97a25b0a7b)" style="fill: none; stroke-dasharray: 2.96,1.28; stroke-dashoffset: 0; stroke: #b0b0b0; stroke-opacity: 0.5; stroke-width: 0.8"/>
     </g>
     <g id="line2d_27">
      <g>
       <use xlink:href="#m897311cff9" x="173.030927" y="142.075269" style="stroke: #000000; stroke-width: 0.8"/>
      </g>
     </g>
    </g>
    <g id="xtick_11">
     <g id="line2d_28">
      <path d="M 226.413729 142.075269 
L 226.413729 90.982366 
" clip-path="url(#p97a25b0a7b)" style="fill: none; stroke-dasharray: 2.96,1.28; stroke-dashoffset: 0; stroke: #b0b0b0; stroke-opacity: 0.5; stroke-width: 0.8"/>
     </g>
     <g id="line2d_29">
      <g>
       <use xlink:href="#m897311cff9" x="226.413729" y="142.075269" style="stroke: #000000; stroke-width: 0.8"/>
      </g>
     </g>
    </g>
    <g id="xtick_12">
     <g id="line2d_30">
      <path d="M 279.796532 142.075269 
L 279.796532 90.982366 
" clip-path="url(#p97a25b0a7b)" style="fill: none; stroke-dasharray: 2.96,1.28; stroke-dashoffset: 0; stroke: #b0b0b0; stroke-opacity: 0.5; stroke-width: 0.8"/>
     </g>
     <g id="line2d_31">
      <g>
       <use xlink:href="#m897311cff9" x="279.796532" y="142.075269" style="stroke: #000000; stroke-width: 0.8"/>
      </g>
     </g>
    </g>
    <g id="xtick_13">
     <g id="line2d_32">
      <path d="M 333.179335 142.075269 
L 333.179335 90.982366 
" clip-path="url(#p97a25b0a7b)" style="fill: none; stroke-dasharray: 2.96,1.28; stroke-dashoffset: 0; stroke: #b0b0b0; stroke-opacity: 0.5; stroke-width: 0.8"/>
     </g>
     <g id="line2d_33">
      <g>
       <use xlink:href="#m897311cff9" x="333.179335" y="142.075269" style="stroke: #000000; stroke-width: 0.8"/>
      </g>
     </g>
    </g>
    <g id="xtick_14">
     <g id="line2d_34">
      <path d="M 386.562138 142.075269 
L 386.562138 90.982366 
" clip-path="url(#p97a25b0a7b)" style="fill: none; stroke-dasharray: 2.96,1.28; stroke-dashoffset: 0; stroke: #b0b0b0; stroke-opacity: 0.5; stroke-width: 0.8"/>
     </g>
     <g id="line2d_35">
      <g>
       <use xlink:href="#m897311cff9" x="386.562138" y="142.075269" style="stroke: #000000; stroke-width: 0.8"/>
      </g>
     </g>
    </g>
   </g>
   <g id="matplotlib.axis_4">
    <g id="ytick_4">
     <g id="line2d_36">
      <path d="M 50.45875 118.750359 
L 422.31875 118.750359 
" clip-path="url(#p97a25b0a7b)" style="fill: none; stroke-dasharray: 2.96,1.28; stroke-dashoffset: 0; stroke: #b0b0b0; stroke-opacity: 0.5; stroke-width: 0.8"/>
     </g>
     <g id="line2d_37">
      <g>
       <use xlink:href="#m4d87e0cb9d" x="50.45875" y="118.750359" style="stroke: #000000; stroke-width: 0.8"/>
      </g>
     </g>
     <g id="text_5">
      <!-- 0 -->
      <g transform="translate(38.36875 121.789734) scale(0.08 -0.08)">
       <use xlink:href="#DejaVuSerif-30"/>
      </g>
     </g>
    </g>
    <g id="ytick_5">
     <g id="line2d_38">
      <path d="M 50.45875 94.573073 
L 422.31875 94.573073 
" clip-path="url(#p97a25b0a7b)" style="fill: none; stroke-dasharray: 2.96,1.28; stroke-dashoffset: 0; stroke: #b0b0b0; stroke-opacity: 0.5; stroke-width: 0.8"/>
     </g>
     <g id="line2d_39">
      <g>
       <use xlink:href="#m4d87e0cb9d" x="50.45875" y="94.573073" style="stroke: #000000; stroke-width: 0.8"/>
      </g>
     </g>
     <g id="text_6">
      <!-- 2 -->
      <g transform="translate(38.36875 97.612448) scale(0.08 -0.08)">
       <use xlink:href="#DejaVuSerif-32"/>
      </g>
     </g>
    </g>
    <g id="text_7">
     <!-- Tendência -->
     <g transform="translate(32.705 137.239442) rotate(-90) scale(0.08 -0.08)">
      <defs>
       <path id="DejaVuSerif-54" d="M 1222 0 
L 1222 331 
L 1819 331 
L 1819 4294 
L 447 4294 
L 447 3566 
L 63 3566 
L 63 4666 
L 4206 4666 
L 4206 3566 
L 3822 3566 
L 3822 4294 
L 2450 4294 
L 2450 331 
L 3047 331 
L 3047 0 
L 1222 0 
z
" transform="scale(0.015625)"/>
       <path id="DejaVuSerif-6e" d="M 263 0 
L 263 331 
L 781 331 
L 781 2988 
L 231 2988 
L 231 3322 
L 1356 3322 
L 1356 2731 
Q 1516 3069 1770 3241 
Q 2025 3413 2363 3413 
Q 2913 3413 3172 3097 
Q 3431 2781 3431 2113 
L 3431 331 
L 3944 331 
L 3944 0 
L 2356 0 
L 2356 331 
L 2853 331 
L 2853 1931 
Q 2853 2541 2703 2767 
Q 2553 2994 2175 2994 
Q 1775 2994 1565 2701 
Q 1356 2409 1356 1850 
L 1356 331 
L 1856 331 
L 1856 0 
L 263 0 
z
" transform="scale(0.015625)"/>
       <path id="DejaVuSerif-ea" d="M 3469 1600 
L 991 1600 
L 991 1575 
Q 991 903 1244 561 
Q 1497 219 1991 219 
Q 2369 219 2611 417 
Q 2853 616 2950 1006 
L 3413 1006 
Q 3275 459 2904 184 
Q 2534 -91 1931 -91 
Q 1203 -91 761 389 
Q 319 869 319 1663 
Q 319 2450 753 2931 
Q 1188 3413 1894 3413 
Q 2647 3413 3050 2948 
Q 3453 2484 3469 1600 
z
M 2791 1931 
Q 2772 2513 2545 2808 
Q 2319 3103 1894 3103 
Q 1497 3103 1269 2806 
Q 1041 2509 991 1931 
L 2791 1931 
z
M 1634 5119 
L 2159 5119 
L 2893 3944 
L 2530 3944 
L 1896 4756 
L 1262 3944 
L 899 3944 
L 1634 5119 
z
" transform="scale(0.015625)"/>
       <path id="DejaVuSerif-63" d="M 3291 997 
Q 3169 466 2822 187 
Q 2475 -91 1925 -91 
Q 1200 -91 759 389 
Q 319 869 319 1663 
Q 319 2459 759 2936 
Q 1200 3413 1925 3413 
Q 2241 3413 2553 3339 
Q 2866 3266 3181 3116 
L 3181 2266 
L 2847 2266 
Q 2781 2703 2561 2903 
Q 2341 3103 1931 3103 
Q 1466 3103 1228 2742 
Q 991 2381 991 1663 
Q 991 944 1227 581 
Q 1463 219 1931 219 
Q 2303 219 2525 412 
Q 2747 606 2828 997 
L 3291 997 
z
" transform="scale(0.015625)"/>
       <path id="DejaVuSerif-69" d="M 622 4353 
Q 622 4497 726 4603 
Q 831 4709 978 4709 
Q 1122 4709 1226 4603 
Q 1331 4497 1331 4353 
Q 1331 4206 1228 4103 
Q 1125 4000 978 4000 
Q 831 4000 726 4103 
Q 622 4206 622 4353 
z
M 1356 331 
L 1900 331 
L 1900 0 
L 231 0 
L 231 331 
L 781 331 
L 781 2988 
L 231 2988 
L 231 3322 
L 1356 3322 
L 1356 331 
z
" transform="scale(0.015625)"/>
      </defs>
      <use xlink:href="#DejaVuSerif-54"/>
      <use xlink:href="#DejaVuSerif-65" transform="translate(58.949219 0)"/>
      <use xlink:href="#DejaVuSerif-6e" transform="translate(118.128906 0)"/>
      <use xlink:href="#DejaVuSerif-64" transform="translate(182.533203 0)"/>
      <use xlink:href="#DejaVuSerif-ea" transform="translate(246.546875 0)"/>
      <use xlink:href="#DejaVuSerif-6e" transform="translate(305.726562 0)"/>
      <use xlink:href="#DejaVuSerif-63" transform="translate(370.130859 0)"/>
      <use xlink:href="#DejaVuSerif-69" transform="translate(426.136719 0)"/>
      <use xlink:href="#DejaVuSerif-61" transform="translate(458.119141 0)"/>
     </g>
    </g>
   </g>
   <g id="line2d_40">
    <path d="M 67.361477 136.974823 
L 70.649946 136.07141 
L 75.144186 135.097964 
L 78.469193 134.465373 
L 79.601887 134.681603 
L 80.734582 135.073687 
L 83.986512 136.859776 
L 87.348057 138.657133 
L 89.576908 139.492869 
L 90.709602 139.709021 
L 91.805759 139.752864 
L 92.938453 139.615232 
L 94.071148 139.311919 
L 97.323078 137.817486 
L 100.684623 136.27381 
L 102.913474 135.552 
L 105.142325 135.116412 
L 109.563488 134.627222 
L 118.478891 133.684076 
L 125.165443 132.460526 
L 135.140464 130.548353 
L 141.863554 129.81282 
L 156.296277 127.857525 
L 169.632843 125.619544 
L 172.994388 125.178433 
L 177.415551 124.521657 
L 179.644402 124.510831 
L 184.138642 124.900671 
L 189.655961 125.456939 
L 191.884812 125.288923 
L 194.113663 124.725574 
L 201.859832 122.218612 
L 205.221378 121.56686 
L 210.811774 120.855908 
L 215.196398 120.163728 
L 230.798354 117.506179 
L 233.027205 117.279494 
L 235.292594 117.242845 
L 239.750295 117.268063 
L 243.038764 116.915063 
L 246.363771 116.412053 
L 249.725316 115.606166 
L 253.086861 114.822533 
L 257.471486 114.104965 
L 261.965726 113.56552 
L 264.194577 113.545488 
L 273.036903 114.03497 
L 275.302292 114.123386 
L 277.531143 114.0121 
L 283.085 113.416953 
L 287.542702 113.290226 
L 297.517723 112.616784 
L 300.879268 112.436774 
L 307.602359 112.199222 
L 311.986983 111.86263 
L 319.80623 110.83543 
L 326.419705 110.497636 
L 328.685095 110.689898 
L 330.913946 111.237923 
L 333.142796 111.838109 
L 335.335109 112.137995 
L 337.563959 112.045288 
L 339.79281 111.751674 
L 342.058199 111.176643 
L 344.28705 110.137563 
L 348.671675 107.590278 
L 350.900525 106.834982 
L 354.262071 106.129115 
L 357.623616 105.643391 
L 359.852467 105.529552 
L 363.140935 105.62496 
L 368.731331 105.969251 
L 370.960182 105.860078 
L 373.189033 105.411299 
L 374.321728 105.034596 
L 376.477501 103.929684 
L 378.706352 102.34121 
L 382.067898 99.743349 
L 384.296748 98.226023 
L 386.525599 97.036917 
L 388.717911 96.17006 
L 390.946762 95.589885 
L 398.766009 94.265235 
L 405.416023 93.30477 
L 405.416023 93.30477 
" clip-path="url(#p97a25b0a7b)" style="fill: none; stroke: #ff5656; stroke-width: 0.5; stroke-linecap: square"/>
   </g>
   <g id="patch_6">
    <path d="M 50.45875 142.075269 
L 50.45875 90.982366 
" style="fill: none; stroke: #000000; stroke-width: 0.8; stroke-linejoin: miter; stroke-linecap: square"/>
   </g>
   <g id="patch_7">
    <path d="M 50.45875 142.075269 
L 422.31875 142.075269 
" style="fill: none; stroke: #000000; stroke-width: 0.8; stroke-linejoin: miter; stroke-linecap: square"/>
   </g>
  </g>
  <g id="axes_3">
   <g id="patch_8">
    <path d="M 50.45875 206.817634 
L 422.31875 206.817634 
L 422.31875 155.724731 
L 50.45875 155.724731 
z
" style="fill: #ffffff"/>
   </g>
   <g id="matplotlib.axis_5">
    <g id="xtick_15">
     <g id="line2d_41">
      <path d="M 66.265321 206.817634 
L 66.265321 155.724731 
" clip-path="url(#p6375ba2275)" style="fill: none; stroke-dasharray: 2.96,1.28; stroke-dashoffset: 0; stroke: #b0b0b0; stroke-opacity: 0.5; stroke-width: 0.8"/>
     </g>
     <g id="line2d_42">
      <g>
       <use xlink:href="#m897311cff9" x="66.265321" y="206.817634" style="stroke: #000000; stroke-width: 0.8"/>
      </g>
     </g>
    </g>
    <g id="xtick_16">
     <g id="line2d_43">
      <path d="M 119.648124 206.817634 
L 119.648124 155.724731 
" clip-path="url(#p6375ba2275)" style="fill: none; stroke-dasharray: 2.96,1.28; stroke-dashoffset: 0; stroke: #b0b0b0; stroke-opacity: 0.5; stroke-width: 0.8"/>
     </g>
     <g id="line2d_44">
      <g>
       <use xlink:href="#m897311cff9" x="119.648124" y="206.817634" style="stroke: #000000; stroke-width: 0.8"/>
      </g>
     </g>
    </g>
    <g id="xtick_17">
     <g id="line2d_45">
      <path d="M 173.030927 206.817634 
L 173.030927 155.724731 
" clip-path="url(#p6375ba2275)" style="fill: none; stroke-dasharray: 2.96,1.28; stroke-dashoffset: 0; stroke: #b0b0b0; stroke-opacity: 0.5; stroke-width: 0.8"/>
     </g>
     <g id="line2d_46">
      <g>
       <use xlink:href="#m897311cff9" x="173.030927" y="206.817634" style="stroke: #000000; stroke-width: 0.8"/>
      </g>
     </g>
    </g>
    <g id="xtick_18">
     <g id="line2d_47">
      <path d="M 226.413729 206.817634 
L 226.413729 155.724731 
" clip-path="url(#p6375ba2275)" style="fill: none; stroke-dasharray: 2.96,1.28; stroke-dashoffset: 0; stroke: #b0b0b0; stroke-opacity: 0.5; stroke-width: 0.8"/>
     </g>
     <g id="line2d_48">
      <g>
       <use xlink:href="#m897311cff9" x="226.413729" y="206.817634" style="stroke: #000000; stroke-width: 0.8"/>
      </g>
     </g>
    </g>
    <g id="xtick_19">
     <g id="line2d_49">
      <path d="M 279.796532 206.817634 
L 279.796532 155.724731 
" clip-path="url(#p6375ba2275)" style="fill: none; stroke-dasharray: 2.96,1.28; stroke-dashoffset: 0; stroke: #b0b0b0; stroke-opacity: 0.5; stroke-width: 0.8"/>
     </g>
     <g id="line2d_50">
      <g>
       <use xlink:href="#m897311cff9" x="279.796532" y="206.817634" style="stroke: #000000; stroke-width: 0.8"/>
      </g>
     </g>
    </g>
    <g id="xtick_20">
     <g id="line2d_51">
      <path d="M 333.179335 206.817634 
L 333.179335 155.724731 
" clip-path="url(#p6375ba2275)" style="fill: none; stroke-dasharray: 2.96,1.28; stroke-dashoffset: 0; stroke: #b0b0b0; stroke-opacity: 0.5; stroke-width: 0.8"/>
     </g>
     <g id="line2d_52">
      <g>
       <use xlink:href="#m897311cff9" x="333.179335" y="206.817634" style="stroke: #000000; stroke-width: 0.8"/>
      </g>
     </g>
    </g>
    <g id="xtick_21">
     <g id="line2d_53">
      <path d="M 386.562138 206.817634 
L 386.562138 155.724731 
" clip-path="url(#p6375ba2275)" style="fill: none; stroke-dasharray: 2.96,1.28; stroke-dashoffset: 0; stroke: #b0b0b0; stroke-opacity: 0.5; stroke-width: 0.8"/>
     </g>
     <g id="line2d_54">
      <g>
       <use xlink:href="#m897311cff9" x="386.562138" y="206.817634" style="stroke: #000000; stroke-width: 0.8"/>
      </g>
     </g>
    </g>
   </g>
   <g id="matplotlib.axis_6">
    <g id="ytick_6">
     <g id="line2d_55">
      <path d="M 50.45875 184.44043 
L 422.31875 184.44043 
" clip-path="url(#p6375ba2275)" style="fill: none; stroke-dasharray: 2.96,1.28; stroke-dashoffset: 0; stroke: #b0b0b0; stroke-opacity: 0.5; stroke-width: 0.8"/>
     </g>
     <g id="line2d_56">
      <g>
       <use xlink:href="#m4d87e0cb9d" x="50.45875" y="184.44043" style="stroke: #000000; stroke-width: 0.8"/>
      </g>
     </g>
     <g id="text_8">
      <!-- 0.0 -->
      <g transform="translate(30.73625 187.479805) scale(0.08 -0.08)">
       <defs>
        <path id="DejaVuSerif-2e" d="M 603 325 
Q 603 500 722 622 
Q 841 744 1019 744 
Q 1191 744 1312 622 
Q 1434 500 1434 325 
Q 1434 153 1312 31 
Q 1191 -91 1019 -91 
Q 841 -91 722 29 
Q 603 150 603 325 
z
" transform="scale(0.015625)"/>
       </defs>
       <use xlink:href="#DejaVuSerif-30"/>
       <use xlink:href="#DejaVuSerif-2e" transform="translate(63.623047 0)"/>
       <use xlink:href="#DejaVuSerif-30" transform="translate(95.410156 0)"/>
      </g>
     </g>
    </g>
    <g id="ytick_7">
     <g id="line2d_57">
      <path d="M 50.45875 158.983755 
L 422.31875 158.983755 
" clip-path="url(#p6375ba2275)" style="fill: none; stroke-dasharray: 2.96,1.28; stroke-dashoffset: 0; stroke: #b0b0b0; stroke-opacity: 0.5; stroke-width: 0.8"/>
     </g>
     <g id="line2d_58">
      <g>
       <use xlink:href="#m4d87e0cb9d" x="50.45875" y="158.983755" style="stroke: #000000; stroke-width: 0.8"/>
      </g>
     </g>
     <g id="text_9">
      <!-- 0.5 -->
      <g transform="translate(30.73625 162.02313) scale(0.08 -0.08)">
       <defs>
        <path id="DejaVuSerif-35" d="M 3219 4666 
L 3219 4153 
L 1081 4153 
L 1081 2816 
Q 1244 2928 1461 2984 
Q 1678 3041 1947 3041 
Q 2703 3041 3140 2622 
Q 3578 2203 3578 1478 
Q 3578 738 3136 323 
Q 2694 -91 1894 -91 
Q 1572 -91 1234 -12 
Q 897 66 544 225 
L 544 1131 
L 897 1131 
Q 925 688 1179 453 
Q 1434 219 1894 219 
Q 2388 219 2653 544 
Q 2919 869 2919 1478 
Q 2919 2084 2655 2407 
Q 2391 2731 1894 2731 
Q 1613 2731 1398 2631 
Q 1184 2531 1019 2322 
L 750 2322 
L 750 4666 
L 3219 4666 
z
" transform="scale(0.015625)"/>
       </defs>
       <use xlink:href="#DejaVuSerif-30"/>
       <use xlink:href="#DejaVuSerif-2e" transform="translate(63.623047 0)"/>
       <use xlink:href="#DejaVuSerif-35" transform="translate(95.410156 0)"/>
      </g>
     </g>
    </g>
    <g id="text_10">
     <!-- Sazonalidade -->
     <g transform="translate(25.0725 208.305558) rotate(-90) scale(0.08 -0.08)">
      <defs>
       <path id="DejaVuSerif-53" d="M 594 225 
L 594 1288 
L 953 1284 
Q 969 753 1261 498 
Q 1553 244 2150 244 
Q 2706 244 2998 464 
Q 3291 684 3291 1106 
Q 3291 1444 3114 1625 
Q 2938 1806 2369 1978 
L 1753 2163 
Q 1084 2366 811 2669 
Q 538 2972 538 3500 
Q 538 4094 959 4422 
Q 1381 4750 2144 4750 
Q 2469 4750 2856 4679 
Q 3244 4609 3681 4475 
L 3681 3481 
L 3328 3481 
Q 3275 3975 2998 4195 
Q 2722 4416 2156 4416 
Q 1663 4416 1405 4214 
Q 1147 4013 1147 3628 
Q 1147 3294 1340 3103 
Q 1534 2913 2163 2725 
L 2741 2553 
Q 3375 2363 3645 2067 
Q 3916 1772 3916 1275 
Q 3916 597 3481 253 
Q 3047 -91 2188 -91 
Q 1803 -91 1404 -12 
Q 1006 66 594 225 
z
" transform="scale(0.015625)"/>
       <path id="DejaVuSerif-7a" d="M 256 0 
L 256 269 
L 2338 2988 
L 691 2988 
L 691 2413 
L 359 2413 
L 359 3322 
L 3078 3322 
L 3078 3053 
L 997 331 
L 2803 331 
L 2803 934 
L 3138 934 
L 3138 0 
L 256 0 
z
" transform="scale(0.015625)"/>
       <path id="DejaVuSerif-6c" d="M 1313 331 
L 1856 331 
L 1856 0 
L 184 0 
L 184 331 
L 738 331 
L 738 4531 
L 184 4531 
L 184 4863 
L 1313 4863 
L 1313 331 
z
" transform="scale(0.015625)"/>
      </defs>
      <use xlink:href="#DejaVuSerif-53"/>
      <use xlink:href="#DejaVuSerif-61" transform="translate(68.505859 0)"/>
      <use xlink:href="#DejaVuSerif-7a" transform="translate(128.125 0)"/>
      <use xlink:href="#DejaVuSerif-6f" transform="translate(180.810547 0)"/>
      <use xlink:href="#DejaVuSerif-6e" transform="translate(241.015625 0)"/>
      <use xlink:href="#DejaVuSerif-61" transform="translate(305.419922 0)"/>
      <use xlink:href="#DejaVuSerif-6c" transform="translate(365.039062 0)"/>
      <use xlink:href="#DejaVuSerif-69" transform="translate(397.021484 0)"/>
      <use xlink:href="#DejaVuSerif-64" transform="translate(429.003906 0)"/>
      <use xlink:href="#DejaVuSerif-61" transform="translate(493.017578 0)"/>
      <use xlink:href="#DejaVuSerif-64" transform="translate(552.636719 0)"/>
      <use xlink:href="#DejaVuSerif-65" transform="translate(616.650391 0)"/>
     </g>
    </g>
   </g>
   <g id="line2d_59">
    <path d="M 67.361477 182.944061 
L 68.421095 176.622147 
L 69.55379 175.57719 
L 70.649946 176.293506 
L 71.78264 181.181056 
L 72.878796 190.842809 
L 74.011491 193.905659 
L 75.144186 190.398725 
L 76.240342 189.753523 
L 77.373036 183.748599 
L 78.469193 184.704962 
L 79.601887 186.146961 
L 80.734582 183.020643 
L 81.757661 177.221264 
L 82.890356 175.720232 
L 83.986512 177.130506 
L 85.119206 182.554446 
L 86.215362 190.603447 
L 87.348057 193.327086 
L 88.480752 189.733963 
L 89.576908 188.897388 
L 90.709602 183.603869 
L 91.805759 184.418216 
L 92.938453 185.985272 
L 94.071148 183.04818 
L 95.094227 177.761598 
L 96.226922 175.756675 
L 97.323078 177.938125 
L 98.455772 183.870478 
L 99.551928 190.44256 
L 100.684623 192.821938 
L 101.817318 189.08187 
L 102.913474 188.116102 
L 104.046169 183.46189 
L 105.142325 184.179728 
L 106.275019 185.893878 
L 107.407714 183.047863 
L 108.430793 178.253719 
L 109.563488 175.698217 
L 110.659644 178.675991 
L 111.792338 185.122406 
L 112.888495 190.334569 
L 114.021189 192.35085 
L 115.153884 188.440387 
L 116.25004 187.392968 
L 117.382735 183.260162 
L 118.478891 183.941722 
L 119.611585 185.85866 
L 120.74428 183.078222 
L 121.803898 178.743901 
L 122.936592 175.702947 
L 124.032748 179.447815 
L 125.165443 186.375071 
L 126.261599 190.170883 
L 127.394294 191.783176 
L 128.526988 187.748675 
L 129.623145 186.59364 
L 130.755839 182.909186 
L 131.851995 183.624924 
L 132.98469 185.812821 
L 134.117385 183.227602 
L 135.140464 179.427261 
L 136.273158 176.19852 
L 137.369314 180.810677 
L 138.502009 187.897359 
L 139.598165 189.691919 
L 140.73086 190.908217 
L 141.863554 186.797813 
L 142.959711 185.487616 
L 144.092405 182.420618 
L 145.188561 183.325204 
L 146.321256 185.749334 
L 147.453951 183.520929 
L 148.47703 179.564398 
L 149.609724 175.959821 
L 150.70588 181.886477 
L 151.838575 188.838095 
L 152.934731 190.058881 
L 154.067426 190.693145 
L 155.200121 186.477221 
L 156.296277 184.86742 
L 157.428971 182.271754 
L 158.525127 183.104488 
L 159.657822 186.158024 
L 160.790517 183.461849 
L 161.813596 178.750463 
L 162.94629 175.11537 
L 164.042446 182.579364 
L 165.175141 189.377593 
L 166.271297 190.794514 
L 167.403992 190.834543 
L 168.536687 186.61633 
L 169.632843 184.793806 
L 170.765537 182.582592 
L 171.861693 183.068425 
L 172.994388 186.226986 
L 174.127083 183.059862 
L 175.1867 177.037038 
L 176.319395 174.495274 
L 177.415551 183.028474 
L 178.548246 189.828893 
L 179.644402 191.841278 
L 180.777097 191.272321 
L 181.909791 186.877051 
L 184.138642 182.839146 
L 185.234798 183.138318 
L 186.367493 185.786002 
L 187.500187 182.835485 
L 188.523266 175.184081 
L 189.655961 174.065127 
L 190.752117 183.079602 
L 191.884812 190.271606 
L 192.980968 193.207618 
L 194.113663 192.109241 
L 195.246357 187.223561 
L 196.342513 184.606789 
L 197.475208 182.752485 
L 198.571364 183.196173 
L 199.704059 185.145287 
L 200.836753 182.5328 
L 201.859832 173.473549 
L 202.992527 173.82352 
L 204.088683 182.99058 
L 205.221378 190.76358 
L 206.317534 194.592095 
L 207.450229 193.205859 
L 208.582923 187.893013 
L 209.679079 184.642857 
L 210.811774 182.743158 
L 211.90793 183.231364 
L 213.040625 184.766151 
L 214.173319 180.744135 
L 215.196398 171.4318 
L 216.329093 173.479082 
L 217.425249 183.336158 
L 218.557944 191.28712 
L 219.6541 195.989695 
L 220.786795 194.530187 
L 221.919489 189.07526 
L 223.015645 185.133539 
L 224.14834 183.010665 
L 225.244496 183.30753 
L 226.377191 184.261843 
L 227.509885 177.710996 
L 228.569503 169.245026 
L 229.702198 172.810389 
L 230.798354 183.768431 
L 231.931048 192.010306 
L 233.027205 197.425248 
L 234.159899 196.159477 
L 235.292594 190.436035 
L 236.38875 185.865242 
L 237.521445 183.141609 
L 238.617601 183.473789 
L 239.750295 183.535586 
L 241.906069 167.378412 
L 243.038764 171.993697 
L 244.13492 183.611809 
L 245.267615 192.796662 
L 246.363771 198.435922 
L 247.496465 197.826915 
L 248.62916 191.550801 
L 249.725316 186.660768 
L 250.858011 182.985813 
L 251.954167 183.777463 
L 253.086861 183.121019 
L 254.219556 173.099887 
L 255.242635 166.038556 
L 256.37533 170.776474 
L 257.471486 183.476924 
L 258.604181 193.544058 
L 259.700337 198.985498 
L 260.833031 199.341047 
L 261.965726 192.826352 
L 263.061882 187.537242 
L 264.194577 182.894923 
L 265.290733 183.8896 
L 266.423428 182.880988 
L 267.556122 170.827027 
L 268.579201 165.146656 
L 269.711896 169.399398 
L 270.808052 183.517981 
L 271.940747 194.227117 
L 273.036903 199.337138 
L 274.169597 200.527638 
L 277.531143 183.033379 
L 278.627299 183.794475 
L 279.759994 182.401749 
L 280.892688 167.883285 
L 281.952306 164.155146 
L 283.085 168.607506 
L 284.181157 183.943538 
L 285.313851 195.069162 
L 286.410007 199.924785 
L 287.542702 201.620146 
L 288.675397 196.16267 
L 289.771553 189.099282 
L 290.904247 182.853227 
L 292.000403 183.344801 
L 293.133098 181.337726 
L 294.265793 165.712786 
L 295.288872 163.149829 
L 296.421566 167.946746 
L 297.517723 185.100016 
L 298.650417 196.472501 
L 299.746573 200.77539 
L 300.879268 202.605635 
L 302.011963 197.121899 
L 303.108119 188.74659 
L 304.240813 182.301558 
L 305.33697 182.830876 
L 306.469664 179.911463 
L 307.602359 165.259415 
L 308.625438 162.925127 
L 309.758133 167.257911 
L 310.854289 186.215164 
L 311.986983 197.585474 
L 313.083139 201.218489 
L 314.215834 202.997185 
L 315.348529 197.197687 
L 316.444685 187.842652 
L 317.577379 182.321753 
L 318.673536 182.458927 
L 319.80623 179.165131 
L 320.938925 165.663002 
L 321.962004 163.376976 
L 323.094699 166.639644 
L 324.190855 187.088796 
L 325.323549 197.838849 
L 326.419705 201.390127 
L 327.5524 202.749615 
L 328.685095 196.894775 
L 329.781251 187.031 
L 330.913946 182.495794 
L 332.010102 181.948421 
L 333.142796 179.039419 
L 334.275491 166.418446 
L 335.335109 164.043774 
L 336.467803 166.345719 
L 337.563959 188.112511 
L 338.696654 197.41272 
L 339.79281 201.741292 
L 340.925505 202.825837 
L 342.058199 196.545305 
L 343.154355 186.210804 
L 344.28705 182.407954 
L 346.515901 179.195684 
L 347.648596 168.630693 
L 348.671675 163.508575 
L 349.804369 166.040806 
L 350.900525 188.23787 
L 352.03322 196.837864 
L 353.129376 202.467477 
L 354.262071 203.259618 
L 355.394765 196.518661 
L 356.490922 185.189542 
L 357.623616 182.219602 
L 358.719772 179.961889 
L 359.852467 179.699887 
L 362.008241 162.250038 
L 363.140935 165.500341 
L 364.237091 188.431667 
L 365.369786 196.79268 
L 366.465942 203.126014 
L 367.598637 203.652311 
L 368.731331 196.411995 
L 369.827488 184.156145 
L 370.960182 182.200927 
L 372.056338 179.216308 
L 373.189033 180.348283 
L 374.321728 172.895498 
L 375.344807 160.943831 
L 376.477501 164.83689 
L 377.573657 188.472266 
L 379.802508 203.703006 
L 380.935203 204.033171 
L 382.067898 196.255726 
L 383.164054 183.223228 
L 384.296748 182.288746 
L 385.392904 178.519476 
L 386.525599 181.080877 
L 387.658294 175.239467 
L 388.717911 159.579183 
L 389.850606 164.141529 
L 390.946762 188.364776 
L 393.175613 204.267769 
L 394.308307 204.49523 
L 395.441002 196.128865 
L 396.537158 182.385426 
L 397.669853 182.395618 
L 398.766009 177.814027 
L 399.898704 181.846819 
L 401.031398 177.593792 
L 402.054477 158.047136 
L 403.187172 163.446771 
L 404.283328 188.129815 
L 405.416023 196.023986 
L 405.416023 196.023986 
" clip-path="url(#p6375ba2275)" style="fill: none; stroke: #ffa722; stroke-width: 0.5; stroke-linecap: square"/>
   </g>
   <g id="patch_9">
    <path d="M 50.45875 206.817634 
L 50.45875 155.724731 
" style="fill: none; stroke: #000000; stroke-width: 0.8; stroke-linejoin: miter; stroke-linecap: square"/>
   </g>
   <g id="patch_10">
    <path d="M 50.45875 206.817634 
L 422.31875 206.817634 
" style="fill: none; stroke: #000000; stroke-width: 0.8; stroke-linejoin: miter; stroke-linecap: square"/>
   </g>
  </g>
  <g id="axes_4">
   <g id="patch_11">
    <path d="M 50.45875 271.56 
L 422.31875 271.56 
L 422.31875 220.467097 
L 50.45875 220.467097 
z
" style="fill: #ffffff"/>
   </g>
   <g id="matplotlib.axis_7">
    <g id="xtick_22">
     <g id="line2d_60">
      <path d="M 66.265321 271.56 
L 66.265321 220.467097 
" clip-path="url(#pd9d8b02410)" style="fill: none; stroke-dasharray: 2.96,1.28; stroke-dashoffset: 0; stroke: #b0b0b0; stroke-opacity: 0.5; stroke-width: 0.8"/>
     </g>
     <g id="line2d_61">
      <g>
       <use xlink:href="#m897311cff9" x="66.265321" y="271.56" style="stroke: #000000; stroke-width: 0.8"/>
      </g>
     </g>
     <g id="text_11">
      <!-- 2000 -->
      <g transform="translate(56.085321 284.63875) scale(0.08 -0.08)">
       <use xlink:href="#DejaVuSerif-32"/>
       <use xlink:href="#DejaVuSerif-30" transform="translate(63.623047 0)"/>
       <use xlink:href="#DejaVuSerif-30" transform="translate(127.246094 0)"/>
       <use xlink:href="#DejaVuSerif-30" transform="translate(190.869141 0)"/>
      </g>
     </g>
    </g>
    <g id="xtick_23">
     <g id="line2d_62">
      <path d="M 119.648124 271.56 
L 119.648124 220.467097 
" clip-path="url(#pd9d8b02410)" style="fill: none; stroke-dasharray: 2.96,1.28; stroke-dashoffset: 0; stroke: #b0b0b0; stroke-opacity: 0.5; stroke-width: 0.8"/>
     </g>
     <g id="line2d_63">
      <g>
       <use xlink:href="#m897311cff9" x="119.648124" y="271.56" style="stroke: #000000; stroke-width: 0.8"/>
      </g>
     </g>
     <g id="text_12">
      <!-- 2004 -->
      <g transform="translate(109.468124 284.63875) scale(0.08 -0.08)">
       <defs>
        <path id="DejaVuSerif-34" d="M 2234 1581 
L 2234 4063 
L 641 1581 
L 2234 1581 
z
M 3609 0 
L 1484 0 
L 1484 331 
L 2234 331 
L 2234 1247 
L 197 1247 
L 197 1588 
L 2241 4750 
L 2859 4750 
L 2859 1581 
L 3750 1581 
L 3750 1247 
L 2859 1247 
L 2859 331 
L 3609 331 
L 3609 0 
z
" transform="scale(0.015625)"/>
       </defs>
       <use xlink:href="#DejaVuSerif-32"/>
       <use xlink:href="#DejaVuSerif-30" transform="translate(63.623047 0)"/>
       <use xlink:href="#DejaVuSerif-30" transform="translate(127.246094 0)"/>
       <use xlink:href="#DejaVuSerif-34" transform="translate(190.869141 0)"/>
      </g>
     </g>
    </g>
    <g id="xtick_24">
     <g id="line2d_64">
      <path d="M 173.030927 271.56 
L 173.030927 220.467097 
" clip-path="url(#pd9d8b02410)" style="fill: none; stroke-dasharray: 2.96,1.28; stroke-dashoffset: 0; stroke: #b0b0b0; stroke-opacity: 0.5; stroke-width: 0.8"/>
     </g>
     <g id="line2d_65">
      <g>
       <use xlink:href="#m897311cff9" x="173.030927" y="271.56" style="stroke: #000000; stroke-width: 0.8"/>
      </g>
     </g>
     <g id="text_13">
      <!-- 2008 -->
      <g transform="translate(162.850927 284.63875) scale(0.08 -0.08)">
       <defs>
        <path id="DejaVuSerif-38" d="M 2981 1275 
Q 2981 1775 2732 2051 
Q 2484 2328 2034 2328 
Q 1584 2328 1336 2051 
Q 1088 1775 1088 1275 
Q 1088 772 1336 495 
Q 1584 219 2034 219 
Q 2484 219 2732 495 
Q 2981 772 2981 1275 
z
M 2853 3541 
Q 2853 3966 2637 4203 
Q 2422 4441 2034 4441 
Q 1650 4441 1433 4203 
Q 1216 3966 1216 3541 
Q 1216 3113 1433 2875 
Q 1650 2638 2034 2638 
Q 2422 2638 2637 2875 
Q 2853 3113 2853 3541 
z
M 2516 2484 
Q 3047 2413 3344 2092 
Q 3641 1772 3641 1275 
Q 3641 619 3225 264 
Q 2809 -91 2034 -91 
Q 1263 -91 845 264 
Q 428 619 428 1275 
Q 428 1772 725 2092 
Q 1022 2413 1556 2484 
Q 1084 2569 832 2842 
Q 581 3116 581 3541 
Q 581 4103 968 4426 
Q 1356 4750 2034 4750 
Q 2713 4750 3100 4426 
Q 3488 4103 3488 3541 
Q 3488 3116 3236 2842 
Q 2984 2569 2516 2484 
z
" transform="scale(0.015625)"/>
       </defs>
       <use xlink:href="#DejaVuSerif-32"/>
       <use xlink:href="#DejaVuSerif-30" transform="translate(63.623047 0)"/>
       <use xlink:href="#DejaVuSerif-30" transform="translate(127.246094 0)"/>
       <use xlink:href="#DejaVuSerif-38" transform="translate(190.869141 0)"/>
      </g>
     </g>
    </g>
    <g id="xtick_25">
     <g id="line2d_66">
      <path d="M 226.413729 271.56 
L 226.413729 220.467097 
" clip-path="url(#pd9d8b02410)" style="fill: none; stroke-dasharray: 2.96,1.28; stroke-dashoffset: 0; stroke: #b0b0b0; stroke-opacity: 0.5; stroke-width: 0.8"/>
     </g>
     <g id="line2d_67">
      <g>
       <use xlink:href="#m897311cff9" x="226.413729" y="271.56" style="stroke: #000000; stroke-width: 0.8"/>
      </g>
     </g>
     <g id="text_14">
      <!-- 2012 -->
      <g transform="translate(216.233729 284.63875) scale(0.08 -0.08)">
       <defs>
        <path id="DejaVuSerif-31" d="M 909 0 
L 909 331 
L 1722 331 
L 1722 4213 
L 781 3603 
L 781 4013 
L 1919 4750 
L 2350 4750 
L 2350 331 
L 3163 331 
L 3163 0 
L 909 0 
z
" transform="scale(0.015625)"/>
       </defs>
       <use xlink:href="#DejaVuSerif-32"/>
       <use xlink:href="#DejaVuSerif-30" transform="translate(63.623047 0)"/>
       <use xlink:href="#DejaVuSerif-31" transform="translate(127.246094 0)"/>
       <use xlink:href="#DejaVuSerif-32" transform="translate(190.869141 0)"/>
      </g>
     </g>
    </g>
    <g id="xtick_26">
     <g id="line2d_68">
      <path d="M 279.796532 271.56 
L 279.796532 220.467097 
" clip-path="url(#pd9d8b02410)" style="fill: none; stroke-dasharray: 2.96,1.28; stroke-dashoffset: 0; stroke: #b0b0b0; stroke-opacity: 0.5; stroke-width: 0.8"/>
     </g>
     <g id="line2d_69">
      <g>
       <use xlink:href="#m897311cff9" x="279.796532" y="271.56" style="stroke: #000000; stroke-width: 0.8"/>
      </g>
     </g>
     <g id="text_15">
      <!-- 2016 -->
      <g transform="translate(269.616532 284.63875) scale(0.08 -0.08)">
       <defs>
        <path id="DejaVuSerif-36" d="M 2094 219 
Q 2534 219 2771 542 
Q 3009 866 3009 1472 
Q 3009 2078 2771 2401 
Q 2534 2725 2094 2725 
Q 1647 2725 1412 2412 
Q 1178 2100 1178 1509 
Q 1178 888 1415 553 
Q 1653 219 2094 219 
z
M 1075 2569 
Q 1288 2803 1556 2918 
Q 1825 3034 2163 3034 
Q 2859 3034 3264 2615 
Q 3669 2197 3669 1472 
Q 3669 763 3233 336 
Q 2797 -91 2069 -91 
Q 1278 -91 853 498 
Q 428 1088 428 2181 
Q 428 3406 931 4078 
Q 1434 4750 2350 4750 
Q 2597 4750 2869 4703 
Q 3141 4656 3425 4563 
L 3425 3794 
L 3072 3794 
Q 3034 4109 2831 4275 
Q 2628 4441 2284 4441 
Q 1678 4441 1381 3981 
Q 1084 3522 1075 2569 
z
" transform="scale(0.015625)"/>
       </defs>
       <use xlink:href="#DejaVuSerif-32"/>
       <use xlink:href="#DejaVuSerif-30" transform="translate(63.623047 0)"/>
       <use xlink:href="#DejaVuSerif-31" transform="translate(127.246094 0)"/>
       <use xlink:href="#DejaVuSerif-36" transform="translate(190.869141 0)"/>
      </g>
     </g>
    </g>
    <g id="xtick_27">
     <g id="line2d_70">
      <path d="M 333.179335 271.56 
L 333.179335 220.467097 
" clip-path="url(#pd9d8b02410)" style="fill: none; stroke-dasharray: 2.96,1.28; stroke-dashoffset: 0; stroke: #b0b0b0; stroke-opacity: 0.5; stroke-width: 0.8"/>
     </g>
     <g id="line2d_71">
      <g>
       <use xlink:href="#m897311cff9" x="333.179335" y="271.56" style="stroke: #000000; stroke-width: 0.8"/>
      </g>
     </g>
     <g id="text_16">
      <!-- 2020 -->
      <g transform="translate(322.999335 284.63875) scale(0.08 -0.08)">
       <use xlink:href="#DejaVuSerif-32"/>
       <use xlink:href="#DejaVuSerif-30" transform="translate(63.623047 0)"/>
       <use xlink:href="#DejaVuSerif-32" transform="translate(127.246094 0)"/>
       <use xlink:href="#DejaVuSerif-30" transform="translate(190.869141 0)"/>
      </g>
     </g>
    </g>
    <g id="xtick_28">
     <g id="line2d_72">
      <path d="M 386.562138 271.56 
L 386.562138 220.467097 
" clip-path="url(#pd9d8b02410)" style="fill: none; stroke-dasharray: 2.96,1.28; stroke-dashoffset: 0; stroke: #b0b0b0; stroke-opacity: 0.5; stroke-width: 0.8"/>
     </g>
     <g id="line2d_73">
      <g>
       <use xlink:href="#m897311cff9" x="386.562138" y="271.56" style="stroke: #000000; stroke-width: 0.8"/>
      </g>
     </g>
     <g id="text_17">
      <!-- 2024 -->
      <g transform="translate(376.382138 284.63875) scale(0.08 -0.08)">
       <use xlink:href="#DejaVuSerif-32"/>
       <use xlink:href="#DejaVuSerif-30" transform="translate(63.623047 0)"/>
       <use xlink:href="#DejaVuSerif-32" transform="translate(127.246094 0)"/>
       <use xlink:href="#DejaVuSerif-34" transform="translate(190.869141 0)"/>
      </g>
     </g>
    </g>
    <g id="text_18">
     <!-- Série histórica -->
     <g transform="translate(206.71125 296.38125) scale(0.08 -0.08)">
      <defs>
       <path id="DejaVuSerif-e9" d="M 3469 1600 
L 991 1600 
L 991 1575 
Q 991 903 1244 561 
Q 1497 219 1991 219 
Q 2369 219 2611 417 
Q 2853 616 2950 1006 
L 3413 1006 
Q 3275 459 2904 184 
Q 2534 -91 1931 -91 
Q 1203 -91 761 389 
Q 319 869 319 1663 
Q 319 2450 753 2931 
Q 1188 3413 1894 3413 
Q 2647 3413 3050 2948 
Q 3453 2484 3469 1600 
z
M 2791 1931 
Q 2772 2513 2545 2808 
Q 2319 3103 1894 3103 
Q 1497 3103 1269 2806 
Q 1041 2509 991 1931 
L 2791 1931 
z
M 2330 5119 
L 2952 5119 
L 1890 3944 
L 1524 3944 
L 2330 5119 
z
" transform="scale(0.015625)"/>
       <path id="DejaVuSerif-20" transform="scale(0.015625)"/>
       <path id="DejaVuSerif-68" d="M 263 0 
L 263 331 
L 781 331 
L 781 4531 
L 231 4531 
L 231 4863 
L 1356 4863 
L 1356 2731 
Q 1516 3069 1770 3241 
Q 2025 3413 2363 3413 
Q 2913 3413 3172 3097 
Q 3431 2781 3431 2113 
L 3431 331 
L 3944 331 
L 3944 0 
L 2356 0 
L 2356 331 
L 2853 331 
L 2853 1931 
Q 2853 2541 2704 2764 
Q 2556 2988 2175 2988 
Q 1775 2988 1565 2697 
Q 1356 2406 1356 1850 
L 1356 331 
L 1856 331 
L 1856 0 
L 263 0 
z
" transform="scale(0.015625)"/>
       <path id="DejaVuSerif-74" d="M 691 2988 
L 184 2988 
L 184 3322 
L 691 3322 
L 691 4353 
L 1269 4353 
L 1269 3322 
L 2350 3322 
L 2350 2988 
L 1269 2988 
L 1269 878 
Q 1269 456 1350 337 
Q 1431 219 1650 219 
Q 1875 219 1978 351 
Q 2081 484 2088 781 
L 2522 781 
Q 2497 328 2275 118 
Q 2053 -91 1600 -91 
Q 1103 -91 897 129 
Q 691 350 691 878 
L 691 2988 
z
" transform="scale(0.015625)"/>
       <path id="DejaVuSerif-f3" d="M 1925 219 
Q 2388 219 2623 584 
Q 2859 950 2859 1663 
Q 2859 2375 2623 2739 
Q 2388 3103 1925 3103 
Q 1463 3103 1227 2739 
Q 991 2375 991 1663 
Q 991 950 1228 584 
Q 1466 219 1925 219 
z
M 1925 -91 
Q 1200 -91 759 389 
Q 319 869 319 1663 
Q 319 2456 758 2934 
Q 1197 3413 1925 3413 
Q 2653 3413 3092 2934 
Q 3531 2456 3531 1663 
Q 3531 869 3092 389 
Q 2653 -91 1925 -91 
z
M 2362 5119 
L 2984 5119 
L 1922 3944 
L 1556 3944 
L 2362 5119 
z
" transform="scale(0.015625)"/>
      </defs>
      <use xlink:href="#DejaVuSerif-53"/>
      <use xlink:href="#DejaVuSerif-e9" transform="translate(68.505859 0)"/>
      <use xlink:href="#DejaVuSerif-72" transform="translate(127.685547 0)"/>
      <use xlink:href="#DejaVuSerif-69" transform="translate(175.488281 0)"/>
      <use xlink:href="#DejaVuSerif-65" transform="translate(207.470703 0)"/>
      <use xlink:href="#DejaVuSerif-20" transform="translate(266.650391 0)"/>
      <use xlink:href="#DejaVuSerif-68" transform="translate(298.4375 0)"/>
      <use xlink:href="#DejaVuSerif-69" transform="translate(362.841797 0)"/>
      <use xlink:href="#DejaVuSerif-73" transform="translate(394.824219 0)"/>
      <use xlink:href="#DejaVuSerif-74" transform="translate(446.142578 0)"/>
      <use xlink:href="#DejaVuSerif-f3" transform="translate(486.328125 0)"/>
      <use xlink:href="#DejaVuSerif-72" transform="translate(546.533203 0)"/>
      <use xlink:href="#DejaVuSerif-69" transform="translate(594.335938 0)"/>
      <use xlink:href="#DejaVuSerif-63" transform="translate(626.318359 0)"/>
      <use xlink:href="#DejaVuSerif-61" transform="translate(682.324219 0)"/>
     </g>
    </g>
   </g>
   <g id="matplotlib.axis_8">
    <g id="ytick_8">
     <g id="line2d_74">
      <path d="M 50.45875 256.692408 
L 422.31875 256.692408 
" clip-path="url(#pd9d8b02410)" style="fill: none; stroke-dasharray: 2.96,1.28; stroke-dashoffset: 0; stroke: #b0b0b0; stroke-opacity: 0.5; stroke-width: 0.8"/>
     </g>
     <g id="line2d_75">
      <g>
       <use xlink:href="#m4d87e0cb9d" x="50.45875" y="256.692408" style="stroke: #000000; stroke-width: 0.8"/>
      </g>
     </g>
     <g id="text_19">
      <!-- −0.25 -->
      <g transform="translate(18.9425 259.731783) scale(0.08 -0.08)">
       <use xlink:href="#DejaVuSerif-2212"/>
       <use xlink:href="#DejaVuSerif-30" transform="translate(83.789062 0)"/>
       <use xlink:href="#DejaVuSerif-2e" transform="translate(147.412109 0)"/>
       <use xlink:href="#DejaVuSerif-32" transform="translate(179.199219 0)"/>
       <use xlink:href="#DejaVuSerif-35" transform="translate(242.822266 0)"/>
      </g>
     </g>
    </g>
    <g id="ytick_9">
     <g id="line2d_76">
      <path d="M 50.45875 239.306019 
L 422.31875 239.306019 
" clip-path="url(#pd9d8b02410)" style="fill: none; stroke-dasharray: 2.96,1.28; stroke-dashoffset: 0; stroke: #b0b0b0; stroke-opacity: 0.5; stroke-width: 0.8"/>
     </g>
     <g id="line2d_77">
      <g>
       <use xlink:href="#m4d87e0cb9d" x="50.45875" y="239.306019" style="stroke: #000000; stroke-width: 0.8"/>
      </g>
     </g>
     <g id="text_20">
      <!-- 0.00 -->
      <g transform="translate(25.64625 242.345394) scale(0.08 -0.08)">
       <use xlink:href="#DejaVuSerif-30"/>
       <use xlink:href="#DejaVuSerif-2e" transform="translate(63.623047 0)"/>
       <use xlink:href="#DejaVuSerif-30" transform="translate(95.410156 0)"/>
       <use xlink:href="#DejaVuSerif-30" transform="translate(159.033203 0)"/>
      </g>
     </g>
    </g>
    <g id="ytick_10">
     <g id="line2d_78">
      <path d="M 50.45875 221.91963 
L 422.31875 221.91963 
" clip-path="url(#pd9d8b02410)" style="fill: none; stroke-dasharray: 2.96,1.28; stroke-dashoffset: 0; stroke: #b0b0b0; stroke-opacity: 0.5; stroke-width: 0.8"/>
     </g>
     <g id="line2d_79">
      <g>
       <use xlink:href="#m4d87e0cb9d" x="50.45875" y="221.91963" style="stroke: #000000; stroke-width: 0.8"/>
      </g>
     </g>
     <g id="text_21">
      <!-- 0.25 -->
      <g transform="translate(25.64625 224.959005) scale(0.08 -0.08)">
       <use xlink:href="#DejaVuSerif-30"/>
       <use xlink:href="#DejaVuSerif-2e" transform="translate(63.623047 0)"/>
       <use xlink:href="#DejaVuSerif-32" transform="translate(95.410156 0)"/>
       <use xlink:href="#DejaVuSerif-35" transform="translate(159.033203 0)"/>
      </g>
     </g>
    </g>
    <g id="text_22">
     <!-- Resíduo -->
     <g transform="translate(13.27875 262.269799) rotate(-90) scale(0.08 -0.08)">
      <defs>
       <path id="DejaVuSerif-52" d="M 3066 2316 
Q 3284 2256 3442 2114 
Q 3600 1972 3725 1716 
L 4403 331 
L 4972 331 
L 4972 0 
L 3872 0 
L 3144 1484 
Q 2934 1916 2759 2042 
Q 2584 2169 2278 2169 
L 1581 2169 
L 1581 331 
L 2241 331 
L 2241 0 
L 353 0 
L 353 331 
L 947 331 
L 947 4331 
L 353 4331 
L 353 4666 
L 2719 4666 
Q 3400 4666 3770 4341 
Q 4141 4016 4141 3419 
Q 4141 2938 3870 2661 
Q 3600 2384 3066 2316 
z
M 1581 2503 
L 2503 2503 
Q 2975 2503 3200 2726 
Q 3425 2950 3425 3419 
Q 3425 3888 3200 4109 
Q 2975 4331 2503 4331 
L 1581 4331 
L 1581 2503 
z
" transform="scale(0.015625)"/>
       <path id="DejaVuSerif-ed" d="M 1356 331 
L 1900 331 
L 1900 0 
L 231 0 
L 231 331 
L 781 331 
L 781 2988 
L 231 2988 
L 231 3322 
L 1356 3322 
L 1356 331 
z
M 1458 5119 
L 2080 5119 
L 1018 3944 
L 652 3944 
L 1458 5119 
z
" transform="scale(0.015625)"/>
       <path id="DejaVuSerif-75" d="M 2266 3322 
L 3341 3322 
L 3341 331 
L 3884 331 
L 3884 0 
L 2766 0 
L 2766 588 
Q 2606 256 2353 82 
Q 2100 -91 1766 -91 
Q 1213 -91 952 223 
Q 691 538 691 1209 
L 691 2988 
L 172 2988 
L 172 3322 
L 1269 3322 
L 1269 1388 
Q 1269 781 1417 556 
Q 1566 331 1947 331 
Q 2347 331 2556 625 
Q 2766 919 2766 1478 
L 2766 2988 
L 2266 2988 
L 2266 3322 
z
" transform="scale(0.015625)"/>
      </defs>
      <use xlink:href="#DejaVuSerif-52"/>
      <use xlink:href="#DejaVuSerif-65" transform="translate(75.292969 0)"/>
      <use xlink:href="#DejaVuSerif-73" transform="translate(134.472656 0)"/>
      <use xlink:href="#DejaVuSerif-ed" transform="translate(185.791016 0)"/>
      <use xlink:href="#DejaVuSerif-64" transform="translate(217.773438 0)"/>
      <use xlink:href="#DejaVuSerif-75" transform="translate(281.787109 0)"/>
      <use xlink:href="#DejaVuSerif-6f" transform="translate(346.191406 0)"/>
     </g>
    </g>
   </g>
   <g id="line2d_80">
    <path d="M 67.361477 240.589546 
L 68.421095 242.562333 
L 69.55379 246.383274 
L 70.649946 249.092313 
L 71.78264 242.786483 
L 72.878796 230.201622 
L 74.011491 230.853248 
L 75.144186 230.26248 
L 76.240342 232.389647 
L 77.373036 232.886025 
L 78.469193 236.941036 
L 79.601887 235.48709 
L 81.757661 229.192217 
L 82.890356 224.646786 
L 83.986512 227.341744 
L 85.119206 231.917721 
L 86.215362 255.118486 
L 87.348057 254.643901 
L 88.480752 251.625042 
L 89.576908 250.168306 
L 90.709602 251.936206 
L 91.805759 246.490973 
L 92.938453 247.037379 
L 94.071148 243.555974 
L 95.094227 246.098904 
L 96.226922 238.253723 
L 97.323078 233.640633 
L 98.455772 238.241053 
L 99.551928 233.91747 
L 100.684623 234.650568 
L 101.817318 235.117374 
L 102.913474 239.867421 
L 104.046169 231.260622 
L 105.142325 235.022083 
L 106.275019 237.750319 
L 107.407714 239.265442 
L 108.430793 234.304337 
L 109.563488 247.387337 
L 110.659644 245.224605 
L 111.792338 243.528325 
L 112.888495 238.306211 
L 114.021189 236.10286 
L 115.153884 241.632912 
L 116.25004 236.129134 
L 117.382735 236.970955 
L 118.478891 236.02696 
L 119.611585 235.840157 
L 120.74428 243.116867 
L 121.803898 246.241815 
L 122.936592 243.768218 
L 124.032748 242.295413 
L 125.165443 241.007949 
L 126.261599 237.658458 
L 127.394294 236.021637 
L 128.526988 238.339456 
L 129.623145 231.704356 
L 130.755839 242.276411 
L 131.851995 238.294439 
L 132.98469 238.057448 
L 135.140464 241.703605 
L 136.273158 238.902256 
L 137.369314 234.570627 
L 138.502009 239.082649 
L 139.598165 237.339698 
L 140.73086 242.878843 
L 141.863554 239.024534 
L 142.959711 242.12994 
L 144.092405 240.996233 
L 145.188561 242.415769 
L 146.321256 240.551327 
L 147.453951 234.117885 
L 148.47703 234.142413 
L 149.609724 236.264587 
L 150.70588 245.3478 
L 151.838575 240.384491 
L 152.934731 239.414256 
L 154.067426 238.717763 
L 155.200121 236.456716 
L 156.296277 243.784455 
L 157.428971 244.716443 
L 158.525127 240.749461 
L 159.657822 237.257129 
L 160.790517 237.393533 
L 161.813596 240.620766 
L 162.94629 234.158689 
L 165.175141 238.764925 
L 166.271297 241.540024 
L 167.403992 241.460386 
L 169.632843 239.660836 
L 170.765537 234.852109 
L 171.861693 239.259673 
L 172.994388 236.082794 
L 174.127083 239.516526 
L 175.1867 244.867605 
L 176.319395 246.78391 
L 177.415551 236.295305 
L 178.548246 238.763233 
L 179.644402 233.382658 
L 180.777097 232.95117 
L 181.909791 231.607836 
L 183.005947 233.202216 
L 184.138642 228.361297 
L 186.367493 251.694183 
L 187.500187 250.596433 
L 188.523266 246.473128 
L 189.655961 239.032152 
L 190.752117 244.585381 
L 191.884812 241.375481 
L 192.980968 242.301321 
L 194.113663 239.437146 
L 195.246357 245.249664 
L 196.342513 240.176175 
L 197.475208 243.048211 
L 198.571364 231.034665 
L 199.704059 238.053758 
L 200.836753 235.627876 
L 201.859832 233.918468 
L 202.992527 234.652146 
L 204.088683 242.588688 
L 205.221378 238.119399 
L 206.317534 236.906676 
L 207.450229 236.458909 
L 208.582923 243.392927 
L 209.679079 239.273871 
L 210.811774 245.861159 
L 211.90793 243.372151 
L 213.040625 235.988724 
L 214.173319 236.469933 
L 215.196398 234.407901 
L 216.329093 246.398779 
L 217.425249 238.308888 
L 218.557944 239.228248 
L 219.6541 238.931569 
L 220.786795 239.395587 
L 221.919489 233.8257 
L 223.015645 239.705568 
L 224.14834 245.169931 
L 225.244496 242.201029 
L 226.377191 237.708261 
L 227.509885 245.004922 
L 228.569503 236.583626 
L 229.702198 229.882675 
L 230.798354 231.563051 
L 231.931048 236.735523 
L 233.027205 244.384403 
L 234.159899 245.882771 
L 235.292594 236.61938 
L 236.38875 238.057283 
L 237.521445 232.027638 
L 238.617601 240.575132 
L 239.750295 231.239929 
L 240.88299 252.104599 
L 241.906069 245.358199 
L 243.038764 245.592971 
L 244.13492 239.970147 
L 245.267615 242.619204 
L 246.363771 238.105239 
L 247.496465 235.657456 
L 248.62916 236.432561 
L 249.725316 239.512913 
L 250.858011 239.03674 
L 251.954167 238.265422 
L 253.086861 249.394302 
L 254.219556 225.698847 
L 255.242635 238.326625 
L 256.37533 243.249379 
L 257.471486 241.432332 
L 258.604181 234.013412 
L 259.700337 238.362867 
L 260.833031 236.80777 
L 261.965726 244.089217 
L 263.061882 238.763214 
L 264.194577 236.980836 
L 265.290733 237.041401 
L 266.423428 240.315852 
L 267.556122 223.291823 
L 268.579201 238.218926 
L 269.711896 237.31097 
L 270.808052 250.521264 
L 271.940747 244.976591 
L 273.036903 244.841633 
L 274.169597 241.828934 
L 275.302292 241.877864 
L 276.398448 236.655909 
L 277.531143 234.987446 
L 278.627299 234.991867 
L 279.759994 236.558585 
L 280.892688 255.868222 
L 281.952306 237.996378 
L 283.085 240.54135 
L 284.181157 226.662862 
L 285.313851 239.222657 
L 286.410007 235.412956 
L 287.542702 238.226386 
L 288.675397 236.252066 
L 289.771553 243.604383 
L 290.904247 248.291323 
L 292.000403 245.56614 
L 293.133098 242.120973 
L 294.265793 239.395011 
L 295.288872 232.269939 
L 296.421566 232.359344 
L 297.517723 241.728542 
L 298.650417 234.805466 
L 299.746573 235.067988 
L 300.879268 243.720484 
L 302.011963 239.165858 
L 303.108119 239.438704 
L 304.240813 241.357118 
L 305.33697 242.539089 
L 306.469664 238.414406 
L 308.625438 247.844133 
L 309.758133 232.21519 
L 310.854289 231.745191 
L 311.986983 240.337343 
L 313.083139 239.064112 
L 314.215834 237.196439 
L 315.348529 241.250779 
L 316.444685 248.000963 
L 317.577379 242.74082 
L 318.673536 242.216379 
L 319.80623 239.73509 
L 320.938925 223.028183 
L 321.962004 234.950274 
L 323.094699 249.543595 
L 324.190855 229.177721 
L 325.323549 230.736258 
L 326.419705 242.422216 
L 327.5524 244.105287 
L 328.685095 246.239164 
L 329.781251 240.907272 
L 330.913946 231.034896 
L 332.010102 230.869795 
L 333.142796 234.453945 
L 334.275491 230.558256 
L 335.335109 231.737858 
L 336.467803 244.204949 
L 337.563959 269.237595 
L 338.696654 264.594064 
L 339.79281 250.015469 
L 340.925505 240.817004 
L 342.058199 241.714806 
L 343.154355 230.50715 
L 344.28705 225.764827 
L 345.383206 240.343019 
L 346.515901 234.717911 
L 347.648596 241.921102 
L 348.671675 249.237627 
L 349.804369 237.005622 
L 350.900525 234.640801 
L 352.03322 233.679808 
L 353.129376 230.543232 
L 354.262071 235.040463 
L 355.394765 231.952321 
L 356.490922 231.580333 
L 357.623616 254.688062 
L 358.719772 238.90118 
L 360.985162 242.264469 
L 362.008241 242.153406 
L 363.140935 234.279597 
L 364.237091 232.835986 
L 365.369786 237.623331 
L 366.465942 236.419089 
L 367.598637 230.602992 
L 368.731331 236.855677 
L 369.827488 249.447278 
L 370.960182 243.783485 
L 372.056338 251.130731 
L 373.189033 249.676368 
L 374.321728 248.631699 
L 375.344807 249.438231 
L 376.477501 241.502012 
L 377.573657 247.795113 
L 378.706352 230.135284 
L 379.802508 237.169547 
L 380.935203 242.515849 
L 382.067898 236.794536 
L 383.164054 239.829381 
L 384.296748 236.027258 
L 385.392904 224.38319 
L 386.525599 224.185095 
L 387.658294 240.233945 
L 388.717911 245.740866 
L 389.850606 242.993098 
L 390.946762 227.97322 
L 392.079457 232.403684 
L 393.175613 243.270526 
L 394.308307 243.381306 
L 395.441002 244.502906 
L 396.537158 237.776461 
L 397.669853 236.678779 
L 398.766009 244.777432 
L 399.898704 246.50111 
L 401.031398 231.865895 
L 402.054477 222.789502 
L 403.187172 235.934862 
L 405.416023 249.767905 
L 405.416023 249.767905 
" clip-path="url(#pd9d8b02410)" style="fill: none; stroke: #47a730; stroke-width: 0.5; stroke-linecap: square"/>
   </g>
   <g id="patch_12">
    <path d="M 50.45875 271.56 
L 50.45875 220.467097 
" style="fill: none; stroke: #000000; stroke-width: 0.8; stroke-linejoin: miter; stroke-linecap: square"/>
   </g>
   <g id="patch_13">
    <path d="M 50.45875 271.56 
L 422.31875 271.56 
" style="fill: none; stroke: #000000; stroke-width: 0.8; stroke-linejoin: miter; stroke-linecap: square"/>
   </g>
  </g>
  <g id="legend_1">
   <g id="line2d_81">
    <path d="M 60.371875 13.67875 
L 68.371875 13.67875 
L 76.371875 13.67875 
" style="fill: none; stroke: #4596f3; stroke-width: 0.5; stroke-linecap: square"/>
   </g>
   <g id="text_23">
    <!-- Observado -->
    <g transform="translate(82.771875 16.47875) scale(0.08 -0.08)">
     <use xlink:href="#DejaVuSerif-4f"/>
     <use xlink:href="#DejaVuSerif-62" transform="translate(81.982422 0)"/>
     <use xlink:href="#DejaVuSerif-73" transform="translate(145.996094 0)"/>
     <use xlink:href="#DejaVuSerif-65" transform="translate(197.314453 0)"/>
     <use xlink:href="#DejaVuSerif-72" transform="translate(256.494141 0)"/>
     <use xlink:href="#DejaVuSerif-76" transform="translate(304.296875 0)"/>
     <use xlink:href="#DejaVuSerif-61" transform="translate(360.791016 0)"/>
     <use xlink:href="#DejaVuSerif-64" transform="translate(420.410156 0)"/>
     <use xlink:href="#DejaVuSerif-6f" transform="translate(484.423828 0)"/>
    </g>
   </g>
   <g id="line2d_82">
    <path d="M 142.343125 13.67875 
L 150.343125 13.67875 
L 158.343125 13.67875 
" style="fill: none; stroke: #ff5656; stroke-width: 0.5; stroke-linecap: square"/>
   </g>
   <g id="text_24">
    <!-- Tendência -->
    <g transform="translate(164.743125 16.47875) scale(0.08 -0.08)">
     <use xlink:href="#DejaVuSerif-54"/>
     <use xlink:href="#DejaVuSerif-65" transform="translate(58.949219 0)"/>
     <use xlink:href="#DejaVuSerif-6e" transform="translate(118.128906 0)"/>
     <use xlink:href="#DejaVuSerif-64" transform="translate(182.533203 0)"/>
     <use xlink:href="#DejaVuSerif-ea" transform="translate(246.546875 0)"/>
     <use xlink:href="#DejaVuSerif-6e" transform="translate(305.726562 0)"/>
     <use xlink:href="#DejaVuSerif-63" transform="translate(370.130859 0)"/>
     <use xlink:href="#DejaVuSerif-69" transform="translate(426.136719 0)"/>
     <use xlink:href="#DejaVuSerif-61" transform="translate(458.119141 0)"/>
    </g>
   </g>
   <g id="line2d_83">
    <path d="M 222.164375 13.67875 
L 230.164375 13.67875 
L 238.164375 13.67875 
" style="fill: none; stroke: #ffa722; stroke-width: 0.5; stroke-linecap: square"/>
   </g>
   <g id="text_25">
    <!-- Sazonalidade -->
    <g transform="translate(244.564375 16.47875) scale(0.08 -0.08)">
     <use xlink:href="#DejaVuSerif-53"/>
     <use xlink:href="#DejaVuSerif-61" transform="translate(68.505859 0)"/>
     <use xlink:href="#DejaVuSerif-7a" transform="translate(128.125 0)"/>
     <use xlink:href="#DejaVuSerif-6f" transform="translate(180.810547 0)"/>
     <use xlink:href="#DejaVuSerif-6e" transform="translate(241.015625 0)"/>
     <use xlink:href="#DejaVuSerif-61" transform="translate(305.419922 0)"/>
     <use xlink:href="#DejaVuSerif-6c" transform="translate(365.039062 0)"/>
     <use xlink:href="#DejaVuSerif-69" transform="translate(397.021484 0)"/>
     <use xlink:href="#DejaVuSerif-64" transform="translate(429.003906 0)"/>
     <use xlink:href="#DejaVuSerif-61" transform="translate(493.017578 0)"/>
     <use xlink:href="#DejaVuSerif-64" transform="translate(552.636719 0)"/>
     <use xlink:href="#DejaVuSerif-65" transform="translate(616.650391 0)"/>
    </g>
   </g>
   <g id="line2d_84">
    <path d="M 314.633125 13.67875 
L 322.633125 13.67875 
L 330.633125 13.67875 
" style="fill: none; stroke: #47a730; stroke-width: 0.5; stroke-linecap: square"/>
   </g>
   <g id="text_26">
    <!-- Resíduo -->
    <g transform="translate(337.033125 16.47875) scale(0.08 -0.08)">
     <use xlink:href="#DejaVuSerif-52"/>
     <use xlink:href="#DejaVuSerif-65" transform="translate(75.292969 0)"/>
     <use xlink:href="#DejaVuSerif-73" transform="translate(134.472656 0)"/>
     <use xlink:href="#DejaVuSerif-ed" transform="translate(185.791016 0)"/>
     <use xlink:href="#DejaVuSerif-64" transform="translate(217.773438 0)"/>
     <use xlink:href="#DejaVuSerif-75" transform="translate(281.787109 0)"/>
     <use xlink:href="#DejaVuSerif-6f" transform="translate(346.191406 0)"/>
    </g>
   </g>
  </g>
 </g>
 <defs>
  <clipPath id="pb3828518f9">
   <rect x="50.45875" y="26.24" width="371.86" height="51.092903"/>
  </clipPath>
  <clipPath id="p97a25b0a7b">
   <rect x="50.45875" y="90.982366" width="371.86" height="51.092903"/>
  </clipPath>
  <clipPath id="p6375ba2275">
   <rect x="50.45875" y="155.724731" width="371.86" height="51.092903"/>
  </clipPath>
  <clipPath id="pd9d8b02410">
   <rect x="50.45875" y="220.467097" width="371.86" height="51.092903"/>
  </clipPath>
 </defs>
</svg>
