<?xml version="1.0" encoding="UTF-8"?>
<svg id="Layer_1" xmlns="http://www.w3.org/2000/svg" version="1.1" viewBox="0 0 303.1 377.37">
  <!-- Generator: Adobe Illustrator 29.6.0, SVG Export Plug-In . SVG Version: 2.1.1 Build 207)  -->
  <defs>
    <style>
      .st0 {
        fill: #231f20;
      }

      .st1 {
        fill: #fff;
        stroke-width: 1.5px;
      }

      .st1, .st2 {
        stroke: #231f20;
        stroke-miterlimit: 10;
      }

      .st2 {
        fill: none;
      }
    </style>
  </defs>
  <g>
    <rect class="st1" x="81.72" y="11.21" width="139.42" height="42.78" rx="8" ry="8"/>
    <g>
      <path class="st0" d="M100.17,28.67c-1.21,0-2.17-.37-2.86-1.11s-1.04-1.75-1.04-3.05.35-2.31,1.04-3.05c.69-.74,1.64-1.11,2.85-1.11s2.17.37,2.85,1.11c.69.74,1.03,1.76,1.03,3.06s-.35,2.31-1.04,3.05-1.64,1.11-2.85,1.11ZM100.17,28.02c.62,0,1.07-.29,1.37-.86.3-.58.45-1.46.45-2.64s-.15-2.07-.45-2.65c-.3-.58-.76-.86-1.37-.86s-1.07.29-1.37.87c-.3.58-.45,1.46-.45,2.64s.15,2.05.45,2.63c.3.58.76.87,1.37.87Z"/>
      <path class="st0" d="M105.45,27.86v-7.06h-.74v-.64h2.45v3.37c.14-.3.34-.52.58-.66.25-.15.55-.22.91-.22.73,0,1.31.27,1.73.8.42.54.63,1.27.63,2.21s-.21,1.67-.63,2.21c-.42.54-1,.81-1.73.81-.36,0-.67-.07-.91-.22-.25-.15-.44-.37-.58-.66v.73h-2.45v-.65h.74ZM107.16,25.94c0,.67.08,1.15.23,1.44.15.3.4.45.74.45s.6-.16.74-.47.21-.88.21-1.7-.07-1.39-.21-1.7c-.14-.31-.39-.47-.74-.47s-.59.15-.74.45c-.15.3-.23.78-.23,1.44v.56Z"/>
      <path class="st0" d="M112.39,23.45h-.75v-.65h.75v-1.77h1.71v1.77h1.43v.65h-1.43v3.5c0,.5.04.81.11.93s.2.18.39.18c.21,0,.36-.08.46-.23.1-.15.15-.39.16-.71h.72c-.03.57-.17.97-.42,1.21-.25.23-.69.35-1.31.35-.71,0-1.18-.12-1.43-.37-.25-.25-.38-.7-.38-1.35v-3.5Z"/>
      <path class="st0" d="M121.82,25.93h-3.53v.04c0,.74.1,1.27.3,1.6.2.33.52.49.97.49.37,0,.67-.11.9-.33s.38-.54.44-.95h.81c-.14.65-.42,1.12-.83,1.43-.41.3-.99.46-1.73.46-.89,0-1.57-.26-2.05-.78-.47-.52-.71-1.26-.71-2.23s.24-1.68.73-2.21c.49-.53,1.16-.79,2.03-.79s1.5.28,1.96.83c.45.56.7,1.37.73,2.45ZM119.94,25.29c0-.75-.06-1.28-.19-1.58-.13-.3-.34-.45-.64-.45s-.5.15-.63.45c-.13.3-.19.79-.19,1.49v.1h1.65Z"/>
      <path class="st0" d="M122.61,28.51v-.65h.73v-4.41h-.73v-.65h2.44v.81c.2-.34.44-.59.7-.74s.6-.23,1-.23c.58,0,1.01.19,1.31.57.29.38.44.93.44,1.67v2.98h.74v.65h-3.07v-.65h.62v-3.03c0-.48-.06-.82-.17-1.01-.11-.19-.3-.28-.57-.28-.34,0-.6.14-.76.42-.16.28-.24.73-.24,1.34v2.56h.62v.65h-3.07Z"/>
      <path class="st0" d="M135.05,26.73c-.13.65-.38,1.14-.75,1.46-.38.32-.89.48-1.54.48-.92,0-1.63-.26-2.13-.79s-.75-1.27-.75-2.22.25-1.68.74-2.21c.5-.53,1.18-.79,2.06-.79.36,0,.72.04,1.08.11s.74.19,1.11.34v1.58h-.54c-.05-.48-.18-.84-.38-1.08-.2-.23-.49-.35-.85-.35-.48,0-.82.18-1.02.54-.2.36-.3.98-.3,1.86s.1,1.48.3,1.85c.2.37.52.56.96.56.34,0,.62-.11.83-.34.21-.23.34-.56.38-.99h.81ZM133.01,28.51c.2.23.34.44.44.64.1.19.15.39.15.57,0,.31-.1.54-.31.7-.21.16-.51.24-.9.24-.15,0-.31-.01-.48-.03-.16-.02-.33-.06-.5-.1v-.84c.14.06.28.11.42.14.14.03.26.05.38.05.19,0,.34-.04.44-.13.1-.08.15-.21.15-.37,0-.1-.03-.21-.08-.33s-.16-.3-.33-.54h.62Z"/>
      <path class="st0" d="M140.95,25.01v2.86h.74v.65h-2.44v-.73c-.23.3-.48.52-.75.67-.28.14-.59.21-.95.21-.53,0-.93-.16-1.21-.47-.28-.31-.42-.76-.42-1.35,0-.64.2-1.12.61-1.44s1.01-.48,1.83-.48h.9v-.34c0-.46-.1-.8-.3-1.02-.2-.22-.5-.33-.91-.33-.34,0-.61.08-.79.23-.18.16-.32.41-.4.77h-.55v-1.23c.31-.12.63-.21.95-.27.33-.06.67-.09,1.04-.09.92,0,1.59.19,2.02.57s.64.98.64,1.79ZM136.67,21.48v-.09c0-.52.08-.92.25-1.19.17-.27.42-.41.75-.41.12,0,.23.02.35.07.11.04.25.12.39.23l.34.25h.02c.14.11.27.17.39.17.13,0,.24-.06.32-.19s.12-.3.12-.52h.53v.09c0,.52-.08.92-.25,1.19-.17.27-.42.41-.75.41-.12,0-.24-.02-.35-.07-.11-.04-.24-.12-.39-.23l-.35-.25h0c-.15-.11-.28-.17-.39-.17-.13,0-.24.06-.32.19s-.12.3-.12.52h-.53ZM139.24,26.72v-1.14h-.64c-.32,0-.56.1-.74.29s-.26.47-.26.83.06.63.19.81.31.27.57.27.48-.1.64-.29.24-.45.24-.77Z"/>
      <path class="st0" d="M145.22,28.67c-.91,0-1.62-.27-2.13-.8-.51-.54-.77-1.27-.77-2.21s.26-1.68.77-2.21c.51-.53,1.22-.8,2.13-.8s1.62.27,2.13.8c.51.53.77,1.27.77,2.21s-.26,1.67-.77,2.21c-.52.54-1.22.8-2.13.8ZM145.22,28.06c.36,0,.61-.17.76-.52s.22-.97.22-1.89-.07-1.55-.22-1.89c-.14-.34-.4-.51-.76-.51s-.62.17-.77.52c-.15.35-.22.97-.22,1.88s.07,1.54.22,1.89c.15.35.41.52.77.52Z"/>
      <path class="st0" d="M157.91,27.86h.73v.65h-2.44v-.73c-.14.3-.34.52-.59.66-.25.14-.55.22-.91.22-.73,0-1.3-.27-1.72-.81-.42-.54-.63-1.27-.63-2.21s.21-1.67.63-2.21c.42-.53.99-.8,1.72-.8.36,0,.67.07.91.22.25.14.44.37.59.66v-2.73h-.74v-.64h2.45v7.71ZM156.2,25.94v-.56c0-.67-.08-1.15-.23-1.44s-.4-.45-.74-.45-.6.16-.75.47c-.14.31-.21.88-.21,1.7s.07,1.39.22,1.7c.15.31.39.47.74.47s.59-.15.74-.45.23-.78.23-1.44Z"/>
      <path class="st0" d="M164.32,25.01v2.86h.74v.65h-2.44v-.73c-.23.3-.48.52-.75.67-.28.14-.59.21-.95.21-.53,0-.93-.16-1.21-.47-.28-.31-.42-.76-.42-1.35,0-.64.2-1.12.61-1.44s1.01-.48,1.83-.48h.9v-.34c0-.46-.1-.8-.3-1.02-.2-.22-.5-.33-.91-.33-.34,0-.61.08-.79.23-.18.16-.32.41-.4.77h-.55v-1.23c.31-.12.63-.21.95-.27.33-.06.67-.09,1.04-.09.92,0,1.59.19,2.02.57s.64.98.64,1.79ZM162.61,26.72v-1.14h-.64c-.32,0-.56.1-.74.29s-.26.47-.26.83.06.63.19.81.31.27.57.27.48-.1.64-.29.24-.45.24-.77Z"/>
      <path class="st0" d="M165.74,28.35v-1.6h.55c.05.43.19.75.43.97.24.22.57.34.99.34.35,0,.61-.07.8-.2.18-.13.28-.33.28-.58,0-.23-.06-.41-.17-.53-.12-.13-.34-.23-.68-.33l-.7-.2c-.53-.15-.92-.36-1.16-.63-.24-.27-.36-.64-.36-1.11,0-.62.19-1.08.58-1.38.39-.3.98-.45,1.79-.45.3,0,.63.03.97.08.34.06.72.14,1.14.26v1.44h-.55c-.03-.39-.15-.68-.37-.88-.22-.2-.54-.3-.95-.3-.35,0-.61.06-.79.19-.18.12-.27.3-.27.54,0,.19.05.35.16.46s.29.2.56.28l.7.2c.67.19,1.14.42,1.4.7s.39.67.39,1.17c0,.64-.21,1.12-.62,1.43-.41.31-1.06.46-1.93.46-.32,0-.66-.03-1.02-.08s-.74-.13-1.14-.24Z"/>
      <path class="st0" d="M174.76,28.35v-1.6h.55c.05.43.19.75.43.97.24.22.57.34.99.34.35,0,.61-.07.8-.2.18-.13.28-.33.28-.58,0-.23-.06-.41-.17-.53-.12-.13-.34-.23-.68-.33l-.7-.2c-.53-.15-.92-.36-1.16-.63-.24-.27-.36-.64-.36-1.11,0-.62.19-1.08.58-1.38.39-.3.98-.45,1.79-.45.3,0,.63.03.97.08.34.06.72.14,1.14.26v1.44h-.55c-.03-.39-.15-.68-.37-.88-.22-.2-.54-.3-.95-.3-.35,0-.61.06-.79.19-.18.12-.27.3-.27.54,0,.19.05.35.16.46s.29.2.56.28l.7.2c.67.19,1.14.42,1.4.7s.39.67.39,1.17c0,.64-.21,1.12-.62,1.43-.41.31-1.06.46-1.93.46-.32,0-.66-.03-1.02-.08s-.74-.13-1.14-.24Z"/>
      <path class="st0" d="M185.71,25.93h-3.53v.04c0,.74.1,1.27.3,1.6.2.33.52.49.97.49.37,0,.67-.11.9-.33s.38-.54.44-.95h.81c-.14.65-.42,1.12-.83,1.43-.41.3-.99.46-1.73.46-.89,0-1.57-.26-2.05-.78-.47-.52-.71-1.26-.71-2.23s.24-1.68.73-2.21c.49-.53,1.16-.79,2.03-.79s1.5.28,1.96.83c.45.56.7,1.37.73,2.45ZM183.83,25.29c0-.75-.06-1.28-.19-1.58-.13-.3-.34-.45-.64-.45s-.5.15-.63.45c-.13.3-.19.79-.19,1.49v.1h1.65ZM183.46,19.72h1.35l-1.8,2.02h-.79l1.25-2.02Z"/>
      <path class="st0" d="M191.48,22.74v1.7h-.55c-.02-.3-.09-.53-.22-.68-.13-.15-.32-.22-.56-.22-.37,0-.67.18-.88.55s-.32.87-.32,1.52v2.26h.93v.65h-3.37v-.65h.73v-4.41h-.78v-.65h2.5v1.02c.16-.4.38-.69.66-.88.28-.19.61-.29,1.02-.29.1,0,.22,0,.37.02.14.02.31.04.49.07Z"/>
      <path class="st0" d="M194.16,27.86h.73v.65h-3.17v-.65h.73v-4.41h-.73v-.65h2.44v5.06ZM192.28,21.19c0-.29.09-.53.27-.73.18-.2.4-.3.66-.3s.47.1.65.3c.18.2.27.44.27.73s-.09.52-.27.72c-.18.2-.4.3-.65.3s-.48-.1-.66-.3c-.18-.2-.27-.44-.27-.73Z"/>
      <path class="st0" d="M200.98,25.93h-3.53v.04c0,.74.1,1.27.3,1.6.2.33.52.49.97.49.37,0,.67-.11.9-.33s.38-.54.44-.95h.81c-.14.65-.42,1.12-.83,1.43-.41.3-.99.46-1.73.46-.89,0-1.57-.26-2.05-.78-.47-.52-.71-1.26-.71-2.23s.24-1.68.73-2.21c.49-.53,1.16-.79,2.03-.79s1.5.28,1.96.83c.45.56.7,1.37.73,2.45ZM199.1,25.29c0-.75-.06-1.28-.19-1.58-.13-.3-.34-.45-.64-.45s-.5.15-.63.45c-.13.3-.19.79-.19,1.49v.1h1.65Z"/>
      <path class="st0" d="M201.89,28.35v-1.6h.55c.05.43.19.75.43.97.24.22.57.34.99.34.35,0,.61-.07.8-.2.18-.13.28-.33.28-.58,0-.23-.06-.41-.17-.53-.12-.13-.34-.23-.68-.33l-.7-.2c-.53-.15-.92-.36-1.16-.63-.24-.27-.36-.64-.36-1.11,0-.62.19-1.08.58-1.38.39-.3.98-.45,1.79-.45.3,0,.63.03.97.08.34.06.72.14,1.14.26v1.44h-.55c-.03-.39-.15-.68-.37-.88-.22-.2-.54-.3-.95-.3-.35,0-.61.06-.79.19-.18.12-.27.3-.27.54,0,.19.05.35.16.46s.29.2.56.28l.7.2c.67.19,1.14.42,1.4.7s.39.67.39,1.17c0,.64-.21,1.12-.62,1.43-.41.31-1.06.46-1.93.46-.32,0-.66-.03-1.02-.08s-.74-.13-1.14-.24Z"/>
      <path class="st0" d="M124.43,41.71v-.65h.73v-7.06h-.76v-.64h2.48v3.45c.2-.34.44-.59.7-.74s.6-.23,1-.23c.58,0,1.01.19,1.31.57.29.38.44.93.44,1.67v2.98h.74v.65h-3.07v-.65h.62v-3.03c0-.48-.06-.82-.17-1.01-.11-.19-.3-.28-.57-.28-.34,0-.6.14-.76.42-.16.28-.24.73-.24,1.34v2.56h.62v.65h-3.07Z"/>
      <path class="st0" d="M134.07,41.06h.73v.65h-3.17v-.65h.73v-4.41h-.73v-.65h2.44v5.06ZM132.2,34.39c0-.29.09-.53.27-.73.18-.2.4-.3.66-.3s.47.1.65.3c.18.2.27.44.27.73s-.09.52-.27.72c-.18.2-.4.3-.65.3s-.48-.1-.66-.3c-.18-.2-.27-.44-.27-.73Z"/>
      <path class="st0" d="M135.51,41.55v-1.6h.55c.05.43.19.75.43.97.24.22.57.34.99.34.35,0,.61-.07.8-.2.18-.13.28-.33.28-.58,0-.23-.06-.41-.17-.53-.12-.13-.34-.23-.68-.33l-.7-.2c-.53-.15-.92-.36-1.16-.63-.24-.27-.36-.64-.36-1.11,0-.62.19-1.08.58-1.38.39-.3.98-.45,1.79-.45.3,0,.63.03.97.08.34.06.72.14,1.14.26v1.44h-.55c-.03-.39-.15-.68-.37-.88-.22-.2-.54-.3-.95-.3-.35,0-.61.06-.79.19-.18.12-.27.3-.27.54,0,.19.05.35.16.46s.29.2.56.28l.7.2c.67.19,1.14.42,1.4.7s.39.67.39,1.17c0,.64-.21,1.12-.62,1.43-.41.31-1.06.46-1.93.46-.32,0-.66-.03-1.02-.08s-.74-.13-1.14-.24Z"/>
      <path class="st0" d="M141.6,36.65h-.75v-.65h.75v-1.77h1.71v1.77h1.43v.65h-1.43v3.5c0,.5.04.81.11.93s.2.18.39.18c.21,0,.36-.08.46-.23.1-.15.15-.39.16-.71h.72c-.03.57-.17.97-.42,1.21-.25.23-.69.35-1.31.35-.71,0-1.18-.12-1.43-.37-.25-.25-.38-.7-.38-1.35v-3.5Z"/>
      <path class="st0" d="M148.5,41.87c-.91,0-1.62-.27-2.13-.8-.51-.54-.77-1.27-.77-2.21s.26-1.68.77-2.21c.51-.53,1.22-.8,2.13-.8s1.62.27,2.13.8c.51.53.77,1.27.77,2.21s-.26,1.67-.77,2.21c-.52.54-1.22.8-2.13.8ZM148.5,41.26c.36,0,.61-.17.76-.52s.22-.97.22-1.89-.07-1.55-.22-1.89c-.14-.34-.4-.51-.76-.51s-.62.17-.77.52c-.15.35-.22.97-.22,1.88s.07,1.54.22,1.89c.15.35.41.52.77.52ZM148.94,32.92h1.35l-1.8,2.02h-.79l1.25-2.02Z"/>
      <path class="st0" d="M157.11,35.94v1.7h-.55c-.02-.3-.09-.53-.22-.68-.13-.15-.32-.22-.56-.22-.37,0-.67.18-.88.55s-.32.87-.32,1.52v2.26h.93v.65h-3.37v-.65h.73v-4.41h-.78v-.65h2.5v1.02c.16-.4.38-.69.66-.88.28-.19.61-.29,1.02-.29.1,0,.22,0,.37.02.14.02.31.04.49.07Z"/>
      <path class="st0" d="M159.79,41.06h.73v.65h-3.17v-.65h.73v-4.41h-.73v-.65h2.44v5.06ZM157.91,34.39c0-.29.09-.53.27-.73.18-.2.4-.3.66-.3s.47.1.65.3c.18.2.27.44.27.73s-.09.52-.27.72c-.18.2-.4.3-.65.3s-.48-.1-.66-.3c-.18-.2-.27-.44-.27-.73Z"/>
      <path class="st0" d="M166.35,39.93c-.13.65-.38,1.14-.75,1.46-.38.32-.89.48-1.54.48-.92,0-1.63-.26-2.13-.79s-.75-1.27-.75-2.22.25-1.68.74-2.21c.5-.53,1.18-.79,2.06-.79.36,0,.72.04,1.08.11s.74.19,1.11.34v1.58h-.54c-.05-.48-.18-.84-.38-1.08-.2-.23-.49-.35-.85-.35-.48,0-.82.18-1.02.54-.2.36-.3.98-.3,1.86s.1,1.48.3,1.85c.2.37.52.56.96.56.34,0,.62-.11.83-.34.21-.23.34-.56.38-.99h.81Z"/>
      <path class="st0" d="M172.24,38.21v2.86h.74v.65h-2.44v-.73c-.23.3-.48.52-.75.67-.28.14-.59.21-.95.21-.53,0-.93-.16-1.21-.47-.28-.31-.42-.76-.42-1.35,0-.64.2-1.12.61-1.44s1.01-.48,1.83-.48h.9v-.34c0-.46-.1-.8-.3-1.02-.2-.22-.5-.33-.91-.33-.34,0-.61.08-.79.23-.18.16-.32.41-.4.77h-.55v-1.23c.31-.12.63-.21.95-.27.33-.06.67-.09,1.04-.09.92,0,1.59.19,2.02.57s.64.98.64,1.79ZM170.53,39.92v-1.14h-.64c-.32,0-.56.1-.74.29s-.26.47-.26.83.06.63.19.81.31.27.57.27.48-.1.64-.29.24-.45.24-.77Z"/>
      <path class="st0" d="M173.67,41.55v-1.6h.55c.05.43.19.75.43.97.24.22.57.34.99.34.35,0,.61-.07.8-.2.18-.13.28-.33.28-.58,0-.23-.06-.41-.17-.53-.12-.13-.34-.23-.68-.33l-.7-.2c-.53-.15-.92-.36-1.16-.63-.24-.27-.36-.64-.36-1.11,0-.62.19-1.08.58-1.38.39-.3.98-.45,1.79-.45.3,0,.63.03.97.08.34.06.72.14,1.14.26v1.44h-.55c-.03-.39-.15-.68-.37-.88-.22-.2-.54-.3-.95-.3-.35,0-.61.06-.79.19-.18.12-.27.3-.27.54,0,.19.05.35.16.46s.29.2.56.28l.7.2c.67.19,1.14.42,1.4.7s.39.67.39,1.17c0,.64-.21,1.12-.62,1.43-.41.31-1.06.46-1.93.46-.32,0-.66-.03-1.02-.08s-.74-.13-1.14-.24Z"/>
    </g>
  </g>
  <g>
    <rect class="st1" x="81.72" y="90.59" width="139.42" height="42.78" rx="8" ry="8"/>
    <g>
      <path class="st0" d="M116.2,107.89v-.65h.96v-6.63h-1.98v1.27h-.66v-2h7.15v2h-.66v-1.27h-1.99v6.63h.97v.65h-3.79Z"/>
      <path class="st0" d="M126.29,102.12v1.7h-.55c-.02-.3-.09-.53-.22-.68-.13-.15-.32-.22-.56-.22-.37,0-.67.18-.88.55s-.32.87-.32,1.52v2.26h.93v.65h-3.37v-.65h.73v-4.41h-.78v-.65h2.5v1.02c.16-.4.38-.69.66-.88.28-.19.61-.29,1.02-.29.1,0,.22,0,.37.02.14.02.31.04.49.07Z"/>
      <path class="st0" d="M131.64,104.38v2.86h.74v.65h-2.44v-.73c-.23.3-.48.52-.75.67-.28.14-.59.21-.95.21-.53,0-.93-.16-1.21-.47-.28-.31-.42-.76-.42-1.35,0-.64.2-1.12.61-1.44s1.01-.48,1.83-.48h.9v-.34c0-.46-.1-.8-.3-1.02-.2-.22-.5-.33-.91-.33-.34,0-.61.08-.79.23-.18.16-.32.41-.4.77h-.55v-1.23c.31-.12.63-.21.95-.27.33-.06.67-.09,1.04-.09.92,0,1.59.19,2.02.57s.64.98.64,1.79ZM129.93,106.1v-1.14h-.64c-.32,0-.56.1-.74.29s-.26.47-.26.83.06.63.19.81.31.27.57.27.48-.1.64-.29.24-.45.24-.77Z"/>
      <path class="st0" d="M133.58,102.83h-.75v-.65h.75v-1.77h1.71v1.77h1.43v.65h-1.43v3.5c0,.5.04.81.11.93s.2.18.39.18c.21,0,.36-.08.46-.23.1-.15.15-.39.16-.71h.72c-.03.57-.17.97-.42,1.21-.25.23-.69.35-1.31.35-.71,0-1.18-.12-1.43-.37-.25-.25-.38-.7-.38-1.35v-3.5Z"/>
      <path class="st0" d="M142.62,104.38v2.86h.74v.65h-2.44v-.73c-.23.3-.48.52-.75.67-.28.14-.59.21-.95.21-.53,0-.93-.16-1.21-.47-.28-.31-.42-.76-.42-1.35,0-.64.2-1.12.61-1.44s1.01-.48,1.83-.48h.9v-.34c0-.46-.1-.8-.3-1.02-.2-.22-.5-.33-.91-.33-.34,0-.61.08-.79.23-.18.16-.32.41-.4.77h-.55v-1.23c.31-.12.63-.21.95-.27.33-.06.67-.09,1.04-.09.92,0,1.59.19,2.02.57s.64.98.64,1.79ZM140.91,106.1v-1.14h-.64c-.32,0-.56.1-.74.29s-.26.47-.26.83.06.63.19.81.31.27.57.27.48-.1.64-.29.24-.45.24-.77Z"/>
      <path class="st0" d="M149.59,103.12c.24-.38.49-.66.77-.83.28-.17.6-.26.97-.26.59,0,1.03.19,1.32.56.29.37.44.93.44,1.68v2.98h.74v.65h-3.06v-.65h.62v-2.7c0-.71-.05-1.16-.15-1.35-.1-.19-.28-.28-.55-.28-.3,0-.54.13-.71.39-.17.26-.25.63-.25,1.11v2.83h.61v.65h-2.94v-.65h.61v-2.7c0-.71-.05-1.16-.15-1.35s-.28-.28-.54-.28c-.31,0-.55.13-.71.39-.17.26-.25.63-.25,1.11v2.83h.61v.65h-3.06v-.65h.73v-4.41h-.73v-.65h2.44v.81c.2-.33.42-.58.68-.73s.56-.23.92-.23c.42,0,.76.09,1.02.27.26.18.46.45.61.82Z"/>
      <path class="st0" d="M159.91,105.31h-3.53v.04c0,.74.1,1.27.3,1.6.2.33.52.49.97.49.37,0,.67-.11.9-.33s.38-.54.44-.95h.81c-.14.65-.42,1.12-.83,1.43-.41.3-.99.46-1.73.46-.89,0-1.57-.26-2.05-.78-.47-.52-.71-1.26-.71-2.23s.24-1.68.73-2.21c.49-.53,1.16-.79,2.03-.79s1.5.28,1.96.83c.45.56.7,1.37.73,2.45ZM158.03,104.67c0-.75-.06-1.28-.19-1.58-.13-.3-.34-.45-.64-.45s-.5.15-.63.45c-.13.3-.19.79-.19,1.49v.1h1.65Z"/>
      <path class="st0" d="M160.69,107.89v-.65h.73v-4.41h-.73v-.65h2.44v.81c.2-.34.44-.59.7-.74s.6-.23,1-.23c.58,0,1.01.19,1.31.57.29.38.44.93.44,1.67v2.98h.74v.65h-3.07v-.65h.62v-3.03c0-.48-.06-.82-.17-1.01-.11-.19-.3-.28-.57-.28-.34,0-.6.14-.76.42-.16.28-.24.73-.24,1.34v2.56h.62v.65h-3.07Z"/>
      <path class="st0" d="M168.53,102.83h-.75v-.65h.75v-1.77h1.71v1.77h1.43v.65h-1.43v3.5c0,.5.04.81.11.93s.2.18.39.18c.21,0,.36-.08.46-.23.1-.15.15-.39.16-.71h.72c-.03.57-.17.97-.42,1.21-.25.23-.69.35-1.31.35-.71,0-1.18-.12-1.43-.37-.25-.25-.38-.7-.38-1.35v-3.5Z"/>
      <path class="st0" d="M175.43,108.05c-.91,0-1.62-.27-2.13-.8-.51-.54-.77-1.27-.77-2.21s.26-1.68.77-2.21c.51-.53,1.22-.8,2.13-.8s1.62.27,2.13.8c.51.53.77,1.27.77,2.21s-.26,1.67-.77,2.21c-.52.54-1.22.8-2.13.8ZM175.43,107.44c.36,0,.61-.17.76-.52s.22-.97.22-1.89-.07-1.55-.22-1.89c-.14-.34-.4-.51-.76-.51s-.62.17-.77.52c-.15.35-.22.97-.22,1.88s.07,1.54.22,1.89c.15.35.41.52.77.52Z"/>
      <path class="st0" d="M188.01,105.31h-3.53v.04c0,.74.1,1.27.3,1.6.2.33.52.49.97.49.37,0,.67-.11.9-.33s.38-.54.44-.95h.81c-.14.65-.42,1.12-.83,1.43-.41.3-.99.46-1.73.46-.89,0-1.57-.26-2.05-.78-.47-.52-.71-1.26-.71-2.23s.24-1.68.73-2.21c.49-.53,1.16-.79,2.03-.79s1.5.28,1.96.83c.45.56.7,1.37.73,2.45ZM186.13,104.67c0-.75-.06-1.28-.19-1.58-.13-.3-.34-.45-.64-.45s-.5.15-.63.45c-.13.3-.19.79-.19,1.49v.1h1.65Z"/>
      <path class="st0" d="M101.63,117.58v2.86h.74v.65h-2.44v-.73c-.23.3-.48.52-.75.67-.28.14-.59.21-.95.21-.53,0-.93-.16-1.21-.47-.28-.31-.42-.76-.42-1.35,0-.64.2-1.12.61-1.44s1.01-.48,1.83-.48h.9v-.34c0-.46-.1-.8-.3-1.02-.2-.22-.5-.33-.91-.33-.34,0-.61.08-.79.23-.18.16-.32.41-.4.77h-.55v-1.23c.31-.12.63-.21.95-.27.33-.06.67-.09,1.04-.09.92,0,1.59.19,2.02.57s.64.98.64,1.79ZM99.92,119.3v-1.14h-.64c-.32,0-.56.1-.74.29s-.26.47-.26.83.06.63.19.81.31.27.57.27.48-.1.64-.29.24-.45.24-.77Z"/>
      <path class="st0" d="M102.93,121.09v-.65h.73v-4.41h-.73v-.65h2.44v.81c.2-.34.44-.59.7-.74s.6-.23,1-.23c.58,0,1.01.19,1.31.57.29.38.44.93.44,1.67v2.98h.74v.65h-3.07v-.65h.62v-3.03c0-.48-.06-.82-.17-1.01-.11-.19-.3-.28-.57-.28-.34,0-.6.14-.76.42-.16.28-.24.73-.24,1.34v2.56h.62v.65h-3.07Z"/>
      <path class="st0" d="M115.24,117.58v2.86h.74v.65h-2.44v-.73c-.23.3-.48.52-.75.67-.28.14-.59.21-.95.21-.53,0-.93-.16-1.21-.47-.28-.31-.42-.76-.42-1.35,0-.64.2-1.12.61-1.44s1.01-.48,1.83-.48h.9v-.34c0-.46-.1-.8-.3-1.02-.2-.22-.5-.33-.91-.33-.34,0-.61.08-.79.23-.18.16-.32.41-.4.77h-.55v-1.23c.31-.12.63-.21.95-.27.33-.06.67-.09,1.04-.09.92,0,1.59.19,2.02.57s.64.98.64,1.79ZM113.13,112.29h1.35l-1.8,2.02h-.79l1.25-2.02ZM113.53,119.3v-1.14h-.64c-.32,0-.56.1-.74.29s-.26.47-.26.83.06.63.19.81.31.27.57.27.48-.1.64-.29.24-.45.24-.77Z"/>
      <path class="st0" d="M118.98,120.44h.73v.65h-3.17v-.65h.73v-7.06h-.73v-.64h2.44v7.71Z"/>
      <path class="st0" d="M122.74,120.44h.73v.65h-3.17v-.65h.73v-4.41h-.73v-.65h2.44v5.06ZM120.87,113.76c0-.29.09-.53.27-.73.18-.2.4-.3.66-.3s.47.1.65.3c.18.2.27.44.27.73s-.09.52-.27.72c-.18.2-.4.3-.65.3s-.48-.1-.66-.3c-.18-.2-.27-.44-.27-.73Z"/>
      <path class="st0" d="M124.18,120.92v-1.6h.55c.05.43.19.75.43.97.24.22.57.34.99.34.35,0,.61-.07.8-.2.18-.13.28-.33.28-.58,0-.23-.06-.41-.17-.53-.12-.13-.34-.23-.68-.33l-.7-.2c-.53-.15-.92-.36-1.16-.63-.24-.27-.36-.64-.36-1.11,0-.62.19-1.08.58-1.38.39-.3.98-.45,1.79-.45.3,0,.63.03.97.08.34.06.72.14,1.14.26v1.44h-.55c-.03-.39-.15-.68-.37-.88-.22-.2-.54-.3-.95-.3-.35,0-.61.06-.79.19-.18.12-.27.3-.27.54,0,.19.05.35.16.46s.29.2.56.28l.7.2c.67.19,1.14.42,1.4.7s.39.67.39,1.17c0,.64-.21,1.12-.62,1.43-.41.31-1.06.46-1.93.46-.32,0-.66-.03-1.02-.08s-.74-.13-1.14-.24Z"/>
      <path class="st0" d="M135.14,118.51h-3.53v.04c0,.74.1,1.27.3,1.6.2.33.52.49.97.49.37,0,.67-.11.9-.33s.38-.54.44-.95h.81c-.14.65-.42,1.12-.83,1.43-.41.3-.99.46-1.73.46-.89,0-1.57-.26-2.05-.78-.47-.52-.71-1.26-.71-2.23s.24-1.68.73-2.21c.49-.53,1.16-.79,2.03-.79s1.5.28,1.96.83c.45.56.7,1.37.73,2.45ZM133.26,117.87c0-.75-.06-1.28-.19-1.58-.13-.3-.34-.45-.64-.45s-.5.15-.63.45c-.13.3-.19.79-.19,1.49v.1h1.65Z"/>
      <path class="st0" d="M144.88,118.51h-3.53v.04c0,.74.1,1.27.3,1.6.2.33.52.49.97.49.37,0,.67-.11.9-.33s.38-.54.44-.95h.81c-.14.65-.42,1.12-.83,1.43-.41.3-.99.46-1.73.46-.89,0-1.57-.26-2.05-.78-.47-.52-.71-1.26-.71-2.23s.24-1.68.73-2.21c.49-.53,1.16-.79,2.03-.79s1.5.28,1.96.83c.45.56.7,1.37.73,2.45ZM143,117.87c0-.75-.06-1.28-.19-1.58-.13-.3-.34-.45-.64-.45s-.5.15-.63.45c-.13.3-.19.79-.19,1.49v.1h1.65Z"/>
      <path class="st0" d="M148.8,117.45l.91-1.42h-.63v-.65h2v.65h-.68l-1.31,2.04,1.53,2.37h.68v.65h-3.27v-.65h.66l-.97-1.5-.97,1.5h.69v.65h-2.12v-.65h.74l1.36-2.13-1.48-2.28h-.57v-.65h3.14v.65h-.62l.91,1.42Z"/>
      <path class="st0" d="M152.18,116.03h-.74v-.65h2.45v.73c.14-.3.34-.52.58-.66.25-.15.55-.22.91-.22.73,0,1.31.27,1.73.8.42.54.63,1.27.63,2.21s-.21,1.67-.63,2.21c-.42.54-1,.81-1.73.81-.36,0-.67-.07-.91-.22-.25-.15-.44-.37-.58-.66v2.36h.79v.65h-3.24v-.65h.74v-6.7ZM153.9,117.95v.56c0,.67.08,1.15.23,1.44.15.3.4.45.74.45s.6-.16.74-.47.21-.88.21-1.7-.07-1.39-.21-1.7c-.14-.31-.39-.47-.74-.47s-.59.15-.74.45c-.15.3-.23.78-.23,1.44Z"/>
      <path class="st0" d="M160.92,120.44h.73v.65h-3.17v-.65h.73v-7.06h-.73v-.64h2.44v7.71Z"/>
      <path class="st0" d="M165.21,121.25c-.91,0-1.62-.27-2.13-.8-.51-.54-.77-1.27-.77-2.21s.26-1.68.77-2.21c.51-.53,1.22-.8,2.13-.8s1.62.27,2.13.8c.51.53.77,1.27.77,2.21s-.26,1.67-.77,2.21c-.52.54-1.22.8-2.13.8ZM165.21,120.64c.36,0,.61-.17.76-.52s.22-.97.22-1.89-.07-1.55-.22-1.89c-.14-.34-.4-.51-.76-.51s-.62.17-.77.52c-.15.35-.22.97-.22,1.88s.07,1.54.22,1.89c.15.35.41.52.77.52Z"/>
      <path class="st0" d="M173.82,115.32v1.7h-.55c-.02-.3-.09-.53-.22-.68-.13-.15-.32-.22-.56-.22-.37,0-.67.18-.88.55s-.32.87-.32,1.52v2.26h.93v.65h-3.37v-.65h.73v-4.41h-.78v-.65h2.5v1.02c.16-.4.38-.69.66-.88.28-.19.61-.29,1.02-.29.1,0,.22,0,.37.02.14.02.31.04.49.07Z"/>
      <path class="st0" d="M179.17,117.58v2.86h.74v.65h-2.44v-.73c-.23.3-.48.52-.75.67-.28.14-.59.21-.95.21-.53,0-.93-.16-1.21-.47-.28-.31-.42-.76-.42-1.35,0-.64.2-1.12.61-1.44s1.01-.48,1.83-.48h.9v-.34c0-.46-.1-.8-.3-1.02-.2-.22-.5-.33-.91-.33-.34,0-.61.08-.79.23-.18.16-.32.41-.4.77h-.55v-1.23c.31-.12.63-.21.95-.27.33-.06.67-.09,1.04-.09.92,0,1.59.19,2.02.57s.64.98.64,1.79ZM177.46,119.3v-1.14h-.64c-.32,0-.56.1-.74.29s-.26.47-.26.83.06.63.19.81.31.27.57.27.48-.1.64-.29.24-.45.24-.77Z"/>
      <path class="st0" d="M181.11,116.03h-.75v-.65h.75v-1.77h1.71v1.77h1.43v.65h-1.43v3.5c0,.5.04.81.11.93s.2.18.39.18c.21,0,.36-.08.46-.23.1-.15.15-.39.16-.71h.72c-.03.57-.17.97-.42,1.21-.25.23-.69.35-1.31.35-.71,0-1.18-.12-1.43-.37-.25-.25-.38-.7-.38-1.35v-3.5Z"/>
      <path class="st0" d="M188.01,121.25c-.91,0-1.62-.27-2.13-.8-.51-.54-.77-1.27-.77-2.21s.26-1.68.77-2.21c.51-.53,1.22-.8,2.13-.8s1.62.27,2.13.8c.51.53.77,1.27.77,2.21s-.26,1.67-.77,2.21c-.52.54-1.22.8-2.13.8ZM188.01,120.64c.36,0,.61-.17.76-.52s.22-.97.22-1.89-.07-1.55-.22-1.89c-.14-.34-.4-.51-.76-.51s-.62.17-.77.52c-.15.35-.22.97-.22,1.88s.07,1.54.22,1.89c.15.35.41.52.77.52ZM188.45,112.29h1.35l-1.8,2.02h-.79l1.25-2.02Z"/>
      <path class="st0" d="M196.62,115.32v1.7h-.55c-.02-.3-.09-.53-.22-.68-.13-.15-.32-.22-.56-.22-.37,0-.67.18-.88.55s-.32.87-.32,1.52v2.26h.93v.65h-3.37v-.65h.73v-4.41h-.78v-.65h2.5v1.02c.16-.4.38-.69.66-.88.28-.19.61-.29,1.02-.29.1,0,.22,0,.37.02.14.02.31.04.49.07Z"/>
      <path class="st0" d="M199.3,120.44h.73v.65h-3.17v-.65h.73v-4.41h-.73v-.65h2.44v5.06ZM197.42,113.76c0-.29.09-.53.27-.73.18-.2.4-.3.66-.3s.47.1.65.3c.18.2.27.44.27.73s-.09.52-.27.72c-.18.2-.4.3-.65.3s-.48-.1-.66-.3c-.18-.2-.27-.44-.27-.73Z"/>
      <path class="st0" d="M205.73,117.58v2.86h.74v.65h-2.44v-.73c-.23.3-.48.52-.75.67-.28.14-.59.21-.95.21-.53,0-.93-.16-1.21-.47-.28-.31-.42-.76-.42-1.35,0-.64.2-1.12.61-1.44s1.01-.48,1.83-.48h.9v-.34c0-.46-.1-.8-.3-1.02-.2-.22-.5-.33-.91-.33-.34,0-.61.08-.79.23-.18.16-.32.41-.4.77h-.55v-1.23c.31-.12.63-.21.95-.27.33-.06.67-.09,1.04-.09.92,0,1.59.19,2.02.57s.64.98.64,1.79ZM204.02,119.3v-1.14h-.64c-.32,0-.56.1-.74.29s-.26.47-.26.83.06.63.19.81.31.27.57.27.48-.1.64-.29.24-.45.24-.77Z"/>
    </g>
  </g>
  <g>
    <rect class="st1" x="75.74" y="169.97" width="151.38" height="42.78" rx="8" ry="8"/>
    <g>
      <path class="st0" d="M114.69,187.27v-.65h.92v-6.72h-.92v-.65h3.71c1.3,0,2.29.34,2.97,1.03.69.69,1.03,1.68,1.03,2.97s-.34,2.29-1.03,2.98c-.69.69-1.68,1.03-2.97,1.03h-3.71ZM117.47,186.62h.67c.75,0,1.3-.27,1.65-.81s.53-1.39.53-2.56-.17-2.01-.52-2.55c-.35-.54-.9-.8-1.66-.8h-.67v6.72Z"/>
      <path class="st0" d="M128.66,184.68h-3.53v.04c0,.74.1,1.27.3,1.6.2.33.52.49.97.49.37,0,.67-.11.9-.33s.38-.54.44-.95h.81c-.14.65-.42,1.12-.83,1.43-.41.3-.99.46-1.73.46-.89,0-1.57-.26-2.05-.78-.47-.52-.71-1.26-.71-2.23s.24-1.68.73-2.21c.49-.53,1.16-.79,2.03-.79s1.5.28,1.96.83c.45.56.7,1.37.73,2.45ZM126.78,184.04c0-.75-.06-1.28-.19-1.58-.13-.3-.34-.45-.64-.45s-.5.15-.63.45c-.13.3-.19.79-.19,1.49v.1h1.65Z"/>
      <path class="st0" d="M134.95,180.46h-.54c-.04-.31-.15-.54-.34-.7s-.46-.24-.79-.24c-.48,0-.83.13-1.05.38-.22.25-.34.66-.34,1.2v.46h3.45v5.06h.74v.65h-3.07v-.65h.62v-4.41h-1.74v4.41h.62v.65h-3.07v-.65h.73v-4.41h-.76v-.65h.76v-.41c0-.74.23-1.3.68-1.67.45-.38,1.13-.57,2.02-.57.31,0,.64.02.99.06s.71.11,1.09.2v1.28Z"/>
      <path class="st0" d="M136.64,187.27v-.65h.73v-4.41h-.73v-.65h2.44v.81c.2-.34.44-.59.7-.74s.6-.23,1-.23c.58,0,1.01.19,1.31.57.29.38.44.93.44,1.67v2.98h.74v.65h-3.07v-.65h.62v-3.03c0-.48-.06-.82-.17-1.01-.11-.19-.3-.28-.57-.28-.34,0-.6.14-.76.42-.16.28-.24.73-.24,1.34v2.56h.62v.65h-3.07Z"/>
      <path class="st0" d="M146.28,186.62h.73v.65h-3.17v-.65h.73v-4.41h-.73v-.65h2.44v5.06ZM144.4,179.94c0-.29.09-.53.27-.73.18-.2.4-.3.66-.3s.47.1.65.3c.18.2.27.44.27.73s-.09.52-.27.72c-.18.2-.4.3-.65.3s-.48-.1-.66-.3c-.18-.2-.27-.44-.27-.73Z"/>
      <path class="st0" d="M152.84,185.48c-.13.65-.38,1.14-.75,1.46-.38.32-.89.48-1.54.48-.92,0-1.63-.26-2.13-.79s-.75-1.27-.75-2.22.25-1.68.74-2.21c.5-.53,1.18-.79,2.06-.79.36,0,.72.04,1.08.11s.74.19,1.11.34v1.58h-.54c-.05-.48-.18-.84-.38-1.08-.2-.23-.49-.35-.85-.35-.48,0-.82.18-1.02.54-.2.36-.3.98-.3,1.86s.1,1.48.3,1.85c.2.37.52.56.96.56.34,0,.62-.11.83-.34.21-.23.34-.56.38-.99h.81ZM150.8,187.27c.2.23.34.44.44.64.1.19.15.39.15.57,0,.31-.1.54-.31.7-.21.16-.51.24-.9.24-.15,0-.31-.01-.48-.03-.16-.02-.33-.06-.5-.1v-.84c.14.06.28.11.42.14.14.03.26.05.38.05.19,0,.34-.04.44-.13.1-.08.15-.21.15-.37,0-.1-.03-.21-.08-.33s-.16-.3-.33-.54h.62Z"/>
      <path class="st0" d="M158.73,183.76v2.86h.74v.65h-2.44v-.73c-.23.3-.48.52-.75.67-.28.14-.59.21-.95.21-.53,0-.93-.16-1.21-.47-.28-.31-.42-.76-.42-1.35,0-.64.2-1.12.61-1.44s1.01-.48,1.83-.48h.9v-.34c0-.46-.1-.8-.3-1.02-.2-.22-.5-.33-.91-.33-.34,0-.61.08-.79.23-.18.16-.32.41-.4.77h-.55v-1.23c.31-.12.63-.21.95-.27.33-.06.67-.09,1.04-.09.92,0,1.59.19,2.02.57s.64.98.64,1.79ZM154.45,180.24v-.09c0-.52.08-.92.25-1.19.17-.27.42-.41.75-.41.12,0,.23.02.35.07.11.04.25.12.39.23l.34.25h.02c.14.11.27.17.39.17.13,0,.24-.06.32-.19s.12-.3.12-.52h.53v.09c0,.52-.08.92-.25,1.19-.17.27-.42.41-.75.41-.12,0-.24-.02-.35-.07-.11-.04-.24-.12-.39-.23l-.35-.25h0c-.15-.11-.28-.17-.39-.17-.13,0-.24.06-.32.19s-.12.3-.12.52h-.53ZM157.03,185.47v-1.14h-.64c-.32,0-.56.1-.74.29s-.26.47-.26.83.06.63.19.81.31.27.57.27.48-.1.64-.29.24-.45.24-.77Z"/>
      <path class="st0" d="M163,187.42c-.91,0-1.62-.27-2.13-.8-.51-.54-.77-1.27-.77-2.21s.26-1.68.77-2.21c.51-.53,1.22-.8,2.13-.8s1.62.27,2.13.8c.51.53.77,1.27.77,2.21s-.26,1.67-.77,2.21c-.52.54-1.22.8-2.13.8ZM163,186.81c.36,0,.61-.17.76-.52s.22-.97.22-1.89-.07-1.55-.22-1.89c-.14-.34-.4-.51-.76-.51s-.62.17-.77.52c-.15.35-.22.97-.22,1.88s.07,1.54.22,1.89c.15.35.41.52.77.52Z"/>
      <path class="st0" d="M175.7,186.62h.73v.65h-2.44v-.73c-.14.3-.34.52-.59.66-.25.14-.55.22-.91.22-.73,0-1.3-.27-1.72-.81-.42-.54-.63-1.27-.63-2.21s.21-1.67.63-2.21c.42-.53.99-.8,1.72-.8.36,0,.67.07.91.22.25.14.44.37.59.66v-2.73h-.74v-.64h2.45v7.71ZM173.99,184.69v-.56c0-.67-.08-1.15-.23-1.44s-.4-.45-.74-.45-.6.16-.75.47c-.14.31-.21.88-.21,1.7s.07,1.39.22,1.7c.15.31.39.47.74.47s.59-.15.74-.45.23-.78.23-1.44Z"/>
      <path class="st0" d="M182.11,183.76v2.86h.74v.65h-2.44v-.73c-.23.3-.48.52-.75.67-.28.14-.59.21-.95.21-.53,0-.93-.16-1.21-.47-.28-.31-.42-.76-.42-1.35,0-.64.2-1.12.61-1.44s1.01-.48,1.83-.48h.9v-.34c0-.46-.1-.8-.3-1.02-.2-.22-.5-.33-.91-.33-.34,0-.61.08-.79.23-.18.16-.32.41-.4.77h-.55v-1.23c.31-.12.63-.21.95-.27.33-.06.67-.09,1.04-.09.92,0,1.59.19,2.02.57s.64.98.64,1.79ZM180.4,185.47v-1.14h-.64c-.32,0-.56.1-.74.29s-.26.47-.26.83.06.63.19.81.31.27.57.27.48-.1.64-.29.24-.45.24-.77Z"/>
      <path class="st0" d="M183.53,187.1v-1.6h.55c.05.43.19.75.43.97.24.22.57.34.99.34.35,0,.61-.07.8-.2.18-.13.28-.33.28-.58,0-.23-.06-.41-.17-.53-.12-.13-.34-.23-.68-.33l-.7-.2c-.53-.15-.92-.36-1.16-.63-.24-.27-.36-.64-.36-1.11,0-.62.19-1.08.58-1.38.39-.3.98-.45,1.79-.45.3,0,.63.03.97.08.34.06.72.14,1.14.26v1.44h-.55c-.03-.39-.15-.68-.37-.88-.22-.2-.54-.3-.95-.3-.35,0-.61.06-.79.19-.18.12-.27.3-.27.54,0,.19.05.35.16.46s.29.2.56.28l.7.2c.67.19,1.14.42,1.4.7s.39.67.39,1.17c0,.64-.21,1.12-.62,1.43-.41.31-1.06.46-1.93.46-.32,0-.66-.03-1.02-.08s-.74-.13-1.14-.24Z"/>
      <path class="st0" d="M97.46,195.69c.24-.38.49-.66.77-.83.28-.17.6-.26.97-.26.59,0,1.03.19,1.32.56.29.37.44.93.44,1.68v2.98h.74v.65h-3.06v-.65h.62v-2.7c0-.71-.05-1.16-.15-1.35-.1-.19-.28-.28-.55-.28-.3,0-.54.13-.71.39-.17.26-.25.63-.25,1.11v2.83h.61v.65h-2.94v-.65h.61v-2.7c0-.71-.05-1.16-.15-1.35s-.28-.28-.54-.28c-.31,0-.55.13-.71.39-.17.26-.25.63-.25,1.11v2.83h.61v.65h-3.06v-.65h.73v-4.41h-.73v-.65h2.44v.81c.2-.33.42-.58.68-.73s.56-.23.92-.23c.42,0,.76.09,1.02.27.26.18.46.45.61.82Z"/>
      <path class="st0" d="M107.77,197.88h-3.53v.04c0,.74.1,1.27.3,1.6.2.33.52.49.97.49.37,0,.67-.11.9-.33s.38-.54.44-.95h.81c-.14.65-.42,1.12-.83,1.43-.41.3-.99.46-1.73.46-.89,0-1.57-.26-2.05-.78-.47-.52-.71-1.26-.71-2.23s.24-1.68.73-2.21c.49-.53,1.16-.79,2.03-.79s1.5.28,1.96.83c.45.56.7,1.37.73,2.45ZM105.89,197.24c0-.75-.06-1.28-.19-1.58-.13-.3-.34-.45-.64-.45s-.5.15-.63.45c-.13.3-.19.79-.19,1.49v.1h1.65ZM105.51,191.67h1.35l-1.8,2.02h-.79l1.25-2.02Z"/>
      <path class="st0" d="M109.2,195.41h-.75v-.65h.75v-1.77h1.71v1.77h1.43v.65h-1.43v3.5c0,.5.04.81.11.93s.2.18.39.18c.21,0,.36-.08.46-.23.1-.15.15-.39.16-.71h.72c-.03.57-.17.97-.42,1.21-.25.23-.69.35-1.31.35-.71,0-1.18-.12-1.43-.37-.25-.25-.38-.7-.38-1.35v-3.5Z"/>
      <path class="st0" d="M118.1,194.69v1.7h-.55c-.02-.3-.09-.53-.22-.68-.13-.15-.32-.22-.56-.22-.37,0-.67.18-.88.55s-.32.87-.32,1.52v2.26h.93v.65h-3.37v-.65h.73v-4.41h-.78v-.65h2.5v1.02c.16-.4.38-.69.66-.88.28-.19.61-.29,1.02-.29.1,0,.22,0,.37.02.14.02.31.04.49.07Z"/>
      <path class="st0" d="M120.78,199.82h.73v.65h-3.17v-.65h.73v-4.41h-.73v-.65h2.44v5.06ZM118.91,193.14c0-.29.09-.53.27-.73.18-.2.4-.3.66-.3s.47.1.65.3c.18.2.27.44.27.73s-.09.52-.27.72c-.18.2-.4.3-.65.3s-.48-.1-.66-.3c-.18-.2-.27-.44-.27-.73Z"/>
      <path class="st0" d="M127.35,198.68c-.13.65-.38,1.14-.75,1.46-.38.32-.89.48-1.54.48-.92,0-1.63-.26-2.13-.79s-.75-1.27-.75-2.22.25-1.68.74-2.21c.5-.53,1.18-.79,2.06-.79.36,0,.72.04,1.08.11s.74.19,1.11.34v1.58h-.54c-.05-.48-.18-.84-.38-1.08-.2-.23-.49-.35-.85-.35-.48,0-.82.18-1.02.54-.2.36-.3.98-.3,1.86s.1,1.48.3,1.85c.2.37.52.56.96.56.34,0,.62-.11.83-.34.21-.23.34-.56.38-.99h.81Z"/>
      <path class="st0" d="M133.24,196.96v2.86h.74v.65h-2.44v-.73c-.23.3-.48.52-.75.67-.28.14-.59.21-.95.21-.53,0-.93-.16-1.21-.47-.28-.31-.42-.76-.42-1.35,0-.64.2-1.12.61-1.44s1.01-.48,1.83-.48h.9v-.34c0-.46-.1-.8-.3-1.02-.2-.22-.5-.33-.91-.33-.34,0-.61.08-.79.23-.18.16-.32.41-.4.77h-.55v-1.23c.31-.12.63-.21.95-.27.33-.06.67-.09,1.04-.09.92,0,1.59.19,2.02.57s.64.98.64,1.79ZM131.53,198.67v-1.14h-.64c-.32,0-.56.1-.74.29s-.26.47-.26.83.06.63.19.81.31.27.57.27.48-.1.64-.29.24-.45.24-.77Z"/>
      <path class="st0" d="M134.66,200.3v-1.6h.55c.05.43.19.75.43.97.24.22.57.34.99.34.35,0,.61-.07.8-.2.18-.13.28-.33.28-.58,0-.23-.06-.41-.17-.53-.12-.13-.34-.23-.68-.33l-.7-.2c-.53-.15-.92-.36-1.16-.63-.24-.27-.36-.64-.36-1.11,0-.62.19-1.08.58-1.38.39-.3.98-.45,1.79-.45.3,0,.63.03.97.08.34.06.72.14,1.14.26v1.44h-.55c-.03-.39-.15-.68-.37-.88-.22-.2-.54-.3-.95-.3-.35,0-.61.06-.79.19-.18.12-.27.3-.27.54,0,.19.05.35.16.46s.29.2.56.28l.7.2c.67.19,1.14.42,1.4.7s.39.67.39,1.17c0,.64-.21,1.12-.62,1.43-.41.31-1.06.46-1.93.46-.32,0-.66-.03-1.02-.08s-.74-.13-1.14-.24Z"/>
      <path class="st0" d="M149.17,199.82h.73v.65h-2.44v-.73c-.14.3-.34.52-.59.66-.25.14-.55.22-.91.22-.73,0-1.3-.27-1.72-.81-.42-.54-.63-1.27-.63-2.21s.21-1.67.63-2.21c.42-.53.99-.8,1.72-.8.36,0,.67.07.91.22.25.14.44.37.59.66v-2.73h-.74v-.64h2.45v7.71ZM147.46,197.89v-.56c0-.67-.08-1.15-.23-1.44s-.4-.45-.74-.45-.6.16-.75.47c-.14.31-.21.88-.21,1.7s.07,1.39.22,1.7c.15.31.39.47.74.47s.59-.15.74-.45.23-.78.23-1.44Z"/>
      <path class="st0" d="M155.98,197.88h-3.53v.04c0,.74.1,1.27.3,1.6.2.33.52.49.97.49.37,0,.67-.11.9-.33s.38-.54.44-.95h.81c-.14.65-.42,1.12-.83,1.43-.41.3-.99.46-1.73.46-.89,0-1.57-.26-2.05-.78-.47-.52-.71-1.26-.71-2.23s.24-1.68.73-2.21c.49-.53,1.16-.79,2.03-.79s1.5.28,1.96.83c.45.56.7,1.37.73,2.45ZM154.1,197.24c0-.75-.06-1.28-.19-1.58-.13-.3-.34-.45-.64-.45s-.5.15-.63.45c-.13.3-.19.79-.19,1.49v.1h1.65Z"/>
      <path class="st0" d="M165.32,196.96v2.86h.74v.65h-2.44v-.73c-.23.3-.48.52-.75.67-.28.14-.59.21-.95.21-.53,0-.93-.16-1.21-.47-.28-.31-.42-.76-.42-1.35,0-.64.2-1.12.61-1.44s1.01-.48,1.83-.48h.9v-.34c0-.46-.1-.8-.3-1.02-.2-.22-.5-.33-.91-.33-.34,0-.61.08-.79.23-.18.16-.32.41-.4.77h-.55v-1.23c.31-.12.63-.21.95-.27.33-.06.67-.09,1.04-.09.92,0,1.59.19,2.02.57s.64.98.64,1.79ZM163.61,198.67v-1.14h-.64c-.32,0-.56.1-.74.29s-.26.47-.26.83.06.63.19.81.31.27.57.27.48-.1.64-.29.24-.45.24-.77Z"/>
      <path class="st0" d="M168.49,200.47l-1.82-5.06h-.56v-.65h2.95v.65h-.62l1.3,3.61,1.29-3.61h-.67v-.65h1.93v.65h-.6l-1.82,5.06h-1.38Z"/>
      <path class="st0" d="M177.48,196.96v2.86h.74v.65h-2.44v-.73c-.23.3-.48.52-.75.67-.28.14-.59.21-.95.21-.53,0-.93-.16-1.21-.47-.28-.31-.42-.76-.42-1.35,0-.64.2-1.12.61-1.44s1.01-.48,1.83-.48h.9v-.34c0-.46-.1-.8-.3-1.02-.2-.22-.5-.33-.91-.33-.34,0-.61.08-.79.23-.18.16-.32.41-.4.77h-.55v-1.23c.31-.12.63-.21.95-.27.33-.06.67-.09,1.04-.09.92,0,1.59.19,2.02.57s.64.98.64,1.79ZM175.78,198.67v-1.14h-.64c-.32,0-.56.1-.74.29s-.26.47-.26.83.06.63.19.81.31.27.57.27.48-.1.64-.29.24-.45.24-.77Z"/>
      <path class="st0" d="M181.23,199.82h.73v.65h-3.17v-.65h.73v-7.06h-.73v-.64h2.44v7.71Z"/>
      <path class="st0" d="M184.99,199.82h.73v.65h-3.17v-.65h.73v-4.41h-.73v-.65h2.44v5.06ZM183.11,193.14c0-.29.09-.53.27-.73.18-.2.4-.3.66-.3s.47.1.65.3c.18.2.27.44.27.73s-.09.52-.27.72c-.18.2-.4.3-.65.3s-.48-.1-.66-.3c-.18-.2-.27-.44-.27-.73Z"/>
      <path class="st0" d="M191.42,196.96v2.86h.74v.65h-2.44v-.73c-.23.3-.48.52-.75.67-.28.14-.59.21-.95.21-.53,0-.93-.16-1.21-.47-.28-.31-.42-.76-.42-1.35,0-.64.2-1.12.61-1.44s1.01-.48,1.83-.48h.9v-.34c0-.46-.1-.8-.3-1.02-.2-.22-.5-.33-.91-.33-.34,0-.61.08-.79.23-.18.16-.32.41-.4.77h-.55v-1.23c.31-.12.63-.21.95-.27.33-.06.67-.09,1.04-.09.92,0,1.59.19,2.02.57s.64.98.64,1.79ZM189.71,198.67v-1.14h-.64c-.32,0-.56.1-.74.29s-.26.47-.26.83.06.63.19.81.31.27.57.27.48-.1.64-.29.24-.45.24-.77Z"/>
      <path class="st0" d="M197.96,198.68c-.13.65-.38,1.14-.75,1.46-.38.32-.89.48-1.54.48-.92,0-1.63-.26-2.13-.79s-.75-1.27-.75-2.22.25-1.68.74-2.21c.5-.53,1.18-.79,2.06-.79.36,0,.72.04,1.08.11s.74.19,1.11.34v1.58h-.54c-.05-.48-.18-.84-.38-1.08-.2-.23-.49-.35-.85-.35-.48,0-.82.18-1.02.54-.2.36-.3.98-.3,1.86s.1,1.48.3,1.85c.2.37.52.56.96.56.34,0,.62-.11.83-.34.21-.23.34-.56.38-.99h.81ZM195.92,200.47c.2.23.34.44.44.64.1.19.15.39.15.57,0,.31-.1.54-.31.7-.21.16-.51.24-.9.24-.15,0-.31-.01-.48-.03-.16-.02-.33-.06-.5-.1v-.84c.14.06.28.11.42.14.14.03.26.05.38.05.19,0,.34-.04.44-.13.1-.08.15-.21.15-.37,0-.1-.03-.21-.08-.33s-.16-.3-.33-.54h.62Z"/>
      <path class="st0" d="M203.86,196.96v2.86h.74v.65h-2.44v-.73c-.23.3-.48.52-.75.67-.28.14-.59.21-.95.21-.53,0-.93-.16-1.21-.47-.28-.31-.42-.76-.42-1.35,0-.64.2-1.12.61-1.44s1.01-.48,1.83-.48h.9v-.34c0-.46-.1-.8-.3-1.02-.2-.22-.5-.33-.91-.33-.34,0-.61.08-.79.23-.18.16-.32.41-.4.77h-.55v-1.23c.31-.12.63-.21.95-.27.33-.06.67-.09,1.04-.09.92,0,1.59.19,2.02.57s.64.98.64,1.79ZM199.58,193.44v-.09c0-.52.08-.92.25-1.19.17-.27.42-.41.75-.41.12,0,.23.02.35.07.11.04.25.12.39.23l.34.25h.02c.14.11.27.17.39.17.13,0,.24-.06.32-.19s.12-.3.12-.52h.53v.09c0,.52-.08.92-.25,1.19-.17.27-.42.41-.75.41-.12,0-.24-.02-.35-.07-.11-.04-.24-.12-.39-.23l-.35-.25h0c-.15-.11-.28-.17-.39-.17-.13,0-.24.06-.32.19s-.12.3-.12.52h-.53ZM202.15,198.67v-1.14h-.64c-.32,0-.56.1-.74.29s-.26.47-.26.83.06.63.19.81.31.27.57.27.48-.1.64-.29.24-.45.24-.77Z"/>
      <path class="st0" d="M208.13,200.62c-.91,0-1.62-.27-2.13-.8-.51-.54-.77-1.27-.77-2.21s.26-1.68.77-2.21c.51-.53,1.22-.8,2.13-.8s1.62.27,2.13.8c.51.53.77,1.27.77,2.21s-.26,1.67-.77,2.21c-.52.54-1.22.8-2.13.8ZM208.13,200.02c.36,0,.61-.17.76-.52s.22-.97.22-1.89-.07-1.55-.22-1.89c-.14-.34-.4-.51-.76-.51s-.62.17-.77.52c-.15.35-.22.97-.22,1.88s.07,1.54.22,1.89c.15.35.41.52.77.52Z"/>
    </g>
  </g>
  <g>
    <rect class="st1" x="75.74" y="249.34" width="151.38" height="42.78" rx="8" ry="8"/>
    <g>
      <path class="st0" d="M97.6,266.64v-.65h.92v-6.72h-.92v-.65h3.72v.65h-.93v6.72h.93v.65h-3.72Z"/>
      <path class="st0" d="M107.77,261.87c.24-.38.49-.66.77-.83.28-.17.6-.26.97-.26.59,0,1.03.19,1.32.56.29.37.44.93.44,1.68v2.98h.74v.65h-3.06v-.65h.62v-2.7c0-.71-.05-1.16-.15-1.35-.1-.19-.28-.28-.55-.28-.3,0-.54.13-.71.39-.17.26-.25.63-.25,1.11v2.83h.61v.65h-2.94v-.65h.61v-2.7c0-.71-.05-1.16-.15-1.35s-.28-.28-.54-.28c-.31,0-.55.13-.71.39-.17.26-.25.63-.25,1.11v2.83h.61v.65h-3.06v-.65h.73v-4.41h-.73v-.65h2.44v.81c.2-.33.42-.58.68-.73s.56-.23.92-.23c.42,0,.76.09,1.02.27.26.18.46.45.61.82Z"/>
      <path class="st0" d="M113.2,261.58h-.74v-.65h2.45v.73c.14-.3.34-.52.58-.66.25-.15.55-.22.91-.22.73,0,1.31.27,1.73.8.42.54.63,1.27.63,2.21s-.21,1.67-.63,2.21c-.42.54-1,.81-1.73.81-.36,0-.67-.07-.91-.22-.25-.15-.44-.37-.58-.66v2.36h.79v.65h-3.24v-.65h.74v-6.7ZM114.91,263.51v.56c0,.67.08,1.15.23,1.44.15.3.4.45.74.45s.6-.16.74-.47.21-.88.21-1.7-.07-1.39-.21-1.7c-.14-.31-.39-.47-.74-.47s-.59.15-.74.45c-.15.3-.23.78-.23,1.44Z"/>
      <path class="st0" d="M121.94,265.99h.73v.65h-3.17v-.65h.73v-7.06h-.73v-.64h2.44v7.71Z"/>
      <path class="st0" d="M128.76,264.06h-3.53v.04c0,.74.1,1.27.3,1.6.2.33.52.49.97.49.37,0,.67-.11.9-.33s.38-.54.44-.95h.81c-.14.65-.42,1.12-.83,1.43-.41.3-.99.46-1.73.46-.89,0-1.57-.26-2.05-.78-.47-.52-.71-1.26-.71-2.23s.24-1.68.73-2.21c.49-.53,1.16-.79,2.03-.79s1.5.28,1.96.83c.45.56.7,1.37.73,2.45ZM126.88,263.42c0-.75-.06-1.28-.19-1.58-.13-.3-.34-.45-.64-.45s-.5.15-.63.45c-.13.3-.19.79-.19,1.49v.1h1.65Z"/>
      <path class="st0" d="M135.22,261.87c.24-.38.49-.66.77-.83.28-.17.6-.26.97-.26.59,0,1.03.19,1.32.56.29.37.44.93.44,1.68v2.98h.74v.65h-3.06v-.65h.62v-2.7c0-.71-.05-1.16-.15-1.35-.1-.19-.28-.28-.55-.28-.3,0-.54.13-.71.39-.17.26-.25.63-.25,1.11v2.83h.61v.65h-2.94v-.65h.61v-2.7c0-.71-.05-1.16-.15-1.35s-.28-.28-.54-.28c-.31,0-.55.13-.71.39-.17.26-.25.63-.25,1.11v2.83h.61v.65h-3.06v-.65h.73v-4.41h-.73v-.65h2.44v.81c.2-.33.42-.58.68-.73s.56-.23.92-.23c.42,0,.76.09,1.02.27.26.18.46.45.61.82Z"/>
      <path class="st0" d="M145.53,264.06h-3.53v.04c0,.74.1,1.27.3,1.6.2.33.52.49.97.49.37,0,.67-.11.9-.33s.38-.54.44-.95h.81c-.14.65-.42,1.12-.83,1.43-.41.3-.99.46-1.73.46-.89,0-1.57-.26-2.05-.78-.47-.52-.71-1.26-.71-2.23s.24-1.68.73-2.21c.49-.53,1.16-.79,2.03-.79s1.5.28,1.96.83c.45.56.7,1.37.73,2.45ZM143.65,263.42c0-.75-.06-1.28-.19-1.58-.13-.3-.34-.45-.64-.45s-.5.15-.63.45c-.13.3-.19.79-.19,1.49v.1h1.65Z"/>
      <path class="st0" d="M146.32,266.64v-.65h.73v-4.41h-.73v-.65h2.44v.81c.2-.34.44-.59.7-.74s.6-.23,1-.23c.58,0,1.01.19,1.31.57.29.38.44.93.44,1.67v2.98h.74v.65h-3.07v-.65h.62v-3.03c0-.48-.06-.82-.17-1.01-.11-.19-.3-.28-.57-.28-.34,0-.6.14-.76.42-.16.28-.24.73-.24,1.34v2.56h.62v.65h-3.07Z"/>
      <path class="st0" d="M154.16,261.58h-.75v-.65h.75v-1.77h1.71v1.77h1.43v.65h-1.43v3.5c0,.5.04.81.11.93s.2.18.39.18c.21,0,.36-.08.46-.23.1-.15.15-.39.16-.71h.72c-.03.57-.17.97-.42,1.21-.25.23-.69.35-1.31.35-.71,0-1.18-.12-1.43-.37-.25-.25-.38-.7-.38-1.35v-3.5Z"/>
      <path class="st0" d="M163.2,263.13v2.86h.74v.65h-2.44v-.73c-.23.3-.48.52-.75.67-.28.14-.59.21-.95.21-.53,0-.93-.16-1.21-.47-.28-.31-.42-.76-.42-1.35,0-.64.2-1.12.61-1.44s1.01-.48,1.83-.48h.9v-.34c0-.46-.1-.8-.3-1.02-.2-.22-.5-.33-.91-.33-.34,0-.61.08-.79.23-.18.16-.32.41-.4.77h-.55v-1.23c.31-.12.63-.21.95-.27.33-.06.67-.09,1.04-.09.92,0,1.59.19,2.02.57s.64.98.64,1.79ZM161.49,264.85v-1.14h-.64c-.32,0-.56.1-.74.29s-.26.47-.26.83.06.63.19.81.31.27.57.27.48-.1.64-.29.24-.45.24-.77Z"/>
      <path class="st0" d="M169.75,264.86c-.13.65-.38,1.14-.75,1.46-.38.32-.89.48-1.54.48-.92,0-1.63-.26-2.13-.79s-.75-1.27-.75-2.22.25-1.68.74-2.21c.5-.53,1.18-.79,2.06-.79.36,0,.72.04,1.08.11s.74.19,1.11.34v1.58h-.54c-.05-.48-.18-.84-.38-1.08-.2-.23-.49-.35-.85-.35-.48,0-.82.18-1.02.54-.2.36-.3.98-.3,1.86s.1,1.48.3,1.85c.2.37.52.56.96.56.34,0,.62-.11.83-.34.21-.23.34-.56.38-.99h.81ZM167.7,266.64c.2.23.34.44.44.64.1.19.15.39.15.57,0,.31-.1.54-.31.7-.21.16-.51.24-.9.24-.15,0-.31-.01-.48-.03-.16-.02-.33-.06-.5-.1v-.84c.14.06.28.11.42.14.14.03.26.05.38.05.19,0,.34-.04.44-.13.1-.08.15-.21.15-.37,0-.1-.03-.21-.08-.33s-.16-.3-.33-.54h.62Z"/>
      <path class="st0" d="M175.64,263.13v2.86h.74v.65h-2.44v-.73c-.23.3-.48.52-.75.67-.28.14-.59.21-.95.21-.53,0-.93-.16-1.21-.47-.28-.31-.42-.76-.42-1.35,0-.64.2-1.12.61-1.44s1.01-.48,1.83-.48h.9v-.34c0-.46-.1-.8-.3-1.02-.2-.22-.5-.33-.91-.33-.34,0-.61.08-.79.23-.18.16-.32.41-.4.77h-.55v-1.23c.31-.12.63-.21.95-.27.33-.06.67-.09,1.04-.09.92,0,1.59.19,2.02.57s.64.98.64,1.79ZM171.36,259.61v-.09c0-.52.08-.92.25-1.19.17-.27.42-.41.75-.41.12,0,.23.02.35.07.11.04.25.12.39.23l.34.25h.02c.14.11.27.17.39.17.13,0,.24-.06.32-.19s.12-.3.12-.52h.53v.09c0,.52-.08.92-.25,1.19-.17.27-.42.41-.75.41-.12,0-.24-.02-.35-.07-.11-.04-.24-.12-.39-.23l-.35-.25h0c-.15-.11-.28-.17-.39-.17-.13,0-.24.06-.32.19s-.12.3-.12.52h-.53ZM173.93,264.85v-1.14h-.64c-.32,0-.56.1-.74.29s-.26.47-.26.83.06.63.19.81.31.27.57.27.48-.1.64-.29.24-.45.24-.77Z"/>
      <path class="st0" d="M179.91,266.8c-.91,0-1.62-.27-2.13-.8-.51-.54-.77-1.27-.77-2.21s.26-1.68.77-2.21c.51-.53,1.22-.8,2.13-.8s1.62.27,2.13.8c.51.53.77,1.27.77,2.21s-.26,1.67-.77,2.21c-.52.54-1.22.8-2.13.8ZM179.91,266.19c.36,0,.61-.17.76-.52s.22-.97.22-1.89-.07-1.55-.22-1.89c-.14-.34-.4-.51-.76-.51s-.62.17-.77.52c-.15.35-.22.97-.22,1.88s.07,1.54.22,1.89c.15.35.41.52.77.52Z"/>
      <path class="st0" d="M192.6,265.99h.73v.65h-2.44v-.73c-.14.3-.34.52-.59.66-.25.14-.55.22-.91.22-.73,0-1.3-.27-1.72-.81-.42-.54-.63-1.27-.63-2.21s.21-1.67.63-2.21c.42-.53.99-.8,1.72-.8.36,0,.67.07.91.22.25.14.44.37.59.66v-2.73h-.74v-.64h2.45v7.71ZM190.89,264.07v-.56c0-.67-.08-1.15-.23-1.44s-.4-.45-.74-.45-.6.16-.75.47c-.14.31-.21.88-.21,1.7s.07,1.39.22,1.7c.15.31.39.47.74.47s.59-.15.74-.45.23-.78.23-1.44Z"/>
      <path class="st0" d="M196.87,266.8c-.91,0-1.62-.27-2.13-.8-.51-.54-.77-1.27-.77-2.21s.26-1.68.77-2.21c.51-.53,1.22-.8,2.13-.8s1.62.27,2.13.8c.51.53.77,1.27.77,2.21s-.26,1.67-.77,2.21c-.52.54-1.22.8-2.13.8ZM196.87,266.19c.36,0,.61-.17.76-.52s.22-.97.22-1.89-.07-1.55-.22-1.89c-.14-.34-.4-.51-.76-.51s-.62.17-.77.52c-.15.35-.22.97-.22,1.88s.07,1.54.22,1.89c.15.35.41.52.77.52Z"/>
      <path class="st0" d="M200.62,266.48v-1.6h.55c.05.43.19.75.43.97.24.22.57.34.99.34.35,0,.61-.07.8-.2.18-.13.28-.33.28-.58,0-.23-.06-.41-.17-.53-.12-.13-.34-.23-.68-.33l-.7-.2c-.53-.15-.92-.36-1.16-.63-.24-.27-.36-.64-.36-1.11,0-.62.19-1.08.58-1.38.39-.3.98-.45,1.79-.45.3,0,.63.03.97.08.34.06.72.14,1.14.26v1.44h-.55c-.03-.39-.15-.68-.37-.88-.22-.2-.54-.3-.95-.3-.35,0-.61.06-.79.19-.18.12-.27.3-.27.54,0,.19.05.35.16.46s.29.2.56.28l.7.2c.67.19,1.14.42,1.4.7s.39.67.39,1.17c0,.64-.21,1.12-.62,1.43-.41.31-1.06.46-1.93.46-.32,0-.66-.03-1.02-.08s-.74-.13-1.14-.24Z"/>
      <path class="st0" d="M134.33,275.07c.24-.38.49-.66.77-.83.28-.17.6-.26.97-.26.59,0,1.03.19,1.32.56.29.37.44.93.44,1.68v2.98h.74v.65h-3.06v-.65h.62v-2.7c0-.71-.05-1.16-.15-1.35-.1-.19-.28-.28-.55-.28-.3,0-.54.13-.71.39-.17.26-.25.63-.25,1.11v2.83h.61v.65h-2.94v-.65h.61v-2.7c0-.71-.05-1.16-.15-1.35s-.28-.28-.54-.28c-.31,0-.55.13-.71.39-.17.26-.25.63-.25,1.11v2.83h.61v.65h-3.06v-.65h.73v-4.41h-.73v-.65h2.44v.81c.2-.33.42-.58.68-.73s.56-.23.92-.23c.42,0,.76.09,1.02.27.26.18.46.45.61.82Z"/>
      <path class="st0" d="M142.11,280c-.91,0-1.62-.27-2.13-.8-.51-.54-.77-1.27-.77-2.21s.26-1.68.77-2.21c.51-.53,1.22-.8,2.13-.8s1.62.27,2.13.8c.51.53.77,1.27.77,2.21s-.26,1.67-.77,2.21c-.52.54-1.22.8-2.13.8ZM142.11,279.39c.36,0,.61-.17.76-.52s.22-.97.22-1.89-.07-1.55-.22-1.89c-.14-.34-.4-.51-.76-.51s-.62.17-.77.52c-.15.35-.22.97-.22,1.88s.07,1.54.22,1.89c.15.35.41.52.77.52Z"/>
      <path class="st0" d="M151.36,279.19h.73v.65h-2.44v-.73c-.14.3-.34.52-.59.66-.25.14-.55.22-.91.22-.73,0-1.3-.27-1.72-.81-.42-.54-.63-1.27-.63-2.21s.21-1.67.63-2.21c.42-.53.99-.8,1.72-.8.36,0,.67.07.91.22.25.14.44.37.59.66v-2.73h-.74v-.64h2.45v7.71ZM149.65,277.27v-.56c0-.67-.08-1.15-.23-1.44s-.4-.45-.74-.45-.6.16-.75.47c-.14.31-.21.88-.21,1.7s.07,1.39.22,1.7c.15.31.39.47.74.47s.59-.15.74-.45.23-.78.23-1.44Z"/>
      <path class="st0" d="M158.17,277.26h-3.53v.04c0,.74.1,1.27.3,1.6.2.33.52.49.97.49.37,0,.67-.11.9-.33s.38-.54.44-.95h.81c-.14.65-.42,1.12-.83,1.43-.41.3-.99.46-1.73.46-.89,0-1.57-.26-2.05-.78-.47-.52-.71-1.26-.71-2.23s.24-1.68.73-2.21c.49-.53,1.16-.79,2.03-.79s1.5.28,1.96.83c.45.56.7,1.37.73,2.45ZM156.29,276.62c0-.75-.06-1.28-.19-1.58-.13-.3-.34-.45-.64-.45s-.5.15-.63.45c-.13.3-.19.79-.19,1.49v.1h1.65Z"/>
      <path class="st0" d="M161.39,279.19h.73v.65h-3.17v-.65h.73v-7.06h-.73v-.64h2.44v7.71Z"/>
      <path class="st0" d="M165.68,280c-.91,0-1.62-.27-2.13-.8-.51-.54-.77-1.27-.77-2.21s.26-1.68.77-2.21c.51-.53,1.22-.8,2.13-.8s1.62.27,2.13.8c.51.53.77,1.27.77,2.21s-.26,1.67-.77,2.21c-.52.54-1.22.8-2.13.8ZM165.68,279.39c.36,0,.61-.17.76-.52s.22-.97.22-1.89-.07-1.55-.22-1.89c-.14-.34-.4-.51-.76-.51s-.62.17-.77.52c-.15.35-.22.97-.22,1.88s.07,1.54.22,1.89c.15.35.41.52.77.52Z"/>
      <path class="st0" d="M169.43,279.68v-1.6h.55c.05.43.19.75.43.97.24.22.57.34.99.34.35,0,.61-.07.8-.2.18-.13.28-.33.28-.58,0-.23-.06-.41-.17-.53-.12-.13-.34-.23-.68-.33l-.7-.2c-.53-.15-.92-.36-1.16-.63-.24-.27-.36-.64-.36-1.11,0-.62.19-1.08.58-1.38.39-.3.98-.45,1.79-.45.3,0,.63.03.97.08.34.06.72.14,1.14.26v1.44h-.55c-.03-.39-.15-.68-.37-.88-.22-.2-.54-.3-.95-.3-.35,0-.61.06-.79.19-.18.12-.27.3-.27.54,0,.19.05.35.16.46s.29.2.56.28l.7.2c.67.19,1.14.42,1.4.7s.39.67.39,1.17c0,.64-.21,1.12-.62,1.43-.41.31-1.06.46-1.93.46-.32,0-.66-.03-1.02-.08s-.74-.13-1.14-.24Z"/>
    </g>
  </g>
  <g>
    <line class="st2" x1="151.43" y1="54" x2="151.43" y2="83.53"/>
    <polygon class="st0" points="151.43 90.59 147.37 80.64 151.43 83 155.5 80.64 151.43 90.59"/>
  </g>
  <g>
    <line class="st2" x1="151.43" y1="133.06" x2="151.43" y2="162.59"/>
    <polygon class="st0" points="151.43 169.65 147.37 159.7 151.43 162.06 155.5 159.7 151.43 169.65"/>
  </g>
  <g>
    <line class="st2" x1="151.43" y1="212.75" x2="151.43" y2="242.28"/>
    <polygon class="st0" points="151.43 249.34 147.37 239.39 151.43 241.75 155.5 239.39 151.43 249.34"/>
  </g>
  <g>
    <rect class="st1" x="75.74" y="328.72" width="151.38" height="28.55" rx="8" ry="8"/>
    <g>
      <path class="st0" d="M88.98,345.84v-.65h.59l2.72-7.37h1.15l2.72,7.37h.69v.65h-3.38v-.65h.7l-.6-1.64h-2.71l-.61,1.64h.86v.65h-2.14ZM91.11,342.9h2.23l-1.11-3.07-1.12,3.07Z"/>
      <path class="st0" d="M97.07,345.84v-.65h.73v-4.41h-.73v-.65h2.44v.81c.2-.34.44-.59.7-.74s.6-.23,1-.23c.58,0,1.01.19,1.31.57.29.38.44.93.44,1.67v2.98h.74v.65h-3.07v-.65h.62v-3.03c0-.48-.06-.82-.17-1.01-.11-.19-.3-.28-.57-.28-.34,0-.6.14-.76.42-.16.28-.24.73-.24,1.34v2.56h.62v.65h-3.07Z"/>
      <path class="st0" d="M109.38,342.33v2.86h.74v.65h-2.44v-.73c-.23.3-.48.52-.75.67-.28.14-.59.21-.95.21-.53,0-.93-.16-1.21-.47-.28-.31-.42-.76-.42-1.35,0-.64.2-1.12.61-1.44s1.01-.48,1.83-.48h.9v-.34c0-.46-.1-.8-.3-1.02-.2-.22-.5-.33-.91-.33-.34,0-.61.08-.79.23-.18.16-.32.41-.4.77h-.55v-1.23c.31-.12.63-.21.95-.27.33-.06.67-.09,1.04-.09.92,0,1.59.19,2.02.57s.64.98.64,1.79ZM107.28,337.04h1.35l-1.8,2.02h-.79l1.25-2.02ZM107.67,344.05v-1.14h-.64c-.32,0-.56.1-.74.29s-.26.47-.26.83.06.63.19.81.31.27.57.27.48-.1.64-.29.24-.45.24-.77Z"/>
      <path class="st0" d="M113.13,345.19h.73v.65h-3.17v-.65h.73v-7.06h-.73v-.64h2.44v7.71Z"/>
      <path class="st0" d="M116.89,345.19h.73v.65h-3.17v-.65h.73v-4.41h-.73v-.65h2.44v5.06ZM115.01,338.52c0-.29.09-.53.27-.73.18-.2.4-.3.66-.3s.47.1.65.3c.18.2.27.44.27.73s-.09.52-.27.72c-.18.2-.4.3-.65.3s-.48-.1-.66-.3c-.18-.2-.27-.44-.27-.73Z"/>
      <path class="st0" d="M118.33,345.68v-1.6h.55c.05.43.19.75.43.97.24.22.57.34.99.34.35,0,.61-.07.8-.2.18-.13.28-.33.28-.58,0-.23-.06-.41-.17-.53-.12-.13-.34-.23-.68-.33l-.7-.2c-.53-.15-.92-.36-1.16-.63-.24-.27-.36-.64-.36-1.11,0-.62.19-1.08.58-1.38.39-.3.98-.45,1.79-.45.3,0,.63.03.97.08.34.06.72.14,1.14.26v1.44h-.55c-.03-.39-.15-.68-.37-.88-.22-.2-.54-.3-.95-.3-.35,0-.61.06-.79.19-.18.12-.27.3-.27.54,0,.19.05.35.16.46s.29.2.56.28l.7.2c.67.19,1.14.42,1.4.7s.39.67.39,1.17c0,.64-.21,1.12-.62,1.43-.41.31-1.06.46-1.93.46-.32,0-.66-.03-1.02-.08s-.74-.13-1.14-.24Z"/>
      <path class="st0" d="M129.28,343.26h-3.53v.04c0,.74.1,1.27.3,1.6.2.33.52.49.97.49.37,0,.67-.11.9-.33s.38-.54.44-.95h.81c-.14.65-.42,1.12-.83,1.43-.41.3-.99.46-1.73.46-.89,0-1.57-.26-2.05-.78-.47-.52-.71-1.26-.71-2.23s.24-1.68.73-2.21c.49-.53,1.16-.79,2.03-.79s1.5.28,1.96.83c.45.56.7,1.37.73,2.45ZM127.4,342.62c0-.75-.06-1.28-.19-1.58-.13-.3-.34-.45-.64-.45s-.5.15-.63.45c-.13.3-.19.79-.19,1.49v.1h1.65Z"/>
      <path class="st0" d="M139.13,345.19h.73v.65h-2.44v-.73c-.14.3-.34.52-.59.66-.25.14-.55.22-.91.22-.73,0-1.3-.27-1.72-.81-.42-.54-.63-1.27-.63-2.21s.21-1.67.63-2.21c.42-.53.99-.8,1.72-.8.36,0,.67.07.91.22.25.14.44.37.59.66v-2.73h-.74v-.64h2.45v7.71ZM137.42,343.27v-.56c0-.67-.08-1.15-.23-1.44s-.4-.45-.74-.45-.6.16-.75.47c-.14.31-.21.88-.21,1.7s.07,1.39.22,1.7c.15.31.39.47.74.47s.59-.15.74-.45.23-.78.23-1.44Z"/>
      <path class="st0" d="M143.4,346c-.91,0-1.62-.27-2.13-.8-.51-.54-.77-1.27-.77-2.21s.26-1.68.77-2.21c.51-.53,1.22-.8,2.13-.8s1.62.27,2.13.8c.51.53.77,1.27.77,2.21s-.26,1.67-.77,2.21c-.52.54-1.22.8-2.13.8ZM143.4,345.39c.36,0,.61-.17.76-.52s.22-.97.22-1.89-.07-1.55-.22-1.89c-.14-.34-.4-.51-.76-.51s-.62.17-.77.52c-.15.35-.22.97-.22,1.88s.07,1.54.22,1.89c.15.35.41.52.77.52Z"/>
      <path class="st0" d="M147.15,345.68v-1.6h.55c.05.43.19.75.43.97.24.22.57.34.99.34.35,0,.61-.07.8-.2.18-.13.28-.33.28-.58,0-.23-.06-.41-.17-.53-.12-.13-.34-.23-.68-.33l-.7-.2c-.53-.15-.92-.36-1.16-.63-.24-.27-.36-.64-.36-1.11,0-.62.19-1.08.58-1.38.39-.3.98-.45,1.79-.45.3,0,.63.03.97.08.34.06.72.14,1.14.26v1.44h-.55c-.03-.39-.15-.68-.37-.88-.22-.2-.54-.3-.95-.3-.35,0-.61.06-.79.19-.18.12-.27.3-.27.54,0,.19.05.35.16.46s.29.2.56.28l.7.2c.67.19,1.14.42,1.4.7s.39.67.39,1.17c0,.64-.21,1.12-.62,1.43-.41.31-1.06.46-1.93.46-.32,0-.66-.03-1.02-.08s-.74-.13-1.14-.24Z"/>
      <path class="st0" d="M161.02,340.07v1.7h-.55c-.02-.3-.09-.53-.22-.68-.13-.15-.32-.22-.56-.22-.37,0-.67.18-.88.55s-.32.87-.32,1.52v2.26h.93v.65h-3.37v-.65h.73v-4.41h-.78v-.65h2.5v1.02c.16-.4.38-.69.66-.88.28-.19.61-.29,1.02-.29.1,0,.22,0,.37.02.14.02.31.04.49.07Z"/>
      <path class="st0" d="M166.77,343.26h-3.53v.04c0,.74.1,1.27.3,1.6.2.33.52.49.97.49.37,0,.67-.11.9-.33s.38-.54.44-.95h.81c-.14.65-.42,1.12-.83,1.43-.41.3-.99.46-1.73.46-.89,0-1.57-.26-2.05-.78-.47-.52-.71-1.26-.71-2.23s.24-1.68.73-2.21c.49-.53,1.16-.79,2.03-.79s1.5.28,1.96.83c.45.56.7,1.37.73,2.45ZM164.89,342.62c0-.75-.06-1.28-.19-1.58-.13-.3-.34-.45-.64-.45s-.5.15-.63.45c-.13.3-.19.79-.19,1.49v.1h1.65Z"/>
      <path class="st0" d="M167.67,345.68v-1.6h.55c.05.43.19.75.43.97.24.22.57.34.99.34.35,0,.61-.07.8-.2.18-.13.28-.33.28-.58,0-.23-.06-.41-.17-.53-.12-.13-.34-.23-.68-.33l-.7-.2c-.53-.15-.92-.36-1.16-.63-.24-.27-.36-.64-.36-1.11,0-.62.19-1.08.58-1.38.39-.3.98-.45,1.79-.45.3,0,.63.03.97.08.34.06.72.14,1.14.26v1.44h-.55c-.03-.39-.15-.68-.37-.88-.22-.2-.54-.3-.95-.3-.35,0-.61.06-.79.19-.18.12-.27.3-.27.54,0,.19.05.35.16.46s.29.2.56.28l.7.2c.67.19,1.14.42,1.4.7s.39.67.39,1.17c0,.64-.21,1.12-.62,1.43-.41.31-1.06.46-1.93.46-.32,0-.66-.03-1.02-.08s-.74-.13-1.14-.24Z"/>
      <path class="st0" d="M178.91,340.13v5.06h.73v.65h-2.44v-.81c-.2.34-.44.59-.7.74s-.6.23-1,.23c-.58,0-1.01-.19-1.31-.57-.29-.38-.44-.93-.44-1.67v-2.98h-.74v-.65h2.45v3.34c0,.71.05,1.16.16,1.35.11.19.3.29.58.29.35,0,.6-.14.76-.42.16-.28.24-.73.24-1.35v-2.55h-.62v-.65h2.34Z"/>
      <path class="st0" d="M182.76,345.19h.73v.65h-3.17v-.65h.73v-7.06h-.73v-.64h2.44v7.71Z"/>
      <path class="st0" d="M184.72,340.78h-.75v-.65h.75v-1.77h1.71v1.77h1.43v.65h-1.43v3.5c0,.5.04.81.11.93s.2.18.39.18c.21,0,.36-.08.46-.23.1-.15.15-.39.16-.71h.72c-.03.57-.17.97-.42,1.21-.25.23-.69.35-1.31.35-.71,0-1.18-.12-1.43-.37-.25-.25-.38-.7-.38-1.35v-3.5Z"/>
      <path class="st0" d="M193.76,342.33v2.86h.74v.65h-2.44v-.73c-.23.3-.48.52-.75.67-.28.14-.59.21-.95.21-.53,0-.93-.16-1.21-.47-.28-.31-.42-.76-.42-1.35,0-.64.2-1.12.61-1.44s1.01-.48,1.83-.48h.9v-.34c0-.46-.1-.8-.3-1.02-.2-.22-.5-.33-.91-.33-.34,0-.61.08-.79.23-.18.16-.32.41-.4.77h-.55v-1.23c.31-.12.63-.21.95-.27.33-.06.67-.09,1.04-.09.92,0,1.59.19,2.02.57s.64.98.64,1.79ZM192.05,344.05v-1.14h-.64c-.32,0-.56.1-.74.29s-.26.47-.26.83.06.63.19.81.31.27.57.27.48-.1.64-.29.24-.45.24-.77Z"/>
      <path class="st0" d="M200.69,345.19h.73v.65h-2.44v-.73c-.14.3-.34.52-.59.66-.25.14-.55.22-.91.22-.73,0-1.3-.27-1.72-.81-.42-.54-.63-1.27-.63-2.21s.21-1.67.63-2.21c.42-.53.99-.8,1.72-.8.36,0,.67.07.91.22.25.14.44.37.59.66v-2.73h-.74v-.64h2.45v7.71ZM198.97,343.27v-.56c0-.67-.08-1.15-.23-1.44s-.4-.45-.74-.45-.6.16-.75.47c-.14.31-.21.88-.21,1.7s.07,1.39.22,1.7c.15.31.39.47.74.47s.59-.15.74-.45.23-.78.23-1.44Z"/>
      <path class="st0" d="M204.95,346c-.91,0-1.62-.27-2.13-.8-.51-.54-.77-1.27-.77-2.21s.26-1.68.77-2.21c.51-.53,1.22-.8,2.13-.8s1.62.27,2.13.8c.51.53.77,1.27.77,2.21s-.26,1.67-.77,2.21c-.52.54-1.22.8-2.13.8ZM204.95,345.39c.36,0,.61-.17.76-.52s.22-.97.22-1.89-.07-1.55-.22-1.89c-.14-.34-.4-.51-.76-.51s-.62.17-.77.52c-.15.35-.22.97-.22,1.88s.07,1.54.22,1.89c.15.35.41.52.77.52Z"/>
      <path class="st0" d="M208.7,345.68v-1.6h.55c.05.43.19.75.43.97.24.22.57.34.99.34.35,0,.61-.07.8-.2.18-.13.28-.33.28-.58,0-.23-.06-.41-.17-.53-.12-.13-.34-.23-.68-.33l-.7-.2c-.53-.15-.92-.36-1.16-.63-.24-.27-.36-.64-.36-1.11,0-.62.19-1.08.58-1.38.39-.3.98-.45,1.79-.45.3,0,.63.03.97.08.34.06.72.14,1.14.26v1.44h-.55c-.03-.39-.15-.68-.37-.88-.22-.2-.54-.3-.95-.3-.35,0-.61.06-.79.19-.18.12-.27.3-.27.54,0,.19.05.35.16.46s.29.2.56.28l.7.2c.67.19,1.14.42,1.4.7s.39.67.39,1.17c0,.64-.21,1.12-.62,1.43-.41.31-1.06.46-1.93.46-.32,0-.66-.03-1.02-.08s-.74-.13-1.14-.24Z"/>
    </g>
  </g>
  <g>
    <line class="st2" x1="151.43" y1="292.13" x2="151.43" y2="321.66"/>
    <polygon class="st0" points="151.43 328.72 147.37 318.77 151.43 321.13 155.5 318.77 151.43 328.72"/>
  </g>
</svg>