<?xml version="1.0" encoding="utf-8" standalone="no"?>
<!DOCTYPE svg PUBLIC "-//W3C//DTD SVG 1.1//EN"
  "http://www.w3.org/Graphics/SVG/1.1/DTD/svg11.dtd">
<svg xmlns:xlink="http://www.w3.org/1999/xlink" width="216pt" height="216pt" viewBox="0 0 216 216" xmlns="http://www.w3.org/2000/svg" version="1.1">
 <metadata>
  <rdf:RDF xmlns:dc="http://purl.org/dc/elements/1.1/" xmlns:cc="http://creativecommons.org/ns#" xmlns:rdf="http://www.w3.org/1999/02/22-rdf-syntax-ns#">
   <cc:Work>
    <dc:type rdf:resource="http://purl.org/dc/dcmitype/StillImage"/>
    <dc:date>2025-06-18T03:27:20.984467</dc:date>
    <dc:format>image/svg+xml</dc:format>
    <dc:creator>
     <cc:Agent>
      <dc:title>Matplotlib v3.10.1, https://matplotlib.org/</dc:title>
     </cc:Agent>
    </dc:creator>
   </cc:Work>
  </rdf:RDF>
 </metadata>
 <defs>
  <style type="text/css">*{stroke-linejoin: round; stroke-linecap: butt}</style>
 </defs>
 <g id="figure_1">
  <g id="patch_1">
   <path d="M 0 216 
L 216 216 
L 216 0 
L 0 0 
L 0 216 
z
" style="fill: none"/>
  </g>
  <g id="axes_1">
   <g id="patch_2">
    <path d="M 47.09 181.24 
L 206.113329 181.24 
L 206.113329 29.588 
L 47.09 29.588 
L 47.09 181.24 
z
" style="fill: none"/>
   </g>
   <g id="matplotlib.axis_1">
    <g id="xtick_1">
     <g id="line2d_1">
      <path d="M 50.791187 181.24 
L 50.791187 29.588 
" clip-path="url(#pfe625884c2)" style="fill: none; stroke-dasharray: 2.96,1.28; stroke-dashoffset: 0; stroke: #b0b0b0; stroke-opacity: 0.5; stroke-width: 0.8"/>
     </g>
     <g id="line2d_2">
      <defs>
       <path id="m3315cf10f6" d="M 0 0 
L 0 3.5 
" style="stroke: #000000; stroke-width: 0.8"/>
      </defs>
      <g>
       <use xlink:href="#m3315cf10f6" x="50.791187" y="181.24" style="stroke: #000000; stroke-width: 0.8"/>
      </g>
     </g>
     <g id="text_1">
      <!-- 0.0 -->
      <g transform="translate(44.429937 194.31875) scale(0.08 -0.08)">
       <defs>
        <path id="DejaVuSerif-30" d="M 2034 219 
Q 2513 219 2750 744 
Q 2988 1269 2988 2328 
Q 2988 3391 2750 3916 
Q 2513 4441 2034 4441 
Q 1556 4441 1318 3916 
Q 1081 3391 1081 2328 
Q 1081 1269 1318 744 
Q 1556 219 2034 219 
z
M 2034 -91 
Q 1275 -91 848 546 
Q 422 1184 422 2328 
Q 422 3475 848 4112 
Q 1275 4750 2034 4750 
Q 2797 4750 3222 4112 
Q 3647 3475 3647 2328 
Q 3647 1184 3222 546 
Q 2797 -91 2034 -91 
z
" transform="scale(0.015625)"/>
        <path id="DejaVuSerif-2e" d="M 603 325 
Q 603 500 722 622 
Q 841 744 1019 744 
Q 1191 744 1312 622 
Q 1434 500 1434 325 
Q 1434 153 1312 31 
Q 1191 -91 1019 -91 
Q 841 -91 722 29 
Q 603 150 603 325 
z
" transform="scale(0.015625)"/>
       </defs>
       <use xlink:href="#DejaVuSerif-30"/>
       <use xlink:href="#DejaVuSerif-2e" transform="translate(63.623047 0)"/>
       <use xlink:href="#DejaVuSerif-30" transform="translate(95.410156 0)"/>
      </g>
     </g>
    </g>
    <g id="xtick_2">
     <g id="line2d_3">
      <path d="M 80.878424 181.24 
L 80.878424 29.588 
" clip-path="url(#pfe625884c2)" style="fill: none; stroke-dasharray: 2.96,1.28; stroke-dashoffset: 0; stroke: #b0b0b0; stroke-opacity: 0.5; stroke-width: 0.8"/>
     </g>
     <g id="line2d_4">
      <g>
       <use xlink:href="#m3315cf10f6" x="80.878424" y="181.24" style="stroke: #000000; stroke-width: 0.8"/>
      </g>
     </g>
     <g id="text_2">
      <!-- 0.2 -->
      <g transform="translate(74.517174 194.31875) scale(0.08 -0.08)">
       <defs>
        <path id="DejaVuSerif-32" d="M 819 3553 
L 469 3553 
L 469 4384 
Q 803 4563 1142 4656 
Q 1481 4750 1806 4750 
Q 2534 4750 2956 4397 
Q 3378 4044 3378 3438 
Q 3378 2753 2422 1800 
Q 2347 1728 2309 1691 
L 1131 513 
L 3078 513 
L 3078 1088 
L 3444 1088 
L 3444 0 
L 434 0 
L 434 341 
L 1850 1753 
Q 2319 2222 2519 2614 
Q 2719 3006 2719 3438 
Q 2719 3909 2473 4175 
Q 2228 4441 1797 4441 
Q 1350 4441 1106 4219 
Q 863 3997 819 3553 
z
" transform="scale(0.015625)"/>
       </defs>
       <use xlink:href="#DejaVuSerif-30"/>
       <use xlink:href="#DejaVuSerif-2e" transform="translate(63.623047 0)"/>
       <use xlink:href="#DejaVuSerif-32" transform="translate(95.410156 0)"/>
      </g>
     </g>
    </g>
    <g id="xtick_3">
     <g id="line2d_5">
      <path d="M 110.965661 181.24 
L 110.965661 29.588 
" clip-path="url(#pfe625884c2)" style="fill: none; stroke-dasharray: 2.96,1.28; stroke-dashoffset: 0; stroke: #b0b0b0; stroke-opacity: 0.5; stroke-width: 0.8"/>
     </g>
     <g id="line2d_6">
      <g>
       <use xlink:href="#m3315cf10f6" x="110.965661" y="181.24" style="stroke: #000000; stroke-width: 0.8"/>
      </g>
     </g>
     <g id="text_3">
      <!-- 0.4 -->
      <g transform="translate(104.604411 194.31875) scale(0.08 -0.08)">
       <defs>
        <path id="DejaVuSerif-34" d="M 2234 1581 
L 2234 4063 
L 641 1581 
L 2234 1581 
z
M 3609 0 
L 1484 0 
L 1484 331 
L 2234 331 
L 2234 1247 
L 197 1247 
L 197 1588 
L 2241 4750 
L 2859 4750 
L 2859 1581 
L 3750 1581 
L 3750 1247 
L 2859 1247 
L 2859 331 
L 3609 331 
L 3609 0 
z
" transform="scale(0.015625)"/>
       </defs>
       <use xlink:href="#DejaVuSerif-30"/>
       <use xlink:href="#DejaVuSerif-2e" transform="translate(63.623047 0)"/>
       <use xlink:href="#DejaVuSerif-34" transform="translate(95.410156 0)"/>
      </g>
     </g>
    </g>
    <g id="xtick_4">
     <g id="line2d_7">
      <path d="M 141.052898 181.24 
L 141.052898 29.588 
" clip-path="url(#pfe625884c2)" style="fill: none; stroke-dasharray: 2.96,1.28; stroke-dashoffset: 0; stroke: #b0b0b0; stroke-opacity: 0.5; stroke-width: 0.8"/>
     </g>
     <g id="line2d_8">
      <g>
       <use xlink:href="#m3315cf10f6" x="141.052898" y="181.24" style="stroke: #000000; stroke-width: 0.8"/>
      </g>
     </g>
     <g id="text_4">
      <!-- 0.6 -->
      <g transform="translate(134.691648 194.31875) scale(0.08 -0.08)">
       <defs>
        <path id="DejaVuSerif-36" d="M 2094 219 
Q 2534 219 2771 542 
Q 3009 866 3009 1472 
Q 3009 2078 2771 2401 
Q 2534 2725 2094 2725 
Q 1647 2725 1412 2412 
Q 1178 2100 1178 1509 
Q 1178 888 1415 553 
Q 1653 219 2094 219 
z
M 1075 2569 
Q 1288 2803 1556 2918 
Q 1825 3034 2163 3034 
Q 2859 3034 3264 2615 
Q 3669 2197 3669 1472 
Q 3669 763 3233 336 
Q 2797 -91 2069 -91 
Q 1278 -91 853 498 
Q 428 1088 428 2181 
Q 428 3406 931 4078 
Q 1434 4750 2350 4750 
Q 2597 4750 2869 4703 
Q 3141 4656 3425 4563 
L 3425 3794 
L 3072 3794 
Q 3034 4109 2831 4275 
Q 2628 4441 2284 4441 
Q 1678 4441 1381 3981 
Q 1084 3522 1075 2569 
z
" transform="scale(0.015625)"/>
       </defs>
       <use xlink:href="#DejaVuSerif-30"/>
       <use xlink:href="#DejaVuSerif-2e" transform="translate(63.623047 0)"/>
       <use xlink:href="#DejaVuSerif-36" transform="translate(95.410156 0)"/>
      </g>
     </g>
    </g>
    <g id="xtick_5">
     <g id="line2d_9">
      <path d="M 171.140135 181.24 
L 171.140135 29.588 
" clip-path="url(#pfe625884c2)" style="fill: none; stroke-dasharray: 2.96,1.28; stroke-dashoffset: 0; stroke: #b0b0b0; stroke-opacity: 0.5; stroke-width: 0.8"/>
     </g>
     <g id="line2d_10">
      <g>
       <use xlink:href="#m3315cf10f6" x="171.140135" y="181.24" style="stroke: #000000; stroke-width: 0.8"/>
      </g>
     </g>
     <g id="text_5">
      <!-- 0.8 -->
      <g transform="translate(164.778885 194.31875) scale(0.08 -0.08)">
       <defs>
        <path id="DejaVuSerif-38" d="M 2981 1275 
Q 2981 1775 2732 2051 
Q 2484 2328 2034 2328 
Q 1584 2328 1336 2051 
Q 1088 1775 1088 1275 
Q 1088 772 1336 495 
Q 1584 219 2034 219 
Q 2484 219 2732 495 
Q 2981 772 2981 1275 
z
M 2853 3541 
Q 2853 3966 2637 4203 
Q 2422 4441 2034 4441 
Q 1650 4441 1433 4203 
Q 1216 3966 1216 3541 
Q 1216 3113 1433 2875 
Q 1650 2638 2034 2638 
Q 2422 2638 2637 2875 
Q 2853 3113 2853 3541 
z
M 2516 2484 
Q 3047 2413 3344 2092 
Q 3641 1772 3641 1275 
Q 3641 619 3225 264 
Q 2809 -91 2034 -91 
Q 1263 -91 845 264 
Q 428 619 428 1275 
Q 428 1772 725 2092 
Q 1022 2413 1556 2484 
Q 1084 2569 832 2842 
Q 581 3116 581 3541 
Q 581 4103 968 4426 
Q 1356 4750 2034 4750 
Q 2713 4750 3100 4426 
Q 3488 4103 3488 3541 
Q 3488 3116 3236 2842 
Q 2984 2569 2516 2484 
z
" transform="scale(0.015625)"/>
       </defs>
       <use xlink:href="#DejaVuSerif-30"/>
       <use xlink:href="#DejaVuSerif-2e" transform="translate(63.623047 0)"/>
       <use xlink:href="#DejaVuSerif-38" transform="translate(95.410156 0)"/>
      </g>
     </g>
    </g>
    <g id="xtick_6">
     <g id="line2d_11">
      <path d="M 201.227371 181.24 
L 201.227371 29.588 
" clip-path="url(#pfe625884c2)" style="fill: none; stroke-dasharray: 2.96,1.28; stroke-dashoffset: 0; stroke: #b0b0b0; stroke-opacity: 0.5; stroke-width: 0.8"/>
     </g>
     <g id="line2d_12">
      <g>
       <use xlink:href="#m3315cf10f6" x="201.227371" y="181.24" style="stroke: #000000; stroke-width: 0.8"/>
      </g>
     </g>
     <g id="text_6">
      <!-- 1.0 -->
      <g transform="translate(194.866121 194.31875) scale(0.08 -0.08)">
       <defs>
        <path id="DejaVuSerif-31" d="M 909 0 
L 909 331 
L 1722 331 
L 1722 4213 
L 781 3603 
L 781 4013 
L 1919 4750 
L 2350 4750 
L 2350 331 
L 3163 331 
L 3163 0 
L 909 0 
z
" transform="scale(0.015625)"/>
       </defs>
       <use xlink:href="#DejaVuSerif-31"/>
       <use xlink:href="#DejaVuSerif-2e" transform="translate(63.623047 0)"/>
       <use xlink:href="#DejaVuSerif-30" transform="translate(95.410156 0)"/>
      </g>
     </g>
    </g>
    <g id="text_7">
     <!-- Variável Independente -->
     <g transform="translate(80.870415 206.38125) scale(0.08 -0.08)">
      <defs>
       <path id="DejaVuSerif-56" d="M 1119 4331 
L 2497 750 
L 3872 4331 
L 3347 4331 
L 3347 4666 
L 4716 4666 
L 4716 4331 
L 4263 4331 
L 2597 0 
L 2059 0 
L 403 4331 
L -63 4331 
L -63 4666 
L 1638 4666 
L 1638 4331 
L 1119 4331 
z
" transform="scale(0.015625)"/>
       <path id="DejaVuSerif-61" d="M 2547 1044 
L 2547 1747 
L 1806 1747 
Q 1378 1747 1168 1562 
Q 959 1378 959 997 
Q 959 650 1171 447 
Q 1384 244 1747 244 
Q 2106 244 2326 466 
Q 2547 688 2547 1044 
z
M 3122 2075 
L 3122 331 
L 3634 331 
L 3634 0 
L 2547 0 
L 2547 359 
Q 2356 128 2106 18 
Q 1856 -91 1522 -91 
Q 969 -91 644 203 
Q 319 497 319 997 
Q 319 1513 691 1797 
Q 1063 2081 1741 2081 
L 2547 2081 
L 2547 2309 
Q 2547 2688 2317 2895 
Q 2088 3103 1672 3103 
Q 1328 3103 1125 2947 
Q 922 2791 872 2484 
L 575 2484 
L 575 3156 
Q 875 3284 1158 3348 
Q 1441 3413 1709 3413 
Q 2400 3413 2761 3070 
Q 3122 2728 3122 2075 
z
" transform="scale(0.015625)"/>
       <path id="DejaVuSerif-72" d="M 3059 3328 
L 3059 2497 
L 2728 2497 
Q 2713 2744 2591 2866 
Q 2469 2988 2234 2988 
Q 1809 2988 1582 2694 
Q 1356 2400 1356 1850 
L 1356 331 
L 2022 331 
L 2022 0 
L 263 0 
L 263 331 
L 781 331 
L 781 2994 
L 231 2994 
L 231 3322 
L 1356 3322 
L 1356 2731 
Q 1525 3078 1790 3245 
Q 2056 3413 2438 3413 
Q 2578 3413 2733 3391 
Q 2888 3369 3059 3328 
z
" transform="scale(0.015625)"/>
       <path id="DejaVuSerif-69" d="M 622 4353 
Q 622 4497 726 4603 
Q 831 4709 978 4709 
Q 1122 4709 1226 4603 
Q 1331 4497 1331 4353 
Q 1331 4206 1228 4103 
Q 1125 4000 978 4000 
Q 831 4000 726 4103 
Q 622 4206 622 4353 
z
M 1356 331 
L 1900 331 
L 1900 0 
L 231 0 
L 231 331 
L 781 331 
L 781 2988 
L 231 2988 
L 231 3322 
L 1356 3322 
L 1356 331 
z
" transform="scale(0.015625)"/>
       <path id="DejaVuSerif-e1" d="M 2547 1044 
L 2547 1747 
L 1806 1747 
Q 1378 1747 1168 1562 
Q 959 1378 959 997 
Q 959 650 1171 447 
Q 1384 244 1747 244 
Q 2106 244 2326 466 
Q 2547 688 2547 1044 
z
M 3122 2075 
L 3122 331 
L 3634 331 
L 3634 0 
L 2547 0 
L 2547 359 
Q 2356 128 2106 18 
Q 1856 -91 1522 -91 
Q 969 -91 644 203 
Q 319 497 319 997 
Q 319 1513 691 1797 
Q 1063 2081 1741 2081 
L 2547 2081 
L 2547 2309 
Q 2547 2688 2317 2895 
Q 2088 3103 1672 3103 
Q 1328 3103 1125 2947 
Q 922 2791 872 2484 
L 575 2484 
L 575 3156 
Q 875 3284 1158 3348 
Q 1441 3413 1709 3413 
Q 2400 3413 2761 3070 
Q 3122 2728 3122 2075 
z
M 2210 5119 
L 2832 5119 
L 1770 3944 
L 1404 3944 
L 2210 5119 
z
" transform="scale(0.015625)"/>
       <path id="DejaVuSerif-76" d="M 1581 0 
L 359 2988 
L -19 2988 
L -19 3322 
L 1509 3322 
L 1509 2988 
L 978 2988 
L 1913 703 
L 2847 2988 
L 2350 2988 
L 2350 3322 
L 3597 3322 
L 3597 2988 
L 3225 2988 
L 2003 0 
L 1581 0 
z
" transform="scale(0.015625)"/>
       <path id="DejaVuSerif-65" d="M 3469 1600 
L 991 1600 
L 991 1575 
Q 991 903 1244 561 
Q 1497 219 1991 219 
Q 2369 219 2611 417 
Q 2853 616 2950 1006 
L 3413 1006 
Q 3275 459 2904 184 
Q 2534 -91 1931 -91 
Q 1203 -91 761 389 
Q 319 869 319 1663 
Q 319 2450 753 2931 
Q 1188 3413 1894 3413 
Q 2647 3413 3050 2948 
Q 3453 2484 3469 1600 
z
M 2791 1931 
Q 2772 2513 2545 2808 
Q 2319 3103 1894 3103 
Q 1497 3103 1269 2806 
Q 1041 2509 991 1931 
L 2791 1931 
z
" transform="scale(0.015625)"/>
       <path id="DejaVuSerif-6c" d="M 1313 331 
L 1856 331 
L 1856 0 
L 184 0 
L 184 331 
L 738 331 
L 738 4531 
L 184 4531 
L 184 4863 
L 1313 4863 
L 1313 331 
z
" transform="scale(0.015625)"/>
       <path id="DejaVuSerif-20" transform="scale(0.015625)"/>
       <path id="DejaVuSerif-49" d="M 1581 331 
L 2175 331 
L 2175 0 
L 353 0 
L 353 331 
L 947 331 
L 947 4331 
L 353 4331 
L 353 4666 
L 2175 4666 
L 2175 4331 
L 1581 4331 
L 1581 331 
z
" transform="scale(0.015625)"/>
       <path id="DejaVuSerif-6e" d="M 263 0 
L 263 331 
L 781 331 
L 781 2988 
L 231 2988 
L 231 3322 
L 1356 3322 
L 1356 2731 
Q 1516 3069 1770 3241 
Q 2025 3413 2363 3413 
Q 2913 3413 3172 3097 
Q 3431 2781 3431 2113 
L 3431 331 
L 3944 331 
L 3944 0 
L 2356 0 
L 2356 331 
L 2853 331 
L 2853 1931 
Q 2853 2541 2703 2767 
Q 2553 2994 2175 2994 
Q 1775 2994 1565 2701 
Q 1356 2409 1356 1850 
L 1356 331 
L 1856 331 
L 1856 0 
L 263 0 
z
" transform="scale(0.015625)"/>
       <path id="DejaVuSerif-64" d="M 3359 331 
L 3909 331 
L 3909 0 
L 2784 0 
L 2784 519 
Q 2616 206 2355 57 
Q 2094 -91 1709 -91 
Q 1097 -91 708 395 
Q 319 881 319 1663 
Q 319 2444 706 2928 
Q 1094 3413 1709 3413 
Q 2094 3413 2355 3264 
Q 2616 3116 2784 2803 
L 2784 4531 
L 2241 4531 
L 2241 4863 
L 3359 4863 
L 3359 331 
z
M 2784 1497 
L 2784 1825 
Q 2784 2422 2554 2737 
Q 2325 3053 1888 3053 
Q 1444 3053 1217 2703 
Q 991 2353 991 1663 
Q 991 975 1217 622 
Q 1444 269 1888 269 
Q 2325 269 2554 583 
Q 2784 897 2784 1497 
z
" transform="scale(0.015625)"/>
       <path id="DejaVuSerif-70" d="M 1313 1825 
L 1313 1497 
Q 1313 897 1542 583 
Q 1772 269 2209 269 
Q 2650 269 2876 622 
Q 3103 975 3103 1663 
Q 3103 2353 2876 2703 
Q 2650 3053 2209 3053 
Q 1772 3053 1542 2737 
Q 1313 2422 1313 1825 
z
M 738 2988 
L 184 2988 
L 184 3322 
L 1313 3322 
L 1313 2803 
Q 1481 3116 1742 3264 
Q 2003 3413 2388 3413 
Q 3000 3413 3387 2928 
Q 3775 2444 3775 1663 
Q 3775 881 3387 395 
Q 3000 -91 2388 -91 
Q 2003 -91 1742 57 
Q 1481 206 1313 519 
L 1313 -997 
L 1856 -997 
L 1856 -1331 
L 184 -1331 
L 184 -997 
L 738 -997 
L 738 2988 
z
" transform="scale(0.015625)"/>
       <path id="DejaVuSerif-74" d="M 691 2988 
L 184 2988 
L 184 3322 
L 691 3322 
L 691 4353 
L 1269 4353 
L 1269 3322 
L 2350 3322 
L 2350 2988 
L 1269 2988 
L 1269 878 
Q 1269 456 1350 337 
Q 1431 219 1650 219 
Q 1875 219 1978 351 
Q 2081 484 2088 781 
L 2522 781 
Q 2497 328 2275 118 
Q 2053 -91 1600 -91 
Q 1103 -91 897 129 
Q 691 350 691 878 
L 691 2988 
z
" transform="scale(0.015625)"/>
      </defs>
      <use xlink:href="#DejaVuSerif-56"/>
      <use xlink:href="#DejaVuSerif-61" transform="translate(63.091797 0)"/>
      <use xlink:href="#DejaVuSerif-72" transform="translate(122.710938 0)"/>
      <use xlink:href="#DejaVuSerif-69" transform="translate(170.513672 0)"/>
      <use xlink:href="#DejaVuSerif-e1" transform="translate(202.496094 0)"/>
      <use xlink:href="#DejaVuSerif-76" transform="translate(262.115234 0)"/>
      <use xlink:href="#DejaVuSerif-65" transform="translate(318.609375 0)"/>
      <use xlink:href="#DejaVuSerif-6c" transform="translate(377.789062 0)"/>
      <use xlink:href="#DejaVuSerif-20" transform="translate(409.771484 0)"/>
      <use xlink:href="#DejaVuSerif-49" transform="translate(441.558594 0)"/>
      <use xlink:href="#DejaVuSerif-6e" transform="translate(481.060547 0)"/>
      <use xlink:href="#DejaVuSerif-64" transform="translate(545.464844 0)"/>
      <use xlink:href="#DejaVuSerif-65" transform="translate(609.478516 0)"/>
      <use xlink:href="#DejaVuSerif-70" transform="translate(668.658203 0)"/>
      <use xlink:href="#DejaVuSerif-65" transform="translate(732.671875 0)"/>
      <use xlink:href="#DejaVuSerif-6e" transform="translate(791.851562 0)"/>
      <use xlink:href="#DejaVuSerif-64" transform="translate(856.255859 0)"/>
      <use xlink:href="#DejaVuSerif-65" transform="translate(920.269531 0)"/>
      <use xlink:href="#DejaVuSerif-6e" transform="translate(979.449219 0)"/>
      <use xlink:href="#DejaVuSerif-74" transform="translate(1043.853516 0)"/>
      <use xlink:href="#DejaVuSerif-65" transform="translate(1084.039062 0)"/>
     </g>
    </g>
   </g>
   <g id="matplotlib.axis_2">
    <g id="ytick_1">
     <g id="line2d_13">
      <path d="M 47.09 161.342125 
L 206.113329 161.342125 
" clip-path="url(#pfe625884c2)" style="fill: none; stroke-dasharray: 2.96,1.28; stroke-dashoffset: 0; stroke: #b0b0b0; stroke-opacity: 0.5; stroke-width: 0.8"/>
     </g>
     <g id="line2d_14">
      <defs>
       <path id="mb543564249" d="M 0 0 
L -3.5 0 
" style="stroke: #000000; stroke-width: 0.8"/>
      </defs>
      <g>
       <use xlink:href="#mb543564249" x="47.09" y="161.342125" style="stroke: #000000; stroke-width: 0.8"/>
      </g>
     </g>
     <g id="text_8">
      <!-- −1.0 -->
      <g transform="translate(20.66375 164.3815) scale(0.08 -0.08)">
       <defs>
        <path id="DejaVuSerif-2212" d="M 678 2259 
L 4684 2259 
L 4684 1753 
L 678 1753 
L 678 2259 
z
" transform="scale(0.015625)"/>
       </defs>
       <use xlink:href="#DejaVuSerif-2212"/>
       <use xlink:href="#DejaVuSerif-31" transform="translate(83.789062 0)"/>
       <use xlink:href="#DejaVuSerif-2e" transform="translate(147.412109 0)"/>
       <use xlink:href="#DejaVuSerif-30" transform="translate(179.199219 0)"/>
      </g>
     </g>
    </g>
    <g id="ytick_2">
     <g id="line2d_15">
      <path d="M 47.09 131.355445 
L 206.113329 131.355445 
" clip-path="url(#pfe625884c2)" style="fill: none; stroke-dasharray: 2.96,1.28; stroke-dashoffset: 0; stroke: #b0b0b0; stroke-opacity: 0.5; stroke-width: 0.8"/>
     </g>
     <g id="line2d_16">
      <g>
       <use xlink:href="#mb543564249" x="47.09" y="131.355445" style="stroke: #000000; stroke-width: 0.8"/>
      </g>
     </g>
     <g id="text_9">
      <!-- −0.5 -->
      <g transform="translate(20.66375 134.39482) scale(0.08 -0.08)">
       <defs>
        <path id="DejaVuSerif-35" d="M 3219 4666 
L 3219 4153 
L 1081 4153 
L 1081 2816 
Q 1244 2928 1461 2984 
Q 1678 3041 1947 3041 
Q 2703 3041 3140 2622 
Q 3578 2203 3578 1478 
Q 3578 738 3136 323 
Q 2694 -91 1894 -91 
Q 1572 -91 1234 -12 
Q 897 66 544 225 
L 544 1131 
L 897 1131 
Q 925 688 1179 453 
Q 1434 219 1894 219 
Q 2388 219 2653 544 
Q 2919 869 2919 1478 
Q 2919 2084 2655 2407 
Q 2391 2731 1894 2731 
Q 1613 2731 1398 2631 
Q 1184 2531 1019 2322 
L 750 2322 
L 750 4666 
L 3219 4666 
z
" transform="scale(0.015625)"/>
       </defs>
       <use xlink:href="#DejaVuSerif-2212"/>
       <use xlink:href="#DejaVuSerif-30" transform="translate(83.789062 0)"/>
       <use xlink:href="#DejaVuSerif-2e" transform="translate(147.412109 0)"/>
       <use xlink:href="#DejaVuSerif-35" transform="translate(179.199219 0)"/>
      </g>
     </g>
    </g>
    <g id="ytick_3">
     <g id="line2d_17">
      <path d="M 47.09 101.368764 
L 206.113329 101.368764 
" clip-path="url(#pfe625884c2)" style="fill: none; stroke-dasharray: 2.96,1.28; stroke-dashoffset: 0; stroke: #b0b0b0; stroke-opacity: 0.5; stroke-width: 0.8"/>
     </g>
     <g id="line2d_18">
      <g>
       <use xlink:href="#mb543564249" x="47.09" y="101.368764" style="stroke: #000000; stroke-width: 0.8"/>
      </g>
     </g>
     <g id="text_10">
      <!-- 0.0 -->
      <g transform="translate(27.3675 104.408139) scale(0.08 -0.08)">
       <use xlink:href="#DejaVuSerif-30"/>
       <use xlink:href="#DejaVuSerif-2e" transform="translate(63.623047 0)"/>
       <use xlink:href="#DejaVuSerif-30" transform="translate(95.410156 0)"/>
      </g>
     </g>
    </g>
    <g id="ytick_4">
     <g id="line2d_19">
      <path d="M 47.09 71.382084 
L 206.113329 71.382084 
" clip-path="url(#pfe625884c2)" style="fill: none; stroke-dasharray: 2.96,1.28; stroke-dashoffset: 0; stroke: #b0b0b0; stroke-opacity: 0.5; stroke-width: 0.8"/>
     </g>
     <g id="line2d_20">
      <g>
       <use xlink:href="#mb543564249" x="47.09" y="71.382084" style="stroke: #000000; stroke-width: 0.8"/>
      </g>
     </g>
     <g id="text_11">
      <!-- 0.5 -->
      <g transform="translate(27.3675 74.421459) scale(0.08 -0.08)">
       <use xlink:href="#DejaVuSerif-30"/>
       <use xlink:href="#DejaVuSerif-2e" transform="translate(63.623047 0)"/>
       <use xlink:href="#DejaVuSerif-35" transform="translate(95.410156 0)"/>
      </g>
     </g>
    </g>
    <g id="ytick_5">
     <g id="line2d_21">
      <path d="M 47.09 41.395403 
L 206.113329 41.395403 
" clip-path="url(#pfe625884c2)" style="fill: none; stroke-dasharray: 2.96,1.28; stroke-dashoffset: 0; stroke: #b0b0b0; stroke-opacity: 0.5; stroke-width: 0.8"/>
     </g>
     <g id="line2d_22">
      <g>
       <use xlink:href="#mb543564249" x="47.09" y="41.395403" style="stroke: #000000; stroke-width: 0.8"/>
      </g>
     </g>
     <g id="text_12">
      <!-- 1.0 -->
      <g transform="translate(27.3675 44.434778) scale(0.08 -0.08)">
       <use xlink:href="#DejaVuSerif-31"/>
       <use xlink:href="#DejaVuSerif-2e" transform="translate(63.623047 0)"/>
       <use xlink:href="#DejaVuSerif-30" transform="translate(95.410156 0)"/>
      </g>
     </g>
    </g>
    <g id="text_13">
     <!-- Variável Dependente -->
     <g transform="translate(15 147.63525) rotate(-90) scale(0.08 -0.08)">
      <defs>
       <path id="DejaVuSerif-44" d="M 1581 331 
L 2163 331 
Q 3072 331 3558 850 
Q 4044 1369 4044 2338 
Q 4044 3306 3559 3818 
Q 3075 4331 2163 4331 
L 1581 4331 
L 1581 331 
z
M 353 0 
L 353 331 
L 947 331 
L 947 4331 
L 353 4331 
L 353 4666 
L 2209 4666 
Q 3416 4666 4089 4050 
Q 4763 3434 4763 2338 
Q 4763 1238 4088 619 
Q 3413 0 2209 0 
L 353 0 
z
" transform="scale(0.015625)"/>
      </defs>
      <use xlink:href="#DejaVuSerif-56"/>
      <use xlink:href="#DejaVuSerif-61" transform="translate(63.091797 0)"/>
      <use xlink:href="#DejaVuSerif-72" transform="translate(122.710938 0)"/>
      <use xlink:href="#DejaVuSerif-69" transform="translate(170.513672 0)"/>
      <use xlink:href="#DejaVuSerif-e1" transform="translate(202.496094 0)"/>
      <use xlink:href="#DejaVuSerif-76" transform="translate(262.115234 0)"/>
      <use xlink:href="#DejaVuSerif-65" transform="translate(318.609375 0)"/>
      <use xlink:href="#DejaVuSerif-6c" transform="translate(377.789062 0)"/>
      <use xlink:href="#DejaVuSerif-20" transform="translate(409.771484 0)"/>
      <use xlink:href="#DejaVuSerif-44" transform="translate(441.558594 0)"/>
      <use xlink:href="#DejaVuSerif-65" transform="translate(521.734375 0)"/>
      <use xlink:href="#DejaVuSerif-70" transform="translate(580.914062 0)"/>
      <use xlink:href="#DejaVuSerif-65" transform="translate(644.927734 0)"/>
      <use xlink:href="#DejaVuSerif-6e" transform="translate(704.107422 0)"/>
      <use xlink:href="#DejaVuSerif-64" transform="translate(768.511719 0)"/>
      <use xlink:href="#DejaVuSerif-65" transform="translate(832.525391 0)"/>
      <use xlink:href="#DejaVuSerif-6e" transform="translate(891.705078 0)"/>
      <use xlink:href="#DejaVuSerif-74" transform="translate(956.109375 0)"/>
      <use xlink:href="#DejaVuSerif-65" transform="translate(996.294922 0)"/>
     </g>
    </g>
   </g>
   <g id="PathCollection_1">
    <defs>
     <path id="mbacc1083f5" d="M 0 0.75 
C 0.198902 0.75 0.389685 0.670975 0.53033 0.53033 
C 0.670975 0.389685 0.75 0.198902 0.75 0 
C 0.75 -0.198902 0.670975 -0.389685 0.53033 -0.53033 
C 0.389685 -0.670975 0.198902 -0.75 0 -0.75 
C -0.198902 -0.75 -0.389685 -0.670975 -0.53033 -0.53033 
C -0.670975 -0.389685 -0.75 -0.198902 -0.75 0 
C -0.75 0.198902 -0.670975 0.389685 -0.53033 0.53033 
C -0.389685 0.670975 -0.198902 0.75 0 0.75 
z
" style="stroke: #4596f3"/>
    </defs>
    <g clip-path="url(#pfe625884c2)">
     <use xlink:href="#mbacc1083f5" x="82.146334" y="52.029873" style="fill: #4596f3; stroke: #4596f3"/>
     <use xlink:href="#mbacc1083f5" x="162.356175" y="157.669211" style="fill: #4596f3; stroke: #4596f3"/>
     <use xlink:href="#mbacc1083f5" x="145.468778" y="143.47253" style="fill: #4596f3; stroke: #4596f3"/>
     <use xlink:href="#mbacc1083f5" x="187.281118" y="134.737633" style="fill: #4596f3; stroke: #4596f3"/>
     <use xlink:href="#mbacc1083f5" x="161.273791" y="164.932857" style="fill: #4596f3; stroke: #4596f3"/>
     <use xlink:href="#mbacc1083f5" x="61.761688" y="85.874125" style="fill: #4596f3; stroke: #4596f3"/>
     <use xlink:href="#mbacc1083f5" x="132.435385" y="105.377585" style="fill: #4596f3; stroke: #4596f3"/>
     <use xlink:href="#mbacc1083f5" x="114.295766" y="76.838874" style="fill: #4596f3; stroke: #4596f3"/>
     <use xlink:href="#mbacc1083f5" x="176.814925" y="165.846779" style="fill: #4596f3; stroke: #4596f3"/>
     <use xlink:href="#mbacc1083f5" x="54.318333" y="89.863801" style="fill: #4596f3; stroke: #4596f3"/>
     <use xlink:href="#mbacc1083f5" x="63.428108" y="68.733418" style="fill: #4596f3; stroke: #4596f3"/>
     <use xlink:href="#mbacc1083f5" x="68.763121" y="59.899048" style="fill: #4596f3; stroke: #4596f3"/>
     <use xlink:href="#mbacc1083f5" x="178.952716" y="153.963123" style="fill: #4596f3; stroke: #4596f3"/>
     <use xlink:href="#mbacc1083f5" x="125.200582" y="90.724026" style="fill: #4596f3; stroke: #4596f3"/>
     <use xlink:href="#mbacc1083f5" x="137.534499" y="127.633093" style="fill: #4596f3; stroke: #4596f3"/>
     <use xlink:href="#mbacc1083f5" x="129.068913" y="110.585108" style="fill: #4596f3; stroke: #4596f3"/>
     <use xlink:href="#mbacc1083f5" x="70.777462" y="54.814952" style="fill: #4596f3; stroke: #4596f3"/>
     <use xlink:href="#mbacc1083f5" x="152.731487" y="155.805427" style="fill: #4596f3; stroke: #4596f3"/>
     <use xlink:href="#mbacc1083f5" x="61.511232" y="94.369974" style="fill: #4596f3; stroke: #4596f3"/>
     <use xlink:href="#mbacc1083f5" x="111.88083" y="68.422094" style="fill: #4596f3; stroke: #4596f3"/>
     <use xlink:href="#mbacc1083f5" x="118.366659" y="85.111904" style="fill: #4596f3; stroke: #4596f3"/>
     <use xlink:href="#mbacc1083f5" x="126.126122" y="94.660985" style="fill: #4596f3; stroke: #4596f3"/>
     <use xlink:href="#mbacc1083f5" x="56.048636" y="82.766097" style="fill: #4596f3; stroke: #4596f3"/>
     <use xlink:href="#mbacc1083f5" x="55.715351" y="84.349007" style="fill: #4596f3; stroke: #4596f3"/>
     <use xlink:href="#mbacc1083f5" x="77.744751" y="40.608736" style="fill: #4596f3; stroke: #4596f3"/>
     <use xlink:href="#mbacc1083f5" x="59.344296" y="88.374886" style="fill: #4596f3; stroke: #4596f3"/>
     <use xlink:href="#mbacc1083f5" x="183.320355" y="141.489762" style="fill: #4596f3; stroke: #4596f3"/>
     <use xlink:href="#mbacc1083f5" x="174.76211" y="148.980634" style="fill: #4596f3; stroke: #4596f3"/>
     <use xlink:href="#mbacc1083f5" x="105.489781" y="57.108053" style="fill: #4596f3; stroke: #4596f3"/>
     <use xlink:href="#mbacc1083f5" x="90.815756" y="44.160208" style="fill: #4596f3; stroke: #4596f3"/>
     <use xlink:href="#mbacc1083f5" x="116.871532" y="65.043055" style="fill: #4596f3; stroke: #4596f3"/>
     <use xlink:href="#mbacc1083f5" x="194.995015" y="118.807545" style="fill: #4596f3; stroke: #4596f3"/>
     <use xlink:href="#mbacc1083f5" x="174.146626" y="154.009697" style="fill: #4596f3; stroke: #4596f3"/>
     <use xlink:href="#mbacc1083f5" x="163.317152" y="159.828724" style="fill: #4596f3; stroke: #4596f3"/>
     <use xlink:href="#mbacc1083f5" x="75.812729" y="50.221687" style="fill: #4596f3; stroke: #4596f3"/>
     <use xlink:href="#mbacc1083f5" x="72.264921" y="50.400695" style="fill: #4596f3; stroke: #4596f3"/>
     <use xlink:href="#mbacc1083f5" x="174.797441" y="157.118149" style="fill: #4596f3; stroke: #4596f3"/>
     <use xlink:href="#mbacc1083f5" x="78.122144" y="45.994616" style="fill: #4596f3; stroke: #4596f3"/>
     <use xlink:href="#mbacc1083f5" x="76.073062" y="46.499693" style="fill: #4596f3; stroke: #4596f3"/>
     <use xlink:href="#mbacc1083f5" x="149.435852" y="149.18344" style="fill: #4596f3; stroke: #4596f3"/>
     <use xlink:href="#mbacc1083f5" x="142.798809" y="140.688338" style="fill: #4596f3; stroke: #4596f3"/>
     <use xlink:href="#mbacc1083f5" x="93.453948" y="45.378176" style="fill: #4596f3; stroke: #4596f3"/>
     <use xlink:href="#mbacc1083f5" x="79.772566" y="38.131262" style="fill: #4596f3; stroke: #4596f3"/>
     <use xlink:href="#mbacc1083f5" x="70.841896" y="54.626733" style="fill: #4596f3; stroke: #4596f3"/>
     <use xlink:href="#mbacc1083f5" x="110.468834" y="62.15557" style="fill: #4596f3; stroke: #4596f3"/>
     <use xlink:href="#mbacc1083f5" x="100.987482" y="50.151308" style="fill: #4596f3; stroke: #4596f3"/>
     <use xlink:href="#mbacc1083f5" x="195.777438" y="124.974083" style="fill: #4596f3; stroke: #4596f3"/>
     <use xlink:href="#mbacc1083f5" x="85.933581" y="47.897117" style="fill: #4596f3; stroke: #4596f3"/>
     <use xlink:href="#mbacc1083f5" x="190.745282" y="131.585746" style="fill: #4596f3; stroke: #4596f3"/>
     <use xlink:href="#mbacc1083f5" x="125.133703" y="100.291791" style="fill: #4596f3; stroke: #4596f3"/>
     <use xlink:href="#mbacc1083f5" x="114.969584" y="74.823539" style="fill: #4596f3; stroke: #4596f3"/>
     <use xlink:href="#mbacc1083f5" x="57.156336" y="74.225466" style="fill: #4596f3; stroke: #4596f3"/>
     <use xlink:href="#mbacc1083f5" x="123.180748" y="91.683267" style="fill: #4596f3; stroke: #4596f3"/>
     <use xlink:href="#mbacc1083f5" x="175.02287" y="147.020337" style="fill: #4596f3; stroke: #4596f3"/>
     <use xlink:href="#mbacc1083f5" x="127.827286" y="107.915638" style="fill: #4596f3; stroke: #4596f3"/>
     <use xlink:href="#mbacc1083f5" x="134.155952" y="119.752092" style="fill: #4596f3; stroke: #4596f3"/>
     <use xlink:href="#mbacc1083f5" x="138.671265" y="136.257334" style="fill: #4596f3; stroke: #4596f3"/>
     <use xlink:href="#mbacc1083f5" x="192.578226" y="118.030826" style="fill: #4596f3; stroke: #4596f3"/>
     <use xlink:href="#mbacc1083f5" x="99.350448" y="53.751753" style="fill: #4596f3; stroke: #4596f3"/>
     <use xlink:href="#mbacc1083f5" x="140.476613" y="132.113238" style="fill: #4596f3; stroke: #4596f3"/>
     <use xlink:href="#mbacc1083f5" x="159.132039" y="174.346727" style="fill: #4596f3; stroke: #4596f3"/>
     <use xlink:href="#mbacc1083f5" x="74.691675" y="44.050448" style="fill: #4596f3; stroke: #4596f3"/>
     <use xlink:href="#mbacc1083f5" x="76.513761" y="54.653874" style="fill: #4596f3; stroke: #4596f3"/>
     <use xlink:href="#mbacc1083f5" x="141.508717" y="130.053412" style="fill: #4596f3; stroke: #4596f3"/>
     <use xlink:href="#mbacc1083f5" x="192.05955" y="129.409941" style="fill: #4596f3; stroke: #4596f3"/>
     <use xlink:href="#mbacc1083f5" x="145.275506" y="143.649394" style="fill: #4596f3; stroke: #4596f3"/>
     <use xlink:href="#mbacc1083f5" x="126.303193" y="98.703997" style="fill: #4596f3; stroke: #4596f3"/>
     <use xlink:href="#mbacc1083f5" x="169.783075" y="152.261312" style="fill: #4596f3; stroke: #4596f3"/>
     <use xlink:href="#mbacc1083f5" x="152.967475" y="154.199717" style="fill: #4596f3; stroke: #4596f3"/>
     <use xlink:href="#mbacc1083f5" x="73.214225" y="54.444117" style="fill: #4596f3; stroke: #4596f3"/>
     <use xlink:href="#mbacc1083f5" x="59.628888" y="72.158593" style="fill: #4596f3; stroke: #4596f3"/>
     <use xlink:href="#mbacc1083f5" x="184.086152" y="141.667903" style="fill: #4596f3; stroke: #4596f3"/>
     <use xlink:href="#mbacc1083f5" x="139.565573" y="131.554935" style="fill: #4596f3; stroke: #4596f3"/>
     <use xlink:href="#mbacc1083f5" x="89.319022" y="38.58749" style="fill: #4596f3; stroke: #4596f3"/>
     <use xlink:href="#mbacc1083f5" x="127.383881" y="91.028693" style="fill: #4596f3; stroke: #4596f3"/>
     <use xlink:href="#mbacc1083f5" x="187.60871" y="132.010995" style="fill: #4596f3; stroke: #4596f3"/>
     <use xlink:href="#mbacc1083f5" x="99.674612" y="58.245468" style="fill: #4596f3; stroke: #4596f3"/>
     <use xlink:href="#mbacc1083f5" x="175.774178" y="158.088552" style="fill: #4596f3; stroke: #4596f3"/>
     <use xlink:href="#mbacc1083f5" x="147.892791" y="153.682043" style="fill: #4596f3; stroke: #4596f3"/>
     <use xlink:href="#mbacc1083f5" x="95.220853" y="54.510881" style="fill: #4596f3; stroke: #4596f3"/>
     <use xlink:href="#mbacc1083f5" x="111.284071" y="59.72166" style="fill: #4596f3; stroke: #4596f3"/>
     <use xlink:href="#mbacc1083f5" x="65.949807" y="65.105141" style="fill: #4596f3; stroke: #4596f3"/>
     <use xlink:href="#mbacc1083f5" x="142.347743" y="141.885805" style="fill: #4596f3; stroke: #4596f3"/>
     <use xlink:href="#mbacc1083f5" x="198.884996" y="114.151709" style="fill: #4596f3; stroke: #4596f3"/>
     <use xlink:href="#mbacc1083f5" x="188.227419" y="124.417879" style="fill: #4596f3; stroke: #4596f3"/>
     <use xlink:href="#mbacc1083f5" x="67.595661" y="61.272605" style="fill: #4596f3; stroke: #4596f3"/>
     <use xlink:href="#mbacc1083f5" x="163.369379" y="155.232008" style="fill: #4596f3; stroke: #4596f3"/>
     <use xlink:href="#mbacc1083f5" x="67.21393" y="60.36273" style="fill: #4596f3; stroke: #4596f3"/>
     <use xlink:href="#mbacc1083f5" x="90.96717" y="39.878338" style="fill: #4596f3; stroke: #4596f3"/>
     <use xlink:href="#mbacc1083f5" x="148.642427" y="172.470516" style="fill: #4596f3; stroke: #4596f3"/>
     <use xlink:href="#mbacc1083f5" x="93.315977" y="45.024693" style="fill: #4596f3; stroke: #4596f3"/>
     <use xlink:href="#mbacc1083f5" x="121.593962" y="92.777154" style="fill: #4596f3; stroke: #4596f3"/>
     <use xlink:href="#mbacc1083f5" x="76.459139" y="46.74744" style="fill: #4596f3; stroke: #4596f3"/>
     <use xlink:href="#mbacc1083f5" x="101.25863" y="39.986015" style="fill: #4596f3; stroke: #4596f3"/>
     <use xlink:href="#mbacc1083f5" x="139.623763" y="133.886319" style="fill: #4596f3; stroke: #4596f3"/>
     <use xlink:href="#mbacc1083f5" x="97.738246" y="36.481273" style="fill: #4596f3; stroke: #4596f3"/>
     <use xlink:href="#mbacc1083f5" x="162.113946" y="170.09339" style="fill: #4596f3; stroke: #4596f3"/>
     <use xlink:href="#mbacc1083f5" x="107.069321" y="69.046633" style="fill: #4596f3; stroke: #4596f3"/>
     <use xlink:href="#mbacc1083f5" x="103.983009" y="48.82708" style="fill: #4596f3; stroke: #4596f3"/>
     <use xlink:href="#mbacc1083f5" x="115.645092" y="80.00159" style="fill: #4596f3; stroke: #4596f3"/>
    </g>
   </g>
   <g id="line2d_23">
    <path d="M 82.146334 65.708618 
L 162.356175 131.046715 
L 145.468778 117.290418 
L 187.281118 151.350313 
L 161.273791 130.165016 
L 61.761688 49.103498 
L 132.435385 106.673552 
L 114.295766 91.897209 
L 176.814925 142.824662 
L 54.318333 43.040219 
L 63.428108 50.460946 
L 68.763121 54.806792 
L 178.952716 144.566083 
L 125.200582 100.780158 
L 137.534499 110.827237 
L 129.068913 103.931259 
L 70.777462 56.447653 
L 152.731487 123.206545 
L 61.511232 48.899479 
L 111.88083 89.930027 
L 118.366659 95.213315 
L 126.126122 101.534093 
L 56.048636 44.449706 
L 55.715351 44.178215 
L 77.744751 62.123134 
L 59.344296 47.134316 
L 183.320355 148.123917 
L 174.76211 141.15246 
L 105.489781 84.723946 
L 90.815756 72.770638 
L 116.871532 93.995401 
L 194.995015 157.633973 
L 174.146626 140.651093 
L 163.317152 131.829517 
L 75.812729 60.549329 
L 72.264921 57.659322 
L 174.797441 141.18124 
L 78.122144 62.430555 
L 76.073062 60.761394 
L 149.435852 120.521955 
L 142.798809 115.115489 
L 93.453948 74.919682 
L 79.772566 63.774971 
L 70.841896 56.500141 
L 110.468834 88.77983 
L 100.987482 81.05642 
L 195.777438 158.271326 
L 85.933581 68.793669 
L 190.745282 154.172185 
L 125.133703 100.725678 
L 114.969584 92.446094 
L 57.156336 45.352027 
L 123.180748 99.134822 
L 175.02287 141.364872 
L 127.827286 102.919843 
L 134.155952 108.075108 
L 138.671265 111.753235 
L 192.578226 155.665281 
L 99.350448 79.722909 
L 140.476613 113.223853 
L 159.132039 128.420368 
L 74.691675 59.636131 
L 76.513761 61.120382 
L 141.508717 114.064594 
L 192.05955 155.242774 
L 145.275506 117.132981 
L 126.303193 101.678333 
L 169.783075 137.09659 
L 152.967475 123.398778 
L 73.214225 58.432615 
L 59.628888 47.366142 
L 184.086152 148.747727 
L 139.565573 112.481729 
L 89.319022 71.551414 
L 127.383881 102.55865 
L 187.60871 151.617166 
L 99.674612 79.986969 
L 175.774178 141.97688 
L 147.892791 119.264994 
L 95.220853 76.358984 
L 111.284071 89.443913 
L 65.949807 52.515096 
L 142.347743 114.748056 
L 198.884996 160.802711 
L 188.227419 152.12116 
L 67.595661 53.855791 
L 163.369379 131.87206 
L 67.21393 53.544837 
L 90.96717 72.893978 
L 148.642427 119.875639 
L 93.315977 74.807292 
L 121.593962 97.842242 
L 76.459139 61.075888 
L 101.25863 81.277294 
L 139.623763 112.52913 
L 97.738246 78.409626 
L 162.113946 130.849398 
L 107.069321 86.010622 
L 103.983009 83.496544 
L 115.645092 92.996355 
" clip-path="url(#pfe625884c2)" style="fill: none; stroke: #ff7070; stroke-width: 0.5; stroke-linecap: square"/>
   </g>
   <g id="patch_3">
    <path d="M 47.09 181.24 
L 47.09 29.588 
" style="fill: none; stroke: #000000; stroke-width: 0.8; stroke-linejoin: miter; stroke-linecap: square"/>
   </g>
   <g id="patch_4">
    <path d="M 47.09 181.24 
L 206.113329 181.24 
" style="fill: none; stroke: #000000; stroke-width: 0.8; stroke-linejoin: miter; stroke-linecap: square"/>
   </g>
   <g id="legend_1">
    <g id="PathCollection_2">
     <g>
      <use xlink:href="#mbacc1083f5" x="56.02354" y="18.1552" style="fill: #4596f3; stroke: #4596f3"/>
     </g>
    </g>
    <g id="text_14">
     <!-- Dados -->
     <g transform="translate(70.42354 20.2552) scale(0.08 -0.08)">
      <defs>
       <path id="DejaVuSerif-6f" d="M 1925 219 
Q 2388 219 2623 584 
Q 2859 950 2859 1663 
Q 2859 2375 2623 2739 
Q 2388 3103 1925 3103 
Q 1463 3103 1227 2739 
Q 991 2375 991 1663 
Q 991 950 1228 584 
Q 1466 219 1925 219 
z
M 1925 -91 
Q 1200 -91 759 389 
Q 319 869 319 1663 
Q 319 2456 758 2934 
Q 1197 3413 1925 3413 
Q 2653 3413 3092 2934 
Q 3531 2456 3531 1663 
Q 3531 869 3092 389 
Q 2653 -91 1925 -91 
z
" transform="scale(0.015625)"/>
       <path id="DejaVuSerif-73" d="M 359 184 
L 359 959 
L 691 959 
Q 703 588 923 403 
Q 1144 219 1575 219 
Q 1963 219 2166 364 
Q 2369 509 2369 788 
Q 2369 1006 2220 1140 
Q 2072 1275 1594 1428 
L 1178 1569 
Q 750 1706 558 1912 
Q 366 2119 366 2438 
Q 366 2894 700 3153 
Q 1034 3413 1625 3413 
Q 1888 3413 2178 3344 
Q 2469 3275 2778 3144 
L 2778 2419 
L 2447 2419 
Q 2434 2741 2221 2922 
Q 2009 3103 1644 3103 
Q 1281 3103 1095 2975 
Q 909 2847 909 2591 
Q 909 2381 1050 2254 
Q 1191 2128 1613 1997 
L 2069 1856 
Q 2541 1709 2748 1489 
Q 2956 1269 2956 922 
Q 2956 450 2595 179 
Q 2234 -91 1600 -91 
Q 1278 -91 972 -22 
Q 666 47 359 184 
z
" transform="scale(0.015625)"/>
      </defs>
      <use xlink:href="#DejaVuSerif-44"/>
      <use xlink:href="#DejaVuSerif-61" transform="translate(80.175781 0)"/>
      <use xlink:href="#DejaVuSerif-64" transform="translate(139.794922 0)"/>
      <use xlink:href="#DejaVuSerif-6f" transform="translate(203.808594 0)"/>
      <use xlink:href="#DejaVuSerif-73" transform="translate(264.013672 0)"/>
     </g>
    </g>
    <g id="line2d_24">
     <path d="M 111.64979 17.4552 
L 119.64979 17.4552 
L 127.64979 17.4552 
" style="fill: none; stroke: #ff7070; stroke-width: 0.5; stroke-linecap: square"/>
    </g>
    <g id="text_15">
     <!-- Regressão Linear -->
     <g transform="translate(134.04979 20.2552) scale(0.08 -0.08)">
      <defs>
       <path id="DejaVuSerif-52" d="M 3066 2316 
Q 3284 2256 3442 2114 
Q 3600 1972 3725 1716 
L 4403 331 
L 4972 331 
L 4972 0 
L 3872 0 
L 3144 1484 
Q 2934 1916 2759 2042 
Q 2584 2169 2278 2169 
L 1581 2169 
L 1581 331 
L 2241 331 
L 2241 0 
L 353 0 
L 353 331 
L 947 331 
L 947 4331 
L 353 4331 
L 353 4666 
L 2719 4666 
Q 3400 4666 3770 4341 
Q 4141 4016 4141 3419 
Q 4141 2938 3870 2661 
Q 3600 2384 3066 2316 
z
M 1581 2503 
L 2503 2503 
Q 2975 2503 3200 2726 
Q 3425 2950 3425 3419 
Q 3425 3888 3200 4109 
Q 2975 4331 2503 4331 
L 1581 4331 
L 1581 2503 
z
" transform="scale(0.015625)"/>
       <path id="DejaVuSerif-67" d="M 3359 2988 
L 3359 72 
Q 3359 -644 2965 -1033 
Q 2572 -1422 1844 -1422 
Q 1516 -1422 1216 -1362 
Q 916 -1303 641 -1184 
L 641 -488 
L 941 -488 
Q 997 -813 1206 -963 
Q 1416 -1113 1806 -1113 
Q 2313 -1113 2548 -827 
Q 2784 -541 2784 72 
L 2784 519 
Q 2616 206 2355 57 
Q 2094 -91 1709 -91 
Q 1097 -91 708 395 
Q 319 881 319 1663 
Q 319 2444 706 2928 
Q 1094 3413 1709 3413 
Q 2094 3413 2355 3264 
Q 2616 3116 2784 2803 
L 2784 3322 
L 3909 3322 
L 3909 2988 
L 3359 2988 
z
M 2784 1825 
Q 2784 2422 2554 2737 
Q 2325 3053 1888 3053 
Q 1444 3053 1217 2703 
Q 991 2353 991 1663 
Q 991 975 1217 622 
Q 1444 269 1888 269 
Q 2325 269 2554 583 
Q 2784 897 2784 1497 
L 2784 1825 
z
" transform="scale(0.015625)"/>
       <path id="DejaVuSerif-e3" d="M 2547 1044 
L 2547 1747 
L 1806 1747 
Q 1378 1747 1168 1562 
Q 959 1378 959 997 
Q 959 650 1171 447 
Q 1384 244 1747 244 
Q 2106 244 2326 466 
Q 2547 688 2547 1044 
z
M 3122 2075 
L 3122 331 
L 3634 331 
L 3634 0 
L 2547 0 
L 2547 359 
Q 2356 128 2106 18 
Q 1856 -91 1522 -91 
Q 969 -91 644 203 
Q 319 497 319 997 
Q 319 1513 691 1797 
Q 1063 2081 1741 2081 
L 2547 2081 
L 2547 2309 
Q 2547 2688 2317 2895 
Q 2088 3103 1672 3103 
Q 1328 3103 1125 2947 
Q 922 2791 872 2484 
L 575 2484 
L 575 3156 
Q 875 3284 1158 3348 
Q 1441 3413 1709 3413 
Q 2400 3413 2761 3070 
Q 3122 2728 3122 2075 
z
M 1764 4281 
L 1585 4453 
Q 1504 4528 1452 4551 
Q 1401 4575 1342 4575 
Q 1210 4575 1135 4451 
Q 1060 4328 1045 4091 
L 745 4091 
Q 751 4513 910 4742 
Q 1070 4972 1354 4972 
Q 1473 4972 1573 4928 
Q 1673 4884 1789 4781 
L 1967 4609 
Q 2039 4538 2092 4513 
Q 2145 4488 2210 4488 
Q 2345 4488 2420 4613 
Q 2495 4738 2507 4972 
L 2807 4972 
Q 2801 4550 2641 4320 
Q 2482 4091 2198 4091 
Q 2079 4091 1979 4134 
Q 1879 4178 1764 4281 
z
" transform="scale(0.015625)"/>
       <path id="DejaVuSerif-4c" d="M 353 0 
L 353 331 
L 947 331 
L 947 4331 
L 353 4331 
L 353 4666 
L 2175 4666 
L 2175 4331 
L 1581 4331 
L 1581 384 
L 3713 384 
L 3713 1166 
L 4097 1166 
L 4097 0 
L 353 0 
z
" transform="scale(0.015625)"/>
      </defs>
      <use xlink:href="#DejaVuSerif-52"/>
      <use xlink:href="#DejaVuSerif-65" transform="translate(75.292969 0)"/>
      <use xlink:href="#DejaVuSerif-67" transform="translate(134.472656 0)"/>
      <use xlink:href="#DejaVuSerif-72" transform="translate(198.486328 0)"/>
      <use xlink:href="#DejaVuSerif-65" transform="translate(246.289062 0)"/>
      <use xlink:href="#DejaVuSerif-73" transform="translate(305.46875 0)"/>
      <use xlink:href="#DejaVuSerif-73" transform="translate(356.787109 0)"/>
      <use xlink:href="#DejaVuSerif-e3" transform="translate(408.105469 0)"/>
      <use xlink:href="#DejaVuSerif-6f" transform="translate(467.724609 0)"/>
      <use xlink:href="#DejaVuSerif-20" transform="translate(527.929688 0)"/>
      <use xlink:href="#DejaVuSerif-4c" transform="translate(559.716797 0)"/>
      <use xlink:href="#DejaVuSerif-69" transform="translate(626.123047 0)"/>
      <use xlink:href="#DejaVuSerif-6e" transform="translate(658.105469 0)"/>
      <use xlink:href="#DejaVuSerif-65" transform="translate(722.509766 0)"/>
      <use xlink:href="#DejaVuSerif-61" transform="translate(781.689453 0)"/>
      <use xlink:href="#DejaVuSerif-72" transform="translate(841.308594 0)"/>
     </g>
    </g>
   </g>
  </g>
 </g>
 <defs>
  <clipPath id="pfe625884c2">
   <rect x="47.09" y="29.588" width="159.023329" height="151.652"/>
  </clipPath>
 </defs>
</svg>
