<?xml version="1.0" encoding="utf-8" standalone="no"?>
<!DOCTYPE svg PUBLIC "-//W3C//DTD SVG 1.1//EN"
  "http://www.w3.org/Graphics/SVG/1.1/DTD/svg11.dtd">
<svg xmlns:xlink="http://www.w3.org/1999/xlink" width="501.525pt" height="175.4945pt" viewBox="0 0 501.525 175.4945" xmlns="http://www.w3.org/2000/svg" version="1.1">
 <metadata>
  <rdf:RDF xmlns:dc="http://purl.org/dc/elements/1.1/" xmlns:cc="http://creativecommons.org/ns#" xmlns:rdf="http://www.w3.org/1999/02/22-rdf-syntax-ns#">
   <cc:Work>
    <dc:type rdf:resource="http://purl.org/dc/dcmitype/StillImage"/>
    <dc:date>2025-07-16T02:48:06.192508</dc:date>
    <dc:format>image/svg+xml</dc:format>
    <dc:creator>
     <cc:Agent>
      <dc:title>Matplotlib v3.10.3, https://matplotlib.org/</dc:title>
     </cc:Agent>
    </dc:creator>
   </cc:Work>
  </rdf:RDF>
 </metadata>
 <defs>
  <style type="text/css">*{stroke-linejoin: round; stroke-linecap: butt}</style>
 </defs>
 <g id="figure_1">
  <g id="patch_1">
   <path d="M 0 175.4945 
L 501.525 175.4945 
L 501.525 0 
L 0 0 
z
" style="fill: #ffffff"/>
  </g>
  <g id="axes_1">
   <g id="patch_2">
    <path d="M 48.845 141.8095 
L 180.135055 141.8095 
L 180.135055 21.2795 
L 48.845 21.2795 
z
" style="fill: #ffffff"/>
   </g>
   <g id="matplotlib.axis_1">
    <g id="xtick_1">
     <g id="line2d_1">
      <path d="M 54.81273 141.8095 
L 54.81273 21.2795 
" clip-path="url(#p6aff6cb500)" style="fill: none; stroke-dasharray: 2.96,1.28; stroke-dashoffset: 0; stroke: #b0b0b0; stroke-opacity: 0.5; stroke-width: 0.8"/>
     </g>
     <g id="line2d_2">
      <defs>
       <path id="ma9b589412e" d="M 0 0 
L 0 3.5 
" style="stroke: #000000; stroke-width: 0.8"/>
      </defs>
      <g>
       <use xlink:href="#ma9b589412e" x="54.81273" y="141.8095" style="stroke: #000000; stroke-width: 0.8"/>
      </g>
     </g>
     <g id="text_1">
      <!-- 2.80 -->
      <g transform="translate(45.90648 154.88825) scale(0.08 -0.08)">
       <defs>
        <path id="DejaVuSerif-32" d="M 819 3553 
L 469 3553 
L 469 4384 
Q 803 4563 1142 4656 
Q 1481 4750 1806 4750 
Q 2534 4750 2956 4397 
Q 3378 4044 3378 3438 
Q 3378 2753 2422 1800 
Q 2347 1728 2309 1691 
L 1131 513 
L 3078 513 
L 3078 1088 
L 3444 1088 
L 3444 0 
L 434 0 
L 434 341 
L 1850 1753 
Q 2319 2222 2519 2614 
Q 2719 3006 2719 3438 
Q 2719 3909 2473 4175 
Q 2228 4441 1797 4441 
Q 1350 4441 1106 4219 
Q 863 3997 819 3553 
z
" transform="scale(0.015625)"/>
        <path id="DejaVuSerif-2e" d="M 603 325 
Q 603 500 722 622 
Q 841 744 1019 744 
Q 1191 744 1312 622 
Q 1434 500 1434 325 
Q 1434 153 1312 31 
Q 1191 -91 1019 -91 
Q 841 -91 722 29 
Q 603 150 603 325 
z
" transform="scale(0.015625)"/>
        <path id="DejaVuSerif-38" d="M 2981 1275 
Q 2981 1775 2732 2051 
Q 2484 2328 2034 2328 
Q 1584 2328 1336 2051 
Q 1088 1775 1088 1275 
Q 1088 772 1336 495 
Q 1584 219 2034 219 
Q 2484 219 2732 495 
Q 2981 772 2981 1275 
z
M 2853 3541 
Q 2853 3966 2637 4203 
Q 2422 4441 2034 4441 
Q 1650 4441 1433 4203 
Q 1216 3966 1216 3541 
Q 1216 3113 1433 2875 
Q 1650 2638 2034 2638 
Q 2422 2638 2637 2875 
Q 2853 3113 2853 3541 
z
M 2516 2484 
Q 3047 2413 3344 2092 
Q 3641 1772 3641 1275 
Q 3641 619 3225 264 
Q 2809 -91 2034 -91 
Q 1263 -91 845 264 
Q 428 619 428 1275 
Q 428 1772 725 2092 
Q 1022 2413 1556 2484 
Q 1084 2569 832 2842 
Q 581 3116 581 3541 
Q 581 4103 968 4426 
Q 1356 4750 2034 4750 
Q 2713 4750 3100 4426 
Q 3488 4103 3488 3541 
Q 3488 3116 3236 2842 
Q 2984 2569 2516 2484 
z
" transform="scale(0.015625)"/>
        <path id="DejaVuSerif-30" d="M 2034 219 
Q 2513 219 2750 744 
Q 2988 1269 2988 2328 
Q 2988 3391 2750 3916 
Q 2513 4441 2034 4441 
Q 1556 4441 1318 3916 
Q 1081 3391 1081 2328 
Q 1081 1269 1318 744 
Q 1556 219 2034 219 
z
M 2034 -91 
Q 1275 -91 848 546 
Q 422 1184 422 2328 
Q 422 3475 848 4112 
Q 1275 4750 2034 4750 
Q 2797 4750 3222 4112 
Q 3647 3475 3647 2328 
Q 3647 1184 3222 546 
Q 2797 -91 2034 -91 
z
" transform="scale(0.015625)"/>
       </defs>
       <use xlink:href="#DejaVuSerif-32"/>
       <use xlink:href="#DejaVuSerif-2e" transform="translate(63.623047 0)"/>
       <use xlink:href="#DejaVuSerif-38" transform="translate(95.410156 0)"/>
       <use xlink:href="#DejaVuSerif-30" transform="translate(159.033203 0)"/>
      </g>
     </g>
    </g>
    <g id="xtick_2">
     <g id="line2d_3">
      <path d="M 84.651379 141.8095 
L 84.651379 21.2795 
" clip-path="url(#p6aff6cb500)" style="fill: none; stroke-dasharray: 2.96,1.28; stroke-dashoffset: 0; stroke: #b0b0b0; stroke-opacity: 0.5; stroke-width: 0.8"/>
     </g>
     <g id="line2d_4">
      <g>
       <use xlink:href="#ma9b589412e" x="84.651379" y="141.8095" style="stroke: #000000; stroke-width: 0.8"/>
      </g>
     </g>
     <g id="text_2">
      <!-- 6.26 -->
      <g transform="translate(75.745129 154.88825) scale(0.08 -0.08)">
       <defs>
        <path id="DejaVuSerif-36" d="M 2094 219 
Q 2534 219 2771 542 
Q 3009 866 3009 1472 
Q 3009 2078 2771 2401 
Q 2534 2725 2094 2725 
Q 1647 2725 1412 2412 
Q 1178 2100 1178 1509 
Q 1178 888 1415 553 
Q 1653 219 2094 219 
z
M 1075 2569 
Q 1288 2803 1556 2918 
Q 1825 3034 2163 3034 
Q 2859 3034 3264 2615 
Q 3669 2197 3669 1472 
Q 3669 763 3233 336 
Q 2797 -91 2069 -91 
Q 1278 -91 853 498 
Q 428 1088 428 2181 
Q 428 3406 931 4078 
Q 1434 4750 2350 4750 
Q 2597 4750 2869 4703 
Q 3141 4656 3425 4563 
L 3425 3794 
L 3072 3794 
Q 3034 4109 2831 4275 
Q 2628 4441 2284 4441 
Q 1678 4441 1381 3981 
Q 1084 3522 1075 2569 
z
" transform="scale(0.015625)"/>
       </defs>
       <use xlink:href="#DejaVuSerif-36"/>
       <use xlink:href="#DejaVuSerif-2e" transform="translate(63.623047 0)"/>
       <use xlink:href="#DejaVuSerif-32" transform="translate(95.410156 0)"/>
       <use xlink:href="#DejaVuSerif-36" transform="translate(159.033203 0)"/>
      </g>
     </g>
    </g>
    <g id="xtick_3">
     <g id="line2d_5">
      <path d="M 114.490028 141.8095 
L 114.490028 21.2795 
" clip-path="url(#p6aff6cb500)" style="fill: none; stroke-dasharray: 2.96,1.28; stroke-dashoffset: 0; stroke: #b0b0b0; stroke-opacity: 0.5; stroke-width: 0.8"/>
     </g>
     <g id="line2d_6">
      <g>
       <use xlink:href="#ma9b589412e" x="114.490028" y="141.8095" style="stroke: #000000; stroke-width: 0.8"/>
      </g>
     </g>
     <g id="text_3">
      <!-- 9.72 -->
      <g transform="translate(105.583778 154.88825) scale(0.08 -0.08)">
       <defs>
        <path id="DejaVuSerif-39" d="M 2994 2091 
Q 2784 1856 2512 1740 
Q 2241 1625 1900 1625 
Q 1206 1625 804 2044 
Q 403 2463 403 3188 
Q 403 3897 839 4323 
Q 1275 4750 2003 4750 
Q 2794 4750 3217 4161 
Q 3641 3572 3641 2478 
Q 3641 1253 3137 581 
Q 2634 -91 1722 -91 
Q 1475 -91 1203 -44 
Q 931 3 647 97 
L 647 872 
L 997 872 
Q 1038 556 1241 387 
Q 1444 219 1784 219 
Q 2391 219 2687 676 
Q 2984 1134 2994 2091 
z
M 1978 4441 
Q 1534 4441 1298 4117 
Q 1063 3794 1063 3188 
Q 1063 2581 1298 2256 
Q 1534 1931 1978 1931 
Q 2422 1931 2658 2245 
Q 2894 2559 2894 3150 
Q 2894 3772 2656 4106 
Q 2419 4441 1978 4441 
z
" transform="scale(0.015625)"/>
        <path id="DejaVuSerif-37" d="M 3609 4347 
L 1784 0 
L 1319 0 
L 3059 4153 
L 903 4153 
L 903 3578 
L 538 3578 
L 538 4666 
L 3609 4666 
L 3609 4347 
z
" transform="scale(0.015625)"/>
       </defs>
       <use xlink:href="#DejaVuSerif-39"/>
       <use xlink:href="#DejaVuSerif-2e" transform="translate(63.623047 0)"/>
       <use xlink:href="#DejaVuSerif-37" transform="translate(95.410156 0)"/>
       <use xlink:href="#DejaVuSerif-32" transform="translate(159.033203 0)"/>
      </g>
     </g>
    </g>
    <g id="xtick_4">
     <g id="line2d_7">
      <path d="M 144.328676 141.8095 
L 144.328676 21.2795 
" clip-path="url(#p6aff6cb500)" style="fill: none; stroke-dasharray: 2.96,1.28; stroke-dashoffset: 0; stroke: #b0b0b0; stroke-opacity: 0.5; stroke-width: 0.8"/>
     </g>
     <g id="line2d_8">
      <g>
       <use xlink:href="#ma9b589412e" x="144.328676" y="141.8095" style="stroke: #000000; stroke-width: 0.8"/>
      </g>
     </g>
     <g id="text_4">
      <!-- 13.18 -->
      <g transform="translate(132.877426 154.88825) scale(0.08 -0.08)">
       <defs>
        <path id="DejaVuSerif-31" d="M 909 0 
L 909 331 
L 1722 331 
L 1722 4213 
L 781 3603 
L 781 4013 
L 1919 4750 
L 2350 4750 
L 2350 331 
L 3163 331 
L 3163 0 
L 909 0 
z
" transform="scale(0.015625)"/>
        <path id="DejaVuSerif-33" d="M 622 4469 
Q 988 4606 1323 4678 
Q 1659 4750 1953 4750 
Q 2638 4750 3022 4454 
Q 3406 4159 3406 3634 
Q 3406 3213 3140 2930 
Q 2875 2647 2388 2547 
Q 2963 2466 3280 2130 
Q 3597 1794 3597 1259 
Q 3597 606 3158 257 
Q 2719 -91 1894 -91 
Q 1528 -91 1179 -12 
Q 831 66 488 225 
L 488 1131 
L 838 1131 
Q 869 681 1141 450 
Q 1413 219 1906 219 
Q 2384 219 2661 495 
Q 2938 772 2938 1253 
Q 2938 1803 2653 2086 
Q 2369 2369 1819 2369 
L 1522 2369 
L 1522 2688 
L 1678 2688 
Q 2225 2688 2498 2914 
Q 2772 3141 2772 3597 
Q 2772 4006 2547 4223 
Q 2322 4441 1900 4441 
Q 1478 4441 1245 4241 
Q 1013 4041 972 3647 
L 622 3647 
L 622 4469 
z
" transform="scale(0.015625)"/>
       </defs>
       <use xlink:href="#DejaVuSerif-31"/>
       <use xlink:href="#DejaVuSerif-33" transform="translate(63.623047 0)"/>
       <use xlink:href="#DejaVuSerif-2e" transform="translate(127.246094 0)"/>
       <use xlink:href="#DejaVuSerif-31" transform="translate(159.033203 0)"/>
       <use xlink:href="#DejaVuSerif-38" transform="translate(222.65625 0)"/>
      </g>
     </g>
    </g>
    <g id="xtick_5">
     <g id="line2d_9">
      <path d="M 174.167325 141.8095 
L 174.167325 21.2795 
" clip-path="url(#p6aff6cb500)" style="fill: none; stroke-dasharray: 2.96,1.28; stroke-dashoffset: 0; stroke: #b0b0b0; stroke-opacity: 0.5; stroke-width: 0.8"/>
     </g>
     <g id="line2d_10">
      <g>
       <use xlink:href="#ma9b589412e" x="174.167325" y="141.8095" style="stroke: #000000; stroke-width: 0.8"/>
      </g>
     </g>
     <g id="text_5">
      <!-- 16.63 -->
      <g transform="translate(162.716075 154.88825) scale(0.08 -0.08)">
       <use xlink:href="#DejaVuSerif-31"/>
       <use xlink:href="#DejaVuSerif-36" transform="translate(63.623047 0)"/>
       <use xlink:href="#DejaVuSerif-2e" transform="translate(127.246094 0)"/>
       <use xlink:href="#DejaVuSerif-36" transform="translate(159.033203 0)"/>
       <use xlink:href="#DejaVuSerif-33" transform="translate(222.65625 0)"/>
      </g>
     </g>
    </g>
    <g id="text_6">
     <!-- Real -->
     <g transform="translate(105.446278 166.63075) scale(0.08 -0.08)">
      <defs>
       <path id="DejaVuSerif-52" d="M 3066 2316 
Q 3284 2256 3442 2114 
Q 3600 1972 3725 1716 
L 4403 331 
L 4972 331 
L 4972 0 
L 3872 0 
L 3144 1484 
Q 2934 1916 2759 2042 
Q 2584 2169 2278 2169 
L 1581 2169 
L 1581 331 
L 2241 331 
L 2241 0 
L 353 0 
L 353 331 
L 947 331 
L 947 4331 
L 353 4331 
L 353 4666 
L 2719 4666 
Q 3400 4666 3770 4341 
Q 4141 4016 4141 3419 
Q 4141 2938 3870 2661 
Q 3600 2384 3066 2316 
z
M 1581 2503 
L 2503 2503 
Q 2975 2503 3200 2726 
Q 3425 2950 3425 3419 
Q 3425 3888 3200 4109 
Q 2975 4331 2503 4331 
L 1581 4331 
L 1581 2503 
z
" transform="scale(0.015625)"/>
       <path id="DejaVuSerif-65" d="M 3469 1600 
L 991 1600 
L 991 1575 
Q 991 903 1244 561 
Q 1497 219 1991 219 
Q 2369 219 2611 417 
Q 2853 616 2950 1006 
L 3413 1006 
Q 3275 459 2904 184 
Q 2534 -91 1931 -91 
Q 1203 -91 761 389 
Q 319 869 319 1663 
Q 319 2450 753 2931 
Q 1188 3413 1894 3413 
Q 2647 3413 3050 2948 
Q 3453 2484 3469 1600 
z
M 2791 1931 
Q 2772 2513 2545 2808 
Q 2319 3103 1894 3103 
Q 1497 3103 1269 2806 
Q 1041 2509 991 1931 
L 2791 1931 
z
" transform="scale(0.015625)"/>
       <path id="DejaVuSerif-61" d="M 2547 1044 
L 2547 1747 
L 1806 1747 
Q 1378 1747 1168 1562 
Q 959 1378 959 997 
Q 959 650 1171 447 
Q 1384 244 1747 244 
Q 2106 244 2326 466 
Q 2547 688 2547 1044 
z
M 3122 2075 
L 3122 331 
L 3634 331 
L 3634 0 
L 2547 0 
L 2547 359 
Q 2356 128 2106 18 
Q 1856 -91 1522 -91 
Q 969 -91 644 203 
Q 319 497 319 997 
Q 319 1513 691 1797 
Q 1063 2081 1741 2081 
L 2547 2081 
L 2547 2309 
Q 2547 2688 2317 2895 
Q 2088 3103 1672 3103 
Q 1328 3103 1125 2947 
Q 922 2791 872 2484 
L 575 2484 
L 575 3156 
Q 875 3284 1158 3348 
Q 1441 3413 1709 3413 
Q 2400 3413 2761 3070 
Q 3122 2728 3122 2075 
z
" transform="scale(0.015625)"/>
       <path id="DejaVuSerif-6c" d="M 1313 331 
L 1856 331 
L 1856 0 
L 184 0 
L 184 331 
L 738 331 
L 738 4531 
L 184 4531 
L 184 4863 
L 1313 4863 
L 1313 331 
z
" transform="scale(0.015625)"/>
      </defs>
      <use xlink:href="#DejaVuSerif-52"/>
      <use xlink:href="#DejaVuSerif-65" transform="translate(75.292969 0)"/>
      <use xlink:href="#DejaVuSerif-61" transform="translate(134.472656 0)"/>
      <use xlink:href="#DejaVuSerif-6c" transform="translate(194.091797 0)"/>
     </g>
    </g>
    <g id="text_7">
     <!-- 1e3 -->
     <g transform="translate(165.220055 165.63075) scale(0.08 -0.08)">
      <use xlink:href="#DejaVuSerif-31"/>
      <use xlink:href="#DejaVuSerif-65" transform="translate(63.623047 0)"/>
      <use xlink:href="#DejaVuSerif-33" transform="translate(122.802734 0)"/>
     </g>
    </g>
   </g>
   <g id="matplotlib.axis_2">
    <g id="ytick_1">
     <g id="line2d_11">
      <path d="M 48.845 136.330864 
L 180.135055 136.330864 
" clip-path="url(#p6aff6cb500)" style="fill: none; stroke-dasharray: 2.96,1.28; stroke-dashoffset: 0; stroke: #b0b0b0; stroke-opacity: 0.5; stroke-width: 0.8"/>
     </g>
     <g id="line2d_12">
      <defs>
       <path id="m9751c8a26a" d="M 0 0 
L -3.5 0 
" style="stroke: #000000; stroke-width: 0.8"/>
      </defs>
      <g>
       <use xlink:href="#m9751c8a26a" x="48.845" y="136.330864" style="stroke: #000000; stroke-width: 0.8"/>
      </g>
     </g>
     <g id="text_8">
      <!-- 2.80 -->
      <g transform="translate(24.0325 139.370239) scale(0.08 -0.08)">
       <use xlink:href="#DejaVuSerif-32"/>
       <use xlink:href="#DejaVuSerif-2e" transform="translate(63.623047 0)"/>
       <use xlink:href="#DejaVuSerif-38" transform="translate(95.410156 0)"/>
       <use xlink:href="#DejaVuSerif-30" transform="translate(159.033203 0)"/>
      </g>
     </g>
    </g>
    <g id="ytick_2">
     <g id="line2d_13">
      <path d="M 48.845 111.769491 
L 180.135055 111.769491 
" clip-path="url(#p6aff6cb500)" style="fill: none; stroke-dasharray: 2.96,1.28; stroke-dashoffset: 0; stroke: #b0b0b0; stroke-opacity: 0.5; stroke-width: 0.8"/>
     </g>
     <g id="line2d_14">
      <g>
       <use xlink:href="#m9751c8a26a" x="48.845" y="111.769491" style="stroke: #000000; stroke-width: 0.8"/>
      </g>
     </g>
     <g id="text_9">
      <!-- 6.26 -->
      <g transform="translate(24.0325 114.808866) scale(0.08 -0.08)">
       <use xlink:href="#DejaVuSerif-36"/>
       <use xlink:href="#DejaVuSerif-2e" transform="translate(63.623047 0)"/>
       <use xlink:href="#DejaVuSerif-32" transform="translate(95.410156 0)"/>
       <use xlink:href="#DejaVuSerif-36" transform="translate(159.033203 0)"/>
      </g>
     </g>
    </g>
    <g id="ytick_3">
     <g id="line2d_15">
      <path d="M 48.845 87.208119 
L 180.135055 87.208119 
" clip-path="url(#p6aff6cb500)" style="fill: none; stroke-dasharray: 2.96,1.28; stroke-dashoffset: 0; stroke: #b0b0b0; stroke-opacity: 0.5; stroke-width: 0.8"/>
     </g>
     <g id="line2d_16">
      <g>
       <use xlink:href="#m9751c8a26a" x="48.845" y="87.208119" style="stroke: #000000; stroke-width: 0.8"/>
      </g>
     </g>
     <g id="text_10">
      <!-- 9.72 -->
      <g transform="translate(24.0325 90.247494) scale(0.08 -0.08)">
       <use xlink:href="#DejaVuSerif-39"/>
       <use xlink:href="#DejaVuSerif-2e" transform="translate(63.623047 0)"/>
       <use xlink:href="#DejaVuSerif-37" transform="translate(95.410156 0)"/>
       <use xlink:href="#DejaVuSerif-32" transform="translate(159.033203 0)"/>
      </g>
     </g>
    </g>
    <g id="ytick_4">
     <g id="line2d_17">
      <path d="M 48.845 62.646747 
L 180.135055 62.646747 
" clip-path="url(#p6aff6cb500)" style="fill: none; stroke-dasharray: 2.96,1.28; stroke-dashoffset: 0; stroke: #b0b0b0; stroke-opacity: 0.5; stroke-width: 0.8"/>
     </g>
     <g id="line2d_18">
      <g>
       <use xlink:href="#m9751c8a26a" x="48.845" y="62.646747" style="stroke: #000000; stroke-width: 0.8"/>
      </g>
     </g>
     <g id="text_11">
      <!-- 13.18 -->
      <g transform="translate(18.9425 65.686122) scale(0.08 -0.08)">
       <use xlink:href="#DejaVuSerif-31"/>
       <use xlink:href="#DejaVuSerif-33" transform="translate(63.623047 0)"/>
       <use xlink:href="#DejaVuSerif-2e" transform="translate(127.246094 0)"/>
       <use xlink:href="#DejaVuSerif-31" transform="translate(159.033203 0)"/>
       <use xlink:href="#DejaVuSerif-38" transform="translate(222.65625 0)"/>
      </g>
     </g>
    </g>
    <g id="ytick_5">
     <g id="line2d_19">
      <path d="M 48.845 38.085375 
L 180.135055 38.085375 
" clip-path="url(#p6aff6cb500)" style="fill: none; stroke-dasharray: 2.96,1.28; stroke-dashoffset: 0; stroke: #b0b0b0; stroke-opacity: 0.5; stroke-width: 0.8"/>
     </g>
     <g id="line2d_20">
      <g>
       <use xlink:href="#m9751c8a26a" x="48.845" y="38.085375" style="stroke: #000000; stroke-width: 0.8"/>
      </g>
     </g>
     <g id="text_12">
      <!-- 16.63 -->
      <g transform="translate(18.9425 41.12475) scale(0.08 -0.08)">
       <use xlink:href="#DejaVuSerif-31"/>
       <use xlink:href="#DejaVuSerif-36" transform="translate(63.623047 0)"/>
       <use xlink:href="#DejaVuSerif-2e" transform="translate(127.246094 0)"/>
       <use xlink:href="#DejaVuSerif-36" transform="translate(159.033203 0)"/>
       <use xlink:href="#DejaVuSerif-33" transform="translate(222.65625 0)"/>
      </g>
     </g>
    </g>
    <g id="text_13">
     <!-- Previsto -->
     <g transform="translate(13.27875 98.122625) rotate(-90) scale(0.08 -0.08)">
      <defs>
       <path id="DejaVuSerif-50" d="M 1581 2375 
L 2406 2375 
Q 2872 2375 3115 2626 
Q 3359 2878 3359 3353 
Q 3359 3831 3115 4081 
Q 2872 4331 2406 4331 
L 1581 4331 
L 1581 2375 
z
M 353 0 
L 353 331 
L 947 331 
L 947 4331 
L 353 4331 
L 353 4666 
L 2559 4666 
Q 3259 4666 3668 4311 
Q 4078 3956 4078 3353 
Q 4078 2753 3668 2397 
Q 3259 2041 2559 2041 
L 1581 2041 
L 1581 331 
L 2303 331 
L 2303 0 
L 353 0 
z
" transform="scale(0.015625)"/>
       <path id="DejaVuSerif-72" d="M 3059 3328 
L 3059 2497 
L 2728 2497 
Q 2713 2744 2591 2866 
Q 2469 2988 2234 2988 
Q 1809 2988 1582 2694 
Q 1356 2400 1356 1850 
L 1356 331 
L 2022 331 
L 2022 0 
L 263 0 
L 263 331 
L 781 331 
L 781 2994 
L 231 2994 
L 231 3322 
L 1356 3322 
L 1356 2731 
Q 1525 3078 1790 3245 
Q 2056 3413 2438 3413 
Q 2578 3413 2733 3391 
Q 2888 3369 3059 3328 
z
" transform="scale(0.015625)"/>
       <path id="DejaVuSerif-76" d="M 1581 0 
L 359 2988 
L -19 2988 
L -19 3322 
L 1509 3322 
L 1509 2988 
L 978 2988 
L 1913 703 
L 2847 2988 
L 2350 2988 
L 2350 3322 
L 3597 3322 
L 3597 2988 
L 3225 2988 
L 2003 0 
L 1581 0 
z
" transform="scale(0.015625)"/>
       <path id="DejaVuSerif-69" d="M 622 4353 
Q 622 4497 726 4603 
Q 831 4709 978 4709 
Q 1122 4709 1226 4603 
Q 1331 4497 1331 4353 
Q 1331 4206 1228 4103 
Q 1125 4000 978 4000 
Q 831 4000 726 4103 
Q 622 4206 622 4353 
z
M 1356 331 
L 1900 331 
L 1900 0 
L 231 0 
L 231 331 
L 781 331 
L 781 2988 
L 231 2988 
L 231 3322 
L 1356 3322 
L 1356 331 
z
" transform="scale(0.015625)"/>
       <path id="DejaVuSerif-73" d="M 359 184 
L 359 959 
L 691 959 
Q 703 588 923 403 
Q 1144 219 1575 219 
Q 1963 219 2166 364 
Q 2369 509 2369 788 
Q 2369 1006 2220 1140 
Q 2072 1275 1594 1428 
L 1178 1569 
Q 750 1706 558 1912 
Q 366 2119 366 2438 
Q 366 2894 700 3153 
Q 1034 3413 1625 3413 
Q 1888 3413 2178 3344 
Q 2469 3275 2778 3144 
L 2778 2419 
L 2447 2419 
Q 2434 2741 2221 2922 
Q 2009 3103 1644 3103 
Q 1281 3103 1095 2975 
Q 909 2847 909 2591 
Q 909 2381 1050 2254 
Q 1191 2128 1613 1997 
L 2069 1856 
Q 2541 1709 2748 1489 
Q 2956 1269 2956 922 
Q 2956 450 2595 179 
Q 2234 -91 1600 -91 
Q 1278 -91 972 -22 
Q 666 47 359 184 
z
" transform="scale(0.015625)"/>
       <path id="DejaVuSerif-74" d="M 691 2988 
L 184 2988 
L 184 3322 
L 691 3322 
L 691 4353 
L 1269 4353 
L 1269 3322 
L 2350 3322 
L 2350 2988 
L 1269 2988 
L 1269 878 
Q 1269 456 1350 337 
Q 1431 219 1650 219 
Q 1875 219 1978 351 
Q 2081 484 2088 781 
L 2522 781 
Q 2497 328 2275 118 
Q 2053 -91 1600 -91 
Q 1103 -91 897 129 
Q 691 350 691 878 
L 691 2988 
z
" transform="scale(0.015625)"/>
       <path id="DejaVuSerif-6f" d="M 1925 219 
Q 2388 219 2623 584 
Q 2859 950 2859 1663 
Q 2859 2375 2623 2739 
Q 2388 3103 1925 3103 
Q 1463 3103 1227 2739 
Q 991 2375 991 1663 
Q 991 950 1228 584 
Q 1466 219 1925 219 
z
M 1925 -91 
Q 1200 -91 759 389 
Q 319 869 319 1663 
Q 319 2456 758 2934 
Q 1197 3413 1925 3413 
Q 2653 3413 3092 2934 
Q 3531 2456 3531 1663 
Q 3531 869 3092 389 
Q 2653 -91 1925 -91 
z
" transform="scale(0.015625)"/>
      </defs>
      <use xlink:href="#DejaVuSerif-50"/>
      <use xlink:href="#DejaVuSerif-72" transform="translate(67.285156 0)"/>
      <use xlink:href="#DejaVuSerif-65" transform="translate(115.087891 0)"/>
      <use xlink:href="#DejaVuSerif-76" transform="translate(174.267578 0)"/>
      <use xlink:href="#DejaVuSerif-69" transform="translate(230.761719 0)"/>
      <use xlink:href="#DejaVuSerif-73" transform="translate(262.744141 0)"/>
      <use xlink:href="#DejaVuSerif-74" transform="translate(314.0625 0)"/>
      <use xlink:href="#DejaVuSerif-6f" transform="translate(354.248047 0)"/>
     </g>
    </g>
    <g id="text_14">
     <!-- 1e3 -->
     <g transform="translate(48.845 18.2795) scale(0.08 -0.08)">
      <use xlink:href="#DejaVuSerif-31"/>
      <use xlink:href="#DejaVuSerif-65" transform="translate(63.623047 0)"/>
      <use xlink:href="#DejaVuSerif-33" transform="translate(122.802734 0)"/>
     </g>
    </g>
   </g>
   <g id="PathCollection_1">
    <defs>
     <path id="m32e5729720" d="M 0 0.5 
C 0.132602 0.5 0.25979 0.447317 0.353553 0.353553 
C 0.447317 0.25979 0.5 0.132602 0.5 0 
C 0.5 -0.132602 0.447317 -0.25979 0.353553 -0.353553 
C 0.25979 -0.447317 0.132602 -0.5 0 -0.5 
C -0.132602 -0.5 -0.25979 -0.447317 -0.353553 -0.353553 
C -0.447317 -0.25979 -0.5 -0.132602 -0.5 0 
C -0.5 0.132602 -0.447317 0.25979 -0.353553 0.353553 
C -0.25979 0.447317 -0.132602 0.5 0 0.5 
z
" style="stroke: #ff9046"/>
    </defs>
    <g clip-path="url(#p6aff6cb500)">
     <use xlink:href="#m32e5729720" x="102.289603" y="102.56431" style="fill: #ff9046; stroke: #ff9046"/>
     <use xlink:href="#m32e5729720" x="139.472155" y="78.766461" style="fill: #ff9046; stroke: #ff9046"/>
     <use xlink:href="#m32e5729720" x="161.990312" y="65.546267" style="fill: #ff9046; stroke: #ff9046"/>
     <use xlink:href="#m32e5729720" x="124.556596" y="66.965659" style="fill: #ff9046; stroke: #ff9046"/>
     <use xlink:href="#m32e5729720" x="122.421207" y="80.005862" style="fill: #ff9046; stroke: #ff9046"/>
     <use xlink:href="#m32e5729720" x="112.579509" y="97.090128" style="fill: #ff9046; stroke: #ff9046"/>
     <use xlink:href="#m32e5729720" x="72.704402" y="108.859584" style="fill: #ff9046; stroke: #ff9046"/>
     <use xlink:href="#m32e5729720" x="66.543613" y="114.760066" style="fill: #ff9046; stroke: #ff9046"/>
     <use xlink:href="#m32e5729720" x="67.839419" y="118.478823" style="fill: #ff9046; stroke: #ff9046"/>
     <use xlink:href="#m32e5729720" x="68.267388" y="122.148944" style="fill: #ff9046; stroke: #ff9046"/>
     <use xlink:href="#m32e5729720" x="60.264339" y="119.868357" style="fill: #ff9046; stroke: #ff9046"/>
     <use xlink:href="#m32e5729720" x="63.75973" y="109.293599" style="fill: #ff9046; stroke: #ff9046"/>
     <use xlink:href="#m32e5729720" x="82.664352" y="94.802842" style="fill: #ff9046; stroke: #ff9046"/>
     <use xlink:href="#m32e5729720" x="121.117991" y="79.77453" style="fill: #ff9046; stroke: #ff9046"/>
     <use xlink:href="#m32e5729720" x="174.167325" y="65.536491" style="fill: #ff9046; stroke: #ff9046"/>
     <use xlink:href="#m32e5729720" x="168.05455" y="60.414993" style="fill: #ff9046; stroke: #ff9046"/>
     <use xlink:href="#m32e5729720" x="146.327863" y="61.997861" style="fill: #ff9046; stroke: #ff9046"/>
     <use xlink:href="#m32e5729720" x="87.967511" y="81.848394" style="fill: #ff9046; stroke: #ff9046"/>
     <use xlink:href="#m32e5729720" x="66.68866" y="107.424158" style="fill: #ff9046; stroke: #ff9046"/>
     <use xlink:href="#m32e5729720" x="62.313892" y="118.474293" style="fill: #ff9046; stroke: #ff9046"/>
     <use xlink:href="#m32e5729720" x="61.3701" y="120.452817" style="fill: #ff9046; stroke: #ff9046"/>
     <use xlink:href="#m32e5729720" x="67.283166" y="123.450017" style="fill: #ff9046; stroke: #ff9046"/>
     <use xlink:href="#m32e5729720" x="96.885218" y="119.367168" style="fill: #ff9046; stroke: #ff9046"/>
     <use xlink:href="#m32e5729720" x="133.085745" y="99.131241" style="fill: #ff9046; stroke: #ff9046"/>
     <use xlink:href="#m32e5729720" x="163.153643" y="65.666116" style="fill: #ff9046; stroke: #ff9046"/>
     <use xlink:href="#m32e5729720" x="163.154953" y="37.248166" style="fill: #ff9046; stroke: #ff9046"/>
     <use xlink:href="#m32e5729720" x="159.049745" y="26.758136" style="fill: #ff9046; stroke: #ff9046"/>
     <use xlink:href="#m32e5729720" x="162.664444" y="38.583558" style="fill: #ff9046; stroke: #ff9046"/>
     <use xlink:href="#m32e5729720" x="144.372127" y="61.293402" style="fill: #ff9046; stroke: #ff9046"/>
     <use xlink:href="#m32e5729720" x="97.660851" y="90.329499" style="fill: #ff9046; stroke: #ff9046"/>
     <use xlink:href="#m32e5729720" x="75.951115" y="109.199597" style="fill: #ff9046; stroke: #ff9046"/>
     <use xlink:href="#m32e5729720" x="60.114469" y="118.643008" style="fill: #ff9046; stroke: #ff9046"/>
     <use xlink:href="#m32e5729720" x="63.531244" y="121.788626" style="fill: #ff9046; stroke: #ff9046"/>
     <use xlink:href="#m32e5729720" x="69.014692" y="114.803086" style="fill: #ff9046; stroke: #ff9046"/>
     <use xlink:href="#m32e5729720" x="68.275812" y="98.025064" style="fill: #ff9046; stroke: #ff9046"/>
     <use xlink:href="#m32e5729720" x="101.884956" y="80.451957" style="fill: #ff9046; stroke: #ff9046"/>
     <use xlink:href="#m32e5729720" x="136.42324" y="65.566362" style="fill: #ff9046; stroke: #ff9046"/>
     <use xlink:href="#m32e5729720" x="145.769275" y="54.997155" style="fill: #ff9046; stroke: #ff9046"/>
     <use xlink:href="#m32e5729720" x="149.973658" y="50.471079" style="fill: #ff9046; stroke: #ff9046"/>
     <use xlink:href="#m32e5729720" x="152.163365" y="55.620841" style="fill: #ff9046; stroke: #ff9046"/>
     <use xlink:href="#m32e5729720" x="133.072521" y="72.452192" style="fill: #ff9046; stroke: #ff9046"/>
     <use xlink:href="#m32e5729720" x="98.935671" y="91.236251" style="fill: #ff9046; stroke: #ff9046"/>
     <use xlink:href="#m32e5729720" x="73.566006" y="104.122204" style="fill: #ff9046; stroke: #ff9046"/>
     <use xlink:href="#m32e5729720" x="64.33872" y="111.336815" style="fill: #ff9046; stroke: #ff9046"/>
     <use xlink:href="#m32e5729720" x="61.828118" y="118.64701" style="fill: #ff9046; stroke: #ff9046"/>
     <use xlink:href="#m32e5729720" x="64.874212" y="120.178273" style="fill: #ff9046; stroke: #ff9046"/>
     <use xlink:href="#m32e5729720" x="59.566253" y="112.910201" style="fill: #ff9046; stroke: #ff9046"/>
     <use xlink:href="#m32e5729720" x="55.861001" y="100.360755" style="fill: #ff9046; stroke: #ff9046"/>
     <use xlink:href="#m32e5729720" x="73.381303" y="88.608857" style="fill: #ff9046; stroke: #ff9046"/>
     <use xlink:href="#m32e5729720" x="131.068808" y="80.466812" style="fill: #ff9046; stroke: #ff9046"/>
     <use xlink:href="#m32e5729720" x="145.801659" y="69.326528" style="fill: #ff9046; stroke: #ff9046"/>
     <use xlink:href="#m32e5729720" x="143.594298" y="63.317126" style="fill: #ff9046; stroke: #ff9046"/>
     <use xlink:href="#m32e5729720" x="135.84889" y="70.173067" style="fill: #ff9046; stroke: #ff9046"/>
     <use xlink:href="#m32e5729720" x="83.872949" y="90.005282" style="fill: #ff9046; stroke: #ff9046"/>
     <use xlink:href="#m32e5729720" x="64.339924" y="108.435599" style="fill: #ff9046; stroke: #ff9046"/>
     <use xlink:href="#m32e5729720" x="56.374337" y="118.107495" style="fill: #ff9046; stroke: #ff9046"/>
     <use xlink:href="#m32e5729720" x="54.81273" y="124.89602" style="fill: #ff9046; stroke: #ff9046"/>
     <use xlink:href="#m32e5729720" x="58.920521" y="127.887091" style="fill: #ff9046; stroke: #ff9046"/>
     <use xlink:href="#m32e5729720" x="65.929858" y="126.683105" style="fill: #ff9046; stroke: #ff9046"/>
     <use xlink:href="#m32e5729720" x="78.037679" y="115.052928" style="fill: #ff9046; stroke: #ff9046"/>
    </g>
   </g>
   <g id="line2d_21">
    <path d="M 54.81273 136.330864 
L 174.167325 38.085375 
" clip-path="url(#p6aff6cb500)" style="fill: none; stroke-dasharray: 2.442,1.056; stroke-dashoffset: 0; stroke: #202020; stroke-width: 0.66"/>
   </g>
   <g id="patch_3">
    <path d="M 48.845 141.8095 
L 48.845 21.2795 
" style="fill: none; stroke: #000000; stroke-width: 0.8; stroke-linejoin: miter; stroke-linecap: square"/>
   </g>
   <g id="patch_4">
    <path d="M 48.845 141.8095 
L 180.135055 141.8095 
" style="fill: none; stroke: #000000; stroke-width: 0.8; stroke-linejoin: miter; stroke-linecap: square"/>
   </g>
   <g id="legend_1">
    <g id="PathCollection_2">
     <g>
      <use xlink:href="#m32e5729720" x="65.339403" y="14.37875" style="fill: #ff9046; stroke: #ff9046"/>
     </g>
    </g>
    <g id="text_15">
     <!-- Previsto -->
     <g transform="translate(79.739403 16.47875) scale(0.08 -0.08)">
      <use xlink:href="#DejaVuSerif-50"/>
      <use xlink:href="#DejaVuSerif-72" transform="translate(67.285156 0)"/>
      <use xlink:href="#DejaVuSerif-65" transform="translate(115.087891 0)"/>
      <use xlink:href="#DejaVuSerif-76" transform="translate(174.267578 0)"/>
      <use xlink:href="#DejaVuSerif-69" transform="translate(230.761719 0)"/>
      <use xlink:href="#DejaVuSerif-73" transform="translate(262.744141 0)"/>
      <use xlink:href="#DejaVuSerif-74" transform="translate(314.0625 0)"/>
      <use xlink:href="#DejaVuSerif-6f" transform="translate(354.248047 0)"/>
     </g>
    </g>
    <g id="line2d_22">
     <path d="M 128.895653 13.67875 
L 136.895653 13.67875 
L 144.895653 13.67875 
" style="fill: none; stroke-dasharray: 2.442,1.056; stroke-dashoffset: 0; stroke: #202020; stroke-width: 0.66"/>
    </g>
    <g id="text_16">
     <!-- Ideal -->
     <g transform="translate(151.295653 16.47875) scale(0.08 -0.08)">
      <defs>
       <path id="DejaVuSerif-49" d="M 1581 331 
L 2175 331 
L 2175 0 
L 353 0 
L 353 331 
L 947 331 
L 947 4331 
L 353 4331 
L 353 4666 
L 2175 4666 
L 2175 4331 
L 1581 4331 
L 1581 331 
z
" transform="scale(0.015625)"/>
       <path id="DejaVuSerif-64" d="M 3359 331 
L 3909 331 
L 3909 0 
L 2784 0 
L 2784 519 
Q 2616 206 2355 57 
Q 2094 -91 1709 -91 
Q 1097 -91 708 395 
Q 319 881 319 1663 
Q 319 2444 706 2928 
Q 1094 3413 1709 3413 
Q 2094 3413 2355 3264 
Q 2616 3116 2784 2803 
L 2784 4531 
L 2241 4531 
L 2241 4863 
L 3359 4863 
L 3359 331 
z
M 2784 1497 
L 2784 1825 
Q 2784 2422 2554 2737 
Q 2325 3053 1888 3053 
Q 1444 3053 1217 2703 
Q 991 2353 991 1663 
Q 991 975 1217 622 
Q 1444 269 1888 269 
Q 2325 269 2554 583 
Q 2784 897 2784 1497 
z
" transform="scale(0.015625)"/>
      </defs>
      <use xlink:href="#DejaVuSerif-49"/>
      <use xlink:href="#DejaVuSerif-64" transform="translate(39.501953 0)"/>
      <use xlink:href="#DejaVuSerif-65" transform="translate(103.515625 0)"/>
      <use xlink:href="#DejaVuSerif-61" transform="translate(162.695312 0)"/>
      <use xlink:href="#DejaVuSerif-6c" transform="translate(222.314453 0)"/>
     </g>
    </g>
   </g>
  </g>
  <g id="axes_2">
   <g id="patch_5">
    <path d="M 231.74489 141.8095 
L 494.325 141.8095 
L 494.325 21.2795 
L 231.74489 21.2795 
z
" style="fill: #ffffff"/>
   </g>
   <g id="matplotlib.axis_3">
    <g id="xtick_6">
     <g id="line2d_23">
      <path d="M 242.903723 141.8095 
L 242.903723 21.2795 
" clip-path="url(#pad024ab2b5)" style="fill: none; stroke-dasharray: 2.96,1.28; stroke-dashoffset: 0; stroke: #b0b0b0; stroke-opacity: 0.5; stroke-width: 0.8"/>
     </g>
     <g id="line2d_24">
      <g>
       <use xlink:href="#ma9b589412e" x="242.903723" y="141.8095" style="stroke: #000000; stroke-width: 0.8"/>
      </g>
     </g>
     <g id="text_17">
      <!-- 2000 -->
      <g transform="translate(232.723723 154.88825) scale(0.08 -0.08)">
       <use xlink:href="#DejaVuSerif-32"/>
       <use xlink:href="#DejaVuSerif-30" transform="translate(63.623047 0)"/>
       <use xlink:href="#DejaVuSerif-30" transform="translate(127.246094 0)"/>
       <use xlink:href="#DejaVuSerif-30" transform="translate(190.869141 0)"/>
      </g>
     </g>
    </g>
    <g id="xtick_7">
     <g id="line2d_25">
      <path d="M 290.200295 141.8095 
L 290.200295 21.2795 
" clip-path="url(#pad024ab2b5)" style="fill: none; stroke-dasharray: 2.96,1.28; stroke-dashoffset: 0; stroke: #b0b0b0; stroke-opacity: 0.5; stroke-width: 0.8"/>
     </g>
     <g id="line2d_26">
      <g>
       <use xlink:href="#ma9b589412e" x="290.200295" y="141.8095" style="stroke: #000000; stroke-width: 0.8"/>
      </g>
     </g>
     <g id="text_18">
      <!-- 2005 -->
      <g transform="translate(280.020295 154.88825) scale(0.08 -0.08)">
       <defs>
        <path id="DejaVuSerif-35" d="M 3219 4666 
L 3219 4153 
L 1081 4153 
L 1081 2816 
Q 1244 2928 1461 2984 
Q 1678 3041 1947 3041 
Q 2703 3041 3140 2622 
Q 3578 2203 3578 1478 
Q 3578 738 3136 323 
Q 2694 -91 1894 -91 
Q 1572 -91 1234 -12 
Q 897 66 544 225 
L 544 1131 
L 897 1131 
Q 925 688 1179 453 
Q 1434 219 1894 219 
Q 2388 219 2653 544 
Q 2919 869 2919 1478 
Q 2919 2084 2655 2407 
Q 2391 2731 1894 2731 
Q 1613 2731 1398 2631 
Q 1184 2531 1019 2322 
L 750 2322 
L 750 4666 
L 3219 4666 
z
" transform="scale(0.015625)"/>
       </defs>
       <use xlink:href="#DejaVuSerif-32"/>
       <use xlink:href="#DejaVuSerif-30" transform="translate(63.623047 0)"/>
       <use xlink:href="#DejaVuSerif-30" transform="translate(127.246094 0)"/>
       <use xlink:href="#DejaVuSerif-35" transform="translate(190.869141 0)"/>
      </g>
     </g>
    </g>
    <g id="xtick_8">
     <g id="line2d_27">
      <path d="M 337.470979 141.8095 
L 337.470979 21.2795 
" clip-path="url(#pad024ab2b5)" style="fill: none; stroke-dasharray: 2.96,1.28; stroke-dashoffset: 0; stroke: #b0b0b0; stroke-opacity: 0.5; stroke-width: 0.8"/>
     </g>
     <g id="line2d_28">
      <g>
       <use xlink:href="#ma9b589412e" x="337.470979" y="141.8095" style="stroke: #000000; stroke-width: 0.8"/>
      </g>
     </g>
     <g id="text_19">
      <!-- 2010 -->
      <g transform="translate(327.290979 154.88825) scale(0.08 -0.08)">
       <use xlink:href="#DejaVuSerif-32"/>
       <use xlink:href="#DejaVuSerif-30" transform="translate(63.623047 0)"/>
       <use xlink:href="#DejaVuSerif-31" transform="translate(127.246094 0)"/>
       <use xlink:href="#DejaVuSerif-30" transform="translate(190.869141 0)"/>
      </g>
     </g>
    </g>
    <g id="xtick_9">
     <g id="line2d_29">
      <path d="M 384.741664 141.8095 
L 384.741664 21.2795 
" clip-path="url(#pad024ab2b5)" style="fill: none; stroke-dasharray: 2.96,1.28; stroke-dashoffset: 0; stroke: #b0b0b0; stroke-opacity: 0.5; stroke-width: 0.8"/>
     </g>
     <g id="line2d_30">
      <g>
       <use xlink:href="#ma9b589412e" x="384.741664" y="141.8095" style="stroke: #000000; stroke-width: 0.8"/>
      </g>
     </g>
     <g id="text_20">
      <!-- 2015 -->
      <g transform="translate(374.561664 154.88825) scale(0.08 -0.08)">
       <use xlink:href="#DejaVuSerif-32"/>
       <use xlink:href="#DejaVuSerif-30" transform="translate(63.623047 0)"/>
       <use xlink:href="#DejaVuSerif-31" transform="translate(127.246094 0)"/>
       <use xlink:href="#DejaVuSerif-35" transform="translate(190.869141 0)"/>
      </g>
     </g>
    </g>
    <g id="xtick_10">
     <g id="line2d_31">
      <path d="M 432.012349 141.8095 
L 432.012349 21.2795 
" clip-path="url(#pad024ab2b5)" style="fill: none; stroke-dasharray: 2.96,1.28; stroke-dashoffset: 0; stroke: #b0b0b0; stroke-opacity: 0.5; stroke-width: 0.8"/>
     </g>
     <g id="line2d_32">
      <g>
       <use xlink:href="#ma9b589412e" x="432.012349" y="141.8095" style="stroke: #000000; stroke-width: 0.8"/>
      </g>
     </g>
     <g id="text_21">
      <!-- 2020 -->
      <g transform="translate(421.832349 154.88825) scale(0.08 -0.08)">
       <use xlink:href="#DejaVuSerif-32"/>
       <use xlink:href="#DejaVuSerif-30" transform="translate(63.623047 0)"/>
       <use xlink:href="#DejaVuSerif-32" transform="translate(127.246094 0)"/>
       <use xlink:href="#DejaVuSerif-30" transform="translate(190.869141 0)"/>
      </g>
     </g>
    </g>
    <g id="xtick_11">
     <g id="line2d_33">
      <path d="M 479.308921 141.8095 
L 479.308921 21.2795 
" clip-path="url(#pad024ab2b5)" style="fill: none; stroke-dasharray: 2.96,1.28; stroke-dashoffset: 0; stroke: #b0b0b0; stroke-opacity: 0.5; stroke-width: 0.8"/>
     </g>
     <g id="line2d_34">
      <g>
       <use xlink:href="#ma9b589412e" x="479.308921" y="141.8095" style="stroke: #000000; stroke-width: 0.8"/>
      </g>
     </g>
     <g id="text_22">
      <!-- 2025 -->
      <g transform="translate(469.128921 154.88825) scale(0.08 -0.08)">
       <use xlink:href="#DejaVuSerif-32"/>
       <use xlink:href="#DejaVuSerif-30" transform="translate(63.623047 0)"/>
       <use xlink:href="#DejaVuSerif-32" transform="translate(127.246094 0)"/>
       <use xlink:href="#DejaVuSerif-35" transform="translate(190.869141 0)"/>
      </g>
     </g>
    </g>
    <g id="text_23">
     <!-- Série histórica -->
     <g transform="translate(333.357445 166.63075) scale(0.08 -0.08)">
      <defs>
       <path id="DejaVuSerif-53" d="M 594 225 
L 594 1288 
L 953 1284 
Q 969 753 1261 498 
Q 1553 244 2150 244 
Q 2706 244 2998 464 
Q 3291 684 3291 1106 
Q 3291 1444 3114 1625 
Q 2938 1806 2369 1978 
L 1753 2163 
Q 1084 2366 811 2669 
Q 538 2972 538 3500 
Q 538 4094 959 4422 
Q 1381 4750 2144 4750 
Q 2469 4750 2856 4679 
Q 3244 4609 3681 4475 
L 3681 3481 
L 3328 3481 
Q 3275 3975 2998 4195 
Q 2722 4416 2156 4416 
Q 1663 4416 1405 4214 
Q 1147 4013 1147 3628 
Q 1147 3294 1340 3103 
Q 1534 2913 2163 2725 
L 2741 2553 
Q 3375 2363 3645 2067 
Q 3916 1772 3916 1275 
Q 3916 597 3481 253 
Q 3047 -91 2188 -91 
Q 1803 -91 1404 -12 
Q 1006 66 594 225 
z
" transform="scale(0.015625)"/>
       <path id="DejaVuSerif-e9" d="M 3469 1600 
L 991 1600 
L 991 1575 
Q 991 903 1244 561 
Q 1497 219 1991 219 
Q 2369 219 2611 417 
Q 2853 616 2950 1006 
L 3413 1006 
Q 3275 459 2904 184 
Q 2534 -91 1931 -91 
Q 1203 -91 761 389 
Q 319 869 319 1663 
Q 319 2450 753 2931 
Q 1188 3413 1894 3413 
Q 2647 3413 3050 2948 
Q 3453 2484 3469 1600 
z
M 2791 1931 
Q 2772 2513 2545 2808 
Q 2319 3103 1894 3103 
Q 1497 3103 1269 2806 
Q 1041 2509 991 1931 
L 2791 1931 
z
M 2330 5119 
L 2952 5119 
L 1890 3944 
L 1524 3944 
L 2330 5119 
z
" transform="scale(0.015625)"/>
       <path id="DejaVuSerif-20" transform="scale(0.015625)"/>
       <path id="DejaVuSerif-68" d="M 263 0 
L 263 331 
L 781 331 
L 781 4531 
L 231 4531 
L 231 4863 
L 1356 4863 
L 1356 2731 
Q 1516 3069 1770 3241 
Q 2025 3413 2363 3413 
Q 2913 3413 3172 3097 
Q 3431 2781 3431 2113 
L 3431 331 
L 3944 331 
L 3944 0 
L 2356 0 
L 2356 331 
L 2853 331 
L 2853 1931 
Q 2853 2541 2704 2764 
Q 2556 2988 2175 2988 
Q 1775 2988 1565 2697 
Q 1356 2406 1356 1850 
L 1356 331 
L 1856 331 
L 1856 0 
L 263 0 
z
" transform="scale(0.015625)"/>
       <path id="DejaVuSerif-f3" d="M 1925 219 
Q 2388 219 2623 584 
Q 2859 950 2859 1663 
Q 2859 2375 2623 2739 
Q 2388 3103 1925 3103 
Q 1463 3103 1227 2739 
Q 991 2375 991 1663 
Q 991 950 1228 584 
Q 1466 219 1925 219 
z
M 1925 -91 
Q 1200 -91 759 389 
Q 319 869 319 1663 
Q 319 2456 758 2934 
Q 1197 3413 1925 3413 
Q 2653 3413 3092 2934 
Q 3531 2456 3531 1663 
Q 3531 869 3092 389 
Q 2653 -91 1925 -91 
z
M 2362 5119 
L 2984 5119 
L 1922 3944 
L 1556 3944 
L 2362 5119 
z
" transform="scale(0.015625)"/>
       <path id="DejaVuSerif-63" d="M 3291 997 
Q 3169 466 2822 187 
Q 2475 -91 1925 -91 
Q 1200 -91 759 389 
Q 319 869 319 1663 
Q 319 2459 759 2936 
Q 1200 3413 1925 3413 
Q 2241 3413 2553 3339 
Q 2866 3266 3181 3116 
L 3181 2266 
L 2847 2266 
Q 2781 2703 2561 2903 
Q 2341 3103 1931 3103 
Q 1466 3103 1228 2742 
Q 991 2381 991 1663 
Q 991 944 1227 581 
Q 1463 219 1931 219 
Q 2303 219 2525 412 
Q 2747 606 2828 997 
L 3291 997 
z
" transform="scale(0.015625)"/>
      </defs>
      <use xlink:href="#DejaVuSerif-53"/>
      <use xlink:href="#DejaVuSerif-e9" transform="translate(68.505859 0)"/>
      <use xlink:href="#DejaVuSerif-72" transform="translate(127.685547 0)"/>
      <use xlink:href="#DejaVuSerif-69" transform="translate(175.488281 0)"/>
      <use xlink:href="#DejaVuSerif-65" transform="translate(207.470703 0)"/>
      <use xlink:href="#DejaVuSerif-20" transform="translate(266.650391 0)"/>
      <use xlink:href="#DejaVuSerif-68" transform="translate(298.4375 0)"/>
      <use xlink:href="#DejaVuSerif-69" transform="translate(362.841797 0)"/>
      <use xlink:href="#DejaVuSerif-73" transform="translate(394.824219 0)"/>
      <use xlink:href="#DejaVuSerif-74" transform="translate(446.142578 0)"/>
      <use xlink:href="#DejaVuSerif-f3" transform="translate(486.328125 0)"/>
      <use xlink:href="#DejaVuSerif-72" transform="translate(546.533203 0)"/>
      <use xlink:href="#DejaVuSerif-69" transform="translate(594.335938 0)"/>
      <use xlink:href="#DejaVuSerif-63" transform="translate(626.318359 0)"/>
      <use xlink:href="#DejaVuSerif-61" transform="translate(682.324219 0)"/>
     </g>
    </g>
   </g>
   <g id="matplotlib.axis_4">
    <g id="ytick_6">
     <g id="line2d_35">
      <path d="M 231.74489 114.951249 
L 494.325 114.951249 
" clip-path="url(#pad024ab2b5)" style="fill: none; stroke-dasharray: 2.96,1.28; stroke-dashoffset: 0; stroke: #b0b0b0; stroke-opacity: 0.5; stroke-width: 0.8"/>
     </g>
     <g id="line2d_36">
      <g>
       <use xlink:href="#m9751c8a26a" x="231.74489" y="114.951249" style="stroke: #000000; stroke-width: 0.8"/>
      </g>
     </g>
     <g id="text_24">
      <!-- 5 -->
      <g transform="translate(219.65489 117.990624) scale(0.08 -0.08)">
       <use xlink:href="#DejaVuSerif-35"/>
      </g>
     </g>
    </g>
    <g id="ytick_7">
     <g id="line2d_37">
      <path d="M 231.74489 81.618357 
L 494.325 81.618357 
" clip-path="url(#pad024ab2b5)" style="fill: none; stroke-dasharray: 2.96,1.28; stroke-dashoffset: 0; stroke: #b0b0b0; stroke-opacity: 0.5; stroke-width: 0.8"/>
     </g>
     <g id="line2d_38">
      <g>
       <use xlink:href="#m9751c8a26a" x="231.74489" y="81.618357" style="stroke: #000000; stroke-width: 0.8"/>
      </g>
     </g>
     <g id="text_25">
      <!-- 10 -->
      <g transform="translate(214.56489 84.657732) scale(0.08 -0.08)">
       <use xlink:href="#DejaVuSerif-31"/>
       <use xlink:href="#DejaVuSerif-30" transform="translate(63.623047 0)"/>
      </g>
     </g>
    </g>
    <g id="ytick_8">
     <g id="line2d_39">
      <path d="M 231.74489 48.285465 
L 494.325 48.285465 
" clip-path="url(#pad024ab2b5)" style="fill: none; stroke-dasharray: 2.96,1.28; stroke-dashoffset: 0; stroke: #b0b0b0; stroke-opacity: 0.5; stroke-width: 0.8"/>
     </g>
     <g id="line2d_40">
      <g>
       <use xlink:href="#m9751c8a26a" x="231.74489" y="48.285465" style="stroke: #000000; stroke-width: 0.8"/>
      </g>
     </g>
     <g id="text_26">
      <!-- 15 -->
      <g transform="translate(214.56489 51.32484) scale(0.08 -0.08)">
       <use xlink:href="#DejaVuSerif-31"/>
       <use xlink:href="#DejaVuSerif-35" transform="translate(63.623047 0)"/>
      </g>
     </g>
    </g>
    <g id="text_27">
     <!-- Geração Hidráulica N (MWMed) -->
     <g transform="translate(208.90114 147.48825) rotate(-90) scale(0.08 -0.08)">
      <defs>
       <path id="DejaVuSerif-47" d="M 4097 3272 
Q 3988 3856 3641 4136 
Q 3294 4416 2675 4416 
Q 1869 4416 1472 3897 
Q 1075 3378 1075 2328 
Q 1075 1300 1484 772 
Q 1894 244 2688 244 
Q 3041 244 3362 331 
Q 3684 419 3975 594 
L 3975 1797 
L 3097 1797 
L 3097 2131 
L 4609 2131 
L 4609 391 
Q 4194 150 3714 29 
Q 3234 -91 2688 -91 
Q 1631 -91 995 570 
Q 359 1231 359 2328 
Q 359 3434 996 4092 
Q 1634 4750 2713 4750 
Q 3113 4750 3539 4658 
Q 3966 4566 4447 4378 
L 4447 3272 
L 4097 3272 
z
" transform="scale(0.015625)"/>
       <path id="DejaVuSerif-e7" d="M 3291 997 
Q 3169 466 2822 187 
Q 2475 -91 1925 -91 
Q 1200 -91 759 389 
Q 319 869 319 1663 
Q 319 2459 759 2936 
Q 1200 3413 1925 3413 
Q 2241 3413 2553 3339 
Q 2866 3266 3181 3116 
L 3181 2266 
L 2847 2266 
Q 2781 2703 2561 2903 
Q 2341 3103 1931 3103 
Q 1466 3103 1228 2742 
Q 991 2381 991 1663 
Q 991 944 1227 581 
Q 1463 219 1931 219 
Q 2303 219 2525 412 
Q 2747 606 2828 997 
L 3291 997 
z
M 2118 0 
Q 2318 -200 2416 -375 
Q 2515 -550 2515 -703 
Q 2515 -956 2318 -1095 
Q 2121 -1234 1771 -1234 
Q 1640 -1234 1502 -1215 
Q 1365 -1197 1221 -1159 
L 1221 -750 
Q 1350 -803 1473 -829 
Q 1596 -856 1706 -856 
Q 1884 -856 1987 -773 
Q 2090 -691 2090 -550 
Q 2090 -463 2021 -325 
Q 1953 -188 1815 0 
L 2118 0 
z
" transform="scale(0.015625)"/>
       <path id="DejaVuSerif-e3" d="M 2547 1044 
L 2547 1747 
L 1806 1747 
Q 1378 1747 1168 1562 
Q 959 1378 959 997 
Q 959 650 1171 447 
Q 1384 244 1747 244 
Q 2106 244 2326 466 
Q 2547 688 2547 1044 
z
M 3122 2075 
L 3122 331 
L 3634 331 
L 3634 0 
L 2547 0 
L 2547 359 
Q 2356 128 2106 18 
Q 1856 -91 1522 -91 
Q 969 -91 644 203 
Q 319 497 319 997 
Q 319 1513 691 1797 
Q 1063 2081 1741 2081 
L 2547 2081 
L 2547 2309 
Q 2547 2688 2317 2895 
Q 2088 3103 1672 3103 
Q 1328 3103 1125 2947 
Q 922 2791 872 2484 
L 575 2484 
L 575 3156 
Q 875 3284 1158 3348 
Q 1441 3413 1709 3413 
Q 2400 3413 2761 3070 
Q 3122 2728 3122 2075 
z
M 1764 4281 
L 1585 4453 
Q 1504 4528 1452 4551 
Q 1401 4575 1342 4575 
Q 1210 4575 1135 4451 
Q 1060 4328 1045 4091 
L 745 4091 
Q 751 4513 910 4742 
Q 1070 4972 1354 4972 
Q 1473 4972 1573 4928 
Q 1673 4884 1789 4781 
L 1967 4609 
Q 2039 4538 2092 4513 
Q 2145 4488 2210 4488 
Q 2345 4488 2420 4613 
Q 2495 4738 2507 4972 
L 2807 4972 
Q 2801 4550 2641 4320 
Q 2482 4091 2198 4091 
Q 2079 4091 1979 4134 
Q 1879 4178 1764 4281 
z
" transform="scale(0.015625)"/>
       <path id="DejaVuSerif-48" d="M 353 0 
L 353 331 
L 947 331 
L 947 4331 
L 353 4331 
L 353 4666 
L 2175 4666 
L 2175 4331 
L 1581 4331 
L 1581 2719 
L 4000 2719 
L 4000 4331 
L 3406 4331 
L 3406 4666 
L 5228 4666 
L 5228 4331 
L 4634 4331 
L 4634 331 
L 5228 331 
L 5228 0 
L 3406 0 
L 3406 331 
L 4000 331 
L 4000 2338 
L 1581 2338 
L 1581 331 
L 2175 331 
L 2175 0 
L 353 0 
z
" transform="scale(0.015625)"/>
       <path id="DejaVuSerif-e1" d="M 2547 1044 
L 2547 1747 
L 1806 1747 
Q 1378 1747 1168 1562 
Q 959 1378 959 997 
Q 959 650 1171 447 
Q 1384 244 1747 244 
Q 2106 244 2326 466 
Q 2547 688 2547 1044 
z
M 3122 2075 
L 3122 331 
L 3634 331 
L 3634 0 
L 2547 0 
L 2547 359 
Q 2356 128 2106 18 
Q 1856 -91 1522 -91 
Q 969 -91 644 203 
Q 319 497 319 997 
Q 319 1513 691 1797 
Q 1063 2081 1741 2081 
L 2547 2081 
L 2547 2309 
Q 2547 2688 2317 2895 
Q 2088 3103 1672 3103 
Q 1328 3103 1125 2947 
Q 922 2791 872 2484 
L 575 2484 
L 575 3156 
Q 875 3284 1158 3348 
Q 1441 3413 1709 3413 
Q 2400 3413 2761 3070 
Q 3122 2728 3122 2075 
z
M 2210 5119 
L 2832 5119 
L 1770 3944 
L 1404 3944 
L 2210 5119 
z
" transform="scale(0.015625)"/>
       <path id="DejaVuSerif-75" d="M 2266 3322 
L 3341 3322 
L 3341 331 
L 3884 331 
L 3884 0 
L 2766 0 
L 2766 588 
Q 2606 256 2353 82 
Q 2100 -91 1766 -91 
Q 1213 -91 952 223 
Q 691 538 691 1209 
L 691 2988 
L 172 2988 
L 172 3322 
L 1269 3322 
L 1269 1388 
Q 1269 781 1417 556 
Q 1566 331 1947 331 
Q 2347 331 2556 625 
Q 2766 919 2766 1478 
L 2766 2988 
L 2266 2988 
L 2266 3322 
z
" transform="scale(0.015625)"/>
       <path id="DejaVuSerif-4e" d="M 313 0 
L 313 331 
L 941 331 
L 941 4331 
L 313 4331 
L 313 4666 
L 1509 4666 
L 4306 984 
L 4306 4331 
L 3681 4331 
L 3681 4666 
L 5319 4666 
L 5319 4331 
L 4691 4331 
L 4691 -91 
L 4313 -91 
L 1325 3841 
L 1325 331 
L 1953 331 
L 1953 0 
L 313 0 
z
" transform="scale(0.015625)"/>
       <path id="DejaVuSerif-28" d="M 2041 -997 
Q 1281 -656 893 83 
Q 506 822 506 1931 
Q 506 3044 893 3783 
Q 1281 4522 2041 4863 
L 2041 4556 
Q 1559 4225 1350 3623 
Q 1141 3022 1141 1931 
Q 1141 844 1350 242 
Q 1559 -359 2041 -691 
L 2041 -997 
z
" transform="scale(0.015625)"/>
       <path id="DejaVuSerif-4d" d="M 353 0 
L 353 331 
L 947 331 
L 947 4331 
L 319 4331 
L 319 4666 
L 1678 4666 
L 3316 1344 
L 4953 4666 
L 6228 4666 
L 6228 4331 
L 5606 4331 
L 5606 331 
L 6203 331 
L 6203 0 
L 4378 0 
L 4378 331 
L 4972 331 
L 4972 3938 
L 3372 684 
L 2931 684 
L 1331 3938 
L 1331 331 
L 1925 331 
L 1925 0 
L 353 0 
z
" transform="scale(0.015625)"/>
       <path id="DejaVuSerif-57" d="M 4878 0 
L 4366 0 
L 3297 3794 
L 2228 0 
L 1716 0 
L 494 4331 
L 31 4331 
L 31 4666 
L 1734 4666 
L 1734 4331 
L 1153 4331 
L 2125 884 
L 3188 4666 
L 3694 4666 
L 4775 844 
L 5753 4331 
L 5216 4331 
L 5216 4666 
L 6559 4666 
L 6559 4331 
L 6100 4331 
L 4878 0 
z
" transform="scale(0.015625)"/>
       <path id="DejaVuSerif-29" d="M 453 -997 
L 453 -691 
Q 934 -359 1145 242 
Q 1356 844 1356 1931 
Q 1356 3022 1145 3623 
Q 934 4225 453 4556 
L 453 4863 
Q 1216 4522 1603 3783 
Q 1991 3044 1991 1931 
Q 1991 822 1603 83 
Q 1216 -656 453 -997 
z
" transform="scale(0.015625)"/>
      </defs>
      <use xlink:href="#DejaVuSerif-47"/>
      <use xlink:href="#DejaVuSerif-65" transform="translate(79.882812 0)"/>
      <use xlink:href="#DejaVuSerif-72" transform="translate(139.0625 0)"/>
      <use xlink:href="#DejaVuSerif-61" transform="translate(186.865234 0)"/>
      <use xlink:href="#DejaVuSerif-e7" transform="translate(246.484375 0)"/>
      <use xlink:href="#DejaVuSerif-e3" transform="translate(302.490234 0)"/>
      <use xlink:href="#DejaVuSerif-6f" transform="translate(362.109375 0)"/>
      <use xlink:href="#DejaVuSerif-20" transform="translate(422.314453 0)"/>
      <use xlink:href="#DejaVuSerif-48" transform="translate(454.101562 0)"/>
      <use xlink:href="#DejaVuSerif-69" transform="translate(541.308594 0)"/>
      <use xlink:href="#DejaVuSerif-64" transform="translate(573.291016 0)"/>
      <use xlink:href="#DejaVuSerif-72" transform="translate(637.304688 0)"/>
      <use xlink:href="#DejaVuSerif-e1" transform="translate(685.107422 0)"/>
      <use xlink:href="#DejaVuSerif-75" transform="translate(744.726562 0)"/>
      <use xlink:href="#DejaVuSerif-6c" transform="translate(809.130859 0)"/>
      <use xlink:href="#DejaVuSerif-69" transform="translate(841.113281 0)"/>
      <use xlink:href="#DejaVuSerif-63" transform="translate(873.095703 0)"/>
      <use xlink:href="#DejaVuSerif-61" transform="translate(929.101562 0)"/>
      <use xlink:href="#DejaVuSerif-20" transform="translate(988.720703 0)"/>
      <use xlink:href="#DejaVuSerif-4e" transform="translate(1020.507812 0)"/>
      <use xlink:href="#DejaVuSerif-20" transform="translate(1108.007812 0)"/>
      <use xlink:href="#DejaVuSerif-28" transform="translate(1139.794922 0)"/>
      <use xlink:href="#DejaVuSerif-4d" transform="translate(1178.808594 0)"/>
      <use xlink:href="#DejaVuSerif-57" transform="translate(1281.201172 0)"/>
      <use xlink:href="#DejaVuSerif-4d" transform="translate(1383.984375 0)"/>
      <use xlink:href="#DejaVuSerif-65" transform="translate(1486.376953 0)"/>
      <use xlink:href="#DejaVuSerif-64" transform="translate(1545.556641 0)"/>
      <use xlink:href="#DejaVuSerif-29" transform="translate(1609.570312 0)"/>
     </g>
    </g>
    <g id="text_28">
     <!-- 1e3 -->
     <g transform="translate(231.74489 18.2795) scale(0.08 -0.08)">
      <use xlink:href="#DejaVuSerif-31"/>
      <use xlink:href="#DejaVuSerif-65" transform="translate(63.623047 0)"/>
      <use xlink:href="#DejaVuSerif-33" transform="translate(122.802734 0)"/>
     </g>
    </g>
   </g>
   <g id="line2d_41">
    <path d="M 243.680349 126.241862 
L 244.431089 127.245969 
L 245.233603 128.021317 
L 246.812744 126.505894 
L 247.589371 125.513163 
L 248.391885 127.659895 
L 249.1944 126.34925 
L 249.971026 126.992335 
L 250.773541 129.342246 
L 251.550168 129.953095 
L 252.352682 128.363233 
L 253.155196 125.672344 
L 253.880048 124.859778 
L 254.682562 125.402675 
L 255.459189 124.522709 
L 256.261704 122.919693 
L 257.03833 123.458373 
L 257.840845 129.385863 
L 258.643359 129.054254 
L 259.419986 129.848939 
L 260.2225 128.816137 
L 260.999127 129.523662 
L 261.801641 128.459308 
L 262.604156 126.489508 
L 263.329007 127.26845 
L 264.131522 126.072553 
L 264.908149 125.829362 
L 265.710663 126.77763 
L 266.48729 125.318755 
L 267.289804 125.12426 
L 269.67146 131.732918 
L 271.250601 136.180585 
L 272.777967 126.915458 
L 273.580481 125.774996 
L 274.357108 125.60379 
L 275.159622 121.720073 
L 275.936249 122.739836 
L 276.738764 128.626118 
L 277.541278 129.938671 
L 278.317905 127.837366 
L 279.120419 129.037087 
L 279.897046 129.20226 
L 280.69956 128.957032 
L 282.252814 121.856528 
L 283.055328 121.053502 
L 283.831955 122.802061 
L 284.634469 122.364294 
L 285.411096 121.789284 
L 286.21361 125.73998 
L 287.016125 127.993509 
L 287.792752 127.416791 
L 288.595266 127.265634 
L 289.371893 131.363242 
L 290.976922 127.797346 
L 291.701773 122.212943 
L 293.280914 118.885046 
L 294.083429 117.764694 
L 294.860056 119.76024 
L 295.66257 127.371947 
L 296.465084 129.215056 
L 297.241711 129.553782 
L 298.044225 130.065697 
L 298.820852 133.187302 
L 299.623367 128.081523 
L 300.425881 116.052403 
L 301.150733 113.939807 
L 301.953247 114.378868 
L 302.729874 117.0585 
L 303.532388 115.762947 
L 304.309015 113.637949 
L 305.111529 119.307431 
L 305.914044 121.072915 
L 306.69067 132.559672 
L 307.493185 132.471305 
L 308.269812 127.875461 
L 309.072326 126.276349 
L 309.87484 125.189226 
L 310.599692 124.654442 
L 311.402206 118.093737 
L 312.178833 110.747757 
L 312.981348 114.345927 
L 313.757974 124.123871 
L 314.560489 127.535661 
L 315.363003 125.004384 
L 316.942144 135.474898 
L 317.718771 136.330864 
L 318.521285 134.073227 
L 319.3238 124.448687 
L 320.074539 109.674152 
L 320.877053 106.00179 
L 321.65368 104.522543 
L 322.456195 104.159405 
L 323.232821 119.162599 
L 324.035336 125.022147 
L 324.83785 128.79651 
L 325.614477 129.411315 
L 326.416991 130.83774 
L 327.193618 133.158903 
L 327.996132 129.820636 
L 328.798647 115.083394 
L 329.523498 108.736327 
L 330.326013 102.978038 
L 331.10264 107.904181 
L 332.681781 105.152528 
L 333.484295 118.159251 
L 335.063436 129.04634 
L 335.865951 132.534892 
L 336.642577 131.179707 
L 337.445092 120.483603 
L 338.972458 105.024804 
L 339.774972 99.897945 
L 340.551599 101.673072 
L 341.354113 108.05972 
L 342.13074 120.840332 
L 342.933255 124.283317 
L 343.735769 127.156199 
L 344.512396 130.600059 
L 345.31491 134.764302 
L 346.894051 132.128439 
L 347.696566 114.813016 
L 348.421417 106.206768 
L 349.223932 106.535671 
L 350.000558 102.109118 
L 350.803073 100.475739 
L 352.382214 126.923718 
L 353.184728 123.038312 
L 353.961355 121.8687 
L 354.763869 128.075534 
L 355.540496 130.830726 
L 356.343011 113.856187 
L 357.145525 106.465359 
L 358.698779 98.078207 
L 359.475405 96.142139 
L 360.27792 107.037182 
L 361.054547 120.180959 
L 361.857061 119.792437 
L 362.659575 122.823995 
L 364.238716 131.482648 
L 365.015343 131.404742 
L 365.817858 120.738103 
L 366.620372 115.045534 
L 367.345224 100.153776 
L 368.147738 95.621395 
L 368.924365 94.885448 
L 369.726879 95.650369 
L 370.503506 119.391354 
L 371.30602 123.130137 
L 372.108535 124.394704 
L 372.885161 121.563695 
L 373.687676 124.799033 
L 374.464303 129.372748 
L 375.266817 123.841791 
L 376.069331 99.843025 
L 376.794183 96.421485 
L 377.596697 97.530576 
L 378.373324 95.97803 
L 379.175839 96.492174 
L 379.952465 118.689798 
L 380.75498 125.22414 
L 381.557494 119.384321 
L 382.334121 117.745003 
L 383.136635 129.055389 
L 383.913262 128.528767 
L 384.715776 124.116148 
L 385.518291 113.853926 
L 387.045657 101.664933 
L 387.822284 93.741199 
L 388.624798 93.438959 
L 389.401425 110.385058 
L 390.203939 124.130401 
L 391.006454 123.73979 
L 391.78308 116.160734 
L 392.585595 128.447288 
L 393.362221 133.634051 
L 394.164736 134.991003 
L 394.96725 128.919512 
L 395.717989 107.800731 
L 396.520504 106.592112 
L 397.297131 100.510248 
L 398.099645 115.512902 
L 398.876272 125.457277 
L 399.678786 128.927324 
L 400.4813 131.267474 
L 401.257927 132.68867 
L 402.060442 130.703189 
L 402.837068 125.674121 
L 403.639583 117.773294 
L 404.442097 112.714546 
L 405.166949 93.112126 
L 405.969463 84.550452 
L 406.74609 91.003457 
L 407.548604 93.108109 
L 408.325231 108.315044 
L 409.127746 121.230379 
L 409.127746 121.230379 
" clip-path="url(#pad024ab2b5)" style="fill: none; stroke: #43aaff; stroke-width: 0.66; stroke-linecap: square"/>
   </g>
   <g id="line2d_42">
    <path d="M 395.717989 107.553354 
L 396.520504 106.592112 
L 397.297131 100.510248 
L 398.099645 115.512902 
L 398.876272 125.457277 
L 399.678786 128.927324 
L 400.4813 131.267474 
L 401.257927 132.68867 
L 402.060442 130.703189 
L 402.837068 125.674121 
L 403.639583 117.773294 
L 404.442097 112.714546 
L 405.166949 93.112126 
L 405.969463 84.550452 
L 406.74609 91.003457 
L 407.548604 93.108109 
L 408.325231 108.315044 
L 409.127746 123.895325 
L 409.93026 128.815208 
L 410.706887 120.545958 
L 411.509401 129.926295 
L 412.286028 131.125657 
L 413.088542 118.354705 
L 413.891057 101.376342 
L 414.615908 89.092032 
L 415.418423 85.320903 
L 416.195049 78.135087 
L 416.997564 81.431333 
L 417.774191 102.180435 
L 418.576705 120.819103 
L 419.379219 121.034718 
L 420.155846 123.357539 
L 420.95836 122.505694 
L 421.734987 121.440453 
L 422.537502 84.31235 
L 423.340016 81.746008 
L 424.064868 66.480553 
L 424.867382 70.272174 
L 425.644009 71.719964 
L 426.446523 74.12473 
L 427.22315 96.536228 
L 428.025664 117.993114 
L 428.828179 125.219832 
L 429.604806 120.935062 
L 430.40732 118.915731 
L 431.183947 122.990617 
L 431.986461 113.96377 
L 432.788975 117.072714 
" clip-path="url(#pad024ab2b5)" style="fill: none; stroke: #43aaff; stroke-width: 0.66; stroke-linecap: square"/>
   </g>
   <g id="line2d_43">
    <path d="M 419.379219 120.498235 
L 420.155846 123.357539 
L 420.95836 122.505694 
L 421.734987 121.440453 
L 422.537502 84.31235 
L 423.340016 81.746008 
L 424.064868 66.480553 
L 424.867382 70.272174 
L 425.644009 71.719964 
L 426.446523 74.12473 
L 427.22315 96.536228 
L 428.025664 117.993114 
L 428.828179 125.219832 
L 429.604806 120.935062 
L 430.40732 118.915731 
L 431.183947 122.990617 
L 431.986461 113.96377 
L 432.788975 93.69592 
L 433.539715 64.19203 
L 434.342229 46.796062 
L 435.118856 75.714757 
L 435.92137 77.364411 
L 436.697997 84.967425 
L 437.500511 115.772169 
L 438.303026 120.531568 
L 439.079653 119.530518 
L 439.882167 119.199899 
L 440.658794 125.3825 
L 441.461308 122.682203 
L 442.263822 108.077802 
L 442.988674 78.371185 
L 443.791188 37.388946 
L 444.567815 42.111252 
L 445.37033 58.895785 
L 446.146956 103.980949 
L 446.949471 120.419515 
L 447.751985 123.799157 
L 448.528612 124.528266 
L 449.331126 119.960241 
L 450.107753 97.091747 
L 450.910267 69.125728 
L 451.712782 45.897353 
L 452.437633 45.896342 
L 453.240148 49.06774 
L 454.016775 46.275274 
L 454.819289 60.406651 
L 455.595916 96.492546 
L 456.39843 113.263984 
L 457.200945 125.498279 
L 457.977571 122.858716 
L 458.780086 118.622584 
L 459.556712 119.193391 
L 460.359227 93.229295 
L 461.161741 66.54741 
L 461.886593 59.327312 
L 462.689107 56.079297 
L 463.465734 54.38768 
L 464.268248 69.135944 
L 465.044875 95.507709 
L 465.84739 115.106554 
L 466.649904 122.234916 
L 467.426531 124.174432 
L 468.229045 121.821232 
L 469.005672 125.921793 
L 469.808186 128.784214 
L 470.610701 115.249243 
L 471.36144 70.683874 
L 472.163954 59.302293 
L 472.940581 61.007548 
L 473.743095 66.991113 
L 474.519722 107.144124 
L 475.322237 122.233986 
L 476.124751 128.387646 
L 476.901378 129.594036 
L 477.703892 126.420641 
L 478.480519 121.005713 
L 479.283033 111.652049 
" clip-path="url(#pad024ab2b5)" style="fill: none; stroke: #969696; stroke-width: 0.66; stroke-linecap: square"/>
   </g>
   <g id="line2d_44">
    <path d="M 432.788975 97.903541 
L 433.539715 75.568848 
L 434.342229 63.161467 
L 435.118856 64.493591 
L 435.92137 76.732048 
L 436.697997 92.765927 
L 437.500511 103.811765 
L 438.303026 109.349469 
L 439.079653 112.839587 
L 439.882167 116.284059 
L 440.658794 114.143689 
L 441.461308 104.219095 
L 442.263822 90.619269 
L 442.988674 76.514939 
L 443.791188 63.152292 
L 444.567815 58.345678 
L 445.37033 59.831227 
L 446.146956 78.461296 
L 446.949471 102.464592 
L 447.751985 112.835335 
L 448.528612 114.692215 
L 449.331126 117.505138 
L 450.107753 113.673314 
L 450.910267 94.681546 
L 451.712782 63.273948 
L 452.437633 36.603211 
L 453.240148 26.758136 
L 454.016775 37.856499 
L 454.819289 59.17008 
L 455.595916 86.42096 
L 456.39843 104.130873 
L 457.200945 112.993677 
L 457.977571 115.945894 
L 458.780086 109.389844 
L 459.556712 93.643381 
L 460.359227 77.150715 
L 461.161741 63.180327 
L 461.886593 53.260944 
L 462.689107 49.013143 
L 463.465734 53.846284 
L 464.268248 69.642798 
L 465.044875 87.271962 
L 465.84739 99.365651 
L 466.649904 106.136689 
L 467.426531 112.997433 
L 468.229045 114.43455 
L 469.005672 107.613339 
L 469.808186 95.835466 
L 470.610701 84.806107 
L 471.36144 77.164657 
L 472.163954 66.709308 
L 472.940581 61.06938 
L 473.743095 67.503799 
L 474.519722 86.116676 
L 475.322237 103.413847 
L 476.124751 112.491089 
L 476.901378 118.862237 
L 477.703892 121.669409 
L 478.480519 120.539447 
L 479.283033 109.624325 
L 480.085548 88.051859 
L 480.810399 59.635322 
L 481.612914 50.371565 
L 482.38954 54.177583 
" clip-path="url(#pad024ab2b5)" style="fill: none; stroke: #ff9046; stroke-width: 0.66; stroke-linecap: square"/>
   </g>
   <g id="patch_6">
    <path d="M 231.74489 141.8095 
L 231.74489 21.2795 
" style="fill: none; stroke: #000000; stroke-width: 0.8; stroke-linejoin: miter; stroke-linecap: square"/>
   </g>
   <g id="patch_7">
    <path d="M 231.74489 141.8095 
L 494.325 141.8095 
" style="fill: none; stroke: #000000; stroke-width: 0.8; stroke-linejoin: miter; stroke-linecap: square"/>
   </g>
   <g id="text_29">
    <g id="patch_8">
     <path d="M 234.896492 44.118688 
L 310.76118 44.118688 
L 310.76118 25.106469 
L 234.896492 25.106469 
z
" style="fill: #ffffff"/>
    </g>
    <!-- R² Ajustado = 0.783 -->
    <g transform="translate(236.996492 32.624906) scale(0.07 -0.07)">
     <defs>
      <path id="DejaVuSerif-b2" d="M 531 4050 
L 313 4050 
L 313 4544 
Q 519 4644 737 4697 
Q 956 4750 1172 4750 
Q 1603 4750 1870 4544 
Q 2138 4338 2138 4013 
Q 2138 3631 1531 3088 
L 1472 3034 
L 728 2363 
L 1931 2363 
L 1931 2700 
L 2163 2700 
L 2163 2088 
L 281 2088 
L 281 2322 
L 1172 3116 
Q 1441 3356 1556 3547 
Q 1672 3738 1672 3944 
Q 1672 4209 1520 4364 
Q 1369 4519 1106 4519 
Q 863 4519 716 4400 
Q 569 4281 531 4050 
z
" transform="scale(0.015625)"/>
      <path id="DejaVuSerif-41" d="M 1281 1691 
L 2994 1691 
L 2138 3909 
L 1281 1691 
z
M -38 0 
L -38 331 
L 372 331 
L 2034 4666 
L 2559 4666 
L 4225 331 
L 4684 331 
L 4684 0 
L 2988 0 
L 2988 331 
L 3506 331 
L 3116 1356 
L 1153 1356 
L 763 331 
L 1275 331 
L 1275 0 
L -38 0 
z
" transform="scale(0.015625)"/>
      <path id="DejaVuSerif-6a" d="M 641 4353 
Q 641 4497 745 4603 
Q 850 4709 997 4709 
Q 1141 4709 1245 4603 
Q 1350 4497 1350 4353 
Q 1350 4206 1248 4103 
Q 1147 4000 997 4000 
Q 850 4000 745 4103 
Q 641 4206 641 4353 
z
M 781 2988 
L 238 2988 
L 238 3322 
L 1356 3322 
L 1356 -325 
Q 1356 -838 1051 -1130 
Q 747 -1422 213 -1422 
Q -13 -1422 -217 -1370 
Q -422 -1319 -616 -1216 
L -616 -531 
L -319 -531 
Q -297 -831 -164 -972 
Q -31 -1113 225 -1113 
Q 509 -1113 645 -920 
Q 781 -728 781 -325 
L 781 2988 
z
" transform="scale(0.015625)"/>
      <path id="DejaVuSerif-3d" d="M 678 2894 
L 4684 2894 
L 4684 2394 
L 678 2394 
L 678 2894 
z
M 678 1619 
L 4684 1619 
L 4684 1119 
L 678 1119 
L 678 1619 
z
" transform="scale(0.015625)"/>
     </defs>
     <use xlink:href="#DejaVuSerif-52"/>
     <use xlink:href="#DejaVuSerif-b2" transform="translate(75.292969 0)"/>
     <use xlink:href="#DejaVuSerif-20" transform="translate(115.380859 0)"/>
     <use xlink:href="#DejaVuSerif-41" transform="translate(147.167969 0)"/>
     <use xlink:href="#DejaVuSerif-6a" transform="translate(219.384766 0)"/>
     <use xlink:href="#DejaVuSerif-75" transform="translate(250.390625 0)"/>
     <use xlink:href="#DejaVuSerif-73" transform="translate(314.794922 0)"/>
     <use xlink:href="#DejaVuSerif-74" transform="translate(366.113281 0)"/>
     <use xlink:href="#DejaVuSerif-61" transform="translate(406.298828 0)"/>
     <use xlink:href="#DejaVuSerif-64" transform="translate(465.917969 0)"/>
     <use xlink:href="#DejaVuSerif-6f" transform="translate(529.931641 0)"/>
     <use xlink:href="#DejaVuSerif-20" transform="translate(590.136719 0)"/>
     <use xlink:href="#DejaVuSerif-3d" transform="translate(621.923828 0)"/>
     <use xlink:href="#DejaVuSerif-20" transform="translate(705.712891 0)"/>
     <use xlink:href="#DejaVuSerif-30" transform="translate(737.5 0)"/>
     <use xlink:href="#DejaVuSerif-2e" transform="translate(801.123047 0)"/>
     <use xlink:href="#DejaVuSerif-37" transform="translate(832.910156 0)"/>
     <use xlink:href="#DejaVuSerif-38" transform="translate(896.533203 0)"/>
     <use xlink:href="#DejaVuSerif-33" transform="translate(960.15625 0)"/>
    </g>
    <!-- MSE = 4.35E+06 -->
    <g transform="translate(236.996492 40.562906) scale(0.07 -0.07)">
     <defs>
      <path id="DejaVuSerif-45" d="M 353 0 
L 353 331 
L 947 331 
L 947 4331 
L 353 4331 
L 353 4666 
L 4109 4666 
L 4109 3628 
L 3725 3628 
L 3725 4281 
L 1581 4281 
L 1581 2719 
L 3109 2719 
L 3109 3303 
L 3494 3303 
L 3494 1753 
L 3109 1753 
L 3109 2338 
L 1581 2338 
L 1581 384 
L 3775 384 
L 3775 1038 
L 4159 1038 
L 4159 0 
L 353 0 
z
" transform="scale(0.015625)"/>
      <path id="DejaVuSerif-34" d="M 2234 1581 
L 2234 4063 
L 641 1581 
L 2234 1581 
z
M 3609 0 
L 1484 0 
L 1484 331 
L 2234 331 
L 2234 1247 
L 197 1247 
L 197 1588 
L 2241 4750 
L 2859 4750 
L 2859 1581 
L 3750 1581 
L 3750 1247 
L 2859 1247 
L 2859 331 
L 3609 331 
L 3609 0 
z
" transform="scale(0.015625)"/>
      <path id="DejaVuSerif-2b" d="M 2931 4013 
L 2931 2259 
L 4684 2259 
L 4684 1753 
L 2931 1753 
L 2931 0 
L 2431 0 
L 2431 1753 
L 678 1753 
L 678 2259 
L 2431 2259 
L 2431 4013 
L 2931 4013 
z
" transform="scale(0.015625)"/>
     </defs>
     <use xlink:href="#DejaVuSerif-4d"/>
     <use xlink:href="#DejaVuSerif-53" transform="translate(102.392578 0)"/>
     <use xlink:href="#DejaVuSerif-45" transform="translate(170.898438 0)"/>
     <use xlink:href="#DejaVuSerif-20" transform="translate(243.896484 0)"/>
     <use xlink:href="#DejaVuSerif-3d" transform="translate(275.683594 0)"/>
     <use xlink:href="#DejaVuSerif-20" transform="translate(359.472656 0)"/>
     <use xlink:href="#DejaVuSerif-34" transform="translate(391.259766 0)"/>
     <use xlink:href="#DejaVuSerif-2e" transform="translate(454.882812 0)"/>
     <use xlink:href="#DejaVuSerif-33" transform="translate(486.669922 0)"/>
     <use xlink:href="#DejaVuSerif-35" transform="translate(550.292969 0)"/>
     <use xlink:href="#DejaVuSerif-45" transform="translate(613.916016 0)"/>
     <use xlink:href="#DejaVuSerif-2b" transform="translate(686.914062 0)"/>
     <use xlink:href="#DejaVuSerif-30" transform="translate(770.703125 0)"/>
     <use xlink:href="#DejaVuSerif-36" transform="translate(834.326172 0)"/>
    </g>
   </g>
   <g id="legend_2">
    <g id="line2d_45">
     <path d="M 274.60182 13.67875 
L 282.60182 13.67875 
L 290.60182 13.67875 
" style="fill: none; stroke: #43aaff; stroke-width: 0.66; stroke-linecap: square"/>
    </g>
    <g id="text_30">
     <!-- Treino -->
     <g transform="translate(297.00182 16.47875) scale(0.08 -0.08)">
      <defs>
       <path id="DejaVuSerif-54" d="M 1222 0 
L 1222 331 
L 1819 331 
L 1819 4294 
L 447 4294 
L 447 3566 
L 63 3566 
L 63 4666 
L 4206 4666 
L 4206 3566 
L 3822 3566 
L 3822 4294 
L 2450 4294 
L 2450 331 
L 3047 331 
L 3047 0 
L 1222 0 
z
" transform="scale(0.015625)"/>
       <path id="DejaVuSerif-6e" d="M 263 0 
L 263 331 
L 781 331 
L 781 2988 
L 231 2988 
L 231 3322 
L 1356 3322 
L 1356 2731 
Q 1516 3069 1770 3241 
Q 2025 3413 2363 3413 
Q 2913 3413 3172 3097 
Q 3431 2781 3431 2113 
L 3431 331 
L 3944 331 
L 3944 0 
L 2356 0 
L 2356 331 
L 2853 331 
L 2853 1931 
Q 2853 2541 2703 2767 
Q 2553 2994 2175 2994 
Q 1775 2994 1565 2701 
Q 1356 2409 1356 1850 
L 1356 331 
L 1856 331 
L 1856 0 
L 263 0 
z
" transform="scale(0.015625)"/>
      </defs>
      <use xlink:href="#DejaVuSerif-54"/>
      <use xlink:href="#DejaVuSerif-72" transform="translate(66.699219 0)"/>
      <use xlink:href="#DejaVuSerif-65" transform="translate(114.501953 0)"/>
      <use xlink:href="#DejaVuSerif-69" transform="translate(173.681641 0)"/>
      <use xlink:href="#DejaVuSerif-6e" transform="translate(205.664062 0)"/>
      <use xlink:href="#DejaVuSerif-6f" transform="translate(270.068359 0)"/>
     </g>
    </g>
    <g id="line2d_46">
     <path d="M 339.42432 13.67875 
L 347.42432 13.67875 
L 355.42432 13.67875 
" style="fill: none; stroke: #969696; stroke-width: 0.66; stroke-linecap: square"/>
    </g>
    <g id="text_31">
     <!-- Real -->
     <g transform="translate(361.82432 16.47875) scale(0.08 -0.08)">
      <use xlink:href="#DejaVuSerif-52"/>
      <use xlink:href="#DejaVuSerif-65" transform="translate(75.292969 0)"/>
      <use xlink:href="#DejaVuSerif-61" transform="translate(134.472656 0)"/>
      <use xlink:href="#DejaVuSerif-6c" transform="translate(194.091797 0)"/>
     </g>
    </g>
    <g id="line2d_47">
     <path d="M 395.91182 13.67875 
L 403.91182 13.67875 
L 411.91182 13.67875 
" style="fill: none; stroke: #ff9046; stroke-width: 0.66; stroke-linecap: square"/>
    </g>
    <g id="text_32">
     <!-- Previsto -->
     <g transform="translate(418.31182 16.47875) scale(0.08 -0.08)">
      <use xlink:href="#DejaVuSerif-50"/>
      <use xlink:href="#DejaVuSerif-72" transform="translate(67.285156 0)"/>
      <use xlink:href="#DejaVuSerif-65" transform="translate(115.087891 0)"/>
      <use xlink:href="#DejaVuSerif-76" transform="translate(174.267578 0)"/>
      <use xlink:href="#DejaVuSerif-69" transform="translate(230.761719 0)"/>
      <use xlink:href="#DejaVuSerif-73" transform="translate(262.744141 0)"/>
      <use xlink:href="#DejaVuSerif-74" transform="translate(314.0625 0)"/>
      <use xlink:href="#DejaVuSerif-6f" transform="translate(354.248047 0)"/>
     </g>
    </g>
   </g>
  </g>
 </g>
 <defs>
  <clipPath id="p6aff6cb500">
   <rect x="48.845" y="21.2795" width="131.290055" height="120.53"/>
  </clipPath>
  <clipPath id="pad024ab2b5">
   <rect x="231.74489" y="21.2795" width="262.58011" height="120.53"/>
  </clipPath>
 </defs>
</svg>
