<?xml version="1.0" encoding="utf-8" standalone="no"?>
<!DOCTYPE svg PUBLIC "-//W3C//DTD SVG 1.1//EN"
  "http://www.w3.org/Graphics/SVG/1.1/DTD/svg11.dtd">
<svg xmlns:xlink="http://www.w3.org/1999/xlink" width="645.485pt" height="212.1128pt" viewBox="0 0 645.485 212.1128" xmlns="http://www.w3.org/2000/svg" version="1.1">
 <metadata>
  <rdf:RDF xmlns:dc="http://purl.org/dc/elements/1.1/" xmlns:cc="http://creativecommons.org/ns#" xmlns:rdf="http://www.w3.org/1999/02/22-rdf-syntax-ns#">
   <cc:Work>
    <dc:type rdf:resource="http://purl.org/dc/dcmitype/StillImage"/>
    <dc:date>2025-06-26T15:53:17.454074</dc:date>
    <dc:format>image/svg+xml</dc:format>
    <dc:creator>
     <cc:Agent>
      <dc:title>Matplotlib v3.10.1, https://matplotlib.org/</dc:title>
     </cc:Agent>
    </dc:creator>
   </cc:Work>
  </rdf:RDF>
 </metadata>
 <defs>
  <style type="text/css">*{stroke-linejoin: round; stroke-linecap: butt}</style>
 </defs>
 <g id="figure_1">
  <g id="patch_1">
   <path d="M 0 212.1128 
L 645.485 212.1128 
L 645.485 0 
L 0 0 
z
" style="fill: #ffffff"/>
  </g>
  <g id="axes_1">
   <g id="patch_2">
    <path d="M 53.935 178.4278 
L 232.897452 178.4278 
L 232.897452 26.0558 
L 53.935 26.0558 
z
" style="fill: #ffffff"/>
   </g>
   <g id="matplotlib.axis_1">
    <g id="xtick_1">
     <g id="line2d_1">
      <path d="M 62.069657 178.4278 
L 62.069657 26.0558 
" clip-path="url(#pca8580dc42)" style="fill: none; stroke-dasharray: 2.96,1.28; stroke-dashoffset: 0; stroke: #b0b0b0; stroke-opacity: 0.5; stroke-width: 0.8"/>
     </g>
     <g id="line2d_2">
      <defs>
       <path id="medd4486974" d="M 0 0 
L 0 3.5 
" style="stroke: #000000; stroke-width: 0.8"/>
      </defs>
      <g>
       <use xlink:href="#medd4486974" x="62.069657" y="178.4278" style="stroke: #000000; stroke-width: 0.8"/>
      </g>
     </g>
     <g id="text_1">
      <!-- 0.5150 -->
      <g transform="translate(48.073407 191.50655) scale(0.08 -0.08)">
       <defs>
        <path id="DejaVuSerif-30" d="M 2034 219 
Q 2513 219 2750 744 
Q 2988 1269 2988 2328 
Q 2988 3391 2750 3916 
Q 2513 4441 2034 4441 
Q 1556 4441 1318 3916 
Q 1081 3391 1081 2328 
Q 1081 1269 1318 744 
Q 1556 219 2034 219 
z
M 2034 -91 
Q 1275 -91 848 546 
Q 422 1184 422 2328 
Q 422 3475 848 4112 
Q 1275 4750 2034 4750 
Q 2797 4750 3222 4112 
Q 3647 3475 3647 2328 
Q 3647 1184 3222 546 
Q 2797 -91 2034 -91 
z
" transform="scale(0.015625)"/>
        <path id="DejaVuSerif-2e" d="M 603 325 
Q 603 500 722 622 
Q 841 744 1019 744 
Q 1191 744 1312 622 
Q 1434 500 1434 325 
Q 1434 153 1312 31 
Q 1191 -91 1019 -91 
Q 841 -91 722 29 
Q 603 150 603 325 
z
" transform="scale(0.015625)"/>
        <path id="DejaVuSerif-35" d="M 3219 4666 
L 3219 4153 
L 1081 4153 
L 1081 2816 
Q 1244 2928 1461 2984 
Q 1678 3041 1947 3041 
Q 2703 3041 3140 2622 
Q 3578 2203 3578 1478 
Q 3578 738 3136 323 
Q 2694 -91 1894 -91 
Q 1572 -91 1234 -12 
Q 897 66 544 225 
L 544 1131 
L 897 1131 
Q 925 688 1179 453 
Q 1434 219 1894 219 
Q 2388 219 2653 544 
Q 2919 869 2919 1478 
Q 2919 2084 2655 2407 
Q 2391 2731 1894 2731 
Q 1613 2731 1398 2631 
Q 1184 2531 1019 2322 
L 750 2322 
L 750 4666 
L 3219 4666 
z
" transform="scale(0.015625)"/>
        <path id="DejaVuSerif-31" d="M 909 0 
L 909 331 
L 1722 331 
L 1722 4213 
L 781 3603 
L 781 4013 
L 1919 4750 
L 2350 4750 
L 2350 331 
L 3163 331 
L 3163 0 
L 909 0 
z
" transform="scale(0.015625)"/>
       </defs>
       <use xlink:href="#DejaVuSerif-30"/>
       <use xlink:href="#DejaVuSerif-2e" transform="translate(63.623047 0)"/>
       <use xlink:href="#DejaVuSerif-35" transform="translate(95.410156 0)"/>
       <use xlink:href="#DejaVuSerif-31" transform="translate(159.033203 0)"/>
       <use xlink:href="#DejaVuSerif-35" transform="translate(222.65625 0)"/>
       <use xlink:href="#DejaVuSerif-30" transform="translate(286.279297 0)"/>
      </g>
     </g>
    </g>
    <g id="xtick_2">
     <g id="line2d_3">
      <path d="M 102.742941 178.4278 
L 102.742941 26.0558 
" clip-path="url(#pca8580dc42)" style="fill: none; stroke-dasharray: 2.96,1.28; stroke-dashoffset: 0; stroke: #b0b0b0; stroke-opacity: 0.5; stroke-width: 0.8"/>
     </g>
     <g id="line2d_4">
      <g>
       <use xlink:href="#medd4486974" x="102.742941" y="178.4278" style="stroke: #000000; stroke-width: 0.8"/>
      </g>
     </g>
     <g id="text_2">
      <!-- 0.6181 -->
      <g transform="translate(88.746691 191.50655) scale(0.08 -0.08)">
       <defs>
        <path id="DejaVuSerif-36" d="M 2094 219 
Q 2534 219 2771 542 
Q 3009 866 3009 1472 
Q 3009 2078 2771 2401 
Q 2534 2725 2094 2725 
Q 1647 2725 1412 2412 
Q 1178 2100 1178 1509 
Q 1178 888 1415 553 
Q 1653 219 2094 219 
z
M 1075 2569 
Q 1288 2803 1556 2918 
Q 1825 3034 2163 3034 
Q 2859 3034 3264 2615 
Q 3669 2197 3669 1472 
Q 3669 763 3233 336 
Q 2797 -91 2069 -91 
Q 1278 -91 853 498 
Q 428 1088 428 2181 
Q 428 3406 931 4078 
Q 1434 4750 2350 4750 
Q 2597 4750 2869 4703 
Q 3141 4656 3425 4563 
L 3425 3794 
L 3072 3794 
Q 3034 4109 2831 4275 
Q 2628 4441 2284 4441 
Q 1678 4441 1381 3981 
Q 1084 3522 1075 2569 
z
" transform="scale(0.015625)"/>
        <path id="DejaVuSerif-38" d="M 2981 1275 
Q 2981 1775 2732 2051 
Q 2484 2328 2034 2328 
Q 1584 2328 1336 2051 
Q 1088 1775 1088 1275 
Q 1088 772 1336 495 
Q 1584 219 2034 219 
Q 2484 219 2732 495 
Q 2981 772 2981 1275 
z
M 2853 3541 
Q 2853 3966 2637 4203 
Q 2422 4441 2034 4441 
Q 1650 4441 1433 4203 
Q 1216 3966 1216 3541 
Q 1216 3113 1433 2875 
Q 1650 2638 2034 2638 
Q 2422 2638 2637 2875 
Q 2853 3113 2853 3541 
z
M 2516 2484 
Q 3047 2413 3344 2092 
Q 3641 1772 3641 1275 
Q 3641 619 3225 264 
Q 2809 -91 2034 -91 
Q 1263 -91 845 264 
Q 428 619 428 1275 
Q 428 1772 725 2092 
Q 1022 2413 1556 2484 
Q 1084 2569 832 2842 
Q 581 3116 581 3541 
Q 581 4103 968 4426 
Q 1356 4750 2034 4750 
Q 2713 4750 3100 4426 
Q 3488 4103 3488 3541 
Q 3488 3116 3236 2842 
Q 2984 2569 2516 2484 
z
" transform="scale(0.015625)"/>
       </defs>
       <use xlink:href="#DejaVuSerif-30"/>
       <use xlink:href="#DejaVuSerif-2e" transform="translate(63.623047 0)"/>
       <use xlink:href="#DejaVuSerif-36" transform="translate(95.410156 0)"/>
       <use xlink:href="#DejaVuSerif-31" transform="translate(159.033203 0)"/>
       <use xlink:href="#DejaVuSerif-38" transform="translate(222.65625 0)"/>
       <use xlink:href="#DejaVuSerif-31" transform="translate(286.279297 0)"/>
      </g>
     </g>
    </g>
    <g id="xtick_3">
     <g id="line2d_5">
      <path d="M 143.416226 178.4278 
L 143.416226 26.0558 
" clip-path="url(#pca8580dc42)" style="fill: none; stroke-dasharray: 2.96,1.28; stroke-dashoffset: 0; stroke: #b0b0b0; stroke-opacity: 0.5; stroke-width: 0.8"/>
     </g>
     <g id="line2d_6">
      <g>
       <use xlink:href="#medd4486974" x="143.416226" y="178.4278" style="stroke: #000000; stroke-width: 0.8"/>
      </g>
     </g>
     <g id="text_3">
      <!-- 0.7211 -->
      <g transform="translate(129.419976 191.50655) scale(0.08 -0.08)">
       <defs>
        <path id="DejaVuSerif-37" d="M 3609 4347 
L 1784 0 
L 1319 0 
L 3059 4153 
L 903 4153 
L 903 3578 
L 538 3578 
L 538 4666 
L 3609 4666 
L 3609 4347 
z
" transform="scale(0.015625)"/>
        <path id="DejaVuSerif-32" d="M 819 3553 
L 469 3553 
L 469 4384 
Q 803 4563 1142 4656 
Q 1481 4750 1806 4750 
Q 2534 4750 2956 4397 
Q 3378 4044 3378 3438 
Q 3378 2753 2422 1800 
Q 2347 1728 2309 1691 
L 1131 513 
L 3078 513 
L 3078 1088 
L 3444 1088 
L 3444 0 
L 434 0 
L 434 341 
L 1850 1753 
Q 2319 2222 2519 2614 
Q 2719 3006 2719 3438 
Q 2719 3909 2473 4175 
Q 2228 4441 1797 4441 
Q 1350 4441 1106 4219 
Q 863 3997 819 3553 
z
" transform="scale(0.015625)"/>
       </defs>
       <use xlink:href="#DejaVuSerif-30"/>
       <use xlink:href="#DejaVuSerif-2e" transform="translate(63.623047 0)"/>
       <use xlink:href="#DejaVuSerif-37" transform="translate(95.410156 0)"/>
       <use xlink:href="#DejaVuSerif-32" transform="translate(159.033203 0)"/>
       <use xlink:href="#DejaVuSerif-31" transform="translate(222.65625 0)"/>
       <use xlink:href="#DejaVuSerif-31" transform="translate(286.279297 0)"/>
      </g>
     </g>
    </g>
    <g id="xtick_4">
     <g id="line2d_7">
      <path d="M 184.08951 178.4278 
L 184.08951 26.0558 
" clip-path="url(#pca8580dc42)" style="fill: none; stroke-dasharray: 2.96,1.28; stroke-dashoffset: 0; stroke: #b0b0b0; stroke-opacity: 0.5; stroke-width: 0.8"/>
     </g>
     <g id="line2d_8">
      <g>
       <use xlink:href="#medd4486974" x="184.08951" y="178.4278" style="stroke: #000000; stroke-width: 0.8"/>
      </g>
     </g>
     <g id="text_4">
      <!-- 0.8242 -->
      <g transform="translate(170.09326 191.50655) scale(0.08 -0.08)">
       <defs>
        <path id="DejaVuSerif-34" d="M 2234 1581 
L 2234 4063 
L 641 1581 
L 2234 1581 
z
M 3609 0 
L 1484 0 
L 1484 331 
L 2234 331 
L 2234 1247 
L 197 1247 
L 197 1588 
L 2241 4750 
L 2859 4750 
L 2859 1581 
L 3750 1581 
L 3750 1247 
L 2859 1247 
L 2859 331 
L 3609 331 
L 3609 0 
z
" transform="scale(0.015625)"/>
       </defs>
       <use xlink:href="#DejaVuSerif-30"/>
       <use xlink:href="#DejaVuSerif-2e" transform="translate(63.623047 0)"/>
       <use xlink:href="#DejaVuSerif-38" transform="translate(95.410156 0)"/>
       <use xlink:href="#DejaVuSerif-32" transform="translate(159.033203 0)"/>
       <use xlink:href="#DejaVuSerif-34" transform="translate(222.65625 0)"/>
       <use xlink:href="#DejaVuSerif-32" transform="translate(286.279297 0)"/>
      </g>
     </g>
    </g>
    <g id="xtick_5">
     <g id="line2d_9">
      <path d="M 224.762795 178.4278 
L 224.762795 26.0558 
" clip-path="url(#pca8580dc42)" style="fill: none; stroke-dasharray: 2.96,1.28; stroke-dashoffset: 0; stroke: #b0b0b0; stroke-opacity: 0.5; stroke-width: 0.8"/>
     </g>
     <g id="line2d_10">
      <g>
       <use xlink:href="#medd4486974" x="224.762795" y="178.4278" style="stroke: #000000; stroke-width: 0.8"/>
      </g>
     </g>
     <g id="text_5">
      <!-- 0.9272 -->
      <g transform="translate(210.766545 191.50655) scale(0.08 -0.08)">
       <defs>
        <path id="DejaVuSerif-39" d="M 2994 2091 
Q 2784 1856 2512 1740 
Q 2241 1625 1900 1625 
Q 1206 1625 804 2044 
Q 403 2463 403 3188 
Q 403 3897 839 4323 
Q 1275 4750 2003 4750 
Q 2794 4750 3217 4161 
Q 3641 3572 3641 2478 
Q 3641 1253 3137 581 
Q 2634 -91 1722 -91 
Q 1475 -91 1203 -44 
Q 931 3 647 97 
L 647 872 
L 997 872 
Q 1038 556 1241 387 
Q 1444 219 1784 219 
Q 2391 219 2687 676 
Q 2984 1134 2994 2091 
z
M 1978 4441 
Q 1534 4441 1298 4117 
Q 1063 3794 1063 3188 
Q 1063 2581 1298 2256 
Q 1534 1931 1978 1931 
Q 2422 1931 2658 2245 
Q 2894 2559 2894 3150 
Q 2894 3772 2656 4106 
Q 2419 4441 1978 4441 
z
" transform="scale(0.015625)"/>
       </defs>
       <use xlink:href="#DejaVuSerif-30"/>
       <use xlink:href="#DejaVuSerif-2e" transform="translate(63.623047 0)"/>
       <use xlink:href="#DejaVuSerif-39" transform="translate(95.410156 0)"/>
       <use xlink:href="#DejaVuSerif-32" transform="translate(159.033203 0)"/>
       <use xlink:href="#DejaVuSerif-37" transform="translate(222.65625 0)"/>
       <use xlink:href="#DejaVuSerif-32" transform="translate(286.279297 0)"/>
      </g>
     </g>
    </g>
    <g id="text_6">
     <!-- Real -->
     <g transform="translate(134.372476 203.24905) scale(0.08 -0.08)">
      <defs>
       <path id="DejaVuSerif-52" d="M 3066 2316 
Q 3284 2256 3442 2114 
Q 3600 1972 3725 1716 
L 4403 331 
L 4972 331 
L 4972 0 
L 3872 0 
L 3144 1484 
Q 2934 1916 2759 2042 
Q 2584 2169 2278 2169 
L 1581 2169 
L 1581 331 
L 2241 331 
L 2241 0 
L 353 0 
L 353 331 
L 947 331 
L 947 4331 
L 353 4331 
L 353 4666 
L 2719 4666 
Q 3400 4666 3770 4341 
Q 4141 4016 4141 3419 
Q 4141 2938 3870 2661 
Q 3600 2384 3066 2316 
z
M 1581 2503 
L 2503 2503 
Q 2975 2503 3200 2726 
Q 3425 2950 3425 3419 
Q 3425 3888 3200 4109 
Q 2975 4331 2503 4331 
L 1581 4331 
L 1581 2503 
z
" transform="scale(0.015625)"/>
       <path id="DejaVuSerif-65" d="M 3469 1600 
L 991 1600 
L 991 1575 
Q 991 903 1244 561 
Q 1497 219 1991 219 
Q 2369 219 2611 417 
Q 2853 616 2950 1006 
L 3413 1006 
Q 3275 459 2904 184 
Q 2534 -91 1931 -91 
Q 1203 -91 761 389 
Q 319 869 319 1663 
Q 319 2450 753 2931 
Q 1188 3413 1894 3413 
Q 2647 3413 3050 2948 
Q 3453 2484 3469 1600 
z
M 2791 1931 
Q 2772 2513 2545 2808 
Q 2319 3103 1894 3103 
Q 1497 3103 1269 2806 
Q 1041 2509 991 1931 
L 2791 1931 
z
" transform="scale(0.015625)"/>
       <path id="DejaVuSerif-61" d="M 2547 1044 
L 2547 1747 
L 1806 1747 
Q 1378 1747 1168 1562 
Q 959 1378 959 997 
Q 959 650 1171 447 
Q 1384 244 1747 244 
Q 2106 244 2326 466 
Q 2547 688 2547 1044 
z
M 3122 2075 
L 3122 331 
L 3634 331 
L 3634 0 
L 2547 0 
L 2547 359 
Q 2356 128 2106 18 
Q 1856 -91 1522 -91 
Q 969 -91 644 203 
Q 319 497 319 997 
Q 319 1513 691 1797 
Q 1063 2081 1741 2081 
L 2547 2081 
L 2547 2309 
Q 2547 2688 2317 2895 
Q 2088 3103 1672 3103 
Q 1328 3103 1125 2947 
Q 922 2791 872 2484 
L 575 2484 
L 575 3156 
Q 875 3284 1158 3348 
Q 1441 3413 1709 3413 
Q 2400 3413 2761 3070 
Q 3122 2728 3122 2075 
z
" transform="scale(0.015625)"/>
       <path id="DejaVuSerif-6c" d="M 1313 331 
L 1856 331 
L 1856 0 
L 184 0 
L 184 331 
L 738 331 
L 738 4531 
L 184 4531 
L 184 4863 
L 1313 4863 
L 1313 331 
z
" transform="scale(0.015625)"/>
      </defs>
      <use xlink:href="#DejaVuSerif-52"/>
      <use xlink:href="#DejaVuSerif-65" transform="translate(75.292969 0)"/>
      <use xlink:href="#DejaVuSerif-61" transform="translate(134.472656 0)"/>
      <use xlink:href="#DejaVuSerif-6c" transform="translate(194.091797 0)"/>
     </g>
    </g>
    <g id="text_7">
     <!-- 1e3 -->
     <g transform="translate(217.982452 202.24905) scale(0.08 -0.08)">
      <defs>
       <path id="DejaVuSerif-33" d="M 622 4469 
Q 988 4606 1323 4678 
Q 1659 4750 1953 4750 
Q 2638 4750 3022 4454 
Q 3406 4159 3406 3634 
Q 3406 3213 3140 2930 
Q 2875 2647 2388 2547 
Q 2963 2466 3280 2130 
Q 3597 1794 3597 1259 
Q 3597 606 3158 257 
Q 2719 -91 1894 -91 
Q 1528 -91 1179 -12 
Q 831 66 488 225 
L 488 1131 
L 838 1131 
Q 869 681 1141 450 
Q 1413 219 1906 219 
Q 2384 219 2661 495 
Q 2938 772 2938 1253 
Q 2938 1803 2653 2086 
Q 2369 2369 1819 2369 
L 1522 2369 
L 1522 2688 
L 1678 2688 
Q 2225 2688 2498 2914 
Q 2772 3141 2772 3597 
Q 2772 4006 2547 4223 
Q 2322 4441 1900 4441 
Q 1478 4441 1245 4241 
Q 1013 4041 972 3647 
L 622 3647 
L 622 4469 
z
" transform="scale(0.015625)"/>
      </defs>
      <use xlink:href="#DejaVuSerif-31"/>
      <use xlink:href="#DejaVuSerif-65" transform="translate(63.623047 0)"/>
      <use xlink:href="#DejaVuSerif-33" transform="translate(122.802734 0)"/>
     </g>
    </g>
   </g>
   <g id="matplotlib.axis_2">
    <g id="ytick_1">
     <g id="line2d_11">
      <path d="M 53.935 171.5018 
L 232.897452 171.5018 
" clip-path="url(#pca8580dc42)" style="fill: none; stroke-dasharray: 2.96,1.28; stroke-dashoffset: 0; stroke: #b0b0b0; stroke-opacity: 0.5; stroke-width: 0.8"/>
     </g>
     <g id="line2d_12">
      <defs>
       <path id="m0d0971bd3c" d="M 0 0 
L -3.5 0 
" style="stroke: #000000; stroke-width: 0.8"/>
      </defs>
      <g>
       <use xlink:href="#m0d0971bd3c" x="53.935" y="171.5018" style="stroke: #000000; stroke-width: 0.8"/>
      </g>
     </g>
     <g id="text_8">
      <!-- 0.5150 -->
      <g transform="translate(18.9425 174.541175) scale(0.08 -0.08)">
       <use xlink:href="#DejaVuSerif-30"/>
       <use xlink:href="#DejaVuSerif-2e" transform="translate(63.623047 0)"/>
       <use xlink:href="#DejaVuSerif-35" transform="translate(95.410156 0)"/>
       <use xlink:href="#DejaVuSerif-31" transform="translate(159.033203 0)"/>
       <use xlink:href="#DejaVuSerif-35" transform="translate(222.65625 0)"/>
       <use xlink:href="#DejaVuSerif-30" transform="translate(286.279297 0)"/>
      </g>
     </g>
    </g>
    <g id="ytick_2">
     <g id="line2d_13">
      <path d="M 53.935 155.097175 
L 232.897452 155.097175 
" clip-path="url(#pca8580dc42)" style="fill: none; stroke-dasharray: 2.96,1.28; stroke-dashoffset: 0; stroke: #b0b0b0; stroke-opacity: 0.5; stroke-width: 0.8"/>
     </g>
     <g id="line2d_14">
      <g>
       <use xlink:href="#m0d0971bd3c" x="53.935" y="155.097175" style="stroke: #000000; stroke-width: 0.8"/>
      </g>
     </g>
     <g id="text_9">
      <!-- 0.6181 -->
      <g transform="translate(18.9425 158.13655) scale(0.08 -0.08)">
       <use xlink:href="#DejaVuSerif-30"/>
       <use xlink:href="#DejaVuSerif-2e" transform="translate(63.623047 0)"/>
       <use xlink:href="#DejaVuSerif-36" transform="translate(95.410156 0)"/>
       <use xlink:href="#DejaVuSerif-31" transform="translate(159.033203 0)"/>
       <use xlink:href="#DejaVuSerif-38" transform="translate(222.65625 0)"/>
       <use xlink:href="#DejaVuSerif-31" transform="translate(286.279297 0)"/>
      </g>
     </g>
    </g>
    <g id="ytick_3">
     <g id="line2d_15">
      <path d="M 53.935 138.692549 
L 232.897452 138.692549 
" clip-path="url(#pca8580dc42)" style="fill: none; stroke-dasharray: 2.96,1.28; stroke-dashoffset: 0; stroke: #b0b0b0; stroke-opacity: 0.5; stroke-width: 0.8"/>
     </g>
     <g id="line2d_16">
      <g>
       <use xlink:href="#m0d0971bd3c" x="53.935" y="138.692549" style="stroke: #000000; stroke-width: 0.8"/>
      </g>
     </g>
     <g id="text_10">
      <!-- 0.7211 -->
      <g transform="translate(18.9425 141.731924) scale(0.08 -0.08)">
       <use xlink:href="#DejaVuSerif-30"/>
       <use xlink:href="#DejaVuSerif-2e" transform="translate(63.623047 0)"/>
       <use xlink:href="#DejaVuSerif-37" transform="translate(95.410156 0)"/>
       <use xlink:href="#DejaVuSerif-32" transform="translate(159.033203 0)"/>
       <use xlink:href="#DejaVuSerif-31" transform="translate(222.65625 0)"/>
       <use xlink:href="#DejaVuSerif-31" transform="translate(286.279297 0)"/>
      </g>
     </g>
    </g>
    <g id="ytick_4">
     <g id="line2d_17">
      <path d="M 53.935 122.287924 
L 232.897452 122.287924 
" clip-path="url(#pca8580dc42)" style="fill: none; stroke-dasharray: 2.96,1.28; stroke-dashoffset: 0; stroke: #b0b0b0; stroke-opacity: 0.5; stroke-width: 0.8"/>
     </g>
     <g id="line2d_18">
      <g>
       <use xlink:href="#m0d0971bd3c" x="53.935" y="122.287924" style="stroke: #000000; stroke-width: 0.8"/>
      </g>
     </g>
     <g id="text_11">
      <!-- 0.8242 -->
      <g transform="translate(18.9425 125.327299) scale(0.08 -0.08)">
       <use xlink:href="#DejaVuSerif-30"/>
       <use xlink:href="#DejaVuSerif-2e" transform="translate(63.623047 0)"/>
       <use xlink:href="#DejaVuSerif-38" transform="translate(95.410156 0)"/>
       <use xlink:href="#DejaVuSerif-32" transform="translate(159.033203 0)"/>
       <use xlink:href="#DejaVuSerif-34" transform="translate(222.65625 0)"/>
       <use xlink:href="#DejaVuSerif-32" transform="translate(286.279297 0)"/>
      </g>
     </g>
    </g>
    <g id="ytick_5">
     <g id="line2d_19">
      <path d="M 53.935 105.883299 
L 232.897452 105.883299 
" clip-path="url(#pca8580dc42)" style="fill: none; stroke-dasharray: 2.96,1.28; stroke-dashoffset: 0; stroke: #b0b0b0; stroke-opacity: 0.5; stroke-width: 0.8"/>
     </g>
     <g id="line2d_20">
      <g>
       <use xlink:href="#m0d0971bd3c" x="53.935" y="105.883299" style="stroke: #000000; stroke-width: 0.8"/>
      </g>
     </g>
     <g id="text_12">
      <!-- 0.9272 -->
      <g transform="translate(18.9425 108.922674) scale(0.08 -0.08)">
       <use xlink:href="#DejaVuSerif-30"/>
       <use xlink:href="#DejaVuSerif-2e" transform="translate(63.623047 0)"/>
       <use xlink:href="#DejaVuSerif-39" transform="translate(95.410156 0)"/>
       <use xlink:href="#DejaVuSerif-32" transform="translate(159.033203 0)"/>
       <use xlink:href="#DejaVuSerif-37" transform="translate(222.65625 0)"/>
       <use xlink:href="#DejaVuSerif-32" transform="translate(286.279297 0)"/>
      </g>
     </g>
    </g>
    <g id="text_13">
     <!-- Previsto -->
     <g transform="translate(13.27875 118.819925) rotate(-90) scale(0.08 -0.08)">
      <defs>
       <path id="DejaVuSerif-50" d="M 1581 2375 
L 2406 2375 
Q 2872 2375 3115 2626 
Q 3359 2878 3359 3353 
Q 3359 3831 3115 4081 
Q 2872 4331 2406 4331 
L 1581 4331 
L 1581 2375 
z
M 353 0 
L 353 331 
L 947 331 
L 947 4331 
L 353 4331 
L 353 4666 
L 2559 4666 
Q 3259 4666 3668 4311 
Q 4078 3956 4078 3353 
Q 4078 2753 3668 2397 
Q 3259 2041 2559 2041 
L 1581 2041 
L 1581 331 
L 2303 331 
L 2303 0 
L 353 0 
z
" transform="scale(0.015625)"/>
       <path id="DejaVuSerif-72" d="M 3059 3328 
L 3059 2497 
L 2728 2497 
Q 2713 2744 2591 2866 
Q 2469 2988 2234 2988 
Q 1809 2988 1582 2694 
Q 1356 2400 1356 1850 
L 1356 331 
L 2022 331 
L 2022 0 
L 263 0 
L 263 331 
L 781 331 
L 781 2994 
L 231 2994 
L 231 3322 
L 1356 3322 
L 1356 2731 
Q 1525 3078 1790 3245 
Q 2056 3413 2438 3413 
Q 2578 3413 2733 3391 
Q 2888 3369 3059 3328 
z
" transform="scale(0.015625)"/>
       <path id="DejaVuSerif-76" d="M 1581 0 
L 359 2988 
L -19 2988 
L -19 3322 
L 1509 3322 
L 1509 2988 
L 978 2988 
L 1913 703 
L 2847 2988 
L 2350 2988 
L 2350 3322 
L 3597 3322 
L 3597 2988 
L 3225 2988 
L 2003 0 
L 1581 0 
z
" transform="scale(0.015625)"/>
       <path id="DejaVuSerif-69" d="M 622 4353 
Q 622 4497 726 4603 
Q 831 4709 978 4709 
Q 1122 4709 1226 4603 
Q 1331 4497 1331 4353 
Q 1331 4206 1228 4103 
Q 1125 4000 978 4000 
Q 831 4000 726 4103 
Q 622 4206 622 4353 
z
M 1356 331 
L 1900 331 
L 1900 0 
L 231 0 
L 231 331 
L 781 331 
L 781 2988 
L 231 2988 
L 231 3322 
L 1356 3322 
L 1356 331 
z
" transform="scale(0.015625)"/>
       <path id="DejaVuSerif-73" d="M 359 184 
L 359 959 
L 691 959 
Q 703 588 923 403 
Q 1144 219 1575 219 
Q 1963 219 2166 364 
Q 2369 509 2369 788 
Q 2369 1006 2220 1140 
Q 2072 1275 1594 1428 
L 1178 1569 
Q 750 1706 558 1912 
Q 366 2119 366 2438 
Q 366 2894 700 3153 
Q 1034 3413 1625 3413 
Q 1888 3413 2178 3344 
Q 2469 3275 2778 3144 
L 2778 2419 
L 2447 2419 
Q 2434 2741 2221 2922 
Q 2009 3103 1644 3103 
Q 1281 3103 1095 2975 
Q 909 2847 909 2591 
Q 909 2381 1050 2254 
Q 1191 2128 1613 1997 
L 2069 1856 
Q 2541 1709 2748 1489 
Q 2956 1269 2956 922 
Q 2956 450 2595 179 
Q 2234 -91 1600 -91 
Q 1278 -91 972 -22 
Q 666 47 359 184 
z
" transform="scale(0.015625)"/>
       <path id="DejaVuSerif-74" d="M 691 2988 
L 184 2988 
L 184 3322 
L 691 3322 
L 691 4353 
L 1269 4353 
L 1269 3322 
L 2350 3322 
L 2350 2988 
L 1269 2988 
L 1269 878 
Q 1269 456 1350 337 
Q 1431 219 1650 219 
Q 1875 219 1978 351 
Q 2081 484 2088 781 
L 2522 781 
Q 2497 328 2275 118 
Q 2053 -91 1600 -91 
Q 1103 -91 897 129 
Q 691 350 691 878 
L 691 2988 
z
" transform="scale(0.015625)"/>
       <path id="DejaVuSerif-6f" d="M 1925 219 
Q 2388 219 2623 584 
Q 2859 950 2859 1663 
Q 2859 2375 2623 2739 
Q 2388 3103 1925 3103 
Q 1463 3103 1227 2739 
Q 991 2375 991 1663 
Q 991 950 1228 584 
Q 1466 219 1925 219 
z
M 1925 -91 
Q 1200 -91 759 389 
Q 319 869 319 1663 
Q 319 2456 758 2934 
Q 1197 3413 1925 3413 
Q 2653 3413 3092 2934 
Q 3531 2456 3531 1663 
Q 3531 869 3092 389 
Q 2653 -91 1925 -91 
z
" transform="scale(0.015625)"/>
      </defs>
      <use xlink:href="#DejaVuSerif-50"/>
      <use xlink:href="#DejaVuSerif-72" transform="translate(67.285156 0)"/>
      <use xlink:href="#DejaVuSerif-65" transform="translate(115.087891 0)"/>
      <use xlink:href="#DejaVuSerif-76" transform="translate(174.267578 0)"/>
      <use xlink:href="#DejaVuSerif-69" transform="translate(230.761719 0)"/>
      <use xlink:href="#DejaVuSerif-73" transform="translate(262.744141 0)"/>
      <use xlink:href="#DejaVuSerif-74" transform="translate(314.0625 0)"/>
      <use xlink:href="#DejaVuSerif-6f" transform="translate(354.248047 0)"/>
     </g>
    </g>
    <g id="text_14">
     <!-- 1e3 -->
     <g transform="translate(53.935 23.0558) scale(0.08 -0.08)">
      <use xlink:href="#DejaVuSerif-31"/>
      <use xlink:href="#DejaVuSerif-65" transform="translate(63.623047 0)"/>
      <use xlink:href="#DejaVuSerif-33" transform="translate(122.802734 0)"/>
     </g>
    </g>
   </g>
   <g id="PathCollection_1">
    <defs>
     <path id="mb4f40789c6" d="M 0 0.707107 
C 0.187527 0.707107 0.367398 0.632602 0.5 0.5 
C 0.632602 0.367398 0.707107 0.187527 0.707107 0 
C 0.707107 -0.187527 0.632602 -0.367398 0.5 -0.5 
C 0.367398 -0.632602 0.187527 -0.707107 0 -0.707107 
C -0.187527 -0.707107 -0.367398 -0.632602 -0.5 -0.5 
C -0.632602 -0.367398 -0.707107 -0.187527 -0.707107 0 
C -0.707107 0.187527 -0.632602 0.367398 -0.5 0.5 
C -0.367398 0.632602 -0.187527 0.707107 0 0.707107 
z
" style="stroke: #e24c4c; stroke-opacity: 0.5"/>
    </defs>
    <g clip-path="url(#pca8580dc42)">
     <use xlink:href="#mb4f40789c6" x="148.455239" y="110.041815" style="fill: #e24c4c; fill-opacity: 0.5; stroke: #e24c4c; stroke-opacity: 0.5"/>
     <use xlink:href="#mb4f40789c6" x="118.034368" y="97.956369" style="fill: #e24c4c; fill-opacity: 0.5; stroke: #e24c4c; stroke-opacity: 0.5"/>
     <use xlink:href="#mb4f40789c6" x="170.788559" y="104.929492" style="fill: #e24c4c; fill-opacity: 0.5; stroke: #e24c4c; stroke-opacity: 0.5"/>
     <use xlink:href="#mb4f40789c6" x="190.306791" y="98.092424" style="fill: #e24c4c; fill-opacity: 0.5; stroke: #e24c4c; stroke-opacity: 0.5"/>
     <use xlink:href="#mb4f40789c6" x="130.518946" y="100.803715" style="fill: #e24c4c; fill-opacity: 0.5; stroke: #e24c4c; stroke-opacity: 0.5"/>
     <use xlink:href="#mb4f40789c6" x="170.010515" y="98.910178" style="fill: #e24c4c; fill-opacity: 0.5; stroke: #e24c4c; stroke-opacity: 0.5"/>
     <use xlink:href="#mb4f40789c6" x="126.593655" y="101.808321" style="fill: #e24c4c; fill-opacity: 0.5; stroke: #e24c4c; stroke-opacity: 0.5"/>
     <use xlink:href="#mb4f40789c6" x="93.494657" y="113.667464" style="fill: #e24c4c; fill-opacity: 0.5; stroke: #e24c4c; stroke-opacity: 0.5"/>
     <use xlink:href="#mb4f40789c6" x="77.289795" y="124.014118" style="fill: #e24c4c; fill-opacity: 0.5; stroke: #e24c4c; stroke-opacity: 0.5"/>
     <use xlink:href="#mb4f40789c6" x="140.268925" y="110.872659" style="fill: #e24c4c; fill-opacity: 0.5; stroke: #e24c4c; stroke-opacity: 0.5"/>
     <use xlink:href="#mb4f40789c6" x="126.635565" y="111.004774" style="fill: #e24c4c; fill-opacity: 0.5; stroke: #e24c4c; stroke-opacity: 0.5"/>
     <use xlink:href="#mb4f40789c6" x="180.621891" y="108.615983" style="fill: #e24c4c; fill-opacity: 0.5; stroke: #e24c4c; stroke-opacity: 0.5"/>
     <use xlink:href="#mb4f40789c6" x="139.61757" y="101.994944" style="fill: #e24c4c; fill-opacity: 0.5; stroke: #e24c4c; stroke-opacity: 0.5"/>
     <use xlink:href="#mb4f40789c6" x="137.235851" y="99.77395" style="fill: #e24c4c; fill-opacity: 0.5; stroke: #e24c4c; stroke-opacity: 0.5"/>
     <use xlink:href="#mb4f40789c6" x="190.434878" y="87.046918" style="fill: #e24c4c; fill-opacity: 0.5; stroke: #e24c4c; stroke-opacity: 0.5"/>
     <use xlink:href="#mb4f40789c6" x="169.363447" y="73.16456" style="fill: #e24c4c; fill-opacity: 0.5; stroke: #e24c4c; stroke-opacity: 0.5"/>
     <use xlink:href="#mb4f40789c6" x="189.947106" y="87.938509" style="fill: #e24c4c; fill-opacity: 0.5; stroke: #e24c4c; stroke-opacity: 0.5"/>
     <use xlink:href="#mb4f40789c6" x="159.583038" y="95.877878" style="fill: #e24c4c; fill-opacity: 0.5; stroke: #e24c4c; stroke-opacity: 0.5"/>
     <use xlink:href="#mb4f40789c6" x="141.577387" y="112.345275" style="fill: #e24c4c; fill-opacity: 0.5; stroke: #e24c4c; stroke-opacity: 0.5"/>
     <use xlink:href="#mb4f40789c6" x="118.20557" y="115.389379" style="fill: #e24c4c; fill-opacity: 0.5; stroke: #e24c4c; stroke-opacity: 0.5"/>
     <use xlink:href="#mb4f40789c6" x="120.043126" y="106.443156" style="fill: #e24c4c; fill-opacity: 0.5; stroke: #e24c4c; stroke-opacity: 0.5"/>
     <use xlink:href="#mb4f40789c6" x="88.187868" y="80.727514" style="fill: #e24c4c; fill-opacity: 0.5; stroke: #e24c4c; stroke-opacity: 0.5"/>
     <use xlink:href="#mb4f40789c6" x="85.82972" y="81.380508" style="fill: #e24c4c; fill-opacity: 0.5; stroke: #e24c4c; stroke-opacity: 0.5"/>
     <use xlink:href="#mb4f40789c6" x="106.171423" y="86.83529" style="fill: #e24c4c; fill-opacity: 0.5; stroke: #e24c4c; stroke-opacity: 0.5"/>
     <use xlink:href="#mb4f40789c6" x="155.193664" y="72.394905" style="fill: #e24c4c; fill-opacity: 0.5; stroke: #e24c4c; stroke-opacity: 0.5"/>
     <use xlink:href="#mb4f40789c6" x="132.302206" y="63.082378" style="fill: #e24c4c; fill-opacity: 0.5; stroke: #e24c4c; stroke-opacity: 0.5"/>
     <use xlink:href="#mb4f40789c6" x="176.107381" y="58.323079" style="fill: #e24c4c; fill-opacity: 0.5; stroke: #e24c4c; stroke-opacity: 0.5"/>
     <use xlink:href="#mb4f40789c6" x="183.083366" y="47.29105" style="fill: #e24c4c; fill-opacity: 0.5; stroke: #e24c4c; stroke-opacity: 0.5"/>
     <use xlink:href="#mb4f40789c6" x="169.557578" y="57.676535" style="fill: #e24c4c; fill-opacity: 0.5; stroke: #e24c4c; stroke-opacity: 0.5"/>
     <use xlink:href="#mb4f40789c6" x="138.436068" y="66.826958" style="fill: #e24c4c; fill-opacity: 0.5; stroke: #e24c4c; stroke-opacity: 0.5"/>
     <use xlink:href="#mb4f40789c6" x="92.588446" y="78.706707" style="fill: #e24c4c; fill-opacity: 0.5; stroke: #e24c4c; stroke-opacity: 0.5"/>
     <use xlink:href="#mb4f40789c6" x="96.071211" y="79.845263" style="fill: #e24c4c; fill-opacity: 0.5; stroke: #e24c4c; stroke-opacity: 0.5"/>
     <use xlink:href="#mb4f40789c6" x="89.094679" y="94.220917" style="fill: #e24c4c; fill-opacity: 0.5; stroke: #e24c4c; stroke-opacity: 0.5"/>
     <use xlink:href="#mb4f40789c6" x="83.57543" y="70.125986" style="fill: #e24c4c; fill-opacity: 0.5; stroke: #e24c4c; stroke-opacity: 0.5"/>
     <use xlink:href="#mb4f40789c6" x="62.069657" y="77.482981" style="fill: #e24c4c; fill-opacity: 0.5; stroke: #e24c4c; stroke-opacity: 0.5"/>
     <use xlink:href="#mb4f40789c6" x="64.562466" y="74.786358" style="fill: #e24c4c; fill-opacity: 0.5; stroke: #e24c4c; stroke-opacity: 0.5"/>
     <use xlink:href="#mb4f40789c6" x="135.137255" y="65.407419" style="fill: #e24c4c; fill-opacity: 0.5; stroke: #e24c4c; stroke-opacity: 0.5"/>
     <use xlink:href="#mb4f40789c6" x="120.396326" y="59.854993" style="fill: #e24c4c; fill-opacity: 0.5; stroke: #e24c4c; stroke-opacity: 0.5"/>
     <use xlink:href="#mb4f40789c6" x="205.250524" y="58.651158" style="fill: #e24c4c; fill-opacity: 0.5; stroke: #e24c4c; stroke-opacity: 0.5"/>
     <use xlink:href="#mb4f40789c6" x="155.189649" y="50.51938" style="fill: #e24c4c; fill-opacity: 0.5; stroke: #e24c4c; stroke-opacity: 0.5"/>
     <use xlink:href="#mb4f40789c6" x="182.911081" y="51.674106" style="fill: #e24c4c; fill-opacity: 0.5; stroke: #e24c4c; stroke-opacity: 0.5"/>
     <use xlink:href="#mb4f40789c6" x="152.903619" y="64.76299" style="fill: #e24c4c; fill-opacity: 0.5; stroke: #e24c4c; stroke-opacity: 0.5"/>
     <use xlink:href="#mb4f40789c6" x="131.876821" y="75.257087" style="fill: #e24c4c; fill-opacity: 0.5; stroke: #e24c4c; stroke-opacity: 0.5"/>
     <use xlink:href="#mb4f40789c6" x="106.613699" y="95.499185" style="fill: #e24c4c; fill-opacity: 0.5; stroke: #e24c4c; stroke-opacity: 0.5"/>
     <use xlink:href="#mb4f40789c6" x="63.722198" y="76.104907" style="fill: #e24c4c; fill-opacity: 0.5; stroke: #e24c4c; stroke-opacity: 0.5"/>
     <use xlink:href="#mb4f40789c6" x="161.633253" y="62.512353" style="fill: #e24c4c; fill-opacity: 0.5; stroke: #e24c4c; stroke-opacity: 0.5"/>
     <use xlink:href="#mb4f40789c6" x="126.921144" y="50.550115" style="fill: #e24c4c; fill-opacity: 0.5; stroke: #e24c4c; stroke-opacity: 0.5"/>
     <use xlink:href="#mb4f40789c6" x="153.048263" y="55.717458" style="fill: #e24c4c; fill-opacity: 0.5; stroke: #e24c4c; stroke-opacity: 0.5"/>
     <use xlink:href="#mb4f40789c6" x="82.876123" y="55.234608" style="fill: #e24c4c; fill-opacity: 0.5; stroke: #e24c4c; stroke-opacity: 0.5"/>
     <use xlink:href="#mb4f40789c6" x="224.762795" y="45.109451" style="fill: #e24c4c; fill-opacity: 0.5; stroke: #e24c4c; stroke-opacity: 0.5"/>
     <use xlink:href="#mb4f40789c6" x="179.795312" y="33.556404" style="fill: #e24c4c; fill-opacity: 0.5; stroke: #e24c4c; stroke-opacity: 0.5"/>
     <use xlink:href="#mb4f40789c6" x="177.122989" y="36.671976" style="fill: #e24c4c; fill-opacity: 0.5; stroke: #e24c4c; stroke-opacity: 0.5"/>
     <use xlink:href="#mb4f40789c6" x="197.265901" y="50.878227" style="fill: #e24c4c; fill-opacity: 0.5; stroke: #e24c4c; stroke-opacity: 0.5"/>
     <use xlink:href="#mb4f40789c6" x="146.449911" y="32.9818" style="fill: #e24c4c; fill-opacity: 0.5; stroke: #e24c4c; stroke-opacity: 0.5"/>
    </g>
   </g>
   <g id="line2d_21">
    <path d="M 62.069657 171.5018 
L 224.762795 105.883299 
" clip-path="url(#pca8580dc42)" style="fill: none; stroke-dasharray: 2.442,1.056; stroke-dashoffset: 0; stroke: #202020; stroke-width: 0.66"/>
   </g>
   <g id="patch_3">
    <path d="M 53.935 178.4278 
L 53.935 26.0558 
" style="fill: none; stroke: #000000; stroke-width: 0.8; stroke-linejoin: miter; stroke-linecap: square"/>
   </g>
   <g id="patch_4">
    <path d="M 53.935 178.4278 
L 232.897452 178.4278 
" style="fill: none; stroke: #000000; stroke-width: 0.8; stroke-linejoin: miter; stroke-linecap: square"/>
   </g>
   <g id="legend_1">
    <g id="PathCollection_2">
     <g>
      <use xlink:href="#mb4f40789c6" x="94.265601" y="14.37875" style="fill: #e24c4c; fill-opacity: 0.5; stroke: #e24c4c; stroke-opacity: 0.5"/>
     </g>
    </g>
    <g id="text_15">
     <!-- Previsto -->
     <g transform="translate(108.665601 16.47875) scale(0.08 -0.08)">
      <use xlink:href="#DejaVuSerif-50"/>
      <use xlink:href="#DejaVuSerif-72" transform="translate(67.285156 0)"/>
      <use xlink:href="#DejaVuSerif-65" transform="translate(115.087891 0)"/>
      <use xlink:href="#DejaVuSerif-76" transform="translate(174.267578 0)"/>
      <use xlink:href="#DejaVuSerif-69" transform="translate(230.761719 0)"/>
      <use xlink:href="#DejaVuSerif-73" transform="translate(262.744141 0)"/>
      <use xlink:href="#DejaVuSerif-74" transform="translate(314.0625 0)"/>
      <use xlink:href="#DejaVuSerif-6f" transform="translate(354.248047 0)"/>
     </g>
    </g>
    <g id="line2d_22">
     <path d="M 157.821851 13.67875 
L 165.821851 13.67875 
L 173.821851 13.67875 
" style="fill: none; stroke-dasharray: 2.442,1.056; stroke-dashoffset: 0; stroke: #202020; stroke-width: 0.66"/>
    </g>
    <g id="text_16">
     <!-- Ideal -->
     <g transform="translate(180.221851 16.47875) scale(0.08 -0.08)">
      <defs>
       <path id="DejaVuSerif-49" d="M 1581 331 
L 2175 331 
L 2175 0 
L 353 0 
L 353 331 
L 947 331 
L 947 4331 
L 353 4331 
L 353 4666 
L 2175 4666 
L 2175 4331 
L 1581 4331 
L 1581 331 
z
" transform="scale(0.015625)"/>
       <path id="DejaVuSerif-64" d="M 3359 331 
L 3909 331 
L 3909 0 
L 2784 0 
L 2784 519 
Q 2616 206 2355 57 
Q 2094 -91 1709 -91 
Q 1097 -91 708 395 
Q 319 881 319 1663 
Q 319 2444 706 2928 
Q 1094 3413 1709 3413 
Q 2094 3413 2355 3264 
Q 2616 3116 2784 2803 
L 2784 4531 
L 2241 4531 
L 2241 4863 
L 3359 4863 
L 3359 331 
z
M 2784 1497 
L 2784 1825 
Q 2784 2422 2554 2737 
Q 2325 3053 1888 3053 
Q 1444 3053 1217 2703 
Q 991 2353 991 1663 
Q 991 975 1217 622 
Q 1444 269 1888 269 
Q 2325 269 2554 583 
Q 2784 897 2784 1497 
z
" transform="scale(0.015625)"/>
      </defs>
      <use xlink:href="#DejaVuSerif-49"/>
      <use xlink:href="#DejaVuSerif-64" transform="translate(39.501953 0)"/>
      <use xlink:href="#DejaVuSerif-65" transform="translate(103.515625 0)"/>
      <use xlink:href="#DejaVuSerif-61" transform="translate(162.695312 0)"/>
      <use xlink:href="#DejaVuSerif-6c" transform="translate(222.314453 0)"/>
     </g>
    </g>
   </g>
  </g>
  <g id="axes_2">
   <g id="patch_5">
    <path d="M 280.360096 178.4278 
L 638.285 178.4278 
L 638.285 26.0558 
L 280.360096 26.0558 
z
" style="fill: #ffffff"/>
   </g>
   <g id="matplotlib.axis_3">
    <g id="xtick_6">
     <g id="line2d_23">
      <path d="M 294.837636 178.4278 
L 294.837636 26.0558 
" clip-path="url(#pf04cb2f5db)" style="fill: none; stroke-dasharray: 2.96,1.28; stroke-dashoffset: 0; stroke: #b0b0b0; stroke-opacity: 0.5; stroke-width: 0.8"/>
     </g>
     <g id="line2d_24">
      <g>
       <use xlink:href="#medd4486974" x="294.837636" y="178.4278" style="stroke: #000000; stroke-width: 0.8"/>
      </g>
     </g>
     <g id="text_17">
      <!-- 2010 -->
      <g transform="translate(284.657636 191.50655) scale(0.08 -0.08)">
       <use xlink:href="#DejaVuSerif-32"/>
       <use xlink:href="#DejaVuSerif-30" transform="translate(63.623047 0)"/>
       <use xlink:href="#DejaVuSerif-31" transform="translate(127.246094 0)"/>
       <use xlink:href="#DejaVuSerif-30" transform="translate(190.869141 0)"/>
      </g>
     </g>
    </g>
    <g id="xtick_7">
     <g id="line2d_25">
      <path d="M 338.437485 178.4278 
L 338.437485 26.0558 
" clip-path="url(#pf04cb2f5db)" style="fill: none; stroke-dasharray: 2.96,1.28; stroke-dashoffset: 0; stroke: #b0b0b0; stroke-opacity: 0.5; stroke-width: 0.8"/>
     </g>
     <g id="line2d_26">
      <g>
       <use xlink:href="#medd4486974" x="338.437485" y="178.4278" style="stroke: #000000; stroke-width: 0.8"/>
      </g>
     </g>
     <g id="text_18">
      <!-- 2012 -->
      <g transform="translate(328.257485 191.50655) scale(0.08 -0.08)">
       <use xlink:href="#DejaVuSerif-32"/>
       <use xlink:href="#DejaVuSerif-30" transform="translate(63.623047 0)"/>
       <use xlink:href="#DejaVuSerif-31" transform="translate(127.246094 0)"/>
       <use xlink:href="#DejaVuSerif-32" transform="translate(190.869141 0)"/>
      </g>
     </g>
    </g>
    <g id="xtick_8">
     <g id="line2d_27">
      <path d="M 382.097061 178.4278 
L 382.097061 26.0558 
" clip-path="url(#pf04cb2f5db)" style="fill: none; stroke-dasharray: 2.96,1.28; stroke-dashoffset: 0; stroke: #b0b0b0; stroke-opacity: 0.5; stroke-width: 0.8"/>
     </g>
     <g id="line2d_28">
      <g>
       <use xlink:href="#medd4486974" x="382.097061" y="178.4278" style="stroke: #000000; stroke-width: 0.8"/>
      </g>
     </g>
     <g id="text_19">
      <!-- 2014 -->
      <g transform="translate(371.917061 191.50655) scale(0.08 -0.08)">
       <use xlink:href="#DejaVuSerif-32"/>
       <use xlink:href="#DejaVuSerif-30" transform="translate(63.623047 0)"/>
       <use xlink:href="#DejaVuSerif-31" transform="translate(127.246094 0)"/>
       <use xlink:href="#DejaVuSerif-34" transform="translate(190.869141 0)"/>
      </g>
     </g>
    </g>
    <g id="xtick_9">
     <g id="line2d_29">
      <path d="M 425.696911 178.4278 
L 425.696911 26.0558 
" clip-path="url(#pf04cb2f5db)" style="fill: none; stroke-dasharray: 2.96,1.28; stroke-dashoffset: 0; stroke: #b0b0b0; stroke-opacity: 0.5; stroke-width: 0.8"/>
     </g>
     <g id="line2d_30">
      <g>
       <use xlink:href="#medd4486974" x="425.696911" y="178.4278" style="stroke: #000000; stroke-width: 0.8"/>
      </g>
     </g>
     <g id="text_20">
      <!-- 2016 -->
      <g transform="translate(415.516911 191.50655) scale(0.08 -0.08)">
       <use xlink:href="#DejaVuSerif-32"/>
       <use xlink:href="#DejaVuSerif-30" transform="translate(63.623047 0)"/>
       <use xlink:href="#DejaVuSerif-31" transform="translate(127.246094 0)"/>
       <use xlink:href="#DejaVuSerif-36" transform="translate(190.869141 0)"/>
      </g>
     </g>
    </g>
    <g id="xtick_10">
     <g id="line2d_31">
      <path d="M 469.356486 178.4278 
L 469.356486 26.0558 
" clip-path="url(#pf04cb2f5db)" style="fill: none; stroke-dasharray: 2.96,1.28; stroke-dashoffset: 0; stroke: #b0b0b0; stroke-opacity: 0.5; stroke-width: 0.8"/>
     </g>
     <g id="line2d_32">
      <g>
       <use xlink:href="#medd4486974" x="469.356486" y="178.4278" style="stroke: #000000; stroke-width: 0.8"/>
      </g>
     </g>
     <g id="text_21">
      <!-- 2018 -->
      <g transform="translate(459.176486 191.50655) scale(0.08 -0.08)">
       <use xlink:href="#DejaVuSerif-32"/>
       <use xlink:href="#DejaVuSerif-30" transform="translate(63.623047 0)"/>
       <use xlink:href="#DejaVuSerif-31" transform="translate(127.246094 0)"/>
       <use xlink:href="#DejaVuSerif-38" transform="translate(190.869141 0)"/>
      </g>
     </g>
    </g>
    <g id="xtick_11">
     <g id="line2d_33">
      <path d="M 512.956336 178.4278 
L 512.956336 26.0558 
" clip-path="url(#pf04cb2f5db)" style="fill: none; stroke-dasharray: 2.96,1.28; stroke-dashoffset: 0; stroke: #b0b0b0; stroke-opacity: 0.5; stroke-width: 0.8"/>
     </g>
     <g id="line2d_34">
      <g>
       <use xlink:href="#medd4486974" x="512.956336" y="178.4278" style="stroke: #000000; stroke-width: 0.8"/>
      </g>
     </g>
     <g id="text_22">
      <!-- 2020 -->
      <g transform="translate(502.776336 191.50655) scale(0.08 -0.08)">
       <use xlink:href="#DejaVuSerif-32"/>
       <use xlink:href="#DejaVuSerif-30" transform="translate(63.623047 0)"/>
       <use xlink:href="#DejaVuSerif-32" transform="translate(127.246094 0)"/>
       <use xlink:href="#DejaVuSerif-30" transform="translate(190.869141 0)"/>
      </g>
     </g>
    </g>
    <g id="xtick_12">
     <g id="line2d_35">
      <path d="M 556.615912 178.4278 
L 556.615912 26.0558 
" clip-path="url(#pf04cb2f5db)" style="fill: none; stroke-dasharray: 2.96,1.28; stroke-dashoffset: 0; stroke: #b0b0b0; stroke-opacity: 0.5; stroke-width: 0.8"/>
     </g>
     <g id="line2d_36">
      <g>
       <use xlink:href="#medd4486974" x="556.615912" y="178.4278" style="stroke: #000000; stroke-width: 0.8"/>
      </g>
     </g>
     <g id="text_23">
      <!-- 2022 -->
      <g transform="translate(546.435912 191.50655) scale(0.08 -0.08)">
       <use xlink:href="#DejaVuSerif-32"/>
       <use xlink:href="#DejaVuSerif-30" transform="translate(63.623047 0)"/>
       <use xlink:href="#DejaVuSerif-32" transform="translate(127.246094 0)"/>
       <use xlink:href="#DejaVuSerif-32" transform="translate(190.869141 0)"/>
      </g>
     </g>
    </g>
    <g id="xtick_13">
     <g id="line2d_37">
      <path d="M 600.215761 178.4278 
L 600.215761 26.0558 
" clip-path="url(#pf04cb2f5db)" style="fill: none; stroke-dasharray: 2.96,1.28; stroke-dashoffset: 0; stroke: #b0b0b0; stroke-opacity: 0.5; stroke-width: 0.8"/>
     </g>
     <g id="line2d_38">
      <g>
       <use xlink:href="#medd4486974" x="600.215761" y="178.4278" style="stroke: #000000; stroke-width: 0.8"/>
      </g>
     </g>
     <g id="text_24">
      <!-- 2024 -->
      <g transform="translate(590.035761 191.50655) scale(0.08 -0.08)">
       <use xlink:href="#DejaVuSerif-32"/>
       <use xlink:href="#DejaVuSerif-30" transform="translate(63.623047 0)"/>
       <use xlink:href="#DejaVuSerif-32" transform="translate(127.246094 0)"/>
       <use xlink:href="#DejaVuSerif-34" transform="translate(190.869141 0)"/>
      </g>
     </g>
    </g>
    <g id="text_25">
     <!-- Série histórica -->
     <g transform="translate(429.645048 203.24905) scale(0.08 -0.08)">
      <defs>
       <path id="DejaVuSerif-53" d="M 594 225 
L 594 1288 
L 953 1284 
Q 969 753 1261 498 
Q 1553 244 2150 244 
Q 2706 244 2998 464 
Q 3291 684 3291 1106 
Q 3291 1444 3114 1625 
Q 2938 1806 2369 1978 
L 1753 2163 
Q 1084 2366 811 2669 
Q 538 2972 538 3500 
Q 538 4094 959 4422 
Q 1381 4750 2144 4750 
Q 2469 4750 2856 4679 
Q 3244 4609 3681 4475 
L 3681 3481 
L 3328 3481 
Q 3275 3975 2998 4195 
Q 2722 4416 2156 4416 
Q 1663 4416 1405 4214 
Q 1147 4013 1147 3628 
Q 1147 3294 1340 3103 
Q 1534 2913 2163 2725 
L 2741 2553 
Q 3375 2363 3645 2067 
Q 3916 1772 3916 1275 
Q 3916 597 3481 253 
Q 3047 -91 2188 -91 
Q 1803 -91 1404 -12 
Q 1006 66 594 225 
z
" transform="scale(0.015625)"/>
       <path id="DejaVuSerif-e9" d="M 3469 1600 
L 991 1600 
L 991 1575 
Q 991 903 1244 561 
Q 1497 219 1991 219 
Q 2369 219 2611 417 
Q 2853 616 2950 1006 
L 3413 1006 
Q 3275 459 2904 184 
Q 2534 -91 1931 -91 
Q 1203 -91 761 389 
Q 319 869 319 1663 
Q 319 2450 753 2931 
Q 1188 3413 1894 3413 
Q 2647 3413 3050 2948 
Q 3453 2484 3469 1600 
z
M 2791 1931 
Q 2772 2513 2545 2808 
Q 2319 3103 1894 3103 
Q 1497 3103 1269 2806 
Q 1041 2509 991 1931 
L 2791 1931 
z
M 2330 5119 
L 2952 5119 
L 1890 3944 
L 1524 3944 
L 2330 5119 
z
" transform="scale(0.015625)"/>
       <path id="DejaVuSerif-20" transform="scale(0.015625)"/>
       <path id="DejaVuSerif-68" d="M 263 0 
L 263 331 
L 781 331 
L 781 4531 
L 231 4531 
L 231 4863 
L 1356 4863 
L 1356 2731 
Q 1516 3069 1770 3241 
Q 2025 3413 2363 3413 
Q 2913 3413 3172 3097 
Q 3431 2781 3431 2113 
L 3431 331 
L 3944 331 
L 3944 0 
L 2356 0 
L 2356 331 
L 2853 331 
L 2853 1931 
Q 2853 2541 2704 2764 
Q 2556 2988 2175 2988 
Q 1775 2988 1565 2697 
Q 1356 2406 1356 1850 
L 1356 331 
L 1856 331 
L 1856 0 
L 263 0 
z
" transform="scale(0.015625)"/>
       <path id="DejaVuSerif-f3" d="M 1925 219 
Q 2388 219 2623 584 
Q 2859 950 2859 1663 
Q 2859 2375 2623 2739 
Q 2388 3103 1925 3103 
Q 1463 3103 1227 2739 
Q 991 2375 991 1663 
Q 991 950 1228 584 
Q 1466 219 1925 219 
z
M 1925 -91 
Q 1200 -91 759 389 
Q 319 869 319 1663 
Q 319 2456 758 2934 
Q 1197 3413 1925 3413 
Q 2653 3413 3092 2934 
Q 3531 2456 3531 1663 
Q 3531 869 3092 389 
Q 2653 -91 1925 -91 
z
M 2362 5119 
L 2984 5119 
L 1922 3944 
L 1556 3944 
L 2362 5119 
z
" transform="scale(0.015625)"/>
       <path id="DejaVuSerif-63" d="M 3291 997 
Q 3169 466 2822 187 
Q 2475 -91 1925 -91 
Q 1200 -91 759 389 
Q 319 869 319 1663 
Q 319 2459 759 2936 
Q 1200 3413 1925 3413 
Q 2241 3413 2553 3339 
Q 2866 3266 3181 3116 
L 3181 2266 
L 2847 2266 
Q 2781 2703 2561 2903 
Q 2341 3103 1931 3103 
Q 1466 3103 1228 2742 
Q 991 2381 991 1663 
Q 991 944 1227 581 
Q 1463 219 1931 219 
Q 2303 219 2525 412 
Q 2747 606 2828 997 
L 3291 997 
z
" transform="scale(0.015625)"/>
      </defs>
      <use xlink:href="#DejaVuSerif-53"/>
      <use xlink:href="#DejaVuSerif-e9" transform="translate(68.505859 0)"/>
      <use xlink:href="#DejaVuSerif-72" transform="translate(127.685547 0)"/>
      <use xlink:href="#DejaVuSerif-69" transform="translate(175.488281 0)"/>
      <use xlink:href="#DejaVuSerif-65" transform="translate(207.470703 0)"/>
      <use xlink:href="#DejaVuSerif-20" transform="translate(266.650391 0)"/>
      <use xlink:href="#DejaVuSerif-68" transform="translate(298.4375 0)"/>
      <use xlink:href="#DejaVuSerif-69" transform="translate(362.841797 0)"/>
      <use xlink:href="#DejaVuSerif-73" transform="translate(394.824219 0)"/>
      <use xlink:href="#DejaVuSerif-74" transform="translate(446.142578 0)"/>
      <use xlink:href="#DejaVuSerif-f3" transform="translate(486.328125 0)"/>
      <use xlink:href="#DejaVuSerif-72" transform="translate(546.533203 0)"/>
      <use xlink:href="#DejaVuSerif-69" transform="translate(594.335938 0)"/>
      <use xlink:href="#DejaVuSerif-63" transform="translate(626.318359 0)"/>
      <use xlink:href="#DejaVuSerif-61" transform="translate(682.324219 0)"/>
     </g>
    </g>
   </g>
   <g id="matplotlib.axis_4">
    <g id="ytick_6">
     <g id="line2d_39">
      <path d="M 280.360096 173.712575 
L 638.285 173.712575 
" clip-path="url(#pf04cb2f5db)" style="fill: none; stroke-dasharray: 2.96,1.28; stroke-dashoffset: 0; stroke: #b0b0b0; stroke-opacity: 0.5; stroke-width: 0.8"/>
     </g>
     <g id="line2d_40">
      <g>
       <use xlink:href="#m0d0971bd3c" x="280.360096" y="173.712575" style="stroke: #000000; stroke-width: 0.8"/>
      </g>
     </g>
     <g id="text_26">
      <!-- 0.0 -->
      <g transform="translate(260.637596 176.75195) scale(0.08 -0.08)">
       <use xlink:href="#DejaVuSerif-30"/>
       <use xlink:href="#DejaVuSerif-2e" transform="translate(63.623047 0)"/>
       <use xlink:href="#DejaVuSerif-30" transform="translate(95.410156 0)"/>
      </g>
     </g>
    </g>
    <g id="ytick_7">
     <g id="line2d_41">
      <path d="M 280.360096 153.393002 
L 638.285 153.393002 
" clip-path="url(#pf04cb2f5db)" style="fill: none; stroke-dasharray: 2.96,1.28; stroke-dashoffset: 0; stroke: #b0b0b0; stroke-opacity: 0.5; stroke-width: 0.8"/>
     </g>
     <g id="line2d_42">
      <g>
       <use xlink:href="#m0d0971bd3c" x="280.360096" y="153.393002" style="stroke: #000000; stroke-width: 0.8"/>
      </g>
     </g>
     <g id="text_27">
      <!-- 0.2 -->
      <g transform="translate(260.637596 156.432377) scale(0.08 -0.08)">
       <use xlink:href="#DejaVuSerif-30"/>
       <use xlink:href="#DejaVuSerif-2e" transform="translate(63.623047 0)"/>
       <use xlink:href="#DejaVuSerif-32" transform="translate(95.410156 0)"/>
      </g>
     </g>
    </g>
    <g id="ytick_8">
     <g id="line2d_43">
      <path d="M 280.360096 133.073428 
L 638.285 133.073428 
" clip-path="url(#pf04cb2f5db)" style="fill: none; stroke-dasharray: 2.96,1.28; stroke-dashoffset: 0; stroke: #b0b0b0; stroke-opacity: 0.5; stroke-width: 0.8"/>
     </g>
     <g id="line2d_44">
      <g>
       <use xlink:href="#m0d0971bd3c" x="280.360096" y="133.073428" style="stroke: #000000; stroke-width: 0.8"/>
      </g>
     </g>
     <g id="text_28">
      <!-- 0.4 -->
      <g transform="translate(260.637596 136.112803) scale(0.08 -0.08)">
       <use xlink:href="#DejaVuSerif-30"/>
       <use xlink:href="#DejaVuSerif-2e" transform="translate(63.623047 0)"/>
       <use xlink:href="#DejaVuSerif-34" transform="translate(95.410156 0)"/>
      </g>
     </g>
    </g>
    <g id="ytick_9">
     <g id="line2d_45">
      <path d="M 280.360096 112.753855 
L 638.285 112.753855 
" clip-path="url(#pf04cb2f5db)" style="fill: none; stroke-dasharray: 2.96,1.28; stroke-dashoffset: 0; stroke: #b0b0b0; stroke-opacity: 0.5; stroke-width: 0.8"/>
     </g>
     <g id="line2d_46">
      <g>
       <use xlink:href="#m0d0971bd3c" x="280.360096" y="112.753855" style="stroke: #000000; stroke-width: 0.8"/>
      </g>
     </g>
     <g id="text_29">
      <!-- 0.6 -->
      <g transform="translate(260.637596 115.79323) scale(0.08 -0.08)">
       <use xlink:href="#DejaVuSerif-30"/>
       <use xlink:href="#DejaVuSerif-2e" transform="translate(63.623047 0)"/>
       <use xlink:href="#DejaVuSerif-36" transform="translate(95.410156 0)"/>
      </g>
     </g>
    </g>
    <g id="ytick_10">
     <g id="line2d_47">
      <path d="M 280.360096 92.434281 
L 638.285 92.434281 
" clip-path="url(#pf04cb2f5db)" style="fill: none; stroke-dasharray: 2.96,1.28; stroke-dashoffset: 0; stroke: #b0b0b0; stroke-opacity: 0.5; stroke-width: 0.8"/>
     </g>
     <g id="line2d_48">
      <g>
       <use xlink:href="#m0d0971bd3c" x="280.360096" y="92.434281" style="stroke: #000000; stroke-width: 0.8"/>
      </g>
     </g>
     <g id="text_30">
      <!-- 0.8 -->
      <g transform="translate(260.637596 95.473656) scale(0.08 -0.08)">
       <use xlink:href="#DejaVuSerif-30"/>
       <use xlink:href="#DejaVuSerif-2e" transform="translate(63.623047 0)"/>
       <use xlink:href="#DejaVuSerif-38" transform="translate(95.410156 0)"/>
      </g>
     </g>
    </g>
    <g id="ytick_11">
     <g id="line2d_49">
      <path d="M 280.360096 72.114708 
L 638.285 72.114708 
" clip-path="url(#pf04cb2f5db)" style="fill: none; stroke-dasharray: 2.96,1.28; stroke-dashoffset: 0; stroke: #b0b0b0; stroke-opacity: 0.5; stroke-width: 0.8"/>
     </g>
     <g id="line2d_50">
      <g>
       <use xlink:href="#m0d0971bd3c" x="280.360096" y="72.114708" style="stroke: #000000; stroke-width: 0.8"/>
      </g>
     </g>
     <g id="text_31">
      <!-- 1.0 -->
      <g transform="translate(260.637596 75.154083) scale(0.08 -0.08)">
       <use xlink:href="#DejaVuSerif-31"/>
       <use xlink:href="#DejaVuSerif-2e" transform="translate(63.623047 0)"/>
       <use xlink:href="#DejaVuSerif-30" transform="translate(95.410156 0)"/>
      </g>
     </g>
    </g>
    <g id="ytick_12">
     <g id="line2d_51">
      <path d="M 280.360096 51.795134 
L 638.285 51.795134 
" clip-path="url(#pf04cb2f5db)" style="fill: none; stroke-dasharray: 2.96,1.28; stroke-dashoffset: 0; stroke: #b0b0b0; stroke-opacity: 0.5; stroke-width: 0.8"/>
     </g>
     <g id="line2d_52">
      <g>
       <use xlink:href="#m0d0971bd3c" x="280.360096" y="51.795134" style="stroke: #000000; stroke-width: 0.8"/>
      </g>
     </g>
     <g id="text_32">
      <!-- 1.2 -->
      <g transform="translate(260.637596 54.834509) scale(0.08 -0.08)">
       <use xlink:href="#DejaVuSerif-31"/>
       <use xlink:href="#DejaVuSerif-2e" transform="translate(63.623047 0)"/>
       <use xlink:href="#DejaVuSerif-32" transform="translate(95.410156 0)"/>
      </g>
     </g>
    </g>
    <g id="ytick_13">
     <g id="line2d_53">
      <path d="M 280.360096 31.475561 
L 638.285 31.475561 
" clip-path="url(#pf04cb2f5db)" style="fill: none; stroke-dasharray: 2.96,1.28; stroke-dashoffset: 0; stroke: #b0b0b0; stroke-opacity: 0.5; stroke-width: 0.8"/>
     </g>
     <g id="line2d_54">
      <g>
       <use xlink:href="#m0d0971bd3c" x="280.360096" y="31.475561" style="stroke: #000000; stroke-width: 0.8"/>
      </g>
     </g>
     <g id="text_33">
      <!-- 1.4 -->
      <g transform="translate(260.637596 34.514936) scale(0.08 -0.08)">
       <use xlink:href="#DejaVuSerif-31"/>
       <use xlink:href="#DejaVuSerif-2e" transform="translate(63.623047 0)"/>
       <use xlink:href="#DejaVuSerif-34" transform="translate(95.410156 0)"/>
      </g>
     </g>
    </g>
    <g id="text_34">
     <!-- Geração Eólica S (MWMed) -->
     <g transform="translate(254.973846 158.552425) rotate(-90) scale(0.08 -0.08)">
      <defs>
       <path id="DejaVuSerif-47" d="M 4097 3272 
Q 3988 3856 3641 4136 
Q 3294 4416 2675 4416 
Q 1869 4416 1472 3897 
Q 1075 3378 1075 2328 
Q 1075 1300 1484 772 
Q 1894 244 2688 244 
Q 3041 244 3362 331 
Q 3684 419 3975 594 
L 3975 1797 
L 3097 1797 
L 3097 2131 
L 4609 2131 
L 4609 391 
Q 4194 150 3714 29 
Q 3234 -91 2688 -91 
Q 1631 -91 995 570 
Q 359 1231 359 2328 
Q 359 3434 996 4092 
Q 1634 4750 2713 4750 
Q 3113 4750 3539 4658 
Q 3966 4566 4447 4378 
L 4447 3272 
L 4097 3272 
z
" transform="scale(0.015625)"/>
       <path id="DejaVuSerif-e7" d="M 3291 997 
Q 3169 466 2822 187 
Q 2475 -91 1925 -91 
Q 1200 -91 759 389 
Q 319 869 319 1663 
Q 319 2459 759 2936 
Q 1200 3413 1925 3413 
Q 2241 3413 2553 3339 
Q 2866 3266 3181 3116 
L 3181 2266 
L 2847 2266 
Q 2781 2703 2561 2903 
Q 2341 3103 1931 3103 
Q 1466 3103 1228 2742 
Q 991 2381 991 1663 
Q 991 944 1227 581 
Q 1463 219 1931 219 
Q 2303 219 2525 412 
Q 2747 606 2828 997 
L 3291 997 
z
M 2118 0 
Q 2318 -200 2416 -375 
Q 2515 -550 2515 -703 
Q 2515 -956 2318 -1095 
Q 2121 -1234 1771 -1234 
Q 1640 -1234 1502 -1215 
Q 1365 -1197 1221 -1159 
L 1221 -750 
Q 1350 -803 1473 -829 
Q 1596 -856 1706 -856 
Q 1884 -856 1987 -773 
Q 2090 -691 2090 -550 
Q 2090 -463 2021 -325 
Q 1953 -188 1815 0 
L 2118 0 
z
" transform="scale(0.015625)"/>
       <path id="DejaVuSerif-e3" d="M 2547 1044 
L 2547 1747 
L 1806 1747 
Q 1378 1747 1168 1562 
Q 959 1378 959 997 
Q 959 650 1171 447 
Q 1384 244 1747 244 
Q 2106 244 2326 466 
Q 2547 688 2547 1044 
z
M 3122 2075 
L 3122 331 
L 3634 331 
L 3634 0 
L 2547 0 
L 2547 359 
Q 2356 128 2106 18 
Q 1856 -91 1522 -91 
Q 969 -91 644 203 
Q 319 497 319 997 
Q 319 1513 691 1797 
Q 1063 2081 1741 2081 
L 2547 2081 
L 2547 2309 
Q 2547 2688 2317 2895 
Q 2088 3103 1672 3103 
Q 1328 3103 1125 2947 
Q 922 2791 872 2484 
L 575 2484 
L 575 3156 
Q 875 3284 1158 3348 
Q 1441 3413 1709 3413 
Q 2400 3413 2761 3070 
Q 3122 2728 3122 2075 
z
M 1764 4281 
L 1585 4453 
Q 1504 4528 1452 4551 
Q 1401 4575 1342 4575 
Q 1210 4575 1135 4451 
Q 1060 4328 1045 4091 
L 745 4091 
Q 751 4513 910 4742 
Q 1070 4972 1354 4972 
Q 1473 4972 1573 4928 
Q 1673 4884 1789 4781 
L 1967 4609 
Q 2039 4538 2092 4513 
Q 2145 4488 2210 4488 
Q 2345 4488 2420 4613 
Q 2495 4738 2507 4972 
L 2807 4972 
Q 2801 4550 2641 4320 
Q 2482 4091 2198 4091 
Q 2079 4091 1979 4134 
Q 1879 4178 1764 4281 
z
" transform="scale(0.015625)"/>
       <path id="DejaVuSerif-45" d="M 353 0 
L 353 331 
L 947 331 
L 947 4331 
L 353 4331 
L 353 4666 
L 4109 4666 
L 4109 3628 
L 3725 3628 
L 3725 4281 
L 1581 4281 
L 1581 2719 
L 3109 2719 
L 3109 3303 
L 3494 3303 
L 3494 1753 
L 3109 1753 
L 3109 2338 
L 1581 2338 
L 1581 384 
L 3775 384 
L 3775 1038 
L 4159 1038 
L 4159 0 
L 353 0 
z
" transform="scale(0.015625)"/>
       <path id="DejaVuSerif-28" d="M 2041 -997 
Q 1281 -656 893 83 
Q 506 822 506 1931 
Q 506 3044 893 3783 
Q 1281 4522 2041 4863 
L 2041 4556 
Q 1559 4225 1350 3623 
Q 1141 3022 1141 1931 
Q 1141 844 1350 242 
Q 1559 -359 2041 -691 
L 2041 -997 
z
" transform="scale(0.015625)"/>
       <path id="DejaVuSerif-4d" d="M 353 0 
L 353 331 
L 947 331 
L 947 4331 
L 319 4331 
L 319 4666 
L 1678 4666 
L 3316 1344 
L 4953 4666 
L 6228 4666 
L 6228 4331 
L 5606 4331 
L 5606 331 
L 6203 331 
L 6203 0 
L 4378 0 
L 4378 331 
L 4972 331 
L 4972 3938 
L 3372 684 
L 2931 684 
L 1331 3938 
L 1331 331 
L 1925 331 
L 1925 0 
L 353 0 
z
" transform="scale(0.015625)"/>
       <path id="DejaVuSerif-57" d="M 4878 0 
L 4366 0 
L 3297 3794 
L 2228 0 
L 1716 0 
L 494 4331 
L 31 4331 
L 31 4666 
L 1734 4666 
L 1734 4331 
L 1153 4331 
L 2125 884 
L 3188 4666 
L 3694 4666 
L 4775 844 
L 5753 4331 
L 5216 4331 
L 5216 4666 
L 6559 4666 
L 6559 4331 
L 6100 4331 
L 4878 0 
z
" transform="scale(0.015625)"/>
       <path id="DejaVuSerif-29" d="M 453 -997 
L 453 -691 
Q 934 -359 1145 242 
Q 1356 844 1356 1931 
Q 1356 3022 1145 3623 
Q 934 4225 453 4556 
L 453 4863 
Q 1216 4522 1603 3783 
Q 1991 3044 1991 1931 
Q 1991 822 1603 83 
Q 1216 -656 453 -997 
z
" transform="scale(0.015625)"/>
      </defs>
      <use xlink:href="#DejaVuSerif-47"/>
      <use xlink:href="#DejaVuSerif-65" transform="translate(79.882812 0)"/>
      <use xlink:href="#DejaVuSerif-72" transform="translate(139.0625 0)"/>
      <use xlink:href="#DejaVuSerif-61" transform="translate(186.865234 0)"/>
      <use xlink:href="#DejaVuSerif-e7" transform="translate(246.484375 0)"/>
      <use xlink:href="#DejaVuSerif-e3" transform="translate(302.490234 0)"/>
      <use xlink:href="#DejaVuSerif-6f" transform="translate(362.109375 0)"/>
      <use xlink:href="#DejaVuSerif-20" transform="translate(422.314453 0)"/>
      <use xlink:href="#DejaVuSerif-45" transform="translate(454.101562 0)"/>
      <use xlink:href="#DejaVuSerif-f3" transform="translate(527.099609 0)"/>
      <use xlink:href="#DejaVuSerif-6c" transform="translate(587.304688 0)"/>
      <use xlink:href="#DejaVuSerif-69" transform="translate(619.287109 0)"/>
      <use xlink:href="#DejaVuSerif-63" transform="translate(651.269531 0)"/>
      <use xlink:href="#DejaVuSerif-61" transform="translate(707.275391 0)"/>
      <use xlink:href="#DejaVuSerif-20" transform="translate(766.894531 0)"/>
      <use xlink:href="#DejaVuSerif-53" transform="translate(798.681641 0)"/>
      <use xlink:href="#DejaVuSerif-20" transform="translate(867.1875 0)"/>
      <use xlink:href="#DejaVuSerif-28" transform="translate(898.974609 0)"/>
      <use xlink:href="#DejaVuSerif-4d" transform="translate(937.988281 0)"/>
      <use xlink:href="#DejaVuSerif-57" transform="translate(1040.380859 0)"/>
      <use xlink:href="#DejaVuSerif-4d" transform="translate(1143.164062 0)"/>
      <use xlink:href="#DejaVuSerif-65" transform="translate(1245.556641 0)"/>
      <use xlink:href="#DejaVuSerif-64" transform="translate(1304.736328 0)"/>
      <use xlink:href="#DejaVuSerif-29" transform="translate(1368.75 0)"/>
     </g>
    </g>
    <g id="text_35">
     <!-- 1e3 -->
     <g transform="translate(280.360096 23.0558) scale(0.08 -0.08)">
      <use xlink:href="#DejaVuSerif-31"/>
      <use xlink:href="#DejaVuSerif-65" transform="translate(63.623047 0)"/>
      <use xlink:href="#DejaVuSerif-33" transform="translate(122.802734 0)"/>
     </g>
    </g>
   </g>
   <g id="line2d_55">
    <path d="M 296.62941 170.198607 
L 298.301733 170.947412 
L 300.153234 169.911619 
L 301.945008 171.5018 
L 303.796509 169.723243 
L 305.588283 168.946192 
L 307.439784 168.40887 
L 309.291284 169.253002 
L 311.083059 166.857055 
L 312.93456 170.027896 
L 314.726334 169.504829 
L 316.577835 169.090102 
L 318.429335 170.96912 
L 320.101658 171.25223 
L 321.953159 167.673524 
L 323.744933 171.226203 
L 325.596434 170.108943 
L 327.388208 166.503344 
L 329.239709 164.2659 
L 331.091209 161.096545 
L 332.882984 163.495575 
L 334.734484 164.531765 
L 336.526259 162.12748 
L 338.37776 163.786226 
L 340.22926 164.392997 
L 341.961309 166.294196 
L 343.812809 165.956672 
L 345.604584 165.488747 
L 347.456084 165.880845 
L 349.247859 165.983431 
L 351.09936 162.906604 
L 352.95086 160.306302 
L 354.742635 158.647489 
L 356.594135 159.078914 
L 358.38591 161.366651 
L 360.23741 163.139645 
L 362.088911 161.934618 
L 363.761234 163.651663 
L 365.612734 162.122673 
L 367.404509 160.733858 
L 369.256009 163.934741 
L 371.047784 163.072309 
L 372.899284 162.799021 
L 374.750785 159.914213 
L 376.542559 159.559379 
L 378.39406 157.318483 
L 380.185835 153.565268 
L 382.037335 160.295737 
L 383.888836 159.371134 
L 385.561159 153.730636 
L 387.412659 154.32035 
L 389.204434 153.524515 
L 391.055934 156.836918 
L 392.847709 146.958733 
L 394.699209 146.036583 
L 396.55071 147.129693 
L 398.342484 142.138945 
L 400.193985 146.602094 
L 401.985759 150.053592 
L 403.83726 151.311132 
L 405.68876 153.407006 
L 407.361083 146.165059 
L 409.212584 141.752142 
L 411.004359 142.676902 
L 412.855859 138.371751 
L 414.647634 133.461612 
L 416.499134 135.733998 
L 418.350635 115.946251 
L 420.142409 128.012145 
L 421.99391 111.828666 
L 423.785684 110.663458 
L 425.637185 122.354446 
L 427.488685 119.329492 
L 429.220734 131.088484 
L 431.072235 123.138406 
L 432.864009 116.490587 
L 434.71551 124.614201 
L 436.507284 126.471117 
L 438.358785 116.45479 
L 440.210285 125.027256 
L 442.00206 110.487686 
L 443.85356 95.015696 
L 445.645335 119.5642 
L 447.496836 121.932459 
L 449.348336 121.569976 
L 451.020659 133.853025 
L 452.872159 111.017927 
L 454.663934 103.266628 
L 456.515435 108.891533 
L 458.307209 111.596362 
L 460.15871 103.711058 
L 462.01021 98.966914 
L 463.801985 96.328432 
L 465.653485 89.345717 
L 467.44526 102.46393 
L 469.29676 94.554984 
L 471.148261 104.556962 
L 472.820584 117.511475 
L 474.672084 125.56574 
L 476.463859 127.833961 
L 478.315359 112.128493 
L 480.107134 112.730336 
L 481.958635 99.326938 
L 483.810135 101.222946 
L 485.60191 92.993746 
L 487.45341 102.807546 
L 489.245185 91.60854 
L 491.096685 108.469175 
L 492.948186 109.198659 
L 494.620509 132.987554 
L 496.472009 113.584512 
L 498.263784 122.882323 
L 500.115284 116.440908 
L 501.907059 109.102754 
L 503.758559 101.365872 
L 505.61006 99.570837 
L 507.401835 104.174913 
L 509.253335 96.967844 
L 511.04511 93.31351 
L 512.89661 103.907888 
L 514.748111 121.150069 
L 516.480159 101.760999 
L 518.33166 108.001985 
L 520.123435 87.881427 
L 521.974935 96.650442 
L 523.76671 99.43324 
" clip-path="url(#pf04cb2f5db)" style="fill: none; stroke: #43aaff; stroke-width: 0.66; stroke-linecap: square"/>
   </g>
   <g id="line2d_56">
    <path d="M 525.61821 99.149276 
L 527.469711 106.979696 
L 529.261485 93.400614 
L 531.112986 88.376565 
L 532.90476 103.76613 
L 534.756261 93.600885 
L 536.607761 104.776511 
L 538.280084 113.296289 
L 540.131585 117.467467 
L 541.923359 101.256457 
L 543.77486 104.765723 
L 545.566635 90.869486 
L 547.418135 101.424117 
L 549.269636 102.037179 
L 551.06141 88.343595 
L 552.912911 93.767442 
L 554.704685 88.469149 
L 556.556186 96.284948 
L 558.407686 100.919655 
L 560.080009 106.935628 
L 561.93151 106.462636 
L 563.723284 114.662272 
L 565.574785 115.269266 
L 567.366559 110.033253 
L 569.21806 97.414785 
L 571.06956 103.307113 
L 572.861335 92.031534 
L 574.712836 90.235895 
L 576.50461 93.717472 
L 578.356111 101.728239 
L 580.207611 113.52955 
L 581.879934 112.633076 
L 583.731435 114.428856 
L 585.523209 115.849527 
L 587.37471 121.385175 
L 589.166484 120.743519 
L 591.017985 102.577363 
L 592.869485 106.371721 
L 594.66126 84.530005 
L 596.51276 97.415819 
L 598.304535 90.280242 
L 600.156036 98.00425 
L 602.007536 103.416609 
L 603.739585 109.91941 
L 605.591085 120.959806 
L 607.38286 95.757217 
L 609.23436 104.692214 
L 611.026135 97.967018 
L 612.877635 116.02953 
L 614.729136 79.50749 
L 616.520911 91.08225 
L 618.372411 91.770114 
L 620.164186 86.58527 
L 622.015686 99.665453 
" clip-path="url(#pf04cb2f5db)" style="fill: none; stroke-dasharray: 2.442,1.056; stroke-dashoffset: 0; stroke: #969696; stroke-width: 0.66"/>
   </g>
   <g id="line2d_57">
    <path d="M 525.61821 82.161452 
L 527.469711 74.448528 
L 529.261485 78.898771 
L 531.112986 74.535358 
L 532.90476 76.265702 
L 534.756261 75.057248 
L 536.607761 76.906842 
L 538.280084 84.475339 
L 540.131585 91.078567 
L 541.923359 82.691696 
L 543.77486 82.776012 
L 545.566635 81.251487 
L 547.418135 77.025944 
L 549.269636 75.608507 
L 551.06141 67.486123 
L 552.912911 58.626412 
L 554.704685 68.055136 
L 556.556186 73.122037 
L 558.407686 83.631519 
L 560.080009 85.574264 
L 561.93151 79.86479 
L 563.723284 63.453084 
L 565.574785 63.869825 
L 567.366559 67.351063 
L 569.21806 58.135218 
L 571.06956 52.19197 
L 572.861335 49.154588 
L 574.712836 42.113954 
L 576.50461 48.741964 
L 578.356111 54.581758 
L 580.207611 62.163407 
L 581.879934 62.890032 
L 583.731435 72.064565 
L 585.523209 56.687196 
L 587.37471 61.382425 
L 589.166484 59.661442 
L 591.017985 53.67581 
L 592.869485 50.132255 
L 594.66126 49.363968 
L 596.51276 44.174273 
L 598.304535 44.911218 
L 600.156036 53.264535 
L 602.007536 59.961861 
L 603.739585 72.880355 
L 605.591085 60.502939 
L 607.38286 51.82818 
L 609.23436 44.193887 
L 611.026135 47.491682 
L 612.877635 47.183528 
L 614.729136 40.721659 
L 616.520911 33.348512 
L 618.372411 35.336868 
L 620.164186 44.403288 
L 622.015686 32.9818 
" clip-path="url(#pf04cb2f5db)" style="fill: none; stroke: #e24c4c; stroke-width: 0.66; stroke-linecap: square"/>
   </g>
   <g id="patch_6">
    <path d="M 280.360096 178.4278 
L 280.360096 26.0558 
" style="fill: none; stroke: #000000; stroke-width: 0.8; stroke-linejoin: miter; stroke-linecap: square"/>
   </g>
   <g id="patch_7">
    <path d="M 280.360096 178.4278 
L 638.285 178.4278 
" style="fill: none; stroke: #000000; stroke-width: 0.8; stroke-linejoin: miter; stroke-linecap: square"/>
   </g>
   <g id="text_36">
    <g id="patch_8">
     <path d="M 285.418594 50.387556 
L 352.475313 50.387556 
L 352.475313 31.5744 
L 285.418594 31.5744 
z
" style="fill: #ffffff"/>
    </g>
    <!-- R² = -16.272 -->
    <g transform="translate(287.518594 38.993306) scale(0.07 -0.07)">
     <defs>
      <path id="DejaVuSerif-b2" d="M 531 4050 
L 313 4050 
L 313 4544 
Q 519 4644 737 4697 
Q 956 4750 1172 4750 
Q 1603 4750 1870 4544 
Q 2138 4338 2138 4013 
Q 2138 3631 1531 3088 
L 1472 3034 
L 728 2363 
L 1931 2363 
L 1931 2700 
L 2163 2700 
L 2163 2088 
L 281 2088 
L 281 2322 
L 1172 3116 
Q 1441 3356 1556 3547 
Q 1672 3738 1672 3944 
Q 1672 4209 1520 4364 
Q 1369 4519 1106 4519 
Q 863 4519 716 4400 
Q 569 4281 531 4050 
z
" transform="scale(0.015625)"/>
      <path id="DejaVuSerif-3d" d="M 678 2894 
L 4684 2894 
L 4684 2394 
L 678 2394 
L 678 2894 
z
M 678 1619 
L 4684 1619 
L 4684 1119 
L 678 1119 
L 678 1619 
z
" transform="scale(0.015625)"/>
      <path id="DejaVuSerif-2d" d="M 281 1959 
L 1881 1959 
L 1881 1472 
L 281 1472 
L 281 1959 
z
" transform="scale(0.015625)"/>
     </defs>
     <use xlink:href="#DejaVuSerif-52"/>
     <use xlink:href="#DejaVuSerif-b2" transform="translate(75.292969 0)"/>
     <use xlink:href="#DejaVuSerif-20" transform="translate(115.380859 0)"/>
     <use xlink:href="#DejaVuSerif-3d" transform="translate(147.167969 0)"/>
     <use xlink:href="#DejaVuSerif-20" transform="translate(230.957031 0)"/>
     <use xlink:href="#DejaVuSerif-2d" transform="translate(262.744141 0)"/>
     <use xlink:href="#DejaVuSerif-31" transform="translate(296.533203 0)"/>
     <use xlink:href="#DejaVuSerif-36" transform="translate(360.15625 0)"/>
     <use xlink:href="#DejaVuSerif-2e" transform="translate(423.779297 0)"/>
     <use xlink:href="#DejaVuSerif-32" transform="translate(455.566406 0)"/>
     <use xlink:href="#DejaVuSerif-37" transform="translate(519.189453 0)"/>
     <use xlink:href="#DejaVuSerif-32" transform="translate(582.8125 0)"/>
    </g>
    <!-- MSE = 1.73E+05 -->
    <g transform="translate(287.518594 46.831775) scale(0.07 -0.07)">
     <defs>
      <path id="DejaVuSerif-2b" d="M 2931 4013 
L 2931 2259 
L 4684 2259 
L 4684 1753 
L 2931 1753 
L 2931 0 
L 2431 0 
L 2431 1753 
L 678 1753 
L 678 2259 
L 2431 2259 
L 2431 4013 
L 2931 4013 
z
" transform="scale(0.015625)"/>
     </defs>
     <use xlink:href="#DejaVuSerif-4d"/>
     <use xlink:href="#DejaVuSerif-53" transform="translate(102.392578 0)"/>
     <use xlink:href="#DejaVuSerif-45" transform="translate(170.898438 0)"/>
     <use xlink:href="#DejaVuSerif-20" transform="translate(243.896484 0)"/>
     <use xlink:href="#DejaVuSerif-3d" transform="translate(275.683594 0)"/>
     <use xlink:href="#DejaVuSerif-20" transform="translate(359.472656 0)"/>
     <use xlink:href="#DejaVuSerif-31" transform="translate(391.259766 0)"/>
     <use xlink:href="#DejaVuSerif-2e" transform="translate(454.882812 0)"/>
     <use xlink:href="#DejaVuSerif-37" transform="translate(486.669922 0)"/>
     <use xlink:href="#DejaVuSerif-33" transform="translate(550.292969 0)"/>
     <use xlink:href="#DejaVuSerif-45" transform="translate(613.916016 0)"/>
     <use xlink:href="#DejaVuSerif-2b" transform="translate(686.914062 0)"/>
     <use xlink:href="#DejaVuSerif-30" transform="translate(770.703125 0)"/>
     <use xlink:href="#DejaVuSerif-35" transform="translate(834.326172 0)"/>
    </g>
   </g>
   <g id="legend_2">
    <g id="line2d_58">
     <path d="M 370.111923 13.67875 
L 378.111923 13.67875 
L 386.111923 13.67875 
" style="fill: none; stroke: #43aaff; stroke-width: 0.66; stroke-linecap: square"/>
    </g>
    <g id="text_37">
     <!-- Treino -->
     <g transform="translate(392.511923 16.47875) scale(0.08 -0.08)">
      <defs>
       <path id="DejaVuSerif-54" d="M 1222 0 
L 1222 331 
L 1819 331 
L 1819 4294 
L 447 4294 
L 447 3566 
L 63 3566 
L 63 4666 
L 4206 4666 
L 4206 3566 
L 3822 3566 
L 3822 4294 
L 2450 4294 
L 2450 331 
L 3047 331 
L 3047 0 
L 1222 0 
z
" transform="scale(0.015625)"/>
       <path id="DejaVuSerif-6e" d="M 263 0 
L 263 331 
L 781 331 
L 781 2988 
L 231 2988 
L 231 3322 
L 1356 3322 
L 1356 2731 
Q 1516 3069 1770 3241 
Q 2025 3413 2363 3413 
Q 2913 3413 3172 3097 
Q 3431 2781 3431 2113 
L 3431 331 
L 3944 331 
L 3944 0 
L 2356 0 
L 2356 331 
L 2853 331 
L 2853 1931 
Q 2853 2541 2703 2767 
Q 2553 2994 2175 2994 
Q 1775 2994 1565 2701 
Q 1356 2409 1356 1850 
L 1356 331 
L 1856 331 
L 1856 0 
L 263 0 
z
" transform="scale(0.015625)"/>
      </defs>
      <use xlink:href="#DejaVuSerif-54"/>
      <use xlink:href="#DejaVuSerif-72" transform="translate(66.699219 0)"/>
      <use xlink:href="#DejaVuSerif-65" transform="translate(114.501953 0)"/>
      <use xlink:href="#DejaVuSerif-69" transform="translate(173.681641 0)"/>
      <use xlink:href="#DejaVuSerif-6e" transform="translate(205.664062 0)"/>
      <use xlink:href="#DejaVuSerif-6f" transform="translate(270.068359 0)"/>
     </g>
    </g>
    <g id="line2d_59">
     <path d="M 434.934423 13.67875 
L 442.934423 13.67875 
L 450.934423 13.67875 
" style="fill: none; stroke-dasharray: 2.442,1.056; stroke-dashoffset: 0; stroke: #969696; stroke-width: 0.66"/>
    </g>
    <g id="text_38">
     <!-- Real -->
     <g transform="translate(457.334423 16.47875) scale(0.08 -0.08)">
      <use xlink:href="#DejaVuSerif-52"/>
      <use xlink:href="#DejaVuSerif-65" transform="translate(75.292969 0)"/>
      <use xlink:href="#DejaVuSerif-61" transform="translate(134.472656 0)"/>
      <use xlink:href="#DejaVuSerif-6c" transform="translate(194.091797 0)"/>
     </g>
    </g>
    <g id="line2d_60">
     <path d="M 491.421923 13.67875 
L 499.421923 13.67875 
L 507.421923 13.67875 
" style="fill: none; stroke: #e24c4c; stroke-width: 0.66; stroke-linecap: square"/>
    </g>
    <g id="text_39">
     <!-- Previsão -->
     <g transform="translate(513.821923 16.47875) scale(0.08 -0.08)">
      <use xlink:href="#DejaVuSerif-50"/>
      <use xlink:href="#DejaVuSerif-72" transform="translate(67.285156 0)"/>
      <use xlink:href="#DejaVuSerif-65" transform="translate(115.087891 0)"/>
      <use xlink:href="#DejaVuSerif-76" transform="translate(174.267578 0)"/>
      <use xlink:href="#DejaVuSerif-69" transform="translate(230.761719 0)"/>
      <use xlink:href="#DejaVuSerif-73" transform="translate(262.744141 0)"/>
      <use xlink:href="#DejaVuSerif-e3" transform="translate(314.0625 0)"/>
      <use xlink:href="#DejaVuSerif-6f" transform="translate(373.681641 0)"/>
     </g>
    </g>
   </g>
  </g>
 </g>
 <defs>
  <clipPath id="pca8580dc42">
   <rect x="53.935" y="26.0558" width="178.962452" height="152.372"/>
  </clipPath>
  <clipPath id="pf04cb2f5db">
   <rect x="280.360096" y="26.0558" width="357.924904" height="152.372"/>
  </clipPath>
 </defs>
</svg>
