<?xml version="1.0" encoding="utf-8" standalone="no"?>
<!DOCTYPE svg PUBLIC "-//W3C//DTD SVG 1.1//EN"
  "http://www.w3.org/Graphics/SVG/1.1/DTD/svg11.dtd">
<svg xmlns:xlink="http://www.w3.org/1999/xlink" width="501.525pt" height="175.4945pt" viewBox="0 0 501.525 175.4945" xmlns="http://www.w3.org/2000/svg" version="1.1">
 <metadata>
  <rdf:RDF xmlns:dc="http://purl.org/dc/elements/1.1/" xmlns:cc="http://creativecommons.org/ns#" xmlns:rdf="http://www.w3.org/1999/02/22-rdf-syntax-ns#">
   <cc:Work>
    <dc:type rdf:resource="http://purl.org/dc/dcmitype/StillImage"/>
    <dc:date>2025-06-30T21:05:42.797489</dc:date>
    <dc:format>image/svg+xml</dc:format>
    <dc:creator>
     <cc:Agent>
      <dc:title>Matplotlib v3.10.3, https://matplotlib.org/</dc:title>
     </cc:Agent>
    </dc:creator>
   </cc:Work>
  </rdf:RDF>
 </metadata>
 <defs>
  <style type="text/css">*{stroke-linejoin: round; stroke-linecap: butt}</style>
 </defs>
 <g id="figure_1">
  <g id="patch_1">
   <path d="M 0 175.4945 
L 501.525 175.4945 
L 501.525 0 
L 0 0 
z
" style="fill: #ffffff"/>
  </g>
  <g id="axes_1">
   <g id="patch_2">
    <path d="M 48.845 141.8095 
L 182.685055 141.8095 
L 182.685055 21.2795 
L 48.845 21.2795 
z
" style="fill: #ffffff"/>
   </g>
   <g id="matplotlib.axis_1">
    <g id="xtick_1">
     <g id="line2d_1">
      <path d="M 54.928639 141.8095 
L 54.928639 21.2795 
" clip-path="url(#p0b65b60acb)" style="fill: none; stroke-dasharray: 2.96,1.28; stroke-dashoffset: 0; stroke: #b0b0b0; stroke-opacity: 0.5; stroke-width: 0.8"/>
     </g>
     <g id="line2d_2">
      <defs>
       <path id="m989595adf9" d="M 0 0 
L 0 3.5 
" style="stroke: #000000; stroke-width: 0.8"/>
      </defs>
      <g>
       <use xlink:href="#m989595adf9" x="54.928639" y="141.8095" style="stroke: #000000; stroke-width: 0.8"/>
      </g>
     </g>
     <g id="text_1">
      <!-- 18.85 -->
      <g transform="translate(43.477389 154.88825) scale(0.08 -0.08)">
       <defs>
        <path id="DejaVuSerif-31" d="M 909 0 
L 909 331 
L 1722 331 
L 1722 4213 
L 781 3603 
L 781 4013 
L 1919 4750 
L 2350 4750 
L 2350 331 
L 3163 331 
L 3163 0 
L 909 0 
z
" transform="scale(0.015625)"/>
        <path id="DejaVuSerif-38" d="M 2981 1275 
Q 2981 1775 2732 2051 
Q 2484 2328 2034 2328 
Q 1584 2328 1336 2051 
Q 1088 1775 1088 1275 
Q 1088 772 1336 495 
Q 1584 219 2034 219 
Q 2484 219 2732 495 
Q 2981 772 2981 1275 
z
M 2853 3541 
Q 2853 3966 2637 4203 
Q 2422 4441 2034 4441 
Q 1650 4441 1433 4203 
Q 1216 3966 1216 3541 
Q 1216 3113 1433 2875 
Q 1650 2638 2034 2638 
Q 2422 2638 2637 2875 
Q 2853 3113 2853 3541 
z
M 2516 2484 
Q 3047 2413 3344 2092 
Q 3641 1772 3641 1275 
Q 3641 619 3225 264 
Q 2809 -91 2034 -91 
Q 1263 -91 845 264 
Q 428 619 428 1275 
Q 428 1772 725 2092 
Q 1022 2413 1556 2484 
Q 1084 2569 832 2842 
Q 581 3116 581 3541 
Q 581 4103 968 4426 
Q 1356 4750 2034 4750 
Q 2713 4750 3100 4426 
Q 3488 4103 3488 3541 
Q 3488 3116 3236 2842 
Q 2984 2569 2516 2484 
z
" transform="scale(0.015625)"/>
        <path id="DejaVuSerif-2e" d="M 603 325 
Q 603 500 722 622 
Q 841 744 1019 744 
Q 1191 744 1312 622 
Q 1434 500 1434 325 
Q 1434 153 1312 31 
Q 1191 -91 1019 -91 
Q 841 -91 722 29 
Q 603 150 603 325 
z
" transform="scale(0.015625)"/>
        <path id="DejaVuSerif-35" d="M 3219 4666 
L 3219 4153 
L 1081 4153 
L 1081 2816 
Q 1244 2928 1461 2984 
Q 1678 3041 1947 3041 
Q 2703 3041 3140 2622 
Q 3578 2203 3578 1478 
Q 3578 738 3136 323 
Q 2694 -91 1894 -91 
Q 1572 -91 1234 -12 
Q 897 66 544 225 
L 544 1131 
L 897 1131 
Q 925 688 1179 453 
Q 1434 219 1894 219 
Q 2388 219 2653 544 
Q 2919 869 2919 1478 
Q 2919 2084 2655 2407 
Q 2391 2731 1894 2731 
Q 1613 2731 1398 2631 
Q 1184 2531 1019 2322 
L 750 2322 
L 750 4666 
L 3219 4666 
z
" transform="scale(0.015625)"/>
       </defs>
       <use xlink:href="#DejaVuSerif-31"/>
       <use xlink:href="#DejaVuSerif-38" transform="translate(63.623047 0)"/>
       <use xlink:href="#DejaVuSerif-2e" transform="translate(127.246094 0)"/>
       <use xlink:href="#DejaVuSerif-38" transform="translate(159.033203 0)"/>
       <use xlink:href="#DejaVuSerif-35" transform="translate(222.65625 0)"/>
      </g>
     </g>
    </g>
    <g id="xtick_2">
     <g id="line2d_3">
      <path d="M 85.346833 141.8095 
L 85.346833 21.2795 
" clip-path="url(#p0b65b60acb)" style="fill: none; stroke-dasharray: 2.96,1.28; stroke-dashoffset: 0; stroke: #b0b0b0; stroke-opacity: 0.5; stroke-width: 0.8"/>
     </g>
     <g id="line2d_4">
      <g>
       <use xlink:href="#m989595adf9" x="85.346833" y="141.8095" style="stroke: #000000; stroke-width: 0.8"/>
      </g>
     </g>
     <g id="text_2">
      <!-- 23.29 -->
      <g transform="translate(73.895583 154.88825) scale(0.08 -0.08)">
       <defs>
        <path id="DejaVuSerif-32" d="M 819 3553 
L 469 3553 
L 469 4384 
Q 803 4563 1142 4656 
Q 1481 4750 1806 4750 
Q 2534 4750 2956 4397 
Q 3378 4044 3378 3438 
Q 3378 2753 2422 1800 
Q 2347 1728 2309 1691 
L 1131 513 
L 3078 513 
L 3078 1088 
L 3444 1088 
L 3444 0 
L 434 0 
L 434 341 
L 1850 1753 
Q 2319 2222 2519 2614 
Q 2719 3006 2719 3438 
Q 2719 3909 2473 4175 
Q 2228 4441 1797 4441 
Q 1350 4441 1106 4219 
Q 863 3997 819 3553 
z
" transform="scale(0.015625)"/>
        <path id="DejaVuSerif-33" d="M 622 4469 
Q 988 4606 1323 4678 
Q 1659 4750 1953 4750 
Q 2638 4750 3022 4454 
Q 3406 4159 3406 3634 
Q 3406 3213 3140 2930 
Q 2875 2647 2388 2547 
Q 2963 2466 3280 2130 
Q 3597 1794 3597 1259 
Q 3597 606 3158 257 
Q 2719 -91 1894 -91 
Q 1528 -91 1179 -12 
Q 831 66 488 225 
L 488 1131 
L 838 1131 
Q 869 681 1141 450 
Q 1413 219 1906 219 
Q 2384 219 2661 495 
Q 2938 772 2938 1253 
Q 2938 1803 2653 2086 
Q 2369 2369 1819 2369 
L 1522 2369 
L 1522 2688 
L 1678 2688 
Q 2225 2688 2498 2914 
Q 2772 3141 2772 3597 
Q 2772 4006 2547 4223 
Q 2322 4441 1900 4441 
Q 1478 4441 1245 4241 
Q 1013 4041 972 3647 
L 622 3647 
L 622 4469 
z
" transform="scale(0.015625)"/>
        <path id="DejaVuSerif-39" d="M 2994 2091 
Q 2784 1856 2512 1740 
Q 2241 1625 1900 1625 
Q 1206 1625 804 2044 
Q 403 2463 403 3188 
Q 403 3897 839 4323 
Q 1275 4750 2003 4750 
Q 2794 4750 3217 4161 
Q 3641 3572 3641 2478 
Q 3641 1253 3137 581 
Q 2634 -91 1722 -91 
Q 1475 -91 1203 -44 
Q 931 3 647 97 
L 647 872 
L 997 872 
Q 1038 556 1241 387 
Q 1444 219 1784 219 
Q 2391 219 2687 676 
Q 2984 1134 2994 2091 
z
M 1978 4441 
Q 1534 4441 1298 4117 
Q 1063 3794 1063 3188 
Q 1063 2581 1298 2256 
Q 1534 1931 1978 1931 
Q 2422 1931 2658 2245 
Q 2894 2559 2894 3150 
Q 2894 3772 2656 4106 
Q 2419 4441 1978 4441 
z
" transform="scale(0.015625)"/>
       </defs>
       <use xlink:href="#DejaVuSerif-32"/>
       <use xlink:href="#DejaVuSerif-33" transform="translate(63.623047 0)"/>
       <use xlink:href="#DejaVuSerif-2e" transform="translate(127.246094 0)"/>
       <use xlink:href="#DejaVuSerif-32" transform="translate(159.033203 0)"/>
       <use xlink:href="#DejaVuSerif-39" transform="translate(222.65625 0)"/>
      </g>
     </g>
    </g>
    <g id="xtick_3">
     <g id="line2d_5">
      <path d="M 115.765028 141.8095 
L 115.765028 21.2795 
" clip-path="url(#p0b65b60acb)" style="fill: none; stroke-dasharray: 2.96,1.28; stroke-dashoffset: 0; stroke: #b0b0b0; stroke-opacity: 0.5; stroke-width: 0.8"/>
     </g>
     <g id="line2d_6">
      <g>
       <use xlink:href="#m989595adf9" x="115.765028" y="141.8095" style="stroke: #000000; stroke-width: 0.8"/>
      </g>
     </g>
     <g id="text_3">
      <!-- 27.73 -->
      <g transform="translate(104.313778 154.88825) scale(0.08 -0.08)">
       <defs>
        <path id="DejaVuSerif-37" d="M 3609 4347 
L 1784 0 
L 1319 0 
L 3059 4153 
L 903 4153 
L 903 3578 
L 538 3578 
L 538 4666 
L 3609 4666 
L 3609 4347 
z
" transform="scale(0.015625)"/>
       </defs>
       <use xlink:href="#DejaVuSerif-32"/>
       <use xlink:href="#DejaVuSerif-37" transform="translate(63.623047 0)"/>
       <use xlink:href="#DejaVuSerif-2e" transform="translate(127.246094 0)"/>
       <use xlink:href="#DejaVuSerif-37" transform="translate(159.033203 0)"/>
       <use xlink:href="#DejaVuSerif-33" transform="translate(222.65625 0)"/>
      </g>
     </g>
    </g>
    <g id="xtick_4">
     <g id="line2d_7">
      <path d="M 146.183222 141.8095 
L 146.183222 21.2795 
" clip-path="url(#p0b65b60acb)" style="fill: none; stroke-dasharray: 2.96,1.28; stroke-dashoffset: 0; stroke: #b0b0b0; stroke-opacity: 0.5; stroke-width: 0.8"/>
     </g>
     <g id="line2d_8">
      <g>
       <use xlink:href="#m989595adf9" x="146.183222" y="141.8095" style="stroke: #000000; stroke-width: 0.8"/>
      </g>
     </g>
     <g id="text_4">
      <!-- 32.17 -->
      <g transform="translate(134.731972 154.88825) scale(0.08 -0.08)">
       <use xlink:href="#DejaVuSerif-33"/>
       <use xlink:href="#DejaVuSerif-32" transform="translate(63.623047 0)"/>
       <use xlink:href="#DejaVuSerif-2e" transform="translate(127.246094 0)"/>
       <use xlink:href="#DejaVuSerif-31" transform="translate(159.033203 0)"/>
       <use xlink:href="#DejaVuSerif-37" transform="translate(222.65625 0)"/>
      </g>
     </g>
    </g>
    <g id="xtick_5">
     <g id="line2d_9">
      <path d="M 176.601416 141.8095 
L 176.601416 21.2795 
" clip-path="url(#p0b65b60acb)" style="fill: none; stroke-dasharray: 2.96,1.28; stroke-dashoffset: 0; stroke: #b0b0b0; stroke-opacity: 0.5; stroke-width: 0.8"/>
     </g>
     <g id="line2d_10">
      <g>
       <use xlink:href="#m989595adf9" x="176.601416" y="141.8095" style="stroke: #000000; stroke-width: 0.8"/>
      </g>
     </g>
     <g id="text_5">
      <!-- 36.62 -->
      <g transform="translate(165.150166 154.88825) scale(0.08 -0.08)">
       <defs>
        <path id="DejaVuSerif-36" d="M 2094 219 
Q 2534 219 2771 542 
Q 3009 866 3009 1472 
Q 3009 2078 2771 2401 
Q 2534 2725 2094 2725 
Q 1647 2725 1412 2412 
Q 1178 2100 1178 1509 
Q 1178 888 1415 553 
Q 1653 219 2094 219 
z
M 1075 2569 
Q 1288 2803 1556 2918 
Q 1825 3034 2163 3034 
Q 2859 3034 3264 2615 
Q 3669 2197 3669 1472 
Q 3669 763 3233 336 
Q 2797 -91 2069 -91 
Q 1278 -91 853 498 
Q 428 1088 428 2181 
Q 428 3406 931 4078 
Q 1434 4750 2350 4750 
Q 2597 4750 2869 4703 
Q 3141 4656 3425 4563 
L 3425 3794 
L 3072 3794 
Q 3034 4109 2831 4275 
Q 2628 4441 2284 4441 
Q 1678 4441 1381 3981 
Q 1084 3522 1075 2569 
z
" transform="scale(0.015625)"/>
       </defs>
       <use xlink:href="#DejaVuSerif-33"/>
       <use xlink:href="#DejaVuSerif-36" transform="translate(63.623047 0)"/>
       <use xlink:href="#DejaVuSerif-2e" transform="translate(127.246094 0)"/>
       <use xlink:href="#DejaVuSerif-36" transform="translate(159.033203 0)"/>
       <use xlink:href="#DejaVuSerif-32" transform="translate(222.65625 0)"/>
      </g>
     </g>
    </g>
    <g id="text_6">
     <!-- Real -->
     <g transform="translate(106.721278 166.63075) scale(0.08 -0.08)">
      <defs>
       <path id="DejaVuSerif-52" d="M 3066 2316 
Q 3284 2256 3442 2114 
Q 3600 1972 3725 1716 
L 4403 331 
L 4972 331 
L 4972 0 
L 3872 0 
L 3144 1484 
Q 2934 1916 2759 2042 
Q 2584 2169 2278 2169 
L 1581 2169 
L 1581 331 
L 2241 331 
L 2241 0 
L 353 0 
L 353 331 
L 947 331 
L 947 4331 
L 353 4331 
L 353 4666 
L 2719 4666 
Q 3400 4666 3770 4341 
Q 4141 4016 4141 3419 
Q 4141 2938 3870 2661 
Q 3600 2384 3066 2316 
z
M 1581 2503 
L 2503 2503 
Q 2975 2503 3200 2726 
Q 3425 2950 3425 3419 
Q 3425 3888 3200 4109 
Q 2975 4331 2503 4331 
L 1581 4331 
L 1581 2503 
z
" transform="scale(0.015625)"/>
       <path id="DejaVuSerif-65" d="M 3469 1600 
L 991 1600 
L 991 1575 
Q 991 903 1244 561 
Q 1497 219 1991 219 
Q 2369 219 2611 417 
Q 2853 616 2950 1006 
L 3413 1006 
Q 3275 459 2904 184 
Q 2534 -91 1931 -91 
Q 1203 -91 761 389 
Q 319 869 319 1663 
Q 319 2450 753 2931 
Q 1188 3413 1894 3413 
Q 2647 3413 3050 2948 
Q 3453 2484 3469 1600 
z
M 2791 1931 
Q 2772 2513 2545 2808 
Q 2319 3103 1894 3103 
Q 1497 3103 1269 2806 
Q 1041 2509 991 1931 
L 2791 1931 
z
" transform="scale(0.015625)"/>
       <path id="DejaVuSerif-61" d="M 2547 1044 
L 2547 1747 
L 1806 1747 
Q 1378 1747 1168 1562 
Q 959 1378 959 997 
Q 959 650 1171 447 
Q 1384 244 1747 244 
Q 2106 244 2326 466 
Q 2547 688 2547 1044 
z
M 3122 2075 
L 3122 331 
L 3634 331 
L 3634 0 
L 2547 0 
L 2547 359 
Q 2356 128 2106 18 
Q 1856 -91 1522 -91 
Q 969 -91 644 203 
Q 319 497 319 997 
Q 319 1513 691 1797 
Q 1063 2081 1741 2081 
L 2547 2081 
L 2547 2309 
Q 2547 2688 2317 2895 
Q 2088 3103 1672 3103 
Q 1328 3103 1125 2947 
Q 922 2791 872 2484 
L 575 2484 
L 575 3156 
Q 875 3284 1158 3348 
Q 1441 3413 1709 3413 
Q 2400 3413 2761 3070 
Q 3122 2728 3122 2075 
z
" transform="scale(0.015625)"/>
       <path id="DejaVuSerif-6c" d="M 1313 331 
L 1856 331 
L 1856 0 
L 184 0 
L 184 331 
L 738 331 
L 738 4531 
L 184 4531 
L 184 4863 
L 1313 4863 
L 1313 331 
z
" transform="scale(0.015625)"/>
      </defs>
      <use xlink:href="#DejaVuSerif-52"/>
      <use xlink:href="#DejaVuSerif-65" transform="translate(75.292969 0)"/>
      <use xlink:href="#DejaVuSerif-61" transform="translate(134.472656 0)"/>
      <use xlink:href="#DejaVuSerif-6c" transform="translate(194.091797 0)"/>
     </g>
    </g>
    <g id="text_7">
     <!-- 1e3 -->
     <g transform="translate(167.770055 165.63075) scale(0.08 -0.08)">
      <use xlink:href="#DejaVuSerif-31"/>
      <use xlink:href="#DejaVuSerif-65" transform="translate(63.623047 0)"/>
      <use xlink:href="#DejaVuSerif-33" transform="translate(122.802734 0)"/>
     </g>
    </g>
   </g>
   <g id="matplotlib.axis_2">
    <g id="ytick_1">
     <g id="line2d_11">
      <path d="M 48.845 136.330864 
L 182.685055 136.330864 
" clip-path="url(#p0b65b60acb)" style="fill: none; stroke-dasharray: 2.96,1.28; stroke-dashoffset: 0; stroke: #b0b0b0; stroke-opacity: 0.5; stroke-width: 0.8"/>
     </g>
     <g id="line2d_12">
      <defs>
       <path id="m48032aee12" d="M 0 0 
L -3.5 0 
" style="stroke: #000000; stroke-width: 0.8"/>
      </defs>
      <g>
       <use xlink:href="#m48032aee12" x="48.845" y="136.330864" style="stroke: #000000; stroke-width: 0.8"/>
      </g>
     </g>
     <g id="text_8">
      <!-- 18.85 -->
      <g transform="translate(18.9425 139.370239) scale(0.08 -0.08)">
       <use xlink:href="#DejaVuSerif-31"/>
       <use xlink:href="#DejaVuSerif-38" transform="translate(63.623047 0)"/>
       <use xlink:href="#DejaVuSerif-2e" transform="translate(127.246094 0)"/>
       <use xlink:href="#DejaVuSerif-38" transform="translate(159.033203 0)"/>
       <use xlink:href="#DejaVuSerif-35" transform="translate(222.65625 0)"/>
      </g>
     </g>
    </g>
    <g id="ytick_2">
     <g id="line2d_13">
      <path d="M 48.845 108.937682 
L 182.685055 108.937682 
" clip-path="url(#p0b65b60acb)" style="fill: none; stroke-dasharray: 2.96,1.28; stroke-dashoffset: 0; stroke: #b0b0b0; stroke-opacity: 0.5; stroke-width: 0.8"/>
     </g>
     <g id="line2d_14">
      <g>
       <use xlink:href="#m48032aee12" x="48.845" y="108.937682" style="stroke: #000000; stroke-width: 0.8"/>
      </g>
     </g>
     <g id="text_9">
      <!-- 23.29 -->
      <g transform="translate(18.9425 111.977057) scale(0.08 -0.08)">
       <use xlink:href="#DejaVuSerif-32"/>
       <use xlink:href="#DejaVuSerif-33" transform="translate(63.623047 0)"/>
       <use xlink:href="#DejaVuSerif-2e" transform="translate(127.246094 0)"/>
       <use xlink:href="#DejaVuSerif-32" transform="translate(159.033203 0)"/>
       <use xlink:href="#DejaVuSerif-39" transform="translate(222.65625 0)"/>
      </g>
     </g>
    </g>
    <g id="ytick_3">
     <g id="line2d_15">
      <path d="M 48.845 81.5445 
L 182.685055 81.5445 
" clip-path="url(#p0b65b60acb)" style="fill: none; stroke-dasharray: 2.96,1.28; stroke-dashoffset: 0; stroke: #b0b0b0; stroke-opacity: 0.5; stroke-width: 0.8"/>
     </g>
     <g id="line2d_16">
      <g>
       <use xlink:href="#m48032aee12" x="48.845" y="81.5445" style="stroke: #000000; stroke-width: 0.8"/>
      </g>
     </g>
     <g id="text_10">
      <!-- 27.73 -->
      <g transform="translate(18.9425 84.583875) scale(0.08 -0.08)">
       <use xlink:href="#DejaVuSerif-32"/>
       <use xlink:href="#DejaVuSerif-37" transform="translate(63.623047 0)"/>
       <use xlink:href="#DejaVuSerif-2e" transform="translate(127.246094 0)"/>
       <use xlink:href="#DejaVuSerif-37" transform="translate(159.033203 0)"/>
       <use xlink:href="#DejaVuSerif-33" transform="translate(222.65625 0)"/>
      </g>
     </g>
    </g>
    <g id="ytick_4">
     <g id="line2d_17">
      <path d="M 48.845 54.151318 
L 182.685055 54.151318 
" clip-path="url(#p0b65b60acb)" style="fill: none; stroke-dasharray: 2.96,1.28; stroke-dashoffset: 0; stroke: #b0b0b0; stroke-opacity: 0.5; stroke-width: 0.8"/>
     </g>
     <g id="line2d_18">
      <g>
       <use xlink:href="#m48032aee12" x="48.845" y="54.151318" style="stroke: #000000; stroke-width: 0.8"/>
      </g>
     </g>
     <g id="text_11">
      <!-- 32.17 -->
      <g transform="translate(18.9425 57.190693) scale(0.08 -0.08)">
       <use xlink:href="#DejaVuSerif-33"/>
       <use xlink:href="#DejaVuSerif-32" transform="translate(63.623047 0)"/>
       <use xlink:href="#DejaVuSerif-2e" transform="translate(127.246094 0)"/>
       <use xlink:href="#DejaVuSerif-31" transform="translate(159.033203 0)"/>
       <use xlink:href="#DejaVuSerif-37" transform="translate(222.65625 0)"/>
      </g>
     </g>
    </g>
    <g id="ytick_5">
     <g id="line2d_19">
      <path d="M 48.845 26.758136 
L 182.685055 26.758136 
" clip-path="url(#p0b65b60acb)" style="fill: none; stroke-dasharray: 2.96,1.28; stroke-dashoffset: 0; stroke: #b0b0b0; stroke-opacity: 0.5; stroke-width: 0.8"/>
     </g>
     <g id="line2d_20">
      <g>
       <use xlink:href="#m48032aee12" x="48.845" y="26.758136" style="stroke: #000000; stroke-width: 0.8"/>
      </g>
     </g>
     <g id="text_12">
      <!-- 36.62 -->
      <g transform="translate(18.9425 29.797511) scale(0.08 -0.08)">
       <use xlink:href="#DejaVuSerif-33"/>
       <use xlink:href="#DejaVuSerif-36" transform="translate(63.623047 0)"/>
       <use xlink:href="#DejaVuSerif-2e" transform="translate(127.246094 0)"/>
       <use xlink:href="#DejaVuSerif-36" transform="translate(159.033203 0)"/>
       <use xlink:href="#DejaVuSerif-32" transform="translate(222.65625 0)"/>
      </g>
     </g>
    </g>
    <g id="text_13">
     <!-- Previsto -->
     <g transform="translate(13.27875 98.122625) rotate(-90) scale(0.08 -0.08)">
      <defs>
       <path id="DejaVuSerif-50" d="M 1581 2375 
L 2406 2375 
Q 2872 2375 3115 2626 
Q 3359 2878 3359 3353 
Q 3359 3831 3115 4081 
Q 2872 4331 2406 4331 
L 1581 4331 
L 1581 2375 
z
M 353 0 
L 353 331 
L 947 331 
L 947 4331 
L 353 4331 
L 353 4666 
L 2559 4666 
Q 3259 4666 3668 4311 
Q 4078 3956 4078 3353 
Q 4078 2753 3668 2397 
Q 3259 2041 2559 2041 
L 1581 2041 
L 1581 331 
L 2303 331 
L 2303 0 
L 353 0 
z
" transform="scale(0.015625)"/>
       <path id="DejaVuSerif-72" d="M 3059 3328 
L 3059 2497 
L 2728 2497 
Q 2713 2744 2591 2866 
Q 2469 2988 2234 2988 
Q 1809 2988 1582 2694 
Q 1356 2400 1356 1850 
L 1356 331 
L 2022 331 
L 2022 0 
L 263 0 
L 263 331 
L 781 331 
L 781 2994 
L 231 2994 
L 231 3322 
L 1356 3322 
L 1356 2731 
Q 1525 3078 1790 3245 
Q 2056 3413 2438 3413 
Q 2578 3413 2733 3391 
Q 2888 3369 3059 3328 
z
" transform="scale(0.015625)"/>
       <path id="DejaVuSerif-76" d="M 1581 0 
L 359 2988 
L -19 2988 
L -19 3322 
L 1509 3322 
L 1509 2988 
L 978 2988 
L 1913 703 
L 2847 2988 
L 2350 2988 
L 2350 3322 
L 3597 3322 
L 3597 2988 
L 3225 2988 
L 2003 0 
L 1581 0 
z
" transform="scale(0.015625)"/>
       <path id="DejaVuSerif-69" d="M 622 4353 
Q 622 4497 726 4603 
Q 831 4709 978 4709 
Q 1122 4709 1226 4603 
Q 1331 4497 1331 4353 
Q 1331 4206 1228 4103 
Q 1125 4000 978 4000 
Q 831 4000 726 4103 
Q 622 4206 622 4353 
z
M 1356 331 
L 1900 331 
L 1900 0 
L 231 0 
L 231 331 
L 781 331 
L 781 2988 
L 231 2988 
L 231 3322 
L 1356 3322 
L 1356 331 
z
" transform="scale(0.015625)"/>
       <path id="DejaVuSerif-73" d="M 359 184 
L 359 959 
L 691 959 
Q 703 588 923 403 
Q 1144 219 1575 219 
Q 1963 219 2166 364 
Q 2369 509 2369 788 
Q 2369 1006 2220 1140 
Q 2072 1275 1594 1428 
L 1178 1569 
Q 750 1706 558 1912 
Q 366 2119 366 2438 
Q 366 2894 700 3153 
Q 1034 3413 1625 3413 
Q 1888 3413 2178 3344 
Q 2469 3275 2778 3144 
L 2778 2419 
L 2447 2419 
Q 2434 2741 2221 2922 
Q 2009 3103 1644 3103 
Q 1281 3103 1095 2975 
Q 909 2847 909 2591 
Q 909 2381 1050 2254 
Q 1191 2128 1613 1997 
L 2069 1856 
Q 2541 1709 2748 1489 
Q 2956 1269 2956 922 
Q 2956 450 2595 179 
Q 2234 -91 1600 -91 
Q 1278 -91 972 -22 
Q 666 47 359 184 
z
" transform="scale(0.015625)"/>
       <path id="DejaVuSerif-74" d="M 691 2988 
L 184 2988 
L 184 3322 
L 691 3322 
L 691 4353 
L 1269 4353 
L 1269 3322 
L 2350 3322 
L 2350 2988 
L 1269 2988 
L 1269 878 
Q 1269 456 1350 337 
Q 1431 219 1650 219 
Q 1875 219 1978 351 
Q 2081 484 2088 781 
L 2522 781 
Q 2497 328 2275 118 
Q 2053 -91 1600 -91 
Q 1103 -91 897 129 
Q 691 350 691 878 
L 691 2988 
z
" transform="scale(0.015625)"/>
       <path id="DejaVuSerif-6f" d="M 1925 219 
Q 2388 219 2623 584 
Q 2859 950 2859 1663 
Q 2859 2375 2623 2739 
Q 2388 3103 1925 3103 
Q 1463 3103 1227 2739 
Q 991 2375 991 1663 
Q 991 950 1228 584 
Q 1466 219 1925 219 
z
M 1925 -91 
Q 1200 -91 759 389 
Q 319 869 319 1663 
Q 319 2456 758 2934 
Q 1197 3413 1925 3413 
Q 2653 3413 3092 2934 
Q 3531 2456 3531 1663 
Q 3531 869 3092 389 
Q 2653 -91 1925 -91 
z
" transform="scale(0.015625)"/>
      </defs>
      <use xlink:href="#DejaVuSerif-50"/>
      <use xlink:href="#DejaVuSerif-72" transform="translate(67.285156 0)"/>
      <use xlink:href="#DejaVuSerif-65" transform="translate(115.087891 0)"/>
      <use xlink:href="#DejaVuSerif-76" transform="translate(174.267578 0)"/>
      <use xlink:href="#DejaVuSerif-69" transform="translate(230.761719 0)"/>
      <use xlink:href="#DejaVuSerif-73" transform="translate(262.744141 0)"/>
      <use xlink:href="#DejaVuSerif-74" transform="translate(314.0625 0)"/>
      <use xlink:href="#DejaVuSerif-6f" transform="translate(354.248047 0)"/>
     </g>
    </g>
    <g id="text_14">
     <!-- 1e3 -->
     <g transform="translate(48.845 18.2795) scale(0.08 -0.08)">
      <use xlink:href="#DejaVuSerif-31"/>
      <use xlink:href="#DejaVuSerif-65" transform="translate(63.623047 0)"/>
      <use xlink:href="#DejaVuSerif-33" transform="translate(122.802734 0)"/>
     </g>
    </g>
   </g>
   <g id="PathCollection_1">
    <defs>
     <path id="m38e42d82ec" d="M 0 0.5 
C 0.132602 0.5 0.25979 0.447317 0.353553 0.353553 
C 0.447317 0.25979 0.5 0.132602 0.5 0 
C 0.5 -0.132602 0.447317 -0.25979 0.353553 -0.353553 
C 0.25979 -0.447317 0.132602 -0.5 0 -0.5 
C -0.132602 -0.5 -0.25979 -0.447317 -0.353553 -0.353553 
C -0.447317 -0.25979 -0.5 -0.132602 -0.5 0 
C -0.5 0.132602 -0.447317 0.25979 -0.353553 0.353553 
C -0.25979 0.447317 -0.132602 0.5 0 0.5 
z
" style="stroke: #ff5b5b"/>
    </defs>
    <g clip-path="url(#p0b65b60acb)">
     <use xlink:href="#m38e42d82ec" x="166.309547" y="49.019629" style="fill: #ff5b5b; stroke: #ff5b5b"/>
     <use xlink:href="#m38e42d82ec" x="176.601416" y="43.246104" style="fill: #ff5b5b; stroke: #ff5b5b"/>
     <use xlink:href="#m38e42d82ec" x="160.875466" y="47.416003" style="fill: #ff5b5b; stroke: #ff5b5b"/>
     <use xlink:href="#m38e42d82ec" x="125.55755" y="60.337868" style="fill: #ff5b5b; stroke: #ff5b5b"/>
     <use xlink:href="#m38e42d82ec" x="115.556173" y="76.242824" style="fill: #ff5b5b; stroke: #ff5b5b"/>
     <use xlink:href="#m38e42d82ec" x="104.593734" y="88.788183" style="fill: #ff5b5b; stroke: #ff5b5b"/>
     <use xlink:href="#m38e42d82ec" x="110.426859" y="95.488052" style="fill: #ff5b5b; stroke: #ff5b5b"/>
     <use xlink:href="#m38e42d82ec" x="106.676688" y="94.120942" style="fill: #ff5b5b; stroke: #ff5b5b"/>
     <use xlink:href="#m38e42d82ec" x="120.073064" y="85.606924" style="fill: #ff5b5b; stroke: #ff5b5b"/>
     <use xlink:href="#m38e42d82ec" x="124.677724" y="75.381844" style="fill: #ff5b5b; stroke: #ff5b5b"/>
     <use xlink:href="#m38e42d82ec" x="121.355904" y="62.57262" style="fill: #ff5b5b; stroke: #ff5b5b"/>
     <use xlink:href="#m38e42d82ec" x="122.729853" y="50.92043" style="fill: #ff5b5b; stroke: #ff5b5b"/>
     <use xlink:href="#m38e42d82ec" x="131.169677" y="44.348799" style="fill: #ff5b5b; stroke: #ff5b5b"/>
     <use xlink:href="#m38e42d82ec" x="141.668196" y="43.451115" style="fill: #ff5b5b; stroke: #ff5b5b"/>
     <use xlink:href="#m38e42d82ec" x="128.18576" y="51.37015" style="fill: #ff5b5b; stroke: #ff5b5b"/>
     <use xlink:href="#m38e42d82ec" x="107.014996" y="64.141782" style="fill: #ff5b5b; stroke: #ff5b5b"/>
     <use xlink:href="#m38e42d82ec" x="107.293358" y="77.210925" style="fill: #ff5b5b; stroke: #ff5b5b"/>
     <use xlink:href="#m38e42d82ec" x="94.439608" y="85.745032" style="fill: #ff5b5b; stroke: #ff5b5b"/>
     <use xlink:href="#m38e42d82ec" x="59.494884" y="90.759529" style="fill: #ff5b5b; stroke: #ff5b5b"/>
     <use xlink:href="#m38e42d82ec" x="54.928639" y="95.132317" style="fill: #ff5b5b; stroke: #ff5b5b"/>
     <use xlink:href="#m38e42d82ec" x="65.592418" y="96.112824" style="fill: #ff5b5b; stroke: #ff5b5b"/>
     <use xlink:href="#m38e42d82ec" x="59.860655" y="94.356958" style="fill: #ff5b5b; stroke: #ff5b5b"/>
     <use xlink:href="#m38e42d82ec" x="92.780466" y="88.636727" style="fill: #ff5b5b; stroke: #ff5b5b"/>
     <use xlink:href="#m38e42d82ec" x="111.054606" y="80.69421" style="fill: #ff5b5b; stroke: #ff5b5b"/>
     <use xlink:href="#m38e42d82ec" x="117.732403" y="72.873052" style="fill: #ff5b5b; stroke: #ff5b5b"/>
     <use xlink:href="#m38e42d82ec" x="137.046014" y="71.336085" style="fill: #ff5b5b; stroke: #ff5b5b"/>
     <use xlink:href="#m38e42d82ec" x="158.691119" y="73.604805" style="fill: #ff5b5b; stroke: #ff5b5b"/>
     <use xlink:href="#m38e42d82ec" x="122.813783" y="77.361685" style="fill: #ff5b5b; stroke: #ff5b5b"/>
     <use xlink:href="#m38e42d82ec" x="96.592009" y="86.425228" style="fill: #ff5b5b; stroke: #ff5b5b"/>
     <use xlink:href="#m38e42d82ec" x="87.615129" y="98.465063" style="fill: #ff5b5b; stroke: #ff5b5b"/>
     <use xlink:href="#m38e42d82ec" x="82.412424" y="108.07824" style="fill: #ff5b5b; stroke: #ff5b5b"/>
     <use xlink:href="#m38e42d82ec" x="89.355446" y="111.036176" style="fill: #ff5b5b; stroke: #ff5b5b"/>
     <use xlink:href="#m38e42d82ec" x="93.40288" y="109.214286" style="fill: #ff5b5b; stroke: #ff5b5b"/>
     <use xlink:href="#m38e42d82ec" x="98.489419" y="101.005832" style="fill: #ff5b5b; stroke: #ff5b5b"/>
     <use xlink:href="#m38e42d82ec" x="128.688644" y="88.328924" style="fill: #ff5b5b; stroke: #ff5b5b"/>
     <use xlink:href="#m38e42d82ec" x="139.450686" y="74.545644" style="fill: #ff5b5b; stroke: #ff5b5b"/>
     <use xlink:href="#m38e42d82ec" x="132.856894" y="62.767295" style="fill: #ff5b5b; stroke: #ff5b5b"/>
     <use xlink:href="#m38e42d82ec" x="144.521906" y="55.744879" style="fill: #ff5b5b; stroke: #ff5b5b"/>
     <use xlink:href="#m38e42d82ec" x="162.122317" y="56.706848" style="fill: #ff5b5b; stroke: #ff5b5b"/>
     <use xlink:href="#m38e42d82ec" x="142.754101" y="64.386938" style="fill: #ff5b5b; stroke: #ff5b5b"/>
     <use xlink:href="#m38e42d82ec" x="117.728875" y="77.262713" style="fill: #ff5b5b; stroke: #ff5b5b"/>
     <use xlink:href="#m38e42d82ec" x="109.718058" y="89.441094" style="fill: #ff5b5b; stroke: #ff5b5b"/>
     <use xlink:href="#m38e42d82ec" x="91.140306" y="97.613072" style="fill: #ff5b5b; stroke: #ff5b5b"/>
     <use xlink:href="#m38e42d82ec" x="101.91753" y="102.04162" style="fill: #ff5b5b; stroke: #ff5b5b"/>
     <use xlink:href="#m38e42d82ec" x="111.819875" y="98.516996" style="fill: #ff5b5b; stroke: #ff5b5b"/>
     <use xlink:href="#m38e42d82ec" x="118.292859" y="87.832775" style="fill: #ff5b5b; stroke: #ff5b5b"/>
     <use xlink:href="#m38e42d82ec" x="135.415145" y="75.299668" style="fill: #ff5b5b; stroke: #ff5b5b"/>
     <use xlink:href="#m38e42d82ec" x="140.338244" y="62.591035" style="fill: #ff5b5b; stroke: #ff5b5b"/>
     <use xlink:href="#m38e42d82ec" x="166.416327" y="51.177668" style="fill: #ff5b5b; stroke: #ff5b5b"/>
     <use xlink:href="#m38e42d82ec" x="148.603669" y="46.38668" style="fill: #ff5b5b; stroke: #ff5b5b"/>
     <use xlink:href="#m38e42d82ec" x="151.668685" y="50.751737" style="fill: #ff5b5b; stroke: #ff5b5b"/>
     <use xlink:href="#m38e42d82ec" x="136.852329" y="61.915808" style="fill: #ff5b5b; stroke: #ff5b5b"/>
     <use xlink:href="#m38e42d82ec" x="92.520559" y="75.867258" style="fill: #ff5b5b; stroke: #ff5b5b"/>
     <use xlink:href="#m38e42d82ec" x="82.483103" y="91.161852" style="fill: #ff5b5b; stroke: #ff5b5b"/>
     <use xlink:href="#m38e42d82ec" x="76.034128" y="100.007717" style="fill: #ff5b5b; stroke: #ff5b5b"/>
     <use xlink:href="#m38e42d82ec" x="78.187825" y="102.12724" style="fill: #ff5b5b; stroke: #ff5b5b"/>
     <use xlink:href="#m38e42d82ec" x="93.275102" y="96.726117" style="fill: #ff5b5b; stroke: #ff5b5b"/>
     <use xlink:href="#m38e42d82ec" x="92.93301" y="85.772354" style="fill: #ff5b5b; stroke: #ff5b5b"/>
     <use xlink:href="#m38e42d82ec" x="113.819853" y="75.319096" style="fill: #ff5b5b; stroke: #ff5b5b"/>
     <use xlink:href="#m38e42d82ec" x="134.626551" y="62.113685" style="fill: #ff5b5b; stroke: #ff5b5b"/>
    </g>
   </g>
   <g id="line2d_21">
    <path d="M 54.928639 136.330864 
L 176.601416 26.758136 
" clip-path="url(#p0b65b60acb)" style="fill: none; stroke-dasharray: 2.442,1.056; stroke-dashoffset: 0; stroke: #202020; stroke-width: 0.66"/>
   </g>
   <g id="patch_3">
    <path d="M 48.845 141.8095 
L 48.845 21.2795 
" style="fill: none; stroke: #000000; stroke-width: 0.8; stroke-linejoin: miter; stroke-linecap: square"/>
   </g>
   <g id="patch_4">
    <path d="M 48.845 141.8095 
L 182.685055 141.8095 
" style="fill: none; stroke: #000000; stroke-width: 0.8; stroke-linejoin: miter; stroke-linecap: square"/>
   </g>
   <g id="legend_1">
    <g id="PathCollection_2">
     <g>
      <use xlink:href="#m38e42d82ec" x="66.614403" y="14.37875" style="fill: #ff5b5b; stroke: #ff5b5b"/>
     </g>
    </g>
    <g id="text_15">
     <!-- Previsto -->
     <g transform="translate(81.014403 16.47875) scale(0.08 -0.08)">
      <use xlink:href="#DejaVuSerif-50"/>
      <use xlink:href="#DejaVuSerif-72" transform="translate(67.285156 0)"/>
      <use xlink:href="#DejaVuSerif-65" transform="translate(115.087891 0)"/>
      <use xlink:href="#DejaVuSerif-76" transform="translate(174.267578 0)"/>
      <use xlink:href="#DejaVuSerif-69" transform="translate(230.761719 0)"/>
      <use xlink:href="#DejaVuSerif-73" transform="translate(262.744141 0)"/>
      <use xlink:href="#DejaVuSerif-74" transform="translate(314.0625 0)"/>
      <use xlink:href="#DejaVuSerif-6f" transform="translate(354.248047 0)"/>
     </g>
    </g>
    <g id="line2d_22">
     <path d="M 130.170653 13.67875 
L 138.170653 13.67875 
L 146.170653 13.67875 
" style="fill: none; stroke-dasharray: 2.442,1.056; stroke-dashoffset: 0; stroke: #202020; stroke-width: 0.66"/>
    </g>
    <g id="text_16">
     <!-- Ideal -->
     <g transform="translate(152.570653 16.47875) scale(0.08 -0.08)">
      <defs>
       <path id="DejaVuSerif-49" d="M 1581 331 
L 2175 331 
L 2175 0 
L 353 0 
L 353 331 
L 947 331 
L 947 4331 
L 353 4331 
L 353 4666 
L 2175 4666 
L 2175 4331 
L 1581 4331 
L 1581 331 
z
" transform="scale(0.015625)"/>
       <path id="DejaVuSerif-64" d="M 3359 331 
L 3909 331 
L 3909 0 
L 2784 0 
L 2784 519 
Q 2616 206 2355 57 
Q 2094 -91 1709 -91 
Q 1097 -91 708 395 
Q 319 881 319 1663 
Q 319 2444 706 2928 
Q 1094 3413 1709 3413 
Q 2094 3413 2355 3264 
Q 2616 3116 2784 2803 
L 2784 4531 
L 2241 4531 
L 2241 4863 
L 3359 4863 
L 3359 331 
z
M 2784 1497 
L 2784 1825 
Q 2784 2422 2554 2737 
Q 2325 3053 1888 3053 
Q 1444 3053 1217 2703 
Q 991 2353 991 1663 
Q 991 975 1217 622 
Q 1444 269 1888 269 
Q 2325 269 2554 583 
Q 2784 897 2784 1497 
z
" transform="scale(0.015625)"/>
      </defs>
      <use xlink:href="#DejaVuSerif-49"/>
      <use xlink:href="#DejaVuSerif-64" transform="translate(39.501953 0)"/>
      <use xlink:href="#DejaVuSerif-65" transform="translate(103.515625 0)"/>
      <use xlink:href="#DejaVuSerif-61" transform="translate(162.695312 0)"/>
      <use xlink:href="#DejaVuSerif-6c" transform="translate(222.314453 0)"/>
     </g>
    </g>
   </g>
  </g>
  <g id="axes_2">
   <g id="patch_5">
    <path d="M 226.64489 141.8095 
L 494.325 141.8095 
L 494.325 21.2795 
L 226.64489 21.2795 
z
" style="fill: #ffffff"/>
   </g>
   <g id="matplotlib.axis_3">
    <g id="xtick_6">
     <g id="line2d_23">
      <path d="M 238.028278 141.8095 
L 238.028278 21.2795 
" clip-path="url(#p583c076030)" style="fill: none; stroke-dasharray: 2.96,1.28; stroke-dashoffset: 0; stroke: #b0b0b0; stroke-opacity: 0.5; stroke-width: 0.8"/>
     </g>
     <g id="line2d_24">
      <g>
       <use xlink:href="#m989595adf9" x="238.028278" y="141.8095" style="stroke: #000000; stroke-width: 0.8"/>
      </g>
     </g>
     <g id="text_17">
      <!-- 2000 -->
      <g transform="translate(227.848278 154.88825) scale(0.08 -0.08)">
       <defs>
        <path id="DejaVuSerif-30" d="M 2034 219 
Q 2513 219 2750 744 
Q 2988 1269 2988 2328 
Q 2988 3391 2750 3916 
Q 2513 4441 2034 4441 
Q 1556 4441 1318 3916 
Q 1081 3391 1081 2328 
Q 1081 1269 1318 744 
Q 1556 219 2034 219 
z
M 2034 -91 
Q 1275 -91 848 546 
Q 422 1184 422 2328 
Q 422 3475 848 4112 
Q 1275 4750 2034 4750 
Q 2797 4750 3222 4112 
Q 3647 3475 3647 2328 
Q 3647 1184 3222 546 
Q 2797 -91 2034 -91 
z
" transform="scale(0.015625)"/>
       </defs>
       <use xlink:href="#DejaVuSerif-32"/>
       <use xlink:href="#DejaVuSerif-30" transform="translate(63.623047 0)"/>
       <use xlink:href="#DejaVuSerif-30" transform="translate(127.246094 0)"/>
       <use xlink:href="#DejaVuSerif-30" transform="translate(190.869141 0)"/>
      </g>
     </g>
    </g>
    <g id="xtick_7">
     <g id="line2d_25">
      <path d="M 285.767173 141.8095 
L 285.767173 21.2795 
" clip-path="url(#p583c076030)" style="fill: none; stroke-dasharray: 2.96,1.28; stroke-dashoffset: 0; stroke: #b0b0b0; stroke-opacity: 0.5; stroke-width: 0.8"/>
     </g>
     <g id="line2d_26">
      <g>
       <use xlink:href="#m989595adf9" x="285.767173" y="141.8095" style="stroke: #000000; stroke-width: 0.8"/>
      </g>
     </g>
     <g id="text_18">
      <!-- 2005 -->
      <g transform="translate(275.587173 154.88825) scale(0.08 -0.08)">
       <use xlink:href="#DejaVuSerif-32"/>
       <use xlink:href="#DejaVuSerif-30" transform="translate(63.623047 0)"/>
       <use xlink:href="#DejaVuSerif-30" transform="translate(127.246094 0)"/>
       <use xlink:href="#DejaVuSerif-35" transform="translate(190.869141 0)"/>
      </g>
     </g>
    </g>
    <g id="xtick_8">
     <g id="line2d_27">
      <path d="M 333.479938 141.8095 
L 333.479938 21.2795 
" clip-path="url(#p583c076030)" style="fill: none; stroke-dasharray: 2.96,1.28; stroke-dashoffset: 0; stroke: #b0b0b0; stroke-opacity: 0.5; stroke-width: 0.8"/>
     </g>
     <g id="line2d_28">
      <g>
       <use xlink:href="#m989595adf9" x="333.479938" y="141.8095" style="stroke: #000000; stroke-width: 0.8"/>
      </g>
     </g>
     <g id="text_19">
      <!-- 2010 -->
      <g transform="translate(323.299938 154.88825) scale(0.08 -0.08)">
       <use xlink:href="#DejaVuSerif-32"/>
       <use xlink:href="#DejaVuSerif-30" transform="translate(63.623047 0)"/>
       <use xlink:href="#DejaVuSerif-31" transform="translate(127.246094 0)"/>
       <use xlink:href="#DejaVuSerif-30" transform="translate(190.869141 0)"/>
      </g>
     </g>
    </g>
    <g id="xtick_9">
     <g id="line2d_29">
      <path d="M 381.192703 141.8095 
L 381.192703 21.2795 
" clip-path="url(#p583c076030)" style="fill: none; stroke-dasharray: 2.96,1.28; stroke-dashoffset: 0; stroke: #b0b0b0; stroke-opacity: 0.5; stroke-width: 0.8"/>
     </g>
     <g id="line2d_30">
      <g>
       <use xlink:href="#m989595adf9" x="381.192703" y="141.8095" style="stroke: #000000; stroke-width: 0.8"/>
      </g>
     </g>
     <g id="text_20">
      <!-- 2015 -->
      <g transform="translate(371.012703 154.88825) scale(0.08 -0.08)">
       <use xlink:href="#DejaVuSerif-32"/>
       <use xlink:href="#DejaVuSerif-30" transform="translate(63.623047 0)"/>
       <use xlink:href="#DejaVuSerif-31" transform="translate(127.246094 0)"/>
       <use xlink:href="#DejaVuSerif-35" transform="translate(190.869141 0)"/>
      </g>
     </g>
    </g>
    <g id="xtick_10">
     <g id="line2d_31">
      <path d="M 428.905468 141.8095 
L 428.905468 21.2795 
" clip-path="url(#p583c076030)" style="fill: none; stroke-dasharray: 2.96,1.28; stroke-dashoffset: 0; stroke: #b0b0b0; stroke-opacity: 0.5; stroke-width: 0.8"/>
     </g>
     <g id="line2d_32">
      <g>
       <use xlink:href="#m989595adf9" x="428.905468" y="141.8095" style="stroke: #000000; stroke-width: 0.8"/>
      </g>
     </g>
     <g id="text_21">
      <!-- 2020 -->
      <g transform="translate(418.725468 154.88825) scale(0.08 -0.08)">
       <use xlink:href="#DejaVuSerif-32"/>
       <use xlink:href="#DejaVuSerif-30" transform="translate(63.623047 0)"/>
       <use xlink:href="#DejaVuSerif-32" transform="translate(127.246094 0)"/>
       <use xlink:href="#DejaVuSerif-30" transform="translate(190.869141 0)"/>
      </g>
     </g>
    </g>
    <g id="xtick_11">
     <g id="line2d_33">
      <path d="M 476.644363 141.8095 
L 476.644363 21.2795 
" clip-path="url(#p583c076030)" style="fill: none; stroke-dasharray: 2.96,1.28; stroke-dashoffset: 0; stroke: #b0b0b0; stroke-opacity: 0.5; stroke-width: 0.8"/>
     </g>
     <g id="line2d_34">
      <g>
       <use xlink:href="#m989595adf9" x="476.644363" y="141.8095" style="stroke: #000000; stroke-width: 0.8"/>
      </g>
     </g>
     <g id="text_22">
      <!-- 2025 -->
      <g transform="translate(466.464363 154.88825) scale(0.08 -0.08)">
       <use xlink:href="#DejaVuSerif-32"/>
       <use xlink:href="#DejaVuSerif-30" transform="translate(63.623047 0)"/>
       <use xlink:href="#DejaVuSerif-32" transform="translate(127.246094 0)"/>
       <use xlink:href="#DejaVuSerif-35" transform="translate(190.869141 0)"/>
      </g>
     </g>
    </g>
    <g id="text_23">
     <!-- Série histórica -->
     <g transform="translate(330.807445 166.63075) scale(0.08 -0.08)">
      <defs>
       <path id="DejaVuSerif-53" d="M 594 225 
L 594 1288 
L 953 1284 
Q 969 753 1261 498 
Q 1553 244 2150 244 
Q 2706 244 2998 464 
Q 3291 684 3291 1106 
Q 3291 1444 3114 1625 
Q 2938 1806 2369 1978 
L 1753 2163 
Q 1084 2366 811 2669 
Q 538 2972 538 3500 
Q 538 4094 959 4422 
Q 1381 4750 2144 4750 
Q 2469 4750 2856 4679 
Q 3244 4609 3681 4475 
L 3681 3481 
L 3328 3481 
Q 3275 3975 2998 4195 
Q 2722 4416 2156 4416 
Q 1663 4416 1405 4214 
Q 1147 4013 1147 3628 
Q 1147 3294 1340 3103 
Q 1534 2913 2163 2725 
L 2741 2553 
Q 3375 2363 3645 2067 
Q 3916 1772 3916 1275 
Q 3916 597 3481 253 
Q 3047 -91 2188 -91 
Q 1803 -91 1404 -12 
Q 1006 66 594 225 
z
" transform="scale(0.015625)"/>
       <path id="DejaVuSerif-e9" d="M 3469 1600 
L 991 1600 
L 991 1575 
Q 991 903 1244 561 
Q 1497 219 1991 219 
Q 2369 219 2611 417 
Q 2853 616 2950 1006 
L 3413 1006 
Q 3275 459 2904 184 
Q 2534 -91 1931 -91 
Q 1203 -91 761 389 
Q 319 869 319 1663 
Q 319 2450 753 2931 
Q 1188 3413 1894 3413 
Q 2647 3413 3050 2948 
Q 3453 2484 3469 1600 
z
M 2791 1931 
Q 2772 2513 2545 2808 
Q 2319 3103 1894 3103 
Q 1497 3103 1269 2806 
Q 1041 2509 991 1931 
L 2791 1931 
z
M 2330 5119 
L 2952 5119 
L 1890 3944 
L 1524 3944 
L 2330 5119 
z
" transform="scale(0.015625)"/>
       <path id="DejaVuSerif-20" transform="scale(0.015625)"/>
       <path id="DejaVuSerif-68" d="M 263 0 
L 263 331 
L 781 331 
L 781 4531 
L 231 4531 
L 231 4863 
L 1356 4863 
L 1356 2731 
Q 1516 3069 1770 3241 
Q 2025 3413 2363 3413 
Q 2913 3413 3172 3097 
Q 3431 2781 3431 2113 
L 3431 331 
L 3944 331 
L 3944 0 
L 2356 0 
L 2356 331 
L 2853 331 
L 2853 1931 
Q 2853 2541 2704 2764 
Q 2556 2988 2175 2988 
Q 1775 2988 1565 2697 
Q 1356 2406 1356 1850 
L 1356 331 
L 1856 331 
L 1856 0 
L 263 0 
z
" transform="scale(0.015625)"/>
       <path id="DejaVuSerif-f3" d="M 1925 219 
Q 2388 219 2623 584 
Q 2859 950 2859 1663 
Q 2859 2375 2623 2739 
Q 2388 3103 1925 3103 
Q 1463 3103 1227 2739 
Q 991 2375 991 1663 
Q 991 950 1228 584 
Q 1466 219 1925 219 
z
M 1925 -91 
Q 1200 -91 759 389 
Q 319 869 319 1663 
Q 319 2456 758 2934 
Q 1197 3413 1925 3413 
Q 2653 3413 3092 2934 
Q 3531 2456 3531 1663 
Q 3531 869 3092 389 
Q 2653 -91 1925 -91 
z
M 2362 5119 
L 2984 5119 
L 1922 3944 
L 1556 3944 
L 2362 5119 
z
" transform="scale(0.015625)"/>
       <path id="DejaVuSerif-63" d="M 3291 997 
Q 3169 466 2822 187 
Q 2475 -91 1925 -91 
Q 1200 -91 759 389 
Q 319 869 319 1663 
Q 319 2459 759 2936 
Q 1200 3413 1925 3413 
Q 2241 3413 2553 3339 
Q 2866 3266 3181 3116 
L 3181 2266 
L 2847 2266 
Q 2781 2703 2561 2903 
Q 2341 3103 1931 3103 
Q 1466 3103 1228 2742 
Q 991 2381 991 1663 
Q 991 944 1227 581 
Q 1463 219 1931 219 
Q 2303 219 2525 412 
Q 2747 606 2828 997 
L 3291 997 
z
" transform="scale(0.015625)"/>
      </defs>
      <use xlink:href="#DejaVuSerif-53"/>
      <use xlink:href="#DejaVuSerif-e9" transform="translate(68.505859 0)"/>
      <use xlink:href="#DejaVuSerif-72" transform="translate(127.685547 0)"/>
      <use xlink:href="#DejaVuSerif-69" transform="translate(175.488281 0)"/>
      <use xlink:href="#DejaVuSerif-65" transform="translate(207.470703 0)"/>
      <use xlink:href="#DejaVuSerif-20" transform="translate(266.650391 0)"/>
      <use xlink:href="#DejaVuSerif-68" transform="translate(298.4375 0)"/>
      <use xlink:href="#DejaVuSerif-69" transform="translate(362.841797 0)"/>
      <use xlink:href="#DejaVuSerif-73" transform="translate(394.824219 0)"/>
      <use xlink:href="#DejaVuSerif-74" transform="translate(446.142578 0)"/>
      <use xlink:href="#DejaVuSerif-f3" transform="translate(486.328125 0)"/>
      <use xlink:href="#DejaVuSerif-72" transform="translate(546.533203 0)"/>
      <use xlink:href="#DejaVuSerif-69" transform="translate(594.335938 0)"/>
      <use xlink:href="#DejaVuSerif-63" transform="translate(626.318359 0)"/>
      <use xlink:href="#DejaVuSerif-61" transform="translate(682.324219 0)"/>
     </g>
    </g>
   </g>
   <g id="matplotlib.axis_4">
    <g id="ytick_6">
     <g id="line2d_35">
      <path d="M 226.64489 140.719394 
L 494.325 140.719394 
" clip-path="url(#p583c076030)" style="fill: none; stroke-dasharray: 2.96,1.28; stroke-dashoffset: 0; stroke: #b0b0b0; stroke-opacity: 0.5; stroke-width: 0.8"/>
     </g>
     <g id="line2d_36">
      <g>
       <use xlink:href="#m48032aee12" x="226.64489" y="140.719394" style="stroke: #000000; stroke-width: 0.8"/>
      </g>
     </g>
     <g id="text_24">
      <!-- 15 -->
      <g transform="translate(209.46489 143.758769) scale(0.08 -0.08)">
       <use xlink:href="#DejaVuSerif-31"/>
       <use xlink:href="#DejaVuSerif-35" transform="translate(63.623047 0)"/>
      </g>
     </g>
    </g>
    <g id="ytick_7">
     <g id="line2d_37">
      <path d="M 226.64489 114.361857 
L 494.325 114.361857 
" clip-path="url(#p583c076030)" style="fill: none; stroke-dasharray: 2.96,1.28; stroke-dashoffset: 0; stroke: #b0b0b0; stroke-opacity: 0.5; stroke-width: 0.8"/>
     </g>
     <g id="line2d_38">
      <g>
       <use xlink:href="#m48032aee12" x="226.64489" y="114.361857" style="stroke: #000000; stroke-width: 0.8"/>
      </g>
     </g>
     <g id="text_25">
      <!-- 20 -->
      <g transform="translate(209.46489 117.401232) scale(0.08 -0.08)">
       <use xlink:href="#DejaVuSerif-32"/>
       <use xlink:href="#DejaVuSerif-30" transform="translate(63.623047 0)"/>
      </g>
     </g>
    </g>
    <g id="ytick_8">
     <g id="line2d_39">
      <path d="M 226.64489 88.004321 
L 494.325 88.004321 
" clip-path="url(#p583c076030)" style="fill: none; stroke-dasharray: 2.96,1.28; stroke-dashoffset: 0; stroke: #b0b0b0; stroke-opacity: 0.5; stroke-width: 0.8"/>
     </g>
     <g id="line2d_40">
      <g>
       <use xlink:href="#m48032aee12" x="226.64489" y="88.004321" style="stroke: #000000; stroke-width: 0.8"/>
      </g>
     </g>
     <g id="text_26">
      <!-- 25 -->
      <g transform="translate(209.46489 91.043696) scale(0.08 -0.08)">
       <use xlink:href="#DejaVuSerif-32"/>
       <use xlink:href="#DejaVuSerif-35" transform="translate(63.623047 0)"/>
      </g>
     </g>
    </g>
    <g id="ytick_9">
     <g id="line2d_41">
      <path d="M 226.64489 61.646784 
L 494.325 61.646784 
" clip-path="url(#p583c076030)" style="fill: none; stroke-dasharray: 2.96,1.28; stroke-dashoffset: 0; stroke: #b0b0b0; stroke-opacity: 0.5; stroke-width: 0.8"/>
     </g>
     <g id="line2d_42">
      <g>
       <use xlink:href="#m48032aee12" x="226.64489" y="61.646784" style="stroke: #000000; stroke-width: 0.8"/>
      </g>
     </g>
     <g id="text_27">
      <!-- 30 -->
      <g transform="translate(209.46489 64.686159) scale(0.08 -0.08)">
       <use xlink:href="#DejaVuSerif-33"/>
       <use xlink:href="#DejaVuSerif-30" transform="translate(63.623047 0)"/>
      </g>
     </g>
    </g>
    <g id="ytick_10">
     <g id="line2d_43">
      <path d="M 226.64489 35.289247 
L 494.325 35.289247 
" clip-path="url(#p583c076030)" style="fill: none; stroke-dasharray: 2.96,1.28; stroke-dashoffset: 0; stroke: #b0b0b0; stroke-opacity: 0.5; stroke-width: 0.8"/>
     </g>
     <g id="line2d_44">
      <g>
       <use xlink:href="#m48032aee12" x="226.64489" y="35.289247" style="stroke: #000000; stroke-width: 0.8"/>
      </g>
     </g>
     <g id="text_28">
      <!-- 35 -->
      <g transform="translate(209.46489 38.328622) scale(0.08 -0.08)">
       <use xlink:href="#DejaVuSerif-33"/>
       <use xlink:href="#DejaVuSerif-35" transform="translate(63.623047 0)"/>
      </g>
     </g>
    </g>
    <g id="text_29">
     <!-- Geração Hidráulica SE (MWMed) -->
     <g transform="translate(203.80114 149.64825) rotate(-90) scale(0.08 -0.08)">
      <defs>
       <path id="DejaVuSerif-47" d="M 4097 3272 
Q 3988 3856 3641 4136 
Q 3294 4416 2675 4416 
Q 1869 4416 1472 3897 
Q 1075 3378 1075 2328 
Q 1075 1300 1484 772 
Q 1894 244 2688 244 
Q 3041 244 3362 331 
Q 3684 419 3975 594 
L 3975 1797 
L 3097 1797 
L 3097 2131 
L 4609 2131 
L 4609 391 
Q 4194 150 3714 29 
Q 3234 -91 2688 -91 
Q 1631 -91 995 570 
Q 359 1231 359 2328 
Q 359 3434 996 4092 
Q 1634 4750 2713 4750 
Q 3113 4750 3539 4658 
Q 3966 4566 4447 4378 
L 4447 3272 
L 4097 3272 
z
" transform="scale(0.015625)"/>
       <path id="DejaVuSerif-e7" d="M 3291 997 
Q 3169 466 2822 187 
Q 2475 -91 1925 -91 
Q 1200 -91 759 389 
Q 319 869 319 1663 
Q 319 2459 759 2936 
Q 1200 3413 1925 3413 
Q 2241 3413 2553 3339 
Q 2866 3266 3181 3116 
L 3181 2266 
L 2847 2266 
Q 2781 2703 2561 2903 
Q 2341 3103 1931 3103 
Q 1466 3103 1228 2742 
Q 991 2381 991 1663 
Q 991 944 1227 581 
Q 1463 219 1931 219 
Q 2303 219 2525 412 
Q 2747 606 2828 997 
L 3291 997 
z
M 2118 0 
Q 2318 -200 2416 -375 
Q 2515 -550 2515 -703 
Q 2515 -956 2318 -1095 
Q 2121 -1234 1771 -1234 
Q 1640 -1234 1502 -1215 
Q 1365 -1197 1221 -1159 
L 1221 -750 
Q 1350 -803 1473 -829 
Q 1596 -856 1706 -856 
Q 1884 -856 1987 -773 
Q 2090 -691 2090 -550 
Q 2090 -463 2021 -325 
Q 1953 -188 1815 0 
L 2118 0 
z
" transform="scale(0.015625)"/>
       <path id="DejaVuSerif-e3" d="M 2547 1044 
L 2547 1747 
L 1806 1747 
Q 1378 1747 1168 1562 
Q 959 1378 959 997 
Q 959 650 1171 447 
Q 1384 244 1747 244 
Q 2106 244 2326 466 
Q 2547 688 2547 1044 
z
M 3122 2075 
L 3122 331 
L 3634 331 
L 3634 0 
L 2547 0 
L 2547 359 
Q 2356 128 2106 18 
Q 1856 -91 1522 -91 
Q 969 -91 644 203 
Q 319 497 319 997 
Q 319 1513 691 1797 
Q 1063 2081 1741 2081 
L 2547 2081 
L 2547 2309 
Q 2547 2688 2317 2895 
Q 2088 3103 1672 3103 
Q 1328 3103 1125 2947 
Q 922 2791 872 2484 
L 575 2484 
L 575 3156 
Q 875 3284 1158 3348 
Q 1441 3413 1709 3413 
Q 2400 3413 2761 3070 
Q 3122 2728 3122 2075 
z
M 1764 4281 
L 1585 4453 
Q 1504 4528 1452 4551 
Q 1401 4575 1342 4575 
Q 1210 4575 1135 4451 
Q 1060 4328 1045 4091 
L 745 4091 
Q 751 4513 910 4742 
Q 1070 4972 1354 4972 
Q 1473 4972 1573 4928 
Q 1673 4884 1789 4781 
L 1967 4609 
Q 2039 4538 2092 4513 
Q 2145 4488 2210 4488 
Q 2345 4488 2420 4613 
Q 2495 4738 2507 4972 
L 2807 4972 
Q 2801 4550 2641 4320 
Q 2482 4091 2198 4091 
Q 2079 4091 1979 4134 
Q 1879 4178 1764 4281 
z
" transform="scale(0.015625)"/>
       <path id="DejaVuSerif-48" d="M 353 0 
L 353 331 
L 947 331 
L 947 4331 
L 353 4331 
L 353 4666 
L 2175 4666 
L 2175 4331 
L 1581 4331 
L 1581 2719 
L 4000 2719 
L 4000 4331 
L 3406 4331 
L 3406 4666 
L 5228 4666 
L 5228 4331 
L 4634 4331 
L 4634 331 
L 5228 331 
L 5228 0 
L 3406 0 
L 3406 331 
L 4000 331 
L 4000 2338 
L 1581 2338 
L 1581 331 
L 2175 331 
L 2175 0 
L 353 0 
z
" transform="scale(0.015625)"/>
       <path id="DejaVuSerif-e1" d="M 2547 1044 
L 2547 1747 
L 1806 1747 
Q 1378 1747 1168 1562 
Q 959 1378 959 997 
Q 959 650 1171 447 
Q 1384 244 1747 244 
Q 2106 244 2326 466 
Q 2547 688 2547 1044 
z
M 3122 2075 
L 3122 331 
L 3634 331 
L 3634 0 
L 2547 0 
L 2547 359 
Q 2356 128 2106 18 
Q 1856 -91 1522 -91 
Q 969 -91 644 203 
Q 319 497 319 997 
Q 319 1513 691 1797 
Q 1063 2081 1741 2081 
L 2547 2081 
L 2547 2309 
Q 2547 2688 2317 2895 
Q 2088 3103 1672 3103 
Q 1328 3103 1125 2947 
Q 922 2791 872 2484 
L 575 2484 
L 575 3156 
Q 875 3284 1158 3348 
Q 1441 3413 1709 3413 
Q 2400 3413 2761 3070 
Q 3122 2728 3122 2075 
z
M 2210 5119 
L 2832 5119 
L 1770 3944 
L 1404 3944 
L 2210 5119 
z
" transform="scale(0.015625)"/>
       <path id="DejaVuSerif-75" d="M 2266 3322 
L 3341 3322 
L 3341 331 
L 3884 331 
L 3884 0 
L 2766 0 
L 2766 588 
Q 2606 256 2353 82 
Q 2100 -91 1766 -91 
Q 1213 -91 952 223 
Q 691 538 691 1209 
L 691 2988 
L 172 2988 
L 172 3322 
L 1269 3322 
L 1269 1388 
Q 1269 781 1417 556 
Q 1566 331 1947 331 
Q 2347 331 2556 625 
Q 2766 919 2766 1478 
L 2766 2988 
L 2266 2988 
L 2266 3322 
z
" transform="scale(0.015625)"/>
       <path id="DejaVuSerif-45" d="M 353 0 
L 353 331 
L 947 331 
L 947 4331 
L 353 4331 
L 353 4666 
L 4109 4666 
L 4109 3628 
L 3725 3628 
L 3725 4281 
L 1581 4281 
L 1581 2719 
L 3109 2719 
L 3109 3303 
L 3494 3303 
L 3494 1753 
L 3109 1753 
L 3109 2338 
L 1581 2338 
L 1581 384 
L 3775 384 
L 3775 1038 
L 4159 1038 
L 4159 0 
L 353 0 
z
" transform="scale(0.015625)"/>
       <path id="DejaVuSerif-28" d="M 2041 -997 
Q 1281 -656 893 83 
Q 506 822 506 1931 
Q 506 3044 893 3783 
Q 1281 4522 2041 4863 
L 2041 4556 
Q 1559 4225 1350 3623 
Q 1141 3022 1141 1931 
Q 1141 844 1350 242 
Q 1559 -359 2041 -691 
L 2041 -997 
z
" transform="scale(0.015625)"/>
       <path id="DejaVuSerif-4d" d="M 353 0 
L 353 331 
L 947 331 
L 947 4331 
L 319 4331 
L 319 4666 
L 1678 4666 
L 3316 1344 
L 4953 4666 
L 6228 4666 
L 6228 4331 
L 5606 4331 
L 5606 331 
L 6203 331 
L 6203 0 
L 4378 0 
L 4378 331 
L 4972 331 
L 4972 3938 
L 3372 684 
L 2931 684 
L 1331 3938 
L 1331 331 
L 1925 331 
L 1925 0 
L 353 0 
z
" transform="scale(0.015625)"/>
       <path id="DejaVuSerif-57" d="M 4878 0 
L 4366 0 
L 3297 3794 
L 2228 0 
L 1716 0 
L 494 4331 
L 31 4331 
L 31 4666 
L 1734 4666 
L 1734 4331 
L 1153 4331 
L 2125 884 
L 3188 4666 
L 3694 4666 
L 4775 844 
L 5753 4331 
L 5216 4331 
L 5216 4666 
L 6559 4666 
L 6559 4331 
L 6100 4331 
L 4878 0 
z
" transform="scale(0.015625)"/>
       <path id="DejaVuSerif-29" d="M 453 -997 
L 453 -691 
Q 934 -359 1145 242 
Q 1356 844 1356 1931 
Q 1356 3022 1145 3623 
Q 934 4225 453 4556 
L 453 4863 
Q 1216 4522 1603 3783 
Q 1991 3044 1991 1931 
Q 1991 822 1603 83 
Q 1216 -656 453 -997 
z
" transform="scale(0.015625)"/>
      </defs>
      <use xlink:href="#DejaVuSerif-47"/>
      <use xlink:href="#DejaVuSerif-65" transform="translate(79.882812 0)"/>
      <use xlink:href="#DejaVuSerif-72" transform="translate(139.0625 0)"/>
      <use xlink:href="#DejaVuSerif-61" transform="translate(186.865234 0)"/>
      <use xlink:href="#DejaVuSerif-e7" transform="translate(246.484375 0)"/>
      <use xlink:href="#DejaVuSerif-e3" transform="translate(302.490234 0)"/>
      <use xlink:href="#DejaVuSerif-6f" transform="translate(362.109375 0)"/>
      <use xlink:href="#DejaVuSerif-20" transform="translate(422.314453 0)"/>
      <use xlink:href="#DejaVuSerif-48" transform="translate(454.101562 0)"/>
      <use xlink:href="#DejaVuSerif-69" transform="translate(541.308594 0)"/>
      <use xlink:href="#DejaVuSerif-64" transform="translate(573.291016 0)"/>
      <use xlink:href="#DejaVuSerif-72" transform="translate(637.304688 0)"/>
      <use xlink:href="#DejaVuSerif-e1" transform="translate(685.107422 0)"/>
      <use xlink:href="#DejaVuSerif-75" transform="translate(744.726562 0)"/>
      <use xlink:href="#DejaVuSerif-6c" transform="translate(809.130859 0)"/>
      <use xlink:href="#DejaVuSerif-69" transform="translate(841.113281 0)"/>
      <use xlink:href="#DejaVuSerif-63" transform="translate(873.095703 0)"/>
      <use xlink:href="#DejaVuSerif-61" transform="translate(929.101562 0)"/>
      <use xlink:href="#DejaVuSerif-20" transform="translate(988.720703 0)"/>
      <use xlink:href="#DejaVuSerif-53" transform="translate(1020.507812 0)"/>
      <use xlink:href="#DejaVuSerif-45" transform="translate(1089.013672 0)"/>
      <use xlink:href="#DejaVuSerif-20" transform="translate(1162.011719 0)"/>
      <use xlink:href="#DejaVuSerif-28" transform="translate(1193.798828 0)"/>
      <use xlink:href="#DejaVuSerif-4d" transform="translate(1232.8125 0)"/>
      <use xlink:href="#DejaVuSerif-57" transform="translate(1335.205078 0)"/>
      <use xlink:href="#DejaVuSerif-4d" transform="translate(1437.988281 0)"/>
      <use xlink:href="#DejaVuSerif-65" transform="translate(1540.380859 0)"/>
      <use xlink:href="#DejaVuSerif-64" transform="translate(1599.560547 0)"/>
      <use xlink:href="#DejaVuSerif-29" transform="translate(1663.574219 0)"/>
     </g>
    </g>
    <g id="text_30">
     <!-- 1e3 -->
     <g transform="translate(226.64489 18.2795) scale(0.08 -0.08)">
      <use xlink:href="#DejaVuSerif-31"/>
      <use xlink:href="#DejaVuSerif-65" transform="translate(63.623047 0)"/>
      <use xlink:href="#DejaVuSerif-33" transform="translate(122.802734 0)"/>
     </g>
    </g>
   </g>
   <g id="line2d_45">
    <path d="M 238.812168 92.564874 
L 239.569928 84.451195 
L 240.379947 82.901545 
L 241.163837 80.08883 
L 241.973857 80.899687 
L 242.757747 81.181744 
L 243.567766 81.80528 
L 244.377786 84.640984 
L 245.161676 85.826689 
L 245.971695 87.380518 
L 246.755585 92.367311 
L 247.565605 91.802747 
L 248.375624 95.427549 
L 249.107255 90.122621 
L 249.917274 93.87229 
L 250.701164 92.20957 
L 251.511184 107.004438 
L 252.295074 127.163718 
L 253.105093 133.889224 
L 253.915113 136.330864 
L 254.699003 131.799018 
L 255.509022 130.983118 
L 256.292912 126.693759 
L 257.102932 123.35093 
L 257.912951 111.871541 
L 258.644582 106.64718 
L 259.454602 93.478798 
L 260.238491 90.863581 
L 261.048511 98.623414 
L 261.832401 110.009921 
L 262.642421 111.058918 
L 263.45244 101.328829 
L 264.23633 102.71589 
L 265.04635 94.719624 
L 265.830239 99.769882 
L 266.640259 95.903128 
L 267.450279 99.399742 
L 268.181909 82.040881 
L 268.991929 85.979507 
L 269.775819 84.460607 
L 271.369728 93.349849 
L 272.179748 90.015295 
L 272.989767 81.532254 
L 273.773657 75.197304 
L 274.583677 71.576878 
L 275.367567 74.724886 
L 276.177586 80.714512 
L 276.987606 93.988209 
L 277.745366 85.988122 
L 278.555385 73.181922 
L 280.149295 78.376764 
L 280.933185 79.893165 
L 281.743204 87.43541 
L 282.553224 84.786161 
L 283.337114 78.711766 
L 284.147133 85.405995 
L 284.931023 85.667998 
L 286.551062 64.724415 
L 287.282693 64.333968 
L 288.092713 60.324627 
L 288.876603 59.303883 
L 289.686622 76.019352 
L 291.280532 86.969187 
L 292.090551 76.69846 
L 292.874441 87.293897 
L 293.684461 83.844866 
L 294.46835 83.048959 
L 295.27837 65.940481 
L 296.08839 63.779429 
L 296.82002 66.44291 
L 297.63004 61.224161 
L 298.41393 63.819057 
L 299.223949 71.046536 
L 300.007839 65.001013 
L 300.817859 62.373098 
L 301.627878 58.488812 
L 302.411768 62.209389 
L 303.221788 65.510898 
L 304.005678 60.007689 
L 304.815697 61.368765 
L 305.625717 55.420244 
L 306.357347 48.281822 
L 307.167367 50.815808 
L 307.951257 58.367673 
L 308.761276 82.789207 
L 309.545166 81.237244 
L 310.355186 72.355263 
L 311.165205 69.398146 
L 311.949095 63.026073 
L 312.759115 64.576446 
L 313.543005 68.578601 
L 314.353024 60.945494 
L 315.163044 65.274559 
L 315.920804 73.18392 
L 316.730824 55.313454 
L 317.514714 52.633236 
L 318.324733 60.367159 
L 319.108623 59.697816 
L 319.918643 68.737496 
L 320.728662 56.640622 
L 321.512552 65.132068 
L 322.322572 63.50095 
L 323.106461 76.035141 
L 323.916481 78.634546 
L 324.726501 72.595717 
L 325.458131 53.346322 
L 326.268151 49.787047 
L 327.052041 49.356097 
L 327.86206 63.419664 
L 328.64595 67.351639 
L 329.45597 62.580609 
L 330.265989 70.991733 
L 331.049879 67.44403 
L 331.859899 66.608731 
L 332.643789 55.299429 
L 333.453808 58.965086 
L 334.263828 56.350592 
L 334.995458 56.800067 
L 335.805478 57.002143 
L 337.399387 68.532379 
L 338.183277 73.114482 
L 338.993297 65.015951 
L 339.803316 68.424185 
L 340.587206 64.527417 
L 341.397226 62.428389 
L 342.181116 51.10293 
L 342.991135 48.621157 
L 343.801155 50.133501 
L 344.532785 55.836897 
L 345.342805 59.601118 
L 346.126695 57.527159 
L 346.936714 62.416874 
L 347.720604 61.011563 
L 348.530624 61.5236 
L 349.340643 60.483013 
L 350.124533 60.771137 
L 350.934553 60.511065 
L 351.718443 53.273891 
L 352.528462 42.161759 
L 353.338482 38.511555 
L 354.096242 32.988907 
L 354.906262 29.888034 
L 355.690152 38.545271 
L 356.500171 41.84893 
L 357.284061 47.08519 
L 358.094081 46.46578 
L 358.9041 50.23512 
L 359.68799 52.848514 
L 360.49801 50.499554 
L 361.2819 52.934043 
L 362.091919 48.823683 
L 362.901939 66.646869 
L 363.633569 58.195992 
L 364.443589 62.759215 
L 365.227479 70.121842 
L 366.037498 75.750142 
L 366.821388 69.367103 
L 367.631408 67.670922 
L 368.441427 69.041233 
L 369.225317 70.064251 
L 370.819227 61.06311 
L 371.629246 46.108619 
L 372.439266 54.188207 
L 373.170896 53.817347 
L 373.980916 69.612823 
L 374.764806 78.106066 
L 375.574825 95.415791 
L 376.358715 101.67834 
L 378.762644 94.217423 
L 379.572664 84.927764 
L 380.356554 84.968109 
L 381.166573 78.151708 
L 381.976593 76.642982 
L 382.708224 82.455922 
L 383.518243 79.234874 
L 384.302133 91.328008 
L 385.112153 92.765535 
L 385.896043 98.789985 
L 386.706062 98.52649 
L 387.516082 100.228843 
L 388.299972 96.929481 
L 389.109991 77.920293 
L 389.893881 75.569659 
L 390.703901 73.849252 
L 391.51392 60.571092 
L 392.27168 54.446907 
L 393.0817 54.188945 
L 393.86559 59.748116 
L 394.675609 67.813858 
L 395.459499 63.757951 
L 396.269519 68.066126 
L 397.079538 71.07075 
L 397.863428 75.094039 
L 398.673448 69.820406 
L 399.457338 69.960246 
L 400.267357 48.597811 
L 401.809007 29.592858 
L 402.619027 39.561371 
L 403.402917 56.367342 
L 404.996826 77.920181 
L 404.996826 77.920181 
" clip-path="url(#p583c076030)" style="fill: none; stroke: #43aaff; stroke-width: 0.66; stroke-linecap: square"/>
   </g>
   <g id="line2d_46">
    <path d="M 389.109991 75.918534 
L 389.893881 75.569659 
L 390.703901 73.849252 
L 391.51392 60.571092 
L 392.27168 54.446907 
L 393.0817 54.188945 
L 393.86559 59.748116 
L 394.675609 67.813858 
L 395.459499 63.757951 
L 396.269519 68.066126 
L 397.079538 71.07075 
L 397.863428 75.094039 
L 398.673448 69.820406 
L 399.457338 69.960246 
L 400.267357 48.597811 
L 401.077377 38.362328 
L 401.809007 29.592858 
L 402.619027 39.561371 
L 403.402917 56.367342 
L 404.212937 66.620766 
L 404.996826 77.920181 
L 405.806846 85.892203 
L 406.616866 87.819454 
L 407.400755 82.854909 
L 408.210775 74.633028 
L 408.994665 75.679208 
L 409.804684 47.191703 
L 410.614704 39.768938 
L 411.346335 40.210345 
L 412.156354 26.758136 
L 412.940244 52.23556 
L 413.750264 70.215344 
L 414.534154 81.741455 
L 415.344173 81.763707 
L 416.154193 79.293572 
L 416.938083 91.054714 
L 417.748102 67.955743 
L 418.531992 49.96518 
L 419.342012 45.818963 
L 420.152031 39.039903 
L 420.883662 46.645891 
L 421.693681 52.758141 
L 422.477571 53.872241 
L 423.287591 70.186521 
L 424.071481 83.856552 
L 424.8815 91.849662 
L 425.69152 91.622353 
L 426.47541 72.813481 
L 427.285429 63.805215 
L 428.069319 77.32629 
L 428.879339 52.73142 
" clip-path="url(#p583c076030)" style="fill: none; stroke: #43aaff; stroke-width: 0.66; stroke-linecap: square"/>
   </g>
   <g id="line2d_47">
    <path d="M 412.940244 57.531848 
L 413.750264 70.215344 
L 414.534154 81.741455 
L 415.344173 81.763707 
L 416.154193 79.293572 
L 416.938083 91.054714 
L 417.748102 67.955743 
L 418.531992 49.96518 
L 419.342012 45.818963 
L 420.152031 39.039903 
L 420.883662 46.645891 
L 421.693681 52.758141 
L 422.477571 53.872241 
L 423.287591 70.186521 
L 424.071481 83.856552 
L 424.8815 91.849662 
L 425.69152 91.622353 
L 426.47541 72.813481 
L 427.285429 63.805215 
L 428.069319 77.32629 
L 428.879339 52.73142 
L 429.689358 34.696598 
L 430.447119 26.773067 
L 431.257138 38.880204 
L 432.041028 66.070855 
L 432.851048 73.770742 
L 433.634937 82.210533 
L 434.444957 77.719712 
L 435.254977 80.606903 
L 436.038866 70.293266 
L 436.848886 66.748218 
L 437.632776 69.30563 
L 438.442795 68.24785 
L 439.252815 61.750175 
L 439.984446 53.667548 
L 440.794465 64.047442 
L 441.578355 80.346446 
L 442.388375 80.13214 
L 443.172265 90.028019 
L 443.982284 116.931356 
L 444.792304 120.446829 
L 445.576194 112.236971 
L 446.386213 116.649756 
L 447.170103 91.305364 
L 447.980123 77.23642 
L 448.790142 72.0953 
L 449.521773 57.226086 
L 450.331792 40.561894 
L 451.115682 68.183234 
L 451.925702 88.370923 
L 452.709592 95.282067 
L 453.519611 99.28754 
L 454.329631 93.942227 
L 455.113521 90.826178 
L 455.92354 86.91014 
L 456.70743 63.66028 
L 457.51745 55.37477 
L 458.327469 60.451216 
L 459.0591 51.470526 
L 459.869119 37.920275 
L 460.653009 52.831529 
L 461.463029 72.098016 
L 462.246919 78.265406 
L 463.056938 92.568094 
L 463.866958 84.270896 
L 464.650848 76.647253 
L 465.460867 71.663815 
L 466.244757 58.481664 
L 467.054777 54.691455 
L 467.864796 34.614391 
L 468.622557 48.328047 
L 469.432576 45.968345 
L 470.216466 57.3752 
L 471.026486 91.505461 
L 471.810376 99.233125 
L 472.620395 104.198079 
L 473.430415 102.539985 
L 474.214305 90.924552 
L 475.024324 91.187922 
L 475.808214 75.107504 
L 476.618234 59.088788 
" clip-path="url(#p583c076030)" style="fill: none; stroke: #969696; stroke-width: 0.66; stroke-linecap: square"/>
   </g>
   <g id="line2d_48">
    <path d="M 429.689358 45.804424 
L 430.447119 40.868636 
L 431.257138 44.433485 
L 432.041028 55.480391 
L 432.851048 69.077543 
L 433.634937 79.802576 
L 434.444957 85.530295 
L 435.254977 84.361553 
L 436.038866 77.082916 
L 436.848886 68.341491 
L 437.632776 57.390882 
L 438.442795 47.42942 
L 439.252815 41.811331 
L 439.984446 41.0439 
L 440.794465 47.813886 
L 441.578355 58.732358 
L 442.388375 69.905173 
L 443.172265 77.200985 
L 443.982284 81.487879 
L 444.792304 85.226177 
L 445.576194 86.064413 
L 446.386213 84.563323 
L 447.170103 79.673095 
L 447.980123 72.883035 
L 448.790142 66.196724 
L 449.521773 64.882771 
L 450.331792 66.8223 
L 451.115682 70.034058 
L 451.925702 77.782484 
L 452.709592 88.075343 
L 453.519611 96.293651 
L 454.329631 98.822392 
L 455.113521 97.264858 
L 455.92354 90.247448 
L 456.70743 79.409955 
L 457.51745 67.626623 
L 458.327469 57.557309 
L 459.0591 51.553843 
L 459.869119 52.376231 
L 460.653009 58.941942 
L 461.463029 69.949447 
L 462.246919 80.360749 
L 463.056938 87.346976 
L 463.866958 91.132943 
L 464.650848 88.119741 
L 465.460867 78.985796 
L 466.244757 68.271239 
L 467.054777 57.406624 
L 467.864796 47.649333 
L 468.622557 43.553516 
L 469.432576 47.285204 
L 470.216466 56.829372 
L 471.026486 68.756472 
L 471.810376 81.831825 
L 472.620395 89.394159 
L 473.430415 91.206139 
L 474.214305 86.588718 
L 475.024324 77.224342 
L 475.808214 68.287848 
L 476.618234 56.998538 
L 477.428253 48.495452 
L 478.159884 44.220536 
L 478.969903 47.552388 
L 479.753793 58.883021 
L 480.563813 71.199826 
L 481.347703 82.884124 
L 482.157722 91.473835 
" clip-path="url(#p583c076030)" style="fill: none; stroke: #ff5b5b; stroke-width: 0.66; stroke-linecap: square"/>
   </g>
   <g id="patch_6">
    <path d="M 226.64489 141.8095 
L 226.64489 21.2795 
" style="fill: none; stroke: #000000; stroke-width: 0.8; stroke-linejoin: miter; stroke-linecap: square"/>
   </g>
   <g id="patch_7">
    <path d="M 226.64489 141.8095 
L 494.325 141.8095 
" style="fill: none; stroke: #000000; stroke-width: 0.8; stroke-linejoin: miter; stroke-linecap: square"/>
   </g>
   <g id="text_31">
    <g id="patch_8">
     <path d="M 229.898492 44.019156 
L 302.225992 44.019156 
L 302.225992 25.206 
L 229.898492 25.206 
z
" style="fill: #ffffff"/>
    </g>
    <!-- R² = 0.617 -->
    <g transform="translate(231.998492 32.624906) scale(0.07 -0.07)">
     <defs>
      <path id="DejaVuSerif-b2" d="M 531 4050 
L 313 4050 
L 313 4544 
Q 519 4644 737 4697 
Q 956 4750 1172 4750 
Q 1603 4750 1870 4544 
Q 2138 4338 2138 4013 
Q 2138 3631 1531 3088 
L 1472 3034 
L 728 2363 
L 1931 2363 
L 1931 2700 
L 2163 2700 
L 2163 2088 
L 281 2088 
L 281 2322 
L 1172 3116 
Q 1441 3356 1556 3547 
Q 1672 3738 1672 3944 
Q 1672 4209 1520 4364 
Q 1369 4519 1106 4519 
Q 863 4519 716 4400 
Q 569 4281 531 4050 
z
" transform="scale(0.015625)"/>
      <path id="DejaVuSerif-3d" d="M 678 2894 
L 4684 2894 
L 4684 2394 
L 678 2394 
L 678 2894 
z
M 678 1619 
L 4684 1619 
L 4684 1119 
L 678 1119 
L 678 1619 
z
" transform="scale(0.015625)"/>
     </defs>
     <use xlink:href="#DejaVuSerif-52"/>
     <use xlink:href="#DejaVuSerif-b2" transform="translate(75.292969 0)"/>
     <use xlink:href="#DejaVuSerif-20" transform="translate(115.380859 0)"/>
     <use xlink:href="#DejaVuSerif-3d" transform="translate(147.167969 0)"/>
     <use xlink:href="#DejaVuSerif-20" transform="translate(230.957031 0)"/>
     <use xlink:href="#DejaVuSerif-30" transform="translate(262.744141 0)"/>
     <use xlink:href="#DejaVuSerif-2e" transform="translate(326.367188 0)"/>
     <use xlink:href="#DejaVuSerif-36" transform="translate(358.154297 0)"/>
     <use xlink:href="#DejaVuSerif-31" transform="translate(421.777344 0)"/>
     <use xlink:href="#DejaVuSerif-37" transform="translate(485.400391 0)"/>
    </g>
    <!-- RMSE = 2.55E+03 -->
    <g transform="translate(231.998492 40.463375) scale(0.07 -0.07)">
     <defs>
      <path id="DejaVuSerif-2b" d="M 2931 4013 
L 2931 2259 
L 4684 2259 
L 4684 1753 
L 2931 1753 
L 2931 0 
L 2431 0 
L 2431 1753 
L 678 1753 
L 678 2259 
L 2431 2259 
L 2431 4013 
L 2931 4013 
z
" transform="scale(0.015625)"/>
     </defs>
     <use xlink:href="#DejaVuSerif-52"/>
     <use xlink:href="#DejaVuSerif-4d" transform="translate(75.292969 0)"/>
     <use xlink:href="#DejaVuSerif-53" transform="translate(177.685547 0)"/>
     <use xlink:href="#DejaVuSerif-45" transform="translate(246.191406 0)"/>
     <use xlink:href="#DejaVuSerif-20" transform="translate(319.189453 0)"/>
     <use xlink:href="#DejaVuSerif-3d" transform="translate(350.976562 0)"/>
     <use xlink:href="#DejaVuSerif-20" transform="translate(434.765625 0)"/>
     <use xlink:href="#DejaVuSerif-32" transform="translate(466.552734 0)"/>
     <use xlink:href="#DejaVuSerif-2e" transform="translate(530.175781 0)"/>
     <use xlink:href="#DejaVuSerif-35" transform="translate(561.962891 0)"/>
     <use xlink:href="#DejaVuSerif-35" transform="translate(625.585938 0)"/>
     <use xlink:href="#DejaVuSerif-45" transform="translate(689.208984 0)"/>
     <use xlink:href="#DejaVuSerif-2b" transform="translate(762.207031 0)"/>
     <use xlink:href="#DejaVuSerif-30" transform="translate(845.996094 0)"/>
     <use xlink:href="#DejaVuSerif-33" transform="translate(909.619141 0)"/>
    </g>
   </g>
   <g id="legend_2">
    <g id="line2d_49">
     <path d="M 272.05182 13.67875 
L 280.05182 13.67875 
L 288.05182 13.67875 
" style="fill: none; stroke: #43aaff; stroke-width: 0.66; stroke-linecap: square"/>
    </g>
    <g id="text_32">
     <!-- Treino -->
     <g transform="translate(294.45182 16.47875) scale(0.08 -0.08)">
      <defs>
       <path id="DejaVuSerif-54" d="M 1222 0 
L 1222 331 
L 1819 331 
L 1819 4294 
L 447 4294 
L 447 3566 
L 63 3566 
L 63 4666 
L 4206 4666 
L 4206 3566 
L 3822 3566 
L 3822 4294 
L 2450 4294 
L 2450 331 
L 3047 331 
L 3047 0 
L 1222 0 
z
" transform="scale(0.015625)"/>
       <path id="DejaVuSerif-6e" d="M 263 0 
L 263 331 
L 781 331 
L 781 2988 
L 231 2988 
L 231 3322 
L 1356 3322 
L 1356 2731 
Q 1516 3069 1770 3241 
Q 2025 3413 2363 3413 
Q 2913 3413 3172 3097 
Q 3431 2781 3431 2113 
L 3431 331 
L 3944 331 
L 3944 0 
L 2356 0 
L 2356 331 
L 2853 331 
L 2853 1931 
Q 2853 2541 2703 2767 
Q 2553 2994 2175 2994 
Q 1775 2994 1565 2701 
Q 1356 2409 1356 1850 
L 1356 331 
L 1856 331 
L 1856 0 
L 263 0 
z
" transform="scale(0.015625)"/>
      </defs>
      <use xlink:href="#DejaVuSerif-54"/>
      <use xlink:href="#DejaVuSerif-72" transform="translate(66.699219 0)"/>
      <use xlink:href="#DejaVuSerif-65" transform="translate(114.501953 0)"/>
      <use xlink:href="#DejaVuSerif-69" transform="translate(173.681641 0)"/>
      <use xlink:href="#DejaVuSerif-6e" transform="translate(205.664062 0)"/>
      <use xlink:href="#DejaVuSerif-6f" transform="translate(270.068359 0)"/>
     </g>
    </g>
    <g id="line2d_50">
     <path d="M 336.87432 13.67875 
L 344.87432 13.67875 
L 352.87432 13.67875 
" style="fill: none; stroke: #969696; stroke-width: 0.66; stroke-linecap: square"/>
    </g>
    <g id="text_33">
     <!-- Real -->
     <g transform="translate(359.27432 16.47875) scale(0.08 -0.08)">
      <use xlink:href="#DejaVuSerif-52"/>
      <use xlink:href="#DejaVuSerif-65" transform="translate(75.292969 0)"/>
      <use xlink:href="#DejaVuSerif-61" transform="translate(134.472656 0)"/>
      <use xlink:href="#DejaVuSerif-6c" transform="translate(194.091797 0)"/>
     </g>
    </g>
    <g id="line2d_51">
     <path d="M 393.36182 13.67875 
L 401.36182 13.67875 
L 409.36182 13.67875 
" style="fill: none; stroke: #ff5b5b; stroke-width: 0.66; stroke-linecap: square"/>
    </g>
    <g id="text_34">
     <!-- Previsto -->
     <g transform="translate(415.76182 16.47875) scale(0.08 -0.08)">
      <use xlink:href="#DejaVuSerif-50"/>
      <use xlink:href="#DejaVuSerif-72" transform="translate(67.285156 0)"/>
      <use xlink:href="#DejaVuSerif-65" transform="translate(115.087891 0)"/>
      <use xlink:href="#DejaVuSerif-76" transform="translate(174.267578 0)"/>
      <use xlink:href="#DejaVuSerif-69" transform="translate(230.761719 0)"/>
      <use xlink:href="#DejaVuSerif-73" transform="translate(262.744141 0)"/>
      <use xlink:href="#DejaVuSerif-74" transform="translate(314.0625 0)"/>
      <use xlink:href="#DejaVuSerif-6f" transform="translate(354.248047 0)"/>
     </g>
    </g>
   </g>
  </g>
 </g>
 <defs>
  <clipPath id="p0b65b60acb">
   <rect x="48.845" y="21.2795" width="133.840055" height="120.53"/>
  </clipPath>
  <clipPath id="p583c076030">
   <rect x="226.64489" y="21.2795" width="267.68011" height="120.53"/>
  </clipPath>
 </defs>
</svg>
