<?xml version="1.0" encoding="utf-8" standalone="no"?>
<!DOCTYPE svg PUBLIC "-//W3C//DTD SVG 1.1//EN"
  "http://www.w3.org/Graphics/SVG/1.1/DTD/svg11.dtd">
<svg xmlns:xlink="http://www.w3.org/1999/xlink" width="645.525pt" height="212.1128pt" viewBox="0 0 645.525 212.1128" xmlns="http://www.w3.org/2000/svg" version="1.1">
 <metadata>
  <rdf:RDF xmlns:dc="http://purl.org/dc/elements/1.1/" xmlns:cc="http://creativecommons.org/ns#" xmlns:rdf="http://www.w3.org/1999/02/22-rdf-syntax-ns#">
   <cc:Work>
    <dc:type rdf:resource="http://purl.org/dc/dcmitype/StillImage"/>
    <dc:date>2025-06-30T05:35:59.780710</dc:date>
    <dc:format>image/svg+xml</dc:format>
    <dc:creator>
     <cc:Agent>
      <dc:title>Matplotlib v3.10.3, https://matplotlib.org/</dc:title>
     </cc:Agent>
    </dc:creator>
   </cc:Work>
  </rdf:RDF>
 </metadata>
 <defs>
  <style type="text/css">*{stroke-linejoin: round; stroke-linecap: butt}</style>
 </defs>
 <g id="figure_1">
  <g id="patch_1">
   <path d="M 0 212.1128 
L 645.525 212.1128 
L 645.525 0 
L 0 0 
z
" style="fill: #ffffff"/>
  </g>
  <g id="axes_1">
   <g id="patch_2">
    <path d="M 48.845 178.4278 
L 232.907452 178.4278 
L 232.907452 26.0558 
L 48.845 26.0558 
z
" style="fill: #ffffff"/>
   </g>
   <g id="matplotlib.axis_1">
    <g id="xtick_1">
     <g id="line2d_1">
      <path d="M 57.211475 178.4278 
L 57.211475 26.0558 
" clip-path="url(#pe015296468)" style="fill: none; stroke-dasharray: 2.96,1.28; stroke-dashoffset: 0; stroke: #b0b0b0; stroke-opacity: 0.5; stroke-width: 0.8"/>
     </g>
     <g id="line2d_2">
      <defs>
       <path id="mba8787c282" d="M 0 0 
L 0 3.5 
" style="stroke: #000000; stroke-width: 0.8"/>
      </defs>
      <g>
       <use xlink:href="#mba8787c282" x="57.211475" y="178.4278" style="stroke: #000000; stroke-width: 0.8"/>
      </g>
     </g>
     <g id="text_1">
      <!-- 0.122 -->
      <g transform="translate(45.760225 191.50655) scale(0.08 -0.08)">
       <defs>
        <path id="DejaVuSerif-30" d="M 2034 219 
Q 2513 219 2750 744 
Q 2988 1269 2988 2328 
Q 2988 3391 2750 3916 
Q 2513 4441 2034 4441 
Q 1556 4441 1318 3916 
Q 1081 3391 1081 2328 
Q 1081 1269 1318 744 
Q 1556 219 2034 219 
z
M 2034 -91 
Q 1275 -91 848 546 
Q 422 1184 422 2328 
Q 422 3475 848 4112 
Q 1275 4750 2034 4750 
Q 2797 4750 3222 4112 
Q 3647 3475 3647 2328 
Q 3647 1184 3222 546 
Q 2797 -91 2034 -91 
z
" transform="scale(0.015625)"/>
        <path id="DejaVuSerif-2e" d="M 603 325 
Q 603 500 722 622 
Q 841 744 1019 744 
Q 1191 744 1312 622 
Q 1434 500 1434 325 
Q 1434 153 1312 31 
Q 1191 -91 1019 -91 
Q 841 -91 722 29 
Q 603 150 603 325 
z
" transform="scale(0.015625)"/>
        <path id="DejaVuSerif-31" d="M 909 0 
L 909 331 
L 1722 331 
L 1722 4213 
L 781 3603 
L 781 4013 
L 1919 4750 
L 2350 4750 
L 2350 331 
L 3163 331 
L 3163 0 
L 909 0 
z
" transform="scale(0.015625)"/>
        <path id="DejaVuSerif-32" d="M 819 3553 
L 469 3553 
L 469 4384 
Q 803 4563 1142 4656 
Q 1481 4750 1806 4750 
Q 2534 4750 2956 4397 
Q 3378 4044 3378 3438 
Q 3378 2753 2422 1800 
Q 2347 1728 2309 1691 
L 1131 513 
L 3078 513 
L 3078 1088 
L 3444 1088 
L 3444 0 
L 434 0 
L 434 341 
L 1850 1753 
Q 2319 2222 2519 2614 
Q 2719 3006 2719 3438 
Q 2719 3909 2473 4175 
Q 2228 4441 1797 4441 
Q 1350 4441 1106 4219 
Q 863 3997 819 3553 
z
" transform="scale(0.015625)"/>
       </defs>
       <use xlink:href="#DejaVuSerif-30"/>
       <use xlink:href="#DejaVuSerif-2e" transform="translate(63.623047 0)"/>
       <use xlink:href="#DejaVuSerif-31" transform="translate(95.410156 0)"/>
       <use xlink:href="#DejaVuSerif-32" transform="translate(159.033203 0)"/>
       <use xlink:href="#DejaVuSerif-32" transform="translate(222.65625 0)"/>
      </g>
     </g>
    </g>
    <g id="xtick_2">
     <g id="line2d_3">
      <path d="M 99.04385 178.4278 
L 99.04385 26.0558 
" clip-path="url(#pe015296468)" style="fill: none; stroke-dasharray: 2.96,1.28; stroke-dashoffset: 0; stroke: #b0b0b0; stroke-opacity: 0.5; stroke-width: 0.8"/>
     </g>
     <g id="line2d_4">
      <g>
       <use xlink:href="#mba8787c282" x="99.04385" y="178.4278" style="stroke: #000000; stroke-width: 0.8"/>
      </g>
     </g>
     <g id="text_2">
      <!-- 1.246 -->
      <g transform="translate(87.5926 191.50655) scale(0.08 -0.08)">
       <defs>
        <path id="DejaVuSerif-34" d="M 2234 1581 
L 2234 4063 
L 641 1581 
L 2234 1581 
z
M 3609 0 
L 1484 0 
L 1484 331 
L 2234 331 
L 2234 1247 
L 197 1247 
L 197 1588 
L 2241 4750 
L 2859 4750 
L 2859 1581 
L 3750 1581 
L 3750 1247 
L 2859 1247 
L 2859 331 
L 3609 331 
L 3609 0 
z
" transform="scale(0.015625)"/>
        <path id="DejaVuSerif-36" d="M 2094 219 
Q 2534 219 2771 542 
Q 3009 866 3009 1472 
Q 3009 2078 2771 2401 
Q 2534 2725 2094 2725 
Q 1647 2725 1412 2412 
Q 1178 2100 1178 1509 
Q 1178 888 1415 553 
Q 1653 219 2094 219 
z
M 1075 2569 
Q 1288 2803 1556 2918 
Q 1825 3034 2163 3034 
Q 2859 3034 3264 2615 
Q 3669 2197 3669 1472 
Q 3669 763 3233 336 
Q 2797 -91 2069 -91 
Q 1278 -91 853 498 
Q 428 1088 428 2181 
Q 428 3406 931 4078 
Q 1434 4750 2350 4750 
Q 2597 4750 2869 4703 
Q 3141 4656 3425 4563 
L 3425 3794 
L 3072 3794 
Q 3034 4109 2831 4275 
Q 2628 4441 2284 4441 
Q 1678 4441 1381 3981 
Q 1084 3522 1075 2569 
z
" transform="scale(0.015625)"/>
       </defs>
       <use xlink:href="#DejaVuSerif-31"/>
       <use xlink:href="#DejaVuSerif-2e" transform="translate(63.623047 0)"/>
       <use xlink:href="#DejaVuSerif-32" transform="translate(95.410156 0)"/>
       <use xlink:href="#DejaVuSerif-34" transform="translate(159.033203 0)"/>
       <use xlink:href="#DejaVuSerif-36" transform="translate(222.65625 0)"/>
      </g>
     </g>
    </g>
    <g id="xtick_3">
     <g id="line2d_5">
      <path d="M 140.876226 178.4278 
L 140.876226 26.0558 
" clip-path="url(#pe015296468)" style="fill: none; stroke-dasharray: 2.96,1.28; stroke-dashoffset: 0; stroke: #b0b0b0; stroke-opacity: 0.5; stroke-width: 0.8"/>
     </g>
     <g id="line2d_6">
      <g>
       <use xlink:href="#mba8787c282" x="140.876226" y="178.4278" style="stroke: #000000; stroke-width: 0.8"/>
      </g>
     </g>
     <g id="text_3">
      <!-- 2.370 -->
      <g transform="translate(129.424976 191.50655) scale(0.08 -0.08)">
       <defs>
        <path id="DejaVuSerif-33" d="M 622 4469 
Q 988 4606 1323 4678 
Q 1659 4750 1953 4750 
Q 2638 4750 3022 4454 
Q 3406 4159 3406 3634 
Q 3406 3213 3140 2930 
Q 2875 2647 2388 2547 
Q 2963 2466 3280 2130 
Q 3597 1794 3597 1259 
Q 3597 606 3158 257 
Q 2719 -91 1894 -91 
Q 1528 -91 1179 -12 
Q 831 66 488 225 
L 488 1131 
L 838 1131 
Q 869 681 1141 450 
Q 1413 219 1906 219 
Q 2384 219 2661 495 
Q 2938 772 2938 1253 
Q 2938 1803 2653 2086 
Q 2369 2369 1819 2369 
L 1522 2369 
L 1522 2688 
L 1678 2688 
Q 2225 2688 2498 2914 
Q 2772 3141 2772 3597 
Q 2772 4006 2547 4223 
Q 2322 4441 1900 4441 
Q 1478 4441 1245 4241 
Q 1013 4041 972 3647 
L 622 3647 
L 622 4469 
z
" transform="scale(0.015625)"/>
        <path id="DejaVuSerif-37" d="M 3609 4347 
L 1784 0 
L 1319 0 
L 3059 4153 
L 903 4153 
L 903 3578 
L 538 3578 
L 538 4666 
L 3609 4666 
L 3609 4347 
z
" transform="scale(0.015625)"/>
       </defs>
       <use xlink:href="#DejaVuSerif-32"/>
       <use xlink:href="#DejaVuSerif-2e" transform="translate(63.623047 0)"/>
       <use xlink:href="#DejaVuSerif-33" transform="translate(95.410156 0)"/>
       <use xlink:href="#DejaVuSerif-37" transform="translate(159.033203 0)"/>
       <use xlink:href="#DejaVuSerif-30" transform="translate(222.65625 0)"/>
      </g>
     </g>
    </g>
    <g id="xtick_4">
     <g id="line2d_7">
      <path d="M 182.708601 178.4278 
L 182.708601 26.0558 
" clip-path="url(#pe015296468)" style="fill: none; stroke-dasharray: 2.96,1.28; stroke-dashoffset: 0; stroke: #b0b0b0; stroke-opacity: 0.5; stroke-width: 0.8"/>
     </g>
     <g id="line2d_8">
      <g>
       <use xlink:href="#mba8787c282" x="182.708601" y="178.4278" style="stroke: #000000; stroke-width: 0.8"/>
      </g>
     </g>
     <g id="text_4">
      <!-- 3.494 -->
      <g transform="translate(171.257351 191.50655) scale(0.08 -0.08)">
       <defs>
        <path id="DejaVuSerif-39" d="M 2994 2091 
Q 2784 1856 2512 1740 
Q 2241 1625 1900 1625 
Q 1206 1625 804 2044 
Q 403 2463 403 3188 
Q 403 3897 839 4323 
Q 1275 4750 2003 4750 
Q 2794 4750 3217 4161 
Q 3641 3572 3641 2478 
Q 3641 1253 3137 581 
Q 2634 -91 1722 -91 
Q 1475 -91 1203 -44 
Q 931 3 647 97 
L 647 872 
L 997 872 
Q 1038 556 1241 387 
Q 1444 219 1784 219 
Q 2391 219 2687 676 
Q 2984 1134 2994 2091 
z
M 1978 4441 
Q 1534 4441 1298 4117 
Q 1063 3794 1063 3188 
Q 1063 2581 1298 2256 
Q 1534 1931 1978 1931 
Q 2422 1931 2658 2245 
Q 2894 2559 2894 3150 
Q 2894 3772 2656 4106 
Q 2419 4441 1978 4441 
z
" transform="scale(0.015625)"/>
       </defs>
       <use xlink:href="#DejaVuSerif-33"/>
       <use xlink:href="#DejaVuSerif-2e" transform="translate(63.623047 0)"/>
       <use xlink:href="#DejaVuSerif-34" transform="translate(95.410156 0)"/>
       <use xlink:href="#DejaVuSerif-39" transform="translate(159.033203 0)"/>
       <use xlink:href="#DejaVuSerif-34" transform="translate(222.65625 0)"/>
      </g>
     </g>
    </g>
    <g id="xtick_5">
     <g id="line2d_9">
      <path d="M 224.540977 178.4278 
L 224.540977 26.0558 
" clip-path="url(#pe015296468)" style="fill: none; stroke-dasharray: 2.96,1.28; stroke-dashoffset: 0; stroke: #b0b0b0; stroke-opacity: 0.5; stroke-width: 0.8"/>
     </g>
     <g id="line2d_10">
      <g>
       <use xlink:href="#mba8787c282" x="224.540977" y="178.4278" style="stroke: #000000; stroke-width: 0.8"/>
      </g>
     </g>
     <g id="text_5">
      <!-- 4.618 -->
      <g transform="translate(213.089727 191.50655) scale(0.08 -0.08)">
       <defs>
        <path id="DejaVuSerif-38" d="M 2981 1275 
Q 2981 1775 2732 2051 
Q 2484 2328 2034 2328 
Q 1584 2328 1336 2051 
Q 1088 1775 1088 1275 
Q 1088 772 1336 495 
Q 1584 219 2034 219 
Q 2484 219 2732 495 
Q 2981 772 2981 1275 
z
M 2853 3541 
Q 2853 3966 2637 4203 
Q 2422 4441 2034 4441 
Q 1650 4441 1433 4203 
Q 1216 3966 1216 3541 
Q 1216 3113 1433 2875 
Q 1650 2638 2034 2638 
Q 2422 2638 2637 2875 
Q 2853 3113 2853 3541 
z
M 2516 2484 
Q 3047 2413 3344 2092 
Q 3641 1772 3641 1275 
Q 3641 619 3225 264 
Q 2809 -91 2034 -91 
Q 1263 -91 845 264 
Q 428 619 428 1275 
Q 428 1772 725 2092 
Q 1022 2413 1556 2484 
Q 1084 2569 832 2842 
Q 581 3116 581 3541 
Q 581 4103 968 4426 
Q 1356 4750 2034 4750 
Q 2713 4750 3100 4426 
Q 3488 4103 3488 3541 
Q 3488 3116 3236 2842 
Q 2984 2569 2516 2484 
z
" transform="scale(0.015625)"/>
       </defs>
       <use xlink:href="#DejaVuSerif-34"/>
       <use xlink:href="#DejaVuSerif-2e" transform="translate(63.623047 0)"/>
       <use xlink:href="#DejaVuSerif-36" transform="translate(95.410156 0)"/>
       <use xlink:href="#DejaVuSerif-31" transform="translate(159.033203 0)"/>
       <use xlink:href="#DejaVuSerif-38" transform="translate(222.65625 0)"/>
      </g>
     </g>
    </g>
    <g id="text_6">
     <!-- Real -->
     <g transform="translate(131.832476 203.24905) scale(0.08 -0.08)">
      <defs>
       <path id="DejaVuSerif-52" d="M 3066 2316 
Q 3284 2256 3442 2114 
Q 3600 1972 3725 1716 
L 4403 331 
L 4972 331 
L 4972 0 
L 3872 0 
L 3144 1484 
Q 2934 1916 2759 2042 
Q 2584 2169 2278 2169 
L 1581 2169 
L 1581 331 
L 2241 331 
L 2241 0 
L 353 0 
L 353 331 
L 947 331 
L 947 4331 
L 353 4331 
L 353 4666 
L 2719 4666 
Q 3400 4666 3770 4341 
Q 4141 4016 4141 3419 
Q 4141 2938 3870 2661 
Q 3600 2384 3066 2316 
z
M 1581 2503 
L 2503 2503 
Q 2975 2503 3200 2726 
Q 3425 2950 3425 3419 
Q 3425 3888 3200 4109 
Q 2975 4331 2503 4331 
L 1581 4331 
L 1581 2503 
z
" transform="scale(0.015625)"/>
       <path id="DejaVuSerif-65" d="M 3469 1600 
L 991 1600 
L 991 1575 
Q 991 903 1244 561 
Q 1497 219 1991 219 
Q 2369 219 2611 417 
Q 2853 616 2950 1006 
L 3413 1006 
Q 3275 459 2904 184 
Q 2534 -91 1931 -91 
Q 1203 -91 761 389 
Q 319 869 319 1663 
Q 319 2450 753 2931 
Q 1188 3413 1894 3413 
Q 2647 3413 3050 2948 
Q 3453 2484 3469 1600 
z
M 2791 1931 
Q 2772 2513 2545 2808 
Q 2319 3103 1894 3103 
Q 1497 3103 1269 2806 
Q 1041 2509 991 1931 
L 2791 1931 
z
" transform="scale(0.015625)"/>
       <path id="DejaVuSerif-61" d="M 2547 1044 
L 2547 1747 
L 1806 1747 
Q 1378 1747 1168 1562 
Q 959 1378 959 997 
Q 959 650 1171 447 
Q 1384 244 1747 244 
Q 2106 244 2326 466 
Q 2547 688 2547 1044 
z
M 3122 2075 
L 3122 331 
L 3634 331 
L 3634 0 
L 2547 0 
L 2547 359 
Q 2356 128 2106 18 
Q 1856 -91 1522 -91 
Q 969 -91 644 203 
Q 319 497 319 997 
Q 319 1513 691 1797 
Q 1063 2081 1741 2081 
L 2547 2081 
L 2547 2309 
Q 2547 2688 2317 2895 
Q 2088 3103 1672 3103 
Q 1328 3103 1125 2947 
Q 922 2791 872 2484 
L 575 2484 
L 575 3156 
Q 875 3284 1158 3348 
Q 1441 3413 1709 3413 
Q 2400 3413 2761 3070 
Q 3122 2728 3122 2075 
z
" transform="scale(0.015625)"/>
       <path id="DejaVuSerif-6c" d="M 1313 331 
L 1856 331 
L 1856 0 
L 184 0 
L 184 331 
L 738 331 
L 738 4531 
L 184 4531 
L 184 4863 
L 1313 4863 
L 1313 331 
z
" transform="scale(0.015625)"/>
      </defs>
      <use xlink:href="#DejaVuSerif-52"/>
      <use xlink:href="#DejaVuSerif-65" transform="translate(75.292969 0)"/>
      <use xlink:href="#DejaVuSerif-61" transform="translate(134.472656 0)"/>
      <use xlink:href="#DejaVuSerif-6c" transform="translate(194.091797 0)"/>
     </g>
    </g>
    <g id="text_7">
     <!-- 1e3 -->
     <g transform="translate(217.992452 202.24905) scale(0.08 -0.08)">
      <use xlink:href="#DejaVuSerif-31"/>
      <use xlink:href="#DejaVuSerif-65" transform="translate(63.623047 0)"/>
      <use xlink:href="#DejaVuSerif-33" transform="translate(122.802734 0)"/>
     </g>
    </g>
   </g>
   <g id="matplotlib.axis_2">
    <g id="ytick_1">
     <g id="line2d_11">
      <path d="M 48.845 171.5018 
L 232.907452 171.5018 
" clip-path="url(#pe015296468)" style="fill: none; stroke-dasharray: 2.96,1.28; stroke-dashoffset: 0; stroke: #b0b0b0; stroke-opacity: 0.5; stroke-width: 0.8"/>
     </g>
     <g id="line2d_12">
      <defs>
       <path id="m67791ee011" d="M 0 0 
L -3.5 0 
" style="stroke: #000000; stroke-width: 0.8"/>
      </defs>
      <g>
       <use xlink:href="#m67791ee011" x="48.845" y="171.5018" style="stroke: #000000; stroke-width: 0.8"/>
      </g>
     </g>
     <g id="text_8">
      <!-- 0.122 -->
      <g transform="translate(18.9425 174.541175) scale(0.08 -0.08)">
       <use xlink:href="#DejaVuSerif-30"/>
       <use xlink:href="#DejaVuSerif-2e" transform="translate(63.623047 0)"/>
       <use xlink:href="#DejaVuSerif-31" transform="translate(95.410156 0)"/>
       <use xlink:href="#DejaVuSerif-32" transform="translate(159.033203 0)"/>
       <use xlink:href="#DejaVuSerif-32" transform="translate(222.65625 0)"/>
      </g>
     </g>
    </g>
    <g id="ytick_2">
     <g id="line2d_13">
      <path d="M 48.845 136.994839 
L 232.907452 136.994839 
" clip-path="url(#pe015296468)" style="fill: none; stroke-dasharray: 2.96,1.28; stroke-dashoffset: 0; stroke: #b0b0b0; stroke-opacity: 0.5; stroke-width: 0.8"/>
     </g>
     <g id="line2d_14">
      <g>
       <use xlink:href="#m67791ee011" x="48.845" y="136.994839" style="stroke: #000000; stroke-width: 0.8"/>
      </g>
     </g>
     <g id="text_9">
      <!-- 1.246 -->
      <g transform="translate(18.9425 140.034214) scale(0.08 -0.08)">
       <use xlink:href="#DejaVuSerif-31"/>
       <use xlink:href="#DejaVuSerif-2e" transform="translate(63.623047 0)"/>
       <use xlink:href="#DejaVuSerif-32" transform="translate(95.410156 0)"/>
       <use xlink:href="#DejaVuSerif-34" transform="translate(159.033203 0)"/>
       <use xlink:href="#DejaVuSerif-36" transform="translate(222.65625 0)"/>
      </g>
     </g>
    </g>
    <g id="ytick_3">
     <g id="line2d_15">
      <path d="M 48.845 102.487878 
L 232.907452 102.487878 
" clip-path="url(#pe015296468)" style="fill: none; stroke-dasharray: 2.96,1.28; stroke-dashoffset: 0; stroke: #b0b0b0; stroke-opacity: 0.5; stroke-width: 0.8"/>
     </g>
     <g id="line2d_16">
      <g>
       <use xlink:href="#m67791ee011" x="48.845" y="102.487878" style="stroke: #000000; stroke-width: 0.8"/>
      </g>
     </g>
     <g id="text_10">
      <!-- 2.370 -->
      <g transform="translate(18.9425 105.527253) scale(0.08 -0.08)">
       <use xlink:href="#DejaVuSerif-32"/>
       <use xlink:href="#DejaVuSerif-2e" transform="translate(63.623047 0)"/>
       <use xlink:href="#DejaVuSerif-33" transform="translate(95.410156 0)"/>
       <use xlink:href="#DejaVuSerif-37" transform="translate(159.033203 0)"/>
       <use xlink:href="#DejaVuSerif-30" transform="translate(222.65625 0)"/>
      </g>
     </g>
    </g>
    <g id="ytick_4">
     <g id="line2d_17">
      <path d="M 48.845 67.980917 
L 232.907452 67.980917 
" clip-path="url(#pe015296468)" style="fill: none; stroke-dasharray: 2.96,1.28; stroke-dashoffset: 0; stroke: #b0b0b0; stroke-opacity: 0.5; stroke-width: 0.8"/>
     </g>
     <g id="line2d_18">
      <g>
       <use xlink:href="#m67791ee011" x="48.845" y="67.980917" style="stroke: #000000; stroke-width: 0.8"/>
      </g>
     </g>
     <g id="text_11">
      <!-- 3.494 -->
      <g transform="translate(18.9425 71.020292) scale(0.08 -0.08)">
       <use xlink:href="#DejaVuSerif-33"/>
       <use xlink:href="#DejaVuSerif-2e" transform="translate(63.623047 0)"/>
       <use xlink:href="#DejaVuSerif-34" transform="translate(95.410156 0)"/>
       <use xlink:href="#DejaVuSerif-39" transform="translate(159.033203 0)"/>
       <use xlink:href="#DejaVuSerif-34" transform="translate(222.65625 0)"/>
      </g>
     </g>
    </g>
    <g id="ytick_5">
     <g id="line2d_19">
      <path d="M 48.845 33.473957 
L 232.907452 33.473957 
" clip-path="url(#pe015296468)" style="fill: none; stroke-dasharray: 2.96,1.28; stroke-dashoffset: 0; stroke: #b0b0b0; stroke-opacity: 0.5; stroke-width: 0.8"/>
     </g>
     <g id="line2d_20">
      <g>
       <use xlink:href="#m67791ee011" x="48.845" y="33.473957" style="stroke: #000000; stroke-width: 0.8"/>
      </g>
     </g>
     <g id="text_12">
      <!-- 4.618 -->
      <g transform="translate(18.9425 36.513332) scale(0.08 -0.08)">
       <use xlink:href="#DejaVuSerif-34"/>
       <use xlink:href="#DejaVuSerif-2e" transform="translate(63.623047 0)"/>
       <use xlink:href="#DejaVuSerif-36" transform="translate(95.410156 0)"/>
       <use xlink:href="#DejaVuSerif-31" transform="translate(159.033203 0)"/>
       <use xlink:href="#DejaVuSerif-38" transform="translate(222.65625 0)"/>
      </g>
     </g>
    </g>
    <g id="text_13">
     <!-- Previsto -->
     <g transform="translate(13.27875 118.819925) rotate(-90) scale(0.08 -0.08)">
      <defs>
       <path id="DejaVuSerif-50" d="M 1581 2375 
L 2406 2375 
Q 2872 2375 3115 2626 
Q 3359 2878 3359 3353 
Q 3359 3831 3115 4081 
Q 2872 4331 2406 4331 
L 1581 4331 
L 1581 2375 
z
M 353 0 
L 353 331 
L 947 331 
L 947 4331 
L 353 4331 
L 353 4666 
L 2559 4666 
Q 3259 4666 3668 4311 
Q 4078 3956 4078 3353 
Q 4078 2753 3668 2397 
Q 3259 2041 2559 2041 
L 1581 2041 
L 1581 331 
L 2303 331 
L 2303 0 
L 353 0 
z
" transform="scale(0.015625)"/>
       <path id="DejaVuSerif-72" d="M 3059 3328 
L 3059 2497 
L 2728 2497 
Q 2713 2744 2591 2866 
Q 2469 2988 2234 2988 
Q 1809 2988 1582 2694 
Q 1356 2400 1356 1850 
L 1356 331 
L 2022 331 
L 2022 0 
L 263 0 
L 263 331 
L 781 331 
L 781 2994 
L 231 2994 
L 231 3322 
L 1356 3322 
L 1356 2731 
Q 1525 3078 1790 3245 
Q 2056 3413 2438 3413 
Q 2578 3413 2733 3391 
Q 2888 3369 3059 3328 
z
" transform="scale(0.015625)"/>
       <path id="DejaVuSerif-76" d="M 1581 0 
L 359 2988 
L -19 2988 
L -19 3322 
L 1509 3322 
L 1509 2988 
L 978 2988 
L 1913 703 
L 2847 2988 
L 2350 2988 
L 2350 3322 
L 3597 3322 
L 3597 2988 
L 3225 2988 
L 2003 0 
L 1581 0 
z
" transform="scale(0.015625)"/>
       <path id="DejaVuSerif-69" d="M 622 4353 
Q 622 4497 726 4603 
Q 831 4709 978 4709 
Q 1122 4709 1226 4603 
Q 1331 4497 1331 4353 
Q 1331 4206 1228 4103 
Q 1125 4000 978 4000 
Q 831 4000 726 4103 
Q 622 4206 622 4353 
z
M 1356 331 
L 1900 331 
L 1900 0 
L 231 0 
L 231 331 
L 781 331 
L 781 2988 
L 231 2988 
L 231 3322 
L 1356 3322 
L 1356 331 
z
" transform="scale(0.015625)"/>
       <path id="DejaVuSerif-73" d="M 359 184 
L 359 959 
L 691 959 
Q 703 588 923 403 
Q 1144 219 1575 219 
Q 1963 219 2166 364 
Q 2369 509 2369 788 
Q 2369 1006 2220 1140 
Q 2072 1275 1594 1428 
L 1178 1569 
Q 750 1706 558 1912 
Q 366 2119 366 2438 
Q 366 2894 700 3153 
Q 1034 3413 1625 3413 
Q 1888 3413 2178 3344 
Q 2469 3275 2778 3144 
L 2778 2419 
L 2447 2419 
Q 2434 2741 2221 2922 
Q 2009 3103 1644 3103 
Q 1281 3103 1095 2975 
Q 909 2847 909 2591 
Q 909 2381 1050 2254 
Q 1191 2128 1613 1997 
L 2069 1856 
Q 2541 1709 2748 1489 
Q 2956 1269 2956 922 
Q 2956 450 2595 179 
Q 2234 -91 1600 -91 
Q 1278 -91 972 -22 
Q 666 47 359 184 
z
" transform="scale(0.015625)"/>
       <path id="DejaVuSerif-74" d="M 691 2988 
L 184 2988 
L 184 3322 
L 691 3322 
L 691 4353 
L 1269 4353 
L 1269 3322 
L 2350 3322 
L 2350 2988 
L 1269 2988 
L 1269 878 
Q 1269 456 1350 337 
Q 1431 219 1650 219 
Q 1875 219 1978 351 
Q 2081 484 2088 781 
L 2522 781 
Q 2497 328 2275 118 
Q 2053 -91 1600 -91 
Q 1103 -91 897 129 
Q 691 350 691 878 
L 691 2988 
z
" transform="scale(0.015625)"/>
       <path id="DejaVuSerif-6f" d="M 1925 219 
Q 2388 219 2623 584 
Q 2859 950 2859 1663 
Q 2859 2375 2623 2739 
Q 2388 3103 1925 3103 
Q 1463 3103 1227 2739 
Q 991 2375 991 1663 
Q 991 950 1228 584 
Q 1466 219 1925 219 
z
M 1925 -91 
Q 1200 -91 759 389 
Q 319 869 319 1663 
Q 319 2456 758 2934 
Q 1197 3413 1925 3413 
Q 2653 3413 3092 2934 
Q 3531 2456 3531 1663 
Q 3531 869 3092 389 
Q 2653 -91 1925 -91 
z
" transform="scale(0.015625)"/>
      </defs>
      <use xlink:href="#DejaVuSerif-50"/>
      <use xlink:href="#DejaVuSerif-72" transform="translate(67.285156 0)"/>
      <use xlink:href="#DejaVuSerif-65" transform="translate(115.087891 0)"/>
      <use xlink:href="#DejaVuSerif-76" transform="translate(174.267578 0)"/>
      <use xlink:href="#DejaVuSerif-69" transform="translate(230.761719 0)"/>
      <use xlink:href="#DejaVuSerif-73" transform="translate(262.744141 0)"/>
      <use xlink:href="#DejaVuSerif-74" transform="translate(314.0625 0)"/>
      <use xlink:href="#DejaVuSerif-6f" transform="translate(354.248047 0)"/>
     </g>
    </g>
    <g id="text_14">
     <!-- 1e3 -->
     <g transform="translate(48.845 23.0558) scale(0.08 -0.08)">
      <use xlink:href="#DejaVuSerif-31"/>
      <use xlink:href="#DejaVuSerif-65" transform="translate(63.623047 0)"/>
      <use xlink:href="#DejaVuSerif-33" transform="translate(122.802734 0)"/>
     </g>
    </g>
   </g>
   <g id="PathCollection_1">
    <defs>
     <path id="m7b185873ea" d="M 0 0.5 
C 0.132602 0.5 0.25979 0.447317 0.353553 0.353553 
C 0.447317 0.25979 0.5 0.132602 0.5 0 
C 0.5 -0.132602 0.447317 -0.25979 0.353553 -0.353553 
C 0.25979 -0.447317 0.132602 -0.5 0 -0.5 
C -0.132602 -0.5 -0.25979 -0.447317 -0.353553 -0.353553 
C -0.447317 -0.25979 -0.5 -0.132602 -0.5 0 
C -0.5 0.132602 -0.447317 0.25979 -0.353553 0.353553 
C -0.25979 0.447317 -0.132602 0.5 0 0.5 
z
" style="stroke: #ff9046"/>
    </defs>
    <g clip-path="url(#pe015296468)">
     <use xlink:href="#m7b185873ea" x="131.164431" y="117.937803" style="fill: #ff9046; stroke: #ff9046"/>
     <use xlink:href="#m7b185873ea" x="108.209607" y="113.38952" style="fill: #ff9046; stroke: #ff9046"/>
     <use xlink:href="#m7b185873ea" x="94.515254" y="119.833536" style="fill: #ff9046; stroke: #ff9046"/>
     <use xlink:href="#m7b185873ea" x="85.515372" y="127.828393" style="fill: #ff9046; stroke: #ff9046"/>
     <use xlink:href="#m7b185873ea" x="81.713123" y="140.061241" style="fill: #ff9046; stroke: #ff9046"/>
     <use xlink:href="#m7b185873ea" x="66.308465" y="148.260234" style="fill: #ff9046; stroke: #ff9046"/>
     <use xlink:href="#m7b185873ea" x="69.462132" y="149.091474" style="fill: #ff9046; stroke: #ff9046"/>
     <use xlink:href="#m7b185873ea" x="77.069096" y="146.118574" style="fill: #ff9046; stroke: #ff9046"/>
     <use xlink:href="#m7b185873ea" x="77.480504" y="142.750033" style="fill: #ff9046; stroke: #ff9046"/>
     <use xlink:href="#m7b185873ea" x="120.766432" y="140.496581" style="fill: #ff9046; stroke: #ff9046"/>
     <use xlink:href="#m7b185873ea" x="132.070522" y="134.948205" style="fill: #ff9046; stroke: #ff9046"/>
     <use xlink:href="#m7b185873ea" x="132.68651" y="125.99411" style="fill: #ff9046; stroke: #ff9046"/>
     <use xlink:href="#m7b185873ea" x="168.130603" y="117.527999" style="fill: #ff9046; stroke: #ff9046"/>
     <use xlink:href="#m7b185873ea" x="122.56612" y="118.67349" style="fill: #ff9046; stroke: #ff9046"/>
     <use xlink:href="#m7b185873ea" x="63.226949" y="130.27248" style="fill: #ff9046; stroke: #ff9046"/>
     <use xlink:href="#m7b185873ea" x="71.797951" y="141.778895" style="fill: #ff9046; stroke: #ff9046"/>
     <use xlink:href="#m7b185873ea" x="91.101871" y="149.819063" style="fill: #ff9046; stroke: #ff9046"/>
     <use xlink:href="#m7b185873ea" x="168.670528" y="145.498026" style="fill: #ff9046; stroke: #ff9046"/>
     <use xlink:href="#m7b185873ea" x="194.687737" y="122.618734" style="fill: #ff9046; stroke: #ff9046"/>
     <use xlink:href="#m7b185873ea" x="220.765692" y="90.470097" style="fill: #ff9046; stroke: #ff9046"/>
     <use xlink:href="#m7b185873ea" x="224.540977" y="59.344739" style="fill: #ff9046; stroke: #ff9046"/>
     <use xlink:href="#m7b185873ea" x="217.10552" y="38.009614" style="fill: #ff9046; stroke: #ff9046"/>
     <use xlink:href="#m7b185873ea" x="195.424257" y="32.9818" style="fill: #ff9046; stroke: #ff9046"/>
     <use xlink:href="#m7b185873ea" x="136.584354" y="50.927356" style="fill: #ff9046; stroke: #ff9046"/>
     <use xlink:href="#m7b185873ea" x="103.839284" y="78.694452" style="fill: #ff9046; stroke: #ff9046"/>
     <use xlink:href="#m7b185873ea" x="61.986491" y="111.431747" style="fill: #ff9046; stroke: #ff9046"/>
     <use xlink:href="#m7b185873ea" x="65.0076" y="139.133137" style="fill: #ff9046; stroke: #ff9046"/>
     <use xlink:href="#m7b185873ea" x="65.395337" y="146.947301" style="fill: #ff9046; stroke: #ff9046"/>
     <use xlink:href="#m7b185873ea" x="64.524497" y="137.576144" style="fill: #ff9046; stroke: #ff9046"/>
     <use xlink:href="#m7b185873ea" x="65.907292" y="108.601874" style="fill: #ff9046; stroke: #ff9046"/>
     <use xlink:href="#m7b185873ea" x="67.178488" y="88.002223" style="fill: #ff9046; stroke: #ff9046"/>
     <use xlink:href="#m7b185873ea" x="67.421345" y="92.031287" style="fill: #ff9046; stroke: #ff9046"/>
     <use xlink:href="#m7b185873ea" x="67.319508" y="116.693251" style="fill: #ff9046; stroke: #ff9046"/>
     <use xlink:href="#m7b185873ea" x="65.620961" y="140.945582" style="fill: #ff9046; stroke: #ff9046"/>
     <use xlink:href="#m7b185873ea" x="65.337639" y="150.363507" style="fill: #ff9046; stroke: #ff9046"/>
     <use xlink:href="#m7b185873ea" x="66.362636" y="153.696833" style="fill: #ff9046; stroke: #ff9046"/>
     <use xlink:href="#m7b185873ea" x="61.965926" y="154.197155" style="fill: #ff9046; stroke: #ff9046"/>
     <use xlink:href="#m7b185873ea" x="65.799558" y="154.022934" style="fill: #ff9046; stroke: #ff9046"/>
     <use xlink:href="#m7b185873ea" x="61.270119" y="154.539651" style="fill: #ff9046; stroke: #ff9046"/>
     <use xlink:href="#m7b185873ea" x="63.469496" y="154.945392" style="fill: #ff9046; stroke: #ff9046"/>
     <use xlink:href="#m7b185873ea" x="64.516559" y="157.129067" style="fill: #ff9046; stroke: #ff9046"/>
     <use xlink:href="#m7b185873ea" x="62.207223" y="158.756217" style="fill: #ff9046; stroke: #ff9046"/>
     <use xlink:href="#m7b185873ea" x="58.810455" y="162.227649" style="fill: #ff9046; stroke: #ff9046"/>
     <use xlink:href="#m7b185873ea" x="58.669563" y="166.029064" style="fill: #ff9046; stroke: #ff9046"/>
     <use xlink:href="#m7b185873ea" x="58.232778" y="168.330871" style="fill: #ff9046; stroke: #ff9046"/>
     <use xlink:href="#m7b185873ea" x="58.34832" y="169.522404" style="fill: #ff9046; stroke: #ff9046"/>
     <use xlink:href="#m7b185873ea" x="71.853282" y="169.251252" style="fill: #ff9046; stroke: #ff9046"/>
     <use xlink:href="#m7b185873ea" x="76.725511" y="167.213106" style="fill: #ff9046; stroke: #ff9046"/>
     <use xlink:href="#m7b185873ea" x="63.034922" y="165.348947" style="fill: #ff9046; stroke: #ff9046"/>
     <use xlink:href="#m7b185873ea" x="57.211475" y="164.87769" style="fill: #ff9046; stroke: #ff9046"/>
     <use xlink:href="#m7b185873ea" x="58.364689" y="166.392469" style="fill: #ff9046; stroke: #ff9046"/>
     <use xlink:href="#m7b185873ea" x="59.371133" y="168.146259" style="fill: #ff9046; stroke: #ff9046"/>
     <use xlink:href="#m7b185873ea" x="57.662032" y="168.882928" style="fill: #ff9046; stroke: #ff9046"/>
     <use xlink:href="#m7b185873ea" x="58.765083" y="169.670436" style="fill: #ff9046; stroke: #ff9046"/>
     <use xlink:href="#m7b185873ea" x="59.241536" y="170.34484" style="fill: #ff9046; stroke: #ff9046"/>
     <use xlink:href="#m7b185873ea" x="71.130013" y="169.293115" style="fill: #ff9046; stroke: #ff9046"/>
     <use xlink:href="#m7b185873ea" x="87.074654" y="165.800652" style="fill: #ff9046; stroke: #ff9046"/>
     <use xlink:href="#m7b185873ea" x="91.520396" y="157.627702" style="fill: #ff9046; stroke: #ff9046"/>
     <use xlink:href="#m7b185873ea" x="65.648782" y="153.031822" style="fill: #ff9046; stroke: #ff9046"/>
     <use xlink:href="#m7b185873ea" x="66.512576" y="152.710396" style="fill: #ff9046; stroke: #ff9046"/>
    </g>
   </g>
   <g id="line2d_21">
    <path d="M 57.211475 171.5018 
L 224.540977 33.473957 
" clip-path="url(#pe015296468)" style="fill: none; stroke-dasharray: 2.442,1.056; stroke-dashoffset: 0; stroke: #202020; stroke-width: 0.66"/>
   </g>
   <g id="patch_3">
    <path d="M 48.845 178.4278 
L 48.845 26.0558 
" style="fill: none; stroke: #000000; stroke-width: 0.8; stroke-linejoin: miter; stroke-linecap: square"/>
   </g>
   <g id="patch_4">
    <path d="M 48.845 178.4278 
L 232.907452 178.4278 
" style="fill: none; stroke: #000000; stroke-width: 0.8; stroke-linejoin: miter; stroke-linecap: square"/>
   </g>
   <g id="legend_1">
    <g id="PathCollection_2">
     <g>
      <use xlink:href="#m7b185873ea" x="91.725601" y="14.37875" style="fill: #ff9046; stroke: #ff9046"/>
     </g>
    </g>
    <g id="text_15">
     <!-- Previsto -->
     <g transform="translate(106.125601 16.47875) scale(0.08 -0.08)">
      <use xlink:href="#DejaVuSerif-50"/>
      <use xlink:href="#DejaVuSerif-72" transform="translate(67.285156 0)"/>
      <use xlink:href="#DejaVuSerif-65" transform="translate(115.087891 0)"/>
      <use xlink:href="#DejaVuSerif-76" transform="translate(174.267578 0)"/>
      <use xlink:href="#DejaVuSerif-69" transform="translate(230.761719 0)"/>
      <use xlink:href="#DejaVuSerif-73" transform="translate(262.744141 0)"/>
      <use xlink:href="#DejaVuSerif-74" transform="translate(314.0625 0)"/>
      <use xlink:href="#DejaVuSerif-6f" transform="translate(354.248047 0)"/>
     </g>
    </g>
    <g id="line2d_22">
     <path d="M 155.281851 13.67875 
L 163.281851 13.67875 
L 171.281851 13.67875 
" style="fill: none; stroke-dasharray: 2.442,1.056; stroke-dashoffset: 0; stroke: #202020; stroke-width: 0.66"/>
    </g>
    <g id="text_16">
     <!-- Ideal -->
     <g transform="translate(177.681851 16.47875) scale(0.08 -0.08)">
      <defs>
       <path id="DejaVuSerif-49" d="M 1581 331 
L 2175 331 
L 2175 0 
L 353 0 
L 353 331 
L 947 331 
L 947 4331 
L 353 4331 
L 353 4666 
L 2175 4666 
L 2175 4331 
L 1581 4331 
L 1581 331 
z
" transform="scale(0.015625)"/>
       <path id="DejaVuSerif-64" d="M 3359 331 
L 3909 331 
L 3909 0 
L 2784 0 
L 2784 519 
Q 2616 206 2355 57 
Q 2094 -91 1709 -91 
Q 1097 -91 708 395 
Q 319 881 319 1663 
Q 319 2444 706 2928 
Q 1094 3413 1709 3413 
Q 2094 3413 2355 3264 
Q 2616 3116 2784 2803 
L 2784 4531 
L 2241 4531 
L 2241 4863 
L 3359 4863 
L 3359 331 
z
M 2784 1497 
L 2784 1825 
Q 2784 2422 2554 2737 
Q 2325 3053 1888 3053 
Q 1444 3053 1217 2703 
Q 991 2353 991 1663 
Q 991 975 1217 622 
Q 1444 269 1888 269 
Q 2325 269 2554 583 
Q 2784 897 2784 1497 
z
" transform="scale(0.015625)"/>
      </defs>
      <use xlink:href="#DejaVuSerif-49"/>
      <use xlink:href="#DejaVuSerif-64" transform="translate(39.501953 0)"/>
      <use xlink:href="#DejaVuSerif-65" transform="translate(103.515625 0)"/>
      <use xlink:href="#DejaVuSerif-61" transform="translate(162.695312 0)"/>
      <use xlink:href="#DejaVuSerif-6c" transform="translate(222.314453 0)"/>
     </g>
    </g>
   </g>
  </g>
  <g id="axes_2">
   <g id="patch_5">
    <path d="M 270.200096 178.4278 
L 638.325 178.4278 
L 638.325 26.0558 
L 270.200096 26.0558 
z
" style="fill: #ffffff"/>
   </g>
   <g id="matplotlib.axis_3">
    <g id="xtick_6">
     <g id="line2d_23">
      <path d="M 285.844253 178.4278 
L 285.844253 26.0558 
" clip-path="url(#pda91f2c3af)" style="fill: none; stroke-dasharray: 2.96,1.28; stroke-dashoffset: 0; stroke: #b0b0b0; stroke-opacity: 0.5; stroke-width: 0.8"/>
     </g>
     <g id="line2d_24">
      <g>
       <use xlink:href="#mba8787c282" x="285.844253" y="178.4278" style="stroke: #000000; stroke-width: 0.8"/>
      </g>
     </g>
     <g id="text_17">
      <!-- 2000 -->
      <g transform="translate(275.664253 191.50655) scale(0.08 -0.08)">
       <use xlink:href="#DejaVuSerif-32"/>
       <use xlink:href="#DejaVuSerif-30" transform="translate(63.623047 0)"/>
       <use xlink:href="#DejaVuSerif-30" transform="translate(127.246094 0)"/>
       <use xlink:href="#DejaVuSerif-30" transform="translate(190.869141 0)"/>
      </g>
     </g>
    </g>
    <g id="xtick_7">
     <g id="line2d_25">
      <path d="M 352.151811 178.4278 
L 352.151811 26.0558 
" clip-path="url(#pda91f2c3af)" style="fill: none; stroke-dasharray: 2.96,1.28; stroke-dashoffset: 0; stroke: #b0b0b0; stroke-opacity: 0.5; stroke-width: 0.8"/>
     </g>
     <g id="line2d_26">
      <g>
       <use xlink:href="#mba8787c282" x="352.151811" y="178.4278" style="stroke: #000000; stroke-width: 0.8"/>
      </g>
     </g>
     <g id="text_18">
      <!-- 2005 -->
      <g transform="translate(341.971811 191.50655) scale(0.08 -0.08)">
       <defs>
        <path id="DejaVuSerif-35" d="M 3219 4666 
L 3219 4153 
L 1081 4153 
L 1081 2816 
Q 1244 2928 1461 2984 
Q 1678 3041 1947 3041 
Q 2703 3041 3140 2622 
Q 3578 2203 3578 1478 
Q 3578 738 3136 323 
Q 2694 -91 1894 -91 
Q 1572 -91 1234 -12 
Q 897 66 544 225 
L 544 1131 
L 897 1131 
Q 925 688 1179 453 
Q 1434 219 1894 219 
Q 2388 219 2653 544 
Q 2919 869 2919 1478 
Q 2919 2084 2655 2407 
Q 2391 2731 1894 2731 
Q 1613 2731 1398 2631 
Q 1184 2531 1019 2322 
L 750 2322 
L 750 4666 
L 3219 4666 
z
" transform="scale(0.015625)"/>
       </defs>
       <use xlink:href="#DejaVuSerif-32"/>
       <use xlink:href="#DejaVuSerif-30" transform="translate(63.623047 0)"/>
       <use xlink:href="#DejaVuSerif-30" transform="translate(127.246094 0)"/>
       <use xlink:href="#DejaVuSerif-35" transform="translate(190.869141 0)"/>
      </g>
     </g>
    </g>
    <g id="xtick_8">
     <g id="line2d_27">
      <path d="M 418.423077 178.4278 
L 418.423077 26.0558 
" clip-path="url(#pda91f2c3af)" style="fill: none; stroke-dasharray: 2.96,1.28; stroke-dashoffset: 0; stroke: #b0b0b0; stroke-opacity: 0.5; stroke-width: 0.8"/>
     </g>
     <g id="line2d_28">
      <g>
       <use xlink:href="#mba8787c282" x="418.423077" y="178.4278" style="stroke: #000000; stroke-width: 0.8"/>
      </g>
     </g>
     <g id="text_19">
      <!-- 2010 -->
      <g transform="translate(408.243077 191.50655) scale(0.08 -0.08)">
       <use xlink:href="#DejaVuSerif-32"/>
       <use xlink:href="#DejaVuSerif-30" transform="translate(63.623047 0)"/>
       <use xlink:href="#DejaVuSerif-31" transform="translate(127.246094 0)"/>
       <use xlink:href="#DejaVuSerif-30" transform="translate(190.869141 0)"/>
      </g>
     </g>
    </g>
    <g id="xtick_9">
     <g id="line2d_29">
      <path d="M 484.694342 178.4278 
L 484.694342 26.0558 
" clip-path="url(#pda91f2c3af)" style="fill: none; stroke-dasharray: 2.96,1.28; stroke-dashoffset: 0; stroke: #b0b0b0; stroke-opacity: 0.5; stroke-width: 0.8"/>
     </g>
     <g id="line2d_30">
      <g>
       <use xlink:href="#mba8787c282" x="484.694342" y="178.4278" style="stroke: #000000; stroke-width: 0.8"/>
      </g>
     </g>
     <g id="text_20">
      <!-- 2015 -->
      <g transform="translate(474.514342 191.50655) scale(0.08 -0.08)">
       <use xlink:href="#DejaVuSerif-32"/>
       <use xlink:href="#DejaVuSerif-30" transform="translate(63.623047 0)"/>
       <use xlink:href="#DejaVuSerif-31" transform="translate(127.246094 0)"/>
       <use xlink:href="#DejaVuSerif-35" transform="translate(190.869141 0)"/>
      </g>
     </g>
    </g>
    <g id="xtick_10">
     <g id="line2d_31">
      <path d="M 550.965608 178.4278 
L 550.965608 26.0558 
" clip-path="url(#pda91f2c3af)" style="fill: none; stroke-dasharray: 2.96,1.28; stroke-dashoffset: 0; stroke: #b0b0b0; stroke-opacity: 0.5; stroke-width: 0.8"/>
     </g>
     <g id="line2d_32">
      <g>
       <use xlink:href="#mba8787c282" x="550.965608" y="178.4278" style="stroke: #000000; stroke-width: 0.8"/>
      </g>
     </g>
     <g id="text_21">
      <!-- 2020 -->
      <g transform="translate(540.785608 191.50655) scale(0.08 -0.08)">
       <use xlink:href="#DejaVuSerif-32"/>
       <use xlink:href="#DejaVuSerif-30" transform="translate(63.623047 0)"/>
       <use xlink:href="#DejaVuSerif-32" transform="translate(127.246094 0)"/>
       <use xlink:href="#DejaVuSerif-30" transform="translate(190.869141 0)"/>
      </g>
     </g>
    </g>
    <g id="xtick_11">
     <g id="line2d_33">
      <path d="M 617.273167 178.4278 
L 617.273167 26.0558 
" clip-path="url(#pda91f2c3af)" style="fill: none; stroke-dasharray: 2.96,1.28; stroke-dashoffset: 0; stroke: #b0b0b0; stroke-opacity: 0.5; stroke-width: 0.8"/>
     </g>
     <g id="line2d_34">
      <g>
       <use xlink:href="#mba8787c282" x="617.273167" y="178.4278" style="stroke: #000000; stroke-width: 0.8"/>
      </g>
     </g>
     <g id="text_22">
      <!-- 2025 -->
      <g transform="translate(607.093167 191.50655) scale(0.08 -0.08)">
       <use xlink:href="#DejaVuSerif-32"/>
       <use xlink:href="#DejaVuSerif-30" transform="translate(63.623047 0)"/>
       <use xlink:href="#DejaVuSerif-32" transform="translate(127.246094 0)"/>
       <use xlink:href="#DejaVuSerif-35" transform="translate(190.869141 0)"/>
      </g>
     </g>
    </g>
    <g id="text_23">
     <!-- Série histórica -->
     <g transform="translate(424.585048 203.24905) scale(0.08 -0.08)">
      <defs>
       <path id="DejaVuSerif-53" d="M 594 225 
L 594 1288 
L 953 1284 
Q 969 753 1261 498 
Q 1553 244 2150 244 
Q 2706 244 2998 464 
Q 3291 684 3291 1106 
Q 3291 1444 3114 1625 
Q 2938 1806 2369 1978 
L 1753 2163 
Q 1084 2366 811 2669 
Q 538 2972 538 3500 
Q 538 4094 959 4422 
Q 1381 4750 2144 4750 
Q 2469 4750 2856 4679 
Q 3244 4609 3681 4475 
L 3681 3481 
L 3328 3481 
Q 3275 3975 2998 4195 
Q 2722 4416 2156 4416 
Q 1663 4416 1405 4214 
Q 1147 4013 1147 3628 
Q 1147 3294 1340 3103 
Q 1534 2913 2163 2725 
L 2741 2553 
Q 3375 2363 3645 2067 
Q 3916 1772 3916 1275 
Q 3916 597 3481 253 
Q 3047 -91 2188 -91 
Q 1803 -91 1404 -12 
Q 1006 66 594 225 
z
" transform="scale(0.015625)"/>
       <path id="DejaVuSerif-e9" d="M 3469 1600 
L 991 1600 
L 991 1575 
Q 991 903 1244 561 
Q 1497 219 1991 219 
Q 2369 219 2611 417 
Q 2853 616 2950 1006 
L 3413 1006 
Q 3275 459 2904 184 
Q 2534 -91 1931 -91 
Q 1203 -91 761 389 
Q 319 869 319 1663 
Q 319 2450 753 2931 
Q 1188 3413 1894 3413 
Q 2647 3413 3050 2948 
Q 3453 2484 3469 1600 
z
M 2791 1931 
Q 2772 2513 2545 2808 
Q 2319 3103 1894 3103 
Q 1497 3103 1269 2806 
Q 1041 2509 991 1931 
L 2791 1931 
z
M 2330 5119 
L 2952 5119 
L 1890 3944 
L 1524 3944 
L 2330 5119 
z
" transform="scale(0.015625)"/>
       <path id="DejaVuSerif-20" transform="scale(0.015625)"/>
       <path id="DejaVuSerif-68" d="M 263 0 
L 263 331 
L 781 331 
L 781 4531 
L 231 4531 
L 231 4863 
L 1356 4863 
L 1356 2731 
Q 1516 3069 1770 3241 
Q 2025 3413 2363 3413 
Q 2913 3413 3172 3097 
Q 3431 2781 3431 2113 
L 3431 331 
L 3944 331 
L 3944 0 
L 2356 0 
L 2356 331 
L 2853 331 
L 2853 1931 
Q 2853 2541 2704 2764 
Q 2556 2988 2175 2988 
Q 1775 2988 1565 2697 
Q 1356 2406 1356 1850 
L 1356 331 
L 1856 331 
L 1856 0 
L 263 0 
z
" transform="scale(0.015625)"/>
       <path id="DejaVuSerif-f3" d="M 1925 219 
Q 2388 219 2623 584 
Q 2859 950 2859 1663 
Q 2859 2375 2623 2739 
Q 2388 3103 1925 3103 
Q 1463 3103 1227 2739 
Q 991 2375 991 1663 
Q 991 950 1228 584 
Q 1466 219 1925 219 
z
M 1925 -91 
Q 1200 -91 759 389 
Q 319 869 319 1663 
Q 319 2456 758 2934 
Q 1197 3413 1925 3413 
Q 2653 3413 3092 2934 
Q 3531 2456 3531 1663 
Q 3531 869 3092 389 
Q 2653 -91 1925 -91 
z
M 2362 5119 
L 2984 5119 
L 1922 3944 
L 1556 3944 
L 2362 5119 
z
" transform="scale(0.015625)"/>
       <path id="DejaVuSerif-63" d="M 3291 997 
Q 3169 466 2822 187 
Q 2475 -91 1925 -91 
Q 1200 -91 759 389 
Q 319 869 319 1663 
Q 319 2459 759 2936 
Q 1200 3413 1925 3413 
Q 2241 3413 2553 3339 
Q 2866 3266 3181 3116 
L 3181 2266 
L 2847 2266 
Q 2781 2703 2561 2903 
Q 2341 3103 1931 3103 
Q 1466 3103 1228 2742 
Q 991 2381 991 1663 
Q 991 944 1227 581 
Q 1463 219 1931 219 
Q 2303 219 2525 412 
Q 2747 606 2828 997 
L 3291 997 
z
" transform="scale(0.015625)"/>
      </defs>
      <use xlink:href="#DejaVuSerif-53"/>
      <use xlink:href="#DejaVuSerif-e9" transform="translate(68.505859 0)"/>
      <use xlink:href="#DejaVuSerif-72" transform="translate(127.685547 0)"/>
      <use xlink:href="#DejaVuSerif-69" transform="translate(175.488281 0)"/>
      <use xlink:href="#DejaVuSerif-65" transform="translate(207.470703 0)"/>
      <use xlink:href="#DejaVuSerif-20" transform="translate(266.650391 0)"/>
      <use xlink:href="#DejaVuSerif-68" transform="translate(298.4375 0)"/>
      <use xlink:href="#DejaVuSerif-69" transform="translate(362.841797 0)"/>
      <use xlink:href="#DejaVuSerif-73" transform="translate(394.824219 0)"/>
      <use xlink:href="#DejaVuSerif-74" transform="translate(446.142578 0)"/>
      <use xlink:href="#DejaVuSerif-f3" transform="translate(486.328125 0)"/>
      <use xlink:href="#DejaVuSerif-72" transform="translate(546.533203 0)"/>
      <use xlink:href="#DejaVuSerif-69" transform="translate(594.335938 0)"/>
      <use xlink:href="#DejaVuSerif-63" transform="translate(626.318359 0)"/>
      <use xlink:href="#DejaVuSerif-61" transform="translate(682.324219 0)"/>
     </g>
    </g>
   </g>
   <g id="matplotlib.axis_4">
    <g id="ytick_6">
     <g id="line2d_35">
      <path d="M 270.200096 171.5018 
L 638.325 171.5018 
" clip-path="url(#pda91f2c3af)" style="fill: none; stroke-dasharray: 2.96,1.28; stroke-dashoffset: 0; stroke: #b0b0b0; stroke-opacity: 0.5; stroke-width: 0.8"/>
     </g>
     <g id="line2d_36">
      <g>
       <use xlink:href="#m67791ee011" x="270.200096" y="171.5018" style="stroke: #000000; stroke-width: 0.8"/>
      </g>
     </g>
     <g id="text_24">
      <!-- 0 -->
      <g transform="translate(258.110096 174.541175) scale(0.08 -0.08)">
       <use xlink:href="#DejaVuSerif-30"/>
      </g>
     </g>
    </g>
    <g id="ytick_7">
     <g id="line2d_37">
      <path d="M 270.200096 141.606694 
L 638.325 141.606694 
" clip-path="url(#pda91f2c3af)" style="fill: none; stroke-dasharray: 2.96,1.28; stroke-dashoffset: 0; stroke: #b0b0b0; stroke-opacity: 0.5; stroke-width: 0.8"/>
     </g>
     <g id="line2d_38">
      <g>
       <use xlink:href="#m67791ee011" x="270.200096" y="141.606694" style="stroke: #000000; stroke-width: 0.8"/>
      </g>
     </g>
     <g id="text_25">
      <!-- 1 -->
      <g transform="translate(258.110096 144.646069) scale(0.08 -0.08)">
       <use xlink:href="#DejaVuSerif-31"/>
      </g>
     </g>
    </g>
    <g id="ytick_8">
     <g id="line2d_39">
      <path d="M 270.200096 111.711588 
L 638.325 111.711588 
" clip-path="url(#pda91f2c3af)" style="fill: none; stroke-dasharray: 2.96,1.28; stroke-dashoffset: 0; stroke: #b0b0b0; stroke-opacity: 0.5; stroke-width: 0.8"/>
     </g>
     <g id="line2d_40">
      <g>
       <use xlink:href="#m67791ee011" x="270.200096" y="111.711588" style="stroke: #000000; stroke-width: 0.8"/>
      </g>
     </g>
     <g id="text_26">
      <!-- 2 -->
      <g transform="translate(258.110096 114.750963) scale(0.08 -0.08)">
       <use xlink:href="#DejaVuSerif-32"/>
      </g>
     </g>
    </g>
    <g id="ytick_9">
     <g id="line2d_41">
      <path d="M 270.200096 81.816483 
L 638.325 81.816483 
" clip-path="url(#pda91f2c3af)" style="fill: none; stroke-dasharray: 2.96,1.28; stroke-dashoffset: 0; stroke: #b0b0b0; stroke-opacity: 0.5; stroke-width: 0.8"/>
     </g>
     <g id="line2d_42">
      <g>
       <use xlink:href="#m67791ee011" x="270.200096" y="81.816483" style="stroke: #000000; stroke-width: 0.8"/>
      </g>
     </g>
     <g id="text_27">
      <!-- 3 -->
      <g transform="translate(258.110096 84.855858) scale(0.08 -0.08)">
       <use xlink:href="#DejaVuSerif-33"/>
      </g>
     </g>
    </g>
    <g id="ytick_10">
     <g id="line2d_43">
      <path d="M 270.200096 51.921377 
L 638.325 51.921377 
" clip-path="url(#pda91f2c3af)" style="fill: none; stroke-dasharray: 2.96,1.28; stroke-dashoffset: 0; stroke: #b0b0b0; stroke-opacity: 0.5; stroke-width: 0.8"/>
     </g>
     <g id="line2d_44">
      <g>
       <use xlink:href="#m67791ee011" x="270.200096" y="51.921377" style="stroke: #000000; stroke-width: 0.8"/>
      </g>
     </g>
     <g id="text_28">
      <!-- 4 -->
      <g transform="translate(258.110096 54.960752) scale(0.08 -0.08)">
       <use xlink:href="#DejaVuSerif-34"/>
      </g>
     </g>
    </g>
    <g id="text_29">
     <!-- Geração Térmica NE (MWMed) -->
     <g transform="translate(252.446346 166.05555) rotate(-90) scale(0.08 -0.08)">
      <defs>
       <path id="DejaVuSerif-47" d="M 4097 3272 
Q 3988 3856 3641 4136 
Q 3294 4416 2675 4416 
Q 1869 4416 1472 3897 
Q 1075 3378 1075 2328 
Q 1075 1300 1484 772 
Q 1894 244 2688 244 
Q 3041 244 3362 331 
Q 3684 419 3975 594 
L 3975 1797 
L 3097 1797 
L 3097 2131 
L 4609 2131 
L 4609 391 
Q 4194 150 3714 29 
Q 3234 -91 2688 -91 
Q 1631 -91 995 570 
Q 359 1231 359 2328 
Q 359 3434 996 4092 
Q 1634 4750 2713 4750 
Q 3113 4750 3539 4658 
Q 3966 4566 4447 4378 
L 4447 3272 
L 4097 3272 
z
" transform="scale(0.015625)"/>
       <path id="DejaVuSerif-e7" d="M 3291 997 
Q 3169 466 2822 187 
Q 2475 -91 1925 -91 
Q 1200 -91 759 389 
Q 319 869 319 1663 
Q 319 2459 759 2936 
Q 1200 3413 1925 3413 
Q 2241 3413 2553 3339 
Q 2866 3266 3181 3116 
L 3181 2266 
L 2847 2266 
Q 2781 2703 2561 2903 
Q 2341 3103 1931 3103 
Q 1466 3103 1228 2742 
Q 991 2381 991 1663 
Q 991 944 1227 581 
Q 1463 219 1931 219 
Q 2303 219 2525 412 
Q 2747 606 2828 997 
L 3291 997 
z
M 2118 0 
Q 2318 -200 2416 -375 
Q 2515 -550 2515 -703 
Q 2515 -956 2318 -1095 
Q 2121 -1234 1771 -1234 
Q 1640 -1234 1502 -1215 
Q 1365 -1197 1221 -1159 
L 1221 -750 
Q 1350 -803 1473 -829 
Q 1596 -856 1706 -856 
Q 1884 -856 1987 -773 
Q 2090 -691 2090 -550 
Q 2090 -463 2021 -325 
Q 1953 -188 1815 0 
L 2118 0 
z
" transform="scale(0.015625)"/>
       <path id="DejaVuSerif-e3" d="M 2547 1044 
L 2547 1747 
L 1806 1747 
Q 1378 1747 1168 1562 
Q 959 1378 959 997 
Q 959 650 1171 447 
Q 1384 244 1747 244 
Q 2106 244 2326 466 
Q 2547 688 2547 1044 
z
M 3122 2075 
L 3122 331 
L 3634 331 
L 3634 0 
L 2547 0 
L 2547 359 
Q 2356 128 2106 18 
Q 1856 -91 1522 -91 
Q 969 -91 644 203 
Q 319 497 319 997 
Q 319 1513 691 1797 
Q 1063 2081 1741 2081 
L 2547 2081 
L 2547 2309 
Q 2547 2688 2317 2895 
Q 2088 3103 1672 3103 
Q 1328 3103 1125 2947 
Q 922 2791 872 2484 
L 575 2484 
L 575 3156 
Q 875 3284 1158 3348 
Q 1441 3413 1709 3413 
Q 2400 3413 2761 3070 
Q 3122 2728 3122 2075 
z
M 1764 4281 
L 1585 4453 
Q 1504 4528 1452 4551 
Q 1401 4575 1342 4575 
Q 1210 4575 1135 4451 
Q 1060 4328 1045 4091 
L 745 4091 
Q 751 4513 910 4742 
Q 1070 4972 1354 4972 
Q 1473 4972 1573 4928 
Q 1673 4884 1789 4781 
L 1967 4609 
Q 2039 4538 2092 4513 
Q 2145 4488 2210 4488 
Q 2345 4488 2420 4613 
Q 2495 4738 2507 4972 
L 2807 4972 
Q 2801 4550 2641 4320 
Q 2482 4091 2198 4091 
Q 2079 4091 1979 4134 
Q 1879 4178 1764 4281 
z
" transform="scale(0.015625)"/>
       <path id="DejaVuSerif-54" d="M 1222 0 
L 1222 331 
L 1819 331 
L 1819 4294 
L 447 4294 
L 447 3566 
L 63 3566 
L 63 4666 
L 4206 4666 
L 4206 3566 
L 3822 3566 
L 3822 4294 
L 2450 4294 
L 2450 331 
L 3047 331 
L 3047 0 
L 1222 0 
z
" transform="scale(0.015625)"/>
       <path id="DejaVuSerif-6d" d="M 3316 2675 
Q 3481 3041 3739 3227 
Q 3997 3413 4341 3413 
Q 4863 3413 5119 3089 
Q 5375 2766 5375 2113 
L 5375 331 
L 5894 331 
L 5894 0 
L 4300 0 
L 4300 331 
L 4800 331 
L 4800 2047 
Q 4800 2556 4650 2772 
Q 4500 2988 4153 2988 
Q 3769 2988 3567 2697 
Q 3366 2406 3366 1850 
L 3366 331 
L 3866 331 
L 3866 0 
L 2291 0 
L 2291 331 
L 2791 331 
L 2791 2069 
Q 2791 2566 2641 2777 
Q 2491 2988 2144 2988 
Q 1759 2988 1557 2697 
Q 1356 2406 1356 1850 
L 1356 331 
L 1856 331 
L 1856 0 
L 263 0 
L 263 331 
L 781 331 
L 781 2994 
L 231 2994 
L 231 3322 
L 1356 3322 
L 1356 2731 
Q 1516 3063 1762 3238 
Q 2009 3413 2322 3413 
Q 2709 3413 2968 3220 
Q 3228 3028 3316 2675 
z
" transform="scale(0.015625)"/>
       <path id="DejaVuSerif-4e" d="M 313 0 
L 313 331 
L 941 331 
L 941 4331 
L 313 4331 
L 313 4666 
L 1509 4666 
L 4306 984 
L 4306 4331 
L 3681 4331 
L 3681 4666 
L 5319 4666 
L 5319 4331 
L 4691 4331 
L 4691 -91 
L 4313 -91 
L 1325 3841 
L 1325 331 
L 1953 331 
L 1953 0 
L 313 0 
z
" transform="scale(0.015625)"/>
       <path id="DejaVuSerif-45" d="M 353 0 
L 353 331 
L 947 331 
L 947 4331 
L 353 4331 
L 353 4666 
L 4109 4666 
L 4109 3628 
L 3725 3628 
L 3725 4281 
L 1581 4281 
L 1581 2719 
L 3109 2719 
L 3109 3303 
L 3494 3303 
L 3494 1753 
L 3109 1753 
L 3109 2338 
L 1581 2338 
L 1581 384 
L 3775 384 
L 3775 1038 
L 4159 1038 
L 4159 0 
L 353 0 
z
" transform="scale(0.015625)"/>
       <path id="DejaVuSerif-28" d="M 2041 -997 
Q 1281 -656 893 83 
Q 506 822 506 1931 
Q 506 3044 893 3783 
Q 1281 4522 2041 4863 
L 2041 4556 
Q 1559 4225 1350 3623 
Q 1141 3022 1141 1931 
Q 1141 844 1350 242 
Q 1559 -359 2041 -691 
L 2041 -997 
z
" transform="scale(0.015625)"/>
       <path id="DejaVuSerif-4d" d="M 353 0 
L 353 331 
L 947 331 
L 947 4331 
L 319 4331 
L 319 4666 
L 1678 4666 
L 3316 1344 
L 4953 4666 
L 6228 4666 
L 6228 4331 
L 5606 4331 
L 5606 331 
L 6203 331 
L 6203 0 
L 4378 0 
L 4378 331 
L 4972 331 
L 4972 3938 
L 3372 684 
L 2931 684 
L 1331 3938 
L 1331 331 
L 1925 331 
L 1925 0 
L 353 0 
z
" transform="scale(0.015625)"/>
       <path id="DejaVuSerif-57" d="M 4878 0 
L 4366 0 
L 3297 3794 
L 2228 0 
L 1716 0 
L 494 4331 
L 31 4331 
L 31 4666 
L 1734 4666 
L 1734 4331 
L 1153 4331 
L 2125 884 
L 3188 4666 
L 3694 4666 
L 4775 844 
L 5753 4331 
L 5216 4331 
L 5216 4666 
L 6559 4666 
L 6559 4331 
L 6100 4331 
L 4878 0 
z
" transform="scale(0.015625)"/>
       <path id="DejaVuSerif-29" d="M 453 -997 
L 453 -691 
Q 934 -359 1145 242 
Q 1356 844 1356 1931 
Q 1356 3022 1145 3623 
Q 934 4225 453 4556 
L 453 4863 
Q 1216 4522 1603 3783 
Q 1991 3044 1991 1931 
Q 1991 822 1603 83 
Q 1216 -656 453 -997 
z
" transform="scale(0.015625)"/>
      </defs>
      <use xlink:href="#DejaVuSerif-47"/>
      <use xlink:href="#DejaVuSerif-65" transform="translate(79.882812 0)"/>
      <use xlink:href="#DejaVuSerif-72" transform="translate(139.0625 0)"/>
      <use xlink:href="#DejaVuSerif-61" transform="translate(186.865234 0)"/>
      <use xlink:href="#DejaVuSerif-e7" transform="translate(246.484375 0)"/>
      <use xlink:href="#DejaVuSerif-e3" transform="translate(302.490234 0)"/>
      <use xlink:href="#DejaVuSerif-6f" transform="translate(362.109375 0)"/>
      <use xlink:href="#DejaVuSerif-20" transform="translate(422.314453 0)"/>
      <use xlink:href="#DejaVuSerif-54" transform="translate(454.101562 0)"/>
      <use xlink:href="#DejaVuSerif-e9" transform="translate(513.050781 0)"/>
      <use xlink:href="#DejaVuSerif-72" transform="translate(572.230469 0)"/>
      <use xlink:href="#DejaVuSerif-6d" transform="translate(620.033203 0)"/>
      <use xlink:href="#DejaVuSerif-69" transform="translate(714.857422 0)"/>
      <use xlink:href="#DejaVuSerif-63" transform="translate(746.839844 0)"/>
      <use xlink:href="#DejaVuSerif-61" transform="translate(802.845703 0)"/>
      <use xlink:href="#DejaVuSerif-20" transform="translate(862.464844 0)"/>
      <use xlink:href="#DejaVuSerif-4e" transform="translate(894.251953 0)"/>
      <use xlink:href="#DejaVuSerif-45" transform="translate(981.751953 0)"/>
      <use xlink:href="#DejaVuSerif-20" transform="translate(1054.75 0)"/>
      <use xlink:href="#DejaVuSerif-28" transform="translate(1086.537109 0)"/>
      <use xlink:href="#DejaVuSerif-4d" transform="translate(1125.550781 0)"/>
      <use xlink:href="#DejaVuSerif-57" transform="translate(1227.943359 0)"/>
      <use xlink:href="#DejaVuSerif-4d" transform="translate(1330.726562 0)"/>
      <use xlink:href="#DejaVuSerif-65" transform="translate(1433.119141 0)"/>
      <use xlink:href="#DejaVuSerif-64" transform="translate(1492.298828 0)"/>
      <use xlink:href="#DejaVuSerif-29" transform="translate(1556.3125 0)"/>
     </g>
    </g>
    <g id="text_30">
     <!-- 1e3 -->
     <g transform="translate(270.200096 23.0558) scale(0.08 -0.08)">
      <use xlink:href="#DejaVuSerif-31"/>
      <use xlink:href="#DejaVuSerif-65" transform="translate(63.623047 0)"/>
      <use xlink:href="#DejaVuSerif-33" transform="translate(122.802734 0)"/>
     </g>
    </g>
   </g>
   <g id="line2d_45">
    <path d="M 286.933047 170.974597 
L 287.985548 169.95368 
L 289.110635 171.421324 
L 290.199429 171.243535 
L 291.324516 171.5018 
L 301.232542 171.499976 
L 302.357629 170.508459 
L 303.446423 170.183567 
L 304.57151 170.678242 
L 305.660305 170.381182 
L 306.785392 169.911083 
L 307.910479 169.963399 
L 308.999273 169.759801 
L 310.12436 168.747291 
L 312.338241 168.743318 
L 313.463329 170.00093 
L 314.479536 169.618485 
L 315.604624 170.849046 
L 316.693418 170.320654 
L 317.818505 170.985265 
L 318.907299 171.321522 
L 320.032386 171.19751 
L 321.157473 170.572027 
L 322.246268 171.043291 
L 323.371355 170.929317 
L 324.460149 170.451065 
L 325.585236 169.380324 
L 326.710323 169.060942 
L 327.726531 168.000146 
L 328.851618 169.784711 
L 329.940412 168.593885 
L 331.065499 169.595873 
L 332.154294 168.633896 
L 333.279381 167.199467 
L 334.404468 169.190205 
L 335.493262 169.711027 
L 336.618349 167.781526 
L 337.707143 167.703578 
L 338.83223 161.500056 
L 339.957318 148.033468 
L 341.009819 163.697359 
L 342.134906 162.796509 
L 343.2237 161.094647 
L 344.348787 160.671595 
L 345.437581 159.78852 
L 346.562668 162.901254 
L 347.687756 163.694608 
L 348.77655 160.890805 
L 349.901637 159.521273 
L 350.990431 159.988878 
L 352.115518 162.72441 
L 353.240605 159.44793 
L 354.256813 159.903871 
L 355.3819 158.612172 
L 356.470694 163.442322 
L 357.595782 163.220592 
L 358.684576 163.776546 
L 359.809663 164.966821 
L 360.93475 163.093804 
L 362.023544 164.091673 
L 363.148631 163.245681 
L 364.237425 163.48184 
L 365.362513 165.724623 
L 367.503808 166.950093 
L 368.628895 166.770207 
L 369.717689 165.323424 
L 370.842776 165.826192 
L 371.93157 166.481036 
L 373.056657 166.034527 
L 374.181745 169.316705 
L 375.270539 168.593821 
L 376.395626 169.477528 
L 377.48442 171.44606 
L 378.609507 171.444514 
L 380.750802 170.98995 
L 381.875889 171.062791 
L 382.964683 170.776899 
L 385.178565 170.783401 
L 386.303652 168.446322 
L 387.428739 168.017057 
L 388.517533 166.022785 
L 389.64262 166.887575 
L 390.731414 166.402824 
L 391.856502 157.170723 
L 392.981589 138.693363 
L 394.03409 139.016304 
L 395.159177 147.254324 
L 396.247971 159.864282 
L 397.373058 159.310316 
L 398.461852 158.101652 
L 399.586939 165.3591 
L 401.800821 166.656907 
L 402.925908 165.675076 
L 404.014702 164.941337 
L 405.139789 164.57072 
L 406.264876 164.773906 
L 407.281084 169.558212 
L 408.406171 168.941089 
L 409.494965 168.147302 
L 410.620053 170.762279 
L 411.708847 161.304716 
L 412.833934 158.062208 
L 413.959021 164.1026 
L 415.047815 159.27093 
L 416.172902 162.878268 
L 417.261696 167.486909 
L 418.386784 166.850083 
L 419.511871 168.039131 
L 420.528079 166.948905 
L 421.653166 169.362668 
L 422.74196 157.659671 
L 423.867047 154.176958 
L 424.955841 141.806029 
L 426.080928 142.463552 
L 427.206016 138.923233 
L 428.29481 125.265363 
L 429.419897 127.388198 
L 430.508691 126.077256 
L 431.633778 146.193991 
L 432.758865 162.15238 
L 433.775073 165.492079 
L 434.90016 160.076508 
L 435.988954 165.874624 
L 437.114042 146.748893 
L 438.202836 144.700853 
L 439.327923 145.39568 
L 440.45301 154.112743 
L 441.541804 153.577221 
L 442.666891 140.815778 
L 443.755685 140.562691 
L 444.880773 143.51815 
L 446.00586 159.000479 
L 447.058361 151.270076 
L 448.183448 154.735723 
L 449.272242 153.020415 
L 450.397329 140.639066 
L 452.611211 156.838569 
L 453.736298 152.500324 
L 455.950179 111.855505 
L 457.038973 79.345132 
L 458.16406 76.06023 
L 459.289147 69.779909 
L 460.305355 71.770584 
L 461.430442 85.564469 
L 462.519237 106.157468 
L 463.644324 85.036044 
L 464.733118 78.843772 
L 465.858205 115.029775 
L 466.983292 118.014609 
L 468.072086 95.341915 
L 469.197174 94.861946 
L 470.285968 83.407173 
L 471.411055 93.89143 
L 472.536142 66.689524 
L 473.55235 66.36224 
L 474.677437 65.175523 
L 475.766231 67.939486 
L 476.891318 63.59416 
L 477.980112 70.210411 
L 479.1052 64.158424 
L 480.230287 42.633473 
L 481.319081 47.704544 
L 482.444168 43.422575 
L 483.532962 39.990918 
L 484.658049 40.239504 
L 485.783136 45.730988 
L 486.799344 48.189577 
L 487.924431 47.34382 
L 489.013226 72.870749 
L 490.138313 88.111129 
L 491.227107 68.594621 
L 492.352194 86.445175 
L 493.477281 81.990152 
L 494.566075 70.458166 
L 495.691162 71.236361 
L 496.779957 67.922421 
L 497.905044 72.58336 
L 499.030131 75.903425 
L 500.082632 90.869739 
L 501.207719 92.454403 
L 502.296513 83.754087 
L 503.4216 111.681908 
L 504.510394 103.949139 
L 505.635482 115.432832 
L 506.760569 113.407305 
L 507.849363 101.876491 
L 508.97445 91.946233 
L 511.188331 110.163725 
L 512.313419 96.574325 
L 513.329626 98.471624 
L 514.454714 85.472824 
L 515.543508 95.9475 
L 516.668595 96.731832 
L 517.757389 107.04992 
L 518.882476 98.162441 
L 518.882476 98.162441 
" clip-path="url(#pda91f2c3af)" style="fill: none; stroke: #43aaff; stroke-width: 0.66; stroke-linecap: square"/>
   </g>
   <g id="line2d_46">
    <path d="M 500.082632 93.041232 
L 501.207719 92.454403 
L 502.296513 83.754087 
L 503.4216 111.681908 
L 504.510394 103.949139 
L 505.635482 115.432832 
L 506.760569 113.407305 
L 507.849363 101.876491 
L 508.97445 91.946233 
L 510.063244 100.996934 
L 511.188331 110.163725 
L 512.313419 96.574325 
L 513.329626 98.471624 
L 514.454714 85.472824 
L 515.543508 95.9475 
L 516.668595 96.731832 
L 517.757389 107.04992 
L 518.882476 116.651177 
L 520.007563 66.818081 
L 521.096357 76.198388 
L 522.221445 74.718332 
L 523.310239 85.820567 
L 524.435326 97.072175 
L 525.560413 98.441171 
L 526.576621 91.445173 
L 527.701708 89.593286 
L 528.790502 108.344242 
L 529.915589 124.994648 
L 531.004383 114.310223 
L 532.129471 103.58194 
L 533.254558 97.556995 
L 534.343352 100.786362 
L 535.468439 121.687985 
L 536.557233 145.247508 
L 537.68232 139.484898 
L 538.807408 148.957435 
L 539.823615 99.712936 
L 540.948703 104.797252 
L 542.037497 110.290082 
L 543.162584 130.446306 
L 544.251378 152.471361 
L 545.376465 115.696163 
L 546.501552 117.547711 
L 547.590346 111.639784 
L 548.715434 107.270819 
L 549.804228 105.111277 
L 550.929315 108.007077 
L 552.054402 118.202409 
" clip-path="url(#pda91f2c3af)" style="fill: none; stroke: #43aaff; stroke-width: 0.66; stroke-linecap: square"/>
   </g>
   <g id="line2d_47">
    <path d="M 533.254558 99.771804 
L 534.343352 100.786362 
L 535.468439 121.687985 
L 536.557233 145.247508 
L 537.68232 139.484898 
L 538.807408 148.957435 
L 539.823615 99.712936 
L 540.948703 104.797252 
L 542.037497 110.290082 
L 543.162584 130.446306 
L 544.251378 152.471361 
L 545.376465 115.696163 
L 546.501552 117.547711 
L 547.590346 111.639784 
L 548.715434 107.270819 
L 549.804228 105.111277 
L 550.929315 108.007077 
L 552.054402 108.771414 
L 553.106903 126.893382 
L 554.23199 137.892101 
L 555.320784 145.120423 
L 556.445871 148.174226 
L 557.534666 160.54659 
L 558.659753 158.0137 
L 559.78484 151.904111 
L 560.873634 151.573686 
L 561.998721 116.808276 
L 563.087515 107.729313 
L 564.212602 107.234578 
L 565.33769 78.767396 
L 566.353897 115.362844 
L 567.478985 163.021532 
L 568.567779 156.137669 
L 569.692866 140.633585 
L 570.78166 78.333751 
L 571.906747 57.437839 
L 573.031834 36.493139 
L 574.120628 33.460992 
L 575.245716 39.432834 
L 576.33451 56.846298 
L 577.459597 104.103996 
L 578.584684 130.403438 
L 579.600892 164.017815 
L 580.725979 161.59139 
L 581.814773 161.279975 
L 582.93986 161.979397 
L 584.028655 160.868795 
L 585.153742 159.847825 
L 586.278829 159.652772 
L 587.367623 159.734564 
L 588.49271 161.098764 
L 589.581504 161.326316 
L 590.706591 160.503082 
L 591.831679 164.034332 
L 592.847886 160.955322 
L 593.972974 164.593175 
L 595.061768 162.826729 
L 596.186855 161.985773 
L 597.275649 163.840533 
L 598.400736 166.568671 
L 599.525823 166.68183 
L 600.614617 167.032637 
L 601.739705 166.939838 
L 602.828499 156.09323 
L 603.953586 152.180064 
L 605.078673 163.17576 
L 606.131174 167.852904 
L 607.256261 166.926692 
L 608.345055 166.118359 
L 609.470143 167.491036 
L 610.558937 166.605112 
L 611.684024 166.222446 
L 612.809111 156.674129 
L 613.897905 143.868074 
L 615.022992 140.297444 
L 616.111786 161.07642 
L 617.236874 160.382657 
" clip-path="url(#pda91f2c3af)" style="fill: none; stroke: #969696; stroke-width: 0.66; stroke-linecap: square"/>
   </g>
   <g id="line2d_48">
    <path d="M 552.054402 115.699891 
L 553.106903 111.271418 
L 554.23199 117.545687 
L 555.320784 125.329943 
L 556.445871 137.240553 
L 557.534666 145.223568 
L 558.659753 146.032911 
L 559.78484 143.138324 
L 560.873634 139.858517 
L 561.998721 137.664425 
L 563.087515 132.262205 
L 564.212602 123.543978 
L 565.33769 115.300882 
L 566.353897 116.416198 
L 567.478985 127.709648 
L 568.567779 138.91296 
L 569.692866 146.741334 
L 570.78166 142.534122 
L 571.906747 120.257517 
L 573.031834 88.955739 
L 574.120628 58.650286 
L 575.245716 37.877171 
L 576.33451 32.9818 
L 577.459597 50.454634 
L 578.584684 77.490289 
L 579.600892 109.365217 
L 580.725979 136.336897 
L 581.814773 143.94522 
L 582.93986 134.820918 
L 584.028655 106.609889 
L 585.153742 86.552874 
L 586.278829 90.475804 
L 587.367623 114.488122 
L 588.49271 138.101598 
L 589.581504 147.271437 
L 590.706591 150.516956 
L 591.831679 151.004098 
L 592.847886 150.834466 
L 593.972974 151.337573 
L 595.061768 151.732625 
L 596.186855 153.858778 
L 597.275649 155.443065 
L 598.400736 158.823053 
L 599.525823 162.524331 
L 600.614617 164.765504 
L 601.739705 165.925649 
L 602.828499 165.66164 
L 603.953586 163.677183 
L 605.078673 161.862129 
L 606.131174 161.403287 
L 607.256261 162.878163 
L 608.345055 164.585755 
L 609.470143 165.303018 
L 610.558937 166.069782 
L 611.684024 166.726421 
L 612.809111 165.702401 
L 613.897905 162.301936 
L 615.022992 154.344277 
L 616.111786 149.869462 
L 617.236874 149.556503 
L 618.361961 154.69305 
L 619.378169 158.38525 
L 620.503256 159.016838 
L 621.59205 160.149958 
" clip-path="url(#pda91f2c3af)" style="fill: none; stroke: #ff9046; stroke-width: 0.66; stroke-linecap: square"/>
   </g>
   <g id="patch_6">
    <path d="M 270.200096 178.4278 
L 270.200096 26.0558 
" style="fill: none; stroke: #000000; stroke-width: 0.8; stroke-linejoin: miter; stroke-linecap: square"/>
   </g>
   <g id="patch_7">
    <path d="M 270.200096 178.4278 
L 638.325 178.4278 
" style="fill: none; stroke: #000000; stroke-width: 0.8; stroke-linejoin: miter; stroke-linecap: square"/>
   </g>
   <g id="text_31">
    <g id="patch_8">
     <path d="M 275.462594 50.387556 
L 347.790094 50.387556 
L 347.790094 31.5744 
L 275.462594 31.5744 
z
" style="fill: #ffffff"/>
    </g>
    <!-- R² = 0.410 -->
    <g transform="translate(277.562594 38.993306) scale(0.07 -0.07)">
     <defs>
      <path id="DejaVuSerif-b2" d="M 531 4050 
L 313 4050 
L 313 4544 
Q 519 4644 737 4697 
Q 956 4750 1172 4750 
Q 1603 4750 1870 4544 
Q 2138 4338 2138 4013 
Q 2138 3631 1531 3088 
L 1472 3034 
L 728 2363 
L 1931 2363 
L 1931 2700 
L 2163 2700 
L 2163 2088 
L 281 2088 
L 281 2322 
L 1172 3116 
Q 1441 3356 1556 3547 
Q 1672 3738 1672 3944 
Q 1672 4209 1520 4364 
Q 1369 4519 1106 4519 
Q 863 4519 716 4400 
Q 569 4281 531 4050 
z
" transform="scale(0.015625)"/>
      <path id="DejaVuSerif-3d" d="M 678 2894 
L 4684 2894 
L 4684 2394 
L 678 2394 
L 678 2894 
z
M 678 1619 
L 4684 1619 
L 4684 1119 
L 678 1119 
L 678 1619 
z
" transform="scale(0.015625)"/>
     </defs>
     <use xlink:href="#DejaVuSerif-52"/>
     <use xlink:href="#DejaVuSerif-b2" transform="translate(75.292969 0)"/>
     <use xlink:href="#DejaVuSerif-20" transform="translate(115.380859 0)"/>
     <use xlink:href="#DejaVuSerif-3d" transform="translate(147.167969 0)"/>
     <use xlink:href="#DejaVuSerif-20" transform="translate(230.957031 0)"/>
     <use xlink:href="#DejaVuSerif-30" transform="translate(262.744141 0)"/>
     <use xlink:href="#DejaVuSerif-2e" transform="translate(326.367188 0)"/>
     <use xlink:href="#DejaVuSerif-34" transform="translate(358.154297 0)"/>
     <use xlink:href="#DejaVuSerif-31" transform="translate(421.777344 0)"/>
     <use xlink:href="#DejaVuSerif-30" transform="translate(485.400391 0)"/>
    </g>
    <!-- RMSE = 9.29E+02 -->
    <g transform="translate(277.562594 46.831775) scale(0.07 -0.07)">
     <defs>
      <path id="DejaVuSerif-2b" d="M 2931 4013 
L 2931 2259 
L 4684 2259 
L 4684 1753 
L 2931 1753 
L 2931 0 
L 2431 0 
L 2431 1753 
L 678 1753 
L 678 2259 
L 2431 2259 
L 2431 4013 
L 2931 4013 
z
" transform="scale(0.015625)"/>
     </defs>
     <use xlink:href="#DejaVuSerif-52"/>
     <use xlink:href="#DejaVuSerif-4d" transform="translate(75.292969 0)"/>
     <use xlink:href="#DejaVuSerif-53" transform="translate(177.685547 0)"/>
     <use xlink:href="#DejaVuSerif-45" transform="translate(246.191406 0)"/>
     <use xlink:href="#DejaVuSerif-20" transform="translate(319.189453 0)"/>
     <use xlink:href="#DejaVuSerif-3d" transform="translate(350.976562 0)"/>
     <use xlink:href="#DejaVuSerif-20" transform="translate(434.765625 0)"/>
     <use xlink:href="#DejaVuSerif-39" transform="translate(466.552734 0)"/>
     <use xlink:href="#DejaVuSerif-2e" transform="translate(530.175781 0)"/>
     <use xlink:href="#DejaVuSerif-32" transform="translate(561.962891 0)"/>
     <use xlink:href="#DejaVuSerif-39" transform="translate(625.585938 0)"/>
     <use xlink:href="#DejaVuSerif-45" transform="translate(689.208984 0)"/>
     <use xlink:href="#DejaVuSerif-2b" transform="translate(762.207031 0)"/>
     <use xlink:href="#DejaVuSerif-30" transform="translate(845.996094 0)"/>
     <use xlink:href="#DejaVuSerif-32" transform="translate(909.619141 0)"/>
    </g>
   </g>
   <g id="legend_2">
    <g id="line2d_49">
     <path d="M 365.829423 13.67875 
L 373.829423 13.67875 
L 381.829423 13.67875 
" style="fill: none; stroke: #43aaff; stroke-width: 0.66; stroke-linecap: square"/>
    </g>
    <g id="text_32">
     <!-- Treino -->
     <g transform="translate(388.229423 16.47875) scale(0.08 -0.08)">
      <defs>
       <path id="DejaVuSerif-6e" d="M 263 0 
L 263 331 
L 781 331 
L 781 2988 
L 231 2988 
L 231 3322 
L 1356 3322 
L 1356 2731 
Q 1516 3069 1770 3241 
Q 2025 3413 2363 3413 
Q 2913 3413 3172 3097 
Q 3431 2781 3431 2113 
L 3431 331 
L 3944 331 
L 3944 0 
L 2356 0 
L 2356 331 
L 2853 331 
L 2853 1931 
Q 2853 2541 2703 2767 
Q 2553 2994 2175 2994 
Q 1775 2994 1565 2701 
Q 1356 2409 1356 1850 
L 1356 331 
L 1856 331 
L 1856 0 
L 263 0 
z
" transform="scale(0.015625)"/>
      </defs>
      <use xlink:href="#DejaVuSerif-54"/>
      <use xlink:href="#DejaVuSerif-72" transform="translate(66.699219 0)"/>
      <use xlink:href="#DejaVuSerif-65" transform="translate(114.501953 0)"/>
      <use xlink:href="#DejaVuSerif-69" transform="translate(173.681641 0)"/>
      <use xlink:href="#DejaVuSerif-6e" transform="translate(205.664062 0)"/>
      <use xlink:href="#DejaVuSerif-6f" transform="translate(270.068359 0)"/>
     </g>
    </g>
    <g id="line2d_50">
     <path d="M 430.651923 13.67875 
L 438.651923 13.67875 
L 446.651923 13.67875 
" style="fill: none; stroke: #969696; stroke-width: 0.66; stroke-linecap: square"/>
    </g>
    <g id="text_33">
     <!-- Real -->
     <g transform="translate(453.051923 16.47875) scale(0.08 -0.08)">
      <use xlink:href="#DejaVuSerif-52"/>
      <use xlink:href="#DejaVuSerif-65" transform="translate(75.292969 0)"/>
      <use xlink:href="#DejaVuSerif-61" transform="translate(134.472656 0)"/>
      <use xlink:href="#DejaVuSerif-6c" transform="translate(194.091797 0)"/>
     </g>
    </g>
    <g id="line2d_51">
     <path d="M 487.139423 13.67875 
L 495.139423 13.67875 
L 503.139423 13.67875 
" style="fill: none; stroke: #ff9046; stroke-width: 0.66; stroke-linecap: square"/>
    </g>
    <g id="text_34">
     <!-- Previsto -->
     <g transform="translate(509.539423 16.47875) scale(0.08 -0.08)">
      <use xlink:href="#DejaVuSerif-50"/>
      <use xlink:href="#DejaVuSerif-72" transform="translate(67.285156 0)"/>
      <use xlink:href="#DejaVuSerif-65" transform="translate(115.087891 0)"/>
      <use xlink:href="#DejaVuSerif-76" transform="translate(174.267578 0)"/>
      <use xlink:href="#DejaVuSerif-69" transform="translate(230.761719 0)"/>
      <use xlink:href="#DejaVuSerif-73" transform="translate(262.744141 0)"/>
      <use xlink:href="#DejaVuSerif-74" transform="translate(314.0625 0)"/>
      <use xlink:href="#DejaVuSerif-6f" transform="translate(354.248047 0)"/>
     </g>
    </g>
   </g>
  </g>
 </g>
 <defs>
  <clipPath id="pe015296468">
   <rect x="48.845" y="26.0558" width="184.062452" height="152.372"/>
  </clipPath>
  <clipPath id="pda91f2c3af">
   <rect x="270.200096" y="26.0558" width="368.124904" height="152.372"/>
  </clipPath>
 </defs>
</svg>
