<?xml version="1.0" encoding="utf-8" standalone="no"?>
<!DOCTYPE svg PUBLIC "-//W3C//DTD SVG 1.1//EN"
  "http://www.w3.org/Graphics/SVG/1.1/DTD/svg11.dtd">
<svg xmlns:xlink="http://www.w3.org/1999/xlink" width="501.525pt" height="175.4945pt" viewBox="0 0 501.525 175.4945" xmlns="http://www.w3.org/2000/svg" version="1.1">
 <metadata>
  <rdf:RDF xmlns:dc="http://purl.org/dc/elements/1.1/" xmlns:cc="http://creativecommons.org/ns#" xmlns:rdf="http://www.w3.org/1999/02/22-rdf-syntax-ns#">
   <cc:Work>
    <dc:type rdf:resource="http://purl.org/dc/dcmitype/StillImage"/>
    <dc:date>2025-06-30T21:27:37.675394</dc:date>
    <dc:format>image/svg+xml</dc:format>
    <dc:creator>
     <cc:Agent>
      <dc:title>Matplotlib v3.10.3, https://matplotlib.org/</dc:title>
     </cc:Agent>
    </dc:creator>
   </cc:Work>
  </rdf:RDF>
 </metadata>
 <defs>
  <style type="text/css">*{stroke-linejoin: round; stroke-linecap: butt}</style>
 </defs>
 <g id="figure_1">
  <g id="patch_1">
   <path d="M 0 175.4945 
L 501.525 175.4945 
L 501.525 0 
L 0 0 
z
" style="fill: #ffffff"/>
  </g>
  <g id="axes_1">
   <g id="patch_2">
    <path d="M 48.845 141.8095 
L 182.700055 141.8095 
L 182.700055 21.2795 
L 48.845 21.2795 
z
" style="fill: #ffffff"/>
   </g>
   <g id="matplotlib.axis_1">
    <g id="xtick_1">
     <g id="line2d_1">
      <path d="M 54.929321 141.8095 
L 54.929321 21.2795 
" clip-path="url(#pa4a98b6704)" style="fill: none; stroke-dasharray: 2.96,1.28; stroke-dashoffset: 0; stroke: #b0b0b0; stroke-opacity: 0.5; stroke-width: 0.8"/>
     </g>
     <g id="line2d_2">
      <defs>
       <path id="me7fb44f6ad" d="M 0 0 
L 0 3.5 
" style="stroke: #000000; stroke-width: 0.8"/>
      </defs>
      <g>
       <use xlink:href="#me7fb44f6ad" x="54.929321" y="141.8095" style="stroke: #000000; stroke-width: 0.8"/>
      </g>
     </g>
     <g id="text_1">
      <!-- 3.51 -->
      <g transform="translate(46.023071 154.88825) scale(0.08 -0.08)">
       <defs>
        <path id="DejaVuSerif-33" d="M 622 4469 
Q 988 4606 1323 4678 
Q 1659 4750 1953 4750 
Q 2638 4750 3022 4454 
Q 3406 4159 3406 3634 
Q 3406 3213 3140 2930 
Q 2875 2647 2388 2547 
Q 2963 2466 3280 2130 
Q 3597 1794 3597 1259 
Q 3597 606 3158 257 
Q 2719 -91 1894 -91 
Q 1528 -91 1179 -12 
Q 831 66 488 225 
L 488 1131 
L 838 1131 
Q 869 681 1141 450 
Q 1413 219 1906 219 
Q 2384 219 2661 495 
Q 2938 772 2938 1253 
Q 2938 1803 2653 2086 
Q 2369 2369 1819 2369 
L 1522 2369 
L 1522 2688 
L 1678 2688 
Q 2225 2688 2498 2914 
Q 2772 3141 2772 3597 
Q 2772 4006 2547 4223 
Q 2322 4441 1900 4441 
Q 1478 4441 1245 4241 
Q 1013 4041 972 3647 
L 622 3647 
L 622 4469 
z
" transform="scale(0.015625)"/>
        <path id="DejaVuSerif-2e" d="M 603 325 
Q 603 500 722 622 
Q 841 744 1019 744 
Q 1191 744 1312 622 
Q 1434 500 1434 325 
Q 1434 153 1312 31 
Q 1191 -91 1019 -91 
Q 841 -91 722 29 
Q 603 150 603 325 
z
" transform="scale(0.015625)"/>
        <path id="DejaVuSerif-35" d="M 3219 4666 
L 3219 4153 
L 1081 4153 
L 1081 2816 
Q 1244 2928 1461 2984 
Q 1678 3041 1947 3041 
Q 2703 3041 3140 2622 
Q 3578 2203 3578 1478 
Q 3578 738 3136 323 
Q 2694 -91 1894 -91 
Q 1572 -91 1234 -12 
Q 897 66 544 225 
L 544 1131 
L 897 1131 
Q 925 688 1179 453 
Q 1434 219 1894 219 
Q 2388 219 2653 544 
Q 2919 869 2919 1478 
Q 2919 2084 2655 2407 
Q 2391 2731 1894 2731 
Q 1613 2731 1398 2631 
Q 1184 2531 1019 2322 
L 750 2322 
L 750 4666 
L 3219 4666 
z
" transform="scale(0.015625)"/>
        <path id="DejaVuSerif-31" d="M 909 0 
L 909 331 
L 1722 331 
L 1722 4213 
L 781 3603 
L 781 4013 
L 1919 4750 
L 2350 4750 
L 2350 331 
L 3163 331 
L 3163 0 
L 909 0 
z
" transform="scale(0.015625)"/>
       </defs>
       <use xlink:href="#DejaVuSerif-33"/>
       <use xlink:href="#DejaVuSerif-2e" transform="translate(63.623047 0)"/>
       <use xlink:href="#DejaVuSerif-35" transform="translate(95.410156 0)"/>
       <use xlink:href="#DejaVuSerif-31" transform="translate(159.033203 0)"/>
      </g>
     </g>
    </g>
    <g id="xtick_2">
     <g id="line2d_3">
      <path d="M 85.350924 141.8095 
L 85.350924 21.2795 
" clip-path="url(#pa4a98b6704)" style="fill: none; stroke-dasharray: 2.96,1.28; stroke-dashoffset: 0; stroke: #b0b0b0; stroke-opacity: 0.5; stroke-width: 0.8"/>
     </g>
     <g id="line2d_4">
      <g>
       <use xlink:href="#me7fb44f6ad" x="85.350924" y="141.8095" style="stroke: #000000; stroke-width: 0.8"/>
      </g>
     </g>
     <g id="text_2">
      <!-- 6.87 -->
      <g transform="translate(76.444674 154.88825) scale(0.08 -0.08)">
       <defs>
        <path id="DejaVuSerif-36" d="M 2094 219 
Q 2534 219 2771 542 
Q 3009 866 3009 1472 
Q 3009 2078 2771 2401 
Q 2534 2725 2094 2725 
Q 1647 2725 1412 2412 
Q 1178 2100 1178 1509 
Q 1178 888 1415 553 
Q 1653 219 2094 219 
z
M 1075 2569 
Q 1288 2803 1556 2918 
Q 1825 3034 2163 3034 
Q 2859 3034 3264 2615 
Q 3669 2197 3669 1472 
Q 3669 763 3233 336 
Q 2797 -91 2069 -91 
Q 1278 -91 853 498 
Q 428 1088 428 2181 
Q 428 3406 931 4078 
Q 1434 4750 2350 4750 
Q 2597 4750 2869 4703 
Q 3141 4656 3425 4563 
L 3425 3794 
L 3072 3794 
Q 3034 4109 2831 4275 
Q 2628 4441 2284 4441 
Q 1678 4441 1381 3981 
Q 1084 3522 1075 2569 
z
" transform="scale(0.015625)"/>
        <path id="DejaVuSerif-38" d="M 2981 1275 
Q 2981 1775 2732 2051 
Q 2484 2328 2034 2328 
Q 1584 2328 1336 2051 
Q 1088 1775 1088 1275 
Q 1088 772 1336 495 
Q 1584 219 2034 219 
Q 2484 219 2732 495 
Q 2981 772 2981 1275 
z
M 2853 3541 
Q 2853 3966 2637 4203 
Q 2422 4441 2034 4441 
Q 1650 4441 1433 4203 
Q 1216 3966 1216 3541 
Q 1216 3113 1433 2875 
Q 1650 2638 2034 2638 
Q 2422 2638 2637 2875 
Q 2853 3113 2853 3541 
z
M 2516 2484 
Q 3047 2413 3344 2092 
Q 3641 1772 3641 1275 
Q 3641 619 3225 264 
Q 2809 -91 2034 -91 
Q 1263 -91 845 264 
Q 428 619 428 1275 
Q 428 1772 725 2092 
Q 1022 2413 1556 2484 
Q 1084 2569 832 2842 
Q 581 3116 581 3541 
Q 581 4103 968 4426 
Q 1356 4750 2034 4750 
Q 2713 4750 3100 4426 
Q 3488 4103 3488 3541 
Q 3488 3116 3236 2842 
Q 2984 2569 2516 2484 
z
" transform="scale(0.015625)"/>
        <path id="DejaVuSerif-37" d="M 3609 4347 
L 1784 0 
L 1319 0 
L 3059 4153 
L 903 4153 
L 903 3578 
L 538 3578 
L 538 4666 
L 3609 4666 
L 3609 4347 
z
" transform="scale(0.015625)"/>
       </defs>
       <use xlink:href="#DejaVuSerif-36"/>
       <use xlink:href="#DejaVuSerif-2e" transform="translate(63.623047 0)"/>
       <use xlink:href="#DejaVuSerif-38" transform="translate(95.410156 0)"/>
       <use xlink:href="#DejaVuSerif-37" transform="translate(159.033203 0)"/>
      </g>
     </g>
    </g>
    <g id="xtick_3">
     <g id="line2d_5">
      <path d="M 115.772528 141.8095 
L 115.772528 21.2795 
" clip-path="url(#pa4a98b6704)" style="fill: none; stroke-dasharray: 2.96,1.28; stroke-dashoffset: 0; stroke: #b0b0b0; stroke-opacity: 0.5; stroke-width: 0.8"/>
     </g>
     <g id="line2d_6">
      <g>
       <use xlink:href="#me7fb44f6ad" x="115.772528" y="141.8095" style="stroke: #000000; stroke-width: 0.8"/>
      </g>
     </g>
     <g id="text_3">
      <!-- 10.24 -->
      <g transform="translate(104.321278 154.88825) scale(0.08 -0.08)">
       <defs>
        <path id="DejaVuSerif-30" d="M 2034 219 
Q 2513 219 2750 744 
Q 2988 1269 2988 2328 
Q 2988 3391 2750 3916 
Q 2513 4441 2034 4441 
Q 1556 4441 1318 3916 
Q 1081 3391 1081 2328 
Q 1081 1269 1318 744 
Q 1556 219 2034 219 
z
M 2034 -91 
Q 1275 -91 848 546 
Q 422 1184 422 2328 
Q 422 3475 848 4112 
Q 1275 4750 2034 4750 
Q 2797 4750 3222 4112 
Q 3647 3475 3647 2328 
Q 3647 1184 3222 546 
Q 2797 -91 2034 -91 
z
" transform="scale(0.015625)"/>
        <path id="DejaVuSerif-32" d="M 819 3553 
L 469 3553 
L 469 4384 
Q 803 4563 1142 4656 
Q 1481 4750 1806 4750 
Q 2534 4750 2956 4397 
Q 3378 4044 3378 3438 
Q 3378 2753 2422 1800 
Q 2347 1728 2309 1691 
L 1131 513 
L 3078 513 
L 3078 1088 
L 3444 1088 
L 3444 0 
L 434 0 
L 434 341 
L 1850 1753 
Q 2319 2222 2519 2614 
Q 2719 3006 2719 3438 
Q 2719 3909 2473 4175 
Q 2228 4441 1797 4441 
Q 1350 4441 1106 4219 
Q 863 3997 819 3553 
z
" transform="scale(0.015625)"/>
        <path id="DejaVuSerif-34" d="M 2234 1581 
L 2234 4063 
L 641 1581 
L 2234 1581 
z
M 3609 0 
L 1484 0 
L 1484 331 
L 2234 331 
L 2234 1247 
L 197 1247 
L 197 1588 
L 2241 4750 
L 2859 4750 
L 2859 1581 
L 3750 1581 
L 3750 1247 
L 2859 1247 
L 2859 331 
L 3609 331 
L 3609 0 
z
" transform="scale(0.015625)"/>
       </defs>
       <use xlink:href="#DejaVuSerif-31"/>
       <use xlink:href="#DejaVuSerif-30" transform="translate(63.623047 0)"/>
       <use xlink:href="#DejaVuSerif-2e" transform="translate(127.246094 0)"/>
       <use xlink:href="#DejaVuSerif-32" transform="translate(159.033203 0)"/>
       <use xlink:href="#DejaVuSerif-34" transform="translate(222.65625 0)"/>
      </g>
     </g>
    </g>
    <g id="xtick_4">
     <g id="line2d_7">
      <path d="M 146.194131 141.8095 
L 146.194131 21.2795 
" clip-path="url(#pa4a98b6704)" style="fill: none; stroke-dasharray: 2.96,1.28; stroke-dashoffset: 0; stroke: #b0b0b0; stroke-opacity: 0.5; stroke-width: 0.8"/>
     </g>
     <g id="line2d_8">
      <g>
       <use xlink:href="#me7fb44f6ad" x="146.194131" y="141.8095" style="stroke: #000000; stroke-width: 0.8"/>
      </g>
     </g>
     <g id="text_4">
      <!-- 13.61 -->
      <g transform="translate(134.742881 154.88825) scale(0.08 -0.08)">
       <use xlink:href="#DejaVuSerif-31"/>
       <use xlink:href="#DejaVuSerif-33" transform="translate(63.623047 0)"/>
       <use xlink:href="#DejaVuSerif-2e" transform="translate(127.246094 0)"/>
       <use xlink:href="#DejaVuSerif-36" transform="translate(159.033203 0)"/>
       <use xlink:href="#DejaVuSerif-31" transform="translate(222.65625 0)"/>
      </g>
     </g>
    </g>
    <g id="xtick_5">
     <g id="line2d_9">
      <path d="M 176.615734 141.8095 
L 176.615734 21.2795 
" clip-path="url(#pa4a98b6704)" style="fill: none; stroke-dasharray: 2.96,1.28; stroke-dashoffset: 0; stroke: #b0b0b0; stroke-opacity: 0.5; stroke-width: 0.8"/>
     </g>
     <g id="line2d_10">
      <g>
       <use xlink:href="#me7fb44f6ad" x="176.615734" y="141.8095" style="stroke: #000000; stroke-width: 0.8"/>
      </g>
     </g>
     <g id="text_5">
      <!-- 16.97 -->
      <g transform="translate(165.164484 154.88825) scale(0.08 -0.08)">
       <defs>
        <path id="DejaVuSerif-39" d="M 2994 2091 
Q 2784 1856 2512 1740 
Q 2241 1625 1900 1625 
Q 1206 1625 804 2044 
Q 403 2463 403 3188 
Q 403 3897 839 4323 
Q 1275 4750 2003 4750 
Q 2794 4750 3217 4161 
Q 3641 3572 3641 2478 
Q 3641 1253 3137 581 
Q 2634 -91 1722 -91 
Q 1475 -91 1203 -44 
Q 931 3 647 97 
L 647 872 
L 997 872 
Q 1038 556 1241 387 
Q 1444 219 1784 219 
Q 2391 219 2687 676 
Q 2984 1134 2994 2091 
z
M 1978 4441 
Q 1534 4441 1298 4117 
Q 1063 3794 1063 3188 
Q 1063 2581 1298 2256 
Q 1534 1931 1978 1931 
Q 2422 1931 2658 2245 
Q 2894 2559 2894 3150 
Q 2894 3772 2656 4106 
Q 2419 4441 1978 4441 
z
" transform="scale(0.015625)"/>
       </defs>
       <use xlink:href="#DejaVuSerif-31"/>
       <use xlink:href="#DejaVuSerif-36" transform="translate(63.623047 0)"/>
       <use xlink:href="#DejaVuSerif-2e" transform="translate(127.246094 0)"/>
       <use xlink:href="#DejaVuSerif-39" transform="translate(159.033203 0)"/>
       <use xlink:href="#DejaVuSerif-37" transform="translate(222.65625 0)"/>
      </g>
     </g>
    </g>
    <g id="text_6">
     <!-- Real -->
     <g transform="translate(106.728778 166.63075) scale(0.08 -0.08)">
      <defs>
       <path id="DejaVuSerif-52" d="M 3066 2316 
Q 3284 2256 3442 2114 
Q 3600 1972 3725 1716 
L 4403 331 
L 4972 331 
L 4972 0 
L 3872 0 
L 3144 1484 
Q 2934 1916 2759 2042 
Q 2584 2169 2278 2169 
L 1581 2169 
L 1581 331 
L 2241 331 
L 2241 0 
L 353 0 
L 353 331 
L 947 331 
L 947 4331 
L 353 4331 
L 353 4666 
L 2719 4666 
Q 3400 4666 3770 4341 
Q 4141 4016 4141 3419 
Q 4141 2938 3870 2661 
Q 3600 2384 3066 2316 
z
M 1581 2503 
L 2503 2503 
Q 2975 2503 3200 2726 
Q 3425 2950 3425 3419 
Q 3425 3888 3200 4109 
Q 2975 4331 2503 4331 
L 1581 4331 
L 1581 2503 
z
" transform="scale(0.015625)"/>
       <path id="DejaVuSerif-65" d="M 3469 1600 
L 991 1600 
L 991 1575 
Q 991 903 1244 561 
Q 1497 219 1991 219 
Q 2369 219 2611 417 
Q 2853 616 2950 1006 
L 3413 1006 
Q 3275 459 2904 184 
Q 2534 -91 1931 -91 
Q 1203 -91 761 389 
Q 319 869 319 1663 
Q 319 2450 753 2931 
Q 1188 3413 1894 3413 
Q 2647 3413 3050 2948 
Q 3453 2484 3469 1600 
z
M 2791 1931 
Q 2772 2513 2545 2808 
Q 2319 3103 1894 3103 
Q 1497 3103 1269 2806 
Q 1041 2509 991 1931 
L 2791 1931 
z
" transform="scale(0.015625)"/>
       <path id="DejaVuSerif-61" d="M 2547 1044 
L 2547 1747 
L 1806 1747 
Q 1378 1747 1168 1562 
Q 959 1378 959 997 
Q 959 650 1171 447 
Q 1384 244 1747 244 
Q 2106 244 2326 466 
Q 2547 688 2547 1044 
z
M 3122 2075 
L 3122 331 
L 3634 331 
L 3634 0 
L 2547 0 
L 2547 359 
Q 2356 128 2106 18 
Q 1856 -91 1522 -91 
Q 969 -91 644 203 
Q 319 497 319 997 
Q 319 1513 691 1797 
Q 1063 2081 1741 2081 
L 2547 2081 
L 2547 2309 
Q 2547 2688 2317 2895 
Q 2088 3103 1672 3103 
Q 1328 3103 1125 2947 
Q 922 2791 872 2484 
L 575 2484 
L 575 3156 
Q 875 3284 1158 3348 
Q 1441 3413 1709 3413 
Q 2400 3413 2761 3070 
Q 3122 2728 3122 2075 
z
" transform="scale(0.015625)"/>
       <path id="DejaVuSerif-6c" d="M 1313 331 
L 1856 331 
L 1856 0 
L 184 0 
L 184 331 
L 738 331 
L 738 4531 
L 184 4531 
L 184 4863 
L 1313 4863 
L 1313 331 
z
" transform="scale(0.015625)"/>
      </defs>
      <use xlink:href="#DejaVuSerif-52"/>
      <use xlink:href="#DejaVuSerif-65" transform="translate(75.292969 0)"/>
      <use xlink:href="#DejaVuSerif-61" transform="translate(134.472656 0)"/>
      <use xlink:href="#DejaVuSerif-6c" transform="translate(194.091797 0)"/>
     </g>
    </g>
    <g id="text_7">
     <!-- 1e3 -->
     <g transform="translate(167.785055 165.63075) scale(0.08 -0.08)">
      <use xlink:href="#DejaVuSerif-31"/>
      <use xlink:href="#DejaVuSerif-65" transform="translate(63.623047 0)"/>
      <use xlink:href="#DejaVuSerif-33" transform="translate(122.802734 0)"/>
     </g>
    </g>
   </g>
   <g id="matplotlib.axis_2">
    <g id="ytick_1">
     <g id="line2d_11">
      <path d="M 48.845 136.330864 
L 182.700055 136.330864 
" clip-path="url(#pa4a98b6704)" style="fill: none; stroke-dasharray: 2.96,1.28; stroke-dashoffset: 0; stroke: #b0b0b0; stroke-opacity: 0.5; stroke-width: 0.8"/>
     </g>
     <g id="line2d_12">
      <defs>
       <path id="m08850cfb3d" d="M 0 0 
L -3.5 0 
" style="stroke: #000000; stroke-width: 0.8"/>
      </defs>
      <g>
       <use xlink:href="#m08850cfb3d" x="48.845" y="136.330864" style="stroke: #000000; stroke-width: 0.8"/>
      </g>
     </g>
     <g id="text_8">
      <!-- 3.51 -->
      <g transform="translate(24.0325 139.370239) scale(0.08 -0.08)">
       <use xlink:href="#DejaVuSerif-33"/>
       <use xlink:href="#DejaVuSerif-2e" transform="translate(63.623047 0)"/>
       <use xlink:href="#DejaVuSerif-35" transform="translate(95.410156 0)"/>
       <use xlink:href="#DejaVuSerif-31" transform="translate(159.033203 0)"/>
      </g>
     </g>
    </g>
    <g id="ytick_2">
     <g id="line2d_13">
      <path d="M 48.845 108.937682 
L 182.700055 108.937682 
" clip-path="url(#pa4a98b6704)" style="fill: none; stroke-dasharray: 2.96,1.28; stroke-dashoffset: 0; stroke: #b0b0b0; stroke-opacity: 0.5; stroke-width: 0.8"/>
     </g>
     <g id="line2d_14">
      <g>
       <use xlink:href="#m08850cfb3d" x="48.845" y="108.937682" style="stroke: #000000; stroke-width: 0.8"/>
      </g>
     </g>
     <g id="text_9">
      <!-- 6.87 -->
      <g transform="translate(24.0325 111.977057) scale(0.08 -0.08)">
       <use xlink:href="#DejaVuSerif-36"/>
       <use xlink:href="#DejaVuSerif-2e" transform="translate(63.623047 0)"/>
       <use xlink:href="#DejaVuSerif-38" transform="translate(95.410156 0)"/>
       <use xlink:href="#DejaVuSerif-37" transform="translate(159.033203 0)"/>
      </g>
     </g>
    </g>
    <g id="ytick_3">
     <g id="line2d_15">
      <path d="M 48.845 81.5445 
L 182.700055 81.5445 
" clip-path="url(#pa4a98b6704)" style="fill: none; stroke-dasharray: 2.96,1.28; stroke-dashoffset: 0; stroke: #b0b0b0; stroke-opacity: 0.5; stroke-width: 0.8"/>
     </g>
     <g id="line2d_16">
      <g>
       <use xlink:href="#m08850cfb3d" x="48.845" y="81.5445" style="stroke: #000000; stroke-width: 0.8"/>
      </g>
     </g>
     <g id="text_10">
      <!-- 10.24 -->
      <g transform="translate(18.9425 84.583875) scale(0.08 -0.08)">
       <use xlink:href="#DejaVuSerif-31"/>
       <use xlink:href="#DejaVuSerif-30" transform="translate(63.623047 0)"/>
       <use xlink:href="#DejaVuSerif-2e" transform="translate(127.246094 0)"/>
       <use xlink:href="#DejaVuSerif-32" transform="translate(159.033203 0)"/>
       <use xlink:href="#DejaVuSerif-34" transform="translate(222.65625 0)"/>
      </g>
     </g>
    </g>
    <g id="ytick_4">
     <g id="line2d_17">
      <path d="M 48.845 54.151318 
L 182.700055 54.151318 
" clip-path="url(#pa4a98b6704)" style="fill: none; stroke-dasharray: 2.96,1.28; stroke-dashoffset: 0; stroke: #b0b0b0; stroke-opacity: 0.5; stroke-width: 0.8"/>
     </g>
     <g id="line2d_18">
      <g>
       <use xlink:href="#m08850cfb3d" x="48.845" y="54.151318" style="stroke: #000000; stroke-width: 0.8"/>
      </g>
     </g>
     <g id="text_11">
      <!-- 13.61 -->
      <g transform="translate(18.9425 57.190693) scale(0.08 -0.08)">
       <use xlink:href="#DejaVuSerif-31"/>
       <use xlink:href="#DejaVuSerif-33" transform="translate(63.623047 0)"/>
       <use xlink:href="#DejaVuSerif-2e" transform="translate(127.246094 0)"/>
       <use xlink:href="#DejaVuSerif-36" transform="translate(159.033203 0)"/>
       <use xlink:href="#DejaVuSerif-31" transform="translate(222.65625 0)"/>
      </g>
     </g>
    </g>
    <g id="ytick_5">
     <g id="line2d_19">
      <path d="M 48.845 26.758136 
L 182.700055 26.758136 
" clip-path="url(#pa4a98b6704)" style="fill: none; stroke-dasharray: 2.96,1.28; stroke-dashoffset: 0; stroke: #b0b0b0; stroke-opacity: 0.5; stroke-width: 0.8"/>
     </g>
     <g id="line2d_20">
      <g>
       <use xlink:href="#m08850cfb3d" x="48.845" y="26.758136" style="stroke: #000000; stroke-width: 0.8"/>
      </g>
     </g>
     <g id="text_12">
      <!-- 16.97 -->
      <g transform="translate(18.9425 29.797511) scale(0.08 -0.08)">
       <use xlink:href="#DejaVuSerif-31"/>
       <use xlink:href="#DejaVuSerif-36" transform="translate(63.623047 0)"/>
       <use xlink:href="#DejaVuSerif-2e" transform="translate(127.246094 0)"/>
       <use xlink:href="#DejaVuSerif-39" transform="translate(159.033203 0)"/>
       <use xlink:href="#DejaVuSerif-37" transform="translate(222.65625 0)"/>
      </g>
     </g>
    </g>
    <g id="text_13">
     <!-- Previsto -->
     <g transform="translate(13.27875 98.122625) rotate(-90) scale(0.08 -0.08)">
      <defs>
       <path id="DejaVuSerif-50" d="M 1581 2375 
L 2406 2375 
Q 2872 2375 3115 2626 
Q 3359 2878 3359 3353 
Q 3359 3831 3115 4081 
Q 2872 4331 2406 4331 
L 1581 4331 
L 1581 2375 
z
M 353 0 
L 353 331 
L 947 331 
L 947 4331 
L 353 4331 
L 353 4666 
L 2559 4666 
Q 3259 4666 3668 4311 
Q 4078 3956 4078 3353 
Q 4078 2753 3668 2397 
Q 3259 2041 2559 2041 
L 1581 2041 
L 1581 331 
L 2303 331 
L 2303 0 
L 353 0 
z
" transform="scale(0.015625)"/>
       <path id="DejaVuSerif-72" d="M 3059 3328 
L 3059 2497 
L 2728 2497 
Q 2713 2744 2591 2866 
Q 2469 2988 2234 2988 
Q 1809 2988 1582 2694 
Q 1356 2400 1356 1850 
L 1356 331 
L 2022 331 
L 2022 0 
L 263 0 
L 263 331 
L 781 331 
L 781 2994 
L 231 2994 
L 231 3322 
L 1356 3322 
L 1356 2731 
Q 1525 3078 1790 3245 
Q 2056 3413 2438 3413 
Q 2578 3413 2733 3391 
Q 2888 3369 3059 3328 
z
" transform="scale(0.015625)"/>
       <path id="DejaVuSerif-76" d="M 1581 0 
L 359 2988 
L -19 2988 
L -19 3322 
L 1509 3322 
L 1509 2988 
L 978 2988 
L 1913 703 
L 2847 2988 
L 2350 2988 
L 2350 3322 
L 3597 3322 
L 3597 2988 
L 3225 2988 
L 2003 0 
L 1581 0 
z
" transform="scale(0.015625)"/>
       <path id="DejaVuSerif-69" d="M 622 4353 
Q 622 4497 726 4603 
Q 831 4709 978 4709 
Q 1122 4709 1226 4603 
Q 1331 4497 1331 4353 
Q 1331 4206 1228 4103 
Q 1125 4000 978 4000 
Q 831 4000 726 4103 
Q 622 4206 622 4353 
z
M 1356 331 
L 1900 331 
L 1900 0 
L 231 0 
L 231 331 
L 781 331 
L 781 2988 
L 231 2988 
L 231 3322 
L 1356 3322 
L 1356 331 
z
" transform="scale(0.015625)"/>
       <path id="DejaVuSerif-73" d="M 359 184 
L 359 959 
L 691 959 
Q 703 588 923 403 
Q 1144 219 1575 219 
Q 1963 219 2166 364 
Q 2369 509 2369 788 
Q 2369 1006 2220 1140 
Q 2072 1275 1594 1428 
L 1178 1569 
Q 750 1706 558 1912 
Q 366 2119 366 2438 
Q 366 2894 700 3153 
Q 1034 3413 1625 3413 
Q 1888 3413 2178 3344 
Q 2469 3275 2778 3144 
L 2778 2419 
L 2447 2419 
Q 2434 2741 2221 2922 
Q 2009 3103 1644 3103 
Q 1281 3103 1095 2975 
Q 909 2847 909 2591 
Q 909 2381 1050 2254 
Q 1191 2128 1613 1997 
L 2069 1856 
Q 2541 1709 2748 1489 
Q 2956 1269 2956 922 
Q 2956 450 2595 179 
Q 2234 -91 1600 -91 
Q 1278 -91 972 -22 
Q 666 47 359 184 
z
" transform="scale(0.015625)"/>
       <path id="DejaVuSerif-74" d="M 691 2988 
L 184 2988 
L 184 3322 
L 691 3322 
L 691 4353 
L 1269 4353 
L 1269 3322 
L 2350 3322 
L 2350 2988 
L 1269 2988 
L 1269 878 
Q 1269 456 1350 337 
Q 1431 219 1650 219 
Q 1875 219 1978 351 
Q 2081 484 2088 781 
L 2522 781 
Q 2497 328 2275 118 
Q 2053 -91 1600 -91 
Q 1103 -91 897 129 
Q 691 350 691 878 
L 691 2988 
z
" transform="scale(0.015625)"/>
       <path id="DejaVuSerif-6f" d="M 1925 219 
Q 2388 219 2623 584 
Q 2859 950 2859 1663 
Q 2859 2375 2623 2739 
Q 2388 3103 1925 3103 
Q 1463 3103 1227 2739 
Q 991 2375 991 1663 
Q 991 950 1228 584 
Q 1466 219 1925 219 
z
M 1925 -91 
Q 1200 -91 759 389 
Q 319 869 319 1663 
Q 319 2456 758 2934 
Q 1197 3413 1925 3413 
Q 2653 3413 3092 2934 
Q 3531 2456 3531 1663 
Q 3531 869 3092 389 
Q 2653 -91 1925 -91 
z
" transform="scale(0.015625)"/>
      </defs>
      <use xlink:href="#DejaVuSerif-50"/>
      <use xlink:href="#DejaVuSerif-72" transform="translate(67.285156 0)"/>
      <use xlink:href="#DejaVuSerif-65" transform="translate(115.087891 0)"/>
      <use xlink:href="#DejaVuSerif-76" transform="translate(174.267578 0)"/>
      <use xlink:href="#DejaVuSerif-69" transform="translate(230.761719 0)"/>
      <use xlink:href="#DejaVuSerif-73" transform="translate(262.744141 0)"/>
      <use xlink:href="#DejaVuSerif-74" transform="translate(314.0625 0)"/>
      <use xlink:href="#DejaVuSerif-6f" transform="translate(354.248047 0)"/>
     </g>
    </g>
    <g id="text_14">
     <!-- 1e3 -->
     <g transform="translate(48.845 18.2795) scale(0.08 -0.08)">
      <use xlink:href="#DejaVuSerif-31"/>
      <use xlink:href="#DejaVuSerif-65" transform="translate(63.623047 0)"/>
      <use xlink:href="#DejaVuSerif-33" transform="translate(122.802734 0)"/>
     </g>
    </g>
   </g>
   <g id="PathCollection_1">
    <defs>
     <path id="m240ff8640c" d="M 0 0.5 
C 0.132602 0.5 0.25979 0.447317 0.353553 0.353553 
C 0.447317 0.25979 0.5 0.132602 0.5 0 
C 0.5 -0.132602 0.447317 -0.25979 0.353553 -0.353553 
C 0.25979 -0.447317 0.132602 -0.5 0 -0.5 
C -0.132602 -0.5 -0.25979 -0.447317 -0.353553 -0.353553 
C -0.447317 -0.25979 -0.5 -0.132602 -0.5 0 
C -0.5 0.132602 -0.447317 0.25979 -0.353553 0.353553 
C -0.25979 0.447317 -0.132602 0.5 0 0.5 
z
" style="stroke: #ff5b5b; stroke-opacity: 0.5"/>
    </defs>
    <g clip-path="url(#pa4a98b6704)">
     <use xlink:href="#m240ff8640c" x="62.719529" y="79.567516" style="fill: #ff5b5b; fill-opacity: 0.5; stroke: #ff5b5b; stroke-opacity: 0.5"/>
     <use xlink:href="#m240ff8640c" x="69.007891" y="68.148465" style="fill: #ff5b5b; fill-opacity: 0.5; stroke: #ff5b5b; stroke-opacity: 0.5"/>
     <use xlink:href="#m240ff8640c" x="72.850094" y="63.208863" style="fill: #ff5b5b; fill-opacity: 0.5; stroke: #ff5b5b; stroke-opacity: 0.5"/>
     <use xlink:href="#m240ff8640c" x="127.15789" y="61.42533" style="fill: #ff5b5b; fill-opacity: 0.5; stroke: #ff5b5b; stroke-opacity: 0.5"/>
     <use xlink:href="#m240ff8640c" x="144.832789" y="68.926846" style="fill: #ff5b5b; fill-opacity: 0.5; stroke: #ff5b5b; stroke-opacity: 0.5"/>
     <use xlink:href="#m240ff8640c" x="142.918082" y="81.137602" style="fill: #ff5b5b; fill-opacity: 0.5; stroke: #ff5b5b; stroke-opacity: 0.5"/>
     <use xlink:href="#m240ff8640c" x="142.969398" y="87.812977" style="fill: #ff5b5b; fill-opacity: 0.5; stroke: #ff5b5b; stroke-opacity: 0.5"/>
     <use xlink:href="#m240ff8640c" x="113.042807" y="99.646004" style="fill: #ff5b5b; fill-opacity: 0.5; stroke: #ff5b5b; stroke-opacity: 0.5"/>
     <use xlink:href="#m240ff8640c" x="104.43167" y="105.984099" style="fill: #ff5b5b; fill-opacity: 0.5; stroke: #ff5b5b; stroke-opacity: 0.5"/>
     <use xlink:href="#m240ff8640c" x="102.862053" y="106.417533" style="fill: #ff5b5b; fill-opacity: 0.5; stroke: #ff5b5b; stroke-opacity: 0.5"/>
     <use xlink:href="#m240ff8640c" x="105.672674" y="108.137936" style="fill: #ff5b5b; fill-opacity: 0.5; stroke: #ff5b5b; stroke-opacity: 0.5"/>
     <use xlink:href="#m240ff8640c" x="140.931037" y="102.187102" style="fill: #ff5b5b; fill-opacity: 0.5; stroke: #ff5b5b; stroke-opacity: 0.5"/>
     <use xlink:href="#m240ff8640c" x="150.663489" y="88.977253" style="fill: #ff5b5b; fill-opacity: 0.5; stroke: #ff5b5b; stroke-opacity: 0.5"/>
     <use xlink:href="#m240ff8640c" x="167.624635" y="70.976687" style="fill: #ff5b5b; fill-opacity: 0.5; stroke: #ff5b5b; stroke-opacity: 0.5"/>
     <use xlink:href="#m240ff8640c" x="167.007401" y="64.865816" style="fill: #ff5b5b; fill-opacity: 0.5; stroke: #ff5b5b; stroke-opacity: 0.5"/>
     <use xlink:href="#m240ff8640c" x="176.615734" y="60.712411" style="fill: #ff5b5b; fill-opacity: 0.5; stroke: #ff5b5b; stroke-opacity: 0.5"/>
     <use xlink:href="#m240ff8640c" x="163.647341" y="65.257321" style="fill: #ff5b5b; fill-opacity: 0.5; stroke: #ff5b5b; stroke-opacity: 0.5"/>
     <use xlink:href="#m240ff8640c" x="133.942609" y="77.34313" style="fill: #ff5b5b; fill-opacity: 0.5; stroke: #ff5b5b; stroke-opacity: 0.5"/>
     <use xlink:href="#m240ff8640c" x="114.087859" y="86.158836" style="fill: #ff5b5b; fill-opacity: 0.5; stroke: #ff5b5b; stroke-opacity: 0.5"/>
     <use xlink:href="#m240ff8640c" x="90.871226" y="94.953583" style="fill: #ff5b5b; fill-opacity: 0.5; stroke: #ff5b5b; stroke-opacity: 0.5"/>
     <use xlink:href="#m240ff8640c" x="79.591163" y="103.496348" style="fill: #ff5b5b; fill-opacity: 0.5; stroke: #ff5b5b; stroke-opacity: 0.5"/>
     <use xlink:href="#m240ff8640c" x="60.043663" y="103.223537" style="fill: #ff5b5b; fill-opacity: 0.5; stroke: #ff5b5b; stroke-opacity: 0.5"/>
     <use xlink:href="#m240ff8640c" x="61.179167" y="101.882596" style="fill: #ff5b5b; fill-opacity: 0.5; stroke: #ff5b5b; stroke-opacity: 0.5"/>
     <use xlink:href="#m240ff8640c" x="63.641657" y="96.176934" style="fill: #ff5b5b; fill-opacity: 0.5; stroke: #ff5b5b; stroke-opacity: 0.5"/>
     <use xlink:href="#m240ff8640c" x="58.63044" y="73.704458" style="fill: #ff5b5b; fill-opacity: 0.5; stroke: #ff5b5b; stroke-opacity: 0.5"/>
     <use xlink:href="#m240ff8640c" x="67.265049" y="64.130353" style="fill: #ff5b5b; fill-opacity: 0.5; stroke: #ff5b5b; stroke-opacity: 0.5"/>
     <use xlink:href="#m240ff8640c" x="67.688088" y="63.228387" style="fill: #ff5b5b; fill-opacity: 0.5; stroke: #ff5b5b; stroke-opacity: 0.5"/>
     <use xlink:href="#m240ff8640c" x="71.885926" y="58.803095" style="fill: #ff5b5b; fill-opacity: 0.5; stroke: #ff5b5b; stroke-opacity: 0.5"/>
     <use xlink:href="#m240ff8640c" x="63.067208" y="62.623272" style="fill: #ff5b5b; fill-opacity: 0.5; stroke: #ff5b5b; stroke-opacity: 0.5"/>
     <use xlink:href="#m240ff8640c" x="68.203405" y="80.294988" style="fill: #ff5b5b; fill-opacity: 0.5; stroke: #ff5b5b; stroke-opacity: 0.5"/>
     <use xlink:href="#m240ff8640c" x="67.468602" y="86.973022" style="fill: #ff5b5b; fill-opacity: 0.5; stroke: #ff5b5b; stroke-opacity: 0.5"/>
     <use xlink:href="#m240ff8640c" x="59.701101" y="101.397064" style="fill: #ff5b5b; fill-opacity: 0.5; stroke: #ff5b5b; stroke-opacity: 0.5"/>
     <use xlink:href="#m240ff8640c" x="62.095591" y="106.177033" style="fill: #ff5b5b; fill-opacity: 0.5; stroke: #ff5b5b; stroke-opacity: 0.5"/>
     <use xlink:href="#m240ff8640c" x="68.124202" y="108.567081" style="fill: #ff5b5b; fill-opacity: 0.5; stroke: #ff5b5b; stroke-opacity: 0.5"/>
     <use xlink:href="#m240ff8640c" x="62.362192" y="112.020972" style="fill: #ff5b5b; fill-opacity: 0.5; stroke: #ff5b5b; stroke-opacity: 0.5"/>
     <use xlink:href="#m240ff8640c" x="78.298397" y="110.903643" style="fill: #ff5b5b; fill-opacity: 0.5; stroke: #ff5b5b; stroke-opacity: 0.5"/>
     <use xlink:href="#m240ff8640c" x="70.846225" y="105.34173" style="fill: #ff5b5b; fill-opacity: 0.5; stroke: #ff5b5b; stroke-opacity: 0.5"/>
     <use xlink:href="#m240ff8640c" x="69.37217" y="104.850472" style="fill: #ff5b5b; fill-opacity: 0.5; stroke: #ff5b5b; stroke-opacity: 0.5"/>
     <use xlink:href="#m240ff8640c" x="63.991437" y="105.24446" style="fill: #ff5b5b; fill-opacity: 0.5; stroke: #ff5b5b; stroke-opacity: 0.5"/>
     <use xlink:href="#m240ff8640c" x="54.929321" y="106.409282" style="fill: #ff5b5b; fill-opacity: 0.5; stroke: #ff5b5b; stroke-opacity: 0.5"/>
     <use xlink:href="#m240ff8640c" x="73.689046" y="111.053182" style="fill: #ff5b5b; fill-opacity: 0.5; stroke: #ff5b5b; stroke-opacity: 0.5"/>
     <use xlink:href="#m240ff8640c" x="82.321458" y="110.354897" style="fill: #ff5b5b; fill-opacity: 0.5; stroke: #ff5b5b; stroke-opacity: 0.5"/>
     <use xlink:href="#m240ff8640c" x="80.800773" y="91.205433" style="fill: #ff5b5b; fill-opacity: 0.5; stroke: #ff5b5b; stroke-opacity: 0.5"/>
     <use xlink:href="#m240ff8640c" x="72.326986" y="105.067488" style="fill: #ff5b5b; fill-opacity: 0.5; stroke: #ff5b5b; stroke-opacity: 0.5"/>
     <use xlink:href="#m240ff8640c" x="66.618845" y="107.882053" style="fill: #ff5b5b; fill-opacity: 0.5; stroke: #ff5b5b; stroke-opacity: 0.5"/>
     <use xlink:href="#m240ff8640c" x="62.217564" y="108.037875" style="fill: #ff5b5b; fill-opacity: 0.5; stroke: #ff5b5b; stroke-opacity: 0.5"/>
     <use xlink:href="#m240ff8640c" x="58.937865" y="110.823317" style="fill: #ff5b5b; fill-opacity: 0.5; stroke: #ff5b5b; stroke-opacity: 0.5"/>
     <use xlink:href="#m240ff8640c" x="66.166806" y="105.843068" style="fill: #ff5b5b; fill-opacity: 0.5; stroke: #ff5b5b; stroke-opacity: 0.5"/>
     <use xlink:href="#m240ff8640c" x="80.571747" y="83.272294" style="fill: #ff5b5b; fill-opacity: 0.5; stroke: #ff5b5b; stroke-opacity: 0.5"/>
     <use xlink:href="#m240ff8640c" x="92.648152" y="69.375609" style="fill: #ff5b5b; fill-opacity: 0.5; stroke: #ff5b5b; stroke-opacity: 0.5"/>
     <use xlink:href="#m240ff8640c" x="115.722578" y="66.561984" style="fill: #ff5b5b; fill-opacity: 0.5; stroke: #ff5b5b; stroke-opacity: 0.5"/>
     <use xlink:href="#m240ff8640c" x="126.494212" y="62.8154" style="fill: #ff5b5b; fill-opacity: 0.5; stroke: #ff5b5b; stroke-opacity: 0.5"/>
     <use xlink:href="#m240ff8640c" x="86.672809" y="74.266094" style="fill: #ff5b5b; fill-opacity: 0.5; stroke: #ff5b5b; stroke-opacity: 0.5"/>
     <use xlink:href="#m240ff8640c" x="77.163776" y="85.395847" style="fill: #ff5b5b; fill-opacity: 0.5; stroke: #ff5b5b; stroke-opacity: 0.5"/>
    </g>
   </g>
   <g id="line2d_21">
    <path d="M 54.929321 136.330864 
L 176.615734 26.758136 
" clip-path="url(#pa4a98b6704)" style="fill: none; stroke-dasharray: 2.442,1.056; stroke-dashoffset: 0; stroke: #202020; stroke-width: 0.66"/>
   </g>
   <g id="patch_3">
    <path d="M 48.845 141.8095 
L 48.845 21.2795 
" style="fill: none; stroke: #000000; stroke-width: 0.8; stroke-linejoin: miter; stroke-linecap: square"/>
   </g>
   <g id="patch_4">
    <path d="M 48.845 141.8095 
L 182.700055 141.8095 
" style="fill: none; stroke: #000000; stroke-width: 0.8; stroke-linejoin: miter; stroke-linecap: square"/>
   </g>
   <g id="legend_1">
    <g id="PathCollection_2">
     <g>
      <use xlink:href="#m240ff8640c" x="66.621903" y="14.37875" style="fill: #ff5b5b; fill-opacity: 0.5; stroke: #ff5b5b; stroke-opacity: 0.5"/>
     </g>
    </g>
    <g id="text_15">
     <!-- Previsto -->
     <g transform="translate(81.021903 16.47875) scale(0.08 -0.08)">
      <use xlink:href="#DejaVuSerif-50"/>
      <use xlink:href="#DejaVuSerif-72" transform="translate(67.285156 0)"/>
      <use xlink:href="#DejaVuSerif-65" transform="translate(115.087891 0)"/>
      <use xlink:href="#DejaVuSerif-76" transform="translate(174.267578 0)"/>
      <use xlink:href="#DejaVuSerif-69" transform="translate(230.761719 0)"/>
      <use xlink:href="#DejaVuSerif-73" transform="translate(262.744141 0)"/>
      <use xlink:href="#DejaVuSerif-74" transform="translate(314.0625 0)"/>
      <use xlink:href="#DejaVuSerif-6f" transform="translate(354.248047 0)"/>
     </g>
    </g>
    <g id="line2d_22">
     <path d="M 130.178153 13.67875 
L 138.178153 13.67875 
L 146.178153 13.67875 
" style="fill: none; stroke-dasharray: 2.442,1.056; stroke-dashoffset: 0; stroke: #202020; stroke-width: 0.66"/>
    </g>
    <g id="text_16">
     <!-- Ideal -->
     <g transform="translate(152.578153 16.47875) scale(0.08 -0.08)">
      <defs>
       <path id="DejaVuSerif-49" d="M 1581 331 
L 2175 331 
L 2175 0 
L 353 0 
L 353 331 
L 947 331 
L 947 4331 
L 353 4331 
L 353 4666 
L 2175 4666 
L 2175 4331 
L 1581 4331 
L 1581 331 
z
" transform="scale(0.015625)"/>
       <path id="DejaVuSerif-64" d="M 3359 331 
L 3909 331 
L 3909 0 
L 2784 0 
L 2784 519 
Q 2616 206 2355 57 
Q 2094 -91 1709 -91 
Q 1097 -91 708 395 
Q 319 881 319 1663 
Q 319 2444 706 2928 
Q 1094 3413 1709 3413 
Q 2094 3413 2355 3264 
Q 2616 3116 2784 2803 
L 2784 4531 
L 2241 4531 
L 2241 4863 
L 3359 4863 
L 3359 331 
z
M 2784 1497 
L 2784 1825 
Q 2784 2422 2554 2737 
Q 2325 3053 1888 3053 
Q 1444 3053 1217 2703 
Q 991 2353 991 1663 
Q 991 975 1217 622 
Q 1444 269 1888 269 
Q 2325 269 2554 583 
Q 2784 897 2784 1497 
z
" transform="scale(0.015625)"/>
      </defs>
      <use xlink:href="#DejaVuSerif-49"/>
      <use xlink:href="#DejaVuSerif-64" transform="translate(39.501953 0)"/>
      <use xlink:href="#DejaVuSerif-65" transform="translate(103.515625 0)"/>
      <use xlink:href="#DejaVuSerif-61" transform="translate(162.695312 0)"/>
      <use xlink:href="#DejaVuSerif-6c" transform="translate(222.314453 0)"/>
     </g>
    </g>
   </g>
  </g>
  <g id="axes_2">
   <g id="patch_5">
    <path d="M 226.61489 141.8095 
L 494.325 141.8095 
L 494.325 21.2795 
L 226.61489 21.2795 
z
" style="fill: #ffffff"/>
   </g>
   <g id="matplotlib.axis_3">
    <g id="xtick_6">
     <g id="line2d_23">
      <path d="M 237.443372 141.8095 
L 237.443372 21.2795 
" clip-path="url(#p7038b3e3c3)" style="fill: none; stroke-dasharray: 2.96,1.28; stroke-dashoffset: 0; stroke: #b0b0b0; stroke-opacity: 0.5; stroke-width: 0.8"/>
     </g>
     <g id="line2d_24">
      <g>
       <use xlink:href="#me7fb44f6ad" x="237.443372" y="141.8095" style="stroke: #000000; stroke-width: 0.8"/>
      </g>
     </g>
     <g id="text_17">
      <!-- 2010 -->
      <g transform="translate(227.263372 154.88825) scale(0.08 -0.08)">
       <use xlink:href="#DejaVuSerif-32"/>
       <use xlink:href="#DejaVuSerif-30" transform="translate(63.623047 0)"/>
       <use xlink:href="#DejaVuSerif-31" transform="translate(127.246094 0)"/>
       <use xlink:href="#DejaVuSerif-30" transform="translate(190.869141 0)"/>
      </g>
     </g>
    </g>
    <g id="xtick_7">
     <g id="line2d_25">
      <path d="M 270.053902 141.8095 
L 270.053902 21.2795 
" clip-path="url(#p7038b3e3c3)" style="fill: none; stroke-dasharray: 2.96,1.28; stroke-dashoffset: 0; stroke: #b0b0b0; stroke-opacity: 0.5; stroke-width: 0.8"/>
     </g>
     <g id="line2d_26">
      <g>
       <use xlink:href="#me7fb44f6ad" x="270.053902" y="141.8095" style="stroke: #000000; stroke-width: 0.8"/>
      </g>
     </g>
     <g id="text_18">
      <!-- 2012 -->
      <g transform="translate(259.873902 154.88825) scale(0.08 -0.08)">
       <use xlink:href="#DejaVuSerif-32"/>
       <use xlink:href="#DejaVuSerif-30" transform="translate(63.623047 0)"/>
       <use xlink:href="#DejaVuSerif-31" transform="translate(127.246094 0)"/>
       <use xlink:href="#DejaVuSerif-32" transform="translate(190.869141 0)"/>
      </g>
     </g>
    </g>
    <g id="xtick_8">
     <g id="line2d_27">
      <path d="M 302.709103 141.8095 
L 302.709103 21.2795 
" clip-path="url(#p7038b3e3c3)" style="fill: none; stroke-dasharray: 2.96,1.28; stroke-dashoffset: 0; stroke: #b0b0b0; stroke-opacity: 0.5; stroke-width: 0.8"/>
     </g>
     <g id="line2d_28">
      <g>
       <use xlink:href="#me7fb44f6ad" x="302.709103" y="141.8095" style="stroke: #000000; stroke-width: 0.8"/>
      </g>
     </g>
     <g id="text_19">
      <!-- 2014 -->
      <g transform="translate(292.529103 154.88825) scale(0.08 -0.08)">
       <use xlink:href="#DejaVuSerif-32"/>
       <use xlink:href="#DejaVuSerif-30" transform="translate(63.623047 0)"/>
       <use xlink:href="#DejaVuSerif-31" transform="translate(127.246094 0)"/>
       <use xlink:href="#DejaVuSerif-34" transform="translate(190.869141 0)"/>
      </g>
     </g>
    </g>
    <g id="xtick_9">
     <g id="line2d_29">
      <path d="M 335.319633 141.8095 
L 335.319633 21.2795 
" clip-path="url(#p7038b3e3c3)" style="fill: none; stroke-dasharray: 2.96,1.28; stroke-dashoffset: 0; stroke: #b0b0b0; stroke-opacity: 0.5; stroke-width: 0.8"/>
     </g>
     <g id="line2d_30">
      <g>
       <use xlink:href="#me7fb44f6ad" x="335.319633" y="141.8095" style="stroke: #000000; stroke-width: 0.8"/>
      </g>
     </g>
     <g id="text_20">
      <!-- 2016 -->
      <g transform="translate(325.139633 154.88825) scale(0.08 -0.08)">
       <use xlink:href="#DejaVuSerif-32"/>
       <use xlink:href="#DejaVuSerif-30" transform="translate(63.623047 0)"/>
       <use xlink:href="#DejaVuSerif-31" transform="translate(127.246094 0)"/>
       <use xlink:href="#DejaVuSerif-36" transform="translate(190.869141 0)"/>
      </g>
     </g>
    </g>
    <g id="xtick_10">
     <g id="line2d_31">
      <path d="M 367.974834 141.8095 
L 367.974834 21.2795 
" clip-path="url(#p7038b3e3c3)" style="fill: none; stroke-dasharray: 2.96,1.28; stroke-dashoffset: 0; stroke: #b0b0b0; stroke-opacity: 0.5; stroke-width: 0.8"/>
     </g>
     <g id="line2d_32">
      <g>
       <use xlink:href="#me7fb44f6ad" x="367.974834" y="141.8095" style="stroke: #000000; stroke-width: 0.8"/>
      </g>
     </g>
     <g id="text_21">
      <!-- 2018 -->
      <g transform="translate(357.794834 154.88825) scale(0.08 -0.08)">
       <use xlink:href="#DejaVuSerif-32"/>
       <use xlink:href="#DejaVuSerif-30" transform="translate(63.623047 0)"/>
       <use xlink:href="#DejaVuSerif-31" transform="translate(127.246094 0)"/>
       <use xlink:href="#DejaVuSerif-38" transform="translate(190.869141 0)"/>
      </g>
     </g>
    </g>
    <g id="xtick_11">
     <g id="line2d_33">
      <path d="M 400.585363 141.8095 
L 400.585363 21.2795 
" clip-path="url(#p7038b3e3c3)" style="fill: none; stroke-dasharray: 2.96,1.28; stroke-dashoffset: 0; stroke: #b0b0b0; stroke-opacity: 0.5; stroke-width: 0.8"/>
     </g>
     <g id="line2d_34">
      <g>
       <use xlink:href="#me7fb44f6ad" x="400.585363" y="141.8095" style="stroke: #000000; stroke-width: 0.8"/>
      </g>
     </g>
     <g id="text_22">
      <!-- 2020 -->
      <g transform="translate(390.405363 154.88825) scale(0.08 -0.08)">
       <use xlink:href="#DejaVuSerif-32"/>
       <use xlink:href="#DejaVuSerif-30" transform="translate(63.623047 0)"/>
       <use xlink:href="#DejaVuSerif-32" transform="translate(127.246094 0)"/>
       <use xlink:href="#DejaVuSerif-30" transform="translate(190.869141 0)"/>
      </g>
     </g>
    </g>
    <g id="xtick_12">
     <g id="line2d_35">
      <path d="M 433.240565 141.8095 
L 433.240565 21.2795 
" clip-path="url(#p7038b3e3c3)" style="fill: none; stroke-dasharray: 2.96,1.28; stroke-dashoffset: 0; stroke: #b0b0b0; stroke-opacity: 0.5; stroke-width: 0.8"/>
     </g>
     <g id="line2d_36">
      <g>
       <use xlink:href="#me7fb44f6ad" x="433.240565" y="141.8095" style="stroke: #000000; stroke-width: 0.8"/>
      </g>
     </g>
     <g id="text_23">
      <!-- 2022 -->
      <g transform="translate(423.060565 154.88825) scale(0.08 -0.08)">
       <use xlink:href="#DejaVuSerif-32"/>
       <use xlink:href="#DejaVuSerif-30" transform="translate(63.623047 0)"/>
       <use xlink:href="#DejaVuSerif-32" transform="translate(127.246094 0)"/>
       <use xlink:href="#DejaVuSerif-32" transform="translate(190.869141 0)"/>
      </g>
     </g>
    </g>
    <g id="xtick_13">
     <g id="line2d_37">
      <path d="M 465.851094 141.8095 
L 465.851094 21.2795 
" clip-path="url(#p7038b3e3c3)" style="fill: none; stroke-dasharray: 2.96,1.28; stroke-dashoffset: 0; stroke: #b0b0b0; stroke-opacity: 0.5; stroke-width: 0.8"/>
     </g>
     <g id="line2d_38">
      <g>
       <use xlink:href="#me7fb44f6ad" x="465.851094" y="141.8095" style="stroke: #000000; stroke-width: 0.8"/>
      </g>
     </g>
     <g id="text_24">
      <!-- 2024 -->
      <g transform="translate(455.671094 154.88825) scale(0.08 -0.08)">
       <use xlink:href="#DejaVuSerif-32"/>
       <use xlink:href="#DejaVuSerif-30" transform="translate(63.623047 0)"/>
       <use xlink:href="#DejaVuSerif-32" transform="translate(127.246094 0)"/>
       <use xlink:href="#DejaVuSerif-34" transform="translate(190.869141 0)"/>
      </g>
     </g>
    </g>
    <g id="text_25">
     <!-- Série histórica -->
     <g transform="translate(330.792445 166.63075) scale(0.08 -0.08)">
      <defs>
       <path id="DejaVuSerif-53" d="M 594 225 
L 594 1288 
L 953 1284 
Q 969 753 1261 498 
Q 1553 244 2150 244 
Q 2706 244 2998 464 
Q 3291 684 3291 1106 
Q 3291 1444 3114 1625 
Q 2938 1806 2369 1978 
L 1753 2163 
Q 1084 2366 811 2669 
Q 538 2972 538 3500 
Q 538 4094 959 4422 
Q 1381 4750 2144 4750 
Q 2469 4750 2856 4679 
Q 3244 4609 3681 4475 
L 3681 3481 
L 3328 3481 
Q 3275 3975 2998 4195 
Q 2722 4416 2156 4416 
Q 1663 4416 1405 4214 
Q 1147 4013 1147 3628 
Q 1147 3294 1340 3103 
Q 1534 2913 2163 2725 
L 2741 2553 
Q 3375 2363 3645 2067 
Q 3916 1772 3916 1275 
Q 3916 597 3481 253 
Q 3047 -91 2188 -91 
Q 1803 -91 1404 -12 
Q 1006 66 594 225 
z
" transform="scale(0.015625)"/>
       <path id="DejaVuSerif-e9" d="M 3469 1600 
L 991 1600 
L 991 1575 
Q 991 903 1244 561 
Q 1497 219 1991 219 
Q 2369 219 2611 417 
Q 2853 616 2950 1006 
L 3413 1006 
Q 3275 459 2904 184 
Q 2534 -91 1931 -91 
Q 1203 -91 761 389 
Q 319 869 319 1663 
Q 319 2450 753 2931 
Q 1188 3413 1894 3413 
Q 2647 3413 3050 2948 
Q 3453 2484 3469 1600 
z
M 2791 1931 
Q 2772 2513 2545 2808 
Q 2319 3103 1894 3103 
Q 1497 3103 1269 2806 
Q 1041 2509 991 1931 
L 2791 1931 
z
M 2330 5119 
L 2952 5119 
L 1890 3944 
L 1524 3944 
L 2330 5119 
z
" transform="scale(0.015625)"/>
       <path id="DejaVuSerif-20" transform="scale(0.015625)"/>
       <path id="DejaVuSerif-68" d="M 263 0 
L 263 331 
L 781 331 
L 781 4531 
L 231 4531 
L 231 4863 
L 1356 4863 
L 1356 2731 
Q 1516 3069 1770 3241 
Q 2025 3413 2363 3413 
Q 2913 3413 3172 3097 
Q 3431 2781 3431 2113 
L 3431 331 
L 3944 331 
L 3944 0 
L 2356 0 
L 2356 331 
L 2853 331 
L 2853 1931 
Q 2853 2541 2704 2764 
Q 2556 2988 2175 2988 
Q 1775 2988 1565 2697 
Q 1356 2406 1356 1850 
L 1356 331 
L 1856 331 
L 1856 0 
L 263 0 
z
" transform="scale(0.015625)"/>
       <path id="DejaVuSerif-f3" d="M 1925 219 
Q 2388 219 2623 584 
Q 2859 950 2859 1663 
Q 2859 2375 2623 2739 
Q 2388 3103 1925 3103 
Q 1463 3103 1227 2739 
Q 991 2375 991 1663 
Q 991 950 1228 584 
Q 1466 219 1925 219 
z
M 1925 -91 
Q 1200 -91 759 389 
Q 319 869 319 1663 
Q 319 2456 758 2934 
Q 1197 3413 1925 3413 
Q 2653 3413 3092 2934 
Q 3531 2456 3531 1663 
Q 3531 869 3092 389 
Q 2653 -91 1925 -91 
z
M 2362 5119 
L 2984 5119 
L 1922 3944 
L 1556 3944 
L 2362 5119 
z
" transform="scale(0.015625)"/>
       <path id="DejaVuSerif-63" d="M 3291 997 
Q 3169 466 2822 187 
Q 2475 -91 1925 -91 
Q 1200 -91 759 389 
Q 319 869 319 1663 
Q 319 2459 759 2936 
Q 1200 3413 1925 3413 
Q 2241 3413 2553 3339 
Q 2866 3266 3181 3116 
L 3181 2266 
L 2847 2266 
Q 2781 2703 2561 2903 
Q 2341 3103 1931 3103 
Q 1466 3103 1228 2742 
Q 991 2381 991 1663 
Q 991 944 1227 581 
Q 1463 219 1931 219 
Q 2303 219 2525 412 
Q 2747 606 2828 997 
L 3291 997 
z
" transform="scale(0.015625)"/>
      </defs>
      <use xlink:href="#DejaVuSerif-53"/>
      <use xlink:href="#DejaVuSerif-e9" transform="translate(68.505859 0)"/>
      <use xlink:href="#DejaVuSerif-72" transform="translate(127.685547 0)"/>
      <use xlink:href="#DejaVuSerif-69" transform="translate(175.488281 0)"/>
      <use xlink:href="#DejaVuSerif-65" transform="translate(207.470703 0)"/>
      <use xlink:href="#DejaVuSerif-20" transform="translate(266.650391 0)"/>
      <use xlink:href="#DejaVuSerif-68" transform="translate(298.4375 0)"/>
      <use xlink:href="#DejaVuSerif-69" transform="translate(362.841797 0)"/>
      <use xlink:href="#DejaVuSerif-73" transform="translate(394.824219 0)"/>
      <use xlink:href="#DejaVuSerif-74" transform="translate(446.142578 0)"/>
      <use xlink:href="#DejaVuSerif-f3" transform="translate(486.328125 0)"/>
      <use xlink:href="#DejaVuSerif-72" transform="translate(546.533203 0)"/>
      <use xlink:href="#DejaVuSerif-69" transform="translate(594.335938 0)"/>
      <use xlink:href="#DejaVuSerif-63" transform="translate(626.318359 0)"/>
      <use xlink:href="#DejaVuSerif-61" transform="translate(682.324219 0)"/>
     </g>
    </g>
   </g>
   <g id="matplotlib.axis_4">
    <g id="ytick_6">
     <g id="line2d_39">
      <path d="M 226.61489 140.093734 
L 494.325 140.093734 
" clip-path="url(#p7038b3e3c3)" style="fill: none; stroke-dasharray: 2.96,1.28; stroke-dashoffset: 0; stroke: #b0b0b0; stroke-opacity: 0.5; stroke-width: 0.8"/>
     </g>
     <g id="line2d_40">
      <g>
       <use xlink:href="#m08850cfb3d" x="226.61489" y="140.093734" style="stroke: #000000; stroke-width: 0.8"/>
      </g>
     </g>
     <g id="text_26">
      <!-- 2.5 -->
      <g transform="translate(206.89239 143.133109) scale(0.08 -0.08)">
       <use xlink:href="#DejaVuSerif-32"/>
       <use xlink:href="#DejaVuSerif-2e" transform="translate(63.623047 0)"/>
       <use xlink:href="#DejaVuSerif-35" transform="translate(95.410156 0)"/>
      </g>
     </g>
    </g>
    <g id="ytick_7">
     <g id="line2d_41">
      <path d="M 226.61489 120.513529 
L 494.325 120.513529 
" clip-path="url(#p7038b3e3c3)" style="fill: none; stroke-dasharray: 2.96,1.28; stroke-dashoffset: 0; stroke: #b0b0b0; stroke-opacity: 0.5; stroke-width: 0.8"/>
     </g>
     <g id="line2d_42">
      <g>
       <use xlink:href="#m08850cfb3d" x="226.61489" y="120.513529" style="stroke: #000000; stroke-width: 0.8"/>
      </g>
     </g>
     <g id="text_27">
      <!-- 5.0 -->
      <g transform="translate(206.89239 123.552904) scale(0.08 -0.08)">
       <use xlink:href="#DejaVuSerif-35"/>
       <use xlink:href="#DejaVuSerif-2e" transform="translate(63.623047 0)"/>
       <use xlink:href="#DejaVuSerif-30" transform="translate(95.410156 0)"/>
      </g>
     </g>
    </g>
    <g id="ytick_8">
     <g id="line2d_43">
      <path d="M 226.61489 100.933325 
L 494.325 100.933325 
" clip-path="url(#p7038b3e3c3)" style="fill: none; stroke-dasharray: 2.96,1.28; stroke-dashoffset: 0; stroke: #b0b0b0; stroke-opacity: 0.5; stroke-width: 0.8"/>
     </g>
     <g id="line2d_44">
      <g>
       <use xlink:href="#m08850cfb3d" x="226.61489" y="100.933325" style="stroke: #000000; stroke-width: 0.8"/>
      </g>
     </g>
     <g id="text_28">
      <!-- 7.5 -->
      <g transform="translate(206.89239 103.9727) scale(0.08 -0.08)">
       <use xlink:href="#DejaVuSerif-37"/>
       <use xlink:href="#DejaVuSerif-2e" transform="translate(63.623047 0)"/>
       <use xlink:href="#DejaVuSerif-35" transform="translate(95.410156 0)"/>
      </g>
     </g>
    </g>
    <g id="ytick_9">
     <g id="line2d_45">
      <path d="M 226.61489 81.35312 
L 494.325 81.35312 
" clip-path="url(#p7038b3e3c3)" style="fill: none; stroke-dasharray: 2.96,1.28; stroke-dashoffset: 0; stroke: #b0b0b0; stroke-opacity: 0.5; stroke-width: 0.8"/>
     </g>
     <g id="line2d_46">
      <g>
       <use xlink:href="#m08850cfb3d" x="226.61489" y="81.35312" style="stroke: #000000; stroke-width: 0.8"/>
      </g>
     </g>
     <g id="text_29">
      <!-- 10.0 -->
      <g transform="translate(201.80239 84.392495) scale(0.08 -0.08)">
       <use xlink:href="#DejaVuSerif-31"/>
       <use xlink:href="#DejaVuSerif-30" transform="translate(63.623047 0)"/>
       <use xlink:href="#DejaVuSerif-2e" transform="translate(127.246094 0)"/>
       <use xlink:href="#DejaVuSerif-30" transform="translate(159.033203 0)"/>
      </g>
     </g>
    </g>
    <g id="ytick_10">
     <g id="line2d_47">
      <path d="M 226.61489 61.772916 
L 494.325 61.772916 
" clip-path="url(#p7038b3e3c3)" style="fill: none; stroke-dasharray: 2.96,1.28; stroke-dashoffset: 0; stroke: #b0b0b0; stroke-opacity: 0.5; stroke-width: 0.8"/>
     </g>
     <g id="line2d_48">
      <g>
       <use xlink:href="#m08850cfb3d" x="226.61489" y="61.772916" style="stroke: #000000; stroke-width: 0.8"/>
      </g>
     </g>
     <g id="text_30">
      <!-- 12.5 -->
      <g transform="translate(201.80239 64.812291) scale(0.08 -0.08)">
       <use xlink:href="#DejaVuSerif-31"/>
       <use xlink:href="#DejaVuSerif-32" transform="translate(63.623047 0)"/>
       <use xlink:href="#DejaVuSerif-2e" transform="translate(127.246094 0)"/>
       <use xlink:href="#DejaVuSerif-35" transform="translate(159.033203 0)"/>
      </g>
     </g>
    </g>
    <g id="ytick_11">
     <g id="line2d_49">
      <path d="M 226.61489 42.192711 
L 494.325 42.192711 
" clip-path="url(#p7038b3e3c3)" style="fill: none; stroke-dasharray: 2.96,1.28; stroke-dashoffset: 0; stroke: #b0b0b0; stroke-opacity: 0.5; stroke-width: 0.8"/>
     </g>
     <g id="line2d_50">
      <g>
       <use xlink:href="#m08850cfb3d" x="226.61489" y="42.192711" style="stroke: #000000; stroke-width: 0.8"/>
      </g>
     </g>
     <g id="text_31">
      <!-- 15.0 -->
      <g transform="translate(201.80239 45.232086) scale(0.08 -0.08)">
       <use xlink:href="#DejaVuSerif-31"/>
       <use xlink:href="#DejaVuSerif-35" transform="translate(63.623047 0)"/>
       <use xlink:href="#DejaVuSerif-2e" transform="translate(127.246094 0)"/>
       <use xlink:href="#DejaVuSerif-30" transform="translate(159.033203 0)"/>
      </g>
     </g>
    </g>
    <g id="ytick_12">
     <g id="line2d_51">
      <path d="M 226.61489 22.612507 
L 494.325 22.612507 
" clip-path="url(#p7038b3e3c3)" style="fill: none; stroke-dasharray: 2.96,1.28; stroke-dashoffset: 0; stroke: #b0b0b0; stroke-opacity: 0.5; stroke-width: 0.8"/>
     </g>
     <g id="line2d_52">
      <g>
       <use xlink:href="#m08850cfb3d" x="226.61489" y="22.612507" style="stroke: #000000; stroke-width: 0.8"/>
      </g>
     </g>
     <g id="text_32">
      <!-- 17.5 -->
      <g transform="translate(201.80239 25.651882) scale(0.08 -0.08)">
       <use xlink:href="#DejaVuSerif-31"/>
       <use xlink:href="#DejaVuSerif-37" transform="translate(63.623047 0)"/>
       <use xlink:href="#DejaVuSerif-2e" transform="translate(127.246094 0)"/>
       <use xlink:href="#DejaVuSerif-35" transform="translate(159.033203 0)"/>
      </g>
     </g>
    </g>
    <g id="text_33">
     <!-- Geração Térmica (MWMed) -->
     <g transform="translate(196.13864 137.667) rotate(-90) scale(0.08 -0.08)">
      <defs>
       <path id="DejaVuSerif-47" d="M 4097 3272 
Q 3988 3856 3641 4136 
Q 3294 4416 2675 4416 
Q 1869 4416 1472 3897 
Q 1075 3378 1075 2328 
Q 1075 1300 1484 772 
Q 1894 244 2688 244 
Q 3041 244 3362 331 
Q 3684 419 3975 594 
L 3975 1797 
L 3097 1797 
L 3097 2131 
L 4609 2131 
L 4609 391 
Q 4194 150 3714 29 
Q 3234 -91 2688 -91 
Q 1631 -91 995 570 
Q 359 1231 359 2328 
Q 359 3434 996 4092 
Q 1634 4750 2713 4750 
Q 3113 4750 3539 4658 
Q 3966 4566 4447 4378 
L 4447 3272 
L 4097 3272 
z
" transform="scale(0.015625)"/>
       <path id="DejaVuSerif-e7" d="M 3291 997 
Q 3169 466 2822 187 
Q 2475 -91 1925 -91 
Q 1200 -91 759 389 
Q 319 869 319 1663 
Q 319 2459 759 2936 
Q 1200 3413 1925 3413 
Q 2241 3413 2553 3339 
Q 2866 3266 3181 3116 
L 3181 2266 
L 2847 2266 
Q 2781 2703 2561 2903 
Q 2341 3103 1931 3103 
Q 1466 3103 1228 2742 
Q 991 2381 991 1663 
Q 991 944 1227 581 
Q 1463 219 1931 219 
Q 2303 219 2525 412 
Q 2747 606 2828 997 
L 3291 997 
z
M 2118 0 
Q 2318 -200 2416 -375 
Q 2515 -550 2515 -703 
Q 2515 -956 2318 -1095 
Q 2121 -1234 1771 -1234 
Q 1640 -1234 1502 -1215 
Q 1365 -1197 1221 -1159 
L 1221 -750 
Q 1350 -803 1473 -829 
Q 1596 -856 1706 -856 
Q 1884 -856 1987 -773 
Q 2090 -691 2090 -550 
Q 2090 -463 2021 -325 
Q 1953 -188 1815 0 
L 2118 0 
z
" transform="scale(0.015625)"/>
       <path id="DejaVuSerif-e3" d="M 2547 1044 
L 2547 1747 
L 1806 1747 
Q 1378 1747 1168 1562 
Q 959 1378 959 997 
Q 959 650 1171 447 
Q 1384 244 1747 244 
Q 2106 244 2326 466 
Q 2547 688 2547 1044 
z
M 3122 2075 
L 3122 331 
L 3634 331 
L 3634 0 
L 2547 0 
L 2547 359 
Q 2356 128 2106 18 
Q 1856 -91 1522 -91 
Q 969 -91 644 203 
Q 319 497 319 997 
Q 319 1513 691 1797 
Q 1063 2081 1741 2081 
L 2547 2081 
L 2547 2309 
Q 2547 2688 2317 2895 
Q 2088 3103 1672 3103 
Q 1328 3103 1125 2947 
Q 922 2791 872 2484 
L 575 2484 
L 575 3156 
Q 875 3284 1158 3348 
Q 1441 3413 1709 3413 
Q 2400 3413 2761 3070 
Q 3122 2728 3122 2075 
z
M 1764 4281 
L 1585 4453 
Q 1504 4528 1452 4551 
Q 1401 4575 1342 4575 
Q 1210 4575 1135 4451 
Q 1060 4328 1045 4091 
L 745 4091 
Q 751 4513 910 4742 
Q 1070 4972 1354 4972 
Q 1473 4972 1573 4928 
Q 1673 4884 1789 4781 
L 1967 4609 
Q 2039 4538 2092 4513 
Q 2145 4488 2210 4488 
Q 2345 4488 2420 4613 
Q 2495 4738 2507 4972 
L 2807 4972 
Q 2801 4550 2641 4320 
Q 2482 4091 2198 4091 
Q 2079 4091 1979 4134 
Q 1879 4178 1764 4281 
z
" transform="scale(0.015625)"/>
       <path id="DejaVuSerif-54" d="M 1222 0 
L 1222 331 
L 1819 331 
L 1819 4294 
L 447 4294 
L 447 3566 
L 63 3566 
L 63 4666 
L 4206 4666 
L 4206 3566 
L 3822 3566 
L 3822 4294 
L 2450 4294 
L 2450 331 
L 3047 331 
L 3047 0 
L 1222 0 
z
" transform="scale(0.015625)"/>
       <path id="DejaVuSerif-6d" d="M 3316 2675 
Q 3481 3041 3739 3227 
Q 3997 3413 4341 3413 
Q 4863 3413 5119 3089 
Q 5375 2766 5375 2113 
L 5375 331 
L 5894 331 
L 5894 0 
L 4300 0 
L 4300 331 
L 4800 331 
L 4800 2047 
Q 4800 2556 4650 2772 
Q 4500 2988 4153 2988 
Q 3769 2988 3567 2697 
Q 3366 2406 3366 1850 
L 3366 331 
L 3866 331 
L 3866 0 
L 2291 0 
L 2291 331 
L 2791 331 
L 2791 2069 
Q 2791 2566 2641 2777 
Q 2491 2988 2144 2988 
Q 1759 2988 1557 2697 
Q 1356 2406 1356 1850 
L 1356 331 
L 1856 331 
L 1856 0 
L 263 0 
L 263 331 
L 781 331 
L 781 2994 
L 231 2994 
L 231 3322 
L 1356 3322 
L 1356 2731 
Q 1516 3063 1762 3238 
Q 2009 3413 2322 3413 
Q 2709 3413 2968 3220 
Q 3228 3028 3316 2675 
z
" transform="scale(0.015625)"/>
       <path id="DejaVuSerif-28" d="M 2041 -997 
Q 1281 -656 893 83 
Q 506 822 506 1931 
Q 506 3044 893 3783 
Q 1281 4522 2041 4863 
L 2041 4556 
Q 1559 4225 1350 3623 
Q 1141 3022 1141 1931 
Q 1141 844 1350 242 
Q 1559 -359 2041 -691 
L 2041 -997 
z
" transform="scale(0.015625)"/>
       <path id="DejaVuSerif-4d" d="M 353 0 
L 353 331 
L 947 331 
L 947 4331 
L 319 4331 
L 319 4666 
L 1678 4666 
L 3316 1344 
L 4953 4666 
L 6228 4666 
L 6228 4331 
L 5606 4331 
L 5606 331 
L 6203 331 
L 6203 0 
L 4378 0 
L 4378 331 
L 4972 331 
L 4972 3938 
L 3372 684 
L 2931 684 
L 1331 3938 
L 1331 331 
L 1925 331 
L 1925 0 
L 353 0 
z
" transform="scale(0.015625)"/>
       <path id="DejaVuSerif-57" d="M 4878 0 
L 4366 0 
L 3297 3794 
L 2228 0 
L 1716 0 
L 494 4331 
L 31 4331 
L 31 4666 
L 1734 4666 
L 1734 4331 
L 1153 4331 
L 2125 884 
L 3188 4666 
L 3694 4666 
L 4775 844 
L 5753 4331 
L 5216 4331 
L 5216 4666 
L 6559 4666 
L 6559 4331 
L 6100 4331 
L 4878 0 
z
" transform="scale(0.015625)"/>
       <path id="DejaVuSerif-29" d="M 453 -997 
L 453 -691 
Q 934 -359 1145 242 
Q 1356 844 1356 1931 
Q 1356 3022 1145 3623 
Q 934 4225 453 4556 
L 453 4863 
Q 1216 4522 1603 3783 
Q 1991 3044 1991 1931 
Q 1991 822 1603 83 
Q 1216 -656 453 -997 
z
" transform="scale(0.015625)"/>
      </defs>
      <use xlink:href="#DejaVuSerif-47"/>
      <use xlink:href="#DejaVuSerif-65" transform="translate(79.882812 0)"/>
      <use xlink:href="#DejaVuSerif-72" transform="translate(139.0625 0)"/>
      <use xlink:href="#DejaVuSerif-61" transform="translate(186.865234 0)"/>
      <use xlink:href="#DejaVuSerif-e7" transform="translate(246.484375 0)"/>
      <use xlink:href="#DejaVuSerif-e3" transform="translate(302.490234 0)"/>
      <use xlink:href="#DejaVuSerif-6f" transform="translate(362.109375 0)"/>
      <use xlink:href="#DejaVuSerif-20" transform="translate(422.314453 0)"/>
      <use xlink:href="#DejaVuSerif-54" transform="translate(454.101562 0)"/>
      <use xlink:href="#DejaVuSerif-e9" transform="translate(513.050781 0)"/>
      <use xlink:href="#DejaVuSerif-72" transform="translate(572.230469 0)"/>
      <use xlink:href="#DejaVuSerif-6d" transform="translate(620.033203 0)"/>
      <use xlink:href="#DejaVuSerif-69" transform="translate(714.857422 0)"/>
      <use xlink:href="#DejaVuSerif-63" transform="translate(746.839844 0)"/>
      <use xlink:href="#DejaVuSerif-61" transform="translate(802.845703 0)"/>
      <use xlink:href="#DejaVuSerif-20" transform="translate(862.464844 0)"/>
      <use xlink:href="#DejaVuSerif-28" transform="translate(894.251953 0)"/>
      <use xlink:href="#DejaVuSerif-4d" transform="translate(933.265625 0)"/>
      <use xlink:href="#DejaVuSerif-57" transform="translate(1035.658203 0)"/>
      <use xlink:href="#DejaVuSerif-4d" transform="translate(1138.441406 0)"/>
      <use xlink:href="#DejaVuSerif-65" transform="translate(1240.833984 0)"/>
      <use xlink:href="#DejaVuSerif-64" transform="translate(1300.013672 0)"/>
      <use xlink:href="#DejaVuSerif-29" transform="translate(1364.027344 0)"/>
     </g>
    </g>
    <g id="text_34">
     <!-- 1e3 -->
     <g transform="translate(226.61489 18.2795) scale(0.08 -0.08)">
      <use xlink:href="#DejaVuSerif-31"/>
      <use xlink:href="#DejaVuSerif-65" transform="translate(63.623047 0)"/>
      <use xlink:href="#DejaVuSerif-33" transform="translate(122.802734 0)"/>
     </g>
    </g>
   </g>
   <g id="line2d_53">
    <path d="M 238.783531 135.50832 
L 240.034346 131.736022 
L 241.419177 132.031786 
L 242.759335 135.049413 
L 244.144166 126.573032 
L 245.484325 112.738677 
L 246.869156 117.80601 
L 248.253986 102.291793 
L 249.594145 90.318886 
L 250.978976 100.825352 
L 252.319134 103.843654 
L 253.703965 112.895695 
L 255.088796 129.991183 
L 256.339611 128.978095 
L 257.724441 132.565806 
L 259.0646 136.330864 
L 260.449431 129.380668 
L 261.78959 121.017177 
L 263.17442 122.21359 
L 264.559251 125.764408 
L 265.89941 127.047367 
L 267.28424 122.471146 
L 268.624399 118.944697 
L 270.00923 119.868404 
L 271.394061 128.93885 
L 272.689547 126.885968 
L 274.074378 128.330298 
L 275.414537 103.180317 
L 276.799367 104.542949 
L 278.139526 125.31061 
L 279.524357 129.966464 
L 280.909188 116.534693 
L 282.249346 90.536835 
L 283.634177 75.419588 
L 284.974336 59.818759 
L 286.359167 66.845713 
L 287.743997 73.312603 
L 288.994812 73.574066 
L 290.379643 80.002125 
L 291.719801 84.80132 
L 293.104632 80.566691 
L 294.444791 76.058256 
L 295.829622 89.318874 
L 297.214452 86.047747 
L 298.554611 84.515255 
L 299.939442 83.515534 
L 301.2796 76.437223 
L 302.664431 82.246342 
L 304.049262 73.131674 
L 305.300077 52.643412 
L 306.684907 51.038503 
L 308.025066 60.070549 
L 309.409897 41.492447 
L 310.750056 49.554753 
L 312.134886 50.235477 
L 313.519717 42.36454 
L 314.859876 43.038396 
L 316.244706 37.729843 
L 317.584865 34.545895 
L 318.969696 33.516391 
L 320.354527 36.5081 
L 321.605341 35.49369 
L 322.990172 33.220205 
L 324.330331 42.197543 
L 325.715162 56.256093 
L 327.05532 49.496376 
L 328.440151 60.406514 
L 329.824982 59.84332 
L 331.16514 52.427197 
L 332.549971 61.622687 
L 333.89013 54.330866 
L 335.274961 57.819652 
L 336.659791 64.372525 
L 337.955278 75.313477 
L 339.340109 87.916881 
L 340.680267 86.167464 
L 342.065098 95.625729 
L 343.405257 91.399796 
L 344.790088 98.840207 
L 346.174918 85.644626 
L 347.515077 80.035156 
L 348.899908 76.574187 
L 350.240067 78.676639 
L 351.624897 97.612564 
L 353.009728 96.406059 
L 354.260543 99.257814 
L 355.645373 87.222431 
L 356.985532 80.986205 
L 358.370363 82.109925 
L 359.710522 96.422845 
L 361.095352 76.518583 
L 362.480183 53.144022 
L 363.820342 57.206714 
L 365.205172 48.379753 
L 366.545331 55.310395 
L 367.930162 73.62324 
L 369.314993 91.055678 
L 370.565807 99.328112 
L 371.950638 97.049723 
L 373.290797 103.41412 
L 374.675628 100.074384 
L 376.015786 79.352478 
L 377.400617 71.120426 
L 378.785448 67.158454 
L 380.125606 61.946065 
L 381.510437 84.108999 
L 382.850596 119.012064 
L 384.235427 117.371911 
L 385.620257 110.492112 
L 386.871072 82.954619 
L 388.255903 100.879085 
L 389.596062 109.22807 
L 390.980892 117.455938 
L 392.321051 111.945377 
L 393.705882 84.984013 
L 395.090712 72.327712 
L 396.430871 71.39923 
L 397.815702 66.924561 
L 399.155861 64.520078 
L 400.540691 77.830506 
L 401.925522 68.686006 
L 403.221009 99.521918 
L 404.605839 110.970199 
L 405.945998 118.825193 
L 407.330829 117.496944 
L 408.670988 115.205887 
L 410.055818 125.791765 
" clip-path="url(#p7038b3e3c3)" style="fill: none; stroke: #43aaff; stroke-width: 0.66; stroke-linecap: square"/>
   </g>
   <g id="line2d_54">
    <path d="M 410.055818 125.447945 
L 411.440649 119.999149 
L 412.780808 116.669922 
L 414.165638 69.612814 
L 415.505797 54.297709 
L 416.890628 55.956781 
L 418.275459 55.912317 
L 419.526273 81.843378 
L 420.911104 89.304834 
L 422.251263 90.66489 
L 423.636094 88.229518 
L 424.976252 57.678534 
L 426.361083 49.245471 
L 427.745914 34.548825 
L 429.086072 35.083652 
L 430.470903 26.758136 
L 431.811062 37.995107 
L 433.195893 63.73393 
L 434.580723 80.937853 
L 435.831538 101.054809 
L 437.216369 110.828859 
L 438.556528 127.766554 
L 439.941358 126.782652 
L 441.281517 124.648931 
L 442.666348 128.991096 
L 444.051178 121.509302 
L 445.391337 121.142744 
L 446.776168 117.505363 
L 448.116327 125.146685 
L 449.501157 120.696227 
L 450.885988 121.332926 
L 452.136803 128.063379 
L 453.521634 125.988581 
L 454.861792 120.764855 
L 456.246623 125.757574 
L 457.586782 111.949027 
L 458.971612 118.406252 
L 460.356443 119.683505 
L 461.696602 124.345851 
L 463.081433 132.198075 
L 464.421591 115.94298 
L 465.806422 108.46309 
L 467.191253 109.780746 
L 468.486739 117.123189 
L 469.87157 122.06923 
L 471.211729 125.882893 
L 472.59656 128.724715 
L 473.936718 122.460918 
L 475.321549 109.979195 
L 476.70638 99.515122 
L 478.046538 79.521387 
L 479.431369 70.187884 
L 480.771528 104.692692 
L 482.156359 112.932164 
" clip-path="url(#p7038b3e3c3)" style="fill: none; stroke-dasharray: 2.442,1.056; stroke-dashoffset: 0; stroke: #969696; stroke-width: 0.66"/>
   </g>
   <g id="line2d_55">
    <path d="M 410.055818 77.575688 
L 411.440649 66.587333 
L 412.780808 61.83404 
L 414.165638 60.117776 
L 415.505797 67.336356 
L 416.890628 79.086555 
L 418.275459 85.510153 
L 419.526273 96.896869 
L 420.911104 102.995909 
L 422.251263 103.412994 
L 423.636094 105.068508 
L 424.976252 99.342124 
L 426.361083 86.630515 
L 427.745914 69.308882 
L 429.086072 63.428496 
L 430.470903 59.431747 
L 431.811062 63.805235 
L 433.195893 75.4352 
L 434.580723 83.918402 
L 435.831538 92.381434 
L 437.216369 100.601989 
L 438.556528 100.339468 
L 439.941358 99.049103 
L 441.281517 93.558644 
L 442.666348 71.933769 
L 444.051178 62.720773 
L 445.391337 61.852827 
L 446.776168 57.594445 
L 448.116327 61.270535 
L 449.501157 78.275722 
L 450.885988 84.701879 
L 452.136803 98.581884 
L 453.521634 103.181565 
L 454.861792 105.481467 
L 456.246623 108.805087 
L 457.586782 107.7299 
L 458.971612 102.377768 
L 460.356443 101.905039 
L 461.696602 102.284167 
L 463.081433 103.405055 
L 464.421591 107.873799 
L 465.806422 107.201852 
L 467.191253 88.774654 
L 468.486739 102.113869 
L 469.87157 104.822276 
L 471.211729 104.972221 
L 472.59656 107.652604 
L 473.936718 102.860196 
L 475.321549 81.140732 
L 476.70638 67.768193 
L 478.046538 65.06069 
L 479.431369 61.455417 
L 480.771528 72.474222 
L 482.156359 83.18419 
" clip-path="url(#p7038b3e3c3)" style="fill: none; stroke: #ff5b5b; stroke-width: 0.66; stroke-linecap: square"/>
   </g>
   <g id="patch_6">
    <path d="M 226.61489 141.8095 
L 226.61489 21.2795 
" style="fill: none; stroke: #000000; stroke-width: 0.8; stroke-linejoin: miter; stroke-linecap: square"/>
   </g>
   <g id="patch_7">
    <path d="M 226.61489 141.8095 
L 494.325 141.8095 
" style="fill: none; stroke: #000000; stroke-width: 0.8; stroke-linejoin: miter; stroke-linecap: square"/>
   </g>
   <g id="text_35">
    <g id="patch_8">
     <path d="M 229.869092 44.019156 
L 296.925811 44.019156 
L 296.925811 25.206 
L 229.869092 25.206 
z
" style="fill: #ffffff"/>
    </g>
    <!-- R² = -0.068 -->
    <g transform="translate(231.969092 32.624906) scale(0.07 -0.07)">
     <defs>
      <path id="DejaVuSerif-b2" d="M 531 4050 
L 313 4050 
L 313 4544 
Q 519 4644 737 4697 
Q 956 4750 1172 4750 
Q 1603 4750 1870 4544 
Q 2138 4338 2138 4013 
Q 2138 3631 1531 3088 
L 1472 3034 
L 728 2363 
L 1931 2363 
L 1931 2700 
L 2163 2700 
L 2163 2088 
L 281 2088 
L 281 2322 
L 1172 3116 
Q 1441 3356 1556 3547 
Q 1672 3738 1672 3944 
Q 1672 4209 1520 4364 
Q 1369 4519 1106 4519 
Q 863 4519 716 4400 
Q 569 4281 531 4050 
z
" transform="scale(0.015625)"/>
      <path id="DejaVuSerif-3d" d="M 678 2894 
L 4684 2894 
L 4684 2394 
L 678 2394 
L 678 2894 
z
M 678 1619 
L 4684 1619 
L 4684 1119 
L 678 1119 
L 678 1619 
z
" transform="scale(0.015625)"/>
      <path id="DejaVuSerif-2d" d="M 281 1959 
L 1881 1959 
L 1881 1472 
L 281 1472 
L 281 1959 
z
" transform="scale(0.015625)"/>
     </defs>
     <use xlink:href="#DejaVuSerif-52"/>
     <use xlink:href="#DejaVuSerif-b2" transform="translate(75.292969 0)"/>
     <use xlink:href="#DejaVuSerif-20" transform="translate(115.380859 0)"/>
     <use xlink:href="#DejaVuSerif-3d" transform="translate(147.167969 0)"/>
     <use xlink:href="#DejaVuSerif-20" transform="translate(230.957031 0)"/>
     <use xlink:href="#DejaVuSerif-2d" transform="translate(262.744141 0)"/>
     <use xlink:href="#DejaVuSerif-30" transform="translate(296.533203 0)"/>
     <use xlink:href="#DejaVuSerif-2e" transform="translate(360.15625 0)"/>
     <use xlink:href="#DejaVuSerif-30" transform="translate(391.943359 0)"/>
     <use xlink:href="#DejaVuSerif-36" transform="translate(455.566406 0)"/>
     <use xlink:href="#DejaVuSerif-38" transform="translate(519.189453 0)"/>
    </g>
    <!-- MSE = 1.56E+07 -->
    <g transform="translate(231.969092 40.463375) scale(0.07 -0.07)">
     <defs>
      <path id="DejaVuSerif-45" d="M 353 0 
L 353 331 
L 947 331 
L 947 4331 
L 353 4331 
L 353 4666 
L 4109 4666 
L 4109 3628 
L 3725 3628 
L 3725 4281 
L 1581 4281 
L 1581 2719 
L 3109 2719 
L 3109 3303 
L 3494 3303 
L 3494 1753 
L 3109 1753 
L 3109 2338 
L 1581 2338 
L 1581 384 
L 3775 384 
L 3775 1038 
L 4159 1038 
L 4159 0 
L 353 0 
z
" transform="scale(0.015625)"/>
      <path id="DejaVuSerif-2b" d="M 2931 4013 
L 2931 2259 
L 4684 2259 
L 4684 1753 
L 2931 1753 
L 2931 0 
L 2431 0 
L 2431 1753 
L 678 1753 
L 678 2259 
L 2431 2259 
L 2431 4013 
L 2931 4013 
z
" transform="scale(0.015625)"/>
     </defs>
     <use xlink:href="#DejaVuSerif-4d"/>
     <use xlink:href="#DejaVuSerif-53" transform="translate(102.392578 0)"/>
     <use xlink:href="#DejaVuSerif-45" transform="translate(170.898438 0)"/>
     <use xlink:href="#DejaVuSerif-20" transform="translate(243.896484 0)"/>
     <use xlink:href="#DejaVuSerif-3d" transform="translate(275.683594 0)"/>
     <use xlink:href="#DejaVuSerif-20" transform="translate(359.472656 0)"/>
     <use xlink:href="#DejaVuSerif-31" transform="translate(391.259766 0)"/>
     <use xlink:href="#DejaVuSerif-2e" transform="translate(454.882812 0)"/>
     <use xlink:href="#DejaVuSerif-35" transform="translate(486.669922 0)"/>
     <use xlink:href="#DejaVuSerif-36" transform="translate(550.292969 0)"/>
     <use xlink:href="#DejaVuSerif-45" transform="translate(613.916016 0)"/>
     <use xlink:href="#DejaVuSerif-2b" transform="translate(686.914062 0)"/>
     <use xlink:href="#DejaVuSerif-30" transform="translate(770.703125 0)"/>
     <use xlink:href="#DejaVuSerif-37" transform="translate(834.326172 0)"/>
    </g>
   </g>
   <g id="legend_2">
    <g id="line2d_56">
     <path d="M 272.03682 13.67875 
L 280.03682 13.67875 
L 288.03682 13.67875 
" style="fill: none; stroke: #43aaff; stroke-width: 0.66; stroke-linecap: square"/>
    </g>
    <g id="text_36">
     <!-- Treino -->
     <g transform="translate(294.43682 16.47875) scale(0.08 -0.08)">
      <defs>
       <path id="DejaVuSerif-6e" d="M 263 0 
L 263 331 
L 781 331 
L 781 2988 
L 231 2988 
L 231 3322 
L 1356 3322 
L 1356 2731 
Q 1516 3069 1770 3241 
Q 2025 3413 2363 3413 
Q 2913 3413 3172 3097 
Q 3431 2781 3431 2113 
L 3431 331 
L 3944 331 
L 3944 0 
L 2356 0 
L 2356 331 
L 2853 331 
L 2853 1931 
Q 2853 2541 2703 2767 
Q 2553 2994 2175 2994 
Q 1775 2994 1565 2701 
Q 1356 2409 1356 1850 
L 1356 331 
L 1856 331 
L 1856 0 
L 263 0 
z
" transform="scale(0.015625)"/>
      </defs>
      <use xlink:href="#DejaVuSerif-54"/>
      <use xlink:href="#DejaVuSerif-72" transform="translate(66.699219 0)"/>
      <use xlink:href="#DejaVuSerif-65" transform="translate(114.501953 0)"/>
      <use xlink:href="#DejaVuSerif-69" transform="translate(173.681641 0)"/>
      <use xlink:href="#DejaVuSerif-6e" transform="translate(205.664062 0)"/>
      <use xlink:href="#DejaVuSerif-6f" transform="translate(270.068359 0)"/>
     </g>
    </g>
    <g id="line2d_57">
     <path d="M 336.85932 13.67875 
L 344.85932 13.67875 
L 352.85932 13.67875 
" style="fill: none; stroke-dasharray: 2.442,1.056; stroke-dashoffset: 0; stroke: #969696; stroke-width: 0.66"/>
    </g>
    <g id="text_37">
     <!-- Real -->
     <g transform="translate(359.25932 16.47875) scale(0.08 -0.08)">
      <use xlink:href="#DejaVuSerif-52"/>
      <use xlink:href="#DejaVuSerif-65" transform="translate(75.292969 0)"/>
      <use xlink:href="#DejaVuSerif-61" transform="translate(134.472656 0)"/>
      <use xlink:href="#DejaVuSerif-6c" transform="translate(194.091797 0)"/>
     </g>
    </g>
    <g id="line2d_58">
     <path d="M 393.34682 13.67875 
L 401.34682 13.67875 
L 409.34682 13.67875 
" style="fill: none; stroke: #ff5b5b; stroke-width: 0.66; stroke-linecap: square"/>
    </g>
    <g id="text_38">
     <!-- Previsto -->
     <g transform="translate(415.74682 16.47875) scale(0.08 -0.08)">
      <use xlink:href="#DejaVuSerif-50"/>
      <use xlink:href="#DejaVuSerif-72" transform="translate(67.285156 0)"/>
      <use xlink:href="#DejaVuSerif-65" transform="translate(115.087891 0)"/>
      <use xlink:href="#DejaVuSerif-76" transform="translate(174.267578 0)"/>
      <use xlink:href="#DejaVuSerif-69" transform="translate(230.761719 0)"/>
      <use xlink:href="#DejaVuSerif-73" transform="translate(262.744141 0)"/>
      <use xlink:href="#DejaVuSerif-74" transform="translate(314.0625 0)"/>
      <use xlink:href="#DejaVuSerif-6f" transform="translate(354.248047 0)"/>
     </g>
    </g>
   </g>
  </g>
 </g>
 <defs>
  <clipPath id="pa4a98b6704">
   <rect x="48.845" y="21.2795" width="133.855055" height="120.53"/>
  </clipPath>
  <clipPath id="p7038b3e3c3">
   <rect x="226.61489" y="21.2795" width="267.71011" height="120.53"/>
  </clipPath>
 </defs>
</svg>
